<svg version="1.1" xmlns="http://www.w3.org/2000/svg" xmlns:xlink="http://www.w3.org/1999/xlink" width="72.0046" height="186.54714" viewBox="0,0,72.0046,186.54714"><g transform="translate(-180.15405,-88.65764)"><g data-paper-data="{&quot;isPaintingLayer&quot;:true}" fill-rule="nonzero" stroke="none" stroke-linecap="butt" stroke-linejoin="miter" stroke-miterlimit="10" stroke-dasharray="" stroke-dashoffset="0" style="mix-blend-mode: normal"><path d="M180.15405,268.30901c0,-3.80843 15.73938,-6.89577 35.15489,-6.89577c19.41551,0 35.15489,3.08734 35.15489,6.89577c0,3.80843 -15.73938,6.89577 -35.15489,6.89577c-19.41551,0 -35.15489,-3.08734 -35.15489,-6.89577z" fill="#000000" stroke-width="0"/><g stroke-width="1"><g><path d="M242.07672,202.15854l-0.63408,-2.53633l7.29196,-3.42405c0,0 0.06341,0.38045 0.25363,0.95112c0.25363,0.7609 0.88772,2.40952 1.71202,3.48746c0.7609,1.01453 0.57067,2.02907 -0.57067,1.77543c0,0.06341 0,0.06341 0,0.12682c0.19022,1.20476 0.19022,1.90225 -1.14135,1.90225c0,0 -0.31704,1.33157 -1.90225,0.82431c0,0 -1.07794,1.01453 -2.34611,0.50727c0,0 -0.7609,0.44386 -2.09247,-0.82431c-0.7609,-0.69749 -1.58521,-2.09247 -0.57067,-2.78997z" fill="#c5886b"/><g><g><path d="M243.4717,203.42671c-0.19022,-1.01453 0.12682,-1.64862 0.44386,-1.71202c0.82431,-0.12682 1.14135,1.45839 1.5218,2.21929c0.38045,0.7609 0.7609,0.63408 0.7609,0.63408c-1.07794,-1.45839 -0.63408,-2.91678 -0.44386,-2.98019c0.57067,-0.25363 0.88772,0 1.01453,0.25363c-0.12682,-0.82431 0.63408,-1.01453 1.01453,-1.01453c0.7609,0.06341 1.71202,2.78997 1.71202,2.78997c0.06341,0.19022 0.06341,0.50727 0,0.82431c-0.12682,0 -0.31704,0.06341 -0.50727,0.06341c0,0 -0.31704,1.33157 -1.90225,0.82431c0,0 -1.07794,1.01453 -2.34611,0.50727c0,0 -0.7609,0.44386 -2.09247,-0.82431c-0.69749,-0.69749 -1.5218,-1.96566 -0.63408,-2.66315c0.12682,-0.06341 0.25363,-0.06341 0.38045,-0.06341c0.69749,-0.12682 1.01453,0.7609 1.07794,1.14135z" fill="#c5886b"/><path d="M249.11504,204.44124c-0.25363,-0.06341 -0.57067,-0.12682 -0.88772,-0.38045c-0.31704,-0.25363 -0.63408,-0.63408 -0.88772,-1.01453c-0.19022,-0.19022 -0.25363,-0.38045 -0.38045,-0.63408c-0.12682,-0.19022 -0.25363,-0.44386 -0.31704,-0.69749c-0.06341,-0.31704 0.12682,-0.63408 0.38045,-0.82431c0.25363,-0.12682 0.50727,-0.25363 0.82431,-0.19022c0.12682,0 0.25363,0.06341 0.38045,0.19022c0.06341,0.12682 0.12682,0.19022 0.19022,0.31704c0.12682,0.19022 0.25363,0.31704 0.31704,0.50727c0.31704,0.69749 0.50727,1.14135 0.50727,1.14135c0,0 -0.25363,-0.38045 -0.69749,-1.01453c-0.12682,-0.19022 -0.25363,-0.31704 -0.38045,-0.50727c-0.19022,-0.19022 -0.25363,-0.31704 -0.44386,-0.31704c-0.12682,0 -0.38045,0.06341 -0.50727,0.19022c-0.12682,0.12682 -0.25363,0.31704 -0.19022,0.44386c0.06341,0.19022 0.19022,0.44386 0.25363,0.63408c0.12682,0.19022 0.19022,0.44386 0.31704,0.63408c0.06341,0.19022 0.19022,0.38045 0.31704,0.57067c0.12682,0.19022 0.25363,0.31704 0.38045,0.44386c0.25363,0.25363 0.50727,0.38045 0.69749,0.44386c0.19022,0.06341 0.31704,0.06341 0.31704,0.06341c0,0 -0.12682,0 -0.19022,0z" fill="#a95947"/><path d="M246.57871,201.52446c-0.19022,-0.06341 -0.44386,-0.12682 -0.63408,0c-0.19022,0.06341 -0.31704,0.38045 -0.31704,0.69749c0,0.12682 0.06341,0.31704 0.06341,0.50727c0,0.19022 0.06341,0.38045 0.12682,0.57067c0.06341,0.19022 0.12682,0.31704 0.19022,0.50727c0.06341,0.12682 0.19022,0.31704 0.25363,0.44386c0.25363,0.31704 0.44386,0.50727 0.69749,0.63408c0.19022,0.12682 0.44386,0.19022 0.57067,0.25363c0.19022,0.06341 0.25363,0.06341 0.25363,0.06341v0.25363c0,0 -0.44386,0 -1.01453,-0.25363c-0.31704,-0.12682 -0.57067,-0.38045 -0.82431,-0.69749c-0.12682,-0.12682 -0.25363,-0.31704 -0.31704,-0.50727c-0.12682,-0.19022 -0.19022,-0.38045 -0.25363,-0.57067c-0.06341,-0.19022 -0.12682,-0.38045 -0.12682,-0.57067c0,-0.19022 0,-0.38045 0,-0.57067c0.06341,-0.19022 0.06341,-0.38045 0.19022,-0.57067c0.12682,-0.19022 0.25363,-0.31704 0.44386,-0.38045c0.38045,-0.06341 0.63408,0.06341 0.7609,0.19022c0.12682,0.06341 0.19022,0.19022 0.19022,0.19022c0,0 -0.06341,-0.06341 -0.25363,-0.19022z" fill="#a95947"/><path d="M245.43736,205.89964c-0.25363,0 -0.63408,0 -1.07794,-0.25363c-0.25363,-0.12682 -0.44386,-0.25363 -0.57067,-0.50727c-0.12682,-0.19022 -0.25363,-0.50727 -0.31704,-0.7609c-0.12682,-0.50727 -0.31704,-1.07794 -0.31704,-1.71202c0.06341,-0.25363 0,-0.63408 0.31704,-0.95112c0.12682,-0.19022 0.31704,-0.19022 0.50727,-0.19022c0.06341,0 0.12682,0 0.25363,0.06341c0.06341,0 0.19022,0.06341 0.25363,0.12682c0.31704,0.19022 0.38045,0.44386 0.50727,0.69749c0.12682,0.25363 0.19022,0.50727 0.25363,0.69749c0.25363,0.88772 0.31704,1.45839 0.31704,1.45839c0,0 -0.06341,-0.12682 -0.12682,-0.38045c-0.06341,-0.25363 -0.19022,-0.63408 -0.38045,-1.01453c-0.12682,-0.19022 -0.19022,-0.44386 -0.31704,-0.63408c-0.12682,-0.19022 -0.25363,-0.44386 -0.44386,-0.57067c-0.19022,-0.12682 -0.44386,-0.12682 -0.57067,0c-0.12682,0.12682 -0.12682,0.44386 -0.12682,0.69749c0,0.57067 0.12682,1.14135 0.25363,1.64862c0.06341,0.25363 0.12682,0.50727 0.25363,0.69749c0.12682,0.25363 0.31704,0.38045 0.44386,0.50727c0.31704,0.25363 0.69749,0.31704 0.95112,0.31704c0.25363,0 0.38045,0 0.38045,0c0,0 -0.12682,0.06341 -0.44386,0.06341z" fill="#a95947"/><path d="M243.28148,203.23649c0,0 -0.06341,-0.12682 -0.25363,-0.25363c-0.06341,-0.06341 -0.12682,-0.19022 -0.25363,-0.25363c-0.06341,-0.06341 -0.19022,-0.12682 -0.31704,-0.19022c-0.06341,0 -0.12682,-0.06341 -0.19022,-0.06341c0,0 -0.06341,0 -0.12682,0c-0.06341,0 -0.19022,0.06341 -0.25363,0.12682c-0.06341,0.06341 -0.12682,0.12682 -0.19022,0.19022c-0.06341,0.06341 -0.06341,0.06341 -0.06341,0.06341c0,0 0,-0.06341 0,-0.12682c0,-0.12682 0,-0.19022 0.06341,-0.31704c0.06341,-0.06341 0.06341,-0.12682 0.12682,-0.19022c0,-0.12682 0.12682,-0.12682 0.19022,-0.19022c0.19022,-0.06341 0.38045,-0.06341 0.57067,0c0.38045,0.12682 0.57067,0.38045 0.7609,0.57067c0.19022,0.19022 0.25363,0.31704 0.25363,0.31704z" fill="#a95947"/></g><g><path d="M248.92482,201.01719c-3.0436,-4.12154 -1.14135,-3.48746 -0.38045,-3.67768c0.12682,-0.06341 0.31704,0 0.57067,0.12682c0.31704,0.82431 0.82431,2.21929 1.58521,3.23382c0.7609,1.01453 0.57067,2.02907 -0.57067,1.77543c-0.50727,-0.31704 -0.7609,-0.82431 -1.20476,-1.45839z" fill="#c5886b"/><path d="M250.44662,202.47559c-0.12682,0 -0.25363,-0.06341 -0.44386,-0.12682c-0.12682,-0.06341 -0.31704,-0.19022 -0.50727,-0.31704c-0.19022,-0.12682 -0.38045,-0.31704 -0.50727,-0.50727c-0.25363,-0.31704 -0.50727,-0.7609 -0.63408,-1.07794c-0.12682,-0.31704 -0.19022,-0.57067 -0.19022,-0.57067c0,0 0.19022,0.19022 0.38045,0.44386c0.19022,0.25363 0.50727,0.63408 0.7609,0.95112c0.25363,0.38045 0.57067,0.69749 0.82431,0.88772c0.12682,0.12682 0.25363,0.19022 0.31704,0.25363c0.06341,0.06341 0.12682,0.06341 0.12682,0.06341c0,0 -0.06341,0 -0.12682,0z" fill="#a95947"/></g></g></g><g><path d="M234.27749,170.07393c2.98019,-0.57067 5.19948,-0.50727 7.29196,2.21929c2.02907,2.72656 2.59974,7.03832 3.48746,10.01852c0.95112,3.0436 7.03832,10.90623 7.03832,10.90623c-1.83884,6.91151 -14.14006,7.609 -14.14006,7.609c0,0 -5.83357,-12.04758 -8.17967,-24.3488c-0.63408,-3.0436 1.26817,-5.77016 4.50199,-6.40424z" fill="#224363"/><path d="M241.75968,172.54686c0.19022,0.25363 0.50727,0.69749 0.7609,1.20476c0.25363,0.50727 0.57067,1.14135 0.82431,1.83884c0.25363,0.69749 0.50727,1.45839 0.69749,2.21929c0.19022,0.7609 0.31704,1.5218 0.44386,2.2827c0.12682,0.7609 0.12682,1.45839 0.19022,2.02907c0,0.63408 0,1.14135 0,1.45839c0,0.38045 0,0.57067 0,0.57067c0,0 0,-0.25363 -0.06341,-0.57067c-0.06341,-0.31704 -0.12682,-0.82431 -0.19022,-1.39498c-0.06341,-0.31704 -0.06341,-0.63408 -0.12682,-0.95112c-0.06341,-0.31704 -0.12682,-0.63408 -0.19022,-1.01453c-0.12682,-0.69749 -0.31704,-1.45839 -0.50727,-2.21929c-0.19022,-0.7609 -0.38045,-1.5218 -0.63408,-2.21929c-0.25363,-0.69749 -0.44386,-1.33157 -0.69749,-1.90225c-0.25363,-0.50727 -0.44386,-0.95112 -0.63408,-1.26817c-0.12682,-0.31704 -0.25363,-0.50727 -0.25363,-0.50727c0,0 0.12682,0.19022 0.38045,0.44386z" fill="#1a324a"/><path d="M249.05163,189.09643l1.5218,1.96566c0.50727,0.69749 1.01453,1.33157 1.5218,1.96566l0.06341,0.06341v0.06341c-0.12682,0.38045 -0.25363,0.7609 -0.44386,1.14135c-0.19022,0.31704 -0.38045,0.69749 -0.63408,1.01453c-0.19022,0.31704 -0.50727,0.63408 -0.7609,0.95112c-0.12682,0.19022 -0.31704,0.31704 -0.44386,0.44386l-0.44386,0.38045c-0.31704,0.25363 -0.63408,0.50727 -1.01453,0.69749c-0.38045,0.25363 -0.69749,0.38045 -1.07794,0.57067c-0.38045,0.19022 -0.7609,0.31704 -1.14135,0.44386c-0.38045,0.12682 -0.7609,0.19022 -1.14135,0.31704l0.57067,-0.19022c0.19022,-0.06341 0.38045,-0.12682 0.57067,-0.19022c0.38045,-0.19022 0.7609,-0.31704 1.07794,-0.50727c0.31704,-0.12682 0.69749,-0.31704 1.01453,-0.57067c0.31704,-0.19022 0.63408,-0.44386 0.95112,-0.69749c0.25363,-0.25363 0.57067,-0.50727 0.82431,-0.82431c0.31704,-0.25363 0.57067,-0.57067 0.7609,-0.88772c0.19022,-0.31704 0.38045,-0.69749 0.57067,-1.01453c0.19022,-0.38045 0.38045,-0.69749 0.44386,-1.07794l0.06341,0.19022c-0.50727,-0.63408 -1.01453,-1.26817 -1.5218,-1.96566c-0.50727,-0.69749 -1.01453,-1.33157 -1.45839,-2.02907c-0.95112,-1.39498 -1.83884,-2.78997 -2.66315,-4.24836c0.95112,1.33157 1.90225,2.72656 2.78997,3.99472z" fill="#1a324a"/><path d="M230.72663,180.78994c0.12682,0.57067 0.31704,1.39498 0.63408,2.40952c0.31704,1.01453 0.69749,2.15588 1.07794,3.42405c0.44386,1.26817 0.88772,2.53633 1.39498,3.86791c0.44386,1.26817 0.95112,2.59974 1.45839,3.8045c0.50727,1.20476 0.95112,2.34611 1.33157,3.29723c0.82431,1.96566 1.33157,3.23382 1.33157,3.23382c0,0 -0.19022,-0.31704 -0.44386,-0.88772c-0.25363,-0.57067 -0.63408,-1.33157 -1.07794,-2.2827c-0.44386,-0.95112 -0.95112,-2.09247 -1.45839,-3.29723c-0.50727,-1.20476 -1.01453,-2.47292 -1.5218,-3.8045c-0.50727,-1.26817 -0.95112,-2.59974 -1.33157,-3.86791c-0.38045,-1.20476 -0.69749,-2.40952 -0.95112,-3.42405c-0.25363,-1.01453 -0.38045,-1.83884 -0.50727,-2.47292c-0.12682,-0.63408 -0.12682,-0.95112 -0.12682,-0.95112c0,0 0.06341,0.31704 0.19022,0.95112z" fill="#1a324a"/></g><g><path d="M229.20483,173.75161c-2.2827,-3.99472 -3.74109,-28.53375 -0.95112,-31.45053c2.98019,-3.17042 9.00398,-2.91678 10.96964,3.55087c1.5218,5.00926 1.01453,14.52051 1.14135,18.00796c0.12682,3.48746 0.19022,2.59974 0.95112,5.00926c0.7609,2.40952 0.25363,2.85337 -0.12682,3.61427c-0.38045,0.7609 -2.40952,2.09247 -5.64334,2.66315c-3.23382,0.50727 -5.07267,0.7609 -6.34083,-1.39498z" fill="#224363"/><path d="M231.04367,175.46364c-0.12682,-0.06341 -0.31704,-0.06341 -0.57067,-0.19022c-0.12682,-0.06341 -0.25363,-0.12682 -0.38045,-0.25363c-0.12682,-0.12682 -0.25363,-0.25363 -0.38045,-0.38045c-0.25363,-0.25363 -0.44386,-0.63408 -0.69749,-1.01453c-0.19022,-0.44386 -0.38045,-0.88772 -0.57067,-1.39498c-0.19022,-0.50727 -0.38045,-1.01453 -0.50727,-1.58521c-0.19022,-0.50727 -0.25363,-1.14135 -0.38045,-1.71202c-0.12682,-0.57067 -0.25363,-1.14135 -0.31704,-1.77543c-0.06341,-0.63408 -0.12682,-1.26817 -0.19022,-1.83884c-0.06341,-0.63408 -0.06341,-1.20476 -0.12682,-1.77543c0,-0.57067 -0.06341,-1.14135 -0.06341,-1.64862c-0.06341,-0.50727 -0.06341,-1.01453 -0.06341,-1.45839c0,-1.83884 0.06341,-3.0436 0.06341,-3.0436c0,0 0.12682,1.20476 0.19022,3.0436c0.06341,0.44386 0.06341,0.95112 0.12682,1.45839c0.06341,0.50727 0.06341,1.07794 0.12682,1.64862c0.06341,0.57067 0.12682,1.20476 0.19022,1.77543c0,0.57067 0.06341,1.20476 0.19022,1.77543c0.06341,0.57067 0.12682,1.20476 0.25363,1.77543c0.06341,0.57067 0.19022,1.14135 0.31704,1.71202c0.12682,0.57067 0.25363,1.07794 0.44386,1.58521c0.12682,0.44386 0.31704,0.88772 0.50727,1.33157c0.19022,0.38045 0.38045,0.7609 0.63408,1.01453c0.06341,0.19022 0.19022,0.25363 0.31704,0.38045c0.06341,0.12682 0.19022,0.19022 0.31704,0.25363c0.25363,0.12682 0.44386,0.19022 0.57067,0.19022c0.12682,0 0.19022,0 0.19022,0c0,0 -0.06341,0 -0.19022,0.12682z" fill="#1a324a"/><path d="M240.36469,163.16242c0.06341,0.63408 0.12682,1.39498 0.19022,2.15588c0.06341,0.38045 0.12682,0.82431 0.19022,1.20476c0.06341,0.44386 0.19022,0.82431 0.38045,1.14135c0.38045,0.82431 0.57067,1.64862 0.63408,2.47292c0.06341,0.82431 -0.12682,1.58521 -0.44386,2.15588c-0.31704,0.63408 -0.82431,0.88772 -1.14135,1.07794c-0.12682,0.06341 -0.25363,0.12682 -0.38045,0.12682c-0.06341,0.06341 -0.12682,0.06341 -0.12682,0.06341c0,0 0.19022,-0.06341 0.50727,-0.25363c0.31704,-0.19022 0.69749,-0.50727 0.95112,-1.07794c0.31704,-0.57067 0.38045,-1.26817 0.31704,-2.02907c-0.06341,-0.7609 -0.25363,-1.58521 -0.63408,-2.2827c-0.19022,-0.38045 -0.31704,-0.88772 -0.38045,-1.26817c-0.06341,-0.38045 -0.12682,-0.82431 -0.12682,-1.20476c-0.06341,-0.7609 -0.06341,-1.5218 -0.06341,-2.15588c0,-1.26817 0.12682,-2.09247 0.12682,-2.09247c0,0 0,0.82431 0,1.96566z" fill="#1a324a"/></g></g><g stroke-width="1"><g><path d="M216.64998,263.41099c0,0 3.29723,3.48746 5.19948,4.37517c1.90225,0.88772 2.98019,3.74109 0.7609,4.50199c-2.53633,0.82431 -13.94983,-0.31704 -16.16912,-4.18495c-2.15588,-3.93132 4.62881,-9.44784 10.20874,-4.69222z" fill="#382a1e"/><path d="M216.64998,262.26964c0,0 2.72656,3.48746 4.62881,4.37517c1.90225,0.88772 3.86791,3.99472 1.26817,4.50199c-2.59974,0.44386 -13.94983,-0.31704 -16.16912,-4.18495c-2.15588,-3.93132 4.62881,-9.44784 10.27215,-4.69222z" fill="#4d3a29"/><path d="M218.93268,265.8205c-0.12682,0.06341 -0.25363,0.19022 -0.38045,0.31704c-0.19022,0.12682 -0.31704,0.25363 -0.44386,0.38045c-0.25363,0.25363 -0.50727,0.57067 -0.7609,0.7609c-0.19022,0.19022 -0.38045,0.31704 -0.38045,0.31704c0,0 0.06341,-0.25363 0.19022,-0.50727c0.19022,-0.31704 0.38045,-0.63408 0.69749,-0.95112c0.31704,-0.31704 0.69749,-0.57067 1.01453,-0.63408c0.12682,-0.06341 0.31704,0 0.38045,0c0.06341,0 0.12682,0.06341 0.12682,0.06341c0,0 -0.19022,0 -0.44386,0.25363z" fill="#382a1e"/><path d="M217.66451,264.55234c-0.12682,0.06341 -0.25363,0.19022 -0.38045,0.31704c-0.19022,0.12682 -0.31704,0.25363 -0.44386,0.38045c-0.25363,0.25363 -0.50727,0.57067 -0.7609,0.7609c-0.19022,0.19022 -0.38045,0.31704 -0.38045,0.31704c0,0 0.06341,-0.25363 0.19022,-0.50727c0.19022,-0.31704 0.38045,-0.63408 0.69749,-0.95112c0.31704,-0.31704 0.69749,-0.57067 1.01453,-0.63408c0.12682,-0.06341 0.31704,0 0.38045,0c0.06341,0 0.12682,0.06341 0.12682,0.06341c0,0 -0.25363,-0.06341 -0.44386,0.25363z" fill="#382a1e"/></g><g><g><path d="M233.38978,261.38192c0,0 3.29723,3.48746 5.19948,4.37517c1.90225,0.88772 2.98019,3.74109 0.7609,4.50199c-2.53633,0.82431 -13.94983,-0.31704 -16.16912,-4.18495c-2.21929,-3.86791 4.5654,-9.38443 10.20874,-4.69222z" fill="#382a1e"/><path d="M233.32637,260.24057c0,0 2.72656,3.48746 4.62881,4.37517c1.90225,0.88772 3.86791,3.99472 1.26817,4.50199c-2.59974,0.44386 -13.94983,-0.31704 -16.16912,-4.18495c-2.15588,-3.93132 4.69222,-9.38443 10.27215,-4.69222z" fill="#4d3a29"/><path d="M235.60907,263.85485c-0.12682,0.06341 -0.25363,0.19022 -0.38045,0.31704c-0.19022,0.12682 -0.31704,0.25363 -0.44386,0.38045c-0.25363,0.25363 -0.50727,0.57067 -0.7609,0.7609c-0.19022,0.19022 -0.38045,0.31704 -0.38045,0.31704c0,0 0.06341,-0.25363 0.19022,-0.50727c0.19022,-0.31704 0.38045,-0.63408 0.69749,-0.95112c0.31704,-0.31704 0.69749,-0.57067 1.01453,-0.63408c0.12682,-0.06341 0.31704,0 0.38045,0c0.06341,0 0.12682,0.06341 0.12682,0.06341c0,0 -0.19022,-0.06341 -0.44386,0.25363z" fill="#382a1e"/><path d="M234.3409,262.52327c-0.12682,0.06341 -0.25363,0.19022 -0.38045,0.31704c-0.19022,0.12682 -0.31704,0.25363 -0.44386,0.38045c-0.25363,0.25363 -0.50727,0.57067 -0.7609,0.7609c-0.19022,0.19022 -0.38045,0.31704 -0.38045,0.31704c0,0 0.06341,-0.25363 0.19022,-0.50727c0.19022,-0.31704 0.38045,-0.63408 0.69749,-0.95112c0.31704,-0.31704 0.69749,-0.57067 1.01453,-0.63408c0.12682,-0.06341 0.31704,0 0.38045,0c0.06341,0 0.12682,0.06341 0.12682,0.06341c0,0 -0.25363,0 -0.44386,0.25363z" fill="#382a1e"/></g><path d="M231.42412,262.07941c0,0 -3.8045,1.77543 -8.62353,0.57067l-0.57067,-14.39369l10.14533,1.64862z" fill="#382a1e"/></g><g><g><path d="M212.71866,260.74784l7.92604,-9.63807l14.52051,-1.07794l5.45312,9.8917l-3.48746,5.00926l-6.40424,1.33157l-0.25363,-9.00398l-9.8917,2.2827l-1.39498,7.10173z" fill="#1c3752"/><path d="M237.19428,177.4293c0,0 3.61427,5.57993 3.93132,21.74906c0.31704,16.16912 3.10701,55.98955 7.16514,61.88653c0,0 -1.58521,8.05286 -16.16912,5.89697c-5.89697,-0.88772 9.82829,-3.29723 5.26289,-6.34083c-4.5654,-3.0436 -22.76359,2.34611 -19.27613,4.62881c3.48746,2.34611 -1.90225,4.37517 -11.85736,3.0436c-9.95511,-1.33157 -11.4135,1.39498 -16.54957,0.50727c-10.27215,-1.77543 -7.29196,-6.65787 -7.29196,-6.65787c0,0 7.48218,-6.8481 8.49672,-19.27613c1.01453,-12.42803 9.8917,-61.82312 16.16912,-65.81784c7.10173,-4.5654 22.57336,-8.30649 30.11895,0.38045z" fill="#264a6e"/><path d="M237.51132,259.41626c-0.31704,-1.33157 -0.7609,-3.23382 -1.26817,-5.57993c-0.44386,-2.34611 -1.01453,-5.07267 -1.5218,-7.98945c-0.50727,-2.91678 -1.01453,-6.02379 -1.45839,-9.19421c-0.19022,-1.58521 -0.44386,-3.10701 -0.57067,-4.69222c-0.12682,-1.58521 -0.31704,-3.10701 -0.44386,-4.5654c-0.12682,-1.45839 -0.25363,-2.85337 -0.31704,-4.24836c-0.06341,-1.39498 -0.19022,-2.66315 -0.19022,-3.86791c0,-1.20476 -0.06341,-2.2827 -0.06341,-3.23382c0,-0.95112 0.06341,-1.77543 0.06341,-2.47292c0.06341,-1.33157 0.06341,-2.15588 0.06341,-2.15588c0,0 0,0.7609 0,2.15588c0.06341,0.69749 0,1.5218 0.06341,2.47292c0,0.95112 0.06341,2.02907 0.12682,3.23382c0.06341,1.14135 0.19022,2.47292 0.25363,3.8045c0.06341,1.33157 0.25363,2.78997 0.38045,4.24836c0.12682,1.5218 0.31704,3.0436 0.50727,4.5654c0.12682,1.5218 0.38045,3.10701 0.57067,4.69222c0.44386,3.10701 0.88772,6.27742 1.39498,9.19421c0.44386,2.91678 0.95112,5.64334 1.39498,7.98945c0.50727,2.34611 0.82431,4.31177 1.14135,5.64334c0.25363,1.39498 0.44386,2.15588 0.44386,2.15588c0,0 -0.19022,-0.82431 -0.57067,-2.15588z" fill="#1a324a"/><path d="M217.91815,259.98694c0.12682,-1.33157 0.19022,-2.85337 0.31704,-4.50199c0.12682,-1.64862 0.19022,-3.42405 0.31704,-5.19948c0.12682,-1.77543 0.25363,-3.55087 0.31704,-5.19948c0.06341,-1.64862 0.12682,-3.17042 0.19022,-4.50199c0,-0.63408 0.06341,-1.26817 0.06341,-1.77543c0,-0.57067 0,-1.01453 0,-1.39498c0,-0.7609 0,-1.20476 0,-1.20476c0,0 0,0.44386 0.06341,1.20476c0.06341,0.38045 0.06341,0.88772 0.06341,1.39498c0,0.57067 0,1.20476 0,1.83884c0,1.33157 0,2.85337 -0.06341,4.50199c-0.06341,1.64862 -0.12682,3.42405 -0.25363,5.19948c-0.12682,1.77543 -0.25363,3.55087 -0.38045,5.19948c-0.12682,1.64862 -0.31704,3.17042 -0.44386,4.50199c-0.25363,2.59974 -0.50727,4.37517 -0.50727,4.37517c0,0 0.12682,-1.77543 0.31704,-4.43858z" fill="#1a324a"/><path d="M208.02645,182.7556c-0.12682,0.12682 -0.25363,0.38045 -0.44386,0.69749c-0.19022,0.31704 -0.38045,0.69749 -0.57067,1.14135c-0.19022,0.50727 -0.38045,1.01453 -0.57067,1.58521c-0.19022,0.57067 -0.38045,1.20476 -0.57067,1.90225c-0.19022,0.69749 -0.38045,1.39498 -0.57067,2.15588c-0.12682,0.7609 -0.38045,1.5218 -0.50727,2.2827c-0.12682,0.82431 -0.31704,1.58521 -0.44386,2.40952c-0.12682,0.82431 -0.31704,1.64862 -0.44386,2.40952c-0.12682,0.82431 -0.25363,1.58521 -0.38045,2.34611c-0.25363,1.5218 -0.44386,2.91678 -0.63408,4.12154c-0.31704,2.47292 -0.57067,4.05813 -0.57067,4.05813c0,0 0.12682,-1.64862 0.38045,-4.05813c0.06341,-0.63408 0.19022,-1.26817 0.25363,-1.96566c0.12682,-0.69749 0.19022,-1.45839 0.31704,-2.21929c0.19022,-1.5218 0.44386,-3.17042 0.7609,-4.75562c0.12682,-0.82431 0.31704,-1.64862 0.50727,-2.40952c0.19022,-0.7609 0.38045,-1.5218 0.57067,-2.2827c0.19022,-0.7609 0.44386,-1.45839 0.63408,-2.15588c0.19022,-0.69749 0.38045,-1.33157 0.63408,-1.90225c0.12682,-0.31704 0.19022,-0.57067 0.31704,-0.82431c0.12682,-0.25363 0.19022,-0.44386 0.31704,-0.69749c0.25363,-0.44386 0.44386,-0.82431 0.63408,-1.14135c0.19022,-0.25363 0.38045,-0.50727 0.50727,-0.63408c0.12682,-0.12682 0.19022,-0.19022 0.19022,-0.19022c0,0 -0.12682,0.06341 -0.31704,0.12682z" fill="#1a324a"/><path d="M226.54168,182.819c0.06341,0.12682 0.25363,0.31704 0.44386,0.57067c0.19022,0.25363 0.38045,0.57067 0.63408,0.95112c0.19022,0.38045 0.44386,0.7609 0.69749,1.26817c0.25363,0.50727 0.44386,1.01453 0.69749,1.58521c0.19022,0.57067 0.44386,1.20476 0.63408,1.83884c0.19022,0.63408 0.44386,1.26817 0.57067,1.96566c0.06341,0.31704 0.19022,0.69749 0.25363,1.01453l0.19022,1.07794c0.12682,0.69749 0.25363,1.39498 0.31704,2.09247c0.06341,0.31704 0.06341,0.69749 0.12682,1.01453c0,0.31704 0.06341,0.69749 0.06341,1.01453c0.06341,0.63408 0.12682,1.26817 0.12682,1.90225c0,0.57067 0.06341,1.20476 0.06341,1.71202c0.06341,1.07794 0,1.96566 0,2.59974c0,0.57067 0,0.95112 0,0.95112c0,0 -0.06341,-0.31704 -0.06341,-0.95112c-0.06341,-0.63408 -0.06341,-1.5218 -0.12682,-2.59974c-0.06341,-0.50727 -0.06341,-1.07794 -0.12682,-1.71202c-0.06341,-0.63408 -0.12682,-1.26817 -0.19022,-1.90225c-0.06341,-0.31704 -0.06341,-0.69749 -0.12682,-1.01453c0,-0.31704 -0.06341,-0.69749 -0.12682,-1.01453c-0.06341,-0.69749 -0.19022,-1.39498 -0.31704,-2.09247l-0.19022,-1.01453c-0.12682,-0.31704 -0.19022,-0.69749 -0.25363,-1.01453c-0.12682,-0.69749 -0.31704,-1.33157 -0.50727,-1.96566c-0.19022,-0.63408 -0.38045,-1.26817 -0.57067,-1.83884c-0.19022,-0.57067 -0.38045,-1.07794 -0.63408,-1.58521c-0.44386,-1.01453 -0.88772,-1.77543 -1.20476,-2.2827c-0.31704,-0.50727 -0.57067,-0.7609 -0.57067,-0.7609c0,0 0.06341,0.06341 0.19022,0.19022z" fill="#1a324a"/></g><g><path d="M238.27222,177.17566c0,0 1.71202,1.71202 0.12682,2.53633c-3.86791,1.96566 -10.08192,2.66315 -18.07137,2.72656c-7.98945,0 -17.18366,-0.69749 -15.66186,-5.19948c0.44386,-1.26817 1.14135,1.5218 4.12154,2.02907c3.0436,0.50727 18.64205,1.58521 23.96835,-0.25363c5.38971,-1.90225 4.50199,-2.2827 5.51652,-1.83884z" fill="#4d3a29"/><path d="M204.41217,177.93656c0,0.50727 0.12682,1.26817 0.7609,1.83884c0.31704,0.25363 0.7609,0.44386 1.20476,0.63408c0.44386,0.19022 0.95112,0.31704 1.45839,0.50727c1.07794,0.31704 2.15588,0.50727 3.29723,0.69749c1.14135,0.19022 2.2827,0.31704 3.36064,0.38045c1.07794,0.06341 2.02907,0.12682 2.91678,0.19022c1.71202,0.06341 2.85337,0.12682 2.85337,0.12682c0,0 -0.25363,0.06341 -0.7609,0.06341c-0.50727,0.06341 -1.20476,0.06341 -2.09247,0.06341c-0.88772,0 -1.90225,0 -2.98019,-0.06341c-1.07794,-0.06341 -2.21929,-0.12682 -3.36064,-0.31704c-1.14135,-0.12682 -2.2827,-0.44386 -3.29723,-0.7609c-0.50727,-0.12682 -1.01453,-0.38045 -1.45839,-0.57067c-0.44386,-0.19022 -0.88772,-0.44386 -1.20476,-0.7609c-0.31704,-0.31704 -0.50727,-0.69749 -0.57067,-1.07794c-0.06341,-0.38045 -0.06341,-0.69749 -0.06341,-0.95112c0.06341,-0.50727 0.19022,-0.7609 0.19022,-0.7609c0,0 -0.06341,0.25363 -0.25363,0.7609z" fill="#33221b"/><path d="M238.84289,178.06338c0.06341,0.06341 0.12682,0.19022 0.19022,0.31704c0.06341,0.12682 0.12682,0.31704 0.06341,0.57067c-0.06341,0.19022 -0.19022,0.44386 -0.38045,0.63408c-0.19022,0.19022 -0.44386,0.38045 -0.69749,0.50727c-0.25363,0.12682 -0.57067,0.25363 -0.88772,0.38045c-0.63408,0.25363 -1.26817,0.44386 -1.96566,0.63408c-0.63408,0.19022 -1.33157,0.31704 -1.96566,0.44386c-0.63408,0.12682 -1.26817,0.19022 -1.77543,0.25363c-1.01453,0.12682 -1.71202,0.12682 -1.71202,0.12682c0,0 0.69749,-0.19022 1.71202,-0.38045c0.50727,-0.12682 1.07794,-0.25363 1.71202,-0.38045c0.63408,-0.12682 1.33157,-0.25363 1.96566,-0.44386c0.69749,-0.19022 1.33157,-0.38045 1.96566,-0.57067c0.31704,-0.06341 0.57067,-0.19022 0.82431,-0.31704c0.31704,-0.12682 0.50727,-0.25363 0.69749,-0.44386c0.19022,-0.12682 0.31704,-0.31704 0.38045,-0.50727c0.06341,-0.19022 0.06341,-0.38045 0.06341,-0.50727c-0.06341,-0.31704 -0.19022,-0.44386 -0.19022,-0.44386c0,0 0.06341,0 0,0.12682z" fill="#33221b"/></g></g></g><g stroke-width="1"><g><path d="M237.25768,144.64719c4.5654,6.8481 5.13607,32.59188 0.38045,34.2405c-4.75562,1.64862 -8.24308,0.7609 -8.24308,0.7609c-7.54559,3.0436 -21.11497,2.72656 -24.28539,-1.90225c-2.02907,-2.91678 -3.8045,-24.47561 -1.33157,-31.83098c2.47292,-7.35537 9.82829,-10.14533 9.82829,-10.14533c7.10173,-2.40952 19.08591,2.02907 23.65131,8.87717z" fill="#264a6e"/><path d="M232.62888,177.36589c-0.25363,0.25363 -0.57067,0.63408 -1.01453,1.01453c-0.44386,0.38045 -1.01453,0.82431 -1.64862,1.20476c-0.31704,0.19022 -0.63408,0.31704 -1.01453,0.50727c-0.31704,0.12682 -0.69749,0.31704 -1.07794,0.44386c-0.38045,0.12682 -0.7609,0.31704 -1.14135,0.38045c-0.38045,0.06341 -0.7609,0.19022 -1.14135,0.25363c-0.38045,0.06341 -0.7609,0.12682 -1.07794,0.19022c-0.31704,0 -0.63408,0.06341 -0.95112,0.06341c-0.63408,0.06341 -1.14135,0.06341 -1.45839,0.06341c-0.38045,0 -0.57067,0 -0.57067,0c0,0 0.25363,0 0.57067,-0.06341c0.31704,-0.06341 0.82431,-0.06341 1.39498,-0.19022c0.31704,0 0.63408,-0.06341 0.95112,-0.12682c0.31704,-0.12682 0.63408,-0.19022 1.01453,-0.25363c0.31704,-0.12682 0.69749,-0.19022 1.07794,-0.31704c0.31704,-0.12682 0.69749,-0.25363 1.07794,-0.38045c0.38045,-0.12682 0.69749,-0.31704 1.07794,-0.44386c0.31704,-0.19022 0.69749,-0.31704 1.01453,-0.50727c0.31704,-0.19022 0.63408,-0.31704 0.88772,-0.50727c0.25363,-0.12682 0.50727,-0.31704 0.7609,-0.50727c0.25363,-0.19022 0.44386,-0.38045 0.63408,-0.50727c0.19022,-0.12682 0.31704,-0.25363 0.44386,-0.38045c0.25363,-0.25363 0.38045,-0.38045 0.38045,-0.38045c0,0 -0.12682,0.12682 -0.19022,0.44386z" fill="#1a324a"/><path d="M234.08727,174.95637c-0.57067,0.44386 -1.33157,1.07794 -2.15588,1.58521c-0.82431,0.57067 -1.71202,1.01453 -2.40952,1.26817c-0.19022,0.06341 -0.38045,0.12682 -0.50727,0.12682c-0.12682,0 -0.25363,0.06341 -0.38045,0.06341c-0.19022,0 -0.31704,0 -0.31704,0c0,0 0.12682,0 0.31704,-0.06341c0.12682,0 0.25363,-0.06341 0.38045,-0.12682c0.12682,0 0.25363,-0.12682 0.44386,-0.19022c0.63408,-0.31704 1.45839,-0.82431 2.2827,-1.33157c0.82431,-0.50727 1.58521,-1.07794 2.21929,-1.45839c0.57067,-0.38045 1.01453,-0.63408 1.01453,-0.63408c0,0 -0.31704,0.38045 -0.88772,0.7609z" fill="#1a324a"/><path d="M209.61165,138.43318c-0.31704,0.25363 -0.63408,0.50727 -1.01453,0.82431c-0.38045,0.31704 -0.7609,0.63408 -1.07794,1.01453c-0.12682,0.19022 -0.31704,0.38045 -0.50727,0.57067c-0.19022,0.19022 -0.31704,0.44386 -0.50727,0.63408c-0.38045,0.38045 -0.63408,0.88772 -0.95112,1.33157c-0.31704,0.50727 -0.57067,1.01453 -0.82431,1.45839c-0.19022,0.50727 -0.44386,1.01453 -0.63408,1.45839c-0.19022,0.50727 -0.38045,0.95112 -0.50727,1.39498c-0.12682,0.44386 -0.19022,0.88772 -0.31704,1.26817c-0.12682,0.38045 -0.19022,0.7609 -0.25363,1.07794c-0.06341,0.38045 -0.06341,0.63408 -0.12682,0.88772c-0.06341,0.50727 -0.12682,0.7609 -0.12682,0.7609c0,0 0,-0.25363 0.06341,-0.7609c0,-0.25363 0.06341,-0.57067 0.06341,-0.88772c0.06341,-0.38045 0.12682,-0.7609 0.19022,-1.14135c0.06341,-0.44386 0.12682,-0.88772 0.25363,-1.33157c0.12682,-0.44386 0.25363,-0.95112 0.44386,-1.45839c0.19022,-0.50727 0.44386,-1.01453 0.63408,-1.5218c0.25363,-0.44386 0.57067,-0.95112 0.82431,-1.45839c0.31704,-0.50727 0.57067,-0.95112 0.95112,-1.39498c0.19022,-0.19022 0.31704,-0.44386 0.50727,-0.63408c0.19022,-0.19022 0.38045,-0.38045 0.57067,-0.57067c0.38045,-0.38045 0.7609,-0.69749 1.14135,-1.01453c0.38045,-0.31704 0.69749,-0.57067 1.07794,-0.82431c1.39498,-0.88772 2.47292,-1.20476 2.47292,-1.20476c0,0 -1.07794,0.38045 -2.34611,1.5218z" fill="#1a324a"/><path d="M209.9287,180.72653c-0.25363,-0.06341 -0.50727,-0.12682 -0.7609,-0.19022c-0.25363,-0.06341 -0.57067,-0.19022 -0.82431,-0.31704c-0.31704,-0.12682 -0.57067,-0.31704 -0.88772,-0.44386c-0.25363,-0.12682 -0.57067,-0.31704 -0.82431,-0.50727c-0.25363,-0.25363 -0.57067,-0.44386 -0.7609,-0.69749c-0.25363,-0.25363 -0.44386,-0.50727 -0.63408,-0.7609c-0.06341,-0.12682 -0.19022,-0.25363 -0.25363,-0.38045c-0.06341,-0.12682 -0.12682,-0.25363 -0.19022,-0.38045c-0.12682,-0.25363 -0.25363,-0.50727 -0.31704,-0.7609c-0.06341,-0.19022 -0.12682,-0.44386 -0.19022,-0.63408c-0.06341,-0.19022 -0.06341,-0.38045 -0.06341,-0.50727c-0.06341,-0.25363 -0.06341,-0.44386 -0.06341,-0.44386c0,0 0.06341,0.19022 0.12682,0.44386c0.06341,0.12682 0.06341,0.31704 0.12682,0.50727c0.06341,0.19022 0.19022,0.38045 0.25363,0.63408c0.06341,0.25363 0.19022,0.44386 0.31704,0.69749c0.06341,0.12682 0.12682,0.25363 0.19022,0.38045c0.06341,0.06341 0.19022,0.19022 0.25363,0.31704c0.12682,0.25363 0.38045,0.50727 0.57067,0.69749c0.19022,0.25363 0.44386,0.44386 0.69749,0.63408c0.25363,0.19022 0.50727,0.31704 0.7609,0.50727c0.31704,0.19022 0.57067,0.31704 0.82431,0.44386c0.25363,0.19022 0.50727,0.25363 0.7609,0.38045c0.19022,0.12682 0.44386,0.19022 0.69749,0.25363c0.50727,0.12682 0.88772,0.25363 1.14135,0.31704c0.31704,0.06341 0.44386,0.12682 0.44386,0.12682c0,0 -0.63408,0 -1.39498,-0.31704z" fill="#1a324a"/><path d="M240.04765,174.89296c0,0.25363 -0.06341,0.63408 -0.19022,1.07794c-0.12682,0.44386 -0.31704,0.95112 -0.57067,1.45839c-0.19022,0.25363 -0.31704,0.50727 -0.50727,0.7609c-0.19022,0.25363 -0.44386,0.50727 -0.69749,0.69749c-0.50727,0.38045 -1.07794,0.63408 -1.64862,0.7609c-0.31704,0.12682 -0.57067,0.12682 -0.82431,0.19022c-0.25363,0 -0.50727,0.06341 -0.7609,0.06341c-0.44386,0.06341 -0.82431,0 -1.07794,0c-0.31704,-0.06341 -0.44386,-0.06341 -0.44386,-0.06341c0,0 0.19022,-0.06341 0.44386,-0.06341c0.25363,0 0.63408,-0.06341 1.07794,-0.12682c0.44386,-0.06341 0.95112,-0.19022 1.45839,-0.38045c0.50727,-0.19022 1.07794,-0.44386 1.5218,-0.7609c0.25363,-0.19022 0.44386,-0.31704 0.63408,-0.57067c0.12682,-0.25363 0.31704,-0.44386 0.44386,-0.69749c0.25363,-0.50727 0.50727,-0.95112 0.63408,-1.39498c0.31704,-0.88772 0.44386,-1.45839 0.44386,-1.45839c0,0 0,0.12682 0.06341,0.50727z" fill="#1a324a"/></g><g><g><path d="M214.24046,136.08707c2.21929,1.20476 3.23382,1.45839 4.81903,5.19948c3.55087,8.3699 2.91678,36.39638 2.91678,36.39638c-2.72656,2.02907 -9.32102,0.44386 -9.32102,0.44386c7.48218,-38.17181 -3.17042,-39.88384 -3.17042,-39.88384c0.63408,-1.58521 4.75562,-2.15588 4.75562,-2.15588z" fill="#724a96"/><path d="M215.63545,178.63406c-0.57067,-0.06341 -1.07794,-0.06341 -1.58521,-0.12682c-0.50727,-0.06341 -1.01453,-0.19022 -1.5218,-0.31704l-0.12682,-0.06341l0.06341,-0.12682c0.25363,-1.01453 0.50727,-2.15588 0.69749,-3.23382c0.19022,-1.07794 0.38045,-2.21929 0.57067,-3.29723c0.19022,-1.07794 0.31704,-2.21929 0.44386,-3.29723c0.19022,-1.07794 0.25363,-2.15588 0.38045,-3.29723c0.12682,-1.14135 0.19022,-2.21929 0.25363,-3.36064l0.12682,-1.64862l0.06341,-1.64862c0.06341,-1.14135 0,-2.21929 0.06341,-3.36064c0,-0.50727 0,-1.07794 0,-1.64862v-1.64862l0.06341,1.64862c0,0.50727 0.06341,1.07794 0.06341,1.64862c0,1.14135 0,2.21929 0,3.36064c0,1.14135 0,2.21929 -0.06341,3.36064c0,1.14135 -0.12682,2.21929 -0.19022,3.36064c-0.06341,1.14135 -0.19022,2.21929 -0.31704,3.36064c-0.12682,1.07794 -0.25363,2.21929 -0.44386,3.29723c-0.31704,2.21929 -0.7609,4.43858 -1.39498,6.59447l-0.06341,-0.19022c0.95112,0.31704 2.02907,0.38045 3.0436,0.50727c1.01453,0.06341 2.09247,0.12682 3.10701,0.12682c-1.07794,0.06341 -2.09247,0.06341 -3.23382,0z" fill="#3b2656"/><path d="M216.7768,139.51112c0.19022,0.31704 0.38045,0.69749 0.57067,1.14135c0.25363,0.44386 0.44386,0.95112 0.63408,1.5218c0.25363,0.57067 0.44386,1.20476 0.63408,1.83884c0.19022,0.63408 0.38045,1.33157 0.57067,2.09247c0.19022,0.7609 0.31704,1.5218 0.50727,2.2827c0.19022,0.7609 0.31704,1.58521 0.44386,2.34611c0.12682,0.82431 0.19022,1.64862 0.31704,2.40952c0.12682,0.7609 0.19022,1.5218 0.25363,2.2827c0.19022,1.5218 0.19022,2.91678 0.31704,4.12154c0.06341,0.63408 0.06341,1.14135 0.06341,1.64862c0.06341,0.50727 0.06341,0.88772 0.06341,1.26817c0,0.69749 0,1.07794 0,1.07794c0,0 -0.12682,-1.58521 -0.38045,-3.99472c-0.06341,-0.63408 -0.12682,-1.26817 -0.19022,-1.96566c-0.06341,-0.69749 -0.19022,-1.39498 -0.25363,-2.15588c-0.12682,-0.69749 -0.19022,-1.5218 -0.31704,-2.2827c-0.12682,-0.7609 -0.25363,-1.58521 -0.38045,-2.34611c-0.12682,-0.7609 -0.19022,-1.58521 -0.38045,-2.34611c-0.19022,-0.7609 -0.31704,-1.5218 -0.50727,-2.2827c-0.19022,-0.69749 -0.31704,-1.39498 -0.50727,-2.09247c-0.19022,-0.63408 -0.38045,-1.26817 -0.57067,-1.83884c-0.19022,-0.57067 -0.31704,-1.07794 -0.50727,-1.5218c-0.19022,-0.44386 -0.38045,-0.82431 -0.50727,-1.14135c-0.31704,-0.63408 -0.50727,-0.95112 -0.50727,-0.95112c0,0 0.25363,0.31704 0.63408,0.88772z" fill="#3b2656"/></g><path d="M214.93795,175.40023c1.90225,0 3.48746,-1.5218 3.48746,-3.48746c0,-0.82431 -0.25363,-1.5218 -0.7609,-2.15588c1.45839,0.38045 2.53633,1.77543 2.53633,3.36064c0,1.90225 -1.5218,3.48746 -3.48746,3.48746c-1.07794,0 -2.09247,-0.50727 -2.72656,-1.33157c0.38045,0.06341 0.63408,0.12682 0.95112,0.12682z" fill="#e6af50"/></g><g><g><path d="M234.15068,137.1016c1.01453,0.88772 1.07794,0.88772 2.15588,3.61427c3.36064,8.43331 4.43858,36.26956 4.43858,36.26956c-2.72656,2.02907 -9.32102,0.44386 -9.32102,0.44386c2.34611,-24.28539 -1.20476,-39.6302 -1.20476,-39.6302c0.57067,-1.58521 3.93132,-0.69749 3.93132,-0.69749z" fill="#724a96"/><path d="M234.59453,177.99997c-0.57067,-0.06341 -1.07794,-0.06341 -1.58521,-0.12682c-0.50727,-0.06341 -1.01453,-0.19022 -1.5218,-0.31704h-0.12682v-0.12682c0.12682,-1.07794 0.19022,-2.21929 0.25363,-3.29723c0.06341,-1.07794 0.06341,-2.21929 0.12682,-3.29723c0.06341,-1.07794 0.06341,-2.21929 0.06341,-3.29723v-1.64862c0,-0.57067 0,-1.07794 0,-1.64862c0,-2.21929 -0.06341,-4.43858 -0.19022,-6.65787l-0.19022,-3.29723l-0.19022,-3.29723l0.38045,3.29723c0.12682,1.07794 0.25363,2.21929 0.31704,3.29723c0.06341,1.07794 0.12682,2.21929 0.19022,3.29723c0.06341,1.07794 0.12682,2.15588 0.12682,3.29723c0,0.50727 0,1.07794 0,1.64862c0,0.50727 0,1.07794 0,1.64862c0,1.14135 0,2.21929 -0.06341,3.36064c-0.12682,2.21929 -0.25363,4.43858 -0.57067,6.65787l-0.06341,-0.12682c0.95112,0.31704 2.02907,0.38045 3.0436,0.50727c1.01453,0.06341 2.09247,0.12682 3.10701,0.12682c-1.07794,0 -2.09247,0.06341 -3.10701,0z" fill="#3b2656"/><path d="M235.60907,138.87703c0.19022,0.31704 0.38045,0.69749 0.57067,1.14135c0.25363,0.44386 0.44386,0.95112 0.63408,1.5218c0.25363,0.57067 0.44386,1.20476 0.63408,1.83884c0.19022,0.63408 0.38045,1.33157 0.57067,2.09247c0.19022,0.7609 0.31704,1.5218 0.50727,2.2827c0.19022,0.7609 0.31704,1.58521 0.44386,2.34611c0.12682,0.82431 0.19022,1.64862 0.31704,2.40952c0.12682,0.7609 0.19022,1.5218 0.25363,2.2827c0.19022,1.5218 0.19022,2.91678 0.31704,4.12154c0.06341,0.63408 0.06341,1.14135 0.06341,1.64862c0.06341,0.50727 0.06341,0.88772 0.06341,1.26817c0,0.69749 0,1.07794 0,1.07794c0,0 -0.12682,-1.58521 -0.38045,-3.99472c-0.06341,-0.63408 -0.12682,-1.26817 -0.19022,-1.96566c-0.06341,-0.69749 -0.19022,-1.39498 -0.25363,-2.15588c-0.12682,-0.69749 -0.19022,-1.5218 -0.31704,-2.2827c-0.12682,-0.7609 -0.25363,-1.58521 -0.38045,-2.34611c-0.12682,-0.7609 -0.19022,-1.58521 -0.38045,-2.34611c-0.19022,-0.7609 -0.31704,-1.5218 -0.50727,-2.2827c-0.19022,-0.69749 -0.31704,-1.39498 -0.50727,-2.09247c-0.19022,-0.63408 -0.38045,-1.26817 -0.57067,-1.83884c-0.19022,-0.57067 -0.31704,-1.07794 -0.50727,-1.5218c-0.19022,-0.44386 -0.38045,-0.82431 -0.50727,-1.14135c-0.31704,-0.63408 -0.50727,-0.95112 -0.50727,-0.95112c0,0 0.25363,0.31704 0.63408,0.88772z" fill="#3b2656"/></g><path d="M234.72135,173.11753c-0.82431,-0.69749 -1.45839,-1.26817 -1.45839,-1.26817c0.57067,-0.25363 1.33157,-0.31704 2.15588,-0.38045c0.57067,-1.20476 1.07794,-2.15588 1.07794,-2.15588c0.25363,0.50727 0.63408,1.33157 0.88772,2.21929c1.01453,0.06341 1.83884,0.19022 1.83884,0.19022c-0.12682,0.44386 -0.57067,1.01453 -1.20476,1.58521c0.44386,1.33157 0.7609,2.47292 0.7609,2.47292c-0.38045,0 -1.33157,-0.57067 -2.2827,-1.26817c-1.39498,0.95112 -2.66315,1.33157 -2.66315,1.33157c0.12682,-0.7609 0.38045,-1.58521 0.88772,-2.72656z" fill="#e6af50"/></g></g><g stroke-width="1"><g><path d="M214.74773,198.22723c0,0 0.88772,5.19948 0.95112,6.40424c0.06341,1.20476 0.06341,1.90225 -1.26817,1.83884c0,0 -0.38045,1.33157 -1.96566,0.69749c0,0 -1.14135,0.95112 -2.40952,0.38045c0,0 -1.33157,0.7609 -2.59974,-0.63408c-0.69749,-0.7609 -0.82431,-2.47292 0.25363,-3.10701l-0.50727,-2.59974" fill="#c5886b"/><path d="M214.81114,198.7979c0,0 0.57067,2.47292 1.58521,4.05813c0.7609,1.20476 0.31704,2.40952 -1.26817,1.39498" fill="#c5886b"/><path d="M207.51918,202.79263c0.12682,0.31704 0.25363,0.82431 0.38045,1.33157c0.12682,0.44386 0.25363,0.95112 0.31704,1.33157c0.06341,0.19022 0.06341,0.31704 0.12682,0.44386c0.06341,0.12682 0.06341,0.19022 0.06341,0.19022c0,0 -0.06341,-0.06341 -0.12682,-0.12682c-0.06341,-0.06341 -0.19022,-0.19022 -0.25363,-0.38045c-0.12682,-0.31704 -0.31704,-0.82431 -0.44386,-1.33157c-0.12682,-0.50727 -0.19022,-1.01453 -0.19022,-1.39498c0,-0.38045 0,-0.63408 0,-0.63408c0,0 0.12682,0.19022 0.12682,0.57067z" fill="#a95947"/><path d="M210.6896,206.47031c0,0.19022 -0.06341,0.50727 -0.19022,0.7609c-0.12682,0.19022 -0.19022,0.25363 -0.31704,0.38045c-0.12682,0.12682 -0.25363,0.19022 -0.38045,0.19022c-0.25363,0.06341 -0.38045,0 -0.38045,0c0,0 0,0 0.06341,-0.06341c0.06341,0 0.12682,-0.06341 0.19022,-0.12682c0.06341,-0.06341 0.12682,-0.19022 0.19022,-0.25363c0.06341,-0.12682 0.12682,-0.19022 0.19022,-0.31704c0.12682,-0.19022 0.19022,-0.44386 0.31704,-0.63408c0.12682,-0.19022 0.19022,-0.31704 0.19022,-0.31704c0,0 0.06341,0.12682 0.12682,0.38045z" fill="#a95947"/><path d="M213.0357,206.21668c0,0.25363 -0.06341,0.57067 -0.19022,0.82431c-0.12682,0.12682 -0.19022,0.31704 -0.31704,0.38045c-0.12682,0.06341 -0.25363,0.12682 -0.38045,0.19022c-0.25363,0.12682 -0.38045,0.06341 -0.38045,0.06341c0,0 0,0 0.06341,-0.06341c0.06341,-0.06341 0.12682,-0.12682 0.19022,-0.19022c0.12682,-0.19022 0.25363,-0.38045 0.38045,-0.57067c0.12682,-0.19022 0.25363,-0.44386 0.31704,-0.63408c0.06341,-0.19022 0.12682,-0.31704 0.12682,-0.31704c0,0 0.06341,0.12682 0.19022,0.31704z" fill="#a95947"/><path d="M214.74773,205.58259c0.06341,0.19022 0,0.50727 -0.06341,0.7609c-0.06341,0.25363 -0.25363,0.57067 -0.44386,0.69749c-0.06341,0.06341 -0.19022,0.12682 -0.25363,0.12682c-0.06341,0 -0.12682,0 -0.12682,0c0,0 0,0 0.06341,-0.06341c0.06341,0 0.06341,-0.12682 0.12682,-0.19022c0.12682,-0.12682 0.19022,-0.38045 0.25363,-0.63408c0.06341,-0.25363 0.19022,-0.50727 0.25363,-0.69749c0.06341,-0.19022 0.12682,-0.31704 0.12682,-0.31704c0,0 0,0.19022 0.06341,0.31704z" fill="#a95947"/><path d="M208.08985,205.13874c0,0.12682 -0.06341,0.19022 -0.12682,0.31704c-0.06341,0.12682 -0.19022,0.19022 -0.25363,0.25363c-0.12682,0.06341 -0.19022,0.12682 -0.19022,0.12682c0,0 -0.06341,-0.06341 -0.06341,-0.19022c0,-0.12682 0.06341,-0.25363 0.12682,-0.38045c0.12682,-0.12682 0.19022,-0.19022 0.31704,-0.25363c0.12682,-0.06341 0.19022,-0.06341 0.19022,-0.06341c0,0 0,0.12682 0,0.19022z" fill="#a95947"/><path d="M215.50863,205.07533c0,-0.44386 -0.06341,-1.01453 -0.12682,-1.58521c-0.06341,-0.57067 -0.12682,-1.14135 -0.19022,-1.58521c-0.06341,-0.19022 -0.06341,-0.38045 -0.06341,-0.50727c0,-0.12682 0,-0.19022 0,-0.19022c0,0 0.19022,0.25363 0.31704,0.69749c0.19022,0.44386 0.31704,1.01453 0.38045,1.58521c0.06341,0.57067 0.06341,1.14135 0,1.58521c-0.06341,0.44386 -0.19022,0.69749 -0.19022,0.69749c0,0 0,-0.25363 -0.12682,-0.69749z" fill="#a95947"/></g><g><path d="M205.61693,170.64461c3.0436,0.06341 5.19948,0.63408 6.59447,3.74109c1.39498,3.10701 1.01453,7.41877 1.26817,10.52578c0.25363,3.17042 4.50199,12.1744 4.50199,12.1744c-3.29723,6.34083 -15.40822,4.37517 -15.40822,4.37517c0,0 -3.10701,-12.99871 -2.72656,-25.49015c0.06341,-3.10701 2.47292,-5.38971 5.77016,-5.3263z" fill="#264a6e"/><path d="M212.33821,174.63933c0.12682,0.38045 0.31704,0.82431 0.44386,1.39498c0.19022,0.57067 0.31704,1.20476 0.44386,1.96566c0.06341,0.7609 0.12682,1.5218 0.19022,2.34611c0,0.82431 0,1.58521 -0.06341,2.34611c-0.06341,0.7609 -0.12682,1.45839 -0.25363,2.02907c-0.06341,0.57067 -0.19022,1.07794 -0.25363,1.39498c-0.06341,0.31704 -0.12682,0.50727 -0.12682,0.50727c0,0 0.06341,-0.25363 0.06341,-0.57067c0,-0.31704 0.06341,-0.82431 0.12682,-1.39498c0,-0.31704 0.06341,-0.63408 0.06341,-0.95112c0,-0.38045 0.06341,-0.69749 0.06341,-1.07794c0,-0.69749 0,-1.5218 0,-2.2827c0,-0.7609 -0.06341,-1.5218 -0.12682,-2.2827c-0.12682,-0.69749 -0.19022,-1.39498 -0.31704,-1.96566c-0.12682,-0.57067 -0.19022,-1.07794 -0.31704,-1.39498c-0.06341,-0.31704 -0.12682,-0.50727 -0.12682,-0.50727c0,0 0.06341,0.19022 0.19022,0.44386z" fill="#1a324a"/><path d="M216.14271,192.52048l1.01453,2.2827c0.31704,0.69749 0.69749,1.45839 1.07794,2.21929l0.06341,0.06341l-0.06341,0.06341c-0.19022,0.38045 -0.44386,0.69749 -0.69749,1.01453c-0.25363,0.31704 -0.50727,0.63408 -0.82431,0.88772c-0.31704,0.31704 -0.63408,0.50727 -0.95112,0.7609c-0.19022,0.12682 -0.31704,0.25363 -0.50727,0.31704l-0.50727,0.25363c-0.38045,0.12682 -0.7609,0.31704 -1.14135,0.44386c-0.38045,0.12682 -0.7609,0.25363 -1.14135,0.31704c-0.38045,0.12682 -0.82431,0.12682 -1.20476,0.19022c-0.38045,0.06341 -0.82431,0.06341 -1.20476,0.06341l0.57067,-0.06341c0.19022,0 0.38045,0 0.57067,-0.06341c0.38045,-0.06341 0.7609,-0.12682 1.14135,-0.25363c0.38045,-0.12682 0.7609,-0.25363 1.14135,-0.38045c0.38045,-0.12682 0.69749,-0.31704 1.07794,-0.50727c0.38045,-0.19022 0.69749,-0.38045 1.01453,-0.63408c0.31704,-0.25363 0.63408,-0.50727 0.88772,-0.7609c0.31704,-0.25363 0.57067,-0.50727 0.82431,-0.82431c0.25363,-0.31704 0.44386,-0.63408 0.63408,-0.95112v0.19022c-0.38045,-0.7609 -0.7609,-1.5218 -1.07794,-2.2827c-0.38045,-0.7609 -0.69749,-1.5218 -1.01453,-2.2827c-0.63408,-1.5218 -1.26817,-3.10701 -1.71202,-4.69222c0.63408,1.5218 1.26817,3.0436 2.02907,4.62881z" fill="#1a324a"/><path d="M199.84677,180.28267c0,0.63408 0.06341,1.5218 0.12682,2.53633c0.06341,1.01453 0.19022,2.2827 0.31704,3.55087c0.12682,1.26817 0.31704,2.66315 0.50727,4.05813c0.12682,1.39498 0.38045,2.78997 0.57067,4.05813c0.19022,1.33157 0.38045,2.53633 0.57067,3.55087c0.31704,2.02907 0.57067,3.42405 0.57067,3.42405c0,0 -0.12682,-0.38045 -0.25363,-0.95112c-0.12682,-0.63408 -0.38045,-1.45839 -0.57067,-2.47292c-0.19022,-1.01453 -0.44386,-2.21929 -0.69749,-3.48746c-0.19022,-1.26817 -0.44386,-2.66315 -0.63408,-4.05813c-0.19022,-1.33157 -0.31704,-2.72656 -0.44386,-4.05813c-0.12682,-1.26817 -0.19022,-2.47292 -0.19022,-3.55087c0,-1.07794 0.06341,-1.90225 0.06341,-2.53633c0,-0.63408 0.06341,-0.95112 0.06341,-0.95112c0,0 0,0.31704 0,0.88772z" fill="#1a324a"/></g><g><path d="M199.91018,173.11753c-1.39498,-4.37517 2.53633,-28.66056 5.83357,-30.94326c3.55087,-2.47292 9.44784,-0.88772 9.95511,5.83357c0.38045,5.19948 -2.09247,14.39369 -2.72656,17.81774c-0.63408,3.42405 -0.31704,2.53633 -0.12682,5.07267c0.19022,2.53633 -0.38045,2.85337 -0.95112,3.48746c-0.50727,0.63408 -2.78997,1.58521 -6.0872,1.39498c-3.29723,-0.12682 -5.13607,-0.25363 -5.89697,-2.66315z" fill="#264a6e"/><path d="M201.49539,175.21001c-0.12682,-0.06341 -0.38045,-0.12682 -0.57067,-0.31704c-0.12682,-0.06341 -0.25363,-0.19022 -0.31704,-0.31704c-0.12682,-0.12682 -0.25363,-0.25363 -0.31704,-0.44386c-0.25363,-0.31704 -0.38045,-0.69749 -0.50727,-1.14135c-0.12682,-0.44386 -0.25363,-0.95112 -0.31704,-1.45839c-0.06341,-0.50727 -0.12682,-1.07794 -0.12682,-1.64862c-0.06341,-0.57067 0,-1.14135 0,-1.77543c0,-0.63408 0.06341,-1.20476 0.12682,-1.83884c0.06341,-0.63408 0.12682,-1.26817 0.19022,-1.83884c0.12682,-0.63408 0.19022,-1.20476 0.25363,-1.77543c0.12682,-0.57067 0.25363,-1.14135 0.31704,-1.64862c0.06341,-0.50727 0.12682,-1.01453 0.25363,-1.45839c0.38045,-1.77543 0.69749,-2.98019 0.69749,-2.98019c0,0 -0.19022,1.20476 -0.50727,2.98019c-0.06341,0.44386 -0.12682,0.95112 -0.19022,1.45839c-0.06341,0.57067 -0.19022,1.07794 -0.25363,1.64862c-0.06341,0.50727 -0.12682,1.14135 -0.19022,1.71202c-0.12682,0.57067 -0.12682,1.14135 -0.19022,1.77543c-0.06341,0.57067 -0.12682,1.20476 -0.12682,1.77543c0,0.63408 -0.06341,1.20476 0,1.77543c0,0.57067 0,1.14135 0.06341,1.64862c0,0.57067 0.12682,1.01453 0.19022,1.45839c0.12682,0.44386 0.19022,0.82431 0.38045,1.14135c0.06341,0.19022 0.19022,0.31704 0.25363,0.44386c0.06341,0.12682 0.12682,0.25363 0.25363,0.31704c0.19022,0.19022 0.38045,0.25363 0.50727,0.31704c0.12682,0.06341 0.19022,0.06341 0.19022,0.06341c0,0 -0.06341,0.06341 -0.06341,0.12682z" fill="#1a324a"/><path d="M213.16252,165.2549c-0.12682,0.57067 -0.25363,1.33157 -0.31704,2.09247c-0.06341,0.38045 -0.12682,0.82431 -0.12682,1.20476c0,0.44386 0,0.82431 0.12682,1.20476c0.19022,0.88772 0.19022,1.71202 0.06341,2.53633c-0.12682,0.82431 -0.44386,1.5218 -0.88772,2.02907c-0.44386,0.50727 -0.95112,0.69749 -1.33157,0.7609c-0.19022,0.06341 -0.31704,0.06341 -0.44386,0.06341c-0.06341,0 -0.12682,0 -0.12682,0c0,0 0.25363,0 0.57067,-0.12682c0.38045,-0.06341 0.82431,-0.31704 1.20476,-0.82431c0.38045,-0.44386 0.57067,-1.14135 0.69749,-1.90225c0.12682,-0.7609 0.06341,-1.58521 -0.12682,-2.34611c-0.12682,-0.44386 -0.12682,-0.88772 -0.12682,-1.33157c0,-0.38045 0.06341,-0.82431 0.12682,-1.20476c0.12682,-0.7609 0.31704,-1.45839 0.44386,-2.09247c0.31704,-1.20476 0.57067,-2.02907 0.57067,-2.02907c0,0 -0.12682,0.82431 -0.31704,1.96566z" fill="#1a324a"/></g></g><g stroke-width="1"><path d="M251.0807,123.34199c0.69749,0.44386 -17.05684,3.93132 -24.79266,4.37517c-7.73582,0.44386 -29.92873,0.82431 -29.35805,0.12682c0.57067,-0.69749 21.49542,-8.56012 25.61696,-8.81376c4.12154,-0.31704 26.75831,3.10701 28.53375,4.31177z" fill="#1a324a"/><g><path d="M224.95647,113.76734c6.97492,-0.19022 10.20874,5.26289 11.92077,12.80848c1.5218,6.8481 0.88772,14.33028 -10.6526,14.64732c-9.95511,0.31704 -12.99871,-6.46765 -11.85736,-13.31575c1.20476,-7.22855 3.61427,-13.94983 10.58919,-14.14006z" fill="#c5886b"/><g><path d="M230.40959,137.29183c0,0.19022 -0.12682,0.38045 -0.31704,0.44386c-0.19022,0.06341 -0.38045,0.06341 -0.50727,0.06341c-0.19022,0 -0.25363,-0.06341 -0.25363,-0.06341c0,0 0.06341,-0.06341 0.19022,-0.12682c0.06341,-0.06341 0.19022,-0.12682 0.31704,-0.19022c0.12682,-0.06341 0.25363,-0.12682 0.31704,-0.19022c0.06341,-0.06341 0.12682,-0.12682 0.12682,-0.12682c0,0 0.06341,0.06341 0.12682,0.19022z" fill="#99918a"/><path d="M210.6896,146.73967c2.21929,-1.07794 2.09247,-3.23382 2.09247,-3.23382c-0.19022,2.40952 -3.67768,2.02907 -3.67768,2.02907c2.66315,0 3.55087,-4.31177 2.2827,-5.51652c-1.26817,-1.20476 -0.50727,-4.5654 -0.50727,-4.5654c-0.57067,0.06341 -0.82431,1.96566 -0.82431,1.96566c0,0 -1.01453,-2.85337 1.20476,-4.05813c2.21929,-1.20476 1.58521,-3.67768 2.09247,-10.6526c0.50727,-6.91151 8.24308,-9.1308 10.6526,-9.06739c0.44386,0 0.82431,0 1.07794,0.12682c0.38045,-0.44386 1.26817,-0.38045 2.21929,-0.38045c1.64862,-0.06341 5.07267,1.77543 6.46765,2.85337c4.12154,3.36064 4.88244,11.85736 4.94585,13.44257c0.06341,1.58521 1.96566,1.58521 1.96566,1.58521c-1.33157,0.25363 -2.2827,-0.12682 -2.2827,-0.12682c1.90225,2.02907 0.69749,4.18495 0.69749,4.18495c0.69749,1.33157 0.57067,3.93132 -0.19022,5.77016c-0.82431,1.83884 1.71202,2.85337 1.71202,2.85337c-1.90225,0.25363 -2.34611,-0.69749 -2.40952,-0.95112c0.50727,1.96566 0.95112,3.8045 0.06341,5.19948c-0.95112,1.39498 1.39498,3.0436 1.39498,3.0436c-0.7609,0 -2.2827,-0.44386 -2.2827,-0.44386c-0.82431,2.02907 2.59974,2.34611 2.59974,2.34611c-2.2827,0.57067 -3.29723,-0.19022 -3.29723,-0.19022c0.82431,2.2827 0.38045,3.61427 -0.25363,5.07267c-0.57067,1.39498 1.20476,3.17042 1.20476,3.17042c-1.71202,0.31704 -2.85337,-1.96566 -2.85337,-1.96566c1.07794,3.8045 -1.64862,4.88244 -1.64862,4.88244c0.95112,-1.39498 -0.19022,-3.17042 -0.19022,-3.17042c0.06341,1.45839 -0.57067,4.24836 -2.2827,4.69222c-1.71202,0.44386 -1.14135,2.91678 -1.14135,2.91678c-1.26817,-0.12682 -0.95112,-2.53633 -0.88772,-2.72656c-0.63408,3.99472 -3.8045,3.55087 -3.8045,3.55087c-1.26817,2.21929 -4.88244,1.33157 -4.88244,1.33157c1.39498,0.12682 2.53633,-1.07794 2.53633,-1.07794c-2.91678,1.64862 -4.69222,-0.25363 -4.75562,-1.83884c-0.06341,-1.58521 2.15588,-1.26817 2.15588,-1.26817c0,0 -2.53633,0.44386 -0.38045,2.09247c2.15588,1.64862 3.8045,-3.0436 2.09247,-3.67768c-1.71202,-0.63408 -1.33157,-2.40952 -1.33157,-2.40952c-1.33157,-0.44386 -3.42405,-2.15588 -3.0436,-3.86791c0.38045,-1.45839 -0.31704,-2.98019 -0.31704,-2.98019c0.95112,1.96566 -0.88772,2.34611 -0.88772,2.34611c0.19022,-1.20476 -0.38045,-2.21929 -1.90225,-3.0436c-1.14135,-0.63408 -0.7609,-2.15588 -0.50727,-2.91678c-0.63408,0.69749 -2.53633,0.25363 -2.53633,0.25363c1.07794,-0.06341 2.66315,-1.64862 1.39498,-2.59974c-1.26817,-1.01453 -0.82431,-1.96566 -0.82431,-1.96566c-1.83884,0.95112 -0.31704,2.53633 -0.31704,2.53633c-1.45839,0 -2.85337,-2.47292 -0.63408,-3.55087zM217.85474,130.50714c2.09247,2.85337 1.58521,3.61427 1.58521,3.61427c0,0 2.47292,-1.39498 4.12154,0.44386l3.55087,1.90225l3.10701,-1.14135c0,0 1.64862,-2.85337 4.94585,-2.66315c0,0 1.45839,-0.63408 0.88772,-2.47292c0,0 -0.38045,1.26817 -1.90225,0.63408c0,0 2.02907,-0.57067 1.5218,-2.91678c-0.44386,-2.40952 -1.33157,-3.8045 -2.78997,-6.34083c-2.15588,-3.8045 -5.00926,-3.48746 -6.65787,-5.00926c-0.69749,1.96566 -5.3263,3.86791 -7.16514,6.21402c0,0.06341 -3.29723,4.88244 -1.20476,7.73582z" fill="#c8bdb4"/><path d="M226.03441,114.78187c-0.06341,-0.12682 -0.19022,-0.31704 -0.38045,-0.44386c-0.06341,-0.06341 -0.19022,-0.12682 -0.31704,-0.19022c-0.12682,-0.06341 -0.25363,-0.06341 -0.38045,-0.12682c-0.12682,-0.06341 -0.31704,-0.06341 -0.44386,-0.12682c-0.12682,-0.06341 -0.31704,-0.06341 -0.44386,-0.06341c-0.31704,-0.06341 -0.63408,0 -0.95112,0c-0.31704,0 -0.57067,0.06341 -0.82431,0.06341c-0.50727,0.06341 -0.82431,0.06341 -0.82431,0.06341c0,0 0.25363,-0.12682 0.7609,-0.31704c0.19022,-0.06341 0.50727,-0.12682 0.82431,-0.19022c0.19022,0 0.31704,-0.06341 0.50727,-0.06341c0.19022,0 0.31704,0 0.50727,0c0.38045,0 0.69749,0.06341 1.01453,0.19022c0.19022,0.06341 0.31704,0.19022 0.44386,0.25363c0.12682,0.12682 0.25363,0.19022 0.31704,0.31704c0.12682,0.19022 0.19022,0.44386 0.25363,0.57067c0,0.19022 0,0.25363 0,0.25363c0,0 -0.06341,-0.06341 -0.06341,-0.19022z" fill="#99918a"/><path d="M226.35145,115.92322c0,0.12682 0,0.25363 0,0.38045c0,0.12682 -0.06341,0.31704 -0.12682,0.44386c-0.06341,0.19022 -0.12682,0.31704 -0.25363,0.50727c-0.12682,0.19022 -0.25363,0.38045 -0.38045,0.50727c-0.25363,0.31704 -0.57067,0.63408 -0.88772,0.88772c-0.63408,0.57067 -1.39498,1.01453 -1.96566,1.33157c-0.57067,0.25363 -0.95112,0.44386 -0.95112,0.44386c0,0 0.31704,-0.25363 0.82431,-0.63408c0.25363,-0.19022 0.57067,-0.38045 0.88772,-0.63408c0.31704,-0.25363 0.63408,-0.50727 0.95112,-0.7609c0.31704,-0.25363 0.63408,-0.57067 0.88772,-0.82431c0.12682,-0.19022 0.25363,-0.31704 0.38045,-0.44386c0.12682,-0.12682 0.25363,-0.25363 0.31704,-0.38045c0.06341,-0.12682 0.12682,-0.25363 0.19022,-0.38045c0.06341,-0.12682 0.06341,-0.25363 0.06341,-0.31704c0,-0.12682 -0.06341,-0.25363 -0.06341,-0.25363c0,0 0.06341,0.12682 0.12682,0.12682z" fill="#99918a"/><path d="M219.1229,132.15575c0.12682,0.19022 0.25363,0.44386 0.38045,0.7609c0.12682,0.31704 0.19022,0.69749 0.19022,1.01453c0,0.38045 -0.06341,0.69749 -0.19022,1.01453c0,0.19022 -0.12682,0.31704 -0.19022,0.44386c-0.06341,0.12682 -0.19022,0.25363 -0.25363,0.31704c-0.12682,0.12682 -0.19022,0.19022 -0.25363,0.25363c-0.06341,0.06341 -0.12682,0.12682 -0.19022,0.19022c-0.12682,0.06341 -0.19022,0.12682 -0.19022,0.12682c0,0 0.06341,-0.06341 0.12682,-0.19022c0,-0.06341 0.06341,-0.12682 0.12682,-0.19022c0.06341,-0.06341 0.12682,-0.12682 0.19022,-0.25363c0.06341,-0.06341 0.12682,-0.19022 0.19022,-0.31704c0.06341,-0.12682 0.12682,-0.25363 0.12682,-0.38045c0,-0.12682 0.06341,-0.31704 0.06341,-0.44386c0.06341,-0.12682 0.06341,-0.31704 0.06341,-0.44386c0.06341,-0.12682 0,-0.31704 0,-0.44386c0,-0.12682 0,-0.31704 -0.06341,-0.44386c-0.06341,-0.25363 -0.19022,-0.50727 -0.25363,-0.7609c-0.19022,-0.44386 -0.31704,-0.7609 -0.31704,-0.7609c0,0 0.25363,0.25363 0.44386,0.50727z" fill="#99918a"/><path d="M234.27749,130.95099c0.12682,0 0.31704,0 0.50727,0c0.12682,0 0.19022,0 0.31704,-0.06341c0.12682,0 0.19022,-0.06341 0.31704,-0.12682c0.06341,-0.06341 0.19022,-0.12682 0.25363,-0.25363c0.12682,-0.12682 0.19022,-0.19022 0.25363,-0.31704c0.06341,-0.06341 0.12682,-0.19022 0.19022,-0.31704c0.06341,-0.12682 0.06341,-0.25363 0.12682,-0.38045c0.06341,-0.25363 0.12682,-0.50727 0.19022,-0.69749c0.12682,-0.44386 0.19022,-0.69749 0.19022,-0.69749c0,0 0.06341,0.25363 0.06341,0.69749c0,0.25363 0,0.50727 -0.06341,0.69749c-0.06341,0.19022 -0.06341,0.31704 -0.12682,0.44386c-0.06341,0.19022 -0.12682,0.31704 -0.19022,0.44386c-0.12682,0.12682 -0.19022,0.25363 -0.31704,0.38045c-0.12682,0.12682 -0.25363,0.19022 -0.38045,0.25363c-0.25363,0.12682 -0.50727,0.12682 -0.7609,0.12682c-0.44386,-0.06341 -0.69749,-0.25363 -0.69749,-0.25363c0,0 0.06341,0.06341 0.12682,0.06341z" fill="#99918a"/><path d="M240.17447,131.33144c-0.38045,0.12682 -0.82431,0.12682 -1.33157,0.06341c-0.25363,-0.06341 -0.50727,-0.12682 -0.69749,-0.25363c-0.19022,-0.12682 -0.38045,-0.25363 -0.50727,-0.38045c-0.25363,-0.25363 -0.31704,-0.50727 -0.31704,-0.50727c0,0 0.06341,0.06341 0.12682,0.12682c0.06341,0.12682 0.19022,0.19022 0.31704,0.25363c0.06341,0.06341 0.19022,0.06341 0.25363,0.12682c0.06341,0.06341 0.19022,0.06341 0.25363,0.12682c0.19022,0.12682 0.44386,0.12682 0.63408,0.19022c0.44386,0.06341 0.88772,0.12682 1.20476,0.12682c0.31704,0.06341 0.57067,0.06341 0.57067,0.06341c0,0 -0.19022,0.12682 -0.50727,0.06341z" fill="#99918a"/><path d="M213.47956,126.25878c0,0.95112 -0.06341,2.09247 -0.12682,3.29723c-0.06341,0.31704 -0.06341,0.57067 -0.12682,0.88772c-0.06341,0.31704 -0.06341,0.57067 -0.12682,0.88772c-0.06341,0.31704 -0.19022,0.57067 -0.31704,0.82431c-0.19022,0.25363 -0.31704,0.38045 -0.50727,0.57067c-0.19022,0.19022 -0.38045,0.25363 -0.50727,0.38045c-0.19022,0.12682 -0.31704,0.19022 -0.44386,0.25363c-0.25363,0.12682 -0.38045,0.19022 -0.38045,0.19022c0,0 0.12682,-0.12682 0.31704,-0.25363c0.19022,-0.12682 0.44386,-0.38045 0.7609,-0.69749c0.25363,-0.31704 0.50727,-0.7609 0.57067,-1.26817c0,-0.25363 0.06341,-0.50727 0.06341,-0.82431c0,-0.31704 0.06341,-0.57067 0.06341,-0.88772c0.06341,-0.57067 0.12682,-1.14135 0.19022,-1.71202c0.06341,-0.57067 0.12682,-1.07794 0.19022,-1.5218c0.06341,-0.88772 0.19022,-1.45839 0.19022,-1.45839c0,0 0,0.63408 0.19022,1.33157z" fill="#99918a"/><path d="M210.6896,135.96025c-0.06341,0.31704 -0.06341,0.7609 -0.06341,1.33157c0.06341,0.50727 0.12682,1.14135 0.38045,1.77543c0.12682,0.31704 0.31704,0.57067 0.50727,0.88772c0.25363,0.31704 0.44386,0.69749 0.50727,1.07794c0.06341,0.38045 0.06341,0.7609 0.06341,1.14135c-0.06341,0.38045 -0.12682,0.7609 -0.25363,1.07794c-0.06341,0.38045 -0.25363,0.69749 -0.44386,0.95112c-0.19022,0.25363 -0.44386,0.50727 -0.63408,0.69749c-0.19022,0.19022 -0.44386,0.38045 -0.63408,0.44386c-0.19022,0.12682 -0.44386,0.12682 -0.57067,0.19022c-0.19022,0 -0.31704,0 -0.38045,0c-0.06341,0 -0.12682,0 -0.12682,0c0,0 0.06341,0 0.12682,0c0.12682,0 0.25363,0 0.38045,-0.06341c0.12682,-0.06341 0.31704,-0.12682 0.50727,-0.25363c0.06341,-0.06341 0.19022,-0.12682 0.25363,-0.19022c0.06341,-0.06341 0.19022,-0.12682 0.25363,-0.25363c0.19022,-0.19022 0.38045,-0.44386 0.50727,-0.69749c0.12682,-0.25363 0.31704,-0.57067 0.38045,-0.88772c0.12682,-0.31704 0.19022,-0.69749 0.19022,-1.01453c0.06341,-0.31704 0,-0.69749 -0.06341,-1.01453c-0.06341,-0.38045 -0.19022,-0.63408 -0.38045,-0.95112c-0.19022,-0.25363 -0.38045,-0.63408 -0.50727,-0.95112c-0.19022,-0.31704 -0.19022,-0.69749 -0.25363,-1.01453c0,-0.31704 0,-0.63408 0,-0.88772c0.06341,-0.57067 0.19022,-1.01453 0.25363,-1.33157c0.12682,-0.31704 0.19022,-0.50727 0.19022,-0.50727c0,0 -0.06341,0.19022 -0.19022,0.44386z" fill="#99918a"/><path d="M210.6896,149.91008c-0.06341,-0.19022 -0.19022,-0.38045 -0.25363,-0.63408c0,-0.12682 0,-0.25363 0,-0.38045c0,-0.12682 0,-0.25363 0.06341,-0.38045c0.06341,-0.12682 0.12682,-0.25363 0.19022,-0.38045c0.06341,-0.06341 0.12682,-0.19022 0.25363,-0.25363c0.19022,-0.12682 0.38045,-0.25363 0.57067,-0.31704c0.19022,-0.06341 0.31704,-0.06341 0.44386,-0.12682c0.12682,-0.06341 0.19022,-0.06341 0.19022,-0.06341c0,0 -0.06341,0.06341 -0.12682,0.12682c-0.06341,0.06341 -0.19022,0.12682 -0.31704,0.25363c-0.06341,0.06341 -0.12682,0.12682 -0.19022,0.19022c-0.06341,0.06341 -0.12682,0.12682 -0.19022,0.19022c-0.06341,0.06341 -0.12682,0.19022 -0.19022,0.25363c-0.06341,0.06341 -0.06341,0.19022 -0.12682,0.25363c0,0.12682 -0.06341,0.19022 -0.06341,0.31704c0,0.12682 0,0.19022 0,0.31704c0,0.19022 0.06341,0.38045 0.12682,0.57067c0.12682,0.38045 0.25363,0.57067 0.25363,0.57067c0,0 -0.19022,-0.12682 -0.63408,-0.50727z" fill="#99918a"/><path d="M211.83095,152.44642c0.25363,-0.06341 0.50727,-0.06341 0.82431,-0.12682c0.12682,0 0.31704,-0.06341 0.44386,-0.12682c0.12682,-0.06341 0.25363,-0.06341 0.38045,-0.19022c0.12682,-0.12682 0.19022,-0.19022 0.31704,-0.31704c0.12682,-0.12682 0.19022,-0.25363 0.25363,-0.38045c0.06341,-0.12682 0.12682,-0.25363 0.19022,-0.38045c0.06341,-0.12682 0.06341,-0.25363 0.12682,-0.38045c0.06341,-0.19022 0.06341,-0.44386 0.12682,-0.57067c0.06341,-0.19022 0.06341,-0.25363 0.06341,-0.25363c0,0 0.06341,0.12682 0.06341,0.25363c0,0.12682 0.06341,0.38045 0,0.63408c0,0.12682 0,0.31704 -0.06341,0.44386c0,0.12682 -0.06341,0.31704 -0.12682,0.44386c-0.12682,0.12682 -0.19022,0.31704 -0.31704,0.44386c-0.06341,0.12682 -0.19022,0.25363 -0.38045,0.38045c-0.19022,0.12682 -0.31704,0.19022 -0.50727,0.25363c-0.19022,0.06341 -0.31704,0.12682 -0.50727,0.12682c-0.31704,0.06341 -0.63408,0.06341 -0.88772,0c-0.50727,-0.12682 -0.82431,-0.25363 -0.82431,-0.25363c0,0 0.38045,0.06341 0.82431,0z" fill="#99918a"/><path d="M231.67775,114.9721c-0.38045,-0.12682 -0.7609,-0.31704 -1.20476,-0.50727c-0.44386,-0.19022 -0.88772,-0.31704 -1.39498,-0.50727c-0.19022,-0.06341 -0.44386,-0.12682 -0.69749,-0.19022c-0.25363,-0.06341 -0.44386,-0.19022 -0.69749,-0.19022c-0.25363,0 -0.50727,-0.06341 -0.69749,-0.06341c-0.25363,0 -0.44386,0 -0.63408,0c-0.38045,0.06341 -0.69749,0.12682 -0.88772,0.19022c-0.19022,0.12682 -0.31704,0.19022 -0.31704,0.19022c0,0 0.06341,-0.12682 0.25363,-0.25363c0.19022,-0.12682 0.50727,-0.25363 0.88772,-0.31704c0.19022,0 0.38045,-0.06341 0.63408,-0.06341c0.19022,0 0.44386,0.06341 0.69749,0.06341c0.25363,0 0.50727,0.06341 0.7609,0.12682c0.25363,0.06341 0.50727,0.12682 0.7609,0.19022c0.19022,0.06341 0.44386,0.19022 0.69749,0.25363c0.25363,0.06341 0.50727,0.19022 0.69749,0.31704c0.44386,0.19022 0.82431,0.44386 1.14135,0.63408c0.31704,0.19022 0.57067,0.38045 0.7609,0.50727c0.19022,0.12682 0.31704,0.19022 0.31704,0.19022c0,0 -0.50727,-0.19022 -1.07794,-0.57067z" fill="#99918a"/><path d="M240.61833,144.01311c-0.12682,0.06341 -0.31704,0.12682 -0.57067,0.12682c-0.12682,0 -0.25363,0 -0.38045,0c-0.12682,0 -0.31704,0 -0.44386,-0.06341c-0.19022,-0.06341 -0.31704,-0.12682 -0.44386,-0.19022c-0.12682,-0.06341 -0.25363,-0.12682 -0.38045,-0.25363c-0.12682,-0.12682 -0.25363,-0.25363 -0.31704,-0.38045c-0.12682,-0.12682 -0.19022,-0.25363 -0.25363,-0.38045c-0.12682,-0.25363 -0.19022,-0.50727 -0.25363,-0.7609c-0.06341,-0.25363 -0.06341,-0.44386 -0.06341,-0.57067c0,-0.12682 0,-0.19022 0,-0.19022c0,0 0,0.06341 0.06341,0.19022c0.06341,0.12682 0.06341,0.31704 0.19022,0.50727c0,0.12682 0.06341,0.19022 0.12682,0.31704c0.06341,0.06341 0.12682,0.19022 0.19022,0.31704c0.06341,0.12682 0.19022,0.19022 0.25363,0.31704c0.06341,0.12682 0.19022,0.19022 0.25363,0.31704c0.12682,0.06341 0.19022,0.19022 0.31704,0.25363c0.06341,0.06341 0.19022,0.12682 0.31704,0.19022c0.25363,0.12682 0.50727,0.19022 0.69749,0.19022c0.19022,0.06341 0.38045,0.06341 0.50727,0.06341c0.12682,0 0.19022,0 0.19022,0c0,0 -0.06341,0 0,0z" fill="#99918a"/><path d="M239.6672,133.93119c0,0.38045 0,0.88772 -0.25363,1.33157c-0.12682,0.19022 -0.25363,0.44386 -0.44386,0.57067c-0.12682,0.06341 -0.19022,0.12682 -0.31704,0.19022c-0.12682,0.06341 -0.19022,0.12682 -0.31704,0.12682c-0.19022,0.06341 -0.31704,0.06341 -0.44386,0.06341c-0.12682,0 -0.19022,0 -0.19022,0c0,0 0,0 0.12682,-0.06341c0.06341,0 0.12682,-0.06341 0.19022,-0.06341c0.06341,-0.06341 0.12682,-0.06341 0.19022,-0.12682c0.06341,0 0.12682,-0.06341 0.19022,-0.12682c0.06341,-0.06341 0.12682,-0.12682 0.19022,-0.19022c0.06341,-0.06341 0.12682,-0.19022 0.19022,-0.25363c0,-0.06341 0.06341,-0.12682 0.12682,-0.25363c0.12682,-0.25363 0.19022,-0.44386 0.25363,-0.63408c0.06341,-0.19022 0.06341,-0.38045 0.12682,-0.57067c0.06341,-0.31704 0.12682,-0.57067 0.12682,-0.57067c0,0 0.12682,0.25363 0.25363,0.57067z" fill="#99918a"/><path d="M238.27222,151.24166c-0.38045,0 -0.7609,-0.12682 -1.20476,-0.25363c-0.19022,-0.12682 -0.44386,-0.19022 -0.63408,-0.31704c-0.19022,-0.12682 -0.38045,-0.25363 -0.57067,-0.44386c-0.12682,-0.06341 -0.19022,-0.12682 -0.25363,-0.25363c-0.06341,-0.12682 -0.12682,-0.19022 -0.19022,-0.31704c-0.06341,-0.12682 -0.12682,-0.19022 -0.19022,-0.31704c-0.06341,-0.06341 -0.06341,-0.19022 -0.12682,-0.31704c0,-0.12682 -0.06341,-0.19022 -0.06341,-0.31704c0,-0.12682 0,-0.19022 0,-0.31704c0,-0.19022 0,-0.38045 0.06341,-0.57067c0.12682,-0.69749 0.38045,-1.14135 0.38045,-1.14135c0,0 0,0.12682 -0.06341,0.31704c0,0.19022 -0.06341,0.50727 -0.06341,0.82431c0,0.19022 0,0.38045 0,0.57067c0,0.06341 0.06341,0.19022 0.06341,0.25363c0.06341,0.12682 0.06341,0.25363 0.12682,0.31704c0.06341,0.12682 0.06341,0.19022 0.12682,0.31704l0.19022,0.25363c0.06341,0.06341 0.12682,0.19022 0.19022,0.25363c0.12682,0.12682 0.19022,0.19022 0.25363,0.25363c0.12682,0.12682 0.31704,0.25363 0.50727,0.38045c0.19022,0.12682 0.38045,0.25363 0.57067,0.31704c0.38045,0.19022 0.7609,0.31704 1.07794,0.38045c0.69749,0.12682 1.14135,0.19022 1.14135,0.19022c0,0 -0.44386,0.06341 -1.33157,-0.06341z" fill="#99918a"/><path d="M239.22334,153.52436c-0.25363,0.06341 -0.57067,0.12682 -0.88772,0.12682c-0.19022,-0.06341 -0.31704,0 -0.50727,-0.06341c-0.19022,-0.06341 -0.31704,-0.06341 -0.50727,-0.12682c-0.19022,-0.06341 -0.31704,-0.12682 -0.50727,-0.19022c-0.19022,-0.06341 -0.31704,-0.19022 -0.44386,-0.25363c-0.12682,-0.06341 -0.25363,-0.19022 -0.38045,-0.25363c-0.12682,-0.06341 -0.25363,-0.19022 -0.31704,-0.25363c-0.19022,-0.19022 -0.31704,-0.38045 -0.38045,-0.50727c-0.06341,-0.12682 -0.12682,-0.19022 -0.12682,-0.19022c0,0 0.06341,0.06341 0.19022,0.12682c0.06341,0.06341 0.12682,0.12682 0.19022,0.19022c0.06341,0.06341 0.12682,0.12682 0.25363,0.19022c0.06341,0.06341 0.19022,0.12682 0.31704,0.19022c0.12682,0.06341 0.25363,0.12682 0.38045,0.19022c0.31704,0.12682 0.57067,0.25363 0.88772,0.31704c0.57067,0.19022 1.20476,0.19022 1.71202,0.19022c0.50727,0 0.82431,-0.06341 0.82431,-0.06341c0,0 -0.31704,0.19022 -0.69749,0.38045z" fill="#99918a"/><path d="M237.13087,160.87972c-0.25363,-0.25363 -0.57067,-0.57067 -0.7609,-1.01453c-0.12682,-0.19022 -0.19022,-0.44386 -0.19022,-0.63408c0,-0.19022 0,-0.38045 0,-0.57067c0.06341,-0.12682 0.12682,-0.31704 0.12682,-0.38045c0.06341,-0.06341 0.06341,-0.12682 0.06341,-0.12682c0,0 0,0.25363 0.06341,0.57067c0.06341,0.31704 0.12682,0.69749 0.31704,1.07794c0.19022,0.38045 0.38045,0.7609 0.57067,1.01453c0.19022,0.25363 0.31704,0.44386 0.31704,0.44386c0,0 -0.25363,-0.12682 -0.50727,-0.38045z" fill="#99918a"/><path d="M235.16521,160.18223c0.06341,0.25363 0.12682,0.63408 0.12682,0.95112c-0.06341,0.12682 -0.06341,0.31704 -0.06341,0.50727c-0.06341,0.19022 -0.06341,0.38045 -0.12682,0.57067c0,0.19022 -0.12682,0.31704 -0.19022,0.50727c-0.06341,0.19022 -0.25363,0.31704 -0.31704,0.44386c-0.06341,0.19022 -0.19022,0.25363 -0.31704,0.38045c-0.12682,0.12682 -0.25363,0.19022 -0.38045,0.25363c-0.19022,0.19022 -0.44386,0.25363 -0.57067,0.31704c-0.19022,0.12682 -0.25363,0.12682 -0.25363,0.12682c0,0 0.06341,-0.06341 0.19022,-0.19022c0.06341,-0.06341 0.12682,-0.12682 0.19022,-0.19022c0.06341,-0.06341 0.19022,-0.19022 0.25363,-0.25363c0.06341,-0.12682 0.19022,-0.19022 0.25363,-0.31704c0.06341,-0.12682 0.19022,-0.25363 0.25363,-0.38045c0.06341,-0.19022 0.19022,-0.31704 0.25363,-0.44386c0.06341,-0.12682 0.12682,-0.25363 0.19022,-0.44386c0.12682,-0.31704 0.12682,-0.63408 0.19022,-0.95112c0,-0.31704 0,-0.63408 0,-0.88772c-0.06341,-0.50727 -0.12682,-0.88772 -0.12682,-0.88772c0,0 0.25363,0.31704 0.44386,0.88772z" fill="#99918a"/><path d="M229.20483,168.61554c-0.06341,0 -0.19022,0 -0.25363,-0.06341c-0.06341,0 -0.19022,-0.12682 -0.25363,-0.19022c-0.12682,-0.06341 -0.19022,-0.19022 -0.25363,-0.31704c-0.06341,-0.12682 -0.06341,-0.31704 -0.12682,-0.44386c-0.06341,-0.19022 -0.06341,-0.31704 -0.06341,-0.50727c0,-0.19022 0,-0.31704 0,-0.50727c0.06341,-0.38045 0.12682,-0.63408 0.19022,-0.95112c0.12682,-0.25363 0.25363,-0.57067 0.31704,-0.7609c0.19022,-0.44386 0.38045,-0.69749 0.38045,-0.69749c0,0 0,0.31704 -0.12682,0.7609c-0.06341,0.19022 -0.12682,0.50727 -0.19022,0.7609c-0.06341,0.31704 -0.12682,0.57067 -0.12682,0.88772c0,0.31704 0,0.63408 0,0.88772c0,0.12682 0,0.25363 0.06341,0.38045c0,0.12682 0.06341,0.19022 0.12682,0.31704c0.06341,0.12682 0.12682,0.19022 0.19022,0.25363c0.06341,0.06341 0.12682,0.12682 0.19022,0.12682c0.12682,0.06341 0.19022,0.06341 0.19022,0.06341c0,0 -0.06341,0 -0.25363,0z" fill="#99918a"/><path d="M228.31711,167.5376c-0.06341,0.12682 -0.12682,0.31704 -0.25363,0.44386c-0.06341,0.12682 -0.19022,0.31704 -0.31704,0.44386c-0.12682,0.12682 -0.25363,0.25363 -0.44386,0.38045c-0.12682,0.12682 -0.31704,0.25363 -0.50727,0.31704c-0.19022,0.12682 -0.38045,0.19022 -0.57067,0.25363c-0.19022,0.06341 -0.38045,0.06341 -0.57067,0.12682c-0.19022,0 -0.38045,0 -0.57067,0c-0.19022,0 -0.38045,-0.06341 -0.50727,-0.06341c-0.31704,0 -0.50727,-0.12682 -0.69749,-0.19022c-0.19022,-0.06341 -0.25363,-0.12682 -0.25363,-0.12682c0,0 0.06341,0 0.25363,0c0.19022,0 0.38045,0.06341 0.69749,0.06341c0.12682,0 0.25363,0 0.44386,0c0.19022,0 0.31704,-0.06341 0.50727,-0.06341c0.12682,-0.06341 0.31704,-0.06341 0.50727,-0.12682c0.19022,-0.06341 0.38045,-0.06341 0.50727,-0.19022c0.12682,-0.06341 0.31704,-0.12682 0.44386,-0.25363c0.19022,-0.06341 0.31704,-0.19022 0.44386,-0.31704c0.06341,-0.12682 0.19022,-0.25363 0.31704,-0.38045c0.06341,-0.12682 0.19022,-0.25363 0.25363,-0.38045c0.19022,-0.19022 0.31704,-0.44386 0.38045,-0.57067c0.06341,-0.19022 0.12682,-0.25363 0.12682,-0.25363c0,0 -0.06341,0.38045 -0.19022,0.88772z" fill="#99918a"/><path d="M221.34219,170.20075c-0.19022,0 -0.38045,0.06341 -0.57067,0.12682c-0.19022,0.06341 -0.38045,0.06341 -0.63408,0.06341c-0.12682,0 -0.25363,0 -0.38045,0c-0.12682,0 -0.25363,0 -0.38045,-0.06341c-0.25363,-0.06341 -0.50727,-0.19022 -0.69749,-0.31704l-0.31704,-0.25363c-0.12682,-0.06341 -0.19022,-0.19022 -0.25363,-0.25363c-0.19022,-0.12682 -0.25363,-0.38045 -0.38045,-0.57067c-0.19022,-0.38045 -0.31704,-0.82431 -0.25363,-1.20476c0.06341,-0.38045 0.25363,-0.63408 0.44386,-0.7609c0.19022,-0.12682 0.31704,-0.12682 0.31704,-0.12682c0,0 -0.12682,0.06341 -0.25363,0.19022c-0.12682,0.12682 -0.25363,0.38045 -0.25363,0.69749c0.06341,0.31704 0.19022,0.63408 0.38045,1.01453c0.12682,0.19022 0.25363,0.38045 0.38045,0.50727c0.06341,0.12682 0.12682,0.19022 0.19022,0.25363l0.25363,0.19022c0.19022,0.06341 0.38045,0.19022 0.57067,0.25363c0.12682,0 0.19022,0.06341 0.31704,0.06341c0.12682,0.06341 0.19022,0.06341 0.31704,0.06341c0.44386,0.06341 0.82431,0 1.14135,-0.06341c0.38045,-0.12682 0.63408,-0.19022 0.82431,-0.25363c0.19022,-0.06341 0.31704,-0.12682 0.31704,-0.12682c0,0 -0.38045,0.31704 -1.07794,0.57067z" fill="#99918a"/><path d="M222.42014,165.31831c-0.12682,0 -0.31704,0 -0.57067,-0.06341c-0.12682,-0.06341 -0.25363,-0.06341 -0.38045,-0.12682c-0.12682,-0.06341 -0.25363,-0.12682 -0.38045,-0.19022c-0.12682,-0.06341 -0.25363,-0.19022 -0.38045,-0.31704c-0.12682,-0.12682 -0.19022,-0.25363 -0.31704,-0.38045c-0.06341,-0.12682 -0.12682,-0.25363 -0.19022,-0.44386c-0.06341,-0.12682 -0.12682,-0.31704 -0.12682,-0.44386c0,-0.31704 0,-0.57067 0,-0.82431c0,-0.25363 0.12682,-0.44386 0.12682,-0.57067c0.06341,-0.12682 0.06341,-0.19022 0.06341,-0.19022c0,0 0,0.06341 0,0.19022c0,0.12682 0,0.31704 0.06341,0.57067c0,0.12682 0.06341,0.25363 0.06341,0.38045c0,0.12682 0.06341,0.25363 0.06341,0.38045c0,0.12682 0.06341,0.25363 0.12682,0.38045c0.06341,0.12682 0.12682,0.25363 0.19022,0.38045c0.06341,0.06341 0.12682,0.19022 0.25363,0.31704c0.12682,0.12682 0.19022,0.25363 0.31704,0.31704c0.19022,0.19022 0.44386,0.31704 0.63408,0.38045c0.19022,0.12682 0.38045,0.19022 0.50727,0.19022c0.12682,0.06341 0.19022,0.06341 0.19022,0.06341c0,0 -0.06341,0 -0.25363,0z" fill="#99918a"/><path d="M216.45975,157.83612c0.12682,-0.12682 0.25363,-0.25363 0.31704,-0.44386c0.06341,-0.12682 0.06341,-0.19022 0.12682,-0.31704c0,-0.06341 0.06341,-0.19022 0.06341,-0.31704c0.12682,-0.44386 0.12682,-0.88772 0.19022,-1.26817c0,-0.38045 0.06341,-0.63408 0.06341,-0.63408c0,0 0.12682,0.19022 0.19022,0.57067c0,0.19022 0.06341,0.38045 0.06341,0.63408c0,0.12682 0,0.25363 0,0.38045c0,0.12682 0,0.25363 -0.06341,0.38045c-0.06341,0.12682 -0.06341,0.25363 -0.12682,0.38045c-0.06341,0.12682 -0.12682,0.19022 -0.19022,0.31704c-0.06341,0.06341 -0.19022,0.19022 -0.25363,0.25363c-0.06341,0.06341 -0.19022,0.12682 -0.25363,0.19022c-0.19022,0.06341 -0.31704,0.12682 -0.44386,0.12682c-0.12682,0 -0.19022,0 -0.19022,0c0,0 0.25363,-0.06341 0.50727,-0.25363z" fill="#99918a"/><path d="M232.50206,162.9722c0.06341,-0.38045 0.12682,-0.95112 0.19022,-1.5218c0.06341,-0.25363 0.06341,-0.57067 0.06341,-0.82431c0,-0.12682 0,-0.25363 0,-0.38045c-0.06341,-0.12682 -0.06341,-0.19022 -0.06341,-0.31704c-0.06341,-0.19022 -0.06341,-0.38045 -0.12682,-0.50727c-0.06341,-0.12682 -0.06341,-0.19022 -0.06341,-0.19022c0,0 0.06341,0.06341 0.12682,0.19022c0.06341,0.12682 0.19022,0.31704 0.25363,0.50727c0.06341,0.25363 0.12682,0.50727 0.19022,0.7609c0,0.31704 0,0.57067 0,0.88772c-0.06341,0.63408 -0.19022,1.20476 -0.38045,1.58521c-0.19022,0.38045 -0.31704,0.63408 -0.31704,0.63408c0,0 0.06341,-0.31704 0.12682,-0.82431z" fill="#99918a"/></g><g><path d="M222.41727,127.91829c-0.02257,-0.73504 0.24288,-1.33962 0.59291,-1.35037c0.35003,-0.01075 0.65208,0.57641 0.67466,1.31145c0.02257,0.73504 -0.24288,1.33962 -0.59291,1.35037c-0.35003,0.01075 -0.65208,-0.57641 -0.67466,-1.31145z" fill="#592f25"/><path d="M230.74618,127.66695c-0.02257,-0.73504 0.24288,-1.33962 0.59291,-1.35037c0.35003,-0.01075 0.65208,0.57641 0.67466,1.31145c0.02257,0.73504 -0.24288,1.33962 -0.59291,1.35037c-0.35003,0.01075 -0.65208,-0.57641 -0.67466,-1.31145z" fill="#592f25"/><path d="M221.59583,126.82945c-1.14135,0 -1.71202,0.7609 -1.71202,0.7609c0.06341,-0.57067 0.69749,-1.01453 0.69749,-1.01453l-0.95112,0.19022c0.63408,-1.5218 2.72656,-1.26817 2.72656,-1.26817l-0.69749,-0.19022c1.26817,-0.50727 2.91678,-0.19022 2.91678,-0.19022l-0.57067,-0.38045c1.33157,-0.12682 2.15588,0.7609 1.83884,1.45839c-0.31704,0.57067 -3.0436,0.7609 -4.24836,0.63408z" fill="#c8bdb4"/><path d="M228.44393,126.25878c-0.38045,-0.69749 0.31704,-1.58521 1.71202,-1.64862l-0.50727,0.44386c0,0 1.58521,-0.44386 2.91678,-0.06341l-0.69749,0.25363c0,0 2.02907,-0.44386 2.78997,1.01453l-1.01453,-0.06341c0,0 0.63408,0.38045 0.82431,0.95112c0,0 -0.63408,-0.7609 -1.77543,-0.57067c-1.14135,0.12682 -3.93132,0.25363 -4.24836,-0.31704z" fill="#c8bdb4"/><path d="M223.62489,129.04874c-0.19022,0.12682 -0.50727,0.25363 -0.7609,0.31704c-0.25363,0.06341 -0.57067,0.12682 -0.7609,0.19022c-0.06341,0.06341 -0.19022,0.06341 -0.25363,0.06341c-0.06341,0 -0.12682,0 -0.12682,0c0,0 0.06341,-0.12682 0.25363,-0.25363c0.19022,-0.12682 0.44386,-0.31704 0.7609,-0.38045c0.31704,-0.06341 0.57067,-0.12682 0.82431,-0.12682c0.25363,0 0.38045,0.06341 0.38045,0.06341c0,0 -0.12682,0.12682 -0.31704,0.12682z" fill="#a95947"/><path d="M232.0582,129.11215c-0.19022,0 -0.50727,0 -0.7609,-0.06341c-0.25363,-0.06341 -0.50727,-0.12682 -0.69749,-0.19022c-0.19022,-0.06341 -0.31704,-0.12682 -0.31704,-0.12682c0,0 0.19022,-0.06341 0.38045,-0.12682c0.19022,-0.06341 0.50727,-0.06341 0.7609,0c0.25363,0.06341 0.50727,0.12682 0.69749,0.25363c0.19022,0.12682 0.31704,0.19022 0.31704,0.19022c0,0 -0.12682,0.06341 -0.38045,0.06341z" fill="#a95947"/><g><path d="M230.5364,133.61414c0,0 0.95112,-0.25363 1.64862,0.82431c0.69749,1.07794 1.33157,0.95112 1.33157,0.95112c0,0 -0.69749,0.69749 -1.5218,0.25363c0,0 0.7609,1.14135 -0.25363,1.90225c0,0 0,-0.88772 -0.31704,-1.33157c0,0 0.25363,1.5218 -1.14135,1.83884c0,0 0,-0.38045 0,-0.95112c0,0 -0.06341,0.44386 -0.95112,0.69749l-0.06341,-1.33157c0.19022,1.14135 -1.01453,1.58521 -1.01453,1.58521c-0.44386,-0.44386 -0.12682,-1.58521 -0.12682,-1.58521c-0.31704,0.19022 -0.44386,1.71202 -0.44386,1.71202c-0.38045,-0.38045 -0.44386,-1.71202 -0.44386,-1.71202c0.19022,1.45839 -1.33157,1.90225 -1.33157,1.90225c0.31704,-0.31704 -0.38045,-1.90225 -0.38045,-1.90225c0.19022,1.39498 -0.57067,1.90225 -0.57067,1.90225c-0.57067,-0.31704 -0.44386,-1.39498 -0.44386,-1.39498l-0.69749,1.39498c-0.95112,-0.63408 -0.19022,-1.71202 -0.19022,-1.71202c-0.31704,0.19022 -0.7609,1.14135 -0.7609,1.14135c-0.06341,-0.82431 0.31704,-1.83884 0.31704,-1.83884c-0.25363,0.44386 -1.26817,0.19022 -1.26817,0.19022c0.31704,0 0.95112,-0.69749 1.39498,-1.20476c1.71202,-2.09247 4.5654,-1.33157 4.5654,-1.33157" fill="#c8bdb4"/><path d="M232.94592,135.26276c-0.19022,-0.06341 -0.38045,-0.19022 -0.50727,-0.31704c-0.19022,-0.12682 -0.31704,-0.31704 -0.44386,-0.44386c-0.25363,-0.31704 -0.57067,-0.57067 -0.82431,-0.69749c-0.19022,-0.06341 -0.31704,-0.12682 -0.38045,-0.12682c-0.06341,-0.06341 -0.12682,-0.06341 -0.12682,-0.06341c0,0 0.19022,-0.12682 0.57067,-0.06341c0.19022,0 0.38045,0.06341 0.57067,0.19022c0.19022,0.12682 0.38045,0.25363 0.50727,0.44386c0.12682,0.19022 0.25363,0.38045 0.38045,0.50727c0.12682,0.12682 0.25363,0.25363 0.38045,0.38045c0.12682,0.12682 0.25363,0.19022 0.31704,0.25363c0.06341,0.06341 0.12682,0.06341 0.12682,0.06341c0,0 -0.25363,0.06341 -0.57067,-0.12682z" fill="#99918a"/><path d="M231.67775,136.53093c0,0.25363 0,0.57067 -0.19022,0.88772c-0.06341,0.19022 -0.19022,0.31704 -0.31704,0.38045c-0.12682,0.12682 -0.25363,0.19022 -0.38045,0.19022c-0.12682,0.06341 -0.25363,0.06341 -0.31704,0.06341c-0.06341,0 -0.12682,0 -0.12682,0c0,0 0,0 0.06341,-0.06341c0.06341,-0.06341 0.12682,-0.12682 0.19022,-0.19022c0.06341,-0.06341 0.19022,-0.19022 0.25363,-0.25363c0.12682,-0.12682 0.19022,-0.19022 0.25363,-0.31704c0.12682,-0.25363 0.19022,-0.50727 0.25363,-0.69749c0.06341,-0.19022 0.06341,-0.38045 0.06341,-0.38045c0,0 0.12682,0.19022 0.25363,0.38045z" fill="#99918a"/><path d="M225.14669,133.80437c-0.44386,0.19022 -1.01453,0.44386 -1.45839,0.82431c-0.25363,0.19022 -0.44386,0.38045 -0.63408,0.63408c-0.19022,0.19022 -0.44386,0.38045 -0.63408,0.50727c-0.38045,0.25363 -0.69749,0.38045 -0.69749,0.38045c0,0 0.25363,-0.25363 0.57067,-0.57067c0.12682,-0.12682 0.31704,-0.38045 0.50727,-0.57067c0.06341,-0.12682 0.12682,-0.25363 0.25363,-0.38045c0.12682,-0.06341 0.25363,-0.19022 0.38045,-0.31704c0.57067,-0.38045 1.20476,-0.63408 1.64862,-0.69749c0.50727,-0.06341 0.82431,-0.06341 0.82431,-0.06341c0,0 -0.31704,0.12682 -0.7609,0.25363z" fill="#99918a"/><path d="M224.57602,137.29183c0,0.12682 0.06341,0.25363 0.12682,0.44386c0.06341,0.12682 0.06341,0.31704 0.12682,0.44386c0,0.12682 0.06341,0.25363 0.06341,0.25363c0,0 -0.12682,0 -0.25363,-0.06341c-0.19022,-0.12682 -0.31704,-0.31704 -0.38045,-0.50727c-0.06341,-0.19022 -0.06341,-0.44386 0,-0.57067c0.06341,-0.19022 0.12682,-0.25363 0.12682,-0.25363c0,0 0.06341,0.06341 0.19022,0.25363z" fill="#99918a"/><path d="M228.12689,136.78456c0.06341,0.12682 0.06341,0.31704 0.06341,0.50727c0,0.19022 0,0.38045 0,0.50727c0,0.06341 0,0.12682 0,0.19022v0.06341c0,0 -0.12682,-0.06341 -0.25363,-0.19022c-0.12682,-0.12682 -0.19022,-0.38045 -0.19022,-0.57067c0,-0.19022 0.06341,-0.44386 0.12682,-0.57067c0.06341,-0.19022 0.12682,-0.25363 0.12682,-0.25363c0,0 0.06341,0.12682 0.12682,0.31704z" fill="#99918a"/><path d="M225.65396,136.78456c0.12682,0.12682 0.25363,0.38045 0.31704,0.63408c0.06341,0.25363 0.06341,0.50727 0,0.69749c-0.06341,0.25363 -0.19022,0.25363 -0.19022,0.25363c0,0 0,0 0,-0.06341c0,0 -0.06341,-0.12682 -0.06341,-0.19022c-0.06341,-0.19022 -0.12682,-0.38045 -0.19022,-0.63408c-0.06341,-0.19022 -0.12682,-0.44386 -0.12682,-0.63408c0,-0.19022 0,-0.31704 0,-0.31704c0,0 0.12682,0.12682 0.25363,0.25363z" fill="#99918a"/><path d="M227.30258,137.22842c0.06341,0.06341 0.12682,0.25363 0.19022,0.38045c0.06341,0.19022 0.06341,0.31704 0.06341,0.44386c0,0.06341 0,0.06341 0,0.12682c0,0.06341 0,0.06341 0,0.06341c0,0 -0.06341,0 -0.19022,-0.12682c-0.12682,-0.12682 -0.19022,-0.25363 -0.25363,-0.44386c-0.06341,-0.12682 0,-0.31704 0,-0.44386c0,-0.12682 0.06341,-0.19022 0.06341,-0.19022c0,0 0.06341,0.06341 0.12682,0.19022z" fill="#99918a"/><path d="M232.18502,135.83344c0.06341,0.19022 0.19022,0.44386 0.19022,0.7609c0,0.19022 -0.06341,0.31704 -0.12682,0.44386c-0.06341,0.12682 -0.19022,0.25363 -0.25363,0.31704c-0.19022,0.12682 -0.31704,0.12682 -0.31704,0.12682c0,0 0.12682,-0.12682 0.19022,-0.31704c0.06341,-0.12682 0.12682,-0.38045 0.12682,-0.57067c0.06341,-0.19022 0,-0.44386 0,-0.63408c0,-0.19022 0,-0.31704 0,-0.31704c0,0 0.12682,0.06341 0.19022,0.19022z" fill="#99918a"/><path d="M223.24444,138.30636c-0.06341,-0.06341 -0.19022,-0.12682 -0.25363,-0.25363c0,-0.06341 -0.06341,-0.12682 -0.06341,-0.19022c0,-0.06341 0,-0.12682 0,-0.19022c0,-0.31704 0.12682,-0.57067 0.25363,-0.69749c0.12682,-0.19022 0.25363,-0.25363 0.25363,-0.25363c0,0 0,0.12682 0,0.31704c-0.06341,0.19022 -0.06341,0.44386 -0.06341,0.63408c0,0.19022 0.06341,0.38045 0.12682,0.50727c0.12682,0.12682 0.19022,0.25363 0.19022,0.25363c0,0 -0.12682,0.06341 -0.44386,-0.12682z" fill="#99918a"/><path d="M226.16123,134.058c-0.19022,0.12682 -0.38045,0.25363 -0.63408,0.38045c-0.25363,0.12682 -0.44386,0.31704 -0.63408,0.44386c-0.19022,0.12682 -0.31704,0.25363 -0.31704,0.25363c0,0 0,-0.19022 0.12682,-0.38045c0,-0.06341 0.06341,-0.19022 0.19022,-0.31704c0.12682,-0.12682 0.25363,-0.25363 0.38045,-0.31704c0.25363,-0.19022 0.57067,-0.25363 0.82431,-0.25363c0.25363,0 0.38045,0.06341 0.38045,0.06341c0,0 -0.12682,0.06341 -0.31704,0.12682z" fill="#99918a"/><path d="M226.98554,134.18482c-0.06341,0.12682 -0.19022,0.19022 -0.25363,0.25363c-0.12682,0.06341 -0.19022,0.06341 -0.31704,0.12682c-0.12682,0.06341 -0.19022,0.06341 -0.19022,0.06341c0,0 0,-0.06341 0,-0.19022c0.06341,-0.06341 0.12682,-0.25363 0.25363,-0.31704c0.12682,-0.12682 0.25363,-0.12682 0.38045,-0.12682c0.12682,0 0.19022,0.06341 0.19022,0.06341c0,0 -0.06341,0.06341 -0.06341,0.12682z" fill="#99918a"/><path d="M230.28277,133.80437c0.12682,0 0.31704,0.12682 0.50727,0.25363c0.19022,0.12682 0.25363,0.38045 0.31704,0.50727c0,0.12682 0,0.25363 0,0.25363c0,0 -0.06341,-0.06341 -0.19022,-0.12682c-0.12682,-0.12682 -0.25363,-0.19022 -0.38045,-0.31704c-0.12682,-0.06341 -0.25363,-0.19022 -0.38045,-0.31704c-0.12682,-0.12682 -0.19022,-0.19022 -0.19022,-0.19022c0,0 0.12682,0 0.31704,-0.06341z" fill="#99918a"/></g><g><path d="M227.42939,127.46354c0.63408,-0.06341 2.59974,0.38045 2.47292,4.12154c0,0 2.15588,2.2827 -0.69749,2.53633c-2.85337,0.25363 -4.18495,-0.7609 -3.23382,-1.5218c0,0 -0.95112,-4.94585 1.45839,-5.13607z" fill="#c57761"/><path d="M228.95119,127.90739c0.19022,0.12682 0.31704,0.25363 0.44386,0.38045c0.12682,0.19022 0.19022,0.31704 0.31704,0.50727c0.12682,0.12682 0.19022,0.31704 0.25363,0.50727c0.12682,0.38045 0.19022,0.7609 0.25363,1.14135c0,0.19022 0,0.38045 0,0.57067l-0.06341,0.57067l-0.06341,-0.12682c0.31704,0.31704 0.57067,0.63408 0.7609,1.07794c0.06341,0.19022 0.12682,0.44386 0.06341,0.69749c0,0.25363 -0.19022,0.44386 -0.38045,0.57067c-0.38045,0.25363 -0.82431,0.38045 -1.26817,0.38045c-0.44386,0 -0.82431,0 -1.26817,-0.06341c0.44386,0 0.88772,-0.06341 1.26817,-0.12682c0.19022,0 0.38045,-0.06341 0.57067,-0.12682c0.19022,-0.06341 0.38045,-0.12682 0.50727,-0.25363c0.12682,-0.12682 0.25363,-0.25363 0.25363,-0.44386c0.06341,-0.12682 0,-0.31704 -0.06341,-0.50727c-0.19022,-0.31704 -0.44386,-0.69749 -0.69749,-0.95112l-0.06341,-0.06341v-0.06341v-0.57067c0,-0.19022 0,-0.38045 0,-0.57067c-0.06341,-0.38045 -0.06341,-0.7609 -0.19022,-1.07794c-0.06341,-0.19022 -0.12682,-0.31704 -0.19022,-0.50727c-0.06341,-0.19022 -0.12682,-0.38045 -0.25363,-0.50727c-0.19022,-0.25363 -0.44386,-0.57067 -0.7609,-0.7609c0.12682,0.06341 0.31704,0.19022 0.57067,0.31704z" fill="#a95947"/><path d="M228.44393,131.52167c0.25363,-0.06341 0.57067,-0.19022 0.88772,-0.19022c0.31704,0.06341 0.63408,0.19022 0.82431,0.38045c0.12682,0.19022 0.19022,0.31704 0.19022,0.31704c0,0 -0.06341,-0.06341 -0.12682,-0.06341c-0.06341,-0.06341 -0.12682,-0.06341 -0.25363,-0.12682c-0.06341,-0.06341 -0.19022,-0.12682 -0.31704,-0.12682c-0.12682,-0.06341 -0.25363,-0.06341 -0.38045,-0.06341c-0.25363,0 -0.50727,0.06341 -0.7609,0.06341c-0.19022,0 -0.38045,0 -0.38045,0c0,0 0.06341,-0.12682 0.31704,-0.19022z" fill="#a95947"/></g><path d="M230.91685,122.96154c-0.25363,0 -0.57067,0 -1.01453,0.06341c-0.44386,0.06341 -0.88772,0.12682 -1.39498,0.25363c-0.25363,0.06341 -0.50727,0.12682 -0.7609,0.25363c-0.25363,0.12682 -0.57067,0.19022 -0.88772,0.25363c-0.63408,0.06341 -1.20476,-0.06341 -1.71202,-0.12682c-0.57067,-0.12682 -1.01453,-0.19022 -1.45839,-0.19022c-0.44386,-0.06341 -0.7609,-0.06341 -1.01453,-0.06341c-0.25363,0 -0.38045,0 -0.38045,0c0,0 0.50727,-0.12682 1.39498,-0.19022c0.44386,0 0.95112,0 1.45839,0.06341c0.50727,0 1.07794,0.12682 1.58521,0.06341c0.25363,0 0.50727,-0.06341 0.7609,-0.19022c0.25363,-0.06341 0.57067,-0.19022 0.82431,-0.25363c0.50727,-0.12682 1.01453,-0.12682 1.45839,-0.12682c0.82431,0 1.39498,0.12682 1.39498,0.12682c0,0 -0.12682,0.06341 -0.25363,0.06341z" fill="#a95947"/><path d="M229.07801,122.13724c-0.25363,0.06341 -0.63408,0.12682 -1.01453,0.25363c-0.19022,0.06341 -0.38045,0.12682 -0.57067,0.19022c-0.19022,0.06341 -0.44386,0.12682 -0.63408,0.19022c-0.25363,0.06341 -0.44386,0.12682 -0.69749,0.12682c-0.19022,0 -0.44386,-0.06341 -0.63408,-0.12682c-0.19022,-0.06341 -0.38045,-0.12682 -0.57067,-0.19022c-0.19022,-0.06341 -0.38045,-0.12682 -0.50727,-0.12682c-0.31704,0 -0.57067,-0.06341 -0.7609,-0.06341c-0.19022,0 -0.31704,0 -0.31704,0c0,0 0.12682,0 0.31704,-0.06341c0.19022,0 0.44386,-0.06341 0.7609,-0.06341c0.31704,-0.06341 0.69749,0 1.07794,0.12682c0.19022,0.06341 0.38045,0.06341 0.57067,0.06341c0.19022,0 0.38045,0 0.57067,-0.06341c0.19022,-0.06341 0.38045,-0.12682 0.57067,-0.19022c0.25363,-0.06341 0.44386,-0.12682 0.63408,-0.19022c0.38045,-0.12682 0.7609,-0.19022 1.07794,-0.19022c0.63408,-0.06341 1.07794,0 1.07794,0c0,0 -0.44386,0.06341 -0.95112,0.31704z" fill="#a95947"/></g></g><g><g><path d="M213.16252,120.99589c-1.01453,-4.43858 0.7609,-15.9789 1.5218,-18.2616c0.7609,-2.34611 0.7609,-4.18495 0.12682,-6.46765c-1.01453,-3.61427 0.12682,-7.609 0.12682,-7.609c0.57067,2.40952 5.13607,5.38971 6.72128,6.91151c1.58521,1.5218 3.8045,8.05286 4.69222,9.51125c0.88772,1.45839 3.42405,2.72656 4.62881,4.43858c1.20476,1.77543 5.96038,9.8917 5.96038,9.8917c-12.87189,-2.91678 -23.77812,1.58521 -23.77812,1.58521z" fill="#264a6e"/><path d="M212.71866,120.3618c0,0 -0.06341,-0.82431 -0.06341,-2.02907c-0.06341,-1.20476 -0.06341,-2.78997 0.06341,-4.43858c0.06341,-0.7609 0.12682,-1.58521 0.19022,-2.34611c0.12682,-0.69749 0.19022,-1.45839 0.31704,-2.02907c0.12682,-0.63408 0.19022,-1.14135 0.31704,-1.45839c0.06341,-0.38045 0.12682,-0.57067 0.12682,-0.57067c0,0 0,0.19022 -0.06341,0.57067c-0.06341,0.38045 -0.12682,0.88772 -0.19022,1.45839c-0.06341,1.20476 -0.19022,2.85337 -0.25363,4.43858c-0.06341,1.58521 -0.06341,3.23382 -0.06341,4.43858c0.06341,1.20476 0.06341,2.02907 0.06341,2.02907z" fill="#1a324a"/><path d="M228.12689,106.91924c-0.38045,-0.25363 -0.88772,-0.63408 -1.39498,-1.01453c-0.50727,-0.44386 -0.95112,-0.82431 -1.26817,-1.20476c-0.31704,-0.38045 -0.50727,-0.63408 -0.50727,-0.63408c0,0 0.25363,0.19022 0.63408,0.44386c0.38045,0.31704 0.82431,0.69749 1.33157,1.07794c0.44386,0.38045 0.95112,0.82431 1.26817,1.14135c0.38045,0.31704 0.57067,0.57067 0.57067,0.57067c0,0 -0.31704,-0.12682 -0.63408,-0.38045z" fill="#1a324a"/><path d="M215.57204,100.83204c-0.12682,0.44386 -0.31704,1.07794 -0.50727,1.64862c-0.19022,0.63408 -0.44386,1.20476 -0.57067,1.64862c-0.06341,0.25363 -0.19022,0.44386 -0.19022,0.57067c-0.06341,0.12682 -0.06341,0.19022 -0.06341,0.19022c0,0 -0.06341,-0.31704 0,-0.82431c0,-0.50727 0.19022,-1.07794 0.38045,-1.71202c0.19022,-0.57067 0.44386,-1.14135 0.69749,-1.58521c0.25363,-0.44386 0.44386,-0.69749 0.44386,-0.69749c0,0 -0.06341,0.31704 -0.19022,0.7609z" fill="#1a324a"/></g><g><path d="M251.0807,123.34199c-3.55087,-1.5218 -21.05156,-3.93132 -31.57735,-2.34611c-10.52578,1.58521 -18.45182,5.07267 -22.57336,6.8481c0,0 18.70546,-8.56012 20.03703,-9.25762c1.33157,-0.63408 5.19948,-3.61427 17.24706,-0.63408c12.04758,2.98019 16.86661,5.38971 16.86661,5.38971z" fill="#264a6e"/><path d="M220.96174,118.52296c-0.38045,0.06341 -0.88772,0.19022 -1.5218,0.31704c-1.20476,0.31704 -2.85337,0.7609 -4.50199,1.26817c-0.82431,0.25363 -1.58521,0.57067 -2.34611,0.82431c-0.38045,0.19022 -0.7609,0.31704 -1.07794,0.44386c-0.31704,0.12682 -0.63408,0.25363 -0.95112,0.38045c-0.31704,0.12682 -0.57067,0.19022 -0.82431,0.31704c-0.25363,0.06341 -0.44386,0.19022 -0.63408,0.25363c-0.38045,0.19022 -0.57067,0.25363 -0.57067,0.25363c0,0 0.19022,-0.12682 0.50727,-0.31704c0.38045,-0.19022 0.82431,-0.50727 1.39498,-0.7609c0.63408,-0.31704 1.26817,-0.63408 2.02907,-0.95112c0.69749,-0.31704 1.5218,-0.63408 2.34611,-0.88772c0.38045,-0.12682 0.82431,-0.25363 1.20476,-0.38045c0.38045,-0.12682 0.82431,-0.25363 1.20476,-0.31704c0.7609,-0.19022 1.5218,-0.25363 2.15588,-0.38045c1.26817,-0.19022 2.15588,-0.19022 2.15588,-0.19022c0,0 -0.19022,0 -0.57067,0.12682z" fill="#1a324a"/><path d="M237.70154,118.90341c-0.50727,-0.12682 -1.14135,-0.25363 -1.77543,-0.38045c-0.63408,-0.12682 -1.33157,-0.25363 -2.02907,-0.31704c-0.69749,-0.12682 -1.39498,-0.19022 -2.02907,-0.25363c-0.63408,-0.06341 -1.26817,-0.12682 -1.77543,-0.12682c-0.50727,-0.06341 -0.95112,-0.06341 -1.26817,-0.06341c-0.31704,0 -0.50727,0 -0.50727,0c0,0 0.19022,0 0.50727,-0.06341c0.31704,-0.06341 0.7609,-0.12682 1.26817,-0.12682c0.25363,0 0.50727,0 0.82431,0c0.31704,0 0.63408,0 0.95112,0c0.69749,0.06341 1.39498,0.12682 2.09247,0.19022c0.69749,0.12682 1.39498,0.25363 2.02907,0.38045c0.63408,0.19022 1.20476,0.31704 1.71202,0.50727c1.01453,0.31704 1.64862,0.63408 1.64862,0.63408c0,0 -0.63408,-0.19022 -1.64862,-0.38045z" fill="#1a324a"/></g></g></g></g></g></svg>