<svg version="1.1" xmlns="http://www.w3.org/2000/svg" xmlns:xlink="http://www.w3.org/1999/xlink" width="552.24999" height="373" viewBox="0,0,552.24999,373"><g transform="translate(64.55554,7.56598)"><g data-paper-data="{&quot;isPaintingLayer&quot;:true}" fill-rule="nonzero" stroke-linecap="butt" stroke-linejoin="miter" stroke-miterlimit="10" stroke-dasharray="" stroke-dashoffset="0" style="mix-blend-mode: normal"><path d="M-9.30555,365.43402v-373h497v373z" fill="#f3c566" stroke="none" stroke-width="0"/><text transform="translate(37.18751,52.5) scale(0.625,0.625)" font-size="40" xml:space="preserve" fill="#ffffff" fill-rule="nonzero" stroke="none" stroke-width="1" stroke-linecap="butt" stroke-linejoin="miter" stroke-miterlimit="10" stroke-dasharray="" stroke-dashoffset="0" font-family="Sans Serif" font-weight="normal" text-anchor="start" style="mix-blend-mode: normal"><tspan x="0" dy="0">Congratulation you just made the </tspan></text><text transform="translate(-64.30554,91.43402) scale(0.5,0.5)" font-size="40" xml:space="preserve" fill="#ffffff" fill-rule="nonzero" stroke="none" stroke-width="1" stroke-linecap="butt" stroke-linejoin="miter" stroke-miterlimit="10" stroke-dasharray="" stroke-dashoffset="0" font-family="Sans Serif" font-weight="normal" text-anchor="start" style="mix-blend-mode: normal"><tspan x="0" dy="0"> </tspan></text><text transform="translate(55.04442,104.50632) scale(1.20886,1.20886)" font-size="40" xml:space="preserve" fill="#ffffff" fill-rule="nonzero" stroke="none" stroke-width="1" stroke-linecap="butt" stroke-linejoin="miter" stroke-miterlimit="10" stroke-dasharray="" stroke-dashoffset="0" font-family="Sans Serif" font-weight="normal" text-anchor="start" style="mix-blend-mode: normal"><tspan x="0" dy="0">Big Head Potion</tspan></text><text transform="translate(6.38885,284.36804) scale(0.5,0.5)" font-size="40" xml:space="preserve" fill="#ffffff" fill-rule="nonzero" stroke="#000000" stroke-width="0" stroke-linecap="butt" stroke-linejoin="miter" stroke-miterlimit="10" stroke-dasharray="" stroke-dashoffset="0" font-family="Sans Serif" font-weight="normal" text-anchor="start" style="mix-blend-mode: normal"><tspan x="0" dy="0">This potion can make</tspan><tspan x="0" dy="46.150000000000006px">your head humungus</tspan></text><text transform="translate(280.85044,353.15103) scale(0.58667,0.58667)" font-size="40" xml:space="preserve" fill="#ffffff" fill-rule="nonzero" stroke="none" stroke-width="1" stroke-linecap="butt" stroke-linejoin="miter" stroke-miterlimit="10" stroke-dasharray="" stroke-dashoffset="0" font-family="Sans Serif" font-weight="normal" text-anchor="start" style="mix-blend-mode: normal"><tspan x="0" dy="0">Click to continue&gt;</tspan></text><g stroke="none" stroke-width="1"><path d="M86.93437,157.70436c0,0 -8.22296,-5.48198 -1.37049,-12.33444c6.85247,-6.85247 54.13448,-6.62405 36.7749,13.47652c0,0 4.79673,57.3323 13.70493,89.99572c2.96941,10.96394 -21.47107,14.6186 -37.91698,13.70493c-20.10057,-1.14208 -23.98363,-6.85247 -21.92789,-13.93334c2.51257,-10.73553 10.50711,-69.20991 10.73553,-90.90938z" fill="#cae8de"/><path d="M80.99557,250.89789c7.3093,-50.47983 5.02515,-66.46892 9.59345,-75.14871c2.9694,-5.71039 23.29838,-5.25356 27.86669,0.22841c3.65465,4.33989 5.48197,46.59677 12.10602,74.23505c2.28415,9.82187 -51.16508,12.10602 -49.56617,0.68524z" fill="#d8ae5b"/><path d="M90.36059,175.74918c0.22841,0 0.22841,-0.22841 0.22841,-0.22841c0.45683,-0.45683 1.14208,-1.14208 1.82733,-1.59891c6.16722,-3.65465 22.15631,-2.74099 26.03937,2.05574c-0.45683,4.56831 -29.23719,2.74099 -28.09511,-0.22841z" fill="#f1c365"/><path d="M130.56174,250.44106c1.37049,9.59345 -46.36835,11.19236 -49.56617,2.05574c-0.68525,-1.14208 -0.91366,-4.56831 22.61314,-6.16722c27.40986,-1.82733 26.95303,4.11148 26.95303,4.11148z" fill="#b28f4b"/><path d="M121.1967,148.1109c0,2.28415 -6.62405,4.56831 -16.90274,4.56831c-10.2787,0 -17.588,-0.91366 -17.588,-3.19782c0,-2.28416 7.53771,-5.25356 17.588,-5.25356c10.05028,0 16.90274,1.59891 16.90274,3.88306z" fill="#b6cfd1"/><path d="M121.1967,148.1109c0,0 0,0.22841 0,0.45683c0,0.22841 -0.22841,0.68525 -0.68524,0.91366c-0.45683,0.22841 -0.91367,0.68525 -1.59891,0.91366c-0.68524,0.22841 -1.37049,0.45684 -2.28415,0.68525c-1.59891,0.45683 -3.65465,0.68525 -5.71039,0.91366c-2.05574,0.22841 -4.3399,0.22842 -6.62405,0.45683c-2.28415,0 -4.56831,0 -6.62405,-0.22842c-2.05574,0 -4.11148,-0.45683 -5.9388,-0.68524c-1.59891,-0.22841 -3.19782,-0.68525 -4.11148,-1.14208c-0.45683,-0.22841 -0.68525,-0.45683 -0.91366,-0.68524c-0.22841,-0.22841 0,-0.45683 0,-0.45683c0,0 0,0.22842 0,0.45683c0.22841,0.22841 0.45683,0.45683 0.91366,0.68524c0.91366,0.45683 2.28415,0.68525 3.88306,0.68525c1.59891,0.22841 3.65465,0.22841 5.71039,0.22841c2.05574,0 4.3399,0 6.62405,0c2.28415,0 4.56831,0 6.62405,-0.22841c2.05574,-0.22841 4.11148,-0.22842 5.71039,-0.68525c1.59891,-0.22841 2.9694,-0.68524 3.88306,-1.14208c0.45683,-0.22841 0.68524,-0.45684 0.68524,-0.68525c0.68524,-0.22841 0.45683,-0.45683 0.45683,-0.45683z" fill="#96b7c4"/><path d="M86.93437,157.70436c0,0 0.91366,0.22841 2.05574,0.68525c1.14208,0.22841 2.9694,0.68525 4.56831,0.91366c0.91366,0.22841 1.59891,0.22842 2.51257,0.45683c0.68525,0.22841 1.59891,0.22842 2.05574,0.45683c1.3705,0.22841 2.05574,0.45683 2.05574,0.45683c0,0 -0.91366,0.22841 -2.05574,0.22841c-1.3705,0 -2.9694,0 -4.79673,-0.22841c-1.82733,-0.22841 -3.42623,-0.91367 -4.56831,-1.59891c-1.14208,-0.91367 -1.82733,-1.37049 -1.82733,-1.37049z" fill="#96b7c4"/><path d="M126.22184,150.62347c0,0 0,0.22842 0,0.91367c0,0.45683 -0.22841,1.37049 -0.68524,2.28415c-0.45683,0.91366 -0.91366,2.05574 -1.82733,2.96941c-0.45683,0.45683 -0.91366,0.91366 -1.37049,1.37049c-0.45683,0.45683 -1.14208,0.91366 -1.59891,1.14208c-0.68524,0.45683 -1.14208,0.68525 -1.82732,0.91366c-0.68524,0.22841 -1.3705,0.45683 -1.82733,0.45683c-0.68524,0 -1.14208,0.22841 -1.82732,0.22841c-0.68525,0 -1.14208,0 -1.59891,0c-0.91366,0 -1.82733,-0.22841 -2.28415,-0.22841c-0.45683,0 -0.91366,-0.22842 -0.91366,-0.22842c0,0 0.22842,0 0.91366,0c0.68525,0 1.37049,0 2.28415,-0.22841c0.45683,0 0.91366,0 1.59891,-0.22841c0.45683,-0.22841 1.14208,-0.22842 1.59891,-0.45683c0.45683,-0.22841 1.14208,-0.45683 1.82733,-0.68525c0.45683,-0.22841 1.14208,-0.45683 1.59891,-0.91366c0.45683,-0.45683 1.14208,-0.68525 1.59891,-1.14208c0.45683,-0.45683 0.91366,-0.91367 1.37049,-1.14208c0.68524,-0.91366 1.37049,-1.82732 1.82732,-2.74098c0.91367,-0.91367 1.14208,-2.28416 1.14208,-2.28416z" fill="#96b7c4"/><path d="M85.79229,149.4814c0,0 -0.22841,0.22842 -0.22841,0.91366c0,0.22841 0,0.68525 0.22841,0.91366c0.22841,0.45683 0.68525,0.68525 1.14208,0.91366c0.45683,0.22841 0.91366,0.45683 1.59891,0.68525c0.45683,0.22841 1.14208,0.22841 1.82733,0.45683c1.3705,0.22841 2.74098,0.45683 4.11148,0.68525c0.68525,0.22841 1.37049,0.22842 2.05574,0.22842c0.68525,0.22841 1.37049,0.22841 2.05574,0.22841c1.3705,0 2.51258,0.22841 3.65465,0.22841c2.05574,0.22841 3.65465,0.22841 3.65465,0.22841c0,0 -1.37049,0.22842 -3.65465,0.45683c-1.14208,0 -2.28416,0 -3.65465,0c-0.68525,0 -1.37049,0 -2.05574,0c-0.68525,0 -1.37049,0 -2.28415,-0.22842c-1.3705,-0.22841 -2.9694,-0.45683 -4.3399,-0.91366c-0.68525,-0.22841 -1.3705,-0.45684 -1.82733,-0.68525c-0.68525,-0.22841 -1.14208,-0.68525 -1.59891,-0.91366c-0.45683,-0.45683 -0.68524,-0.91366 -0.91366,-1.14208c-0.22841,-0.45683 -0.22842,-0.91366 -0.22842,-1.14208c0.22841,-0.68525 0.45683,-0.91366 0.45683,-0.91366z" fill="#ffffff"/><path d="M94.47206,232.39624c0,0 0.22841,0 0.68524,0c0.45683,0 1.14208,0.22841 1.59891,0.68524c0.22841,0.22841 0.45683,0.68525 0.45683,1.14208v0.45683v0.22841c0,0.22841 -0.22841,0.45683 -0.22841,0.68525c-0.45683,0.91366 -1.3705,1.37049 -2.28416,1.59891c-0.45683,0 -1.14208,0 -1.59891,-0.22841c-0.45683,-0.22841 -0.91366,-0.68525 -1.14207,-1.14208c-0.22841,-0.45683 -0.45683,-0.91366 -0.22842,-1.37049c0,-0.45683 0.22842,-0.91367 0.45683,-1.14208c0.45683,-0.68524 1.14208,-0.68524 1.59891,-0.91366c0.45683,0 0.68525,0 0.68525,0zM94.47206,232.39624c0,0 -0.22841,0 -0.45683,0.22841c-0.22841,0.22841 -0.68525,0.68524 -0.91367,1.14207c0,0.22841 -0.22841,0.45684 -0.22841,0.68525c0,0.22841 0,0.68525 0.22841,0.91366c0,0.22841 0.22842,0.45683 0.68525,0.68525c0.22841,0.22841 0.68525,0.45683 0.91366,0.45683c0.45683,0 0.91367,0 1.14208,-0.22841c0.22841,-0.22841 0.45683,-0.68525 0.68524,-0.91366c0,-0.22841 0,-0.68525 0,-0.91366c0,-0.22841 -0.22841,-0.45684 -0.22841,-0.68525c-0.22841,-0.45683 -0.68525,-0.91366 -0.91366,-1.14207c-0.68524,-0.22841 -0.91366,-0.22841 -0.91366,-0.22841z" fill="#abe2ff"/><path d="M122.33878,226.0006c0,0 0,0.45683 -0.45683,1.14208c-0.22841,0.22841 -0.22842,0.22842 -0.45683,0.22842c-0.22841,0 -0.45683,0 -0.68525,0c-0.68524,-0.22841 -1.14207,-0.68525 -1.14207,-1.3705c0,-0.22841 0,-0.68525 0.22841,-0.91366c0.22841,-0.22841 0.45683,-0.45683 0.68524,-0.45683c0.45683,-0.22841 1.14208,0 1.3705,0.45683c0.45683,0.45683 0.45683,0.91366 0.45683,0.91366zM122.33878,226.0006v0c0,-0.45683 -0.22841,-0.68525 -0.45683,-0.68525c-0.22841,0 -0.68525,0 -0.91367,0.22842l-0.22841,0.22841c0,0.22841 0,0.22841 0,0.45683c0,0.22841 0,0.45683 0.22841,0.68525c0,0 0.22842,0.22841 0.45683,0.22841c0.22841,0 0.22842,0 0.45683,0c0.45683,-0.68525 0.45683,-1.14208 0.45683,-1.14208z" fill="#abe2ff"/><path d="M117.31364,227.59951c0,0 -0.45683,0.22841 -1.14207,0.68524c-0.91366,0.45683 -2.28416,0.68524 -3.88307,0.22841c-0.91366,-0.22841 -1.59891,-0.68525 -2.28415,-1.3705c-0.22841,-0.22841 -0.22842,-0.45683 -0.45683,-0.68525c0,-0.22841 -0.22841,-0.45683 -0.22841,-0.68524c-0.22841,-0.45683 -0.22842,-0.91366 -0.45684,-1.37049c-0.22841,-2.05574 0.45684,-4.33989 2.28416,-5.71039c0.68525,-0.68524 1.82732,-1.14208 2.9694,-1.14208c1.14208,0 2.28416,0.22841 3.19782,0.68524c0.91367,0.45683 1.82733,1.3705 2.05574,2.28416c0.45683,0.91366 0.68525,1.82732 0.68525,2.74098c0,1.82733 -0.91366,2.9694 -1.59891,3.65465c-0.68524,0.45683 -1.14208,0.68525 -1.14208,0.68525zM117.08522,227.59951c0,0 0,0 0.22841,-0.22842c0.22841,-0.22841 0.45684,-0.45684 0.68525,-0.68525c0.45683,-0.68524 0.91366,-2.05574 0.68524,-3.42623c0,-0.68525 -0.22841,-1.3705 -0.68524,-2.05574c-0.45683,-0.68524 -0.91366,-1.3705 -1.82733,-1.82733c-0.45683,-0.68525 -1.37049,-0.91367 -2.28416,-0.91367c-0.91366,0 -1.82732,0.22842 -2.74098,0.68525c-0.91366,0.45683 -1.59891,1.37049 -1.82733,2.28415c-0.45683,0.91366 -0.45683,2.05574 0,2.74099c0.22841,0.91366 0.68524,1.59891 1.37049,2.28415c0.45683,0.68525 1.14208,0.91367 1.82733,1.3705c1.37049,0.68524 2.74099,0.68524 3.42624,0.22841c0.45683,-0.22841 0.68525,-0.22841 0.91366,-0.45683c0.22841,0 0.22841,0 0.22841,0z" fill="#abe2ff"/><path d="M108.86226,213.43775c0,0 -0.22841,0.22841 -0.68524,0.22841c-0.45683,0.22841 -1.14208,0.45683 -2.05574,0.22841c-0.45683,-0.22841 -0.91367,-0.45683 -1.14208,-0.91366c0,-0.22841 -0.22841,-0.22842 -0.22841,-0.45683c0,0 0,-0.22841 0,-0.45683c0,-0.22841 0,-0.45684 0,-0.91367c0,-1.14208 0.45683,-2.05573 1.3705,-2.9694c0.45683,-0.45683 1.14208,-0.68525 1.59891,-0.68525c0.68525,0 1.14208,0.22841 1.59891,0.45683c0.45683,0.22841 0.91366,0.91367 1.14208,1.3705c0.22841,0.45683 0.22841,1.14208 0.22841,1.59891c-0.22841,0.91367 -0.68525,1.3705 -1.14208,1.82733c-0.45683,0.45683 -0.68525,0.68525 -0.68525,0.68525zM108.86226,213.20933c0,0 0.22842,0 0.45684,-0.45683c0.22841,-0.22841 0.45683,-0.91367 0.45683,-1.59891c0,-0.22841 -0.22841,-0.68524 -0.22841,-0.91366c-0.22841,-0.45683 -0.45684,-0.68525 -0.68525,-0.91366c-0.22841,-0.22841 -0.68525,-0.45683 -1.14208,-0.45683c-0.45683,0 -0.91366,0 -1.37049,0.22842c-0.45683,0.22841 -0.91367,0.45684 -1.14208,0.91366c-0.22841,0.45683 -0.22841,0.91366 0,1.37049c0,0.45683 0.45684,0.68525 0.68525,0.91367c0.22841,0.22841 0.45683,0.45683 0.68525,0.68525c0.45683,0.45683 1.14208,0.45683 1.59891,0.45683c0.45683,0 0.68524,-0.22842 0.68524,-0.22842z" fill="#abe2ff"/><path d="M102.0098,191.05302c0,0 0,0.68525 -0.68525,1.37049c-0.22841,0.22841 -0.45683,0.22842 -0.68524,0.45683c-0.22841,0 -0.68525,0 -0.91366,0c-0.68525,-0.22841 -1.3705,-0.91366 -1.3705,-1.82733c0,-0.45683 0.22842,-0.91367 0.45684,-1.14208c0.22841,-0.22841 0.68525,-0.45683 0.91366,-0.68524c0.68525,-0.22841 1.37049,0 1.59891,0.45683c0.91366,0.68525 0.68525,1.3705 0.68525,1.3705zM102.0098,191.05302c0,0 0,-0.22842 0,-0.45684c0,-0.22841 -0.22842,-0.68525 -0.68525,-0.68525c-0.45683,-0.22841 -0.91366,-0.22841 -1.14208,0.22841c-0.22841,0.22841 -0.22841,0.22842 -0.45683,0.45683c0,0.22841 -0.22842,0.22842 -0.22842,0.45684c0,0.45683 0.22842,0.68524 0.45683,0.91366c0.22841,0.22841 0.45684,0.22842 0.68525,0.22842c0.22841,0 0.45683,0 0.68524,0c0.45683,-0.22841 0.68525,-0.45683 0.68525,-0.68525c0,-0.22841 0,-0.45683 0,-0.45683z" fill="#abe2ff"/><path d="M96.2994,228.51317c0,0 -0.68525,-0.22841 -0.91366,-1.14208c0,-0.22841 0,-0.45683 0,-0.91366c0,-0.22841 0.22842,-0.68524 0.45683,-0.91366c0.45683,-0.45683 1.37049,-0.68525 2.05574,-0.45683c0.22841,0.22841 0.68525,0.45683 0.91366,0.91366c0.22841,0.45683 0.22841,0.68524 0.22841,1.14207c-0.22841,0.68525 -0.68525,1.14208 -1.14208,1.3705c-1.14208,0.45683 -1.59891,0 -1.59891,0zM96.2994,228.51317c0,0 0.22841,0 0.45683,0c0.22841,0 0.68525,0 0.91366,-0.22841c0.22841,-0.22841 0.45683,-0.68525 0.45683,-1.14208c0,-0.22841 -0.22841,-0.45683 -0.22841,-0.45683c-0.22841,-0.22841 -0.22842,-0.22841 -0.45683,-0.22841c-0.22841,-0.22841 -0.68525,-0.22841 -1.14208,0c-0.22841,0 -0.45683,0.22841 -0.45683,0.45683c-0.22841,0 -0.22842,0.22842 -0.22842,0.45683c0,0.45683 0.22842,0.68525 0.45683,0.91366c0,0.22841 0.22841,0.22841 0.22841,0.22841z" fill="#abe2ff"/><path d="M92.41634,165.01365c0,0 0,1.14208 0,3.42623c0,2.28415 0,5.25356 0,9.13662c-0.22841,3.65465 -0.22841,8.22296 -0.45683,12.79127c-0.22841,4.79673 -0.68525,9.59345 -1.14208,14.61859c-0.45683,5.02514 -0.91366,10.05028 -1.59891,14.61859c-0.68525,4.56831 -1.3705,8.90821 -1.82733,12.79127c-0.45683,3.65465 -1.14208,6.85247 -1.59891,8.90821c-0.45683,2.05574 -0.68525,3.42624 -0.68525,3.42624c0,0 0,-1.14208 0.22841,-3.42624c0.22841,-2.28415 0.45683,-5.25356 0.68525,-9.13662c0.68525,-7.53771 1.59891,-17.35958 2.51258,-27.40986c0.91366,-10.05028 1.82732,-19.87215 2.51257,-27.40986c0.45683,-3.65465 0.68525,-6.85247 0.91367,-9.13662c0.22841,-2.05574 0.45683,-3.19782 0.45683,-3.19782z" fill="#ffffff"/><path d="M103.6087,262.54708c0,0 1.59891,0 4.3399,-0.45683c2.74099,-0.22841 6.85246,-0.91366 11.42077,-1.82733c2.28415,-0.45683 4.79673,-1.14208 7.3093,-2.05574c2.51257,-0.91367 5.25356,-2.28416 7.08088,-4.3399c0.91367,-1.14208 1.37049,-2.51257 1.14208,-3.88306c-0.22841,-1.3705 -0.68525,-2.9694 -1.14208,-4.56831c-0.68524,-2.9694 -1.59891,-6.16722 -2.05574,-9.36504c-2.51257,-12.56285 -4.33989,-25.35413 -5.48198,-34.94758c-1.14208,-9.59345 -1.59891,-15.98909 -1.59891,-15.98909c0,0 0.68525,6.39564 2.28416,15.98909c0.68524,4.79673 1.59891,10.2787 2.51257,16.2175c0.91367,5.9388 2.05574,12.33444 3.42623,18.50166c0.68524,3.19782 1.3705,6.16722 2.05574,9.36504c0.45683,1.59891 0.91366,2.9694 1.14208,4.56831c0.22841,1.59891 -0.45683,3.42623 -1.3705,4.56831c-2.05574,2.51257 -5.02514,3.65465 -7.53771,4.56831c-2.74099,0.91367 -5.25356,1.3705 -7.53771,1.82733c-4.79673,0.91367 -8.67979,1.14208 -11.64919,1.3705c-2.74099,0.45683 -4.3399,0.45683 -4.3399,0.45683z" fill="#96b7c4"/><path d="M104.75079,258.20719c0,0 5.02514,-0.22841 12.33444,-1.37049c1.82733,-0.22841 3.88306,-0.68525 5.71039,-1.3705c2.05574,-0.68524 4.11148,-1.37049 5.71039,-2.9694c0.68524,-0.68524 1.14208,-1.82733 0.91366,-2.74099c-0.22841,-1.14208 -0.45683,-2.28415 -0.68525,-3.65465c-0.45683,-2.28415 -0.91366,-4.79673 -1.37049,-7.3093c-0.91366,-4.79673 -1.59891,-9.82187 -2.28416,-14.39017c-0.68524,-4.56831 -1.14208,-8.90821 -1.37049,-12.56285c-0.22841,-3.65465 -0.45683,-6.85247 -0.68525,-8.90821c-0.22841,-2.05574 -0.22841,-3.42623 -0.22841,-3.42623c0,0 0.45683,5.02514 1.37049,12.33444c0.91367,7.3093 2.28416,17.13116 4.11148,26.95303c0.45683,2.51257 0.91366,4.79673 1.37049,7.3093c0.22841,1.14208 0.45683,2.28415 0.68525,3.65465c0.22841,1.3705 -0.22841,2.74099 -1.14208,3.65465c-1.82733,1.82733 -4.11148,2.51257 -6.16722,3.19782c-2.05574,0.68524 -4.11148,0.91366 -5.93881,1.14208c-3.65465,0.45683 -6.85247,0.68525 -8.90821,0.68525c-2.05574,-0.22841 -3.42624,-0.22841 -3.42624,-0.22841z" fill="#547dc6"/><path d="M130.56174,250.44106c0,0 0,-0.22841 -0.22841,-0.45683c-0.22841,-0.22841 -0.45683,-0.45683 -0.91366,-0.68525c-0.45683,-0.22841 -1.14208,-0.45683 -1.82733,-0.68524c-0.68524,-0.22841 -1.59891,-0.45684 -2.28415,-0.68525c-1.82733,-0.22841 -3.88307,-0.45683 -6.16722,-0.68524c-2.28416,-0.22841 -4.79673,-0.22841 -7.08088,-0.22841c-2.51257,0 -4.79673,0 -7.08088,0c-2.28415,0.22841 -4.33989,0.22841 -6.16722,0.22841c-3.65465,0.22841 -6.16722,0.22841 -6.16722,0.22841c0,0 2.51258,-0.45683 6.16722,-0.91366c1.82733,-0.22841 3.88306,-0.45683 6.16722,-0.68525c2.28415,0 4.79673,-0.22841 7.3093,-0.22841c2.51257,0 5.02515,0 7.3093,0.22841c2.28416,0.22841 4.33989,0.68525 6.16722,1.14208c0.91366,0.22841 1.82733,0.45683 2.51257,0.91366c0.68524,0.22841 1.37049,0.68525 1.59891,0.91367c0.45683,0.22841 0.68525,0.68524 0.91366,0.91366c-0.22841,0.45683 -0.22841,0.68525 -0.22841,0.68525z" fill="#547dc6"/><path d="M102.23821,247.92849c0,0 -0.22842,0.22842 -0.68525,0.45683c-0.45683,0.22841 -1.37049,0.68524 -2.51257,0.45683c-0.45683,0 -1.14208,-0.45683 -1.59891,-0.91366c-0.22841,-0.22841 -0.22841,-0.22841 -0.22841,-0.45683c0,-0.22841 -0.22841,-0.22841 -0.22841,-0.45683c-0.22841,-0.22841 -0.22842,-0.68525 -0.22842,-0.91367c-0.22841,-1.37049 0.22842,-2.74098 1.14208,-3.88306c0.45683,-0.45683 1.14208,-0.91366 1.82733,-0.91366c0.68525,-0.22841 1.59891,0 2.28415,0.22841c0.68525,0.22841 1.14208,0.91367 1.59891,1.3705c0.45683,0.68525 0.45683,1.14208 0.45683,1.82733c0,1.14208 -0.68525,2.05574 -0.91366,2.51257c-0.68525,0.45683 -0.91366,0.68524 -0.91366,0.68524zM102.23821,247.70007c0,0 0.22841,-0.22841 0.45683,-0.68524c0.22841,-0.45683 0.45683,-1.37049 0.22841,-2.28416c-0.22841,-0.45683 -0.22841,-0.91366 -0.45683,-1.14208c-0.22841,-0.45683 -0.68525,-0.68525 -1.14208,-0.91367c-0.45683,-0.22841 -0.91366,-0.45683 -1.59891,-0.45683c-0.68525,0 -1.14208,0.22841 -1.59891,0.45683c-0.45683,0.22841 -0.91366,0.91367 -1.14208,1.3705c-0.22841,0.68524 -0.22841,1.14208 0.22841,1.82732c0.22841,0.45683 0.68525,0.91367 0.91366,1.14208c0.45683,0.22841 0.68525,0.45683 1.14208,0.68524c0.68525,0.45683 1.59891,0.45683 2.28416,0.22841c0.45683,0 0.68525,-0.22841 0.68525,-0.22841z" fill="#abe2ff"/><path d="M122.5672,251.12631c0,0 -0.45683,0.22842 -1.14208,0.68525c-0.91367,0.45683 -2.28416,0.68524 -3.88307,0.22841c-0.91367,-0.22841 -1.59891,-0.68525 -2.28416,-1.37049c-0.22841,-0.22841 -0.22841,-0.45683 -0.45683,-0.68525c0,-0.22841 -0.22841,-0.45683 -0.22841,-0.68525c-0.22841,-0.45683 -0.22842,-0.91367 -0.45684,-1.3705c-0.22841,-2.05574 0.45684,-4.33989 2.28416,-5.71039c0.68524,-0.68525 1.82732,-1.14208 2.9694,-1.14208c1.14208,0 2.28415,0.22842 3.19782,0.68525c0.91367,0.45683 1.82733,1.37049 2.05574,2.28415c0.45683,0.91366 0.68525,1.82733 0.68525,2.74099c0,1.82733 -0.91367,2.9694 -1.59891,3.65465c-0.68524,0.45683 -1.14208,0.68525 -1.14208,0.68525zM122.33878,251.12631c0,0 0,0 0.22841,-0.22841c0.22841,-0.22841 0.45683,-0.45683 0.68525,-0.68525c0.45683,-0.68524 0.91366,-2.05574 0.68525,-3.42623c0,-0.68524 -0.22842,-1.3705 -0.68525,-2.05574c-0.45683,-0.68524 -0.91366,-1.37049 -1.82733,-1.82732c-0.68524,-0.45683 -1.59891,-0.68525 -2.51257,-0.68525c-0.91367,0 -1.82732,0.22842 -2.74098,0.68525c-0.91367,0.45683 -1.59891,1.37049 -1.82733,2.28415c-0.45683,0.91367 -0.45683,2.05574 0,2.74099c0.22841,0.91367 0.68524,1.59891 1.37049,2.28416c0.45683,0.68524 1.14208,0.91367 1.82733,1.3705c1.3705,0.68524 2.74099,0.68524 3.42624,0.22841c0.45683,-0.22841 0.68525,-0.22842 0.91367,-0.45683c0.45683,-0.22841 0.45683,-0.22841 0.45683,-0.22841z" fill="#abe2ff"/></g><g stroke="none" stroke-width="1"><g><path d="M319.61476,316.01493c0,0 3.46108,3.66076 5.45786,4.59259c1.99678,0.93183 3.12829,3.927 0.79871,4.72571c-2.66237,0.86527 -14.64305,-0.3328 -16.97263,-4.39291c-2.26302,-4.12668 4.85883,-9.91734 10.71605,-4.92539z" fill="#382a1e"/><path d="M319.61476,314.81687c0,0 2.86205,3.66076 4.85883,4.59259c1.99678,0.93183 4.06012,4.19324 1.33119,4.72571c-2.72893,0.46592 -14.64305,-0.3328 -16.97263,-4.39291c-2.26302,-4.12668 4.85883,-9.91734 10.78261,-4.92539z" fill="#4d3a29"/><path d="M322.0109,318.54419c-0.13312,0.06656 -0.26624,0.19968 -0.39936,0.3328c-0.19968,0.13312 -0.3328,0.26624 -0.46592,0.39936c-0.26624,0.26624 -0.53247,0.59903 -0.79871,0.79871c-0.19968,0.19968 -0.39936,0.3328 -0.39936,0.3328c0,0 0.06656,-0.26624 0.19968,-0.53247c0.19968,-0.3328 0.39936,-0.66559 0.73215,-0.99839c0.3328,-0.3328 0.73215,-0.59903 1.06495,-0.66559c0.13312,-0.06656 0.3328,0 0.39936,0c0.06656,0 0.13312,0.06656 0.13312,0.06656c0,0 -0.19968,0 -0.46592,0.26624z" fill="#382a1e"/><path d="M320.67971,317.213c-0.13312,0.06656 -0.26624,0.19968 -0.39936,0.3328c-0.19968,0.13312 -0.3328,0.26624 -0.46592,0.39936c-0.26624,0.26624 -0.53247,0.59903 -0.79871,0.79871c-0.19968,0.19968 -0.39936,0.3328 -0.39936,0.3328c0,0 0.06656,-0.26624 0.19968,-0.53247c0.19968,-0.3328 0.39936,-0.66559 0.73215,-0.99839c0.3328,-0.3328 0.73215,-0.59903 1.06495,-0.66559c0.13312,-0.06656 0.3328,0 0.39936,0c0.06656,0 0.13312,0.06656 0.13312,0.06656c0,0 -0.26624,-0.06656 -0.46592,0.26624z" fill="#382a1e"/></g><g><g><path d="M337.18642,313.88504c0,0 3.46108,3.66076 5.45786,4.59259c1.99678,0.93183 3.12829,3.927 0.79871,4.72571c-2.66237,0.86527 -14.64305,-0.3328 -16.97263,-4.39291c-2.32958,-4.06012 4.79227,-9.85078 10.71605,-4.92539z" fill="#382a1e"/><path d="M337.11986,312.68697c0,0 2.86205,3.66076 4.85883,4.59259c1.99678,0.93183 4.06012,4.19324 1.33119,4.72571c-2.72893,0.46592 -14.64305,-0.3328 -16.97263,-4.39291c-2.26302,-4.12668 4.92539,-9.85078 10.78261,-4.92539z" fill="#4d3a29"/><path d="M339.516,316.48085c-0.13312,0.06656 -0.26624,0.19968 -0.39936,0.3328c-0.19968,0.13312 -0.3328,0.26624 -0.46592,0.39936c-0.26624,0.26624 -0.53247,0.59903 -0.79871,0.79871c-0.19968,0.19968 -0.39936,0.3328 -0.39936,0.3328c0,0 0.06656,-0.26624 0.19968,-0.53247c0.19968,-0.3328 0.39936,-0.66559 0.73215,-0.99839c0.3328,-0.3328 0.73215,-0.59903 1.06495,-0.66559c0.13312,-0.06656 0.3328,0 0.39936,0c0.06656,0 0.13312,0.06656 0.13312,0.06656c0,0 -0.19968,-0.06656 -0.46592,0.26624z" fill="#382a1e"/><path d="M338.18481,315.0831c-0.13312,0.06656 -0.26624,0.19968 -0.39936,0.3328c-0.19968,0.13312 -0.3328,0.26624 -0.46592,0.39936c-0.26624,0.26624 -0.53247,0.59903 -0.79871,0.79871c-0.19968,0.19968 -0.39936,0.3328 -0.39936,0.3328c0,0 0.06656,-0.26624 0.19968,-0.53247c0.19968,-0.3328 0.39936,-0.66559 0.73215,-0.99839c0.3328,-0.3328 0.73215,-0.59903 1.06495,-0.66559c0.13312,-0.06656 0.3328,0 0.39936,0c0.06656,0 0.13312,0.06656 0.13312,0.06656c0,0 -0.26624,0 -0.46592,0.26624z" fill="#382a1e"/></g><path d="M335.12308,314.61719c0,0 -3.99356,1.86366 -9.05207,0.59903l-0.59903,-15.10896l10.64949,1.73054z" fill="#382a1e"/></g><g><g><path d="M315.48808,313.21944l8.31991,-10.11702l15.24208,-1.13151l5.7241,10.38325l-3.66076,5.25819l-6.72249,1.39775l-0.26624,-9.45142l-10.38325,2.39614l-1.4643,7.45464z" fill="#1c3752"/><path d="M341.17998,225.7605c0,0 3.79388,5.85722 4.12668,22.82985c0.3328,16.97263 3.26141,58.77188 7.5212,64.96189c0,0 -1.66398,8.45303 -16.97263,6.19002c-6.19002,-0.93183 10.31669,-3.46108 5.52442,-6.65593c-4.79227,-3.19485 -23.89479,2.46269 -20.23403,4.85883c3.66076,2.46269 -1.99678,4.59259 -12.44659,3.19485c-10.44981,-1.39775 -11.98068,1.4643 -17.37198,0.53247c-10.78261,-1.86366 -7.65432,-6.98873 -7.65432,-6.98873c0,0 7.854,-7.18841 8.91895,-20.23403c1.06495,-13.04563 10.38325,-64.89533 16.97263,-69.08857c7.45464,-4.79227 23.69512,-8.71927 31.61568,0.39936z" fill="#3f3f74"/><path d="M341.51278,311.8217c-0.3328,-1.39775 -0.79871,-3.39453 -1.33119,-5.85722c-0.46592,-2.46269 -1.06495,-5.32475 -1.59742,-8.38647c-0.53247,-3.06173 -1.06495,-6.32314 -1.53086,-9.6511c-0.19968,-1.66398 -0.46592,-3.26141 -0.59903,-4.92539c-0.13312,-1.66398 -0.3328,-3.26141 -0.46592,-4.79227c-0.13312,-1.53086 -0.26624,-2.99517 -0.3328,-4.45947c-0.06656,-1.4643 -0.19968,-2.79549 -0.19968,-4.06012c0,-1.26463 -0.06656,-2.39614 -0.06656,-3.39453c0,-0.99839 0.06656,-1.86366 0.06656,-2.59581c0.06656,-1.39775 0.06656,-2.26302 0.06656,-2.26302c0,0 0,0.79871 0,2.26302c0.06656,0.73215 0,1.59742 0.06656,2.59581c0,0.99839 0.06656,2.1299 0.13312,3.39453c0.06656,1.19807 0.19968,2.59581 0.26624,3.99356c0.06656,1.39775 0.26624,2.92861 0.39936,4.45947c0.13312,1.59742 0.3328,3.19485 0.53247,4.79227c0.13312,1.59742 0.39936,3.26141 0.59903,4.92539c0.46592,3.26141 0.93183,6.58937 1.4643,9.6511c0.46592,3.06173 0.99839,5.92378 1.4643,8.38647c0.53247,2.46269 0.86527,4.52603 1.19807,5.92378c0.26624,1.4643 0.46592,2.26302 0.46592,2.26302c0,0 -0.19968,-0.86527 -0.59903,-2.26302z" fill="#1a324a"/><path d="M320.94595,312.42073c0.13312,-1.39775 0.19968,-2.99517 0.3328,-4.72571c0.13312,-1.73054 0.19968,-3.5942 0.3328,-5.45786c0.13312,-1.86366 0.26624,-3.72732 0.3328,-5.45786c0.06656,-1.73054 0.13312,-3.32797 0.19968,-4.72571c0,-0.66559 0.06656,-1.33119 0.06656,-1.86366c0,-0.59903 0,-1.06495 0,-1.4643c0,-0.79871 0,-1.26463 0,-1.26463c0,0 0,0.46592 0.06656,1.26463c0.06656,0.39936 0.06656,0.93183 0.06656,1.4643c0,0.59903 0,1.26463 0,1.93022c0,1.39775 0,2.99517 -0.06656,4.72571c-0.06656,1.73054 -0.13312,3.5942 -0.26624,5.45786c-0.13312,1.86366 -0.26624,3.72732 -0.39936,5.45786c-0.13312,1.73054 -0.3328,3.32797 -0.46592,4.72571c-0.26624,2.72893 -0.53247,4.59259 -0.53247,4.59259c0,0 0.13312,-1.86366 0.3328,-4.65915z" fill="#1a324a"/><path d="M310.56269,231.35148c-0.13312,0.13312 -0.26624,0.39936 -0.46592,0.73215c-0.19968,0.3328 -0.39936,0.73215 -0.59903,1.19807c-0.19968,0.53247 -0.39936,1.06495 -0.59903,1.66398c-0.19968,0.59903 -0.39936,1.26463 -0.59903,1.99678c-0.19968,0.73215 -0.39936,1.4643 -0.59903,2.26302c-0.13312,0.79871 -0.39936,1.59742 -0.53247,2.39614c-0.13312,0.86527 -0.3328,1.66398 -0.46592,2.52925c-0.13312,0.86527 -0.3328,1.73054 -0.46592,2.52925c-0.13312,0.86527 -0.26624,1.66398 -0.39936,2.46269c-0.26624,1.59742 -0.46592,3.06173 -0.66559,4.32636c-0.3328,2.59581 -0.59903,4.2598 -0.59903,4.2598c0,0 0.13312,-1.73054 0.39936,-4.2598c0.06656,-0.66559 0.19968,-1.33119 0.26624,-2.06334c0.13312,-0.73215 0.19968,-1.53086 0.3328,-2.32958c0.19968,-1.59742 0.46592,-3.32797 0.79871,-4.99195c0.13312,-0.86527 0.3328,-1.73054 0.53247,-2.52925c0.19968,-0.79871 0.39936,-1.59742 0.59903,-2.39614c0.19968,-0.79871 0.46592,-1.53086 0.66559,-2.26302c0.19968,-0.73215 0.39936,-1.39775 0.66559,-1.99678c0.13312,-0.3328 0.19968,-0.59903 0.3328,-0.86527c0.13312,-0.26624 0.19968,-0.46592 0.3328,-0.73215c0.26624,-0.46592 0.46592,-0.86527 0.66559,-1.19807c0.19968,-0.26624 0.39936,-0.53247 0.53247,-0.66559c0.13312,-0.13312 0.19968,-0.19968 0.19968,-0.19968c0,0 -0.13312,0.06656 -0.3328,0.13312z" fill="#1a324a"/><path d="M329.99801,231.41804c0.06656,0.13312 0.26624,0.3328 0.46592,0.59903c0.19968,0.26624 0.39936,0.59903 0.66559,0.99839c0.19968,0.39936 0.46592,0.79871 0.73215,1.33119c0.26624,0.53247 0.46592,1.06495 0.73215,1.66398c0.19968,0.59903 0.46592,1.26463 0.66559,1.93022c0.19968,0.66559 0.46592,1.33119 0.59903,2.06334c0.06656,0.3328 0.19968,0.73215 0.26624,1.06495l0.19968,1.13151c0.13312,0.73215 0.26624,1.4643 0.3328,2.19646c0.06656,0.3328 0.06656,0.73215 0.13312,1.06495c0,0.3328 0.06656,0.73215 0.06656,1.06495c0.06656,0.66559 0.13312,1.33119 0.13312,1.99678c0,0.59903 0.06656,1.26463 0.06656,1.7971c0.06656,1.13151 0,2.06334 0,2.72893c0,0.59903 0,0.99839 0,0.99839c0,0 -0.06656,-0.3328 -0.06656,-0.99839c-0.06656,-0.66559 -0.06656,-1.59742 -0.13312,-2.72893c-0.06656,-0.53247 -0.06656,-1.13151 -0.13312,-1.7971c-0.06656,-0.66559 -0.13312,-1.33119 -0.19968,-1.99678c-0.06656,-0.3328 -0.06656,-0.73215 -0.13312,-1.06495c0,-0.3328 -0.06656,-0.73215 -0.13312,-1.06495c-0.06656,-0.73215 -0.19968,-1.4643 -0.3328,-2.19646l-0.19968,-1.06495c-0.13312,-0.3328 -0.19968,-0.73215 -0.26624,-1.06495c-0.13312,-0.73215 -0.3328,-1.39775 -0.53247,-2.06334c-0.19968,-0.66559 -0.39936,-1.33119 -0.59903,-1.93022c-0.19968,-0.59903 -0.39936,-1.13151 -0.66559,-1.66398c-0.46592,-1.06495 -0.93183,-1.86366 -1.26463,-2.39614c-0.3328,-0.53247 -0.59903,-0.79871 -0.59903,-0.79871c0,0 0.06656,0.06656 0.19968,0.19968z" fill="#1a324a"/></g><g><path d="M342.31149,225.49426c0,0 1.7971,1.7971 0.13312,2.66237c-4.06012,2.06334 -10.58293,2.79549 -18.96941,2.86205c-8.38647,0 -18.03757,-0.73215 -16.44015,-5.45786c0.46592,-1.33119 1.19807,1.59742 4.32636,2.1299c3.19485,0.53247 19.56844,1.66398 25.15942,-0.26624c5.65754,-1.99678 4.72571,-2.39614 5.79066,-1.93022z" fill="#4d3a29"/><path d="M306.76881,226.29297c0,0.53247 0.13312,1.33119 0.79871,1.93022c0.3328,0.26624 0.79871,0.46592 1.26463,0.66559c0.46592,0.19968 0.99839,0.3328 1.53086,0.53247c1.13151,0.3328 2.26302,0.53247 3.46108,0.73215c1.19807,0.19968 2.39614,0.3328 3.52764,0.39936c1.13151,0.06656 2.1299,0.13312 3.06173,0.19968c1.7971,0.06656 2.99517,0.13312 2.99517,0.13312c0,0 -0.26624,0.06656 -0.79871,0.06656c-0.53247,0.06656 -1.26463,0.06656 -2.19646,0.06656c-0.93183,0 -1.99678,0 -3.12829,-0.06656c-1.13151,-0.06656 -2.32958,-0.13312 -3.52764,-0.3328c-1.19807,-0.13312 -2.39614,-0.46592 -3.46108,-0.79871c-0.53247,-0.13312 -1.06495,-0.39936 -1.53086,-0.59903c-0.46592,-0.19968 -0.93183,-0.46592 -1.26463,-0.79871c-0.3328,-0.3328 -0.53247,-0.73215 -0.59903,-1.13151c-0.06656,-0.39936 -0.06656,-0.73215 -0.06656,-0.99839c0.06656,-0.53247 0.19968,-0.79871 0.19968,-0.79871c0,0 -0.06656,0.26624 -0.26624,0.79871z" fill="#33221b"/><path d="M342.91052,226.42609c0.06656,0.06656 0.13312,0.19968 0.19968,0.3328c0.06656,0.13312 0.13312,0.3328 0.06656,0.59903c-0.06656,0.19968 -0.19968,0.46592 -0.39936,0.66559c-0.19968,0.19968 -0.46592,0.39936 -0.73215,0.53247c-0.26624,0.13312 -0.59903,0.26624 -0.93183,0.39936c-0.66559,0.26624 -1.33119,0.46592 -2.06334,0.66559c-0.66559,0.19968 -1.39775,0.3328 -2.06334,0.46592c-0.66559,0.13312 -1.33119,0.19968 -1.86366,0.26624c-1.06495,0.13312 -1.7971,0.13312 -1.7971,0.13312c0,0 0.73215,-0.19968 1.7971,-0.39936c0.53247,-0.13312 1.13151,-0.26624 1.7971,-0.39936c0.66559,-0.13312 1.39775,-0.26624 2.06334,-0.46592c0.73215,-0.19968 1.39775,-0.39936 2.06334,-0.59903c0.3328,-0.06656 0.59903,-0.19968 0.86527,-0.3328c0.3328,-0.13312 0.53247,-0.26624 0.73215,-0.46592c0.19968,-0.13312 0.3328,-0.3328 0.39936,-0.53247c0.06656,-0.19968 0.06656,-0.39936 0.06656,-0.53247c-0.06656,-0.3328 -0.19968,-0.46592 -0.19968,-0.46592c0,0 0.06656,0 0,0.13312z" fill="#33221b"/></g></g></g><g stroke="none" stroke-width="1"><g><path d="M298.98246,252.02754c0,0 -1.92118,5.19284 -2.49569,6.32141c-0.57451,1.12856 -0.94049,1.76268 -2.1178,1.00634c0,0 -1.04458,1.01096 -2.15304,-0.39729c0,0 -1.53671,0.26582 -2.39021,-0.91843c0,0 -1.60984,-0.00693 -2.03081,-1.94059c-0.23486,-1.05775 0.54817,-2.68075 1.86088,-2.69161l0.90295,-2.6297" fill="#847e87"/><path d="M298.74067,252.57964c0,0 -0.77876,2.54767 -0.68819,4.52118c0.05961,1.49455 -0.97607,2.35694 -1.88491,0.60281" fill="#666168"/><path d="M290.01518,252.3852c-0.05106,0.35478 -0.20194,0.88249 -0.35282,1.41021c-0.1176,0.47007 -0.26848,0.99779 -0.41046,1.37694c-0.04217,0.20621 -0.10871,0.32151 -0.1176,0.47007c-0.0089,0.14856 -0.04217,0.20621 -0.04217,0.20621c0,0 -0.02438,-0.09092 -0.04875,-0.18184c-0.02437,-0.09092 -0.07313,-0.27276 -0.03096,-0.47897c0.05106,-0.35478 0.14429,-0.91576 0.29517,-1.44348c0.15088,-0.52772 0.3594,-1.02216 0.55903,-1.36805c0.19963,-0.34588 0.33271,-0.57647 0.33271,-0.57647c0,0 0.01548,0.23948 -0.18415,0.58537z" fill="#666168"/><path d="M290.9678,257.39228c-0.09981,0.17294 -0.32382,0.4279 -0.5722,0.59195c-0.21511,0.1064 -0.30603,0.13077 -0.48786,0.17952c-0.18184,0.04875 -0.3304,0.03986 -0.44569,-0.02669c-0.26386,-0.07544 -0.34588,-0.19962 -0.34588,-0.19962c0,0 0,0 0.09092,-0.02438c0.05765,0.03327 0.14857,0.0089 0.23948,-0.01548c0.09092,-0.02437 0.21511,-0.1064 0.30602,-0.13078c0.12419,-0.08202 0.21511,-0.1064 0.3393,-0.18842c0.21511,-0.1064 0.40584,-0.30372 0.62095,-0.41012c0.21511,-0.1064 0.3393,-0.18842 0.3393,-0.18842c0,0 -0.00889,0.14857 -0.08433,0.41242z" fill="#666168"/><path d="M293.23381,258.39273c-0.13309,0.23059 -0.35709,0.48555 -0.60547,0.6496c-0.18184,0.04875 -0.3393,0.18842 -0.48786,0.17953c-0.14856,-0.0089 -0.29713,-0.01779 -0.4457,-0.02669c-0.29713,-0.01779 -0.37915,-0.14198 -0.37915,-0.14198c0,0 0,0 0.09092,-0.02437c0.09092,-0.02437 0.18184,-0.04875 0.27276,-0.07313c0.21511,-0.1064 0.43022,-0.2128 0.64532,-0.3192c0.21511,-0.1064 0.46349,-0.27044 0.62095,-0.41011c0.15746,-0.13967 0.28165,-0.22169 0.28165,-0.22169c0,0 -0.0089,0.14856 0.00658,0.38805z" fill="#666168"/><path d="M295.12299,258.71458c-0.04217,0.20621 -0.26617,0.46118 -0.4569,0.65849c-0.19073,0.19732 -0.53003,0.38573 -0.76951,0.40122c-0.09092,0.02437 -0.23948,0.01548 -0.29713,-0.01779c-0.05765,-0.03327 -0.11529,-0.06654 -0.11529,-0.06654c0,0 0,0 0.09092,-0.02438c0.05765,0.03327 0.12419,-0.08202 0.21511,-0.1064c0.18184,-0.04875 0.37257,-0.24607 0.5633,-0.44338c0.19073,-0.19732 0.43911,-0.36136 0.59657,-0.50103c0.15746,-0.13967 0.28165,-0.22169 0.28165,-0.22169c0,0 -0.09981,0.17294 -0.10871,0.3215z" fill="#666168"/><path d="M289.30297,254.81758c-0.06654,0.11529 -0.15746,0.13967 -0.28165,0.22169c-0.12419,0.08202 -0.27276,0.07313 -0.36367,0.0975c-0.14856,-0.0089 -0.23948,0.01548 -0.23948,0.01548c0,0 -0.02438,-0.09092 0.04217,-0.20621c0.06654,-0.11529 0.19073,-0.19732 0.31492,-0.27934c0.18184,-0.04875 0.27276,-0.07313 0.42132,-0.06423c0.14856,0.0089 0.20621,0.04217 0.20621,0.04217c0,0 -0.06654,0.11529 -0.09981,0.17294z" fill="#666168"/><path d="M296.08093,258.65266c0.2329,-0.40353 0.47469,-0.95562 0.71649,-1.50771c0.24179,-0.55209 0.48359,-1.10419 0.65884,-1.54098c0.04217,-0.20621 0.14198,-0.37916 0.20852,-0.49445c0.06654,-0.11529 0.09981,-0.17294 0.09981,-0.17294c0,0 0.03986,0.3304 -0.07775,0.80047c-0.05996,0.50334 -0.24411,1.08871 -0.4859,1.6408c-0.24179,0.55209 -0.54124,1.07092 -0.83178,1.44118c-0.29054,0.37026 -0.53892,0.5343 -0.53892,0.5343c0,0 0.13309,-0.23059 0.25069,-0.70066z" fill="#666168"/></g><g><path d="M305.1543,222.16007c2.73378,1.65467 4.39434,3.30471 4.03228,6.86138c-0.36206,3.55667 -2.97039,7.27703 -4.37009,10.23481c-1.43298,3.01543 -2.29515,13.43047 -2.29515,13.43047c-6.32477,4.03459 -16.30392,-4.10728 -16.30392,-4.10728c0,0 3.99591,-13.44791 10.89622,-24.60472c1.68794,-2.79143 5.07629,-3.60241 8.04066,-1.81466z" fill="#3f3f74"/><path d="M309.16878,229.31858c-0.08433,0.41242 -0.14429,0.91577 -0.32844,1.50113c-0.1265,0.61864 -0.34392,1.26165 -0.62788,2.01995c-0.34161,0.72503 -0.68321,1.45007 -1.05809,2.23275c-0.43253,0.74941 -0.83178,1.44117 -1.28868,2.09966c-0.4569,0.65849 -0.88053,1.25934 -1.29527,1.71162c-0.35709,0.48555 -0.73855,0.88018 -0.96255,1.13515c-0.224,0.25496 -0.38146,0.39463 -0.38146,0.39463c0,0 0.19074,-0.19732 0.35709,-0.48555c0.16636,-0.28824 0.49017,-0.71614 0.84726,-1.20169c0.16636,-0.28824 0.39036,-0.5432 0.55672,-0.83144c0.19963,-0.34588 0.42363,-0.60084 0.62326,-0.94673c0.36598,-0.63412 0.79851,-1.38352 1.19776,-2.07529c0.39926,-0.69176 0.74086,-1.4168 1.08247,-2.14183c0.25069,-0.70066 0.55903,-1.36804 0.74317,-1.95341c0.18415,-0.58537 0.39267,-1.07981 0.44373,-1.43459c0.10871,-0.3215 0.15088,-0.52772 0.15088,-0.52772c0,0 -0.04217,0.20621 -0.05996,0.50334z" fill="#1a324a"/><path d="M303.2451,247.57129l-0.27542,2.60763c-0.07775,0.80047 -0.13112,1.69186 -0.1845,2.58325l0.02438,0.09092l-0.09092,0.02438c-0.37257,0.24607 -0.76951,0.40122 -1.16646,0.55637c-0.39694,0.15515 -0.79389,0.3103 -1.21521,0.37453c-0.45459,0.12188 -0.84264,0.12846 -1.26396,0.1927c-0.23948,0.01548 -0.42132,0.06423 -0.62753,0.02206l-0.59426,-0.03558c-0.41242,-0.08433 -0.85812,-0.11102 -1.27054,-0.19535c-0.41242,-0.08433 -0.82485,-0.16866 -1.204,-0.31065c-0.41242,-0.08433 -0.81595,-0.31723 -1.1951,-0.45921c-0.37915,-0.14198 -0.78268,-0.37488 -1.12856,-0.57451l0.55209,0.24179c0.17294,0.09981 0.34588,0.19963 0.55209,0.24179c0.37915,0.14198 0.7583,0.28396 1.17073,0.3683c0.41242,0.08433 0.82485,0.16867 1.23727,0.253c0.41242,0.08433 0.80047,0.07775 1.24617,0.10443c0.44569,0.02669 0.83374,0.0201 1.25506,-0.04413c0.42132,-0.06423 0.84264,-0.12846 1.20631,-0.22597c0.42132,-0.06423 0.78499,-0.16174 1.18194,-0.31689c0.39694,-0.15515 0.73624,-0.34357 1.07554,-0.53199l-0.09982,0.17294c0.05337,-0.89139 0.10675,-1.78278 0.21777,-2.6409c0.05337,-0.89139 0.16439,-1.74951 0.27541,-2.60763c0.22204,-1.71624 0.47735,-3.49012 0.90561,-5.16419c-0.22204,1.71624 -0.44408,3.43248 -0.5841,5.27291z" fill="#1a324a"/><path d="M294.8512,227.89472c-0.33271,0.57647 -0.74086,1.4168 -1.21556,2.37242c-0.47469,0.95562 -1.02482,2.17511 -1.57495,3.39459c-0.55013,1.21948 -1.10916,2.58752 -1.66819,3.95557c-0.61667,1.33477 -1.11805,2.73609 -1.61054,3.98884c-0.52576,1.3104 -0.98497,2.50551 -1.34437,3.52767c-0.77644,2.01106 -1.27783,3.41237 -1.27783,3.41237c0,0 0.08433,-0.41242 0.26848,-0.99779c0.21742,-0.64301 0.41936,-1.52551 0.77876,-2.54767c0.3594,-1.02216 0.76096,-2.25054 1.1958,-3.53656c0.49249,-1.25275 0.99387,-2.65407 1.55289,-4.02212c0.52576,-1.3104 1.14243,-2.64517 1.72583,-3.9223c0.55013,-1.21948 1.12464,-2.34805 1.69025,-3.32804c0.56561,-0.98 1.05578,-1.69613 1.3885,-2.2726c0.33271,-0.57647 0.55672,-0.83143 0.55672,-0.83143c0,0 -0.16636,0.28823 -0.4658,0.80706z" fill="#1a324a"/></g><g><path d="M298.6685,221.41389c1.02748,-4.7096 17.34448,-24.72556 21.53988,-25.07074c4.52581,-0.38504 9.05519,4.15036 5.98961,10.5271c-2.38236,4.92667 -9.45492,11.9879 -11.82804,14.76812c-2.37312,2.78022 -1.61909,2.13952 -2.77699,4.54521c-1.15791,2.40569 -1.84309,2.39448 -2.69462,2.67151c-0.79389,0.3103 -3.36824,-0.02276 -6.26607,-1.92581c-2.9311,-1.8454 -4.53631,-2.92556 -3.96377,-5.51539z" fill="#3f3f74"/><path d="M299.01172,224.14802c-0.08202,-0.12419 -0.27934,-0.31492 -0.35246,-0.58768c-0.08202,-0.12419 -0.13078,-0.30603 -0.12188,-0.45459c-0.04875,-0.18184 -0.0975,-0.36367 -0.05533,-0.56988c-0.06423,-0.42132 0.0201,-0.83374 0.13771,-1.30381c0.1176,-0.47007 0.26848,-0.99779 0.477,-1.49224c0.20852,-0.49445 0.45032,-1.04654 0.74976,-1.56536c0.24179,-0.55209 0.59888,-1.03764 0.93159,-1.61411c0.33271,-0.57647 0.6898,-1.06202 1.08016,-1.60522c0.39036,-0.5432 0.78072,-1.0864 1.1378,-1.57195c0.44801,-0.50993 0.80509,-0.99548 1.16218,-1.48103c0.41473,-0.45228 0.82947,-0.90456 1.15329,-1.33246c0.32382,-0.4279 0.64763,-0.85581 0.99582,-1.19279c1.27748,-1.41449 2.19787,-2.34342 2.19787,-2.34342c0,0 -0.80509,0.99547 -2.02492,2.44323c-0.29054,0.37026 -0.61436,0.79816 -0.93818,1.22607c-0.35709,0.48555 -0.73855,0.88018 -1.09564,1.36573c-0.32382,0.4279 -0.71417,0.9711 -1.07126,1.45665c-0.41473,0.45228 -0.71418,0.9711 -1.10454,1.5143c-0.35709,0.48555 -0.74745,1.02875 -1.04689,1.54757c-0.33271,0.57647 -0.6898,1.06202 -0.93159,1.61411c-0.29944,0.51882 -0.59888,1.03765 -0.8074,1.53209c-0.29944,0.51882 -0.41705,0.98889 -0.5923,1.42569c-0.1176,0.47007 -0.25959,0.84923 -0.253,1.23727c-0.04217,0.20621 0.00659,0.38805 -0.00231,0.53661c-0.0089,0.14856 -0.01779,0.29713 0.06423,0.42132c0.07313,0.27275 0.2128,0.43022 0.29482,0.55441c0.08202,0.12419 0.13967,0.15746 0.13967,0.15746c0,0 -0.09092,0.02437 -0.12419,0.08202z" fill="#1a324a"/><path d="M314.84233,221.21936c-0.41473,0.45228 -0.92928,1.0775 -1.38618,1.73599c-0.25728,0.31261 -0.54782,0.68287 -0.74745,1.02875c-0.2329,0.40353 -0.43253,0.74941 -0.51686,1.16184c-0.29286,0.90687 -0.72538,1.65628 -1.2732,2.33915c-0.54782,0.68287 -1.20204,1.15063 -1.87174,1.3789c-0.6697,0.22828 -1.23069,0.13505 -1.60984,-0.00693c-0.20621,-0.04217 -0.3215,-0.10871 -0.4368,-0.17525c-0.05765,-0.03327 -0.11529,-0.06654 -0.11529,-0.06654c0,0 0.23059,0.13309 0.58537,0.18415c0.37915,0.14198 0.91576,0.14429 1.52782,-0.11726c0.57878,-0.2039 1.1177,-0.7382 1.63225,-1.36342c0.51455,-0.62522 0.88943,-1.4079 1.11574,-2.19948c0.1176,-0.47007 0.3505,-0.8736 0.5834,-1.27713c0.19963,-0.34588 0.49017,-0.71614 0.74745,-1.02875c0.51455,-0.62522 1.05347,-1.15952 1.50148,-1.66945c0.92039,-0.92894 1.5835,-1.54526 1.5835,-1.54526c0,0 -0.54782,0.68287 -1.31964,1.6207z" fill="#1a324a"/></g></g><g stroke="none" stroke-width="1"><g><path d="M343.86539,251.71863l-0.74013,-2.66237l8.51148,-3.5942c0,0 0.07401,0.39936 0.29605,0.99839c0.29605,0.79871 1.03618,2.52925 1.99835,3.66076c0.88815,1.06495 0.66612,2.1299 -0.66612,1.86366c0,0.06656 0,0.06656 0,0.13312c0.22204,1.26463 0.22204,1.99678 -1.33223,1.99678c0,0 -0.37006,1.39775 -2.22039,0.86527c0,0 -1.25822,1.06495 -2.73847,0.53247c0,0 -0.88815,0.46592 -2.44242,-0.86527c-0.88815,-0.73215 -1.85032,-2.19646 -0.66612,-2.92861z" fill="#847e87"/><g><g><path d="M345.49367,253.04982c-0.22204,-1.06495 0.14803,-1.73054 0.51809,-1.7971c0.96217,-0.13312 1.33223,1.53086 1.77631,2.32958c0.44408,0.79871 0.88815,0.66559 0.88815,0.66559c-1.25822,-1.53086 -0.74013,-3.06173 -0.51809,-3.12829c0.66612,-0.26624 1.03618,0 1.18421,0.26624c-0.14802,-0.86527 0.74013,-1.06495 1.18421,-1.06495c0.88815,0.06656 1.99835,2.92861 1.99835,2.92861c0.07401,0.19968 0.07401,0.53247 0,0.86527c-0.14802,0 -0.37007,0.06656 -0.59211,0.06656c0,0 -0.37006,1.39775 -2.22039,0.86527c0,0 -1.25822,1.06495 -2.73847,0.53247c0,0 -0.88815,0.46592 -2.44242,-0.86527c-0.81414,-0.73215 -1.77631,-2.06334 -0.74013,-2.79549c0.14802,-0.06656 0.29605,-0.06656 0.44408,-0.06656c0.81414,-0.13312 1.1842,0.79871 1.25822,1.19807z" fill="#847e87"/><path d="M352.08082,254.11477c-0.29605,-0.06656 -0.66612,-0.13312 -1.03618,-0.39936c-0.37006,-0.26624 -0.74013,-0.66559 -1.03618,-1.06495c-0.22204,-0.19968 -0.29605,-0.39936 -0.44408,-0.66559c-0.14802,-0.19968 -0.29605,-0.46592 -0.37006,-0.73215c-0.07401,-0.3328 0.14802,-0.66559 0.44408,-0.86527c0.29605,-0.13312 0.5921,-0.26624 0.96216,-0.19968c0.14802,0 0.29605,0.06656 0.44408,0.19968c0.07401,0.13312 0.14802,0.19968 0.22204,0.3328c0.14802,0.19968 0.29605,0.3328 0.37007,0.53247c0.37006,0.73215 0.5921,1.19807 0.5921,1.19807c0,0 -0.29605,-0.39936 -0.81414,-1.06495c-0.14802,-0.19968 -0.29605,-0.3328 -0.44408,-0.53247c-0.22204,-0.19968 -0.29605,-0.3328 -0.51809,-0.3328c-0.14802,0 -0.44408,0.06656 -0.5921,0.19968c-0.14802,0.13312 -0.29605,0.3328 -0.22204,0.46592c0.07401,0.19968 0.22204,0.46592 0.29605,0.66559c0.14802,0.19968 0.22204,0.46592 0.37007,0.66559c0.07401,0.19968 0.22204,0.39936 0.37006,0.59903c0.14802,0.19968 0.29605,0.3328 0.44408,0.46592c0.29605,0.26624 0.5921,0.39936 0.81414,0.46592c0.22204,0.06656 0.37007,0.06656 0.37007,0.06656c0,0 -0.14802,0 -0.22204,0z" fill="#666168"/><path d="M349.12031,251.05304c-0.22204,-0.06656 -0.51809,-0.13312 -0.74013,0c-0.22204,0.06656 -0.37006,0.39936 -0.37006,0.73215c0,0.13312 0.07401,0.3328 0.07401,0.53247c0,0.19968 0.07401,0.39936 0.14802,0.59903c0.07401,0.19968 0.14802,0.3328 0.22204,0.53247c0.07401,0.13312 0.22204,0.3328 0.29605,0.46592c0.29605,0.3328 0.51809,0.53247 0.81414,0.66559c0.22204,0.13312 0.51809,0.19968 0.66612,0.26624c0.22204,0.06656 0.29605,0.06656 0.29605,0.06656v0.26624c0,0 -0.51809,0 -1.18421,-0.26624c-0.37006,-0.13312 -0.66612,-0.39936 -0.96217,-0.73215c-0.14802,-0.13312 -0.29605,-0.3328 -0.37006,-0.53247c-0.14802,-0.19968 -0.22204,-0.39936 -0.29605,-0.59903c-0.07401,-0.19968 -0.14802,-0.39936 -0.14802,-0.59903c0,-0.19968 0,-0.39936 0,-0.59903c0.07401,-0.19968 0.07401,-0.39936 0.22204,-0.59903c0.14802,-0.19968 0.29605,-0.3328 0.51809,-0.39936c0.44408,-0.06656 0.74013,0.06656 0.88815,0.19968c0.14802,0.06656 0.22204,0.19968 0.22204,0.19968c0,0 -0.07401,-0.06656 -0.29605,-0.19968z" fill="#666168"/><path d="M347.78807,255.64563c-0.29605,0 -0.74013,0 -1.25822,-0.26624c-0.29605,-0.13312 -0.51809,-0.26624 -0.66612,-0.53247c-0.14802,-0.19968 -0.29605,-0.53247 -0.37007,-0.79871c-0.14802,-0.53247 -0.37006,-1.13151 -0.37006,-1.7971c0.07401,-0.26624 0,-0.66559 0.37006,-0.99839c0.14802,-0.19968 0.37007,-0.19968 0.59211,-0.19968c0.07401,0 0.14802,0 0.29605,0.06656c0.07401,0 0.22204,0.06656 0.29605,0.13312c0.37006,0.19968 0.44408,0.46592 0.5921,0.73215c0.14802,0.26624 0.22204,0.53247 0.29605,0.73215c0.29605,0.93183 0.37006,1.53086 0.37006,1.53086c0,0 -0.07401,-0.13312 -0.14802,-0.39936c-0.07401,-0.26624 -0.22204,-0.66559 -0.44408,-1.06495c-0.14802,-0.19968 -0.22204,-0.46592 -0.37006,-0.66559c-0.14802,-0.19968 -0.29605,-0.46592 -0.51809,-0.59903c-0.22204,-0.13312 -0.51809,-0.13312 -0.66612,0c-0.14802,0.13312 -0.14802,0.46592 -0.14802,0.73215c0,0.59903 0.14802,1.19807 0.29605,1.73054c0.07401,0.26624 0.14803,0.53247 0.29605,0.73215c0.14802,0.26624 0.37007,0.39936 0.51809,0.53247c0.37006,0.26624 0.81414,0.3328 1.11019,0.3328c0.29605,0 0.44408,0 0.44408,0c0,0 -0.14803,0.06656 -0.51809,0.06656z" fill="#666168"/><path d="M345.27164,252.85014c0,0 -0.07401,-0.13312 -0.29605,-0.26624c-0.07401,-0.06656 -0.14803,-0.19968 -0.29605,-0.26624c-0.07401,-0.06656 -0.22204,-0.13312 -0.37006,-0.19968c-0.07401,0 -0.14802,-0.06656 -0.22204,-0.06656c0,0 -0.07401,0 -0.14803,0c-0.07401,0 -0.22204,0.06656 -0.29605,0.13312c-0.07401,0.06656 -0.14802,0.13312 -0.22204,0.19968c-0.07401,0.06656 -0.07401,0.06656 -0.07401,0.06656c0,0 0,-0.06656 0,-0.13312c0,-0.13312 0,-0.19968 0.07401,-0.3328c0.07401,-0.06656 0.07401,-0.13312 0.14802,-0.19968c0,-0.13312 0.14802,-0.13312 0.22204,-0.19968c0.22204,-0.06656 0.44408,-0.06656 0.66612,0c0.44408,0.13312 0.66612,0.39936 0.88815,0.59903c0.22204,0.19968 0.29605,0.3328 0.29605,0.3328z" fill="#666168"/></g><g><path d="M351.85878,250.52057c-3.55262,-4.32636 -1.33223,-3.66076 -0.44408,-3.86044c0.14802,-0.06656 0.37006,0 0.66612,0.13312c0.37006,0.86527 0.96216,2.32958 1.85032,3.39453c0.88815,1.06495 0.66612,2.1299 -0.66612,1.86366c-0.5921,-0.3328 -0.88815,-0.86527 -1.40624,-1.53086z" fill="#847e87"/><path d="M353.63509,252.05143c-0.14802,0 -0.29605,-0.06656 -0.51809,-0.13312c-0.14802,-0.06656 -0.37006,-0.19968 -0.5921,-0.3328c-0.22204,-0.13312 -0.44408,-0.3328 -0.59211,-0.53247c-0.29605,-0.3328 -0.5921,-0.79871 -0.74013,-1.13151c-0.14802,-0.3328 -0.22204,-0.59903 -0.22204,-0.59903c0,0 0.22204,0.19968 0.44408,0.46592c0.22204,0.26624 0.5921,0.66559 0.88815,0.99839c0.29605,0.39936 0.66611,0.73215 0.96216,0.93183c0.14802,0.13312 0.29605,0.19968 0.37007,0.26624c0.07401,0.06656 0.14802,0.06656 0.14802,0.06656c0,0 -0.07401,0 -0.14802,0z" fill="#666168"/></g></g></g><g><path d="M334.76181,218.03962c3.4786,-0.59903 6.06905,-0.53247 8.51148,2.32958c2.36841,2.86205 3.03453,7.38808 4.07071,10.51637c1.11019,3.19485 8.21543,11.4482 8.21543,11.4482c-2.14637,7.25497 -16.50487,7.98712 -16.50487,7.98712c0,0 -6.80918,-12.64627 -9.54766,-25.55878c-0.74013,-3.19485 1.48026,-6.0569 5.25491,-6.72249z" fill="#3f3f74"/><path d="M343.49533,220.63543c0.22204,0.26624 0.5921,0.73215 0.88815,1.26463c0.29605,0.53247 0.66612,1.19807 0.96217,1.93022c0.29605,0.73215 0.5921,1.53086 0.81414,2.32958c0.22204,0.79871 0.37007,1.59742 0.51809,2.39614c0.14802,0.79871 0.14802,1.53086 0.22204,2.1299c0,0.66559 0,1.19807 0,1.53086c0,0.39936 0,0.59903 0,0.59903c0,0 0,-0.26624 -0.07401,-0.59903c-0.07401,-0.3328 -0.14802,-0.86527 -0.22204,-1.4643c-0.07401,-0.3328 -0.07401,-0.66559 -0.14802,-0.99839c-0.07401,-0.3328 -0.14802,-0.66559 -0.22204,-1.06495c-0.14802,-0.73215 -0.37006,-1.53086 -0.5921,-2.32958c-0.22204,-0.79871 -0.44408,-1.59742 -0.74013,-2.32958c-0.29605,-0.73215 -0.51809,-1.39775 -0.81414,-1.99678c-0.29605,-0.53247 -0.51809,-0.99839 -0.74013,-1.33119c-0.14802,-0.3328 -0.29605,-0.53247 -0.29605,-0.53247c0,0 0.14802,0.19968 0.44408,0.46592z" fill="#1a324a"/><path d="M352.00681,238.00741l1.77631,2.06334c0.5921,0.73215 1.18421,1.39775 1.77631,2.06334l0.07401,0.06656v0.06656c-0.14802,0.39936 -0.29605,0.79871 -0.51809,1.19807c-0.22204,0.3328 -0.44408,0.73215 -0.74013,1.06495c-0.22204,0.3328 -0.5921,0.66559 -0.88815,0.99839c-0.14802,0.19968 -0.37006,0.3328 -0.51809,0.46592l-0.51809,0.39936c-0.37006,0.26624 -0.74013,0.53247 -1.18421,0.73215c-0.44408,0.26624 -0.81414,0.39936 -1.25822,0.59903c-0.44408,0.19968 -0.88815,0.3328 -1.33223,0.46592c-0.44408,0.13312 -0.88815,0.19968 -1.33223,0.3328l0.66612,-0.19968c0.22204,-0.06656 0.44408,-0.13312 0.66612,-0.19968c0.44408,-0.19968 0.88815,-0.3328 1.25822,-0.53247c0.37006,-0.13312 0.81414,-0.3328 1.18421,-0.59903c0.37006,-0.19968 0.74013,-0.46592 1.11019,-0.73215c0.29605,-0.26624 0.66612,-0.53247 0.96217,-0.86527c0.37006,-0.26624 0.66612,-0.59903 0.88815,-0.93183c0.22204,-0.3328 0.44408,-0.73215 0.66612,-1.06495c0.22204,-0.39936 0.44407,-0.73215 0.51809,-1.13151l0.07401,0.19968c-0.5921,-0.66559 -1.18421,-1.33119 -1.77631,-2.06334c-0.5921,-0.73215 -1.1842,-1.39775 -1.70229,-2.1299c-1.11019,-1.4643 -2.14637,-2.92861 -3.10854,-4.45947c1.11019,1.39775 2.22039,2.86205 3.25656,4.19324z" fill="#1a324a"/><path d="M330.61709,229.28814c0.14802,0.59903 0.37007,1.4643 0.74013,2.52925c0.37006,1.06495 0.81414,2.26302 1.25822,3.5942c0.51809,1.33119 1.03618,2.66237 1.62828,4.06012c0.51809,1.33119 1.11019,2.72893 1.70229,3.99356c0.5921,1.26463 1.11019,2.46269 1.55427,3.46108c0.96217,2.06334 1.55427,3.39453 1.55427,3.39453c0,0 -0.22204,-0.3328 -0.51809,-0.93183c-0.29605,-0.59903 -0.74013,-1.39775 -1.25822,-2.39614c-0.51809,-0.99839 -1.11019,-2.19646 -1.70229,-3.46108c-0.5921,-1.26463 -1.18421,-2.59581 -1.77631,-3.99356c-0.5921,-1.33119 -1.11019,-2.72893 -1.55427,-4.06012c-0.44408,-1.26463 -0.81414,-2.52925 -1.11019,-3.5942c-0.29605,-1.06495 -0.44408,-1.93022 -0.5921,-2.59581c-0.14802,-0.66559 -0.14803,-0.99839 -0.14803,-0.99839c0,0 0.07401,0.3328 0.22204,0.99839z" fill="#1a324a"/></g><g><path d="M328.84078,221.90006c-2.66446,-4.19324 -4.36676,-29.95169 -1.11019,-33.01342c3.4786,-3.32797 10.50983,-3.06173 12.80423,3.72732c1.77631,5.25819 1.18421,15.24208 1.33223,18.90285c0.14802,3.66076 0.22204,2.72893 1.11019,5.25819c0.88815,2.52925 0.29605,2.99517 -0.14803,3.79388c-0.44408,0.79871 -2.81249,2.19646 -6.58714,2.79549c-3.77466,0.53247 -5.92103,0.79871 -7.40129,-1.4643z" fill="#224363"/><path d="M330.98716,223.69716c-0.14802,-0.06656 -0.37006,-0.06656 -0.66612,-0.19968c-0.14802,-0.06656 -0.29605,-0.13312 -0.44408,-0.26624c-0.14802,-0.13312 -0.29605,-0.26624 -0.44408,-0.39936c-0.29605,-0.26624 -0.51809,-0.66559 -0.81414,-1.06495c-0.22204,-0.46592 -0.44408,-0.93183 -0.66612,-1.4643c-0.22204,-0.53247 -0.44408,-1.06495 -0.5921,-1.66398c-0.22204,-0.53247 -0.29605,-1.19807 -0.44408,-1.7971c-0.14802,-0.59903 -0.29605,-1.19807 -0.37006,-1.86366c-0.07401,-0.66559 -0.14802,-1.33119 -0.22204,-1.93022c-0.07401,-0.66559 -0.07401,-1.26463 -0.14802,-1.86366c0,-0.59903 -0.07401,-1.19807 -0.07401,-1.73054c-0.07401,-0.53247 -0.07401,-1.06495 -0.07401,-1.53086c0,-1.93022 0.07401,-3.19485 0.07401,-3.19485c0,0 0.14802,1.26463 0.22204,3.19485c0.07401,0.46592 0.07401,0.99839 0.14802,1.53086c0.07401,0.53247 0.07401,1.13151 0.14802,1.73054c0.07401,0.59903 0.14802,1.26463 0.22204,1.86366c0,0.59903 0.07401,1.26463 0.22204,1.86366c0.07401,0.59903 0.14803,1.26463 0.29605,1.86366c0.07401,0.59903 0.22204,1.19807 0.37006,1.7971c0.14802,0.59903 0.29605,1.13151 0.51809,1.66398c0.14802,0.46592 0.37006,0.93183 0.5921,1.39775c0.22204,0.39936 0.44408,0.79871 0.74013,1.06495c0.07401,0.19968 0.22204,0.26624 0.37006,0.39936c0.07401,0.13312 0.22204,0.19968 0.37007,0.26624c0.29605,0.13312 0.51809,0.19968 0.66612,0.19968c0.14802,0 0.22204,0 0.22204,0c0,0 -0.07401,0 -0.22204,0.13312z" fill="#1a324a"/><path d="M341.86705,210.78465c0.07401,0.66559 0.14802,1.4643 0.22204,2.26302c0.07401,0.39936 0.14802,0.86527 0.22204,1.26463c0.07401,0.46592 0.22204,0.86527 0.44408,1.19807c0.44408,0.86527 0.66611,1.73054 0.74013,2.59581c0.07401,0.86527 -0.14802,1.66398 -0.51809,2.26302c-0.37006,0.66559 -0.96217,0.93183 -1.33223,1.13151c-0.14802,0.06656 -0.29605,0.13312 -0.44408,0.13312c-0.07401,0.06656 -0.14803,0.06656 -0.14803,0.06656c0,0 0.22204,-0.06656 0.59211,-0.26624c0.37006,-0.19968 0.81414,-0.53247 1.11019,-1.13151c0.37006,-0.59903 0.44408,-1.33119 0.37006,-2.1299c-0.07401,-0.79871 -0.29605,-1.66398 -0.74013,-2.39614c-0.22204,-0.39936 -0.37006,-0.93183 -0.44408,-1.33119c-0.07401,-0.39936 -0.14802,-0.86527 -0.14802,-1.26463c-0.07401,-0.79871 -0.07401,-1.59742 -0.07401,-2.26302c0,-1.33119 0.14803,-2.19646 0.14803,-2.19646c0,0 0,0.86527 0,2.06334z" fill="#1a324a"/></g></g><g stroke="none" stroke-width="1"><path d="M338.24042,191.34933c5.32893,7.18841 5.99504,34.21149 0.44408,35.94203c-5.55096,1.73054 -9.62167,0.79871 -9.62167,0.79871c-8.80753,3.19485 -24.64628,2.86205 -28.34692,-1.99678c-2.36841,-3.06173 -4.44077,-25.6919 -1.55427,-33.41278c2.8865,-7.72088 11.47199,-10.64949 11.47199,-10.64949c8.28944,-2.52925 22.27787,2.1299 27.60679,9.3183z" fill="#3f3f74"/><path d="M332.83748,225.69394c-0.29605,0.26624 -0.66611,0.66559 -1.1842,1.06495c-0.51809,0.39936 -1.18421,0.86527 -1.92434,1.26463c-0.37006,0.19968 -0.74013,0.3328 -1.1842,0.53247c-0.37006,0.13312 -0.81414,0.3328 -1.25822,0.46592c-0.44408,0.13312 -0.88815,0.3328 -1.33223,0.39936c-0.44408,0.06656 -0.88815,0.19968 -1.33223,0.26624c-0.44408,0.06656 -0.88816,0.13312 -1.25822,0.19968c-0.37006,0 -0.74013,0.06656 -1.11019,0.06656c-0.74013,0.06656 -1.33223,0.06656 -1.70229,0.06656c-0.44408,0 -0.66612,0 -0.66612,0c0,0 0.29605,0 0.66612,-0.06656c0.37006,-0.06656 0.96217,-0.06656 1.62828,-0.19968c0.37006,0 0.74013,-0.06656 1.11019,-0.13312c0.37006,-0.13312 0.74013,-0.19968 1.1842,-0.26624c0.37006,-0.13312 0.81414,-0.19968 1.25822,-0.3328c0.37006,-0.13312 0.81414,-0.26624 1.25822,-0.39936c0.44408,-0.13312 0.81414,-0.3328 1.25822,-0.46592c0.37006,-0.19968 0.81414,-0.3328 1.18421,-0.53247c0.37006,-0.19968 0.74013,-0.3328 1.03618,-0.53247c0.29605,-0.13312 0.5921,-0.3328 0.88815,-0.53247c0.29605,-0.19968 0.51809,-0.39936 0.74013,-0.53247c0.22204,-0.13312 0.37006,-0.26624 0.51809,-0.39936c0.29605,-0.26624 0.44408,-0.39936 0.44408,-0.39936c0,0 -0.14802,0.13312 -0.22204,0.46592z" fill="#1a324a"/><path d="M334.53977,223.16469c-0.66612,0.46592 -1.55427,1.13151 -2.51644,1.66398c-0.96217,0.59903 -1.99835,1.06495 -2.81249,1.33119c-0.22204,0.06656 -0.44408,0.13312 -0.59211,0.13312c-0.14802,0 -0.29605,0.06656 -0.44408,0.06656c-0.22204,0 -0.37006,0 -0.37006,0c0,0 0.14802,0 0.37006,-0.06656c0.14802,0 0.29605,-0.06656 0.44408,-0.13312c0.14802,0 0.29605,-0.13312 0.51809,-0.19968c0.74013,-0.3328 1.70229,-0.86527 2.66446,-1.39775c0.96217,-0.53247 1.85032,-1.13151 2.59045,-1.53086c0.66612,-0.39936 1.18421,-0.66559 1.18421,-0.66559c0,0 -0.37006,0.39936 -1.03618,0.79871z" fill="#1a324a"/><path d="M305.97082,184.82652c-0.37006,0.26624 -0.74013,0.53247 -1.18421,0.86527c-0.44408,0.3328 -0.88815,0.66559 -1.25822,1.06495c-0.14802,0.19968 -0.37007,0.39936 -0.59211,0.59903c-0.22204,0.19968 -0.37006,0.46592 -0.5921,0.66559c-0.44408,0.39936 -0.74013,0.93183 -1.11019,1.39775c-0.37006,0.53247 -0.66612,1.06495 -0.96217,1.53086c-0.22204,0.53247 -0.51809,1.06495 -0.74013,1.53086c-0.22204,0.53247 -0.44408,0.99839 -0.59211,1.4643c-0.14802,0.46592 -0.22204,0.93183 -0.37006,1.33119c-0.14802,0.39936 -0.22204,0.79871 -0.29605,1.13151c-0.07401,0.39936 -0.07401,0.66559 -0.14802,0.93183c-0.07401,0.53247 -0.14802,0.79871 -0.14802,0.79871c0,0 0,-0.26624 0.07401,-0.79871c0,-0.26624 0.07401,-0.59903 0.07401,-0.93183c0.07401,-0.39936 0.14802,-0.79871 0.22204,-1.19807c0.07401,-0.46592 0.14803,-0.93183 0.29605,-1.39775c0.14802,-0.46592 0.29605,-0.99839 0.51809,-1.53086c0.22204,-0.53247 0.51809,-1.06495 0.74013,-1.59742c0.29605,-0.46592 0.66612,-0.99839 0.96217,-1.53086c0.37006,-0.53247 0.66612,-0.99839 1.11019,-1.4643c0.22204,-0.19968 0.37006,-0.46592 0.5921,-0.66559c0.22204,-0.19968 0.44408,-0.39936 0.66612,-0.59903c0.44408,-0.39936 0.88815,-0.73215 1.33223,-1.06495c0.44408,-0.3328 0.81414,-0.59903 1.25822,-0.86527c1.62828,-0.93183 2.8865,-1.26463 2.8865,-1.26463c0,0 -1.25822,0.39936 -2.73847,1.59742z" fill="#1a324a"/><path d="M306.34088,229.22158c-0.29605,-0.06656 -0.5921,-0.13312 -0.88815,-0.19968c-0.29605,-0.06656 -0.66612,-0.19968 -0.96217,-0.3328c-0.37006,-0.13312 -0.66612,-0.3328 -1.03618,-0.46592c-0.29605,-0.13312 -0.66612,-0.3328 -0.96217,-0.53247c-0.29605,-0.26624 -0.66612,-0.46592 -0.88815,-0.73215c-0.29605,-0.26624 -0.51809,-0.53247 -0.74013,-0.79871c-0.07401,-0.13312 -0.22204,-0.26624 -0.29605,-0.39936c-0.07401,-0.13312 -0.14802,-0.26624 -0.22204,-0.39936c-0.14802,-0.26624 -0.29605,-0.53247 -0.37006,-0.79871c-0.07401,-0.19968 -0.14802,-0.46592 -0.22204,-0.66559c-0.07401,-0.19968 -0.07401,-0.39936 -0.07401,-0.53247c-0.07401,-0.26624 -0.07401,-0.46592 -0.07401,-0.46592c0,0 0.07401,0.19968 0.14803,0.46592c0.07401,0.13312 0.07401,0.3328 0.14802,0.53247c0.07401,0.19968 0.22204,0.39936 0.29605,0.66559c0.07401,0.26624 0.22204,0.46592 0.37006,0.73215c0.07401,0.13312 0.14802,0.26624 0.22204,0.39936c0.07401,0.06656 0.22204,0.19968 0.29605,0.3328c0.14802,0.26624 0.44408,0.53247 0.66612,0.73215c0.22204,0.26624 0.51809,0.46592 0.81414,0.66559c0.29605,0.19968 0.5921,0.3328 0.88815,0.53247c0.37006,0.19968 0.66612,0.3328 0.96217,0.46592c0.29605,0.19968 0.5921,0.26624 0.88815,0.39936c0.22204,0.13312 0.51809,0.19968 0.81414,0.26624c0.5921,0.13312 1.03618,0.26624 1.33223,0.3328c0.37006,0.06656 0.51809,0.13312 0.51809,0.13312c0,0 -0.74013,0 -1.62828,-0.3328z" fill="#1a324a"/><path d="M341.49698,223.09813c0,0.26624 -0.07401,0.66559 -0.22204,1.13151c-0.14802,0.46592 -0.37006,0.99839 -0.66612,1.53086c-0.22204,0.26624 -0.37006,0.53247 -0.5921,0.79871c-0.22204,0.26624 -0.51809,0.53247 -0.81414,0.73215c-0.5921,0.39936 -1.25822,0.66559 -1.92434,0.79871c-0.37006,0.13312 -0.66611,0.13312 -0.96216,0.19968c-0.29605,0 -0.5921,0.06656 -0.88815,0.06656c-0.51809,0.06656 -0.96217,0 -1.25822,0c-0.37006,-0.06656 -0.51809,-0.06656 -0.51809,-0.06656c0,0 0.22204,-0.06656 0.51809,-0.06656c0.29605,0 0.74013,-0.06656 1.25822,-0.13312c0.51809,-0.06656 1.11019,-0.19968 1.70229,-0.39936c0.5921,-0.19968 1.25822,-0.46592 1.77631,-0.79871c0.29605,-0.19968 0.51809,-0.3328 0.74013,-0.59903c0.14802,-0.26624 0.37006,-0.46592 0.51809,-0.73215c0.29605,-0.53247 0.59211,-0.99839 0.74013,-1.4643c0.37006,-0.93183 0.51809,-1.53086 0.51809,-1.53086c0,0 0,0.13312 0.07401,0.53247z" fill="#1a324a"/></g><g stroke="none"><path d="M378.38002,174.30812c1.46934,0.84088 -35.93207,7.44772 -52.22839,8.2886c-16.29633,0.84088 -63.04809,1.56162 -61.8459,0.24025c1.20219,-1.32137 45.28242,-16.21681 53.96489,-16.69731c8.68247,-0.60062 56.36927,5.8861 60.10941,8.16847z" fill="#3f3f74" stroke-width="1"/><path d="M323.34651,156.16931c14.69341,-0.36038 21.50581,9.97034 25.11237,24.26515c3.20584,12.97345 1.87007,27.14814 -22.44084,27.74876c-20.97151,0.60062 -27.38318,-12.2527 -24.9788,-25.22614c2.53795,-13.69419 7.61386,-26.42739 22.30727,-26.78777z" fill="#c5886b" stroke-width="1"/><g><path d="M334.83409,200.73551c0,0.36038 -0.26716,0.72075 -0.66788,0.84088c-0.40073,0.12013 -0.80146,0.12013 -1.06862,0.12013c-0.40073,0 -0.53431,-0.12013 -0.53431,-0.12013c0,0 0.13359,-0.12013 0.40073,-0.24024c0.13357,-0.12013 0.40073,-0.24025 0.66788,-0.36038c0.26715,-0.12013 0.53431,-0.24025 0.66788,-0.36038c0.13357,-0.12013 0.26716,-0.24024 0.26716,-0.24024c0,0 0.13357,0.12013 0.26715,0.36037z" fill="#99918a" stroke-width="1"/><path d="M293.29182,218.63406c4.67517,-2.04212 4.40802,-6.12635 4.40802,-6.12635c-0.40073,4.56473 -7.74744,3.84398 -7.74744,3.84398c5.61021,0 7.48028,-8.16847 4.80875,-10.45083c-2.67153,-2.28237 -1.06862,-8.64896 -1.06862,-8.64896c-1.20219,0.12013 -1.7365,3.72387 -1.7365,3.72387c0,0 -2.13722,-5.40561 2.53795,-7.68797c4.67517,-2.28237 3.33941,-6.96722 4.40803,-20.18092c1.06862,-13.09357 17.36495,-17.29793 22.44084,-17.1778c0.93503,0 1.73649,0 2.27079,0.24024c0.80146,-0.84088 2.67153,-0.72075 4.67517,-0.72075c3.47298,-0.12013 10.68611,3.36348 13.6248,5.40561c8.68247,6.3666 10.28538,22.46328 10.41897,25.4664c0.13357,3.00312 4.14087,3.00312 4.14087,3.00312c-2.8051,0.4805 -4.80875,-0.24024 -4.80875,-0.24024c4.00729,3.84399 1.46934,7.92821 1.46934,7.92821c1.46934,2.52262 1.20219,7.44772 -0.40073,10.93133c-1.7365,3.48361 3.60656,5.40561 3.60656,5.40561c-4.00729,0.4805 -4.94232,-1.32137 -5.07591,-1.80187c1.06862,3.72387 2.00365,7.20748 0.13357,9.85021c-2.00365,2.64273 2.93868,5.76598 2.93868,5.76598c-1.60291,0 -4.80875,-0.84088 -4.80875,-0.84088c-1.7365,3.84399 5.47663,4.4446 5.47663,4.4446c-4.80875,1.08112 -6.94598,-0.36038 -6.94598,-0.36038c1.7365,4.32449 0.80146,6.8471 -0.53431,9.60996c-1.20219,2.64273 2.53795,6.00623 2.53795,6.00623c-3.60656,0.60062 -6.01094,-3.72385 -6.01094,-3.72385c2.27081,7.20748 -3.47298,9.24959 -3.47298,9.24959c2.00365,-2.64273 -0.40073,-6.00623 -0.40073,-6.00623c0.13357,2.76286 -1.20219,8.04834 -4.80875,8.88922c-3.60656,0.84088 -2.40438,5.52572 -2.40438,5.52572c-2.67153,-0.24025 -2.00365,-4.80498 -1.87007,-5.16535c-1.33576,7.56785 -8.01459,6.72698 -8.01459,6.72698c-2.67153,4.20436 -10.28538,2.52262 -10.28538,2.52262c2.93868,0.24025 5.34306,-2.04212 5.34306,-2.04212c-6.14451,3.12323 -9.88466,-0.4805 -10.01823,-3.48361c-0.13357,-3.00312 4.5416,-2.40249 4.5416,-2.40249c0,0 -5.34306,0.84088 -0.80146,3.96411c4.5416,3.12323 8.01459,-5.76598 4.40802,-6.96722c-3.60656,-1.20125 -2.8051,-4.56473 -2.8051,-4.56473c-2.8051,-0.84088 -7.21313,-4.08423 -6.41167,-7.32759c0.80146,-2.76286 -0.66788,-5.64585 -0.66788,-5.64585c2.00365,3.72387 -1.87007,4.4446 -1.87007,4.4446c0.40073,-2.28237 -0.80146,-4.20436 -4.00729,-5.76598c-2.40438,-1.20125 -1.60291,-4.08423 -1.06862,-5.52573c-1.33576,1.32137 -5.34306,0.4805 -5.34306,0.4805c2.27081,-0.12013 5.61022,-3.12324 2.93869,-4.92511c-2.67153,-1.922 -1.7365,-3.72385 -1.7365,-3.72385c-3.87372,1.80187 -0.66788,4.80498 -0.66788,4.80498c-3.07226,0 -6.01094,-4.68486 -1.33576,-6.72697zM308.38595,187.88218c4.40803,5.40561 3.33941,6.8471 3.33941,6.8471c0,0 5.20948,-2.64273 8.68247,0.84088l7.48028,3.60374l6.54525,-2.16224c0,0 3.47298,-5.40561 10.41897,-5.04524c0,0 3.07226,-1.20125 1.87007,-4.68486c0,0 -0.80146,2.40249 -4.00729,1.20125c0,0 4.27445,-1.08112 3.20584,-5.52572c-0.93503,-4.56473 -2.8051,-7.20748 -5.87736,-12.01245c-4.5416,-7.20748 -10.55254,-6.60685 -14.02552,-9.48984c-1.46934,3.72387 -11.22042,7.32759 -15.09414,11.77221c0,0.12013 -6.94598,9.24959 -2.53795,14.65519z" fill="#c8bdb4" stroke-width="1"/><path d="M310.86396,173.20051c3.87372,-4.4446 13.68175,-8.08186 15.15108,-11.80572c3.47298,2.88299 9.53916,2.30494 14.08076,9.51242c3.07226,4.80498 4.95609,7.49433 5.89112,12.05908c1.06862,4.4446 -3.21396,5.54654 -3.21396,5.54654c3.20584,1.20125 4.01161,-1.20933 4.01161,-1.20933c1.20219,3.48361 -1.87817,4.69815 -1.87817,4.69815c-6.94598,-0.36038 -10.44813,5.06572 -10.44813,5.06572l-6.56724,2.16651l-7.5073,-3.60771c-3.47298,-3.48361 -8.70442,-0.85337 -8.70442,-0.85337c0,0 1.0538,-1.46024 -3.35423,-6.86585c-4.40803,-5.40561 2.53885,-14.58634 2.53885,-14.70646z" data-paper-data="{&quot;noHover&quot;:false,&quot;origItem&quot;:[&quot;Path&quot;,{&quot;applyMatrix&quot;:true,&quot;segments&quot;:[[[436.6,203.2],[-6.6,-9],[6.6,9]],[441.6,214.6],[[454.6,216],[-5.2,-5.8],[0,0]],[465.8,222],[475.6,218.4],[[491.2,210],[-10.4,-0.6],[0,0]],[[494,202.2],[1.8,5.8],[0,0]],[[488,204.2],[4.8,2],[0,0]],[[492.8,195],[1.6,7.4],[-1.4,-7.6]],[[484,175],[4.6,8],[-6.8,-12]],[[463,159.2],[5.2,4.8],[-2.2,6.2]],[[440.4,178.8],[5.8,-7.4],[0,0.2]]],&quot;closed&quot;:true,&quot;fillColor&quot;:[0,0,0,1]}]}" fill="#847e87" stroke-width="0.5"/><path d="M325.61732,158.09131c-0.13357,-0.24025 -0.40073,-0.60062 -0.80146,-0.84088c-0.13357,-0.12013 -0.40073,-0.24024 -0.66788,-0.36037c-0.26715,-0.12013 -0.53431,-0.12013 -0.80146,-0.24025c-0.26715,-0.12013 -0.66788,-0.12013 -0.93503,-0.24025c-0.26715,-0.12013 -0.66788,-0.12013 -0.93504,-0.12013c-0.66788,-0.12013 -1.33576,0 -2.00365,0c-0.66788,0 -1.20219,0.12013 -1.7365,0.12013c-1.06862,0.12013 -1.73649,0.12013 -1.73649,0.12013c0,0 0.53431,-0.24024 1.60291,-0.60062c0.40073,-0.12013 1.0686,-0.24025 1.73649,-0.36038c0.40073,0 0.66788,-0.12013 1.06862,-0.12013c0.40073,0 0.66788,0 1.06862,0c0.80146,0 1.46934,0.12013 2.13722,0.36038c0.40073,0.12013 0.66788,0.36037 0.93504,0.4805c0.26715,0.24025 0.5343,0.36038 0.66788,0.60062c0.26715,0.36038 0.40073,0.84087 0.53431,1.08112c0,0.36038 0,0.4805 0,0.4805c0,0 -0.13357,-0.12013 -0.13357,-0.36038z" fill="#99918a" stroke-width="1"/><path d="M326.2852,160.25355c0,0.24025 0,0.4805 0,0.72075c0,0.24025 -0.13357,0.60062 -0.26715,0.84088c-0.13357,0.36038 -0.26716,0.60062 -0.53431,0.96099c-0.26715,0.36038 -0.53431,0.72075 -0.80146,0.96099c-0.53431,0.60062 -1.20219,1.20125 -1.87007,1.68174c-1.33576,1.08112 -2.93868,1.922 -4.14087,2.52262c-1.20219,0.4805 -2.00365,0.84088 -2.00365,0.84088c0,0 0.66788,-0.4805 1.7365,-1.20125c0.53431,-0.36038 1.20219,-0.72075 1.87007,-1.20125c0.66788,-0.4805 1.33576,-0.961 2.00365,-1.4415c0.66788,-0.4805 1.33576,-1.08112 1.87007,-1.56162c0.26715,-0.36038 0.53431,-0.60062 0.80146,-0.84088c0.26715,-0.24025 0.53431,-0.4805 0.66788,-0.72075c0.13357,-0.24025 0.26715,-0.4805 0.40073,-0.72075c0.13357,-0.24025 0.13357,-0.4805 0.13357,-0.60062c0,-0.24025 -0.13357,-0.4805 -0.13357,-0.4805c0,0 0.13357,0.24025 0.26715,0.24025z" fill="#99918a" stroke-width="1"/><path d="M311.05749,191.00542c0.26715,0.36038 0.53431,0.84088 0.80146,1.44149c0.26715,0.60062 0.40073,1.32137 0.40073,1.922c0,0.72075 -0.13357,1.32137 -0.40073,1.92198c0,0.36038 -0.26716,0.60062 -0.40073,0.84088c-0.13357,0.24025 -0.40073,0.4805 -0.53431,0.60062c-0.26715,0.24025 -0.40073,0.36037 -0.53431,0.4805c-0.13357,0.12013 -0.26715,0.24025 -0.40073,0.36038c-0.26715,0.12013 -0.40073,0.24025 -0.40073,0.24025c0,0 0.13357,-0.12013 0.26715,-0.36038c0,-0.12013 0.13357,-0.24025 0.26716,-0.36038c0.13357,-0.12013 0.26715,-0.24024 0.40073,-0.4805c0.13357,-0.12013 0.26715,-0.36037 0.40073,-0.60062c0.13357,-0.24025 0.26716,-0.4805 0.26716,-0.72075c0,-0.24025 0.13357,-0.60062 0.13357,-0.84088c0.13357,-0.24025 0.13357,-0.60062 0.13357,-0.84088c0.13357,-0.24025 0,-0.60062 0,-0.84088c0,-0.24025 0,-0.60062 -0.13357,-0.84088c-0.13357,-0.4805 -0.40073,-0.96099 -0.53431,-1.44149c-0.40073,-0.84088 -0.66788,-1.44149 -0.66788,-1.44149c0,0 0.53431,0.4805 0.93503,0.96099z" fill="#99918a" stroke-width="1"/><path d="M342.98225,188.72306c0.26715,0 0.66788,0 1.06862,0c0.26715,0 0.40073,0 0.66788,-0.12013c0.26715,0 0.40073,-0.12013 0.66788,-0.24024c0.13357,-0.12013 0.40073,-0.24025 0.53431,-0.4805c0.26715,-0.24025 0.40073,-0.36037 0.53431,-0.60062c0.13357,-0.12013 0.26715,-0.36038 0.40073,-0.60062c0.13357,-0.24025 0.13357,-0.4805 0.26716,-0.72075c0.13357,-0.4805 0.26715,-0.96099 0.40073,-1.32137c0.26715,-0.84088 0.40073,-1.32137 0.40073,-1.32137c0,0 0.13357,0.4805 0.13357,1.32137c0,0.4805 0,0.96099 -0.13357,1.32137c-0.13357,0.36038 -0.13357,0.60062 -0.26715,0.84088c-0.13357,0.36038 -0.26715,0.60062 -0.40073,0.84088c-0.26715,0.24025 -0.40073,0.4805 -0.66788,0.72075c-0.26715,0.24025 -0.53431,0.36037 -0.80146,0.4805c-0.53431,0.24025 -1.06862,0.24025 -1.60291,0.24025c-0.93503,-0.12013 -1.46934,-0.4805 -1.46934,-0.4805c0,0 0.13357,0.12013 0.26716,0.12013z" fill="#99918a" stroke-width="1"/><path d="M355.40486,189.4438c-0.80146,0.24025 -1.73649,0.24025 -2.8051,0.12013c-0.53431,-0.12013 -1.06862,-0.24024 -1.46934,-0.4805c-0.40073,-0.24025 -0.80146,-0.4805 -1.06862,-0.72075c-0.53431,-0.4805 -0.66788,-0.96099 -0.66788,-0.96099c0,0 0.13357,0.12013 0.26715,0.24024c0.13357,0.24025 0.40073,0.36038 0.66788,0.4805c0.13357,0.12013 0.40073,0.12013 0.53431,0.24025c0.13357,0.12013 0.40073,0.12013 0.53431,0.24024c0.40073,0.24025 0.93503,0.24025 1.33576,0.36038c0.93503,0.12013 1.87007,0.24025 2.53795,0.24025c0.66788,0.12013 1.20219,0.12013 1.20219,0.12013c0,0 -0.40073,0.24025 -1.06862,0.12013z" fill="#99918a" stroke-width="1"/><path d="M299.16918,179.83384c0,1.80187 -0.13357,3.96411 -0.26716,6.24647c-0.13357,0.60062 -0.13357,1.08112 -0.26715,1.68174c-0.13357,0.60062 -0.13357,1.08112 -0.26716,1.68174c-0.13357,0.60062 -0.40073,1.08113 -0.66788,1.56163c-0.40073,0.4805 -0.66788,0.72074 -1.06862,1.08112c-0.40073,0.36038 -0.80146,0.4805 -1.06862,0.72075c-0.40073,0.24025 -0.66788,0.36038 -0.93503,0.4805c-0.53431,0.24025 -0.80146,0.36037 -0.80146,0.36037c0,0 0.26715,-0.24024 0.66788,-0.4805c0.40073,-0.24025 0.93503,-0.72075 1.60291,-1.32137c0.53431,-0.60062 1.06862,-1.4415 1.20219,-2.40249c0,-0.4805 0.13357,-0.96099 0.13357,-1.56162c0,-0.60062 0.13357,-1.08112 0.13357,-1.68174c0.13357,-1.08112 0.26715,-2.16224 0.40073,-3.24336c0.13357,-1.08112 0.26715,-2.04212 0.40073,-2.88299c0.13357,-1.68174 0.40073,-2.76286 0.40073,-2.76286c0,0 0,1.20125 0.40073,2.52262z" fill="#99918a" stroke-width="1"/><path d="M293.29182,198.21289c-0.13357,0.60062 -0.13357,1.44149 -0.13357,2.52262c0.13357,0.96099 0.26715,2.16224 0.80146,3.36348c0.26715,0.60062 0.66788,1.08112 1.06862,1.68174c0.53431,0.60062 0.93503,1.32137 1.06862,2.04211c0.13357,0.72075 0.13357,1.4415 0.13357,2.16224c-0.13357,0.72075 -0.26716,1.44149 -0.53431,2.04211c-0.13357,0.72075 -0.53431,1.32137 -0.93503,1.80187c-0.40073,0.4805 -0.93504,0.96099 -1.33576,1.32137c-0.40073,0.36038 -0.93503,0.72075 -1.33576,0.84088c-0.40073,0.24025 -0.93504,0.24024 -1.20219,0.36037c-0.40073,0 -0.66788,0 -0.80146,0c-0.13357,0 -0.26716,0 -0.26716,0c0,0 0.13357,0 0.26716,0c0.26715,0 0.53431,0 0.80146,-0.12013c0.26715,-0.12013 0.66788,-0.24025 1.06862,-0.4805c0.13357,-0.12013 0.40073,-0.24024 0.53431,-0.36037c0.13357,-0.12013 0.40073,-0.24025 0.53431,-0.4805c0.40073,-0.36038 0.80146,-0.84088 1.06862,-1.32137c0.26715,-0.4805 0.66788,-1.08112 0.80146,-1.68174c0.26715,-0.60062 0.40073,-1.32137 0.40073,-1.922c0.13357,-0.60062 0,-1.32137 -0.13357,-1.922c-0.13357,-0.72075 -0.40073,-1.20125 -0.80146,-1.80187c-0.40073,-0.4805 -0.80146,-1.20125 -1.06862,-1.80187c-0.40073,-0.60062 -0.40073,-1.32137 -0.53431,-1.922c0,-0.60062 0,-1.20125 0,-1.68174c0.13357,-1.08112 0.40073,-1.922 0.53431,-2.52262c0.26715,-0.60062 0.40073,-0.96099 0.40073,-0.96099c0,0 -0.13357,0.36038 -0.40073,0.84088z" fill="#99918a" stroke-width="1"/><path d="M293.29182,224.64029c-0.13357,-0.36038 -0.40073,-0.72075 -0.53431,-1.20125c0,-0.24025 0,-0.4805 0,-0.72075c0,-0.24025 0,-0.4805 0.13357,-0.72075c0.13357,-0.24025 0.26716,-0.4805 0.40073,-0.72075c0.13357,-0.12013 0.26716,-0.36038 0.53431,-0.4805c0.40073,-0.24025 0.80146,-0.4805 1.20219,-0.60062c0.40073,-0.12013 0.66788,-0.12013 0.93504,-0.24025c0.26715,-0.12013 0.40073,-0.12013 0.40073,-0.12013c0,0 -0.13357,0.12013 -0.26716,0.24025c-0.13357,0.12013 -0.40073,0.24025 -0.66788,0.4805c-0.13357,0.12013 -0.26716,0.24024 -0.40073,0.36037c-0.13357,0.12013 -0.26715,0.24025 -0.40073,0.36038c-0.13357,0.12013 -0.26715,0.36037 -0.40073,0.4805c-0.13357,0.12013 -0.13357,0.36038 -0.26716,0.4805c0,0.24025 -0.13357,0.36037 -0.13357,0.60062c0,0.24025 0,0.36037 0,0.60062c0,0.36038 0.13357,0.72075 0.26715,1.08112c0.26715,0.72075 0.53431,1.08112 0.53431,1.08112c0,0 -0.40073,-0.24025 -1.33576,-0.96099z" fill="#99918a" stroke-width="1"/><path d="M295.69619,229.44526c0.53431,-0.12013 1.06862,-0.12013 1.7365,-0.24024c0.26715,0 0.66788,-0.12013 0.93503,-0.24025c0.26715,-0.12013 0.53431,-0.12013 0.80146,-0.36038c0.26715,-0.24025 0.40073,-0.36037 0.66788,-0.60062c0.26715,-0.24025 0.40073,-0.4805 0.53431,-0.72075c0.13357,-0.24025 0.26716,-0.4805 0.40073,-0.72075c0.13357,-0.24025 0.13357,-0.4805 0.26715,-0.72075c0.13357,-0.36038 0.13357,-0.84088 0.26716,-1.08112c0.13357,-0.36038 0.13357,-0.4805 0.13357,-0.4805c0,0 0.13357,0.24025 0.13357,0.4805c0,0.24025 0.13357,0.72075 0,1.20125c0,0.24025 0,0.60062 -0.13357,0.84088c0,0.24025 -0.13357,0.60062 -0.26715,0.84088c-0.26715,0.24025 -0.40073,0.60062 -0.66788,0.84088c-0.13357,0.24025 -0.40073,0.4805 -0.80146,0.72075c-0.40073,0.24025 -0.66788,0.36037 -1.06862,0.4805c-0.40073,0.12013 -0.66788,0.24025 -1.06862,0.24025c-0.66788,0.12013 -1.33576,0.12013 -1.87007,0c-1.06862,-0.24025 -1.7365,-0.4805 -1.7365,-0.4805c0,0 0.80146,0.12013 1.7365,0z" fill="#99918a" stroke-width="1"/><path d="M337.50562,158.45168c-0.80146,-0.24025 -1.60291,-0.60062 -2.53795,-0.96099c-0.93503,-0.36038 -1.87007,-0.60062 -2.93869,-0.96099c-0.40073,-0.12013 -0.93503,-0.24025 -1.46934,-0.36038c-0.53431,-0.12013 -0.93503,-0.36037 -1.46934,-0.36037c-0.53431,0 -1.06862,-0.12013 -1.46934,-0.12013c-0.53431,0 -0.93504,0 -1.33576,0c-0.80146,0.12013 -1.46934,0.24025 -1.87007,0.36038c-0.40073,0.24025 -0.66788,0.36037 -0.66788,0.36037c0,0 0.13357,-0.24024 0.53431,-0.4805c0.40073,-0.24025 1.06862,-0.4805 1.87007,-0.60062c0.40073,0 0.80146,-0.12013 1.33576,-0.12013c0.40073,0 0.93503,0.12013 1.46934,0.12013c0.53431,0 1.06862,0.12013 1.60291,0.24025c0.53431,0.12013 1.06862,0.24025 1.60291,0.36038c0.40073,0.12013 0.93503,0.36037 1.46934,0.4805c0.53431,0.12013 1.06862,0.36037 1.46934,0.60062c0.93503,0.36038 1.73649,0.84088 2.40438,1.20125c0.66788,0.36038 1.20219,0.72075 1.60291,0.96099c0.40073,0.24025 0.66788,0.36038 0.66788,0.36038c0,0 -1.06862,-0.36038 -2.27081,-1.08112z" fill="#99918a" stroke-width="1"/><path d="M356.33989,213.46871c-0.26715,0.12013 -0.66788,0.24024 -1.20219,0.24024c-0.26715,0 -0.53431,0 -0.80146,0c-0.26715,0 -0.66788,0 -0.93503,-0.12013c-0.40073,-0.12013 -0.66788,-0.24025 -0.93503,-0.36038c-0.26715,-0.12013 -0.53431,-0.24024 -0.80146,-0.4805c-0.26715,-0.24025 -0.5343,-0.4805 -0.66788,-0.72075c-0.26715,-0.24025 -0.40073,-0.4805 -0.53431,-0.72075c-0.26715,-0.4805 -0.40073,-0.96099 -0.53431,-1.44149c-0.13357,-0.4805 -0.13357,-0.84088 -0.13357,-1.08112c0,-0.24025 0,-0.36037 0,-0.36037c0,0 0,0.12013 0.13357,0.36037c0.13357,0.24025 0.13357,0.60062 0.40073,0.96099c0,0.24025 0.13357,0.36037 0.26715,0.60062c0.13357,0.12013 0.26716,0.36038 0.40073,0.60062c0.13357,0.24025 0.40073,0.36037 0.53431,0.60062c0.13357,0.24025 0.40073,0.36037 0.53431,0.60062c0.26715,0.12013 0.40073,0.36038 0.66788,0.4805c0.13357,0.12013 0.40073,0.24024 0.66788,0.36037c0.53431,0.24025 1.06862,0.36038 1.46934,0.36038c0.40073,0.12013 0.80146,0.12013 1.06862,0.12013c0.26715,0 0.40073,0 0.40073,0c0,0 -0.13357,0 0,0z" fill="#99918a" stroke-width="1"/><path d="M354.33625,194.36891c0,0.72075 0,1.68174 -0.53431,2.52262c-0.26715,0.36038 -0.53431,0.84088 -0.93503,1.08112c-0.26715,0.12013 -0.40073,0.24024 -0.66788,0.36037c-0.26715,0.12013 -0.40073,0.24025 -0.66788,0.24025c-0.40073,0.12013 -0.66788,0.12013 -0.93504,0.12013c-0.26715,0 -0.40073,0 -0.40073,0c0,0 0,0 0.26716,-0.12013c0.13357,0 0.26715,-0.12013 0.40073,-0.12013c0.13357,-0.12013 0.26715,-0.12013 0.40073,-0.24025c0.13357,0 0.26715,-0.12013 0.40073,-0.24024c0.13357,-0.12013 0.26716,-0.24025 0.40073,-0.36038c0.13357,-0.12013 0.26715,-0.36038 0.40073,-0.4805c0,-0.12013 0.13357,-0.24024 0.26715,-0.4805c0.26715,-0.4805 0.40073,-0.84088 0.53431,-1.20125c0.13357,-0.36038 0.13357,-0.72074 0.26716,-1.08112c0.13357,-0.60062 0.26715,-1.08112 0.26715,-1.08112c0,0 0.26716,0.4805 0.53431,1.08112z" fill="#99918a" stroke-width="1"/><path d="M351.39757,227.1629c-0.80146,0 -1.60291,-0.24024 -2.53795,-0.4805c-0.40073,-0.24025 -0.93504,-0.36038 -1.33576,-0.60062c-0.40073,-0.24025 -0.80146,-0.4805 -1.20219,-0.84088c-0.26715,-0.12013 -0.40073,-0.24024 -0.53431,-0.4805c-0.13357,-0.24025 -0.26715,-0.36037 -0.40073,-0.60062c-0.13357,-0.24025 -0.26715,-0.36038 -0.40073,-0.60062c-0.13357,-0.12013 -0.13357,-0.36037 -0.26716,-0.60062c0,-0.24025 -0.13357,-0.36037 -0.13357,-0.60062c0,-0.24025 0,-0.36038 0,-0.60062c0,-0.36038 0,-0.72075 0.13357,-1.08112c0.26715,-1.32137 0.80146,-2.16224 0.80146,-2.16224c0,0 0,0.24024 -0.13357,0.60062c0,0.36038 -0.13357,0.96099 -0.13357,1.56162c0,0.36038 0,0.72075 0,1.08112c0,0.12013 0.13357,0.36038 0.13357,0.4805c0.13357,0.24025 0.13357,0.4805 0.26716,0.60062c0.13357,0.24025 0.13357,0.36037 0.26715,0.60062l0.40073,0.4805c0.13357,0.12013 0.26716,0.36037 0.40073,0.4805c0.26715,0.24025 0.40073,0.36038 0.53431,0.4805c0.26715,0.24025 0.66788,0.4805 1.06862,0.72075c0.40073,0.24025 0.80146,0.4805 1.20219,0.60062c0.80146,0.36038 1.60291,0.60062 2.27081,0.72075c1.46934,0.24025 2.40438,0.36038 2.40438,0.36038c0,0 -0.93504,0.12013 -2.8051,-0.12013z" fill="#99918a" stroke-width="1"/><path d="M353.40122,231.48739c-0.53431,0.12013 -1.20219,0.24025 -1.87007,0.24025c-0.40073,-0.12013 -0.66788,0 -1.06862,-0.12013c-0.40073,-0.12013 -0.66788,-0.12013 -1.06862,-0.24025c-0.40073,-0.12013 -0.66788,-0.24024 -1.06862,-0.36037c-0.40073,-0.12013 -0.66788,-0.36038 -0.93504,-0.4805c-0.26715,-0.12013 -0.53431,-0.36037 -0.80146,-0.4805c-0.26715,-0.12013 -0.53431,-0.36038 -0.66788,-0.4805c-0.40073,-0.36038 -0.66788,-0.72075 -0.80146,-0.96099c-0.13357,-0.24025 -0.26716,-0.36037 -0.26716,-0.36037c0,0 0.13357,0.12013 0.40073,0.24025c0.13357,0.12013 0.26716,0.24024 0.40073,0.36037c0.13357,0.12013 0.26716,0.24025 0.53431,0.36038c0.13357,0.12013 0.40073,0.24024 0.66788,0.36037c0.26715,0.12013 0.53431,0.24025 0.80146,0.36038c0.66788,0.24025 1.20219,0.4805 1.87007,0.60062c1.20219,0.36038 2.53795,0.36038 3.60657,0.36038c1.06862,0 1.73649,-0.12013 1.73649,-0.12013c0,0 -0.66788,0.36037 -1.46934,0.72075z" fill="#99918a" stroke-width="1"/><path d="M348.99319,245.42183c-0.53431,-0.4805 -1.20219,-1.08112 -1.60291,-1.922c-0.26715,-0.36038 -0.40073,-0.84087 -0.40073,-1.20125c0,-0.36038 0,-0.72075 0,-1.08112c0.13357,-0.24025 0.26716,-0.60062 0.26716,-0.72075c0.13357,-0.12013 0.13357,-0.24025 0.13357,-0.24025c0,0 0,0.4805 0.13357,1.08112c0.13357,0.60062 0.26716,1.32137 0.66788,2.04211c0.40073,0.72075 0.80146,1.4415 1.20219,1.922c0.40073,0.4805 0.66788,0.84088 0.66788,0.84088c0,0 -0.53431,-0.24025 -1.06862,-0.72075z" fill="#99918a" stroke-width="1"/><path d="M344.85232,244.10046c0.13357,0.4805 0.26716,1.20125 0.26716,1.80187c-0.13357,0.24025 -0.13357,0.60062 -0.13357,0.96099c-0.13357,0.36038 -0.13357,0.72075 -0.26716,1.08112c0,0.36038 -0.26715,0.60062 -0.40073,0.96099c-0.13357,0.36038 -0.53431,0.60062 -0.66788,0.84088c-0.13357,0.36038 -0.40073,0.4805 -0.66788,0.72075c-0.26715,0.24025 -0.53431,0.36038 -0.80146,0.4805c-0.40073,0.36038 -0.93503,0.4805 -1.20219,0.60062c-0.40073,0.24025 -0.53431,0.24025 -0.53431,0.24025c0,0 0.13357,-0.12013 0.40073,-0.36038c0.13357,-0.12013 0.26715,-0.24024 0.40073,-0.36037c0.13357,-0.12013 0.40073,-0.36038 0.53431,-0.4805c0.13357,-0.24025 0.40073,-0.36037 0.53431,-0.60062c0.13357,-0.24025 0.40073,-0.4805 0.53431,-0.72075c0.13357,-0.36038 0.40073,-0.60062 0.53431,-0.84088c0.13357,-0.24025 0.26715,-0.4805 0.40073,-0.84088c0.26715,-0.60062 0.26715,-1.20125 0.40073,-1.80187c0,-0.60062 0,-1.20125 0,-1.68174c-0.13357,-0.96099 -0.26715,-1.68174 -0.26715,-1.68174c0,0 0.53431,0.60062 0.93503,1.68174z" fill="#99918a" stroke-width="1"/><path d="M332.29614,260.07701c-0.13357,0 -0.40073,0 -0.53431,-0.12013c-0.13357,0 -0.40073,-0.24024 -0.53431,-0.36037c-0.26715,-0.12013 -0.40073,-0.36037 -0.53431,-0.60062c-0.13357,-0.24025 -0.13357,-0.60062 -0.26716,-0.84088c-0.13357,-0.36038 -0.13357,-0.60062 -0.13357,-0.96099c0,-0.36038 0,-0.60062 0,-0.96099c0.13357,-0.72075 0.26715,-1.20125 0.40073,-1.80187c0.26715,-0.4805 0.53431,-1.08112 0.66788,-1.4415c0.40073,-0.84088 0.80146,-1.32137 0.80146,-1.32137c0,0 0,0.60062 -0.26715,1.44149c-0.13357,0.36038 -0.26716,0.961 -0.40073,1.4415c-0.13357,0.60062 -0.26715,1.08112 -0.26715,1.68174c0,0.60062 0,1.20125 0,1.68174c0,0.24025 0,0.4805 0.13357,0.72075c0,0.24025 0.13357,0.36037 0.26715,0.60062c0.13357,0.24025 0.26715,0.36038 0.40073,0.4805c0.13357,0.12013 0.26716,0.24024 0.40073,0.24024c0.26715,0.12013 0.40073,0.12013 0.40073,0.12013c0,0 -0.13357,0 -0.53431,0z" fill="#99918a" stroke-width="1"/><path d="M330.42607,258.0349c-0.13357,0.24025 -0.26716,0.60062 -0.53431,0.84088c-0.13357,0.24025 -0.40073,0.60062 -0.66788,0.84088c-0.26715,0.24025 -0.53431,0.4805 -0.93503,0.72075c-0.26715,0.24025 -0.66788,0.4805 -1.06862,0.60062c-0.40073,0.24025 -0.80146,0.36038 -1.20219,0.4805c-0.40073,0.12013 -0.80146,0.12013 -1.20219,0.24024c-0.40073,0 -0.80146,0 -1.20219,0c-0.40073,0 -0.80146,-0.12013 -1.06862,-0.12013c-0.66788,0 -1.06862,-0.24025 -1.46934,-0.36038c-0.40073,-0.12013 -0.53431,-0.24025 -0.53431,-0.24025c0,0 0.13357,0 0.53431,0c0.40073,0 0.80146,0.12013 1.46934,0.12013c0.26715,0 0.53431,0 0.93504,0c0.40073,0 0.66788,-0.12013 1.06862,-0.12013c0.26715,-0.12013 0.66788,-0.12013 1.06862,-0.24025c0.40073,-0.12013 0.80146,-0.12013 1.06862,-0.36037c0.26715,-0.12013 0.66788,-0.24025 0.93503,-0.4805c0.40073,-0.12013 0.66788,-0.36037 0.93503,-0.60062c0.13357,-0.24025 0.40073,-0.4805 0.66788,-0.72075c0.13357,-0.24025 0.40073,-0.4805 0.53431,-0.72075c0.40073,-0.36038 0.66788,-0.84088 0.80146,-1.08112c0.13357,-0.36038 0.26716,-0.4805 0.26716,-0.4805c0,0 -0.13359,0.72075 -0.40073,1.68174z" fill="#99918a" stroke-width="1"/><path d="M315.73266,263.08013c-0.40073,0 -0.80146,0.12013 -1.20219,0.24025c-0.40073,0.12013 -0.80146,0.12013 -1.33576,0.12013c-0.26715,0 -0.53431,0 -0.80146,0c-0.26715,0 -0.53431,0 -0.80146,-0.12013c-0.53431,-0.12013 -1.06862,-0.36038 -1.46934,-0.60062l-0.66788,-0.4805c-0.26715,-0.12013 -0.40073,-0.36038 -0.53431,-0.4805c-0.40073,-0.24025 -0.53431,-0.72074 -0.80146,-1.08112c-0.40073,-0.72075 -0.66788,-1.56163 -0.53431,-2.28237c0.13357,-0.72075 0.53431,-1.20125 0.93503,-1.44149c0.40073,-0.24025 0.66788,-0.24025 0.66788,-0.24025c0,0 -0.26716,0.12013 -0.53431,0.36038c-0.26715,0.24025 -0.53431,0.72075 -0.53431,1.32137c0.13357,0.60062 0.40073,1.20125 0.80146,1.922c0.26715,0.36038 0.53431,0.72075 0.80146,0.96099c0.13357,0.24025 0.26715,0.36037 0.40073,0.4805l0.53431,0.36038c0.40073,0.12013 0.80146,0.36037 1.20219,0.4805c0.26715,0 0.40073,0.12013 0.66788,0.12013c0.26715,0.12013 0.40073,0.12013 0.66788,0.12013c0.93503,0.12013 1.7365,0 2.40438,-0.12013c0.80146,-0.24025 1.33576,-0.36037 1.73649,-0.4805c0.40073,-0.12013 0.66788,-0.24025 0.66788,-0.24025c0,0 -0.80146,0.60062 -2.27081,1.08112z" fill="#99918a" stroke-width="1"/><path d="M318.00345,253.83054c-0.26715,0 -0.66788,0 -1.20219,-0.12013c-0.26715,-0.12013 -0.53431,-0.12013 -0.80146,-0.24025c-0.26715,-0.12013 -0.53431,-0.24025 -0.80146,-0.36038c-0.26715,-0.12013 -0.53431,-0.36037 -0.80146,-0.60062c-0.26715,-0.24025 -0.40073,-0.4805 -0.66788,-0.72075c-0.13357,-0.24025 -0.26715,-0.4805 -0.40073,-0.84088c-0.13357,-0.24025 -0.26716,-0.60062 -0.26716,-0.84088c0,-0.60062 0,-1.08112 0,-1.56162c0,-0.4805 0.26716,-0.84088 0.26716,-1.08112c0.13357,-0.24025 0.13357,-0.36038 0.13357,-0.36038c0,0 0,0.12013 0,0.36038c0,0.24025 0,0.60062 0.13357,1.08112c0,0.24025 0.13357,0.4805 0.13357,0.72075c0,0.24025 0.13357,0.4805 0.13357,0.72075c0,0.24025 0.13357,0.4805 0.26715,0.72075c0.13357,0.24025 0.26716,0.4805 0.40073,0.72075c0.13357,0.12013 0.26716,0.36038 0.53431,0.60062c0.26715,0.24025 0.40073,0.4805 0.66788,0.60062c0.40073,0.36038 0.93504,0.60062 1.33576,0.72075c0.40073,0.24025 0.80146,0.36038 1.06862,0.36038c0.26715,0.12013 0.40073,0.12013 0.40073,0.12013c0,0 -0.13357,0 -0.53431,0z" fill="#99918a" stroke-width="1"/><path d="M305.44727,239.65585c0.26715,-0.24025 0.5343,-0.4805 0.66788,-0.84088c0.13357,-0.24025 0.13357,-0.36038 0.26716,-0.60062c0,-0.12013 0.13357,-0.36037 0.13357,-0.60062c0.26715,-0.84088 0.26715,-1.68174 0.40073,-2.40249c0,-0.72075 0.13357,-1.20125 0.13357,-1.20125c0,0 0.26715,0.36038 0.40073,1.08112c0,0.36038 0.13357,0.72075 0.13357,1.20125c0,0.24025 0,0.4805 0,0.72075c0,0.24025 0,0.4805 -0.13357,0.72075c-0.13357,0.24025 -0.13357,0.4805 -0.26716,0.72075c-0.13357,0.24025 -0.26715,0.36037 -0.40073,0.60062c-0.13357,0.12013 -0.40073,0.36038 -0.53431,0.4805c-0.13357,0.12013 -0.40073,0.24024 -0.53431,0.36037c-0.40073,0.12013 -0.66788,0.24025 -0.93503,0.24025c-0.26715,0 -0.40073,0 -0.40073,0c0,0 0.53431,-0.12013 1.06862,-0.4805z" fill="#99918a" stroke-width="1"/><path d="M339.24212,249.38594c0.13357,-0.72075 0.26715,-1.80187 0.40073,-2.88299c0.13357,-0.4805 0.13357,-1.08112 0.13357,-1.56162c0,-0.24025 0,-0.4805 0,-0.72075c-0.13357,-0.24025 -0.13357,-0.36038 -0.13357,-0.60062c-0.13357,-0.36038 -0.13357,-0.72075 -0.26715,-0.96099c-0.13357,-0.24025 -0.13357,-0.36037 -0.13357,-0.36037c0,0 0.13357,0.12013 0.26715,0.36037c0.13357,0.24025 0.40073,0.60062 0.53431,0.96099c0.13357,0.4805 0.26716,0.961 0.40073,1.4415c0,0.60062 0,1.08112 0,1.68174c-0.13357,1.20125 -0.40073,2.28237 -0.80146,3.00312c-0.40073,0.72075 -0.66788,1.20125 -0.66788,1.20125c0,0 0.13357,-0.60062 0.26716,-1.56162z" fill="#99918a" stroke-width="1"/></g><path d="M315.32652,182.97773c-0.09511,-1.39251 1.02332,-2.53787 2.4981,-2.55822c1.47474,-0.02036 2.74738,1.09196 2.84249,2.48448c0.09511,1.39251 -1.02334,2.53787 -2.4981,2.55823c-1.47474,0.02036 -2.74738,-1.09198 -2.84247,-2.48449z" fill="#d23d3d" stroke-width="1"/><path d="M334.72001,182.50158c-0.09114,-1.39251 0.98069,-2.53787 2.39398,-2.55823c1.41329,-0.02036 2.6329,1.09198 2.72404,2.48449c0.09114,1.39251 -0.98069,2.53787 -2.39398,2.55822c-1.41329,0.02036 -2.6329,-1.09196 -2.72404,-2.48448z" fill="#d23d3d" stroke-width="1"/><path d="M316.26696,180.91496c-2.40438,0 -3.60656,1.44149 -3.60656,1.44149c0.13357,-1.08112 1.46934,-1.92198 1.46934,-1.92198l-2.00365,0.36037c1.33576,-2.88299 5.74379,-2.40249 5.74379,-2.40249l-1.46934,-0.36038c2.67153,-0.96099 6.14451,-0.36037 6.14451,-0.36037l-1.20219,-0.72075c2.8051,-0.24025 4.5416,1.44149 3.87372,2.76286c-0.66788,1.08112 -6.41167,1.4415 -8.94963,1.20125z" fill="#c8bdb4" stroke-width="1"/><path d="M330.69321,179.83384c-0.80146,-1.32137 0.66788,-3.00312 3.60656,-3.12323l-1.06862,0.84088c0,0 3.33941,-0.84088 6.14452,-0.12013l-1.46934,0.4805c0,0 4.27445,-0.84088 5.87736,1.92198l-2.13722,-0.12013c0,0 1.33576,0.72075 1.7365,1.80187c0,0 -1.33576,-1.44149 -3.74014,-1.08112c-2.40438,0.24025 -8.28173,0.4805 -8.94963,-0.60062z" fill="#c8bdb4" stroke-width="1"/><path d="M320.54141,185.11932c-0.40073,0.24025 -1.06862,0.4805 -1.60291,0.60062c-0.53431,0.12013 -1.20219,0.24024 -1.60291,0.36037c-0.13357,0.12013 -0.40073,0.12013 -0.53431,0.12013c-0.13357,0 -0.26715,0 -0.26715,0c0,0 0.13357,-0.24024 0.53431,-0.4805c0.40073,-0.24025 0.93503,-0.60062 1.60291,-0.72075c0.66788,-0.12013 1.20219,-0.24024 1.73649,-0.24024c0.53431,0 0.80146,0.12013 0.80146,0.12013c0,0 -0.26716,0.24024 -0.66788,0.24024z" fill="#666168" stroke-width="1"/><path d="M338.30708,185.23945c-0.40073,0 -1.06862,0 -1.60291,-0.12013c-0.53431,-0.12013 -1.06862,-0.24024 -1.46934,-0.36037c-0.40073,-0.12013 -0.66788,-0.24025 -0.66788,-0.24025c0,0 0.40073,-0.12013 0.80146,-0.24025c0.40073,-0.12013 1.06862,-0.12013 1.60291,0c0.53431,0.12013 1.06862,0.24025 1.46934,0.4805c0.40073,0.24025 0.66788,0.36037 0.66788,0.36037c0,0 -0.26715,0.12013 -0.80146,0.12013z" fill="#666168" stroke-width="1"/><g stroke-width="1"><path d="M335.10124,193.76829c0,0 2.00365,-0.4805 3.47298,1.56163c1.46934,2.04212 2.8051,1.80187 2.8051,1.80187c0,0 -1.46934,1.32137 -3.20584,0.4805c0,0 1.60291,2.16224 -0.53431,3.60374c0,0 0,-1.68174 -0.66788,-2.52262c0,0 0.53431,2.88299 -2.40438,3.48361c0,0 0,-0.72075 0,-1.80187c0,0 -0.13359,0.84088 -2.00365,1.32137l-0.13357,-2.52262c0.40073,2.16224 -2.13722,3.00312 -2.13722,3.00312c-0.93503,-0.84088 -0.26716,-3.00312 -0.26716,-3.00312c-0.66788,0.36038 -0.93503,3.24336 -0.93503,3.24336c-0.80146,-0.72075 -0.93503,-3.24336 -0.93503,-3.24336c0.40073,2.76286 -2.8051,3.60374 -2.8051,3.60374c0.66788,-0.60062 -0.80146,-3.60374 -0.80146,-3.60374c0.40073,2.64273 -1.20219,3.60374 -1.20219,3.60374c-1.20219,-0.60062 -0.93503,-2.64273 -0.93503,-2.64273l-1.46934,2.64273c-2.00365,-1.20125 -0.40073,-3.24336 -0.40073,-3.24336c-0.66788,0.36038 -1.60291,2.16224 -1.60291,2.16224c-0.13357,-1.56162 0.66788,-3.48361 0.66788,-3.48361c-0.53431,0.84088 -2.67153,0.36038 -2.67153,0.36038c0.66788,0 2.00365,-1.32137 2.93868,-2.28237c3.60656,-3.96411 9.61751,-2.52262 9.61751,-2.52262" fill="#c8bdb4"/><path d="M340.17715,196.89153c-0.40073,-0.12013 -0.80146,-0.36038 -1.06862,-0.60062c-0.40073,-0.24025 -0.66788,-0.60062 -0.93503,-0.84088c-0.53431,-0.60062 -1.20219,-1.08112 -1.7365,-1.32137c-0.40073,-0.12013 -0.66788,-0.24025 -0.80146,-0.24025c-0.13357,-0.12013 -0.26716,-0.12013 -0.26716,-0.12013c0,0 0.40073,-0.24025 1.20219,-0.12013c0.40073,0 0.80146,0.12013 1.20219,0.36038c0.40073,0.24025 0.80146,0.4805 1.06862,0.84088c0.26715,0.36038 0.53431,0.72075 0.80146,0.96099c0.26715,0.24025 0.53431,0.4805 0.80146,0.72075c0.26715,0.24025 0.5343,0.36038 0.66788,0.4805c0.13357,0.12013 0.26716,0.12013 0.26716,0.12013c0,0 -0.53431,0.12013 -1.20219,-0.24024z" fill="#99918a"/><path d="M337.50562,199.29401c0,0.4805 0,1.08112 -0.40073,1.68174c-0.13357,0.36038 -0.40073,0.60062 -0.66788,0.72075c-0.26715,0.24025 -0.53431,0.36038 -0.80146,0.36038c-0.26715,0.12013 -0.53431,0.12013 -0.66788,0.12013c-0.13357,0 -0.26716,0 -0.26716,0c0,0 0,0 0.13357,-0.12013c0.13357,-0.12013 0.26715,-0.24025 0.40073,-0.36038c0.13357,-0.12013 0.40073,-0.36037 0.53431,-0.4805c0.26715,-0.24025 0.40073,-0.36038 0.53431,-0.60062c0.26715,-0.4805 0.40073,-0.96099 0.53431,-1.32137c0.13357,-0.36038 0.13357,-0.72075 0.13357,-0.72075c0,0 0.26716,0.36037 0.53431,0.72075z" fill="#99918a"/><path d="M323.74725,194.12865c-0.93503,0.36038 -2.13722,0.84088 -3.07226,1.56162c-0.53431,0.36038 -0.93504,0.72075 -1.33576,1.20125c-0.40073,0.36038 -0.93503,0.72075 -1.33576,0.96099c-0.80146,0.4805 -1.46934,0.72075 -1.46934,0.72075c0,0 0.5343,-0.4805 1.20219,-1.08112c0.26715,-0.24025 0.66788,-0.72075 1.06862,-1.08112c0.13357,-0.24025 0.26716,-0.4805 0.53431,-0.72075c0.26715,-0.12013 0.53431,-0.36037 0.80146,-0.60062c1.20219,-0.72075 2.53795,-1.20125 3.47298,-1.32137c1.06862,-0.12013 1.7365,-0.12013 1.7365,-0.12013c0,0 -0.66788,0.24025 -1.60291,0.4805z" fill="#99918a"/><path d="M322.54506,200.73551c0,0.24025 0.13357,0.4805 0.26716,0.84088c0.13357,0.24025 0.13357,0.60062 0.26715,0.84088c0,0.24025 0.13357,0.4805 0.13357,0.4805c0,0 -0.26716,0 -0.53431,-0.12013c-0.40073,-0.24025 -0.66788,-0.60062 -0.80146,-0.96099c-0.13357,-0.36038 -0.13357,-0.84088 0,-1.08112c0.13357,-0.36038 0.26715,-0.4805 0.26715,-0.4805c0,0 0.13357,0.12013 0.40073,0.4805z" fill="#99918a"/><path d="M330.02533,199.7745c0.13357,0.24025 0.13357,0.60062 0.13357,0.96099c0,0.36038 0,0.72075 0,0.96099c0,0.12013 0,0.24025 0,0.36038v0.12013c0,0 -0.26716,-0.12013 -0.53431,-0.36038c-0.26715,-0.24025 -0.40073,-0.72075 -0.40073,-1.08112c0,-0.36038 0.13357,-0.84087 0.26715,-1.08112c0.13357,-0.36038 0.26716,-0.4805 0.26716,-0.4805c0,0 0.13357,0.24024 0.26715,0.60062z" fill="#99918a"/><path d="M324.81585,199.7745c0.26715,0.24025 0.53431,0.72075 0.66788,1.20125c0.13357,0.4805 0.13357,0.96099 0,1.32137c-0.13357,0.4805 -0.40073,0.4805 -0.40073,0.4805c0,0 0,0 0,-0.12013c0,0 -0.13357,-0.24024 -0.13357,-0.36037c-0.13357,-0.36038 -0.26715,-0.72075 -0.40073,-1.20125c-0.13357,-0.36038 -0.26716,-0.84088 -0.26716,-1.20125c0,-0.36038 0,-0.60062 0,-0.60062c0,0 0.26716,0.24024 0.53431,0.4805z" fill="#99918a"/><path d="M328.28885,200.61538c0.13357,0.12013 0.26715,0.4805 0.40073,0.72075c0.13357,0.36038 0.13357,0.60062 0.13357,0.84088c0,0.12013 0,0.12013 0,0.24024c0,0.12013 0,0.12013 0,0.12013c0,0 -0.13359,0 -0.40073,-0.24024c-0.26715,-0.24025 -0.40073,-0.4805 -0.53431,-0.84088c-0.13357,-0.24025 0,-0.60062 0,-0.84088c0,-0.24025 0.13357,-0.36037 0.13357,-0.36037c0,0 0.13357,0.12013 0.26716,0.36037z" fill="#99918a"/><path d="M338.57423,197.97265c0.13357,0.36038 0.40073,0.84088 0.40073,1.44149c0,0.36038 -0.13357,0.60062 -0.26715,0.84088c-0.13357,0.24025 -0.40073,0.4805 -0.53431,0.60062c-0.40073,0.24025 -0.66788,0.24025 -0.66788,0.24025c0,0 0.26715,-0.24024 0.40073,-0.60062c0.13357,-0.24025 0.26716,-0.72075 0.26716,-1.08112c0.13357,-0.36038 0,-0.84088 0,-1.20125c0,-0.36038 0,-0.60062 0,-0.60062c0,0 0.26715,0.12013 0.40073,0.36038z" fill="#99918a"/><path d="M319.73995,202.6575c-0.13357,-0.12013 -0.40073,-0.24024 -0.53431,-0.4805c0,-0.12013 -0.13357,-0.24025 -0.13357,-0.36038c0,-0.12013 0,-0.24024 0,-0.36037c0,-0.60062 0.26716,-1.08112 0.53431,-1.32137c0.26715,-0.36038 0.53431,-0.4805 0.53431,-0.4805c0,0 0,0.24024 0,0.60062c-0.13357,0.36038 -0.13357,0.84088 -0.13357,1.20125c0,0.36038 0.13357,0.72074 0.26716,0.96099c0.26715,0.24025 0.40073,0.4805 0.40073,0.4805c0,0 -0.26715,0.12013 -0.93503,-0.24025z" fill="#99918a"/><path d="M325.88447,194.60915c-0.40073,0.24025 -0.80146,0.4805 -1.33576,0.72075c-0.53431,0.24025 -0.93504,0.60062 -1.33576,0.84088c-0.40073,0.24025 -0.66788,0.4805 -0.66788,0.4805c0,0 0,-0.36037 0.26716,-0.72075c0,-0.12013 0.13357,-0.36037 0.40073,-0.60062c0.26715,-0.24025 0.53431,-0.4805 0.80146,-0.60062c0.53431,-0.36038 1.20219,-0.4805 1.73649,-0.4805c0.53431,0 0.80146,0.12013 0.80146,0.12013c0,0 -0.26716,0.12013 -0.66788,0.24024z" fill="#99918a"/><path d="M327.62096,194.8494c-0.13357,0.24025 -0.40073,0.36038 -0.53431,0.4805c-0.26715,0.12013 -0.40073,0.12013 -0.66788,0.24024c-0.26715,0.12013 -0.40073,0.12013 -0.40073,0.12013c0,0 0,-0.12013 0,-0.36037c0.13357,-0.12013 0.26716,-0.4805 0.53431,-0.60062c0.26715,-0.24025 0.53431,-0.24024 0.80146,-0.24024c0.26715,0 0.40073,0.12013 0.40073,0.12013c0,0 -0.13357,0.12013 -0.13357,0.24025z" fill="#99918a"/><path d="M334.56693,194.12865c0.26715,0 0.66788,0.24024 1.06862,0.4805c0.40073,0.24025 0.5343,0.72075 0.66788,0.96099c0,0.24025 0,0.4805 0,0.4805c0,0 -0.13357,-0.12013 -0.40073,-0.24025c-0.26715,-0.24025 -0.53431,-0.36037 -0.80146,-0.60062c-0.26715,-0.12013 -0.53431,-0.36038 -0.80146,-0.60062c-0.26715,-0.24025 -0.40073,-0.36037 -0.40073,-0.36037c0,0 0.26716,0 0.66788,-0.12013z" fill="#99918a"/></g><g stroke-width="1"><path d="M328.55599,182.11621c1.33576,-0.12013 5.47663,0.72075 5.20948,7.8081c0,0 4.5416,4.32449 -1.46934,4.80498c-6.01094,0.4805 -8.81604,-1.44149 -6.8124,-2.88299c0,0 -2.00365,-9.36971 3.07226,-9.73008z" fill="#847e87"/><path d="M331.76183,182.95708c0.40073,0.24025 0.66788,0.4805 0.93503,0.72075c0.26715,0.36038 0.40073,0.60062 0.66788,0.96099c0.26715,0.24025 0.40073,0.60062 0.53431,0.96099c0.26715,0.72075 0.40073,1.44149 0.53431,2.16224c0,0.36038 0,0.72075 0,1.08112l-0.13357,1.08112l-0.13357,-0.24025c0.66788,0.60062 1.20219,1.20125 1.60291,2.04212c0.13357,0.36038 0.26716,0.84088 0.13357,1.32137c0,0.4805 -0.40073,0.84088 -0.80146,1.08112c-0.80146,0.4805 -1.7365,0.72075 -2.67153,0.72075c-0.93503,0 -1.7365,0 -2.67153,-0.12013c0.93503,0 1.87007,-0.12013 2.67153,-0.24024c0.40073,0 0.80146,-0.12013 1.20219,-0.24025c0.40073,-0.12013 0.80146,-0.24025 1.06862,-0.4805c0.26715,-0.24025 0.53431,-0.4805 0.53431,-0.84088c0.13357,-0.24025 0,-0.60062 -0.13357,-0.96099c-0.40073,-0.60062 -0.93504,-1.32137 -1.46934,-1.80187l-0.13357,-0.12013v-0.12013v-1.08112c0,-0.36038 0,-0.72075 0,-1.08112c-0.13357,-0.72075 -0.13359,-1.44149 -0.40073,-2.04211c-0.13357,-0.36038 -0.26715,-0.60062 -0.40073,-0.96099c-0.13357,-0.36038 -0.26716,-0.72075 -0.53431,-0.96099c-0.40073,-0.4805 -0.93503,-1.08112 -1.60291,-1.4415c0.26715,0.12013 0.66788,0.36038 1.20219,0.60062z" fill="#666168"/><path d="M330.69321,189.80418c0.53431,-0.12013 1.20219,-0.36038 1.87007,-0.36038c0.66788,0.12013 1.33576,0.36037 1.7365,0.72075c0.26715,0.36038 0.40073,0.60062 0.40073,0.60062c0,0 -0.13357,-0.12013 -0.26715,-0.12013c-0.13357,-0.12013 -0.26716,-0.12013 -0.53431,-0.24025c-0.13357,-0.12013 -0.40073,-0.24025 -0.66788,-0.24025c-0.26715,-0.12013 -0.53431,-0.12013 -0.80146,-0.12013c-0.53431,0 -1.06862,0.12013 -1.60291,0.12013c-0.40073,0 -0.80146,0 -0.80146,0c0,0 0.13357,-0.24024 0.66788,-0.36037z" fill="#666168"/></g><path d="M335.9027,173.58737c-0.53431,0 -1.20219,0 -2.13722,0.12013c-0.93503,0.12013 -1.87007,0.24025 -2.93868,0.4805c-0.53431,0.12013 -1.06862,0.24024 -1.60291,0.4805c-0.53431,0.24025 -1.20219,0.36038 -1.87007,0.4805c-1.33576,0.12013 -2.53795,-0.12013 -3.60656,-0.24025c-1.20219,-0.24025 -2.13722,-0.36038 -3.07226,-0.36038c-0.93503,-0.12013 -1.60291,-0.12013 -2.13722,-0.12013c-0.53431,0 -0.80146,0 -0.80146,0c0,0 1.06862,-0.24025 2.93869,-0.36038c0.93503,0 2.00365,0 3.07226,0.12013c1.06862,0 2.27081,0.24025 3.33941,0.12013c0.53431,0 1.06862,-0.12013 1.60291,-0.36038c0.53431,-0.12013 1.20219,-0.36037 1.73649,-0.4805c1.06862,-0.24025 2.13723,-0.24025 3.07226,-0.24025c1.7365,0 2.93868,0.24025 2.93868,0.24025c0,0 -0.26716,0.12013 -0.53431,0.12013z" fill="#666168" stroke-width="1"/><path d="M332.02898,172.02574c-0.53431,0.12013 -1.33576,0.24025 -2.13722,0.4805c-0.40073,0.12013 -0.80146,0.24024 -1.20219,0.36037c-0.40073,0.12013 -0.93504,0.24025 -1.33576,0.36038c-0.53431,0.12013 -0.93503,0.24025 -1.46934,0.24025c-0.40073,0 -0.93503,-0.12013 -1.33576,-0.24025c-0.40073,-0.12013 -0.80146,-0.24025 -1.20219,-0.36038c-0.40073,-0.12013 -0.80146,-0.24024 -1.06862,-0.24024c-0.66788,0 -1.20219,-0.12013 -1.60291,-0.12013c-0.40073,0 -0.66788,0 -0.66788,0c0,0 0.26716,0 0.66788,-0.12013c0.40073,0 0.93503,-0.12013 1.60291,-0.12013c0.66788,-0.12013 1.46934,0 2.27081,0.24025c0.40073,0.12013 0.80146,0.12013 1.20219,0.12013c0.40073,0 0.80146,0 1.20219,-0.12013c0.40073,-0.12013 0.80146,-0.24025 1.20219,-0.36038c0.53431,-0.12013 0.93503,-0.24024 1.33576,-0.36037c0.80146,-0.24025 1.60291,-0.36038 2.27081,-0.36038c1.33576,-0.12013 2.27081,0 2.27081,0c0,0 -0.93504,0.12013 -2.00365,0.60062z" fill="#666168" stroke-width="1"/><g stroke-width="1"><g><path d="M298.5013,169.8635c-2.13722,-8.40871 1.60291,-30.27138 3.20584,-34.59587c1.60291,-4.4446 1.60291,-7.92821 0.26715,-12.2527c-2.13722,-6.8471 0.26716,-14.41494 0.26716,-14.41494c1.20219,4.56473 10.81969,10.21058 14.1591,13.09357c3.33941,2.88299 8.01459,15.25582 9.88466,18.01868c1.87007,2.76286 7.21313,5.16535 9.75108,8.40872c2.53795,3.36348 12.55619,18.73942 12.55619,18.73942c-27.11602,-5.52573 -50.09117,3.00312 -50.09117,3.00312z" fill="#3f3f74"/><path d="M297.56626,168.66226c0,0 -0.13357,-1.56162 -0.13357,-3.84398c-0.13357,-2.28237 -0.13357,-5.28548 0.13357,-8.40872c0.13357,-1.44149 0.26715,-3.00312 0.40073,-4.4446c0.26715,-1.32137 0.40073,-2.76286 0.66788,-3.84398c0.26715,-1.20125 0.40073,-2.16224 0.66788,-2.76286c0.13357,-0.72075 0.26716,-1.08112 0.26716,-1.08112c0,0 0,0.36038 -0.13357,1.08112c-0.13357,0.72075 -0.26715,1.68174 -0.40073,2.76286c-0.13357,2.28237 -0.40073,5.4056 -0.53431,8.40871c-0.13357,3.00312 -0.13357,6.12635 -0.13357,8.40871c0.13357,2.28237 0.13357,3.84399 0.13357,3.84399z" fill="#1a324a"/><path d="M330.02533,143.19586c-0.80146,-0.4805 -1.87007,-1.20125 -2.93868,-1.92198c-1.06862,-0.84088 -2.00365,-1.56163 -2.67153,-2.28237c-0.66788,-0.72075 -1.06862,-1.20125 -1.06862,-1.20125c0,0 0.53431,0.36038 1.33576,0.84088c0.80146,0.60062 1.7365,1.32137 2.8051,2.04211c0.93503,0.72075 2.00365,1.56163 2.67153,2.16224c0.80146,0.60062 1.20219,1.08112 1.20219,1.08112c0,0 -0.66788,-0.24025 -1.33576,-0.72075z" fill="#1a324a"/><path d="M303.5772,131.66391c-0.26715,0.84088 -0.66788,2.04211 -1.06862,3.12323c-0.40073,1.20125 -0.93503,2.28237 -1.20219,3.12323c-0.13357,0.4805 -0.40073,0.84088 -0.40073,1.08112c-0.13357,0.24025 -0.13357,0.36038 -0.13357,0.36038c0,0 -0.13357,-0.60062 0,-1.56162c0,-0.96099 0.40073,-2.04212 0.80146,-3.24337c0.40073,-1.08112 0.93503,-2.16224 1.46934,-3.00312c0.53431,-0.84088 0.93503,-1.32137 0.93503,-1.32137c0,0 -0.13357,0.60062 -0.40073,1.4415z" fill="#1a324a"/></g><g><path d="M378.38002,174.30812c-7.48028,-2.88299 -44.34738,-7.44772 -66.52107,-4.4446c-22.1737,3.00312 -38.87075,9.60996 -47.55323,12.97345c0,0 39.40506,-16.21681 42.21017,-17.53818c2.8051,-1.20125 10.95327,-6.8471 36.33279,-1.20125c25.37953,5.64585 35.53134,10.21059 35.53134,10.21059z" fill="#3f3f74"/><path d="M314.9312,165.17865c-0.80146,0.12013 -1.87007,0.36037 -3.20584,0.60062c-2.53795,0.60062 -6.01094,1.4415 -9.48392,2.40249c-1.7365,0.4805 -3.33941,1.08112 -4.94233,1.56162c-0.80146,0.36038 -1.60291,0.60062 -2.27081,0.84088c-0.66788,0.24025 -1.33576,0.4805 -2.00365,0.72075c-0.66788,0.24025 -1.20219,0.36037 -1.7365,0.60062c-0.53431,0.12013 -0.93503,0.36038 -1.33576,0.4805c-0.80146,0.36038 -1.20219,0.4805 -1.20219,0.4805c0,0 0.40073,-0.24024 1.06862,-0.60062c0.80146,-0.36038 1.7365,-0.96099 2.93869,-1.44149c1.33576,-0.60062 2.67153,-1.20125 4.27445,-1.80187c1.46934,-0.60062 3.20584,-1.20125 4.94232,-1.68174c0.80146,-0.24025 1.7365,-0.4805 2.53795,-0.72075c0.80146,-0.24025 1.7365,-0.4805 2.53795,-0.60062c1.60291,-0.36038 3.20584,-0.4805 4.5416,-0.72075c2.67153,-0.36038 4.5416,-0.36038 4.5416,-0.36038c0,0 -0.40073,0 -1.20219,0.24025z" fill="#1a324a"/><path d="M350.19538,165.8994c-1.06862,-0.24025 -2.40438,-0.4805 -3.74014,-0.72075c-1.33576,-0.24025 -2.8051,-0.4805 -4.27445,-0.60062c-1.46934,-0.24025 -2.93869,-0.36038 -4.27445,-0.4805c-1.33576,-0.12013 -2.67153,-0.24024 -3.74014,-0.24024c-1.06862,-0.12013 -2.00365,-0.12013 -2.67153,-0.12013c-0.66788,0 -1.06862,0 -1.06862,0c0,0 0.40073,0 1.06862,-0.12013c0.66788,-0.12013 1.60291,-0.24025 2.67153,-0.24025c0.53431,0 1.06862,0 1.7365,0c0.66788,0 1.33576,0 2.00365,0c1.46934,0.12013 2.93869,0.24025 4.40803,0.36038c1.46934,0.24025 2.93869,0.4805 4.27445,0.72075c1.33576,0.36038 2.53795,0.60062 3.60656,0.96099c2.13722,0.60062 3.47298,1.20125 3.47298,1.20125c0,0 -1.33576,-0.36037 -3.47298,-0.72075z" fill="#1a324a"/></g></g></g></g></g></svg>