<svg version="1.1" xmlns="http://www.w3.org/2000/svg" xmlns:xlink="http://www.w3.org/1999/xlink" width="55.66831" height="54.34838" viewBox="0,0,55.66831,54.34838"><g transform="translate(-212.16585,-152.82581)"><g data-paper-data="{&quot;isPaintingLayer&quot;:true}" fill-rule="nonzero" stroke="none" stroke-linecap="butt" stroke-linejoin="miter" stroke-miterlimit="10" stroke-dasharray="" stroke-dashoffset="0" style="mix-blend-mode: normal"><path d="M239.99625,180.83496c0,2.34462 -6.23005,4.24532 -13.9152,4.24532c-7.68515,0 -13.9152,-1.90069 -13.9152,-4.24532c0,-2.34462 6.23005,-4.24532 13.9152,-4.24532c7.68515,0 13.9152,1.90069 13.9152,4.24532z" fill="#d1d1d1" stroke-width="0"/><path d="M267.83416,182.02172c0,2.34463 -6.23005,4.24532 -13.9152,4.24532c-7.68515,0 -13.9152,-1.9007 -13.9152,-4.24532c0,-2.34463 6.23005,-4.24532 13.9152,-4.24532c7.68515,0 13.9152,1.90069 13.9152,4.24532z" fill="#d1d1d1" stroke-width="0"/><path d="M234.2531,187.48064c0,-10.87646 2.21748,-19.69356 4.95287,-19.69356c2.73539,0 4.95287,8.8171 4.95287,19.69356c0,10.87646 -2.21748,19.69356 -4.95287,19.69356c-2.73539,0 -4.95287,-8.8171 -4.95287,-19.69356z" fill="#d17dc7" stroke-width="0"/><path d="M231.54081,162.71629c0,-4.8195 3.4318,-8.72648 7.66516,-8.72648c4.23334,0 7.66516,3.90698 7.66516,8.72648c0,4.8195 -3.4318,8.72648 -7.66516,8.72648c-4.23334,0 -7.66516,-3.90698 -7.66516,-8.72648z" fill="#d1a174" stroke-width="0"/><path d="M250.89087,159.18216c-1.25567,1.25567 -2.51133,0.35232 -2.83895,0.07415c-2.59581,-0.99058 -5.28424,-1.45829 -7.93271,-2.30612c-0.07748,0.00676 -0.12296,0.00676 -0.12296,0.00676c-2.95115,-0.0524 -5.3775,1.36909 -7.91304,2.77969l-1.84135,1.15165c0,0 -1.7516,1.09475 -2.84635,-0.65685c-1.09475,-1.7516 0.65685,-2.84635 0.65685,-2.84635l1.93226,-1.20685c3.25581,-1.80655 6.23296,-3.30471 10.01163,-3.35242c0,0 0.06512,0 0.17224,0.01157c0.52355,-0.0486 0.95266,0.09444 0.95266,0.09444c2.9516,0.98809 5.93775,1.48342 8.84043,2.63609l0.92929,0.69311c0,0 1.46057,1.46057 0,2.92116z" fill="#000000" stroke-width="0.5"/></g></g></svg>