<svg version="1.1" xmlns="http://www.w3.org/2000/svg" xmlns:xlink="http://www.w3.org/1999/xlink" width="55.14035" height="66.98439" viewBox="0,0,55.14035,66.98439"><g transform="translate(-212.42983,-146.50781)"><g data-paper-data="{&quot;isPaintingLayer&quot;:true}" fill-rule="nonzero" stroke="none" stroke-linecap="butt" stroke-linejoin="miter" stroke-miterlimit="10" stroke-dasharray="" stroke-dashoffset="0" style="mix-blend-mode: normal"><path d="M223.17639,194.49824c-12.66248,-16.66959 -14.38222,-36.67404 -3.84116,-44.68119c10.54106,-8.00715 29.35125,-0.98486 42.01372,15.68472c3.63439,4.78451 -7.20265,5.80199 -5.40237,10.77343c4.47204,12.34942 16.75909,28.19882 9.24352,33.90776c-10.54106,8.00715 -29.35125,0.98486 -42.01372,-15.68472z" fill="#ecba72" stroke-width="0"/><path d="M240.18907,199.80591c-0.2715,1.98735 -2.25885,1.71586 -2.25885,1.71586l-1.99038,-0.74113c-3.97582,-4.35744 -7.35818,-8.82282 -9.67259,-14.23441c-0.86927,-2.61931 -2.01497,-4.81626 -3.12466,-7.29271c-1.36344,-3.04273 -4.10879,-5.49665 -4.01615,-9.13062c0.13585,-5.32928 4.86475,-11.4721 9.84984,-13.22937c0.9543,-0.3364 2.01672,-0.22228 3.00095,-0.45707c0.77552,-0.185 1.45841,-0.76919 2.25521,-0.7968c2.93708,-0.10177 2.94073,0.9394 5.38674,1.9384c0.79773,0.32581 1.80166,0.1658 2.49459,0.67801c1.00532,0.74312 1.57524,1.9417 2.36286,2.91254c0,0 1.2133,1.59725 -0.38395,2.81054c-1.59725,1.2133 -2.81054,-0.38395 -2.81054,-0.38395c-0.44866,-0.65666 -0.70471,-1.4996 -1.34599,-1.96999c-0.4766,-0.3496 -1.19721,-0.08426 -1.74775,-0.29935c-0.1138,-0.04446 -2.80336,-1.78213 -3.66558,-1.68509c-5.11908,0.57608 -11.12716,4.76258 -11.38517,10.53976c-0.06798,1.52215 1.79582,4.30572 2.28445,5.15496c1.80593,3.13873 3.39939,6.34485 4.5907,9.77409c2.11293,4.92625 5.25523,8.99369 8.88873,12.96525l-0.42831,-0.52774c0,0 1.98735,0.2715 1.71586,2.25885z" fill="#d0a364" stroke-width="0.5"/><path d="M244.08669,191.07946c-1.94604,0.48601 -2.43205,-1.46004 -2.43205,-1.46004l-0.51429,-2.05929c-0.67357,-2.82528 -3.11581,-5.06691 -1.31081,-8.28655c0.73317,-1.30778 2.07584,-2.74198 3.57506,-2.72934c1.35628,0.01143 1.97802,1.85633 2.96702,2.78449c0,0 1.2133,1.59725 -0.38395,2.81054c-1.21111,0.91998 -2.20147,0.22407 -2.60953,-0.16618c-0.02973,0.21894 -0.0396,0.43528 0.02112,0.64425c0.39931,1.37434 1.27504,2.58514 1.63318,3.97077l0.51429,2.05929c0,0 0.48601,1.94604 -1.46004,2.43205z" fill="#d0a364" stroke-width="0.5"/></g></g></svg>