<svg version="1.1" xmlns="http://www.w3.org/2000/svg" xmlns:xlink="http://www.w3.org/1999/xlink" width="125" height="109.29335" viewBox="0,0,125,109.29335"><g transform="translate(-177.46181,-135.40478)"><g data-paper-data="{&quot;isPaintingLayer&quot;:true}" fill-rule="nonzero" stroke="none" stroke-width="0" stroke-linecap="butt" stroke-linejoin="miter" stroke-miterlimit="10" stroke-dasharray="" stroke-dashoffset="0" style="mix-blend-mode: normal"><path d="M299.40451,235.94813c0,4.83249 -26.4152,8.75 -59,8.75c-32.5848,0 -59,-3.91751 -59,-8.75c0,-4.83249 26.4152,-8.75 59,-8.75c32.5848,0 59,3.91751 59,8.75z" fill="#000000"/><path d="M177.46181,177.51283c0,-30.27621 27.18771,-42.10805 61.70551,-42.10805c34.5178,0 63.29449,11.83184 63.29449,42.10805c0,30.27621 -27.9822,54.81992 -62.5,54.81992c-34.5178,0 -62.5,-24.54371 -62.5,-54.81992z" fill="#232323"/><path d="M187.84952,160.26706c0,-8.92198 22.76518,-16.15466 50.84746,-16.15466c28.08227,0 50.84746,7.23268 50.84746,16.15466c0,8.92198 -22.76518,16.15466 -50.84746,16.15466c-28.08227,0 -50.84746,-7.23268 -50.84746,-16.15466z" fill="#00ba20"/><path d="M183.67201,212.70131c0,-6.91243 2.59882,-16.71508 7.7522,-20.32432c3.2816,-2.29832 9.45689,0.18544 10.65058,0.18544c3.06825,0 -6.59722,6.39417 -6.59722,17.70833c0,11.31417 9.66547,23.26389 6.59722,23.26389c-1.35473,0 -7.1841,3.35257 -10.94567,0.30592c-4.7578,-3.85354 -7.45711,-14.82064 -7.45711,-21.13925z" fill="#232323"/><path d="M285.14989,234.18778c-3.76157,3.04665 -9.59094,-0.30592 -10.94567,-0.30592c-3.06825,0 6.59722,-11.94972 6.59722,-23.26389c0,-11.31417 -9.66547,-17.70833 -6.59722,-17.70833c1.19369,0 7.36898,-2.48376 10.65058,-0.18544c5.15337,3.60925 7.7522,13.4119 7.7522,20.32433c0,6.3186 -2.69931,17.28571 -7.45711,21.13925z" data-paper-data="{&quot;index&quot;:null}" fill="#232323"/></g></g></svg>