<svg version="1.1" xmlns="http://www.w3.org/2000/svg" xmlns:xlink="http://www.w3.org/1999/xlink" width="54.01601" height="40.85407" viewBox="0,0,54.01601,40.85407"><g transform="translate(-212.96908,-159.59588)"><g data-paper-data="{&quot;isPaintingLayer&quot;:true}" fill-rule="nonzero" stroke-linecap="butt" stroke-linejoin="miter" stroke-miterlimit="10" stroke-dasharray="" stroke-dashoffset="0" style="mix-blend-mode: normal"><g><path d="M214.38868,192.14731l2.63951,-17.82767l46.48909,6.88304l-2.63952,17.82767z" fill="#d0ab7d" stroke="#bf8d47" stroke-width="2.5"/><path d="M223.01722,176.23477c1.50596,-7.62391 11.12968,-12.14446 21.49518,-10.09695c10.36551,2.04751 17.54758,9.88773 16.04163,17.51163c-0.4689,2.37381 -0.63367,6.67147 -2.64938,7.65485c-1.98701,0.96938 -0.4245,-1.50417 -3.61519,-2.0871c-2.18776,-0.3997 -9.03419,1.11785 -11.11666,1.13899c-1.69455,0.0172 -2.33885,3.74085 -4.11396,3.39021c-1.59239,-0.31455 -5.88226,-0.49657 -7.30443,-2.80573c-1.15042,-1.86793 0.53399,-5.89445 -0.48143,-6.49131c-0.68587,-0.40315 -2.35171,1.26318 -4.84275,0.88961c-2.57298,-0.38586 -5.9707,-2.80899 -6.52578,-3.05587c-3.53072,-1.57038 2.28226,-1.84399 3.11275,-6.04834z" fill="#09b800" stroke="none" stroke-width="0"/><path d="M228.1209,195.09392l-8.9346,-20.07751l32.65965,-11.23765l8.9346,20.0775z" fill="#f7ff00" stroke="none" stroke-width="0"/><path d="M227.50665,179.59553c0,-5.01404 3.9723,-9.07871 8.87238,-9.07871c4.90008,0 8.87238,4.06467 8.87238,9.07871c0,5.01404 -3.9723,9.07871 -8.87238,9.07871c-4.90008,0 -8.87238,-4.06467 -8.87238,-9.07871z" fill="#d1b87d" stroke="none" stroke-width="0"/><path d="M216.98953,178.893l1.8832,-17.92335l46.73859,4.91079l-1.8832,17.92335z" fill="#d0ab7d" stroke="#bf8d47" stroke-width="2.5"/><path d="M226.21319,164.69589c0.13622,0.47676 0.02928,0.81844 -0.14933,1.05718c0.60588,0.17008 0.82644,0.83177 0.82644,0.83177c0.32807,1.68706 1.75725,4.53734 -2.38841,3.80713c-2.2002,-0.38754 -1.85166,-3.81547 -1.70337,-5.21345l1.86937,-1.34113c0,0 1.2019,-0.3434 1.54531,0.8585zM225.31394,165.79268l-0.03072,-0.33809c-0.01243,0.10594 -0.01686,0.22583 -0.01607,0.35424c0.01377,-0.00497 0.02777,-0.00982 0.042,-0.01456c0.0016,-0.00053 0.00319,-0.00106 0.00478,-0.00159z" fill="#d1b87d" stroke="none" stroke-width="0.5"/><path d="M227.09075,162.68024c1.25,0 1.25,1.25 1.25,1.25l-0.02977,1.38021c-0.21122,0.94926 -0.45176,1.89209 -0.70743,2.83035c0,0 -0.16694,0.61211 -0.69904,0.84521c-0.06681,0.21126 -0.16,0.35105 -0.16,0.35105l-2.56112,-0.40186c0.02318,-0.13555 0.05736,-0.27075 0.10152,-0.40366c-0.49937,-0.26538 -0.63248,-0.86437 -0.63248,-0.86437l-0.27141,-1.22136c-0.02328,-0.09534 -0.03561,-0.19497 -0.03561,-0.29748c0,-0.69036 0.55964,-1.25 1.25,-1.25c0.45088,0 0.846,0.23872 1.06587,0.59666l0.03033,0.04767c0.06176,-0.2577 0.12151,-0.51586 0.17891,-0.77454l-0.02977,-0.83788c0,0 0,-1.25 1.25,-1.25z" fill="#ced17d" stroke="none" stroke-width="0.5"/><path d="M234.91914,174.98988c0.76627,0.09807 1.69691,0.04185 1.87205,0.69476c0.77565,2.89157 -2.43277,4.34415 -4.46776,3.21078c-4.09433,-2.2803 0.33176,-4.36367 2.25949,-4.81768z" fill="#ced17d" stroke="none" stroke-width="0.5"/><path d="M238.5741,170.22999c-1.17041,-0.4389 -0.73151,-1.60932 -0.73151,-1.60932l1.69947,-1.91501c0.89116,0.10384 1.78885,0.37072 2.58844,0.79578l0.71206,-0.71206l0.15267,0.15267c0.10366,-0.14868 0.20732,-0.29735 0.31099,-0.44603l0.52228,0.15677l0.02233,-0.22332l1.38631,0.13863l-0.03658,0.36583c0.34857,-0.14465 0.99357,-0.27189 1.49077,0.4384c0.71683,1.02404 -0.30721,1.74087 -0.30721,1.74087c-0.07927,0.05225 -0.15853,0.10449 -0.2378,0.15674c-0.25159,0.70205 -1.03384,0.7576 -1.15605,0.762c-0.11116,0.07327 -0.22232,0.14654 -0.33349,0.21981l-0.3758,-0.07727v0.1351h-1.94083v0c-0.2604,0 -0.5022,-0.07962 -0.70238,-0.21585c-0.19768,-0.07738 -0.32488,-0.17278 -0.32488,-0.17278c-0.54677,-0.45024 -1.28978,-0.68958 -1.99716,-0.72555l0.86769,0.30308c0,0 -0.4389,1.17041 -1.60932,0.73151z" fill="#ced17d" stroke="none" stroke-width="0.5"/><path d="M262.81919,174.10422c-0.04755,-0.01707 -0.09506,-0.03427 -0.14253,-0.0516h-1.48271c-0.14343,0 -0.28122,-0.02416 -0.40953,-0.06863c-0.18762,1.29565 -0.91374,2.67827 -2.12191,2.81776c-3.14486,0.36309 -3.11684,-1.77446 -2.56863,-3.67994c-0.14341,-0.05162 -0.2518,-0.14313 -0.30621,-0.29645c-0.26948,-0.75927 0.40849,-1.50245 0.84144,-2.24979c0.0451,-0.33072 0.25555,-1.10241 1.2377,-1.10241c1.25,0 1.25,1.25 1.25,1.25l-0.03679,0.13929c0.03052,0.04589 0.05633,0.09267 0.07801,0.13985c0.40514,0.0452 0.8677,0.26811 1.25025,0.82805c0.14581,-0.11797 0.31869,-0.2038 0.50786,-0.24673l1.6382,-0.40955c0,0 1.02469,-0.25617 1.42571,0.64438c0.16154,0.079 0.32306,0.15585 0.48433,0.20281l-0.07743,2.45395c0,0 -0.98452,0.49226 -1.56776,-0.37095zM258.48543,173.58454c-0.03349,0.07455 -0.06725,0.14898 -0.10135,0.22325c-0.08041,0.17512 -0.2708,0.72166 -0.20393,0.54093c0.09188,-0.24835 0.30959,-0.51376 0.30529,-0.76419z" fill="#ced17d" stroke="none" stroke-width="0.5"/><path d="M251.22066,196.17348c-0.01003,0.08729 -0.02903,0.17998 -0.05853,0.27831c-0.35918,1.19728 -1.55647,0.8381 -1.55647,0.8381l-1.89752,-0.71601c-0.16696,-0.98364 -1.11646,-2.16577 -0.50087,-2.95093c0.47857,-0.61039 4.19945,0.01456 5.00224,0.12157c0,0 1.23903,0.1652 1.07383,1.40424c-0.1652,1.23903 -1.40424,1.07383 -1.40424,1.07383c-0.1271,-0.01695 -0.36967,-0.02738 -0.65845,-0.04911z" fill="#ced17d" stroke="none" stroke-width="0.5"/><path d="M246.13321,190.23292c-1.07187,-0.64312 -0.42875,-1.71499 -0.42875,-1.71499l0.26977,0.23104c-0.15546,-0.78865 -0.45769,-1.62881 -1.0522,-2.16981c0,0 -0.88388,-0.88388 0,-1.76777c0.88388,-0.88388 1.76777,0 1.76777,0c0.86744,0.9178 1.40936,2.15147 1.72041,3.37543l-0.56202,1.61735c0,0 -0.64312,1.07187 -1.71499,0.42875z" fill="#ced17d" stroke="none" stroke-width="0.5"/><path d="M218.77822,191.1013c-0.13804,-1.24235 1.10432,-1.38039 1.10432,-1.38039l0.49699,0.22471c-0.28319,-0.79736 -0.14107,-1.69317 -0.08084,-2.53719c0,0 0.08906,-1.24682 1.33588,-1.15776c1.24682,0.08906 1.15776,1.33588 1.15776,1.33588c-0.09902,1.38508 -0.32478,2.76366 -0.63536,4.1171l-1.99836,0.50197c0,0 -1.24235,0.13804 -1.38039,-1.10432z" fill="#ced17d" stroke="none" stroke-width="0.5"/></g></g></g></svg>