<svg version="1.1" xmlns="http://www.w3.org/2000/svg" xmlns:xlink="http://www.w3.org/1999/xlink" width="60.78833" height="36.96823" viewBox="0,0,60.78833,36.96823"><g transform="translate(-209.60583,-161.51588)"><g data-paper-data="{&quot;isPaintingLayer&quot;:true}" fill-rule="nonzero" stroke="none" stroke-linecap="butt" stroke-linejoin="miter" stroke-miterlimit="10" stroke-dasharray="" stroke-dashoffset="0" style="mix-blend-mode: normal"><path d="M209.60584,184.91977c0,-4.45298 3.59845,-10.3733 6.85178,-13.55721c3.87974,-3.79696 8.1561,-5.70058 13.76494,-5.55036c3.72865,0.09986 5.69406,-4.25323 9.77744,-4.25323c4.38001,0 7.52546,-0.57749 10.04485,2.49624c2.15569,2.63001 4.20176,2.96516 7.0311,4.89268c2.94242,2.00455 6.67053,5.58794 8.98634,7.65026c2.57232,2.29075 4.33188,4.87424 4.33188,8.32163c0,12.90182 -14.11031,13.56434 -30.89655,13.56434c-16.78623,0 -29.89178,-0.66252 -29.89178,-13.56434z" fill="#ff99c3" stroke-width="0"/><path d="M221.47722,177.97475c1.11803,0.55902 0.55902,1.67705 0.55902,1.67705l-0.64268,0.96053c-0.95839,0.68445 -2.16386,1.06528 -2.95343,1.93911c-0.37516,0.41519 -0.0398,4.52321 -0.0398,4.57947c0,0 0,1.25 -1.25,1.25c-1.25,0 -1.25,-1.25 -1.25,-1.25c0,-1.38336 -0.47171,-4.68 0.46258,-5.97057c0.05229,-0.07223 3.44368,-2.4867 3.57755,-2.58234l-0.14029,-0.04423c0,0 0.55902,-1.11803 1.67705,-0.55902z" fill="#cb7a9c" stroke-width="0.5"/><path d="M235.60058,168.7373c0.55902,1.11803 -0.55902,1.67705 -0.55902,1.67705l-1.0614,0.38316c-0.65255,-0.0083 -4.20201,0.02923 -4.51759,0.811c-0.29691,0.73551 -0.31779,1.56973 -0.65525,2.28753c-0.43395,0.92304 -0.9006,1.91681 -0.86172,2.93602c0,0 0,1.25 -1.25,1.25c-1.25,0 -1.25,-1.25 -1.25,-1.25c0.06376,-2.42003 1.02635,-6.7934 3.58615,-7.95699c1.1425,-0.51934 3.77096,-0.56574 4.9484,-0.57756l-0.05663,-0.11923c0,0 1.11803,-0.55902 1.67705,0.55902z" fill="#cb7a9c" stroke-width="0.5"/><path d="M253.20103,171.93854c-0.74376,0.74376 -1.48751,0.23582 -1.70464,0.05608c-3.05577,-0.33992 -6.15267,-0.19235 -9.2269,-0.19235c0,0 -1.25,0 -1.25,-1.25c0,-1.25 1.25,-1.25 1.25,-1.25c3.32154,0 6.65312,-0.14761 9.95151,0.26084l0.98003,0.60766c0,0 0.88388,0.88388 0,1.76777z" fill="#cb7a9c" stroke-width="0.5"/><path d="M263.36956,183.85946c-1.25,0 -1.25,-1.25 -1.25,-1.25l0.03732,-0.19921c-0.60584,-2.57105 -2.60336,-4.67245 -5.05712,-5.68522c0,0 -1.14893,-0.4924 -0.65653,-1.64133c0.4924,-1.14893 1.64133,-0.65653 1.64133,-0.65653c3.19371,1.40858 5.61679,4.00638 6.49768,7.37674l0.03732,0.80555c0,0 0,1.25 -1.25,1.25z" fill="#cb7a9c" stroke-width="0.5"/><path d="M251.70148,175.77066c0.55902,-1.11803 1.67705,-0.55902 1.67705,-0.55902l1.3538,0.68927c1.9572,0.49733 2.51516,1.6656 4.4236,2.57622c0,0 1.11803,0.55902 0.55902,1.67705c-0.55902,1.11803 -1.67705,0.55902 -1.67705,0.55902c-1.28023,-0.66319 -2.81236,-2.29866 -4.11691,-2.44761l-1.6605,-0.81788c0,0 -1.11803,-0.55902 -0.55902,-1.67705z" fill="#cb7a9c" stroke-width="0.5"/><path d="M229.7544,178.88824c-0.80023,-0.96028 0.16005,-1.76051 0.16005,-1.76051l1.7681,-1.42337c1.17079,-0.26406 2.33728,-0.54727 3.5016,-0.83856c0,0 1.21268,-0.30317 1.51585,0.90951c0.30317,1.21268 -0.90951,1.51585 -0.90951,1.51585c-1.00326,0.25064 -2.0084,0.50442 -3.02938,0.66858l-1.24619,1.08855c0,0 -0.96028,0.80023 -1.76051,-0.16005z" fill="#cb7a9c" stroke-width="0.5"/><path d="M223.93251,193.90712c-1.25,0 -1.25,-1.25 -1.25,-1.25c0,-2.09326 0,-4.43772 0,-6.53098c0,0 0,-1.25 1.25,-1.25c1.25,0 1.25,1.25 1.25,1.25c0,2.09326 0,4.18652 0,6.27979v0.25119c0,0 0,1.25 -1.25,1.25z" fill="#cb7a9c" stroke-width="0.5"/><path d="M242.26353,181.10231c0,1.25 -1.25,1.25 -1.25,1.25l-0.35162,-0.00913c-3.52591,0.4284 -7.62752,0.76238 -10.45319,3.02461c0,0 -1,0.75 -1.75,-0.25c-0.75,-1 0.25,-1.75 0.25,-1.75c3.38125,-2.43077 7.55781,-3.00896 11.65166,-3.50636l0.65315,-0.00913c0,0 1.25,0 1.25,1.25z" fill="#cb7a9c" stroke-width="0.5"/><path d="M257.78314,188.17097c-1.04006,0.69338 -1.73344,-0.34669 -1.73344,-0.34669l-0.27581,-0.49788c-0.58611,-0.50238 -1.17223,-1.00477 -1.75834,-1.50715c0,0 -0.94907,-0.81349 -0.13558,-1.76256c0.81349,-0.94907 1.76256,-0.13558 1.76256,-0.13558c0.58611,0.50238 1.17223,1.00477 1.75834,1.50715l0.72896,1.00927c0,0 0.69338,1.04006 -0.34669,1.73344z" fill="#cb7a9c" stroke-width="0.5"/><path d="M235.49327,186.87972c0,-1.25 1.25,-1.25 1.25,-1.25h0.25119c2.16704,0.00809 2.70808,0.74629 4.51066,1.34901c1.32222,0.44211 2.78055,0.32905 4.12206,0.70861c0,0 1.2019,0.3434 0.8585,1.54531c-0.3434,1.2019 -1.54531,0.8585 -1.54531,0.8585c-1.42229,-0.41083 -2.96497,-0.32664 -4.36981,-0.79367c-1.18995,-0.39559 -2.32214,-1.17328 -3.57611,-1.16777h-0.25119c0,0 -1.25,0 -1.25,-1.25z" fill="#cb7a9c" stroke-width="0.5"/><path d="M258.59096,192.15474c0,1.25 -1.25,1.25 -1.25,1.25h-0.25119c-1.80662,-0.02002 -3.32077,-0.60418 -5.07581,-1.04209c0,0 -1.21268,-0.30317 -0.90951,-1.51585c0.30317,-1.21268 1.51585,-0.90951 1.51585,-0.90951c1.50665,0.37736 2.92346,0.99108 4.46947,0.96744h0.25119c0,0 1.25,0 1.25,1.25z" fill="#cb7a9c" stroke-width="0.5"/></g></g></svg>