<svg version="1.1" xmlns="http://www.w3.org/2000/svg" xmlns:xlink="http://www.w3.org/1999/xlink" width="148.94853" height="310.99843" viewBox="0,0,148.94853,310.99843"><g transform="translate(-142.28297,-14.6)"><g data-paper-data="{&quot;isPaintingLayer&quot;:true}" fill-rule="nonzero" stroke="none" stroke-linecap="butt" stroke-linejoin="miter" stroke-miterlimit="10" stroke-dasharray="" stroke-dashoffset="0" style="mix-blend-mode: normal"><g stroke-width="1"><g><path d="M216.4,311.2c0,0 5.2,5.5 8.2,6.9c3,1.4 4.7,5.9 1.2,7.1c-4,1.3 -22,-0.5 -25.5,-6.6c-3.4,-6.2 7.3,-14.9 16.1,-7.4z" fill="#382a1e"/><path d="M216.4,309.4c0,0 4.3,5.5 7.3,6.9c3,1.4 6.1,6.3 2,7.1c-4.1,0.7 -22,-0.5 -25.5,-6.6c-3.4,-6.2 7.3,-14.9 16.2,-7.4z" fill="#4d3a29"/><path d="M220,315c-0.2,0.1 -0.4,0.3 -0.6,0.5c-0.3,0.2 -0.5,0.4 -0.7,0.6c-0.4,0.4 -0.8,0.9 -1.2,1.2c-0.3,0.3 -0.6,0.5 -0.6,0.5c0,0 0.1,-0.4 0.3,-0.8c0.3,-0.5 0.6,-1 1.1,-1.5c0.5,-0.5 1.1,-0.9 1.6,-1c0.2,-0.1 0.5,0 0.6,0c0.1,0 0.2,0.1 0.2,0.1c0,0 -0.3,0 -0.7,0.4z" fill="#382a1e"/><path d="M218,313c-0.2,0.1 -0.4,0.3 -0.6,0.5c-0.3,0.2 -0.5,0.4 -0.7,0.6c-0.4,0.4 -0.8,0.9 -1.2,1.2c-0.3,0.3 -0.6,0.5 -0.6,0.5c0,0 0.1,-0.4 0.3,-0.8c0.3,-0.5 0.6,-1 1.1,-1.5c0.5,-0.5 1.1,-0.9 1.6,-1c0.2,-0.1 0.5,0 0.6,0c0.1,0 0.2,0.1 0.2,0.1c0,0 -0.4,-0.1 -0.7,0.4z" fill="#382a1e"/></g><g><g><path d="M242.8,308c0,0 5.2,5.5 8.2,6.9c3,1.4 4.7,5.9 1.2,7.1c-4,1.3 -22,-0.5 -25.5,-6.6c-3.5,-6.1 7.2,-14.8 16.1,-7.4z" fill="#382a1e"/><path d="M242.7,306.2c0,0 4.3,5.5 7.3,6.9c3,1.4 6.1,6.3 2,7.1c-4.1,0.7 -22,-0.5 -25.5,-6.6c-3.4,-6.2 7.4,-14.8 16.2,-7.4z" fill="#4d3a29"/><path d="M246.3,311.9c-0.2,0.1 -0.4,0.3 -0.6,0.5c-0.3,0.2 -0.5,0.4 -0.7,0.6c-0.4,0.4 -0.8,0.9 -1.2,1.2c-0.3,0.3 -0.6,0.5 -0.6,0.5c0,0 0.1,-0.4 0.3,-0.8c0.3,-0.5 0.6,-1 1.1,-1.5c0.5,-0.5 1.1,-0.9 1.6,-1c0.2,-0.1 0.5,0 0.6,0c0.1,0 0.2,0.1 0.2,0.1c0,0 -0.3,-0.1 -0.7,0.4z" fill="#382a1e"/><path d="M244.3,309.8c-0.2,0.1 -0.4,0.3 -0.6,0.5c-0.3,0.2 -0.5,0.4 -0.7,0.6c-0.4,0.4 -0.8,0.9 -1.2,1.2c-0.3,0.3 -0.6,0.5 -0.6,0.5c0,0 0.1,-0.4 0.3,-0.8c0.3,-0.5 0.6,-1 1.1,-1.5c0.5,-0.5 1.1,-0.9 1.6,-1c0.2,-0.1 0.5,0 0.6,0c0.1,0 0.2,0.1 0.2,0.1c0,0 -0.4,0 -0.7,0.4z" fill="#382a1e"/></g><path d="M239.7,309.1c0,0 -6,2.8 -13.6,0.9l-0.9,-22.7l16,2.6z" fill="#382a1e"/></g><g><g><path d="M210.2,307l12.5,-15.2l22.9,-1.7l8.6,15.6l-5.5,7.9l-10.1,2.1l-0.4,-14.2l-15.6,3.6l-2.2,11.2z" fill="#1c3752"/><path d="M248.8,175.6c0,0 5.7,8.8 6.2,34.3c0.5,25.5 4.9,88.3 11.3,97.6c0,0 -2.5,12.7 -25.5,9.3c-9.3,-1.4 15.5,-5.2 8.3,-10c-7.2,-4.8 -35.9,3.7 -30.4,7.3c5.5,3.7 -3,6.9 -18.7,4.8c-15.7,-2.1 -18,2.2 -26.1,0.8c-16.2,-2.8 -11.5,-10.5 -11.5,-10.5c0,0 11.8,-10.8 13.4,-30.4c1.6,-19.6 15.6,-97.5 25.5,-103.8c11.2,-7.2 35.6,-13.1 47.5,0.6z" fill="#3f3f74"/><path d="M249.3,304.9c-0.5,-2.1 -1.2,-5.1 -2,-8.8c-0.7,-3.7 -1.6,-8 -2.4,-12.6c-0.8,-4.6 -1.6,-9.5 -2.3,-14.5c-0.3,-2.5 -0.7,-4.9 -0.9,-7.4c-0.2,-2.5 -0.5,-4.9 -0.7,-7.2c-0.2,-2.3 -0.4,-4.5 -0.5,-6.7c-0.1,-2.2 -0.3,-4.2 -0.3,-6.1c0,-1.9 -0.1,-3.6 -0.1,-5.1c0,-1.5 0.1,-2.8 0.1,-3.9c0.1,-2.1 0.1,-3.4 0.1,-3.4c0,0 0,1.2 0,3.4c0.1,1.1 0,2.4 0.1,3.9c0,1.5 0.1,3.2 0.2,5.1c0.1,1.8 0.3,3.9 0.4,6c0.1,2.1 0.4,4.4 0.6,6.7c0.2,2.4 0.5,4.8 0.8,7.2c0.2,2.4 0.6,4.9 0.9,7.4c0.7,4.9 1.4,9.9 2.2,14.5c0.7,4.6 1.5,8.9 2.2,12.6c0.8,3.7 1.3,6.8 1.8,8.9c0.4,2.2 0.7,3.4 0.7,3.4c0,0 -0.3,-1.3 -0.9,-3.4z" fill="#1a324a"/><path d="M218.4,305.8c0.2,-2.1 0.3,-4.5 0.5,-7.1c0.2,-2.6 0.3,-5.4 0.5,-8.2c0.2,-2.8 0.4,-5.6 0.5,-8.2c0.1,-2.6 0.2,-5 0.3,-7.1c0,-1 0.1,-2 0.1,-2.8c0,-0.9 0,-1.6 0,-2.2c0,-1.2 0,-1.9 0,-1.9c0,0 0,0.7 0.1,1.9c0.1,0.6 0.1,1.4 0.1,2.2c0,0.9 0,1.9 0,2.9c0,2.1 0,4.5 -0.1,7.1c-0.1,2.6 -0.2,5.4 -0.4,8.2c-0.2,2.8 -0.4,5.6 -0.6,8.2c-0.2,2.6 -0.5,5 -0.7,7.1c-0.4,4.1 -0.8,6.9 -0.8,6.9c0,0 0.2,-2.8 0.5,-7z" fill="#1a324a"/><path d="M202.8,184c-0.2,0.2 -0.4,0.6 -0.7,1.1c-0.3,0.5 -0.6,1.1 -0.9,1.8c-0.3,0.8 -0.6,1.6 -0.9,2.5c-0.3,0.9 -0.6,1.9 -0.9,3c-0.3,1.1 -0.6,2.2 -0.9,3.4c-0.2,1.2 -0.6,2.4 -0.8,3.6c-0.2,1.3 -0.5,2.5 -0.7,3.8c-0.2,1.3 -0.5,2.6 -0.7,3.8c-0.2,1.3 -0.4,2.5 -0.6,3.7c-0.4,2.4 -0.7,4.6 -1,6.5c-0.5,3.9 -0.9,6.4 -0.9,6.4c0,0 0.2,-2.6 0.6,-6.4c0.1,-1 0.3,-2 0.4,-3.1c0.2,-1.1 0.3,-2.3 0.5,-3.5c0.3,-2.4 0.7,-5 1.2,-7.5c0.2,-1.3 0.5,-2.6 0.8,-3.8c0.3,-1.2 0.6,-2.4 0.9,-3.6c0.3,-1.2 0.7,-2.3 1,-3.4c0.3,-1.1 0.6,-2.1 1,-3c0.2,-0.5 0.3,-0.9 0.5,-1.3c0.2,-0.4 0.3,-0.7 0.5,-1.1c0.4,-0.7 0.7,-1.3 1,-1.8c0.3,-0.4 0.6,-0.8 0.8,-1c0.2,-0.2 0.3,-0.3 0.3,-0.3c0,0 -0.2,0.1 -0.5,0.2z" fill="#1a324a"/><path d="M232,184.1c0.1,0.2 0.4,0.5 0.7,0.9c0.3,0.4 0.6,0.9 1,1.5c0.3,0.6 0.7,1.2 1.1,2c0.4,0.8 0.7,1.6 1.1,2.5c0.3,0.9 0.7,1.9 1,2.9c0.3,1 0.7,2 0.9,3.1c0.1,0.5 0.3,1.1 0.4,1.6l0.3,1.7c0.2,1.1 0.4,2.2 0.5,3.3c0.1,0.5 0.1,1.1 0.2,1.6c0,0.5 0.1,1.1 0.1,1.6c0.1,1 0.2,2 0.2,3c0,0.9 0.1,1.9 0.1,2.7c0.1,1.7 0,3.1 0,4.1c0,0.9 0,1.5 0,1.5c0,0 -0.1,-0.5 -0.1,-1.5c-0.1,-1 -0.1,-2.4 -0.2,-4.1c-0.1,-0.8 -0.1,-1.7 -0.2,-2.7c-0.1,-1 -0.2,-2 -0.3,-3c-0.1,-0.5 -0.1,-1.1 -0.2,-1.6c0,-0.5 -0.1,-1.1 -0.2,-1.6c-0.1,-1.1 -0.3,-2.2 -0.5,-3.3l-0.3,-1.6c-0.2,-0.5 -0.3,-1.1 -0.4,-1.6c-0.2,-1.1 -0.5,-2.1 -0.8,-3.1c-0.3,-1 -0.6,-2 -0.9,-2.9c-0.3,-0.9 -0.6,-1.7 -1,-2.5c-0.7,-1.6 -1.4,-2.8 -1.9,-3.6c-0.5,-0.8 -0.9,-1.2 -0.9,-1.2c0,0 0.1,0.1 0.3,0.3z" fill="#1a324a"/></g><g><path d="M250.5,175.2c0,0 2.7,2.7 0.2,4c-6.1,3.1 -15.9,4.2 -28.5,4.3c-12.6,0 -27.1,-1.1 -24.7,-8.2c0.7,-2 1.8,2.4 6.5,3.2c4.8,0.8 29.4,2.5 37.8,-0.4c8.5,-3 7.1,-3.6 8.7,-2.9z" fill="#4d3a29"/><path d="M197.1,176.4c0,0.8 0.2,2 1.2,2.9c0.5,0.4 1.2,0.7 1.9,1c0.7,0.3 1.5,0.5 2.3,0.8c1.7,0.5 3.4,0.8 5.2,1.1c1.8,0.3 3.6,0.5 5.3,0.6c1.7,0.1 3.2,0.2 4.6,0.3c2.7,0.1 4.5,0.2 4.5,0.2c0,0 -0.4,0.1 -1.2,0.1c-0.8,0.1 -1.9,0.1 -3.3,0.1c-1.4,0 -3,0 -4.7,-0.1c-1.7,-0.1 -3.5,-0.2 -5.3,-0.5c-1.8,-0.2 -3.6,-0.7 -5.2,-1.2c-0.8,-0.2 -1.6,-0.6 -2.3,-0.9c-0.7,-0.3 -1.4,-0.7 -1.9,-1.2c-0.5,-0.5 -0.8,-1.1 -0.9,-1.7c-0.1,-0.6 -0.1,-1.1 -0.1,-1.5c0.1,-0.8 0.3,-1.2 0.3,-1.2c0,0 -0.1,0.4 -0.4,1.2z" fill="#33221b"/><path d="M251.4,176.6c0.1,0.1 0.2,0.3 0.3,0.5c0.1,0.2 0.2,0.5 0.1,0.9c-0.1,0.3 -0.3,0.7 -0.6,1c-0.3,0.3 -0.7,0.6 -1.1,0.8c-0.4,0.2 -0.9,0.4 -1.4,0.6c-1,0.4 -2,0.7 -3.1,1c-1,0.3 -2.1,0.5 -3.1,0.7c-1,0.2 -2,0.3 -2.8,0.4c-1.6,0.2 -2.7,0.2 -2.7,0.2c0,0 1.1,-0.3 2.7,-0.6c0.8,-0.2 1.7,-0.4 2.7,-0.6c1,-0.2 2.1,-0.4 3.1,-0.7c1.1,-0.3 2.1,-0.6 3.1,-0.9c0.5,-0.1 0.9,-0.3 1.3,-0.5c0.5,-0.2 0.8,-0.4 1.1,-0.7c0.3,-0.2 0.5,-0.5 0.6,-0.8c0.1,-0.3 0.1,-0.6 0.1,-0.8c-0.1,-0.5 -0.3,-0.7 -0.3,-0.7c0,0 0.1,0 0,0.2z" fill="#33221b"/></g></g></g><g stroke-width="1"><g><path d="M185.40164,215.06411c0,0 -2.88643,7.80183 -3.74958,9.4974c-0.86315,1.69557 -1.41301,2.64828 -3.18183,1.51194c0,0 -1.56939,1.51888 -3.23477,-0.5969c0,0 -2.30879,0.39938 -3.5911,-1.37986c0,0 -2.41865,-0.01042 -3.05113,-2.91558c-0.35286,-1.58918 0.82358,-4.02762 2.79582,-4.04393l1.3566,-3.9509" fill="#847e87"/><path d="M185.03836,215.89359c0,0 -1.17002,3.82767 -1.03395,6.79271c0.08956,2.24544 -1.46647,3.54111 -2.83192,0.90567" fill="#666168"/><path d="M171.92903,215.60146c-0.07672,0.53302 -0.3034,1.32588 -0.53008,2.11873c-0.17669,0.70624 -0.40337,1.4991 -0.61669,2.06874c-0.06335,0.30982 -0.16333,0.48304 -0.17669,0.70624c-0.01336,0.22321 -0.06335,0.30982 -0.06335,0.30982c0,0 -0.03662,-0.1366 -0.07324,-0.27319c-0.03662,-0.1366 -0.10987,-0.40979 -0.04652,-0.71961c0.07672,-0.53302 0.21679,-1.37586 0.44347,-2.16872c0.22668,-0.79285 0.53997,-1.53572 0.83989,-2.05538c0.29992,-0.51966 0.49987,-0.8661 0.49987,-0.8661c0,0 0.02326,0.3598 -0.27667,0.87946z" fill="#666168"/><path d="M173.36025,223.1242c-0.14996,0.25983 -0.48651,0.64289 -0.85968,0.88936c-0.32318,0.15985 -0.45978,0.19648 -0.73297,0.26972c-0.27319,0.07324 -0.4964,0.05988 -0.66962,-0.04009c-0.39643,-0.11334 -0.51966,-0.29992 -0.51966,-0.29992c0,0 0,0 0.1366,-0.03662c0.08661,0.04999 0.22321,0.01336 0.3598,-0.02326c0.1366,-0.03662 0.32318,-0.15985 0.45978,-0.19648c0.18658,-0.12323 0.32318,-0.15985 0.50977,-0.28309c0.32318,-0.15985 0.60974,-0.45631 0.93292,-0.61616c0.32318,-0.15985 0.50977,-0.28309 0.50977,-0.28309c0,0 -0.01336,0.22321 -0.1267,0.61963z" fill="#666168"/><path d="M176.76477,224.62729c-0.19995,0.34644 -0.5365,0.7295 -0.90967,0.97597c-0.27319,0.07324 -0.50977,0.28309 -0.73297,0.26972c-0.22321,-0.01336 -0.44641,-0.02673 -0.66962,-0.04009c-0.44641,-0.02673 -0.56965,-0.21331 -0.56965,-0.21331c0,0 0,0 0.1366,-0.03662c0.1366,-0.03662 0.27319,-0.07324 0.40979,-0.10987c0.32318,-0.15985 0.64636,-0.31971 0.96955,-0.47956c0.32318,-0.15985 0.69635,-0.40632 0.93292,-0.61616c0.23657,-0.20984 0.42316,-0.33307 0.42316,-0.33307c0,0 -0.01336,0.22321 0.00989,0.58301z" fill="#666168"/><path d="M179.60311,225.11085c-0.06335,0.30982 -0.3999,0.69288 -0.68646,0.98933c-0.28656,0.29645 -0.79633,0.57954 -1.15613,0.6028c-0.1366,0.03662 -0.3598,0.02326 -0.44641,-0.02673c-0.08661,-0.04999 -0.17322,-0.09997 -0.17322,-0.09997c0,0 0,0 0.1366,-0.03662c0.08661,0.04999 0.18658,-0.12323 0.32318,-0.15985c0.27319,-0.07324 0.55975,-0.3697 0.84631,-0.66615c0.28656,-0.29645 0.65973,-0.54292 0.8963,-0.75276c0.23657,-0.20984 0.42316,-0.33307 0.42316,-0.33307c0,0 -0.14996,0.25983 -0.16333,0.48304z" fill="#666168"/><path d="M170.85898,219.25591c-0.09997,0.17322 -0.23657,0.20984 -0.42316,0.33307c-0.18658,0.12323 -0.40979,0.10987 -0.54639,0.14649c-0.22321,-0.01336 -0.3598,0.02326 -0.3598,0.02326c0,0 -0.03662,-0.1366 0.06335,-0.30982c0.09997,-0.17322 0.28656,-0.29645 0.47314,-0.41968c0.27319,-0.07324 0.40979,-0.10987 0.633,-0.0965c0.22321,0.01336 0.30982,0.06335 0.30982,0.06335c0,0 -0.09997,0.17322 -0.14996,0.25983z" fill="#666168"/><path d="M181.04232,225.01782c0.34991,-0.60627 0.71319,-1.43574 1.07646,-2.26522c0.36328,-0.82948 0.72655,-1.65895 0.98985,-2.31521c0.06335,-0.30982 0.21331,-0.56965 0.31329,-0.74287c0.09997,-0.17322 0.14996,-0.25983 0.14996,-0.25983c0,0 0.05988,0.4964 -0.11681,1.20265c-0.09008,0.75623 -0.36675,1.63569 -0.73003,2.46517c-0.36328,0.82948 -0.81316,1.60896 -1.24968,2.16525c-0.43652,0.55628 -0.80969,0.80275 -0.80969,0.80275c0,0 0.19995,-0.34644 0.37664,-1.05268z" fill="#666168"/></g><g><path d="M194.67432,170.19065c4.10728,2.486 6.60213,4.96506 6.05817,10.30867c-0.54396,5.3436 -4.46276,10.93315 -6.56571,15.37698c-2.15293,4.53044 -3.44827,20.17819 -3.44827,20.17819c-9.50245,6.06164 -24.49532,-6.17085 -24.49532,-6.17085c0,0 6.00353,-20.2044 16.3707,-36.96661c2.53599,-4.19389 7.62671,-5.41233 12.08043,-2.72638z" fill="#3f3f74"/><path d="M200.70576,180.94573c-0.1267,0.61963 -0.21679,1.37586 -0.49345,2.25533c-0.19006,0.92945 -0.51671,1.89552 -0.94334,3.03482c-0.51324,1.08931 -1.02648,2.17861 -1.5897,3.35453c-0.64984,1.12593 -1.24968,2.16525 -1.93614,3.15458c-0.68646,0.98933 -1.32293,1.89205 -1.94603,2.57157c-0.5365,0.7295 -1.10961,1.32241 -1.44616,1.70547c-0.33655,0.38306 -0.57312,0.5929 -0.57312,0.5929c0,0 0.28656,-0.29645 0.5365,-0.7295c0.24994,-0.43305 0.73645,-1.07594 1.27294,-1.80544c0.24994,-0.43305 0.58648,-0.81611 0.83642,-1.24916c0.29992,-0.51966 0.63647,-0.90272 0.93639,-1.42238c0.54986,-0.95271 1.1997,-2.07864 1.79954,-3.11795c0.59985,-1.03932 1.11309,-2.12862 1.62633,-3.21793c0.37664,-1.05268 0.83989,-2.05538 1.11656,-2.93484c0.27667,-0.87946 0.58996,-1.62233 0.66667,-2.15535c0.16333,-0.48304 0.22668,-0.79285 0.22668,-0.79285c0,0 -0.06335,0.30982 -0.09008,0.75623z" fill="#1a324a"/><path d="M191.80592,208.36895l-0.41379,3.91775c-0.11681,1.20265 -0.197,2.54189 -0.27719,3.88113l0.03662,0.1366l-0.1366,0.03662c-0.55975,0.3697 -1.15613,0.6028 -1.75251,0.8359c-0.59638,0.2331 -1.19275,0.4662 -1.82575,0.5627c-0.68299,0.18311 -1.266,0.19301 -1.899,0.28951c-0.3598,0.02326 -0.633,0.0965 -0.94282,0.03315l-0.89283,-0.05346c-0.61963,-0.1267 -1.28925,-0.1668 -1.90889,-0.2935c-0.61963,-0.1267 -1.23927,-0.25341 -1.80891,-0.46672c-0.61963,-0.1267 -1.2259,-0.47662 -1.79555,-0.68993c-0.56965,-0.21331 -1.17592,-0.56323 -1.69557,-0.86315l0.82948,0.36328c0.25983,0.14996 0.51966,0.29992 0.82948,0.36328c0.56965,0.21331 1.13929,0.42663 1.75893,0.55333c0.61963,0.1267 1.23927,0.25341 1.8589,0.38011c0.61963,0.1267 1.20265,0.11681 1.87227,0.15691c0.66962,0.04009 1.25263,0.0302 1.88563,-0.0663c0.633,-0.0965 1.266,-0.19301 1.81239,-0.33949c0.633,-0.0965 1.17939,-0.24299 1.77576,-0.47609c0.59638,-0.2331 1.10614,-0.51619 1.61591,-0.79927l-0.14996,0.25983c0.08019,-1.33924 0.16038,-2.67848 0.32718,-3.96774c0.08019,-1.33924 0.24699,-2.6285 0.41379,-3.91775c0.3336,-2.57851 0.71718,-5.24363 1.3606,-7.75879c-0.3336,2.57851 -0.6672,5.15702 -0.87756,7.92211z" fill="#1a324a"/><path d="M179.19475,178.8065c-0.49987,0.8661 -1.11309,2.12862 -1.82627,3.56437c-0.71319,1.43574 -1.53972,3.26792 -2.36624,5.10009c-0.82653,1.83217 -1.66642,3.88755 -2.50631,5.94293c-0.9265,2.00539 -1.67978,4.11076 -2.4197,5.99292c-0.78991,1.96877 -1.47984,3.76432 -2.0198,5.30004c-1.16655,3.02145 -1.91983,5.12682 -1.91983,5.12682c0,0 0.1267,-0.61963 0.40337,-1.4991c0.32665,-0.96607 0.63005,-2.29195 1.17002,-3.82767c0.53997,-1.53572 1.14329,-3.38126 1.7966,-5.3134c0.73992,-1.88216 1.4932,-3.98752 2.33309,-6.0429c0.78991,-1.96877 1.71641,-3.97416 2.59292,-5.89294c0.82653,-1.83217 1.68968,-3.52775 2.53946,-5.00011c0.84979,-1.47237 1.58623,-2.54831 2.0861,-3.41441c0.49987,-0.8661 0.83642,-1.24916 0.83642,-1.24916c0,0 -0.24994,0.43305 -0.69982,1.21254z" fill="#1a324a"/></g><g><path d="M184.92993,169.06957c1.54371,-7.0758 26.05868,-37.14815 32.36194,-37.66676c6.79966,-0.57849 13.60469,6.23558 8.99891,15.81612c-3.5793,7.40193 -14.20526,18.01085 -17.77067,22.18791c-3.56542,4.17706 -2.43254,3.21446 -4.17221,6.82881c-1.73966,3.61436 -2.76909,3.59752 -4.04845,4.01373c-1.19275,0.4662 -5.06052,-0.0342 -9.41427,-2.89337c-4.40374,-2.77256 -6.81545,-4.39542 -5.95525,-8.28644z" fill="#3f3f74"/><path d="M185.4456,173.17738c-0.12323,-0.18658 -0.41968,-0.47314 -0.52955,-0.88294c-0.12323,-0.18658 -0.19648,-0.45978 -0.18311,-0.68299c-0.07324,-0.27319 -0.14649,-0.54639 -0.08314,-0.85621c-0.0965,-0.633 0.0302,-1.25263 0.20689,-1.95888c0.17669,-0.70624 0.40337,-1.4991 0.71666,-2.24196c0.31329,-0.74287 0.67657,-1.57234 1.12645,-2.35183c0.36328,-0.82948 0.89977,-1.55898 1.39965,-2.42508c0.49987,-0.8661 1.03637,-1.5956 1.62285,-2.41171c0.58648,-0.81611 1.17297,-1.63222 1.70946,-2.36172c0.67309,-0.76612 1.20959,-1.49562 1.74609,-2.22513c0.62311,-0.67951 1.24621,-1.35903 1.73272,-2.00192c0.48651,-0.64289 0.97302,-1.28578 1.49615,-1.79208c1.91931,-2.12515 3.30211,-3.5208 3.30211,-3.5208c0,0 -1.20959,1.49562 -3.04228,3.67076c-0.43652,0.55628 -0.92303,1.19917 -1.40954,1.84206c-0.5365,0.7295 -1.10961,1.32241 -1.64611,2.05191c-0.48651,0.64289 -1.07299,1.459 -1.60949,2.1885c-0.62311,0.67951 -1.07299,1.459 -1.65948,2.27511c-0.5365,0.7295 -1.12298,1.54561 -1.57287,2.3251c-0.49987,0.8661 -1.03637,1.5956 -1.39965,2.42508c-0.44989,0.77949 -0.89977,1.55898 -1.21306,2.30184c-0.44989,0.77949 -0.62658,1.48573 -0.88988,2.14199c-0.17669,0.70624 -0.39001,1.27589 -0.38011,1.8589c-0.06335,0.30982 0.00989,0.58301 -0.00347,0.80622c-0.01336,0.22321 -0.02673,0.44641 0.0965,0.633c0.10987,0.40979 0.31971,0.64636 0.44294,0.83295c0.12323,0.18658 0.20984,0.23657 0.20984,0.23657c0,0 -0.1366,0.03662 -0.18658,0.12323z" fill="#1a324a"/><path d="M209.22982,168.77731c-0.62311,0.67951 -1.39617,1.61886 -2.08263,2.60819c-0.38653,0.46967 -0.82306,1.02595 -1.12298,1.54561c-0.34991,0.60627 -0.64984,1.12593 -0.77654,1.74556c-0.43999,1.3625 -1.08983,2.48843 -1.91288,3.51438c-0.82306,1.02595 -1.80597,1.72872 -2.81213,2.07169c-1.00617,0.34297 -1.84901,0.2029 -2.41865,-0.01042c-0.30982,-0.06335 -0.48304,-0.16333 -0.65626,-0.2633c-0.08661,-0.04999 -0.17322,-0.09997 -0.17322,-0.09997c0,0 0.34644,0.19995 0.87946,0.27667c0.56965,0.21331 1.37586,0.21679 2.29542,-0.17617c0.86957,-0.30634 1.67926,-1.10909 2.45233,-2.04843c0.77307,-0.93934 1.33629,-2.11526 1.67631,-3.30454c0.17669,-0.70624 0.5266,-1.31251 0.87651,-1.91878c0.29992,-0.51966 0.73645,-1.07594 1.12298,-1.54561c0.77307,-0.93934 1.58276,-1.74209 2.25585,-2.50821c1.38281,-1.39565 2.37908,-2.32163 2.37908,-2.32163c0,0 -0.82306,1.02595 -1.98266,2.43497z" fill="#1a324a"/></g></g><g stroke-width="1"><g><path d="M252.83462,214.6l-1.11198,-4l12.78781,-5.4c0,0 0.1112,0.6 0.44479,1.5c0.44479,1.2 1.55678,3.8 3.00235,5.5c1.33438,1.6 1.00078,3.2 -1.00078,2.8c0,0.1 0,0.1 0,0.2c0.33359,1.9 0.33359,3 -2.00157,3c0,0 -0.55599,2.1 -3.33595,1.3c0,0 -1.89037,1.6 -4.11434,0.8c0,0 -1.33438,0.7 -3.66954,-1.3c-1.33438,-1.1 -2.77996,-3.3 -1.00078,-4.4z" fill="#847e87"/><g><g><path d="M255.28099,216.6c-0.33359,-1.6 0.2224,-2.6 0.77839,-2.7c1.44558,-0.2 2.00157,2.3 2.66876,3.5c0.66719,1.2 1.33438,1 1.33438,1c-1.89037,-2.3 -1.11198,-4.6 -0.77839,-4.7c1.00078,-0.4 1.55678,0 1.77917,0.4c-0.2224,-1.3 1.11198,-1.6 1.77917,-1.6c1.33438,0.1 3.00235,4.4 3.00235,4.4c0.1112,0.3 0.1112,0.8 0,1.3c-0.2224,0 -0.55599,0.1 -0.88959,0.1c0,0 -0.55599,2.1 -3.33595,1.3c0,0 -1.89037,1.6 -4.11434,0.8c0,0 -1.33438,0.7 -3.66954,-1.3c-1.22318,-1.1 -2.66876,-3.1 -1.11198,-4.2c0.2224,-0.1 0.44479,-0.1 0.66719,-0.1c1.22318,-0.2 1.77917,1.2 1.89037,1.8z" fill="#847e87"/><path d="M265.17764,218.2c-0.44479,-0.1 -1.00078,-0.2 -1.55678,-0.6c-0.55599,-0.4 -1.11198,-1 -1.55678,-1.6c-0.33359,-0.3 -0.44479,-0.6 -0.66719,-1c-0.2224,-0.3 -0.44479,-0.7 -0.55599,-1.1c-0.1112,-0.5 0.2224,-1 0.66719,-1.3c0.44479,-0.2 0.88959,-0.4 1.44558,-0.3c0.2224,0 0.44479,0.1 0.66719,0.3c0.1112,0.2 0.2224,0.3 0.33359,0.5c0.2224,0.3 0.44479,0.5 0.55599,0.8c0.55599,1.1 0.88959,1.8 0.88959,1.8c0,0 -0.44479,-0.6 -1.22318,-1.6c-0.2224,-0.3 -0.44479,-0.5 -0.66719,-0.8c-0.33359,-0.3 -0.44479,-0.5 -0.77839,-0.5c-0.2224,0 -0.66719,0.1 -0.88959,0.3c-0.2224,0.2 -0.44479,0.5 -0.33359,0.7c0.1112,0.3 0.33359,0.7 0.44479,1c0.2224,0.3 0.33359,0.7 0.55599,1c0.1112,0.3 0.33359,0.6 0.55599,0.9c0.2224,0.3 0.44479,0.5 0.66719,0.7c0.44479,0.4 0.88959,0.6 1.22318,0.7c0.33359,0.1 0.55599,0.1 0.55599,0.1c0,0 -0.2224,0 -0.33359,0z" fill="#666168"/><path d="M260.72971,213.6c-0.33359,-0.1 -0.77839,-0.2 -1.11198,0c-0.33359,0.1 -0.55599,0.6 -0.55599,1.1c0,0.2 0.1112,0.5 0.1112,0.8c0,0.3 0.1112,0.6 0.2224,0.9c0.1112,0.3 0.2224,0.5 0.33359,0.8c0.1112,0.2 0.33359,0.5 0.44479,0.7c0.44479,0.5 0.77839,0.8 1.22318,1c0.33359,0.2 0.77839,0.3 1.00078,0.4c0.33359,0.1 0.44479,0.1 0.44479,0.1v0.4c0,0 -0.77839,0 -1.77917,-0.4c-0.55599,-0.2 -1.00078,-0.6 -1.44558,-1.1c-0.2224,-0.2 -0.44479,-0.5 -0.55599,-0.8c-0.2224,-0.3 -0.33359,-0.6 -0.44479,-0.9c-0.1112,-0.3 -0.2224,-0.6 -0.2224,-0.9c0,-0.3 0,-0.6 0,-0.9c0.1112,-0.3 0.1112,-0.6 0.33359,-0.9c0.2224,-0.3 0.44479,-0.5 0.77839,-0.6c0.66719,-0.1 1.11198,0.1 1.33438,0.3c0.2224,0.1 0.33359,0.3 0.33359,0.3c0,0 -0.1112,-0.1 -0.44479,-0.3z" fill="#666168"/><path d="M258.72814,220.5c-0.44479,0 -1.11198,0 -1.89037,-0.4c-0.44479,-0.2 -0.77839,-0.4 -1.00078,-0.8c-0.2224,-0.3 -0.44479,-0.8 -0.55599,-1.2c-0.2224,-0.8 -0.55599,-1.7 -0.55599,-2.7c0.1112,-0.4 0,-1 0.55599,-1.5c0.2224,-0.3 0.55599,-0.3 0.88959,-0.3c0.1112,0 0.2224,0 0.44479,0.1c0.1112,0 0.33359,0.1 0.44479,0.2c0.55599,0.3 0.66719,0.7 0.88959,1.1c0.2224,0.4 0.33359,0.8 0.44479,1.1c0.44479,1.4 0.55599,2.3 0.55599,2.3c0,0 -0.1112,-0.2 -0.2224,-0.6c-0.1112,-0.4 -0.33359,-1 -0.66719,-1.6c-0.2224,-0.3 -0.33359,-0.7 -0.55599,-1c-0.2224,-0.3 -0.44479,-0.7 -0.77839,-0.9c-0.33359,-0.2 -0.77839,-0.2 -1.00078,0c-0.2224,0.2 -0.2224,0.7 -0.2224,1.1c0,0.9 0.2224,1.8 0.44479,2.6c0.1112,0.4 0.2224,0.8 0.44479,1.1c0.2224,0.4 0.55599,0.6 0.77839,0.8c0.55599,0.4 1.22318,0.5 1.66797,0.5c0.44479,0 0.66719,0 0.66719,0c0,0 -0.2224,0.1 -0.77839,0.1z" fill="#666168"/><path d="M254.94739,216.3c0,0 -0.1112,-0.2 -0.44479,-0.4c-0.1112,-0.1 -0.2224,-0.3 -0.44479,-0.4c-0.1112,-0.1 -0.33359,-0.2 -0.55599,-0.3c-0.1112,0 -0.2224,-0.1 -0.33359,-0.1c0,0 -0.1112,0 -0.2224,0c-0.1112,0 -0.33359,0.1 -0.44479,0.2c-0.1112,0.1 -0.2224,0.2 -0.33359,0.3c-0.1112,0.1 -0.1112,0.1 -0.1112,0.1c0,0 0,-0.1 0,-0.2c0,-0.2 0,-0.3 0.1112,-0.5c0.1112,-0.1 0.1112,-0.2 0.2224,-0.3c0,-0.2 0.2224,-0.2 0.33359,-0.3c0.33359,-0.1 0.66719,-0.1 1.00078,0c0.66719,0.2 1.00078,0.6 1.33438,0.9c0.33359,0.3 0.44479,0.5 0.44479,0.5z" fill="#666168"/></g><g><path d="M264.84404,212.8c-5.33752,-6.5 -2.00157,-5.5 -0.66719,-5.8c0.2224,-0.1 0.55599,0 1.00078,0.2c0.55599,1.3 1.44558,3.5 2.77996,5.1c1.33438,1.6 1.00078,3.2 -1.00078,2.8c-0.88959,-0.5 -1.33438,-1.3 -2.11277,-2.3z" fill="#847e87"/><path d="M267.5128,215.1c-0.2224,0 -0.44479,-0.1 -0.77839,-0.2c-0.2224,-0.1 -0.55599,-0.3 -0.88959,-0.5c-0.33359,-0.2 -0.66719,-0.5 -0.88959,-0.8c-0.44479,-0.5 -0.88959,-1.2 -1.11198,-1.7c-0.2224,-0.5 -0.33359,-0.9 -0.33359,-0.9c0,0 0.33359,0.3 0.66719,0.7c0.33359,0.4 0.88959,1 1.33438,1.5c0.44479,0.6 1.00078,1.1 1.44558,1.4c0.2224,0.2 0.44479,0.3 0.55599,0.4c0.1112,0.1 0.2224,0.1 0.2224,0.1c0,0 -0.1112,0 -0.2224,0z" fill="#666168"/></g></g></g><g><path d="M239.15723,164c5.22632,-0.9 9.11826,-0.8 12.78781,3.5c3.55835,4.3 4.55913,11.1 6.11591,15.8c1.66797,4.8 12.34301,17.2 12.34301,17.2c-3.22475,10.9 -24.79723,12 -24.79723,12c0,0 -10.23025,-19 -14.34458,-38.4c-1.11198,-4.8 2.22397,-9.1 7.89508,-10.1z" fill="#3f3f74"/><path d="M252.27863,167.9c0.33359,0.4 0.88959,1.1 1.33438,1.9c0.44479,0.8 1.00078,1.8 1.44558,2.9c0.44479,1.1 0.88959,2.3 1.22318,3.5c0.33359,1.2 0.55599,2.4 0.77839,3.6c0.2224,1.2 0.2224,2.3 0.33359,3.2c0,1 0,1.8 0,2.3c0,0.6 0,0.9 0,0.9c0,0 0,-0.4 -0.1112,-0.9c-0.1112,-0.5 -0.2224,-1.3 -0.33359,-2.2c-0.1112,-0.5 -0.1112,-1 -0.2224,-1.5c-0.1112,-0.5 -0.2224,-1 -0.33359,-1.6c-0.2224,-1.1 -0.55599,-2.3 -0.88959,-3.5c-0.33359,-1.2 -0.66719,-2.4 -1.11198,-3.5c-0.44479,-1.1 -0.77839,-2.1 -1.22318,-3c-0.44479,-0.8 -0.77839,-1.5 -1.11198,-2c-0.2224,-0.5 -0.44479,-0.8 -0.44479,-0.8c0,0 0.2224,0.3 0.66719,0.7z" fill="#1a324a"/><path d="M265.06644,194l2.66876,3.1c0.88959,1.1 1.77917,2.1 2.66876,3.1l0.1112,0.1v0.1c-0.2224,0.6 -0.44479,1.2 -0.77839,1.8c-0.33359,0.5 -0.66719,1.1 -1.11198,1.6c-0.33359,0.5 -0.88959,1 -1.33438,1.5c-0.2224,0.3 -0.55599,0.5 -0.77839,0.7l-0.77839,0.6c-0.55599,0.4 -1.11198,0.8 -1.77917,1.1c-0.66719,0.4 -1.22318,0.6 -1.89037,0.9c-0.66719,0.3 -1.33438,0.5 -2.00157,0.7c-0.66719,0.2 -1.33438,0.3 -2.00157,0.5l1.00078,-0.3c0.33359,-0.1 0.66719,-0.2 1.00078,-0.3c0.66719,-0.3 1.33438,-0.5 1.89037,-0.8c0.55599,-0.2 1.22318,-0.5 1.77917,-0.9c0.55599,-0.3 1.11198,-0.7 1.66797,-1.1c0.44479,-0.4 1.00078,-0.8 1.44558,-1.3c0.55599,-0.4 1.00078,-0.9 1.33438,-1.4c0.33359,-0.5 0.66719,-1.1 1.00078,-1.6c0.33359,-0.6 0.66719,-1.1 0.77839,-1.7l0.1112,0.3c-0.88959,-1 -1.77917,-2 -2.66876,-3.1c-0.88959,-1.1 -1.77917,-2.1 -2.55756,-3.2c-1.66797,-2.2 -3.22475,-4.4 -4.67033,-6.7c1.66797,2.1 3.33595,4.3 4.89273,6.3z" fill="#1a324a"/><path d="M232.93012,180.9c0.2224,0.9 0.55599,2.2 1.11198,3.8c0.55599,1.6 1.22318,3.4 1.89037,5.4c0.77839,2 1.55678,4 2.44636,6.1c0.77839,2 1.66797,4.1 2.55756,6c0.88959,1.9 1.66797,3.7 2.33516,5.2c1.44558,3.1 2.33516,5.1 2.33516,5.1c0,0 -0.33359,-0.5 -0.77839,-1.4c-0.44479,-0.9 -1.11198,-2.1 -1.89037,-3.6c-0.77839,-1.5 -1.66797,-3.3 -2.55756,-5.2c-0.88959,-1.9 -1.77917,-3.9 -2.66876,-6c-0.88959,-2 -1.66797,-4.1 -2.33516,-6.1c-0.66719,-1.9 -1.22318,-3.8 -1.66797,-5.4c-0.44479,-1.6 -0.66719,-2.9 -0.88959,-3.9c-0.2224,-1 -0.2224,-1.5 -0.2224,-1.5c0,0 0.1112,0.5 0.33359,1.5z" fill="#1a324a"/></g><g><path d="M230.26136,169.8c-4.00314,-6.3 -6.5607,-45 -1.66797,-49.6c5.22632,-5 15.79016,-4.6 19.23731,5.6c2.66876,7.9 1.77917,22.9 2.00157,28.4c0.2224,5.5 0.33359,4.1 1.66797,7.9c1.33438,3.8 0.44479,4.5 -0.2224,5.7c-0.66719,1.2 -4.22554,3.3 -9.89665,4.2c-5.67111,0.8 -8.89587,1.2 -11.11983,-2.2z" fill="#224363"/><path d="M233.48611,172.5c-0.2224,-0.1 -0.55599,-0.1 -1.00078,-0.3c-0.2224,-0.1 -0.44479,-0.2 -0.66719,-0.4c-0.2224,-0.2 -0.44479,-0.4 -0.66719,-0.6c-0.44479,-0.4 -0.77839,-1 -1.22318,-1.6c-0.33359,-0.7 -0.66719,-1.4 -1.00078,-2.2c-0.33359,-0.8 -0.66719,-1.6 -0.88959,-2.5c-0.33359,-0.8 -0.44479,-1.8 -0.66719,-2.7c-0.2224,-0.9 -0.44479,-1.8 -0.55599,-2.8c-0.1112,-1 -0.2224,-2 -0.33359,-2.9c-0.1112,-1 -0.1112,-1.9 -0.2224,-2.8c0,-0.9 -0.1112,-1.8 -0.1112,-2.6c-0.1112,-0.8 -0.1112,-1.6 -0.1112,-2.3c0,-2.9 0.1112,-4.8 0.1112,-4.8c0,0 0.2224,1.9 0.33359,4.8c0.1112,0.7 0.1112,1.5 0.2224,2.3c0.1112,0.8 0.1112,1.7 0.2224,2.6c0.1112,0.9 0.2224,1.9 0.33359,2.8c0,0.9 0.1112,1.9 0.33359,2.8c0.1112,0.9 0.2224,1.9 0.44479,2.8c0.1112,0.9 0.33359,1.8 0.55599,2.7c0.2224,0.9 0.44479,1.7 0.77839,2.5c0.2224,0.7 0.55599,1.4 0.88959,2.1c0.33359,0.6 0.66719,1.2 1.11198,1.6c0.1112,0.3 0.33359,0.4 0.55599,0.6c0.1112,0.2 0.33359,0.3 0.55599,0.4c0.44479,0.2 0.77839,0.3 1.00078,0.3c0.2224,0 0.33359,0 0.33359,0c0,0 -0.1112,0 -0.33359,0.2z" fill="#1a324a"/><path d="M249.83227,153.1c0.1112,1 0.2224,2.2 0.33359,3.4c0.1112,0.6 0.2224,1.3 0.33359,1.9c0.1112,0.7 0.33359,1.3 0.66719,1.8c0.66719,1.3 1.00078,2.6 1.11198,3.9c0.1112,1.3 -0.2224,2.5 -0.77839,3.4c-0.55599,1 -1.44558,1.4 -2.00157,1.7c-0.2224,0.1 -0.44479,0.2 -0.66719,0.2c-0.1112,0.1 -0.2224,0.1 -0.2224,0.1c0,0 0.33359,-0.1 0.88959,-0.4c0.55599,-0.3 1.22318,-0.8 1.66797,-1.7c0.55599,-0.9 0.66719,-2 0.55599,-3.2c-0.1112,-1.2 -0.44479,-2.5 -1.11198,-3.6c-0.33359,-0.6 -0.55599,-1.4 -0.66719,-2c-0.1112,-0.6 -0.2224,-1.3 -0.2224,-1.9c-0.1112,-1.2 -0.1112,-2.4 -0.1112,-3.4c0,-2 0.2224,-3.3 0.2224,-3.3c0,0 0,1.3 0,3.1z" fill="#1a324a"/></g></g><g stroke-width="1"><path d="M244.38355,123.9c8.00628,10.8 9.00706,51.4 0.66719,54c-8.33987,2.6 -14.45578,1.2 -14.45578,1.2c-13.2326,4.8 -37.02904,4.3 -42.58896,-3c-3.55835,-4.6 -6.6719,-38.6 -2.33516,-50.2c4.33673,-11.6 17.23574,-16 17.23574,-16c12.45421,-3.8 33.4707,3.2 41.47698,14z" fill="#3f3f74"/><path d="M236.26607,175.5c-0.44479,0.4 -1.00078,1 -1.77917,1.6c-0.77839,0.6 -1.77917,1.3 -2.89116,1.9c-0.55599,0.3 -1.11198,0.5 -1.77917,0.8c-0.55599,0.2 -1.22318,0.5 -1.89037,0.7c-0.66719,0.2 -1.33438,0.5 -2.00157,0.6c-0.66719,0.1 -1.33438,0.3 -2.00157,0.4c-0.66719,0.1 -1.33438,0.2 -1.89037,0.3c-0.55599,0 -1.11198,0.1 -1.66797,0.1c-1.11198,0.1 -2.00157,0.1 -2.55756,0.1c-0.66719,0 -1.00078,0 -1.00078,0c0,0 0.44479,0 1.00078,-0.1c0.55599,-0.1 1.44558,-0.1 2.44636,-0.3c0.55599,0 1.11198,-0.1 1.66797,-0.2c0.55599,-0.2 1.11198,-0.3 1.77917,-0.4c0.55599,-0.2 1.22318,-0.3 1.89037,-0.5c0.55599,-0.2 1.22318,-0.4 1.89037,-0.6c0.66719,-0.2 1.22318,-0.5 1.89037,-0.7c0.55599,-0.3 1.22318,-0.5 1.77917,-0.8c0.55599,-0.3 1.11198,-0.5 1.55678,-0.8c0.44479,-0.2 0.88959,-0.5 1.33438,-0.8c0.44479,-0.3 0.77839,-0.6 1.11198,-0.8c0.33359,-0.2 0.55599,-0.4 0.77839,-0.6c0.44479,-0.4 0.66719,-0.6 0.66719,-0.6c0,0 -0.2224,0.2 -0.33359,0.7z" fill="#1a324a"/><path d="M238.82363,171.7c-1.00078,0.7 -2.33516,1.7 -3.78074,2.5c-1.44558,0.9 -3.00235,1.6 -4.22554,2c-0.33359,0.1 -0.66719,0.2 -0.88959,0.2c-0.2224,0 -0.44479,0.1 -0.66719,0.1c-0.33359,0 -0.55599,0 -0.55599,0c0,0 0.2224,0 0.55599,-0.1c0.2224,0 0.44479,-0.1 0.66719,-0.2c0.2224,0 0.44479,-0.2 0.77839,-0.3c1.11198,-0.5 2.55756,-1.3 4.00314,-2.1c1.44558,-0.8 2.77996,-1.7 3.89194,-2.3c1.00078,-0.6 1.77917,-1 1.77917,-1c0,0 -0.55599,0.6 -1.55678,1.2z" fill="#1a324a"/><path d="M195.90108,114.1c-0.55599,0.4 -1.11198,0.8 -1.77917,1.3c-0.66719,0.5 -1.33438,1 -1.89037,1.6c-0.2224,0.3 -0.55599,0.6 -0.88959,0.9c-0.33359,0.3 -0.55599,0.7 -0.88959,1c-0.66719,0.6 -1.11198,1.4 -1.66797,2.1c-0.55599,0.8 -1.00078,1.6 -1.44558,2.3c-0.33359,0.8 -0.77839,1.6 -1.11198,2.3c-0.33359,0.8 -0.66719,1.5 -0.88959,2.2c-0.2224,0.7 -0.33359,1.4 -0.55599,2c-0.2224,0.6 -0.33359,1.2 -0.44479,1.7c-0.1112,0.6 -0.1112,1 -0.2224,1.4c-0.1112,0.8 -0.2224,1.2 -0.2224,1.2c0,0 0,-0.4 0.1112,-1.2c0,-0.4 0.1112,-0.9 0.1112,-1.4c0.1112,-0.6 0.2224,-1.2 0.33359,-1.8c0.1112,-0.7 0.2224,-1.4 0.44479,-2.1c0.2224,-0.7 0.44479,-1.5 0.77839,-2.3c0.33359,-0.8 0.77839,-1.6 1.11198,-2.4c0.44479,-0.7 1.00078,-1.5 1.44558,-2.3c0.55599,-0.8 1.00078,-1.5 1.66797,-2.2c0.33359,-0.3 0.55599,-0.7 0.88959,-1c0.33359,-0.3 0.66719,-0.6 1.00078,-0.9c0.66719,-0.6 1.33438,-1.1 2.00157,-1.6c0.66719,-0.5 1.22318,-0.9 1.89037,-1.3c2.44636,-1.4 4.33673,-1.9 4.33673,-1.9c0,0 -1.89037,0.6 -4.11434,2.4z" fill="#1a324a"/><path d="M196.45707,180.8c-0.44479,-0.1 -0.88959,-0.2 -1.33438,-0.3c-0.44479,-0.1 -1.00078,-0.3 -1.44558,-0.5c-0.55599,-0.2 -1.00078,-0.5 -1.55678,-0.7c-0.44479,-0.2 -1.00078,-0.5 -1.44558,-0.8c-0.44479,-0.4 -1.00078,-0.7 -1.33438,-1.1c-0.44479,-0.4 -0.77839,-0.8 -1.11198,-1.2c-0.1112,-0.2 -0.33359,-0.4 -0.44479,-0.6c-0.1112,-0.2 -0.2224,-0.4 -0.33359,-0.6c-0.2224,-0.4 -0.44479,-0.8 -0.55599,-1.2c-0.1112,-0.3 -0.2224,-0.7 -0.33359,-1c-0.1112,-0.3 -0.1112,-0.6 -0.1112,-0.8c-0.1112,-0.4 -0.1112,-0.7 -0.1112,-0.7c0,0 0.1112,0.3 0.2224,0.7c0.1112,0.2 0.1112,0.5 0.2224,0.8c0.1112,0.3 0.33359,0.6 0.44479,1c0.1112,0.4 0.33359,0.7 0.55599,1.1c0.1112,0.2 0.2224,0.4 0.33359,0.6c0.1112,0.1 0.33359,0.3 0.44479,0.5c0.2224,0.4 0.66719,0.8 1.00078,1.1c0.33359,0.4 0.77839,0.7 1.22318,1c0.44479,0.3 0.88959,0.5 1.33438,0.8c0.55599,0.3 1.00078,0.5 1.44558,0.7c0.44479,0.3 0.88959,0.4 1.33438,0.6c0.33359,0.2 0.77839,0.3 1.22318,0.4c0.88959,0.2 1.55678,0.4 2.00157,0.5c0.55599,0.1 0.77839,0.2 0.77839,0.2c0,0 -1.11198,0 -2.44636,-0.5z" fill="#1a324a"/><path d="M249.27628,171.6c0,0.4 -0.1112,1 -0.33359,1.7c-0.2224,0.7 -0.55599,1.5 -1.00078,2.3c-0.33359,0.4 -0.55599,0.8 -0.88959,1.2c-0.33359,0.4 -0.77839,0.8 -1.22318,1.1c-0.88959,0.6 -1.89037,1 -2.89116,1.2c-0.55599,0.2 -1.00078,0.2 -1.44558,0.3c-0.44479,0 -0.88959,0.1 -1.33438,0.1c-0.77839,0.1 -1.44558,0 -1.89037,0c-0.55599,-0.1 -0.77839,-0.1 -0.77839,-0.1c0,0 0.33359,-0.1 0.77839,-0.1c0.44479,0 1.11198,-0.1 1.89037,-0.2c0.77839,-0.1 1.66797,-0.3 2.55756,-0.6c0.88959,-0.3 1.89037,-0.7 2.66876,-1.2c0.44479,-0.3 0.77839,-0.5 1.11198,-0.9c0.2224,-0.4 0.55599,-0.7 0.77839,-1.1c0.44479,-0.8 0.88959,-1.5 1.11198,-2.2c0.55599,-1.4 0.77839,-2.3 0.77839,-2.3c0,0 0,0.2 0.1112,0.8z" fill="#1a324a"/></g><g><path d="M291.1766,100.34734c1.91745,1.09732 -46.8904,9.71908 -68.15667,10.81639c-21.26628,1.09732 -82.27608,2.03787 -80.70726,0.31352c1.56882,-1.72435 59.09236,-21.16251 70.42275,-21.78954c11.33039,-0.7838 73.5604,7.68121 78.44118,10.65963z" fill="#3f3f74" stroke-width="1"/><path d="M219.35934,76.67669c19.17451,-0.47028 28.06451,13.01102 32.77098,31.66538c4.18353,16.93001 2.44039,35.4276 -29.28471,36.2114c-27.36726,0.7838 -35.73432,-15.98945 -32.59667,-32.91946c3.31196,-17.87056 9.93588,-34.48705 29.11039,-34.95733z" fill="#c5886b" stroke-width="1"/><g><path d="M234.35032,134.83439c0,0.47028 -0.34863,0.94056 -0.87157,1.09732c-0.52294,0.15676 -1.04588,0.15676 -1.39451,0.15676c-0.52294,0 -0.69725,-0.15676 -0.69725,-0.15676c0,0 0.17431,-0.15676 0.52294,-0.31352c0.17431,-0.15676 0.52294,-0.31352 0.87157,-0.47028c0.34863,-0.15676 0.69725,-0.31352 0.87157,-0.47028c0.17431,-0.15676 0.34863,-0.31352 0.34863,-0.31352c0,0 0.17431,0.15676 0.34863,0.47028z" fill="#99918a" stroke-width="1"/><path d="M180.13875,158.19153c6.10098,-2.66491 5.75235,-7.99472 5.75235,-7.99472c-0.52294,5.95685 -10.1102,5.0163 -10.1102,5.0163c7.32118,0 9.76157,-10.65963 6.27529,-13.63806c-3.48627,-2.97843 -1.39451,-11.28667 -1.39451,-11.28667c-1.56882,0.15676 -2.26608,4.85954 -2.26608,4.85954c0,0 -2.78902,-7.05417 3.31196,-10.0326c6.10098,-2.97843 4.35784,-9.09204 5.75235,-26.33556c1.39451,-17.08676 22.66079,-22.57334 29.28471,-22.41658c1.2202,0 2.26608,0 2.96333,0.31352c1.04588,-1.09732 3.48627,-0.94056 6.10098,-0.94056c4.53216,-0.15676 13.9451,4.38926 17.78,7.05417c11.33039,8.30824 13.42216,29.31399 13.59647,33.23297c0.17431,3.91898 5.40373,3.91898 5.40373,3.91898c-3.66059,0.62704 -6.27529,-0.31352 -6.27529,-0.31352c5.22941,5.0163 1.91745,10.34611 1.91745,10.34611c1.91745,3.29195 1.56882,9.71908 -0.52294,14.2651c-2.26608,4.54602 4.70647,7.05417 4.70647,7.05417c-5.22941,0.62704 -6.44961,-1.72435 -6.62392,-2.35139c1.39451,4.85954 2.61471,9.40556 0.17431,12.85426c-2.61471,3.4487 3.8349,7.52445 3.8349,7.52445c-2.09176,0 -6.27529,-1.09732 -6.27529,-1.09732c-2.26608,5.0163 7.14686,5.80009 7.14686,5.80009c-6.27529,1.41083 -9.06431,-0.47028 -9.06431,-0.47028c2.26608,5.64334 1.04588,8.93528 -0.69725,12.54074c-1.56882,3.4487 3.31196,7.83797 3.31196,7.83797c-4.70647,0.7838 -7.84412,-4.85954 -7.84412,-4.85954c2.96333,9.40556 -4.53216,12.07047 -4.53216,12.07047c2.61471,-3.4487 -0.52294,-7.83797 -0.52294,-7.83797c0.17431,3.60546 -1.56882,10.50287 -6.27529,11.60019c-4.70647,1.09732 -3.13765,7.21093 -3.13765,7.21093c-3.48627,-0.31352 -2.61471,-6.27037 -2.44039,-6.74065c-1.74314,9.87584 -10.45882,8.77852 -10.45882,8.77852c-3.48627,5.48658 -13.42216,3.29195 -13.42216,3.29195c3.8349,0.31352 6.97255,-2.66491 6.97255,-2.66491c-8.01843,4.07574 -12.89922,-0.62704 -13.07353,-4.54602c-0.17431,-3.91898 5.92667,-3.13519 5.92667,-3.13519c0,0 -6.97255,1.09732 -1.04588,5.17306c5.92667,4.07574 10.45882,-7.52445 5.75235,-9.09204c-4.70647,-1.56759 -3.66059,-5.95685 -3.66059,-5.95685c-3.66059,-1.09732 -9.41294,-5.32982 -8.36706,-9.56232c1.04588,-3.60546 -0.87157,-7.36769 -0.87157,-7.36769c2.61471,4.85954 -2.44039,5.80009 -2.44039,5.80009c0.52294,-2.97843 -1.04588,-5.48658 -5.22941,-7.52445c-3.13765,-1.56759 -2.09176,-5.32982 -1.39451,-7.21093c-1.74314,1.72435 -6.97255,0.62704 -6.97255,0.62704c2.96333,-0.15676 7.32118,-4.07574 3.8349,-6.42713c-3.48627,-2.50815 -2.26608,-4.85954 -2.26608,-4.85954c-5.0551,2.35139 -0.87157,6.27037 -0.87157,6.27037c-4.00922,0 -7.84412,-6.11361 -1.74314,-8.77852zM199.8362,118.06115c5.75235,7.05417 4.35784,8.93528 4.35784,8.93528c0,0 6.79824,-3.4487 11.33039,1.09732l9.76157,4.70278l8.54137,-2.82167c0,0 4.53216,-7.05417 13.59647,-6.58389c0,0 4.00922,-1.56759 2.44039,-6.11361c0,0 -1.04588,3.13519 -5.22941,1.56759c0,0 5.57804,-1.41083 4.18353,-7.21093c-1.2202,-5.95685 -3.66059,-9.40556 -7.6698,-15.67593c-5.92667,-9.40556 -13.77079,-8.62176 -18.30294,-12.38399c-1.91745,4.85954 -14.64235,9.56232 -19.69745,15.36241c0,0.15676 -9.06431,12.07047 -3.31196,19.12464z" fill="#c8bdb4" stroke-width="1"/><path d="M203.06995,98.90194c5.0551,-5.80009 17.85431,-10.54661 19.77176,-15.40615c4.53216,3.76222 12.44835,3.0079 18.37502,12.41346c4.00922,6.27037 6.46756,9.77992 7.68776,15.73677c1.39451,5.80009 -4.19415,7.23808 -4.19415,7.23808c4.18353,1.56759 5.23504,-1.57814 5.23504,-1.57814c1.56882,4.54602 -2.45096,6.13097 -2.45096,6.13097c-9.06431,-0.47028 -13.63452,6.61063 -13.63452,6.61063l-8.57007,2.82725l-9.79683,-4.70797c-4.53216,-4.54602 -11.35903,-1.11362 -11.35903,-1.11362c0,0 1.37518,-1.90558 -4.37717,-8.95975c-5.75235,-7.05417 3.31313,-19.03478 3.31313,-19.19154z" data-paper-data="{&quot;noHover&quot;:false,&quot;origItem&quot;:[&quot;Path&quot;,{&quot;applyMatrix&quot;:true,&quot;segments&quot;:[[[436.6,203.2],[-6.6,-9],[6.6,9]],[441.6,214.6],[[454.6,216],[-5.2,-5.8],[0,0]],[465.8,222],[475.6,218.4],[[491.2,210],[-10.4,-0.6],[0,0]],[[494,202.2],[1.8,5.8],[0,0]],[[488,204.2],[4.8,2],[0,0]],[[492.8,195],[1.6,7.4],[-1.4,-7.6]],[[484,175],[4.6,8],[-6.8,-12]],[[463,159.2],[5.2,4.8],[-2.2,6.2]],[[440.4,178.8],[5.8,-7.4],[0,0.2]]],&quot;closed&quot;:true,&quot;fillColor&quot;:[0,0,0,1]}]}" fill="#847e87" stroke-width="0.5"/><path d="M222.32267,79.18484c-0.17431,-0.31352 -0.52294,-0.7838 -1.04588,-1.09732c-0.17431,-0.15676 -0.52294,-0.31352 -0.87157,-0.47028c-0.34863,-0.15676 -0.69725,-0.15676 -1.04588,-0.31352c-0.34863,-0.15676 -0.87157,-0.15676 -1.2202,-0.31352c-0.34863,-0.15676 -0.87157,-0.15676 -1.2202,-0.15676c-0.87157,-0.15676 -1.74314,0 -2.61471,0c-0.87157,0 -1.56882,0.15676 -2.26608,0.15676c-1.39451,0.15676 -2.26608,0.15676 -2.26608,0.15676c0,0 0.69725,-0.31352 2.09176,-0.7838c0.52294,-0.15676 1.39451,-0.31352 2.26608,-0.47028c0.52294,0 0.87157,-0.15676 1.39451,-0.15676c0.52294,0 0.87157,0 1.39451,0c1.04588,0 1.91745,0.15676 2.78902,0.47028c0.52294,0.15676 0.87157,0.47028 1.2202,0.62704c0.34863,0.31352 0.69725,0.47028 0.87157,0.7838c0.34863,0.47028 0.52294,1.09732 0.69725,1.41083c0,0.47028 0,0.62704 0,0.62704c0,0 -0.17431,-0.15676 -0.17431,-0.47028z" fill="#99918a" stroke-width="1"/><path d="M223.19424,82.0065c0,0.31352 0,0.62704 0,0.94056c0,0.31352 -0.17431,0.7838 -0.34863,1.09732c-0.17431,0.47028 -0.34863,0.7838 -0.69725,1.25407c-0.34863,0.47028 -0.69725,0.94056 -1.04588,1.25407c-0.69725,0.7838 -1.56882,1.56759 -2.44039,2.19463c-1.74314,1.41083 -3.8349,2.50815 -5.40373,3.29195c-1.56882,0.62704 -2.61471,1.09732 -2.61471,1.09732c0,0 0.87157,-0.62704 2.26608,-1.56759c0.69725,-0.47028 1.56882,-0.94056 2.44039,-1.56759c0.87157,-0.62704 1.74314,-1.25407 2.61471,-1.88111c0.87157,-0.62704 1.74314,-1.41083 2.44039,-2.03787c0.34863,-0.47028 0.69725,-0.7838 1.04588,-1.09732c0.34863,-0.31352 0.69725,-0.62704 0.87157,-0.94056c0.17431,-0.31352 0.34863,-0.62704 0.52294,-0.94056c0.17431,-0.31352 0.17431,-0.62704 0.17431,-0.7838c0,-0.31352 -0.17431,-0.62704 -0.17431,-0.62704c0,0 0.17431,0.31352 0.34863,0.31352z" fill="#99918a" stroke-width="1"/><path d="M203.32248,122.13689c0.34863,0.47028 0.69725,1.09732 1.04588,1.88111c0.34863,0.7838 0.52294,1.72435 0.52294,2.50815c0,0.94056 -0.17431,1.72435 -0.52294,2.50815c0,0.47028 -0.34863,0.7838 -0.52294,1.09732c-0.17431,0.31352 -0.52294,0.62704 -0.69725,0.7838c-0.34863,0.31352 -0.52294,0.47028 -0.69725,0.62704c-0.17431,0.15676 -0.34863,0.31352 -0.52294,0.47028c-0.34863,0.15676 -0.52294,0.31352 -0.52294,0.31352c0,0 0.17431,-0.15676 0.34863,-0.47028c0,-0.15676 0.17431,-0.31352 0.34863,-0.47028c0.17431,-0.15676 0.34863,-0.31352 0.52294,-0.62704c0.17431,-0.15676 0.34863,-0.47028 0.52294,-0.7838c0.17431,-0.31352 0.34863,-0.62704 0.34863,-0.94056c0,-0.31352 0.17431,-0.7838 0.17431,-1.09732c0.17431,-0.31352 0.17431,-0.7838 0.17431,-1.09732c0.17431,-0.31352 0,-0.7838 0,-1.09732c0,-0.31352 0,-0.7838 -0.17431,-1.09732c-0.17431,-0.62704 -0.52294,-1.25407 -0.69725,-1.88111c-0.52294,-1.09732 -0.87157,-1.88111 -0.87157,-1.88111c0,0 0.69725,0.62704 1.2202,1.25407z" fill="#99918a" stroke-width="1"/><path d="M244.98346,119.15846c0.34863,0 0.87157,0 1.39451,0c0.34863,0 0.52294,0 0.87157,-0.15676c0.34863,0 0.52294,-0.15676 0.87157,-0.31352c0.17431,-0.15676 0.52294,-0.31352 0.69725,-0.62704c0.34863,-0.31352 0.52294,-0.47028 0.69725,-0.7838c0.17431,-0.15676 0.34863,-0.47028 0.52294,-0.7838c0.17431,-0.31352 0.17431,-0.62704 0.34863,-0.94056c0.17431,-0.62704 0.34863,-1.25407 0.52294,-1.72435c0.34863,-1.09732 0.52294,-1.72435 0.52294,-1.72435c0,0 0.17431,0.62704 0.17431,1.72435c0,0.62704 0,1.25407 -0.17431,1.72435c-0.17431,0.47028 -0.17431,0.7838 -0.34863,1.09732c-0.17431,0.47028 -0.34863,0.7838 -0.52294,1.09732c-0.34863,0.31352 -0.52294,0.62704 -0.87157,0.94056c-0.34863,0.31352 -0.69725,0.47028 -1.04588,0.62704c-0.69725,0.31352 -1.39451,0.31352 -2.09176,0.31352c-1.2202,-0.15676 -1.91745,-0.62704 -1.91745,-0.62704c0,0 0.17431,0.15676 0.34863,0.15676z" fill="#99918a" stroke-width="1"/><path d="M261.19464,120.09902c-1.04588,0.31352 -2.26608,0.31352 -3.66059,0.15676c-0.69725,-0.15676 -1.39451,-0.31352 -1.91745,-0.62704c-0.52294,-0.31352 -1.04588,-0.62704 -1.39451,-0.94056c-0.69725,-0.62704 -0.87157,-1.25407 -0.87157,-1.25407c0,0 0.17431,0.15676 0.34863,0.31352c0.17431,0.31352 0.52294,0.47028 0.87157,0.62704c0.17431,0.15676 0.52294,0.15676 0.69725,0.31352c0.17431,0.15676 0.52294,0.15676 0.69725,0.31352c0.52294,0.31352 1.2202,0.31352 1.74314,0.47028c1.2202,0.15676 2.44039,0.31352 3.31196,0.31352c0.87157,0.15676 1.56882,0.15676 1.56882,0.15676c0,0 -0.52294,0.31352 -1.39451,0.15676z" fill="#99918a" stroke-width="1"/><path d="M187.80855,107.55827c0,2.35139 -0.17431,5.17306 -0.34863,8.15148c-0.17431,0.7838 -0.17431,1.41083 -0.34863,2.19463c-0.17431,0.7838 -0.17431,1.41083 -0.34863,2.19463c-0.17431,0.7838 -0.52294,1.41083 -0.87157,2.03787c-0.52294,0.62704 -0.87157,0.94056 -1.39451,1.41083c-0.52294,0.47028 -1.04588,0.62704 -1.39451,0.94056c-0.52294,0.31352 -0.87157,0.47028 -1.2202,0.62704c-0.69725,0.31352 -1.04588,0.47028 -1.04588,0.47028c0,0 0.34863,-0.31352 0.87157,-0.62704c0.52294,-0.31352 1.2202,-0.94056 2.09176,-1.72435c0.69725,-0.7838 1.39451,-1.88111 1.56882,-3.13519c0,-0.62704 0.17431,-1.25407 0.17431,-2.03787c0,-0.7838 0.17431,-1.41083 0.17431,-2.19463c0.17431,-1.41083 0.34863,-2.82167 0.52294,-4.2325c0.17431,-1.41083 0.34863,-2.66491 0.52294,-3.76222c0.17431,-2.19463 0.52294,-3.60546 0.52294,-3.60546c0,0 0,1.56759 0.52294,3.29195z" fill="#99918a" stroke-width="1"/><path d="M180.13875,131.54245c-0.17431,0.7838 -0.17431,1.88111 -0.17431,3.29195c0.17431,1.25407 0.34863,2.82167 1.04588,4.38926c0.34863,0.7838 0.87157,1.41083 1.39451,2.19463c0.69725,0.7838 1.2202,1.72435 1.39451,2.66491c0.17431,0.94056 0.17431,1.88111 0.17431,2.82167c-0.17431,0.94056 -0.34863,1.88111 -0.69725,2.66491c-0.17431,0.94056 -0.69725,1.72435 -1.2202,2.35139c-0.52294,0.62704 -1.2202,1.25407 -1.74314,1.72435c-0.52294,0.47028 -1.2202,0.94056 -1.74314,1.09732c-0.52294,0.31352 -1.2202,0.31352 -1.56882,0.47028c-0.52294,0 -0.87157,0 -1.04588,0c-0.17431,0 -0.34863,0 -0.34863,0c0,0 0.17431,0 0.34863,0c0.34863,0 0.69725,0 1.04588,-0.15676c0.34863,-0.15676 0.87157,-0.31352 1.39451,-0.62704c0.17431,-0.15676 0.52294,-0.31352 0.69725,-0.47028c0.17431,-0.15676 0.52294,-0.31352 0.69725,-0.62704c0.52294,-0.47028 1.04588,-1.09732 1.39451,-1.72435c0.34863,-0.62704 0.87157,-1.41083 1.04588,-2.19463c0.34863,-0.7838 0.52294,-1.72435 0.52294,-2.50815c0.17431,-0.7838 0,-1.72435 -0.17431,-2.50815c-0.17431,-0.94056 -0.52294,-1.56759 -1.04588,-2.35139c-0.52294,-0.62704 -1.04588,-1.56759 -1.39451,-2.35139c-0.52294,-0.7838 -0.52294,-1.72435 -0.69725,-2.50815c0,-0.7838 0,-1.56759 0,-2.19463c0.17431,-1.41083 0.52294,-2.50815 0.69725,-3.29195c0.34863,-0.7838 0.52294,-1.25407 0.52294,-1.25407c0,0 -0.17431,0.47028 -0.52294,1.09732z" fill="#99918a" stroke-width="1"/><path d="M180.13875,166.02949c-0.17431,-0.47028 -0.52294,-0.94056 -0.69725,-1.56759c0,-0.31352 0,-0.62704 0,-0.94056c0,-0.31352 0,-0.62704 0.17431,-0.94056c0.17431,-0.31352 0.34863,-0.62704 0.52294,-0.94056c0.17431,-0.15676 0.34863,-0.47028 0.69725,-0.62704c0.52294,-0.31352 1.04588,-0.62704 1.56882,-0.7838c0.52294,-0.15676 0.87157,-0.15676 1.2202,-0.31352c0.34863,-0.15676 0.52294,-0.15676 0.52294,-0.15676c0,0 -0.17431,0.15676 -0.34863,0.31352c-0.17431,0.15676 -0.52294,0.31352 -0.87157,0.62704c-0.17431,0.15676 -0.34863,0.31352 -0.52294,0.47028c-0.17431,0.15676 -0.34863,0.31352 -0.52294,0.47028c-0.17431,0.15676 -0.34863,0.47028 -0.52294,0.62704c-0.17431,0.15676 -0.17431,0.47028 -0.34863,0.62704c0,0.31352 -0.17431,0.47028 -0.17431,0.7838c0,0.31352 0,0.47028 0,0.7838c0,0.47028 0.17431,0.94056 0.34863,1.41083c0.34863,0.94056 0.69725,1.41083 0.69725,1.41083c0,0 -0.52294,-0.31352 -1.74314,-1.25407z" fill="#99918a" stroke-width="1"/><path d="M183.2764,172.29987c0.69725,-0.15676 1.39451,-0.15676 2.26608,-0.31352c0.34863,0 0.87157,-0.15676 1.2202,-0.31352c0.34863,-0.15676 0.69725,-0.15676 1.04588,-0.47028c0.34863,-0.31352 0.52294,-0.47028 0.87157,-0.7838c0.34863,-0.31352 0.52294,-0.62704 0.69725,-0.94056c0.17431,-0.31352 0.34863,-0.62704 0.52294,-0.94056c0.17431,-0.31352 0.17431,-0.62704 0.34863,-0.94056c0.17431,-0.47028 0.17431,-1.09732 0.34863,-1.41083c0.17431,-0.47028 0.17431,-0.62704 0.17431,-0.62704c0,0 0.17431,0.31352 0.17431,0.62704c0,0.31352 0.17431,0.94056 0,1.56759c0,0.31352 0,0.7838 -0.17431,1.09732c0,0.31352 -0.17431,0.7838 -0.34863,1.09732c-0.34863,0.31352 -0.52294,0.7838 -0.87157,1.09732c-0.17431,0.31352 -0.52294,0.62704 -1.04588,0.94056c-0.52294,0.31352 -0.87157,0.47028 -1.39451,0.62704c-0.52294,0.15676 -0.87157,0.31352 -1.39451,0.31352c-0.87157,0.15676 -1.74314,0.15676 -2.44039,0c-1.39451,-0.31352 -2.26608,-0.62704 -2.26608,-0.62704c0,0 1.04588,0.15676 2.26608,0z" fill="#99918a" stroke-width="1"/><path d="M237.8366,79.65511c-1.04588,-0.31352 -2.09176,-0.7838 -3.31196,-1.25407c-1.2202,-0.47028 -2.44039,-0.7838 -3.8349,-1.25407c-0.52294,-0.15676 -1.2202,-0.31352 -1.91745,-0.47028c-0.69725,-0.15676 -1.2202,-0.47028 -1.91745,-0.47028c-0.69725,0 -1.39451,-0.15676 -1.91745,-0.15676c-0.69725,0 -1.2202,0 -1.74314,0c-1.04588,0.15676 -1.91745,0.31352 -2.44039,0.47028c-0.52294,0.31352 -0.87157,0.47028 -0.87157,0.47028c0,0 0.17431,-0.31352 0.69725,-0.62704c0.52294,-0.31352 1.39451,-0.62704 2.44039,-0.7838c0.52294,0 1.04588,-0.15676 1.74314,-0.15676c0.52294,0 1.2202,0.15676 1.91745,0.15676c0.69725,0 1.39451,0.15676 2.09176,0.31352c0.69725,0.15676 1.39451,0.31352 2.09176,0.47028c0.52294,0.15676 1.2202,0.47028 1.91745,0.62704c0.69725,0.15676 1.39451,0.47028 1.91745,0.7838c1.2202,0.47028 2.26608,1.09732 3.13765,1.56759c0.87157,0.47028 1.56882,0.94056 2.09176,1.25407c0.52294,0.31352 0.87157,0.47028 0.87157,0.47028c0,0 -1.39451,-0.47028 -2.96333,-1.41083z" fill="#99918a" stroke-width="1"/><path d="M262.41483,151.45088c-0.34863,0.15676 -0.87157,0.31352 -1.56882,0.31352c-0.34863,0 -0.69725,0 -1.04588,0c-0.34863,0 -0.87157,0 -1.2202,-0.15676c-0.52294,-0.15676 -0.87157,-0.31352 -1.2202,-0.47028c-0.34863,-0.15676 -0.69725,-0.31352 -1.04588,-0.62704c-0.34863,-0.31352 -0.69725,-0.62704 -0.87157,-0.94056c-0.34863,-0.31352 -0.52294,-0.62704 -0.69725,-0.94056c-0.34863,-0.62704 -0.52294,-1.25407 -0.69725,-1.88111c-0.17431,-0.62704 -0.17431,-1.09732 -0.17431,-1.41083c0,-0.31352 0,-0.47028 0,-0.47028c0,0 0,0.15676 0.17431,0.47028c0.17431,0.31352 0.17431,0.7838 0.52294,1.25407c0,0.31352 0.17431,0.47028 0.34863,0.7838c0.17431,0.15676 0.34863,0.47028 0.52294,0.7838c0.17431,0.31352 0.52294,0.47028 0.69725,0.7838c0.17431,0.31352 0.52294,0.47028 0.69725,0.7838c0.34863,0.15676 0.52294,0.47028 0.87157,0.62704c0.17431,0.15676 0.52294,0.31352 0.87157,0.47028c0.69725,0.31352 1.39451,0.47028 1.91745,0.47028c0.52294,0.15676 1.04588,0.15676 1.39451,0.15676c0.34863,0 0.52294,0 0.52294,0c0,0 -0.17431,0 0,0z" fill="#99918a" stroke-width="1"/><path d="M259.80013,126.52615c0,0.94056 0,2.19463 -0.69725,3.29195c-0.34863,0.47028 -0.69725,1.09732 -1.2202,1.41083c-0.34863,0.15676 -0.52294,0.31352 -0.87157,0.47028c-0.34863,0.15676 -0.52294,0.31352 -0.87157,0.31352c-0.52294,0.15676 -0.87157,0.15676 -1.2202,0.15676c-0.34863,0 -0.52294,0 -0.52294,0c0,0 0,0 0.34863,-0.15676c0.17431,0 0.34863,-0.15676 0.52294,-0.15676c0.17431,-0.15676 0.34863,-0.15676 0.52294,-0.31352c0.17431,0 0.34863,-0.15676 0.52294,-0.31352c0.17431,-0.15676 0.34863,-0.31352 0.52294,-0.47028c0.17431,-0.15676 0.34863,-0.47028 0.52294,-0.62704c0,-0.15676 0.17431,-0.31352 0.34863,-0.62704c0.34863,-0.62704 0.52294,-1.09732 0.69725,-1.56759c0.17431,-0.47028 0.17431,-0.94056 0.34863,-1.41083c0.17431,-0.7838 0.34863,-1.41083 0.34863,-1.41083c0,0 0.34863,0.62704 0.69725,1.41083z" fill="#99918a" stroke-width="1"/><path d="M255.96522,169.32144c-1.04588,0 -2.09176,-0.31352 -3.31196,-0.62704c-0.52294,-0.31352 -1.2202,-0.47028 -1.74314,-0.7838c-0.52294,-0.31352 -1.04588,-0.62704 -1.56882,-1.09732c-0.34863,-0.15676 -0.52294,-0.31352 -0.69725,-0.62704c-0.17431,-0.31352 -0.34863,-0.47028 -0.52294,-0.7838c-0.17431,-0.31352 -0.34863,-0.47028 -0.52294,-0.7838c-0.17431,-0.15676 -0.17431,-0.47028 -0.34863,-0.7838c0,-0.31352 -0.17431,-0.47028 -0.17431,-0.7838c0,-0.31352 0,-0.47028 0,-0.7838c0,-0.47028 0,-0.94056 0.17431,-1.41083c0.34863,-1.72435 1.04588,-2.82167 1.04588,-2.82167c0,0 0,0.31352 -0.17431,0.7838c0,0.47028 -0.17431,1.25407 -0.17431,2.03787c0,0.47028 0,0.94056 0,1.41083c0,0.15676 0.17431,0.47028 0.17431,0.62704c0.17431,0.31352 0.17431,0.62704 0.34863,0.7838c0.17431,0.31352 0.17431,0.47028 0.34863,0.7838l0.52294,0.62704c0.17431,0.15676 0.34863,0.47028 0.52294,0.62704c0.34863,0.31352 0.52294,0.47028 0.69725,0.62704c0.34863,0.31352 0.87157,0.62704 1.39451,0.94056c0.52294,0.31352 1.04588,0.62704 1.56882,0.7838c1.04588,0.47028 2.09176,0.7838 2.96333,0.94056c1.91745,0.31352 3.13765,0.47028 3.13765,0.47028c0,0 -1.2202,0.15676 -3.66059,-0.15676z" fill="#99918a" stroke-width="1"/><path d="M258.57993,174.96478c-0.69725,0.15676 -1.56882,0.31352 -2.44039,0.31352c-0.52294,-0.15676 -0.87157,0 -1.39451,-0.15676c-0.52294,-0.15676 -0.87157,-0.15676 -1.39451,-0.31352c-0.52294,-0.15676 -0.87157,-0.31352 -1.39451,-0.47028c-0.52294,-0.15676 -0.87157,-0.47028 -1.2202,-0.62704c-0.34863,-0.15676 -0.69725,-0.47028 -1.04588,-0.62704c-0.34863,-0.15676 -0.69725,-0.47028 -0.87157,-0.62704c-0.52294,-0.47028 -0.87157,-0.94056 -1.04588,-1.25407c-0.17431,-0.31352 -0.34863,-0.47028 -0.34863,-0.47028c0,0 0.17431,0.15676 0.52294,0.31352c0.17431,0.15676 0.34863,0.31352 0.52294,0.47028c0.17431,0.15676 0.34863,0.31352 0.69725,0.47028c0.17431,0.15676 0.52294,0.31352 0.87157,0.47028c0.34863,0.15676 0.69725,0.31352 1.04588,0.47028c0.87157,0.31352 1.56882,0.62704 2.44039,0.7838c1.56882,0.47028 3.31196,0.47028 4.70647,0.47028c1.39451,0 2.26608,-0.15676 2.26608,-0.15676c0,0 -0.87157,0.47028 -1.91745,0.94056z" fill="#99918a" stroke-width="1"/><path d="M252.82758,193.14886c-0.69725,-0.62704 -1.56882,-1.41083 -2.09176,-2.50815c-0.34863,-0.47028 -0.52294,-1.09732 -0.52294,-1.56759c0,-0.47028 0,-0.94056 0,-1.41083c0.17431,-0.31352 0.34863,-0.7838 0.34863,-0.94056c0.17431,-0.15676 0.17431,-0.31352 0.17431,-0.31352c0,0 0,0.62704 0.17431,1.41083c0.17431,0.7838 0.34863,1.72435 0.87157,2.66491c0.52294,0.94056 1.04588,1.88111 1.56882,2.50815c0.52294,0.62704 0.87157,1.09732 0.87157,1.09732c0,0 -0.69725,-0.31352 -1.39451,-0.94056z" fill="#99918a" stroke-width="1"/><path d="M247.42385,191.4245c0.17431,0.62704 0.34863,1.56759 0.34863,2.35139c-0.17431,0.31352 -0.17431,0.7838 -0.17431,1.25407c-0.17431,0.47028 -0.17431,0.94056 -0.34863,1.41083c0,0.47028 -0.34863,0.7838 -0.52294,1.25407c-0.17431,0.47028 -0.69725,0.7838 -0.87157,1.09732c-0.17431,0.47028 -0.52294,0.62704 -0.87157,0.94056c-0.34863,0.31352 -0.69725,0.47028 -1.04588,0.62704c-0.52294,0.47028 -1.2202,0.62704 -1.56882,0.7838c-0.52294,0.31352 -0.69725,0.31352 -0.69725,0.31352c0,0 0.17431,-0.15676 0.52294,-0.47028c0.17431,-0.15676 0.34863,-0.31352 0.52294,-0.47028c0.17431,-0.15676 0.52294,-0.47028 0.69725,-0.62704c0.17431,-0.31352 0.52294,-0.47028 0.69725,-0.7838c0.17431,-0.31352 0.52294,-0.62704 0.69725,-0.94056c0.17431,-0.47028 0.52294,-0.7838 0.69725,-1.09732c0.17431,-0.31352 0.34863,-0.62704 0.52294,-1.09732c0.34863,-0.7838 0.34863,-1.56759 0.52294,-2.35139c0,-0.7838 0,-1.56759 0,-2.19463c-0.17431,-1.25407 -0.34863,-2.19463 -0.34863,-2.19463c0,0 0.69725,0.7838 1.2202,2.19463z" fill="#99918a" stroke-width="1"/><path d="M231.03836,212.27349c-0.17431,0 -0.52294,0 -0.69725,-0.15676c-0.17431,0 -0.52294,-0.31352 -0.69725,-0.47028c-0.34863,-0.15676 -0.52294,-0.47028 -0.69725,-0.7838c-0.17431,-0.31352 -0.17431,-0.7838 -0.34863,-1.09732c-0.17431,-0.47028 -0.17431,-0.7838 -0.17431,-1.25407c0,-0.47028 0,-0.7838 0,-1.25407c0.17431,-0.94056 0.34863,-1.56759 0.52294,-2.35139c0.34863,-0.62704 0.69725,-1.41083 0.87157,-1.88111c0.52294,-1.09732 1.04588,-1.72435 1.04588,-1.72435c0,0 0,0.7838 -0.34863,1.88111c-0.17431,0.47028 -0.34863,1.25407 -0.52294,1.88111c-0.17431,0.7838 -0.34863,1.41083 -0.34863,2.19463c0,0.7838 0,1.56759 0,2.19463c0,0.31352 0,0.62704 0.17431,0.94056c0,0.31352 0.17431,0.47028 0.34863,0.7838c0.17431,0.31352 0.34863,0.47028 0.52294,0.62704c0.17431,0.15676 0.34863,0.31352 0.52294,0.31352c0.34863,0.15676 0.52294,0.15676 0.52294,0.15676c0,0 -0.17431,0 -0.69725,0z" fill="#99918a" stroke-width="1"/><path d="M228.59797,209.60858c-0.17431,0.31352 -0.34863,0.7838 -0.69725,1.09732c-0.17431,0.31352 -0.52294,0.7838 -0.87157,1.09732c-0.34863,0.31352 -0.69725,0.62704 -1.2202,0.94056c-0.34863,0.31352 -0.87157,0.62704 -1.39451,0.7838c-0.52294,0.31352 -1.04588,0.47028 -1.56882,0.62704c-0.52294,0.15676 -1.04588,0.15676 -1.56882,0.31352c-0.52294,0 -1.04588,0 -1.56882,0c-0.52294,0 -1.04588,-0.15676 -1.39451,-0.15676c-0.87157,0 -1.39451,-0.31352 -1.91745,-0.47028c-0.52294,-0.15676 -0.69725,-0.31352 -0.69725,-0.31352c0,0 0.17431,0 0.69725,0c0.52294,0 1.04588,0.15676 1.91745,0.15676c0.34863,0 0.69725,0 1.2202,0c0.52294,0 0.87157,-0.15676 1.39451,-0.15676c0.34863,-0.15676 0.87157,-0.15676 1.39451,-0.31352c0.52294,-0.15676 1.04588,-0.15676 1.39451,-0.47028c0.34863,-0.15676 0.87157,-0.31352 1.2202,-0.62704c0.52294,-0.15676 0.87157,-0.47028 1.2202,-0.7838c0.17431,-0.31352 0.52294,-0.62704 0.87157,-0.94056c0.17431,-0.31352 0.52294,-0.62704 0.69725,-0.94056c0.52294,-0.47028 0.87157,-1.09732 1.04588,-1.41083c0.17431,-0.47028 0.34863,-0.62704 0.34863,-0.62704c0,0 -0.17431,0.94056 -0.52294,2.19463z" fill="#99918a" stroke-width="1"/><path d="M209.42346,216.19247c-0.52294,0 -1.04588,0.15676 -1.56882,0.31352c-0.52294,0.15676 -1.04588,0.15676 -1.74314,0.15676c-0.34863,0 -0.69725,0 -1.04588,0c-0.34863,0 -0.69725,0 -1.04588,-0.15676c-0.69725,-0.15676 -1.39451,-0.47028 -1.91745,-0.7838l-0.87157,-0.62704c-0.34863,-0.15676 -0.52294,-0.47028 -0.69725,-0.62704c-0.52294,-0.31352 -0.69725,-0.94056 -1.04588,-1.41083c-0.52294,-0.94056 -0.87157,-2.03787 -0.69725,-2.97843c0.17431,-0.94056 0.69725,-1.56759 1.2202,-1.88111c0.52294,-0.31352 0.87157,-0.31352 0.87157,-0.31352c0,0 -0.34863,0.15676 -0.69725,0.47028c-0.34863,0.31352 -0.69725,0.94056 -0.69725,1.72435c0.17431,0.7838 0.52294,1.56759 1.04588,2.50815c0.34863,0.47028 0.69725,0.94056 1.04588,1.25407c0.17431,0.31352 0.34863,0.47028 0.52294,0.62704l0.69725,0.47028c0.52294,0.15676 1.04588,0.47028 1.56882,0.62704c0.34863,0 0.52294,0.15676 0.87157,0.15676c0.34863,0.15676 0.52294,0.15676 0.87157,0.15676c1.2202,0.15676 2.26608,0 3.13765,-0.15676c1.04588,-0.31352 1.74314,-0.47028 2.26608,-0.62704c0.52294,-0.15676 0.87157,-0.31352 0.87157,-0.31352c0,0 -1.04588,0.7838 -2.96333,1.41083z" fill="#99918a" stroke-width="1"/><path d="M212.38679,204.12201c-0.34863,0 -0.87157,0 -1.56882,-0.15676c-0.34863,-0.15676 -0.69725,-0.15676 -1.04588,-0.31352c-0.34863,-0.15676 -0.69725,-0.31352 -1.04588,-0.47028c-0.34863,-0.15676 -0.69725,-0.47028 -1.04588,-0.7838c-0.34863,-0.31352 -0.52294,-0.62704 -0.87157,-0.94056c-0.17431,-0.31352 -0.34863,-0.62704 -0.52294,-1.09732c-0.17431,-0.31352 -0.34863,-0.7838 -0.34863,-1.09732c0,-0.7838 0,-1.41083 0,-2.03787c0,-0.62704 0.34863,-1.09732 0.34863,-1.41083c0.17431,-0.31352 0.17431,-0.47028 0.17431,-0.47028c0,0 0,0.15676 0,0.47028c0,0.31352 0,0.7838 0.17431,1.41083c0,0.31352 0.17431,0.62704 0.17431,0.94056c0,0.31352 0.17431,0.62704 0.17431,0.94056c0,0.31352 0.17431,0.62704 0.34863,0.94056c0.17431,0.31352 0.34863,0.62704 0.52294,0.94056c0.17431,0.15676 0.34863,0.47028 0.69725,0.7838c0.34863,0.31352 0.52294,0.62704 0.87157,0.7838c0.52294,0.47028 1.2202,0.7838 1.74314,0.94056c0.52294,0.31352 1.04588,0.47028 1.39451,0.47028c0.34863,0.15676 0.52294,0.15676 0.52294,0.15676c0,0 -0.17431,0 -0.69725,0z" fill="#99918a" stroke-width="1"/><path d="M196.0013,185.62441c0.34863,-0.31352 0.69725,-0.62704 0.87157,-1.09732c0.17431,-0.31352 0.17431,-0.47028 0.34863,-0.7838c0,-0.15676 0.17431,-0.47028 0.17431,-0.7838c0.34863,-1.09732 0.34863,-2.19463 0.52294,-3.13519c0,-0.94056 0.17431,-1.56759 0.17431,-1.56759c0,0 0.34863,0.47028 0.52294,1.41083c0,0.47028 0.17431,0.94056 0.17431,1.56759c0,0.31352 0,0.62704 0,0.94056c0,0.31352 0,0.62704 -0.17431,0.94056c-0.17431,0.31352 -0.17431,0.62704 -0.34863,0.94056c-0.17431,0.31352 -0.34863,0.47028 -0.52294,0.7838c-0.17431,0.15676 -0.52294,0.47028 -0.69725,0.62704c-0.17431,0.15676 -0.52294,0.31352 -0.69725,0.47028c-0.52294,0.15676 -0.87157,0.31352 -1.2202,0.31352c-0.34863,0 -0.52294,0 -0.52294,0c0,0 0.69725,-0.15676 1.39451,-0.62704z" fill="#99918a" stroke-width="1"/><path d="M240.10267,198.32191c0.17431,-0.94056 0.34863,-2.35139 0.52294,-3.76222c0.17431,-0.62704 0.17431,-1.41083 0.17431,-2.03787c0,-0.31352 0,-0.62704 0,-0.94056c-0.17431,-0.31352 -0.17431,-0.47028 -0.17431,-0.7838c-0.17431,-0.47028 -0.17431,-0.94056 -0.34863,-1.25407c-0.17431,-0.31352 -0.17431,-0.47028 -0.17431,-0.47028c0,0 0.17431,0.15676 0.34863,0.47028c0.17431,0.31352 0.52294,0.7838 0.69725,1.25407c0.17431,0.62704 0.34863,1.25407 0.52294,1.88111c0,0.7838 0,1.41083 0,2.19463c-0.17431,1.56759 -0.52294,2.97843 -1.04588,3.91898c-0.52294,0.94056 -0.87157,1.56759 -0.87157,1.56759c0,0 0.17431,-0.7838 0.34863,-2.03787z" fill="#99918a" stroke-width="1"/></g><path d="M208.89346,111.66096c-0.12411,-1.81719 1.33542,-3.31185 3.25995,-3.33841c1.92449,-0.02657 3.58525,1.42499 3.70936,3.24217c0.12411,1.81719 -1.33542,3.31185 -3.25995,3.33842c-1.92449,0.02657 -3.58525,-1.425 -3.70936,-3.24219z" fill="#d23d3d" stroke-width="1"/><path d="M234.20146,111.0396c-0.11893,-1.81719 1.27978,-3.31185 3.12409,-3.33842c1.84431,-0.02657 3.43586,1.425 3.5548,3.24219c0.11893,1.81719 -1.27978,3.31185 -3.12409,3.33841c-1.84431,0.02657 -3.43586,-1.42499 -3.5548,-3.24217z" fill="#d23d3d" stroke-width="1"/><path d="M210.12071,108.96911c-3.13765,0 -4.70647,1.88111 -4.70647,1.88111c0.17431,-1.41083 1.91745,-2.50815 1.91745,-2.50815l-2.61471,0.47028c1.74314,-3.76222 7.49549,-3.13519 7.49549,-3.13519l-1.91745,-0.47028c3.48627,-1.25407 8.01843,-0.47028 8.01843,-0.47028l-1.56882,-0.94056c3.66059,-0.31352 5.92667,1.88111 5.0551,3.60546c-0.87157,1.41083 -8.36706,1.88111 -11.67902,1.56759z" fill="#c8bdb4" stroke-width="1"/><path d="M228.94659,107.55827c-1.04588,-1.72435 0.87157,-3.91898 4.70647,-4.07574l-1.39451,1.09732c0,0 4.35784,-1.09732 8.01843,-0.15676l-1.91745,0.62704c0,0 5.57804,-1.09732 7.6698,2.50815l-2.78902,-0.15676c0,0 1.74314,0.94056 2.26608,2.35139c0,0 -1.74314,-1.88111 -4.88078,-1.41083c-3.13765,0.31352 -10.80745,0.62704 -11.67902,-0.7838z" fill="#c8bdb4" stroke-width="1"/><path d="M215.69875,114.45568c-0.52294,0.31352 -1.39451,0.62704 -2.09176,0.7838c-0.69725,0.15676 -1.56882,0.31352 -2.09176,0.47028c-0.17431,0.15676 -0.52294,0.15676 -0.69725,0.15676c-0.17431,0 -0.34863,0 -0.34863,0c0,0 0.17431,-0.31352 0.69725,-0.62704c0.52294,-0.31352 1.2202,-0.7838 2.09176,-0.94056c0.87157,-0.15676 1.56882,-0.31352 2.26608,-0.31352c0.69725,0 1.04588,0.15676 1.04588,0.15676c0,0 -0.34863,0.31352 -0.87157,0.31352z" fill="#666168" stroke-width="1"/><path d="M238.88248,114.61244c-0.52294,0 -1.39451,0 -2.09176,-0.15676c-0.69725,-0.15676 -1.39451,-0.31352 -1.91745,-0.47028c-0.52294,-0.15676 -0.87157,-0.31352 -0.87157,-0.31352c0,0 0.52294,-0.15676 1.04588,-0.31352c0.52294,-0.15676 1.39451,-0.15676 2.09176,0c0.69725,0.15676 1.39451,0.31352 1.91745,0.62704c0.52294,0.31352 0.87157,0.47028 0.87157,0.47028c0,0 -0.34863,0.15676 -1.04588,0.15676z" fill="#666168" stroke-width="1"/><g stroke-width="1"><path d="M234.69895,125.74235c0,0 2.61471,-0.62704 4.53216,2.03787c1.91745,2.66491 3.66059,2.35139 3.66059,2.35139c0,0 -1.91745,1.72435 -4.18353,0.62704c0,0 2.09176,2.82167 -0.69725,4.70278c0,0 0,-2.19463 -0.87157,-3.29195c0,0 0.69725,3.76222 -3.13765,4.54602c0,0 0,-0.94056 0,-2.35139c0,0 -0.17431,1.09732 -2.61471,1.72435l-0.17431,-3.29195c0.52294,2.82167 -2.78902,3.91898 -2.78902,3.91898c-1.2202,-1.09732 -0.34863,-3.91898 -0.34863,-3.91898c-0.87157,0.47028 -1.2202,4.2325 -1.2202,4.2325c-1.04588,-0.94056 -1.2202,-4.2325 -1.2202,-4.2325c0.52294,3.60546 -3.66059,4.70278 -3.66059,4.70278c0.87157,-0.7838 -1.04588,-4.70278 -1.04588,-4.70278c0.52294,3.4487 -1.56882,4.70278 -1.56882,4.70278c-1.56882,-0.7838 -1.2202,-3.4487 -1.2202,-3.4487l-1.91745,3.4487c-2.61471,-1.56759 -0.52294,-4.2325 -0.52294,-4.2325c-0.87157,0.47028 -2.09176,2.82167 -2.09176,2.82167c-0.17431,-2.03787 0.87157,-4.54602 0.87157,-4.54602c-0.69725,1.09732 -3.48627,0.47028 -3.48627,0.47028c0.87157,0 2.61471,-1.72435 3.8349,-2.97843c4.70647,-5.17306 12.55059,-3.29195 12.55059,-3.29195" fill="#c8bdb4"/><path d="M241.32287,129.81809c-0.52294,-0.15676 -1.04588,-0.47028 -1.39451,-0.7838c-0.52294,-0.31352 -0.87157,-0.7838 -1.2202,-1.09732c-0.69725,-0.7838 -1.56882,-1.41083 -2.26608,-1.72435c-0.52294,-0.15676 -0.87157,-0.31352 -1.04588,-0.31352c-0.17431,-0.15676 -0.34863,-0.15676 -0.34863,-0.15676c0,0 0.52294,-0.31352 1.56882,-0.15676c0.52294,0 1.04588,0.15676 1.56882,0.47028c0.52294,0.31352 1.04588,0.62704 1.39451,1.09732c0.34863,0.47028 0.69725,0.94056 1.04588,1.25407c0.34863,0.31352 0.69725,0.62704 1.04588,0.94056c0.34863,0.31352 0.69725,0.47028 0.87157,0.62704c0.17431,0.15676 0.34863,0.15676 0.34863,0.15676c0,0 -0.69725,0.15676 -1.56882,-0.31352z" fill="#99918a"/><path d="M237.8366,132.95328c0,0.62704 0,1.41083 -0.52294,2.19463c-0.17431,0.47028 -0.52294,0.7838 -0.87157,0.94056c-0.34863,0.31352 -0.69725,0.47028 -1.04588,0.47028c-0.34863,0.15676 -0.69725,0.15676 -0.87157,0.15676c-0.17431,0 -0.34863,0 -0.34863,0c0,0 0,0 0.17431,-0.15676c0.17431,-0.15676 0.34863,-0.31352 0.52294,-0.47028c0.17431,-0.15676 0.52294,-0.47028 0.69725,-0.62704c0.34863,-0.31352 0.52294,-0.47028 0.69725,-0.7838c0.34863,-0.62704 0.52294,-1.25407 0.69725,-1.72435c0.17431,-0.47028 0.17431,-0.94056 0.17431,-0.94056c0,0 0.34863,0.47028 0.69725,0.94056z" fill="#99918a"/><path d="M219.88228,126.21263c-1.2202,0.47028 -2.78902,1.09732 -4.00922,2.03787c-0.69725,0.47028 -1.2202,0.94056 -1.74314,1.56759c-0.52294,0.47028 -1.2202,0.94056 -1.74314,1.25407c-1.04588,0.62704 -1.91745,0.94056 -1.91745,0.94056c0,0 0.69725,-0.62704 1.56882,-1.41083c0.34863,-0.31352 0.87157,-0.94056 1.39451,-1.41083c0.17431,-0.31352 0.34863,-0.62704 0.69725,-0.94056c0.34863,-0.15676 0.69725,-0.47028 1.04588,-0.7838c1.56882,-0.94056 3.31196,-1.56759 4.53216,-1.72435c1.39451,-0.15676 2.26608,-0.15676 2.26608,-0.15676c0,0 -0.87157,0.31352 -2.09176,0.62704z" fill="#99918a"/><path d="M218.31346,134.83439c0,0.31352 0.17431,0.62704 0.34863,1.09732c0.17431,0.31352 0.17431,0.7838 0.34863,1.09732c0,0.31352 0.17431,0.62704 0.17431,0.62704c0,0 -0.34863,0 -0.69725,-0.15676c-0.52294,-0.31352 -0.87157,-0.7838 -1.04588,-1.25407c-0.17431,-0.47028 -0.17431,-1.09732 0,-1.41083c0.17431,-0.47028 0.34863,-0.62704 0.34863,-0.62704c0,0 0.17431,0.15676 0.52294,0.62704z" fill="#99918a"/><path d="M228.07503,133.58032c0.17431,0.31352 0.17431,0.7838 0.17431,1.25407c0,0.47028 0,0.94056 0,1.25407c0,0.15676 0,0.31352 0,0.47028v0.15676c0,0 -0.34863,-0.15676 -0.69725,-0.47028c-0.34863,-0.31352 -0.52294,-0.94056 -0.52294,-1.41083c0,-0.47028 0.17431,-1.09732 0.34863,-1.41083c0.17431,-0.47028 0.34863,-0.62704 0.34863,-0.62704c0,0 0.17431,0.31352 0.34863,0.7838z" fill="#99918a"/><path d="M221.27679,133.58032c0.34863,0.31352 0.69725,0.94056 0.87157,1.56759c0.17431,0.62704 0.17431,1.25407 0,1.72435c-0.17431,0.62704 -0.52294,0.62704 -0.52294,0.62704c0,0 0,0 0,-0.15676c0,0 -0.17431,-0.31352 -0.17431,-0.47028c-0.17431,-0.47028 -0.34863,-0.94056 -0.52294,-1.56759c-0.17431,-0.47028 -0.34863,-1.09732 -0.34863,-1.56759c0,-0.47028 0,-0.7838 0,-0.7838c0,0 0.34863,0.31352 0.69725,0.62704z" fill="#99918a"/><path d="M225.80895,134.67763c0.17431,0.15676 0.34863,0.62704 0.52294,0.94056c0.17431,0.47028 0.17431,0.7838 0.17431,1.09732c0,0.15676 0,0.15676 0,0.31352c0,0.15676 0,0.15676 0,0.15676c0,0 -0.17431,0 -0.52294,-0.31352c-0.34863,-0.31352 -0.52294,-0.62704 -0.69725,-1.09732c-0.17431,-0.31352 0,-0.7838 0,-1.09732c0,-0.31352 0.17431,-0.47028 0.17431,-0.47028c0,0 0.17431,0.15676 0.34863,0.47028z" fill="#99918a"/><path d="M239.23111,131.22893c0.17431,0.47028 0.52294,1.09732 0.52294,1.88111c0,0.47028 -0.17431,0.7838 -0.34863,1.09732c-0.17431,0.31352 -0.52294,0.62704 -0.69725,0.7838c-0.52294,0.31352 -0.87157,0.31352 -0.87157,0.31352c0,0 0.34863,-0.31352 0.52294,-0.7838c0.17431,-0.31352 0.34863,-0.94056 0.34863,-1.41083c0.17431,-0.47028 0,-1.09732 0,-1.56759c0,-0.47028 0,-0.7838 0,-0.7838c0,0 0.34863,0.15676 0.52294,0.47028z" fill="#99918a"/><path d="M214.65287,137.34254c-0.17431,-0.15676 -0.52294,-0.31352 -0.69725,-0.62704c0,-0.15676 -0.17431,-0.31352 -0.17431,-0.47028c0,-0.15676 0,-0.31352 0,-0.47028c0,-0.7838 0.34863,-1.41083 0.69725,-1.72435c0.34863,-0.47028 0.69725,-0.62704 0.69725,-0.62704c0,0 0,0.31352 0,0.7838c-0.17431,0.47028 -0.17431,1.09732 -0.17431,1.56759c0,0.47028 0.17431,0.94056 0.34863,1.25407c0.34863,0.31352 0.52294,0.62704 0.52294,0.62704c0,0 -0.34863,0.15676 -1.2202,-0.31352z" fill="#99918a"/><path d="M222.6713,126.83967c-0.52294,0.31352 -1.04588,0.62704 -1.74314,0.94056c-0.69725,0.31352 -1.2202,0.7838 -1.74314,1.09732c-0.52294,0.31352 -0.87157,0.62704 -0.87157,0.62704c0,0 0,-0.47028 0.34863,-0.94056c0,-0.15676 0.17431,-0.47028 0.52294,-0.7838c0.34863,-0.31352 0.69725,-0.62704 1.04588,-0.7838c0.69725,-0.47028 1.56882,-0.62704 2.26608,-0.62704c0.69725,0 1.04588,0.15676 1.04588,0.15676c0,0 -0.34863,0.15676 -0.87157,0.31352z" fill="#99918a"/><path d="M224.93738,127.15319c-0.17431,0.31352 -0.52294,0.47028 -0.69725,0.62704c-0.34863,0.15676 -0.52294,0.15676 -0.87157,0.31352c-0.34863,0.15676 -0.52294,0.15676 -0.52294,0.15676c0,0 0,-0.15676 0,-0.47028c0.17431,-0.15676 0.34863,-0.62704 0.69725,-0.7838c0.34863,-0.31352 0.69725,-0.31352 1.04588,-0.31352c0.34863,0 0.52294,0.15676 0.52294,0.15676c0,0 -0.17431,0.15676 -0.17431,0.31352z" fill="#99918a"/><path d="M234.00169,126.21263c0.34863,0 0.87157,0.31352 1.39451,0.62704c0.52294,0.31352 0.69725,0.94056 0.87157,1.25407c0,0.31352 0,0.62704 0,0.62704c0,0 -0.17431,-0.15676 -0.52294,-0.31352c-0.34863,-0.31352 -0.69725,-0.47028 -1.04588,-0.7838c-0.34863,-0.15676 -0.69725,-0.47028 -1.04588,-0.7838c-0.34863,-0.31352 -0.52294,-0.47028 -0.52294,-0.47028c0,0 0.34863,0 0.87157,-0.15676z" fill="#99918a"/></g><g stroke-width="1"><path d="M226.15758,110.5367c1.74314,-0.15676 7.14686,0.94056 6.79824,10.18936c0,0 5.92667,5.64334 -1.91745,6.27037c-7.84412,0.62704 -11.50471,-1.88111 -8.89,-3.76222c0,0 -2.61471,-12.22723 4.00922,-12.6975z" fill="#847e87"/><path d="M230.3411,111.63401c0.52294,0.31352 0.87157,0.62704 1.2202,0.94056c0.34863,0.47028 0.52294,0.7838 0.87157,1.25407c0.34863,0.31352 0.52294,0.7838 0.69725,1.25407c0.34863,0.94056 0.52294,1.88111 0.69725,2.82167c0,0.47028 0,0.94056 0,1.41083l-0.17431,1.41083l-0.17431,-0.31352c0.87157,0.7838 1.56882,1.56759 2.09176,2.66491c0.17431,0.47028 0.34863,1.09732 0.17431,1.72435c0,0.62704 -0.52294,1.09732 -1.04588,1.41083c-1.04588,0.62704 -2.26608,0.94056 -3.48627,0.94056c-1.2202,0 -2.26608,0 -3.48627,-0.15676c1.2202,0 2.44039,-0.15676 3.48627,-0.31352c0.52294,0 1.04588,-0.15676 1.56882,-0.31352c0.52294,-0.15676 1.04588,-0.31352 1.39451,-0.62704c0.34863,-0.31352 0.69725,-0.62704 0.69725,-1.09732c0.17431,-0.31352 0,-0.7838 -0.17431,-1.25407c-0.52294,-0.7838 -1.2202,-1.72435 -1.91745,-2.35139l-0.17431,-0.15676v-0.15676v-1.41083c0,-0.47028 0,-0.94056 0,-1.41083c-0.17431,-0.94056 -0.17431,-1.88111 -0.52294,-2.66491c-0.17431,-0.47028 -0.34863,-0.7838 -0.52294,-1.25407c-0.17431,-0.47028 -0.34863,-0.94056 -0.69725,-1.25407c-0.52294,-0.62704 -1.2202,-1.41083 -2.09176,-1.88111c0.34863,0.15676 0.87157,0.47028 1.56882,0.7838z" fill="#666168"/><path d="M228.94659,120.56929c0.69725,-0.15676 1.56882,-0.47028 2.44039,-0.47028c0.87157,0.15676 1.74314,0.47028 2.26608,0.94056c0.34863,0.47028 0.52294,0.7838 0.52294,0.7838c0,0 -0.17431,-0.15676 -0.34863,-0.15676c-0.17431,-0.15676 -0.34863,-0.15676 -0.69725,-0.31352c-0.17431,-0.15676 -0.52294,-0.31352 -0.87157,-0.31352c-0.34863,-0.15676 -0.69725,-0.15676 -1.04588,-0.15676c-0.69725,0 -1.39451,0.15676 -2.09176,0.15676c-0.52294,0 -1.04588,0 -1.04588,0c0,0 0.17431,-0.31352 0.87157,-0.47028z" fill="#666168"/></g><path d="M235.74483,99.40679c-0.69725,0 -1.56882,0 -2.78902,0.15676c-1.2202,0.15676 -2.44039,0.31352 -3.8349,0.62704c-0.69725,0.15676 -1.39451,0.31352 -2.09176,0.62704c-0.69725,0.31352 -1.56882,0.47028 -2.44039,0.62704c-1.74314,0.15676 -3.31196,-0.15676 -4.70647,-0.31352c-1.56882,-0.31352 -2.78902,-0.47028 -4.00922,-0.47028c-1.2202,-0.15676 -2.09176,-0.15676 -2.78902,-0.15676c-0.69725,0 -1.04588,0 -1.04588,0c0,0 1.39451,-0.31352 3.8349,-0.47028c1.2202,0 2.61471,0 4.00922,0.15676c1.39451,0 2.96333,0.31352 4.35784,0.15676c0.69725,0 1.39451,-0.15676 2.09176,-0.47028c0.69725,-0.15676 1.56882,-0.47028 2.26608,-0.62704c1.39451,-0.31352 2.78902,-0.31352 4.00922,-0.31352c2.26608,0 3.8349,0.31352 3.8349,0.31352c0,0 -0.34863,0.15676 -0.69725,0.15676z" fill="#666168" stroke-width="1"/><path d="M230.68973,97.36892c-0.69725,0.15676 -1.74314,0.31352 -2.78902,0.62704c-0.52294,0.15676 -1.04588,0.31352 -1.56882,0.47028c-0.52294,0.15676 -1.2202,0.31352 -1.74314,0.47028c-0.69725,0.15676 -1.2202,0.31352 -1.91745,0.31352c-0.52294,0 -1.2202,-0.15676 -1.74314,-0.31352c-0.52294,-0.15676 -1.04588,-0.31352 -1.56882,-0.47028c-0.52294,-0.15676 -1.04588,-0.31352 -1.39451,-0.31352c-0.87157,0 -1.56882,-0.15676 -2.09176,-0.15676c-0.52294,0 -0.87157,0 -0.87157,0c0,0 0.34863,0 0.87157,-0.15676c0.52294,0 1.2202,-0.15676 2.09176,-0.15676c0.87157,-0.15676 1.91745,0 2.96333,0.31352c0.52294,0.15676 1.04588,0.15676 1.56882,0.15676c0.52294,0 1.04588,0 1.56882,-0.15676c0.52294,-0.15676 1.04588,-0.31352 1.56882,-0.47028c0.69725,-0.15676 1.2202,-0.31352 1.74314,-0.47028c1.04588,-0.31352 2.09176,-0.47028 2.96333,-0.47028c1.74314,-0.15676 2.96333,0 2.96333,0c0,0 -1.2202,0.15676 -2.61471,0.7838z" fill="#666168" stroke-width="1"/><g stroke-width="1"><g><path d="M186.93698,94.54725c-2.78902,-10.97315 2.09176,-39.50335 4.18353,-45.14668c2.09176,-5.80009 2.09176,-10.34611 0.34863,-15.98945c-2.78902,-8.93528 0.34863,-18.81112 0.34863,-18.81112c1.56882,5.95685 14.11941,13.32454 18.47726,17.08676c4.35784,3.76222 10.45882,19.90843 12.89922,23.5139c2.44039,3.60546 9.41294,6.74065 12.7249,10.97315c3.31196,4.38926 16.38549,24.45445 16.38549,24.45445c-35.38569,-7.21093 -65.36765,3.91898 -65.36765,3.91898z" fill="#3f3f74"/><path d="M185.71679,92.97966c0,0 -0.17431,-2.03787 -0.17431,-5.0163c-0.17431,-2.97843 -0.17431,-6.89741 0.17431,-10.97315c0.17431,-1.88111 0.34863,-3.91898 0.52294,-5.80009c0.34863,-1.72435 0.52294,-3.60546 0.87157,-5.0163c0.34863,-1.56759 0.52294,-2.82167 0.87157,-3.60546c0.17431,-0.94056 0.34863,-1.41083 0.34863,-1.41083c0,0 0,0.47028 -0.17431,1.41083c-0.17431,0.94056 -0.34863,2.19463 -0.52294,3.60546c-0.17431,2.97843 -0.52294,7.05417 -0.69725,10.97315c-0.17431,3.91898 -0.17431,7.99472 -0.17431,10.97315c0.17431,2.97843 0.17431,5.0163 0.17431,5.0163z" fill="#1a324a"/><path d="M228.07503,59.74668c-1.04588,-0.62704 -2.44039,-1.56759 -3.8349,-2.50815c-1.39451,-1.09732 -2.61471,-2.03787 -3.48627,-2.97843c-0.87157,-0.94056 -1.39451,-1.56759 -1.39451,-1.56759c0,0 0.69725,0.47028 1.74314,1.09732c1.04588,0.7838 2.26608,1.72435 3.66059,2.66491c1.2202,0.94056 2.61471,2.03787 3.48627,2.82167c1.04588,0.7838 1.56882,1.41083 1.56882,1.41083c0,0 -0.87157,-0.31352 -1.74314,-0.94056z" fill="#1a324a"/><path d="M193.56091,44.69779c-0.34863,1.09732 -0.87157,2.66491 -1.39451,4.07574c-0.52294,1.56759 -1.2202,2.97843 -1.56882,4.07574c-0.17431,0.62704 -0.52294,1.09732 -0.52294,1.41083c-0.17431,0.31352 -0.17431,0.47028 -0.17431,0.47028c0,0 -0.17431,-0.7838 0,-2.03787c0,-1.25407 0.52294,-2.66491 1.04588,-4.2325c0.52294,-1.41083 1.2202,-2.82167 1.91745,-3.91898c0.69725,-1.09732 1.2202,-1.72435 1.2202,-1.72435c0,0 -0.17431,0.7838 -0.52294,1.88111z" fill="#1a324a"/></g><g><path d="M291.1766,100.34734c-9.76157,-3.76222 -57.87216,-9.71908 -86.80824,-5.80009c-28.93608,3.91898 -50.7253,12.54074 -62.05569,16.93001c0,0 51.42255,-21.16251 55.08314,-22.88686c3.66059,-1.56759 14.29373,-8.93528 47.41334,-1.56759c33.11961,7.36769 46.36745,13.32454 46.36745,13.32454z" fill="#3f3f74"/><path d="M208.37757,88.43364c-1.04588,0.15676 -2.44039,0.47028 -4.18353,0.7838c-3.31196,0.7838 -7.84412,1.88111 -12.37628,3.13519c-2.26608,0.62704 -4.35784,1.41083 -6.44961,2.03787c-1.04588,0.47028 -2.09176,0.7838 -2.96333,1.09732c-0.87157,0.31352 -1.74314,0.62704 -2.61471,0.94056c-0.87157,0.31352 -1.56882,0.47028 -2.26608,0.7838c-0.69725,0.15676 -1.2202,0.47028 -1.74314,0.62704c-1.04588,0.47028 -1.56882,0.62704 -1.56882,0.62704c0,0 0.52294,-0.31352 1.39451,-0.7838c1.04588,-0.47028 2.26608,-1.25407 3.8349,-1.88111c1.74314,-0.7838 3.48627,-1.56759 5.57804,-2.35139c1.91745,-0.7838 4.18353,-1.56759 6.44961,-2.19463c1.04588,-0.31352 2.26608,-0.62704 3.31196,-0.94056c1.04588,-0.31352 2.26608,-0.62704 3.31196,-0.7838c2.09176,-0.47028 4.18353,-0.62704 5.92667,-0.94056c3.48627,-0.47028 5.92667,-0.47028 5.92667,-0.47028c0,0 -0.52294,0 -1.56882,0.31352z" fill="#1a324a"/><path d="M254.3964,89.37419c-1.39451,-0.31352 -3.13765,-0.62704 -4.88078,-0.94056c-1.74314,-0.31352 -3.66059,-0.62704 -5.57804,-0.7838c-1.91745,-0.31352 -3.8349,-0.47028 -5.57804,-0.62704c-1.74314,-0.15676 -3.48627,-0.31352 -4.88078,-0.31352c-1.39451,-0.15676 -2.61471,-0.15676 -3.48627,-0.15676c-0.87157,0 -1.39451,0 -1.39451,0c0,0 0.52294,0 1.39451,-0.15676c0.87157,-0.15676 2.09176,-0.31352 3.48627,-0.31352c0.69725,0 1.39451,0 2.26608,0c0.87157,0 1.74314,0 2.61471,0c1.91745,0.15676 3.8349,0.31352 5.75235,0.47028c1.91745,0.31352 3.8349,0.62704 5.57804,0.94056c1.74314,0.47028 3.31196,0.7838 4.70647,1.25407c2.78902,0.7838 4.53216,1.56759 4.53216,1.56759c0,0 -1.74314,-0.47028 -4.53216,-0.94056z" fill="#1a324a"/></g></g></g></g></g></svg>