<svg version="1.1" xmlns="http://www.w3.org/2000/svg" xmlns:xlink="http://www.w3.org/1999/xlink" width="104.06701" height="293.27741" viewBox="0,0,104.06701,293.27741"><g transform="translate(-173.97507,-34.83912)"><g data-paper-data="{&quot;isPaintingLayer&quot;:true}" fill-rule="nonzero" stroke="none" stroke-linecap="butt" stroke-linejoin="miter" stroke-miterlimit="10" stroke-dasharray="" stroke-dashoffset="0" style="mix-blend-mode: normal"><g stroke-width="1"><g><path d="M256.50001,214.6l-1,-4l11.5,-5.4c0,0 0.1,0.6 0.4,1.5c0.4,1.2 1.4,3.8 2.7,5.5c1.2,1.6 0.9,3.2 -0.9,2.8c0,0.1 0,0.1 0,0.2c0.3,1.9 0.3,3 -1.8,3c0,0 -0.5,2.1 -3,1.3c0,0 -1.7,1.6 -3.7,0.8c0,0 -1.2,0.7 -3.3,-1.3c-1.2,-1.1 -2.5,-3.3 -0.9,-4.4z" fill="#847e87"/><g><g><path d="M258.7,216.6c-0.3,-1.6 0.2,-2.6 0.7,-2.7c1.3,-0.2 1.8,2.3 2.4,3.5c0.6,1.2 1.2,1 1.2,1c-1.7,-2.3 -1,-4.6 -0.7,-4.7c0.9,-0.4 1.4,0 1.6,0.4c-0.2,-1.3 1,-1.6 1.6,-1.6c1.2,0.1 2.7,4.4 2.7,4.4c0.1,0.3 0.1,0.8 0,1.3c-0.2,0 -0.5,0.1 -0.8,0.1c0,0 -0.5,2.1 -3,1.3c0,0 -1.7,1.6 -3.7,0.8c0,0 -1.2,0.7 -3.3,-1.3c-1.1,-1.1 -2.4,-3.1 -1,-4.2c0.2,-0.1 0.4,-0.1 0.6,-0.1c1.1,-0.2 1.6,1.2 1.7,1.8z" fill="#847e87"/><path d="M267.60001,218.2c-0.4,-0.1 -0.9,-0.2 -1.4,-0.6c-0.5,-0.4 -1,-1 -1.4,-1.6c-0.3,-0.3 -0.4,-0.6 -0.6,-1c-0.2,-0.3 -0.4,-0.7 -0.5,-1.1c-0.1,-0.5 0.2,-1 0.6,-1.3c0.4,-0.2 0.8,-0.4 1.3,-0.3c0.2,0 0.4,0.1 0.6,0.3c0.1,0.2 0.2,0.3 0.3,0.5c0.2,0.3 0.4,0.5 0.5,0.8c0.5,1.1 0.8,1.8 0.8,1.8c0,0 -0.4,-0.6 -1.1,-1.6c-0.2,-0.3 -0.4,-0.5 -0.6,-0.8c-0.3,-0.3 -0.4,-0.5 -0.7,-0.5c-0.2,0 -0.6,0.1 -0.8,0.3c-0.2,0.2 -0.4,0.5 -0.3,0.7c0.1,0.3 0.3,0.7 0.4,1c0.2,0.3 0.3,0.7 0.5,1c0.1,0.3 0.3,0.6 0.5,0.9c0.2,0.3 0.4,0.5 0.6,0.7c0.4,0.4 0.8,0.6 1.1,0.7c0.3,0.1 0.5,0.1 0.5,0.1c0,0 -0.2,0 -0.3,0z" fill="#666168"/><path d="M263.60001,213.6c-0.3,-0.1 -0.7,-0.2 -1,0c-0.3,0.1 -0.5,0.6 -0.5,1.1c0,0.2 0.1,0.5 0.1,0.8c0,0.3 0.1,0.6 0.2,0.9c0.1,0.3 0.2,0.5 0.3,0.8c0.1,0.2 0.3,0.5 0.4,0.7c0.4,0.5 0.7,0.8 1.1,1c0.3,0.2 0.7,0.3 0.9,0.4c0.3,0.1 0.4,0.1 0.4,0.1v0.4c0,0 -0.7,0 -1.6,-0.4c-0.5,-0.2 -0.9,-0.6 -1.3,-1.1c-0.2,-0.2 -0.4,-0.5 -0.5,-0.8c-0.2,-0.3 -0.3,-0.6 -0.4,-0.9c-0.1,-0.3 -0.2,-0.6 -0.2,-0.9c0,-0.3 0,-0.6 0,-0.9c0.1,-0.3 0.1,-0.6 0.3,-0.9c0.2,-0.3 0.4,-0.5 0.7,-0.6c0.6,-0.1 1,0.1 1.2,0.3c0.2,0.1 0.3,0.3 0.3,0.3c0,0 -0.1,-0.1 -0.4,-0.3z" fill="#666168"/><path d="M261.80001,220.5c-0.4,0 -1,0 -1.7,-0.4c-0.4,-0.2 -0.7,-0.4 -0.9,-0.8c-0.2,-0.3 -0.4,-0.8 -0.5,-1.2c-0.2,-0.8 -0.5,-1.7 -0.5,-2.7c0.1,-0.4 0,-1 0.5,-1.5c0.2,-0.3 0.5,-0.3 0.8,-0.3c0.1,0 0.2,0 0.4,0.1c0.1,0 0.3,0.1 0.4,0.2c0.5,0.3 0.6,0.7 0.8,1.1c0.2,0.4 0.3,0.8 0.4,1.1c0.4,1.4 0.5,2.3 0.5,2.3c0,0 -0.1,-0.2 -0.2,-0.6c-0.1,-0.4 -0.3,-1 -0.6,-1.6c-0.2,-0.3 -0.3,-0.7 -0.5,-1c-0.2,-0.3 -0.4,-0.7 -0.7,-0.9c-0.3,-0.2 -0.7,-0.2 -0.9,0c-0.2,0.2 -0.2,0.7 -0.2,1.1c0,0.9 0.2,1.8 0.4,2.6c0.1,0.4 0.2,0.8 0.4,1.1c0.2,0.4 0.5,0.6 0.7,0.8c0.5,0.4 1.1,0.5 1.5,0.5c0.4,0 0.6,0 0.6,0c0,0 -0.2,0.1 -0.7,0.1z" fill="#666168"/><path d="M258.40001,216.3c0,0 -0.1,-0.2 -0.4,-0.4c-0.1,-0.1 -0.2,-0.3 -0.4,-0.4c-0.1,-0.1 -0.3,-0.2 -0.5,-0.3c-0.1,0 -0.2,-0.1 -0.3,-0.1c0,0 -0.1,0 -0.2,0c-0.1,0 -0.3,0.1 -0.4,0.2c-0.1,0.1 -0.2,0.2 -0.3,0.3c-0.1,0.1 -0.1,0.1 -0.1,0.1c0,0 0,-0.1 0,-0.2c0,-0.2 0,-0.3 0.1,-0.5c0.1,-0.1 0.1,-0.2 0.2,-0.3c0,-0.2 0.2,-0.2 0.3,-0.3c0.3,-0.1 0.6,-0.1 0.9,0c0.6,0.2 0.9,0.6 1.2,0.9c0.3,0.3 0.4,0.5 0.4,0.5z" fill="#666168"/></g><g><path d="M267.30001,212.8c-4.8,-6.5 -1.8,-5.5 -0.6,-5.8c0.2,-0.1 0.5,0 0.9,0.2c0.5,1.3 1.3,3.5 2.5,5.1c1.2,1.6 0.9,3.2 -0.9,2.8c-0.8,-0.5 -1.2,-1.3 -1.9,-2.3z" fill="#847e87"/><path d="M269.7,215.1c-0.2,0 -0.4,-0.1 -0.7,-0.2c-0.2,-0.1 -0.5,-0.3 -0.8,-0.5c-0.3,-0.2 -0.6,-0.5 -0.8,-0.8c-0.4,-0.5 -0.8,-1.2 -1,-1.7c-0.2,-0.5 -0.3,-0.9 -0.3,-0.9c0,0 0.3,0.3 0.6,0.7c0.3,0.4 0.8,1 1.2,1.5c0.4,0.6 0.9,1.1 1.3,1.4c0.2,0.2 0.4,0.3 0.5,0.4c0.1,0.1 0.2,0.1 0.2,0.1c0,0 -0.1,0 -0.2,0z" fill="#666168"/></g></g></g><g><path d="M244.20001,164c4.7,-0.9 8.2,-0.8 11.5,3.5c3.2,4.3 4.1,11.1 5.5,15.8c1.5,4.8 11.1,17.2 11.1,17.2c-2.9,10.9 -22.3,12 -22.3,12c0,0 -9.2,-19 -12.9,-38.4c-1,-4.8 2,-9.1 7.1,-10.1z" fill="#3f3f74"/><path d="M256.00001,167.9c0.3,0.4 0.8,1.1 1.2,1.9c0.4,0.8 0.9,1.8 1.3,2.9c0.4,1.1 0.8,2.3 1.1,3.5c0.3,1.2 0.5,2.4 0.7,3.6c0.2,1.2 0.2,2.3 0.3,3.2c0,1 0,1.8 0,2.3c0,0.6 0,0.9 0,0.9c0,0 0,-0.4 -0.1,-0.9c-0.1,-0.5 -0.2,-1.3 -0.3,-2.2c-0.1,-0.5 -0.1,-1 -0.2,-1.5c-0.1,-0.5 -0.2,-1 -0.3,-1.6c-0.2,-1.1 -0.5,-2.3 -0.8,-3.5c-0.3,-1.2 -0.6,-2.4 -1,-3.5c-0.4,-1.1 -0.7,-2.1 -1.1,-3c-0.4,-0.8 -0.7,-1.5 -1,-2c-0.2,-0.5 -0.4,-0.8 -0.4,-0.8c0,0 0.2,0.3 0.6,0.7z" fill="#1a324a"/><path d="M267.50001,194l2.4,3.1c0.8,1.1 1.6,2.1 2.4,3.1l0.1,0.1v0.1c-0.2,0.6 -0.4,1.2 -0.7,1.8c-0.3,0.5 -0.6,1.1 -1,1.6c-0.3,0.5 -0.8,1 -1.2,1.5c-0.2,0.3 -0.5,0.5 -0.7,0.7l-0.7,0.6c-0.5,0.4 -1,0.8 -1.6,1.1c-0.6,0.4 -1.1,0.6 -1.7,0.9c-0.6,0.3 -1.2,0.5 -1.8,0.7c-0.6,0.2 -1.2,0.3 -1.8,0.5l0.9,-0.3c0.3,-0.1 0.6,-0.2 0.9,-0.3c0.6,-0.3 1.2,-0.5 1.7,-0.8c0.5,-0.2 1.1,-0.5 1.6,-0.9c0.5,-0.3 1,-0.7 1.5,-1.1c0.4,-0.4 0.9,-0.8 1.3,-1.3c0.5,-0.4 0.9,-0.9 1.2,-1.4c0.3,-0.5 0.6,-1.1 0.9,-1.6c0.3,-0.6 0.6,-1.1 0.7,-1.7l0.1,0.3c-0.8,-1 -1.6,-2 -2.4,-3.1c-0.8,-1.1 -1.6,-2.1 -2.3,-3.2c-1.5,-2.2 -2.9,-4.4 -4.2,-6.7c1.5,2.1 3,4.3 4.4,6.3z" fill="#1a324a"/><path d="M238.60001,180.9c0.2,0.9 0.5,2.2 1,3.8c0.5,1.6 1.1,3.4 1.7,5.4c0.7,2 1.4,4 2.2,6.1c0.7,2 1.5,4.1 2.3,6c0.8,1.9 1.5,3.7 2.1,5.2c1.3,3.1 2.1,5.1 2.1,5.1c0,0 -0.3,-0.5 -0.7,-1.4c-0.4,-0.9 -1,-2.1 -1.7,-3.6c-0.7,-1.5 -1.5,-3.3 -2.3,-5.2c-0.8,-1.9 -1.6,-3.9 -2.4,-6c-0.8,-2 -1.5,-4.1 -2.1,-6.1c-0.6,-1.9 -1.1,-3.8 -1.5,-5.4c-0.4,-1.6 -0.6,-2.9 -0.8,-3.9c-0.2,-1 -0.2,-1.5 -0.2,-1.5c0,0 0.1,0.5 0.3,1.5z" fill="#1a324a"/></g><g><path d="M236.20001,169.8c-3.6,-6.3 -5.9,-45 -1.5,-49.6c4.7,-5 14.2,-4.6 17.3,5.6c2.4,7.9 1.6,22.9 1.8,28.4c0.2,5.5 0.3,4.1 1.5,7.9c1.2,3.8 0.4,4.5 -0.2,5.7c-0.6,1.2 -3.8,3.3 -8.9,4.2c-5.1,0.8 -8,1.2 -10,-2.2z" fill="#224363"/><path d="M239.10001,172.5c-0.2,-0.1 -0.5,-0.1 -0.9,-0.3c-0.2,-0.1 -0.4,-0.2 -0.6,-0.4c-0.2,-0.2 -0.4,-0.4 -0.6,-0.6c-0.4,-0.4 -0.7,-1 -1.1,-1.6c-0.3,-0.7 -0.6,-1.4 -0.9,-2.2c-0.3,-0.8 -0.6,-1.6 -0.8,-2.5c-0.3,-0.8 -0.4,-1.8 -0.6,-2.7c-0.2,-0.9 -0.4,-1.8 -0.5,-2.8c-0.1,-1 -0.2,-2 -0.3,-2.9c-0.1,-1 -0.1,-1.9 -0.2,-2.8c0,-0.9 -0.1,-1.8 -0.1,-2.6c-0.1,-0.8 -0.1,-1.6 -0.1,-2.3c0,-2.9 0.1,-4.8 0.1,-4.8c0,0 0.2,1.9 0.3,4.8c0.1,0.7 0.1,1.5 0.2,2.3c0.1,0.8 0.1,1.7 0.2,2.6c0.1,0.9 0.2,1.9 0.3,2.8c0,0.9 0.1,1.9 0.3,2.8c0.1,0.9 0.2,1.9 0.4,2.8c0.1,0.9 0.3,1.8 0.5,2.7c0.2,0.9 0.4,1.7 0.7,2.5c0.2,0.7 0.5,1.4 0.8,2.1c0.3,0.6 0.6,1.2 1,1.6c0.1,0.3 0.3,0.4 0.5,0.6c0.1,0.2 0.3,0.3 0.5,0.4c0.4,0.2 0.7,0.3 0.9,0.3c0.2,0 0.3,0 0.3,0c0,0 -0.1,0 -0.3,0.2z" fill="#1a324a"/><path d="M253.80001,153.1c0.1,1 0.2,2.2 0.3,3.4c0.1,0.6 0.2,1.3 0.3,1.9c0.1,0.7 0.3,1.3 0.6,1.8c0.6,1.3 0.9,2.6 1,3.9c0.1,1.3 -0.2,2.5 -0.7,3.4c-0.5,1 -1.3,1.4 -1.8,1.7c-0.2,0.1 -0.4,0.2 -0.6,0.2c-0.1,0.1 -0.2,0.1 -0.2,0.1c0,0 0.3,-0.1 0.8,-0.4c0.5,-0.3 1.1,-0.8 1.5,-1.7c0.5,-0.9 0.6,-2 0.5,-3.2c-0.1,-1.2 -0.4,-2.5 -1,-3.6c-0.3,-0.6 -0.5,-1.4 -0.6,-2c-0.1,-0.6 -0.2,-1.3 -0.2,-1.9c-0.1,-1.2 -0.1,-2.4 -0.1,-3.4c0,-2 0.2,-3.3 0.2,-3.3c0,0 0,1.3 0,3.1z" fill="#1a324a"/></g></g><g stroke-width="1"><g><path d="M228.47759,314.02142c0,0 5.53864,5.15882 8.62145,6.36557c3.08282,1.20674 5.06503,5.58976 1.64827,7.0095c-3.90941,1.55129 -21.98737,0.89751 -25.86752,-4.96802c-3.78671,-5.97168 6.33946,-15.33333 15.59779,-8.40706z" fill="#382a1e"/><path d="M228.36333,312.22505c0,0 4.64045,5.21595 7.72327,6.42269c3.08282,1.20674 6.48761,5.90009 2.44666,6.95873c-4.0473,0.95884 -21.98737,0.89751 -25.86752,-4.96802c-3.78671,-5.97168 6.33946,-15.33333 15.69759,-8.41342z" fill="#4d3a29"/><path d="M232.31155,317.58523c-0.19325,0.1125 -0.38015,0.32478 -0.56705,0.53707c-0.2867,0.21864 -0.47361,0.43094 -0.6605,0.64323c-0.37381,0.42458 -0.74126,0.94896 -1.12141,1.27375c-0.28035,0.31844 -0.56705,0.53708 -0.56705,0.53708c0,0 0.07441,-0.40553 0.24862,-0.81743c0.26765,-0.51803 0.53531,-1.03608 1.00257,-1.56681c0.46725,-0.53073 1.04065,-0.96801 1.53329,-1.09954c0.19325,-0.1125 0.499,-0.03174 0.59879,-0.03809c0.0998,-0.00635 0.20594,0.0871 0.20594,0.0871c0,0 -0.29939,0.01904 -0.67319,0.44362z" fill="#382a1e"/><path d="M230.18862,315.71622c-0.19325,0.1125 -0.38015,0.32479 -0.56705,0.53708c-0.2867,0.21864 -0.47361,0.43093 -0.6605,0.64322c-0.37381,0.42458 -0.74126,0.94897 -1.12141,1.27375c-0.28035,0.31844 -0.56705,0.53708 -0.56705,0.53708c0,0 0.07441,-0.40553 0.24861,-0.81743c0.26765,-0.51803 0.53531,-1.03608 1.00257,-1.56681c0.46725,-0.53073 1.04066,-0.96801 1.5333,-1.09954c0.19325,-0.1125 0.49899,-0.03174 0.59879,-0.03808c0.0998,-0.00635 0.20594,0.0871 0.20594,0.0871c0,0 -0.40554,-0.07441 -0.67319,0.44362z" fill="#382a1e"/></g><g><g><path d="M254.62122,309.15206c0,0 5.53865,5.15882 8.62146,6.36557c3.08281,1.20674 5.06503,5.58976 1.64827,7.0095c-3.90942,1.55129 -21.98737,0.89751 -25.86753,-4.96802c-3.88015,-5.86553 6.24601,-15.22719 15.59779,-8.40706z" fill="#382a1e"/><path d="M254.40716,307.36205c0,0 4.64046,5.21595 7.72327,6.42269c3.08281,1.20674 6.48761,5.90009 2.44666,6.95873c-4.0473,0.95884 -21.98737,0.89751 -25.86752,-4.96802c-3.78671,-5.97168 6.4456,-15.23989 15.69759,-8.41341z" fill="#4d3a29"/><path d="M258.36172,312.82203c-0.19326,0.1125 -0.38015,0.32479 -0.56705,0.53708c-0.2867,0.21864 -0.47361,0.43093 -0.66051,0.64322c-0.37381,0.42458 -0.74126,0.94896 -1.12141,1.27375c-0.28035,0.31844 -0.56705,0.53708 -0.56705,0.53708c0,0 0.07441,-0.40553 0.24861,-0.81743c0.26765,-0.51803 0.53531,-1.03607 1.00257,-1.5668c0.46726,-0.53073 1.04066,-0.96801 1.53329,-1.09954c0.19326,-0.1125 0.499,-0.03174 0.59879,-0.03809c0.09979,-0.00635 0.20594,0.0871 0.20594,0.0871c0,0 -0.30575,-0.08076 -0.6732,0.44362z" fill="#382a1e"/><path d="M256.23246,310.85321c-0.19326,0.1125 -0.38015,0.32479 -0.56705,0.53708c-0.2867,0.21864 -0.47361,0.43093 -0.66051,0.64322c-0.37381,0.42458 -0.74126,0.94897 -1.12141,1.27375c-0.28035,0.31844 -0.56705,0.53708 -0.56705,0.53708c0,0 0.07441,-0.40553 0.24862,-0.81743c0.26765,-0.51803 0.53531,-1.03607 1.00257,-1.5668c0.46725,-0.53073 1.04065,-0.96801 1.53329,-1.09954c0.19326,-0.1125 0.499,-0.03174 0.59879,-0.03809c0.09979,-0.00635 0.20594,0.0871 0.20594,0.0871c0,0 -0.39919,0.02538 -0.67319,0.44362z" fill="#382a1e"/></g><path d="M251.5973,310.44663c0,0 -5.81017,3.17521 -13.51544,1.76148l-2.33912,-22.59708l16.13277,1.57912z" fill="#382a1e"/></g><g><g><path d="M222.02349,310.22345l11.50993,-15.96281l22.74591,-3.15021l9.57291,15.02263l-4.98744,8.23319l-9.94633,2.73688l-1.30058,-14.14597l-15.34001,4.58299l-1.48461,11.31705z" fill="#1c3752"/><path d="M252.2047,176.63822c0,0 6.2471,8.42043 8.36477,33.83727c2.11767,25.41683 10.49518,87.81088 17.47261,96.68588c0,0 -1.6888,12.83308 -24.85824,10.89992c-9.37011,-0.80684 15.13866,-6.17342 7.64849,-10.5067c-7.49017,-4.33328 -35.59273,5.97137 -29.87531,9.21499c5.72378,3.34341 -2.55596,7.07652 -18.3576,5.97735c-15.80164,-1.09917 -17.82406,3.33816 -25.99659,2.45515c-16.34507,-1.76601 -12.14332,-9.74883 -12.14332,-9.74883c0,0 11.09064,-11.52726 11.44325,-31.18929c0.35261,-19.66204 9.37949,-98.29362 18.85961,-105.20934c10.72037,-7.89642 34.69665,-15.33338 47.4423,-2.41639z" fill="#3f3f74"/><path d="M260.91133,305.64571c-0.63229,-2.06403 -1.52131,-5.01354 -2.55457,-8.6553c-0.93346,-3.6481 -2.10459,-7.8823 -3.19497,-12.42224c-1.09038,-4.53994 -2.19982,-9.37928 -3.21579,-14.32476c-0.45809,-2.47591 -1.00962,-4.84569 -1.36792,-7.32794c-0.35829,-2.48226 -0.81003,-4.85838 -1.15563,-7.14105c-0.3456,-2.28267 -0.68483,-4.46554 -0.92429,-6.65475c-0.23945,-2.18921 -0.566,-4.17248 -0.68661,-6.06866c-0.12061,-1.89617 -0.32831,-3.58639 -0.42354,-5.08337c-0.09521,-1.49697 -0.07794,-2.8007 -0.14776,-3.89849c-0.0335,-2.10211 -0.11603,-3.3995 -0.11603,-3.3995c0,0 0.07617,1.19759 0.21582,3.39315c0.16962,1.09143 0.15234,2.39516 0.34736,3.88578c0.09521,1.49697 0.30293,3.1872 0.52334,5.07701c0.21406,1.79002 0.54695,3.87309 0.78006,5.96251c0.2331,2.08942 0.67849,4.36574 1.02409,6.6484c0.35194,2.38247 0.80368,4.75858 1.25543,7.1347c0.35194,2.38247 0.90983,4.85203 1.36792,7.32794c1.00963,4.84569 2.0256,9.79116 3.11599,14.33111c0.99058,4.54629 2.06191,8.78683 2.99537,12.43494c1.03325,3.64176 1.72903,6.70377 2.36132,8.76779c0.53885,2.17017 0.91441,3.34871 0.91441,3.34871c0,0 -0.38191,-1.27834 -1.11401,-3.33601z" fill="#1a324a"/><path d="M230.13077,308.50535c0.06629,-2.10845 0.01374,-4.50997 0.0483,-7.11742c0.03456,-2.60745 -0.04339,-5.40815 -0.02152,-8.21519c0.02185,-2.80705 0.04372,-5.61409 -0.02152,-8.2152c-0.06524,-2.60111 -0.11779,-5.00261 -0.1513,-7.10473c-0.06348,-0.99799 -0.02716,-2.00232 -0.07794,-2.8007c-0.05713,-0.89819 -0.10156,-1.59678 -0.13965,-2.19557c-0.07617,-1.19758 -0.12061,-1.89617 -0.12061,-1.89617c0,0 0.04443,0.69859 0.22041,1.88982c0.13789,0.59244 0.18867,1.39083 0.23945,2.18921c0.05713,0.89819 0.12061,1.89617 0.18409,2.89414c0.1333,2.09577 0.28566,4.49093 0.3509,7.09203c0.06524,2.60111 0.14318,5.40181 0.12131,8.20885c-0.02185,2.80705 -0.04372,5.6141 -0.07827,8.22154c-0.03456,2.60745 -0.18161,5.02166 -0.24789,7.13012c-0.13894,4.11712 -0.36039,6.93686 -0.36039,6.93686c0,0 0.02185,-2.80705 0.05465,-7.01762z" fill="#1a324a"/><path d="M206.83069,187.94124c-0.1869,0.2123 -0.36111,0.62418 -0.62876,1.14221c-0.26765,0.51803 -0.52896,1.13587 -0.78393,1.8535c-0.24861,0.81743 -0.49722,1.63486 -0.73949,2.55209c-0.24227,0.91723 -0.47818,1.93426 -0.70775,3.05109c-0.22957,1.11683 -0.45914,2.23365 -0.68236,3.45027c-0.12342,1.21027 -0.44645,2.43325 -0.56986,3.64353c-0.11707,1.31007 -0.34029,2.52669 -0.45738,3.83677c-0.11707,1.31007 -0.33396,2.62649 -0.45738,3.83677c-0.11707,1.31007 -0.24049,2.52035 -0.36392,3.73062c-0.24685,2.42055 -0.4066,4.63517 -0.58537,6.55037c-0.25143,3.92388 -0.49193,6.44422 -0.49193,6.44422c0,0 0.03455,-2.60745 0.19253,-6.42518c0.03633,-1.00433 0.17244,-2.01502 0.20241,-3.11915c0.12977,-1.11048 0.1534,-2.31441 0.27683,-3.52468c0.14705,-2.41421 0.3812,-5.03435 0.7215,-7.56105c0.11707,-1.31007 0.33395,-2.62649 0.55718,-3.84311c0.22323,-1.21662 0.44645,-2.43325 0.66966,-3.64987c0.22323,-1.21662 0.55259,-2.3398 0.78216,-3.45662c0.22957,-1.11683 0.4655,-2.13386 0.80755,-3.05743c0.16786,-0.51169 0.24226,-0.91723 0.41646,-1.32911c0.17421,-0.41189 0.25496,-0.71763 0.42917,-1.12953c0.35476,-0.72397 0.61606,-1.34181 0.88373,-1.85985c0.27401,-0.41824 0.548,-0.83648 0.7349,-1.04877c0.1869,-0.2123 0.28036,-0.31844 0.28036,-0.31844c0,0 -0.19326,0.11249 -0.4863,0.23134z" fill="#1a324a"/><path d="M235.97814,186.1875c0.11249,0.19325 0.43094,0.4736 0.75572,0.85374c0.32478,0.38015 0.65592,0.8601 1.0932,1.4335c0.33748,0.57975 0.77476,1.15314 1.22474,1.92614c0.44998,0.773 0.80015,1.55233 1.25647,2.42514c0.35653,0.87914 0.81919,1.85173 1.18207,2.83067c0.36287,0.97894 0.82555,1.95153 1.09497,3.03662c0.13154,0.49265 0.36922,1.07874 0.50075,1.57138l0.40731,1.67753c0.26943,1.08508 0.53885,2.17018 0.70846,3.26161c0.13154,0.49265 0.16962,1.09143 0.30115,1.58408c0.03174,0.499 0.16963,1.09143 0.20137,1.59042c0.16327,0.99163 0.32655,1.98327 0.39003,2.98126c0.05713,0.89819 0.22041,1.88982 0.27119,2.68821c0.20772,1.69022 0.19678,3.09374 0.26026,4.09173c0.05713,0.89819 0.09521,1.49698 0.09521,1.49698c0,0 -0.13154,-0.49265 -0.19502,-1.49062c-0.16327,-0.99163 -0.25214,-2.38881 -0.45985,-4.07904c-0.15059,-0.79203 -0.20771,-1.69022 -0.37098,-2.68186c-0.16327,-0.99163 -0.32655,-1.98327 -0.48982,-2.9749c-0.13154,-0.49265 -0.16963,-1.09143 -0.30116,-1.58408c-0.03174,-0.499 -0.16962,-1.09143 -0.30115,-1.58407c-0.16962,-1.09143 -0.43904,-2.17653 -0.70846,-3.26161l-0.40096,-1.57773c-0.23134,-0.4863 -0.36922,-1.07874 -0.50075,-1.57138c-0.26943,-1.08508 -0.63229,-2.06403 -0.99517,-3.04297c-0.36287,-0.97894 -0.72574,-1.95789 -1.08227,-2.83702c-0.35653,-0.87914 -0.7067,-1.65849 -1.15668,-2.43148c-0.80015,-1.55233 -1.57491,-2.70549 -2.12468,-3.47214c-0.54978,-0.76665 -0.97436,-1.14045 -0.97436,-1.14045c0,0 0.10614,0.09345 0.31843,0.28035z" fill="#1a324a"/></g><g><path d="M253.87588,176.13111c0,0 2.86595,2.52316 0.45351,3.97924c-5.89092,3.48095 -15.60133,5.20082 -28.16957,6.10044c-12.57459,0.79982 -27.11516,0.62247 -25.17069,-6.61557c0.57163,-2.0404 1.94871,2.2809 6.69002,2.78095c4.8411,0.4937 29.4994,0.62872 37.69838,-2.79865c8.29243,-3.53351 6.85716,-4.04343 8.49837,-3.4464z" fill="#4d3a29"/><path d="M200.65974,180.71839c0.05078,0.79839 0.32656,1.98327 1.38167,2.81797c0.52438,0.36745 1.24201,0.62242 1.95964,0.87738c0.71763,0.25496 1.52871,0.40377 2.34614,0.65239c1.72831,0.39108 3.44393,0.58256 5.25934,0.7677c1.81542,0.18514 3.62448,0.27047 5.32739,0.26236c1.70292,-0.00812 3.20624,-0.00353 4.60977,0.0074c2.70091,-0.07158 4.50362,-0.08606 4.50362,-0.08606c0,0 -0.39284,0.12519 -1.19123,0.17597c-0.79203,0.15059 -1.88983,0.22041 -3.287,0.30927c-1.39718,0.08887 -2.99394,0.19043 -4.69686,0.19854c-1.70292,0.00812 -3.50564,0.02257 -5.32106,-0.16257c-1.80906,-0.08534 -3.63718,-0.47007 -5.26568,-0.8675c-0.81108,-0.14882 -1.63486,-0.49722 -2.35249,-0.75218c-0.71763,-0.25496 -1.44161,-0.60972 -1.97235,-1.07697c-0.53073,-0.46725 -0.86821,-1.047 -1.0061,-1.63945c-0.13789,-0.59244 -0.16963,-1.09143 -0.19501,-1.49062c0.04901,-0.80473 0.22322,-1.21662 0.22322,-1.21662c0,0 -0.07441,0.40554 -0.32302,1.22297z" fill="#33221b"/><path d="M254.86293,177.47115c0.10614,0.09346 0.21864,0.2867 0.33113,0.47995c0.11249,0.19325 0.23134,0.4863 0.15693,0.89184c-0.08076,0.30574 -0.25496,0.71763 -0.53531,1.03607c-0.28035,0.31844 -0.6605,0.64322 -1.047,0.86821c-0.38649,0.22499 -0.87279,0.45632 -1.35909,0.68766c-0.97259,0.46267 -1.95153,0.82555 -3.03027,1.19477c-0.97894,0.36287 -2.06403,0.63229 -3.04932,0.89537c-0.98529,0.26307 -1.97693,0.42635 -2.76897,0.57693c-1.58408,0.30115 -2.68186,0.37098 -2.68186,0.37098c0,0 1.07874,-0.36922 2.65646,-0.77017c0.78569,-0.25038 1.67118,-0.50711 2.65647,-0.77018c0.98529,-0.26307 2.07037,-0.5325 3.04931,-0.89537c1.07874,-0.36922 2.05768,-0.73209 3.03662,-1.09497c0.49265,-0.13154 0.87914,-0.35652 1.26564,-0.58151c0.4863,-0.23134 0.77299,-0.44998 1.05335,-0.76842c0.2867,-0.21864 0.46725,-0.53074 0.548,-0.83648c0.08076,-0.30574 0.06171,-0.60513 0.04901,-0.80473c-0.13154,-0.49265 -0.34382,-0.67954 -0.34382,-0.67954c0,0 0.0998,-0.00635 0.0127,0.1996z" fill="#33221b"/></g></g></g><g stroke-width="1"><path d="M248.90001,123.9c7.2,10.8 8.1,51.4 0.6,54c-7.5,2.6 -13,1.2 -13,1.2c-11.9,4.8 -33.3,4.3 -38.3,-3c-3.2,-4.6 -6,-38.6 -2.1,-50.2c3.9,-11.6 15.5,-16 15.5,-16c11.2,-3.8 30.1,3.2 37.3,14z" fill="#3f3f74"/><path d="M241.60001,175.5c-0.4,0.4 -0.9,1 -1.6,1.6c-0.7,0.6 -1.6,1.3 -2.6,1.9c-0.5,0.3 -1,0.5 -1.6,0.8c-0.5,0.2 -1.1,0.5 -1.7,0.7c-0.6,0.2 -1.2,0.5 -1.8,0.6c-0.6,0.1 -1.2,0.3 -1.8,0.4c-0.6,0.1 -1.2,0.2 -1.7,0.3c-0.5,0 -1,0.1 -1.5,0.1c-1,0.1 -1.8,0.1 -2.3,0.1c-0.6,0 -0.9,0 -0.9,0c0,0 0.4,0 0.9,-0.1c0.5,-0.1 1.3,-0.1 2.2,-0.3c0.5,0 1,-0.1 1.5,-0.2c0.5,-0.2 1,-0.3 1.6,-0.4c0.5,-0.2 1.1,-0.3 1.7,-0.5c0.5,-0.2 1.1,-0.4 1.7,-0.6c0.6,-0.2 1.1,-0.5 1.7,-0.7c0.5,-0.3 1.1,-0.5 1.6,-0.8c0.5,-0.3 1,-0.5 1.4,-0.8c0.4,-0.2 0.8,-0.5 1.2,-0.8c0.4,-0.3 0.7,-0.6 1,-0.8c0.3,-0.2 0.5,-0.4 0.7,-0.6c0.4,-0.4 0.6,-0.6 0.6,-0.6c0,0 -0.2,0.2 -0.3,0.7z" fill="#1a324a"/><path d="M243.90001,171.7c-0.9,0.7 -2.1,1.7 -3.4,2.5c-1.3,0.9 -2.7,1.6 -3.8,2c-0.3,0.1 -0.6,0.2 -0.8,0.2c-0.2,0 -0.4,0.1 -0.6,0.1c-0.3,0 -0.5,0 -0.5,0c0,0 0.2,0 0.5,-0.1c0.2,0 0.4,-0.1 0.6,-0.2c0.2,0 0.4,-0.2 0.7,-0.3c1,-0.5 2.3,-1.3 3.6,-2.1c1.3,-0.8 2.5,-1.7 3.5,-2.3c0.9,-0.6 1.6,-1 1.6,-1c0,0 -0.5,0.6 -1.4,1.2z" fill="#1a324a"/><path d="M205.30001,114.1c-0.5,0.4 -1,0.8 -1.6,1.3c-0.6,0.5 -1.2,1 -1.7,1.6c-0.2,0.3 -0.5,0.6 -0.8,0.9c-0.3,0.3 -0.5,0.7 -0.8,1c-0.6,0.6 -1,1.4 -1.5,2.1c-0.5,0.8 -0.9,1.6 -1.3,2.3c-0.3,0.8 -0.7,1.6 -1,2.3c-0.3,0.8 -0.6,1.5 -0.8,2.2c-0.2,0.7 -0.3,1.4 -0.5,2c-0.2,0.6 -0.3,1.2 -0.4,1.7c-0.1,0.6 -0.1,1 -0.2,1.4c-0.1,0.8 -0.2,1.2 -0.2,1.2c0,0 0,-0.4 0.1,-1.2c0,-0.4 0.1,-0.9 0.1,-1.4c0.1,-0.6 0.2,-1.2 0.3,-1.8c0.1,-0.7 0.2,-1.4 0.4,-2.1c0.2,-0.7 0.4,-1.5 0.7,-2.3c0.3,-0.8 0.7,-1.6 1,-2.4c0.4,-0.7 0.9,-1.5 1.3,-2.3c0.5,-0.8 0.9,-1.5 1.5,-2.2c0.3,-0.3 0.5,-0.7 0.8,-1c0.3,-0.3 0.6,-0.6 0.9,-0.9c0.6,-0.6 1.2,-1.1 1.8,-1.6c0.6,-0.5 1.1,-0.9 1.7,-1.3c2.2,-1.4 3.9,-1.9 3.9,-1.9c0,0 -1.7,0.6 -3.7,2.4z" fill="#1a324a"/><path d="M205.80001,180.8c-0.4,-0.1 -0.8,-0.2 -1.2,-0.3c-0.4,-0.1 -0.9,-0.3 -1.3,-0.5c-0.5,-0.2 -0.9,-0.5 -1.4,-0.7c-0.4,-0.2 -0.9,-0.5 -1.3,-0.8c-0.4,-0.4 -0.9,-0.7 -1.2,-1.1c-0.4,-0.4 -0.7,-0.8 -1,-1.2c-0.1,-0.2 -0.3,-0.4 -0.4,-0.6c-0.1,-0.2 -0.2,-0.4 -0.3,-0.6c-0.2,-0.4 -0.4,-0.8 -0.5,-1.2c-0.1,-0.3 -0.2,-0.7 -0.3,-1c-0.1,-0.3 -0.1,-0.6 -0.1,-0.8c-0.1,-0.4 -0.1,-0.7 -0.1,-0.7c0,0 0.1,0.3 0.2,0.7c0.1,0.2 0.1,0.5 0.2,0.8c0.1,0.3 0.3,0.6 0.4,1c0.1,0.4 0.3,0.7 0.5,1.1c0.1,0.2 0.2,0.4 0.3,0.6c0.1,0.1 0.3,0.3 0.4,0.5c0.2,0.4 0.6,0.8 0.9,1.1c0.3,0.4 0.7,0.7 1.1,1c0.4,0.3 0.8,0.5 1.2,0.8c0.5,0.3 0.9,0.5 1.3,0.7c0.4,0.3 0.8,0.4 1.2,0.6c0.3,0.2 0.7,0.3 1.1,0.4c0.8,0.2 1.4,0.4 1.8,0.5c0.5,0.1 0.7,0.2 0.7,0.2c0,0 -1,0 -2.2,-0.5z" fill="#1a324a"/><path d="M253.30001,171.6c0,0.4 -0.1,1 -0.3,1.7c-0.2,0.7 -0.5,1.5 -0.9,2.3c-0.3,0.4 -0.5,0.8 -0.8,1.2c-0.3,0.4 -0.7,0.8 -1.1,1.1c-0.8,0.6 -1.7,1 -2.6,1.2c-0.5,0.2 -0.9,0.2 -1.3,0.3c-0.4,0 -0.8,0.1 -1.2,0.1c-0.7,0.1 -1.3,0 -1.7,0c-0.5,-0.1 -0.7,-0.1 -0.7,-0.1c0,0 0.3,-0.1 0.7,-0.1c0.4,0 1,-0.1 1.7,-0.2c0.7,-0.1 1.5,-0.3 2.3,-0.6c0.8,-0.3 1.7,-0.7 2.4,-1.2c0.4,-0.3 0.7,-0.5 1,-0.9c0.2,-0.4 0.5,-0.7 0.7,-1.1c0.4,-0.8 0.8,-1.5 1,-2.2c0.5,-1.4 0.7,-2.3 0.7,-2.3c0,0 0,0.2 0.1,0.8z" fill="#1a324a"/></g><g stroke-width="1"><g><path d="M201.62174,209.11098c0,0 0.40039,8.30901 0.27041,10.2072c-0.12998,1.89819 -0.2627,2.99016 -2.3353,2.6375c0,0 -0.849,2.01226 -3.21007,0.71792c0,0 -1.96783,1.27186 -3.84463,0.13712c0,0 -2.22944,0.93785 -3.94939,-1.48739c-0.94717,-1.32396 -0.81995,-4.02836 0.98829,-4.81593l-0.29945,-4.16657" fill="#847e87"/><path d="M201.61242,210.01647c0,0 0.42286,3.9801 1.70954,6.65489c0.96198,2.03091 0.03785,3.83257 -2.25083,1.94261" fill="#666168"/><path d="M189.4363,214.88288c0.13821,0.52048 0.24023,1.33878 0.34224,2.15706c0.11408,0.71902 0.21609,1.53731 0.24296,2.14498c0.06307,0.30987 0.03894,0.50841 0.11407,0.71901c0.07513,0.2106 0.06308,0.30987 0.06308,0.30987c0,0 -0.08721,-0.11133 -0.17442,-0.22267c-0.0872,-0.11133 -0.26162,-0.33401 -0.32468,-0.64388c-0.13821,-0.52048 -0.33949,-1.35082 -0.4415,-2.16912c-0.102,-0.81829 -0.10476,-1.62451 -0.03237,-2.22012c0.0724,-0.59562 0.12066,-0.99269 0.12066,-0.99269c0,0 0.16234,0.32194 0.08995,0.91755z" fill="#666168"/><path d="M193.69996,221.24379c-0.0362,0.29781 -0.1958,0.78209 -0.44259,1.15504c-0.23474,0.27368 -0.34607,0.36088 -0.56874,0.53528c-0.22267,0.17442 -0.43327,0.24955 -0.63181,0.22541c-0.40914,0.05101 -0.59562,-0.07239 -0.59562,-0.07239c0,0 0.00001,0 0.11134,-0.0872c0.09927,0.01207 0.2106,-0.07514 0.32193,-0.16235c0.11133,-0.0872 0.23474,-0.27368 0.34608,-0.36088c0.1234,-0.18647 0.23474,-0.27368 0.35813,-0.46015c0.23474,-0.27368 0.38227,-0.65869 0.61701,-0.93237c0.23474,-0.27368 0.35813,-0.46015 0.35813,-0.46015c0,0 0.07513,0.21061 0.12614,0.61975z" fill="#666168"/><path d="M197.42118,221.29315c-0.04826,0.39708 -0.20786,0.88136 -0.45466,1.25431c-0.22267,0.17442 -0.35813,0.46015 -0.56874,0.53528c-0.2106,0.07513 -0.42121,0.15028 -0.63181,0.22541c-0.42121,0.15028 -0.60768,0.02687 -0.60768,0.02687c0,0 0.00001,0 0.11134,-0.0872c0.11133,-0.0872 0.22267,-0.17441 0.334,-0.26161c0.23474,-0.27368 0.46947,-0.54735 0.70421,-0.82103c0.23474,-0.27368 0.48154,-0.64662 0.61701,-0.93237c0.13547,-0.28574 0.25886,-0.47222 0.25886,-0.47222c0,0 0.07514,0.2106 0.23748,0.53254z" fill="#666168"/><path d="M200.22212,220.62623c0.06307,0.30987 -0.09653,0.79416 -0.24406,1.17916c-0.14753,0.38502 -0.50567,0.84516 -0.82761,1.0075c-0.11133,0.0872 -0.32193,0.16235 -0.4212,0.15028c-0.09927,-0.01207 -0.19854,-0.02414 -0.19854,-0.02414c0,0 0,0 0.11133,-0.0872c0.09927,0.01207 0.12341,-0.18648 0.23474,-0.27369c0.22267,-0.17442 0.3702,-0.55942 0.51773,-0.94443c0.14753,-0.38502 0.39434,-0.75795 0.52981,-1.0437c0.13547,-0.28574 0.25886,-0.47222 0.25886,-0.47222c0,0 -0.0362,0.2978 0.03894,0.50841z" fill="#666168"/><path d="M189.88328,218.66445c-0.02414,0.19854 -0.13547,0.28574 -0.25886,0.47222c-0.1234,0.18647 -0.33401,0.26162 -0.44534,0.34882c-0.2106,0.07513 -0.32194,0.16234 -0.32194,0.16234c0,0 -0.0872,-0.11133 -0.06307,-0.30987c0.02414,-0.19854 0.14753,-0.38501 0.27093,-0.57148c0.22267,-0.17442 0.33401,-0.26162 0.54461,-0.33675c0.2106,-0.07513 0.30987,-0.06307 0.30987,-0.06307c0,0 -0.02414,0.19854 -0.0362,0.29781z" fill="#666168"/><path d="M201.50988,219.97687c0.08446,-0.69489 0.09379,-1.60038 0.10311,-2.50587c0.00931,-0.9055 0.01864,-1.81098 0.00383,-2.51793c-0.06307,-0.30987 -0.02687,-0.60768 -0.00274,-0.80623c0.02414,-0.19854 0.0362,-0.2978 0.0362,-0.2978c0,0 0.24955,0.43327 0.36362,1.15229c0.21335,0.73109 0.3033,1.64864 0.29398,2.55413c-0.00931,0.9055 -0.11792,1.79891 -0.30165,2.48173c-0.18373,0.68282 -0.43053,1.05576 -0.43053,1.05576c0,0 0.04826,-0.39707 -0.06582,-1.1161z" fill="#666168"/></g><g><path d="M192.57553,164.19131c4.75286,0.67842 8.01943,1.98208 9.61214,7.11173c1.59271,5.12965 0.17663,11.80757 -0.01752,16.72004c-0.20621,5.01173 4.73152,19.9164 4.73152,19.9164c-6.36857,9.29953 -24.95501,3.91763 -24.95501,3.91763c0,0 -2.39073,-20.94144 0.58183,-40.42513c0.69048,-4.85214 4.8971,-7.96734 10.04703,-7.24065z" fill="#3f3f74"/><path d="M202.33795,171.72426c0.12615,0.61974 0.3395,1.35083 0.42944,2.26839c0.18922,0.92962 0.2671,1.94645 0.32085,3.16181c-0.04552,1.2033 -0.09104,2.4066 -0.14863,3.70917c-0.15686,1.2905 -0.30164,2.48173 -0.5457,3.6609c-0.24406,1.17917 -0.47605,2.25905 -0.78318,3.12836c-0.20786,0.88136 -0.50292,1.65139 -0.66252,2.13567c-0.15959,0.48428 -0.29506,0.77003 -0.29506,0.77003c0,0 0.14753,-0.38502 0.20786,-0.88136c0.06033,-0.49634 0.25612,-1.27844 0.46399,-2.1598c0.06033,-0.49634 0.21992,-0.98063 0.28026,-1.47698c0.0724,-0.59562 0.23199,-1.0799 0.30438,-1.67552c0.13272,-1.09196 0.28957,-2.38246 0.43436,-3.57369c0.14479,-1.19123 0.1903,-2.39453 0.23583,-3.59783c-0.06581,-1.1161 -0.03236,-2.22012 -0.12231,-3.13768c-0.08995,-0.91755 -0.09269,-1.72378 -0.2309,-2.24426c-0.03894,-0.50841 -0.102,-0.81829 -0.102,-0.81829c0,0 0.06307,0.30988 0.21335,0.73109z" fill="#1a324a"/><path d="M204.89158,200.44217l1.15395,3.76675c0.36362,1.15229 0.81445,2.41592 1.26528,3.67955l0.0872,0.11133l-0.11133,0.0872c-0.3702,0.55942 -0.82761,1.0075 -1.28501,1.45558c-0.45741,0.44808 -0.91482,0.89617 -1.45943,1.23292c-0.55668,0.43601 -1.08922,0.67349 -1.63383,1.01025c-0.32194,0.16234 -0.54462,0.33675 -0.85449,0.39982l-0.84241,0.30056c-0.61974,0.12615 -1.25156,0.35156 -1.87131,0.47771c-0.61974,0.12615 -1.23949,0.25229 -1.84718,0.27916c-0.61974,0.12615 -1.31464,0.04168 -1.92232,0.06855c-0.60768,0.02687 -1.30257,-0.05758 -1.89819,-0.12998l0.90549,0.00932c0.29781,0.0362 0.59563,0.07239 0.9055,0.00932c0.60768,-0.02687 1.21536,-0.05375 1.83511,-0.17989c0.61974,-0.12615 1.2395,-0.25229 1.85925,-0.37843c0.61974,-0.12615 1.1523,-0.36362 1.78411,-0.58904c0.63181,-0.22541 1.16436,-0.46289 1.70897,-0.79965c0.54461,-0.33675 1.08922,-0.6735 1.53456,-1.02231c0.54461,-0.33675 0.98994,-0.68556 1.44735,-1.13365c0.45741,-0.44808 0.81555,-0.90823 1.17368,-1.36838l-0.0362,0.2978c-0.45084,-1.26362 -0.90166,-2.52725 -1.25321,-3.77882c-0.45084,-1.26362 -0.80239,-2.51519 -1.15394,-3.76675c-0.70312,-2.50313 -1.39417,-5.10551 -1.78742,-7.67171c0.70312,2.50313 1.40624,5.00625 2.29583,7.63277z" fill="#1a324a"/><path d="M181.70801,178.18229c-0.12065,0.99269 -0.1903,2.39453 -0.28409,3.99491c-0.09378,1.60038 -0.13656,3.60989 -0.17933,5.61941c-0.04278,2.00951 -0.01042,4.22965 0.02194,6.44977c-0.0669,2.20806 0.06473,4.44025 0.12122,6.46183c0.04443,2.12085 0.11299,4.04317 0.21775,5.66768c0.11024,3.23695 0.24188,5.46914 0.24188,5.46914c0,0 -0.12615,-0.61975 -0.21609,-1.53731c-0.07789,-1.01683 -0.3181,-2.35559 -0.42286,-3.9801c-0.10476,-1.62451 -0.27258,-3.55889 -0.42835,-5.59253c-0.0565,-2.02158 -0.18813,-4.25378 -0.22048,-6.47391c-0.04443,-2.12085 0.02248,-4.32891 0.07732,-6.43771c0.04278,-2.00951 0.17275,-3.9077 0.37788,-5.59529c0.20512,-1.68759 0.46123,-2.96602 0.5819,-3.95872c0.12065,-0.99269 0.28026,-1.47698 0.28026,-1.47698c0,0 -0.06033,0.49634 -0.16892,1.38977z" fill="#1a324a"/></g><g><path d="M183.17071,166.97691c-1.35139,-7.11504 9.42449,-44.38715 15.02085,-47.33344c6.02965,-3.19583 14.96007,0.40802 14.47526,11.02711c-0.39377,8.21248 -6.01481,22.136 -7.65906,27.37588c-1.64425,5.23988 -0.97897,3.91044 -1.16379,7.91742c-0.18482,4.00698 -1.13858,4.39473 -2.15266,5.27883c-0.91481,0.89616 -4.6695,1.95084 -9.79531,1.02562c-5.13788,-0.82596 -7.99256,-1.37439 -8.72529,-5.29143z" fill="#3f3f74"/><path d="M185.25428,170.55445c-0.18647,-0.1234 -0.57148,-0.27094 -0.8331,-0.60494c-0.18647,-0.1234 -0.36088,-0.34608 -0.43601,-0.55668c-0.17442,-0.22267 -0.34882,-0.44535 -0.41189,-0.75521c-0.33675,-0.54461 -0.46289,-1.16435 -0.57698,-1.88337c-0.11408,-0.71902 -0.21609,-1.53731 -0.21883,-2.34352c-0.00274,-0.80623 0.00658,-1.71171 0.11517,-2.60514c0.00931,-0.9055 0.21718,-1.78686 0.33784,-2.77955c0.12065,-0.99269 0.32852,-1.87405 0.54844,-2.85468c0.21992,-0.98063 0.43985,-1.96125 0.64771,-2.84261c0.3192,-0.96856 0.52706,-1.84992 0.73492,-2.73128c0.30713,-0.86929 0.61426,-1.73858 0.81006,-2.52067c0.1958,-0.78209 0.39159,-1.56419 0.67459,-2.23494c0.93346,-2.70715 1.65905,-4.53293 1.65905,-4.53293c0,0 -0.52706,1.84992 -1.36124,4.56914c-0.18373,0.68282 -0.37953,1.46491 -0.57532,2.24701c-0.20786,0.88136 -0.50292,1.65138 -0.71079,2.53274c-0.1958,0.78209 -0.41572,1.76272 -0.62358,2.64408c-0.30713,0.86929 -0.41572,1.76272 -0.63565,2.74335c-0.20786,0.88136 -0.42779,1.86199 -0.53638,2.75541c-0.12065,0.99269 -0.32852,1.87405 -0.33784,2.77955c-0.1086,0.89343 -0.21718,1.78685 -0.21444,2.59307c-0.1086,0.89343 0.00548,1.61245 0.0203,2.3194c0.11408,0.71902 0.14095,1.3267 0.37843,1.85925c0.06307,0.30987 0.23748,0.53254 0.31262,0.74315c0.07513,0.2106 0.15027,0.42121 0.33675,0.54461c0.26162,0.334 0.54735,0.46947 0.73383,0.59287c0.18647,0.1234 0.28574,0.13547 0.28574,0.13547c0,0 -0.11133,0.0872 -0.1234,0.18647z" fill="#1a324a"/><path d="M205.41417,157.18923c-0.30713,0.86929 -0.65046,2.0364 -0.89452,3.21556c-0.17166,0.58355 -0.35539,1.26637 -0.42779,1.86199c-0.08446,0.69489 -0.15686,1.2905 -0.03071,1.91024c0.12889,1.42597 -0.02796,2.71648 -0.38336,3.98284c-0.35539,1.26637 -0.98446,2.298 -1.77587,3.0077c-0.79141,0.7097 -1.62177,0.91097 -2.22944,0.93786c-0.30987,0.06307 -0.50841,0.03894 -0.70695,0.01481c-0.09927,-0.01207 -0.19853,-0.02414 -0.19853,-0.02414c0,0 0.39708,0.04826 0.91755,-0.08995c0.60768,-0.02687 1.35083,-0.3395 2.04298,-1.06126c0.68007,-0.62249 1.11061,-1.67826 1.45393,-2.84535c0.34332,-1.16709 0.40091,-2.46966 0.24789,-3.6971c-0.11408,-0.71902 -0.02961,-1.4139 0.05484,-2.10879c0.0724,-0.59562 0.25612,-1.27844 0.42779,-1.86199c0.34332,-1.16709 0.77387,-2.22287 1.09305,-3.19143c0.72559,-1.82579 1.27953,-3.06803 1.27953,-3.06803c0,0 -0.3554,1.26636 -0.87038,3.01702z" fill="#1a324a"/></g></g><path d="M277.61167,93.84554c1.04165,0.78421 -27.30375,4.06884 -39.52105,3.80882c-12.2173,-0.26003 -47.15636,-2.40985 -46.17278,-3.4358c0.98359,-1.02594 34.85528,-10.79671 41.36663,-10.68514c6.51919,0.01188 41.68501,8.19815 44.32719,10.31212z" fill="#3f3f74" stroke-width="1"/><path d="M237.72441,75.55739c10.98959,0.56458 15.39864,9.53845 17.15599,21.6137c1.54464,10.95509 -0.37873,22.64016 -18.5618,21.70966c-15.69079,-0.7342 -19.63588,-11.77805 -16.99349,-22.40338c2.78919,-11.21564 7.40971,-21.48456 18.3993,-20.91998z" fill="#c5886b" stroke-width="1"/><g><path d="M243.38501,113.21809c-0.02356,0.29907 -0.2465,0.58244 -0.55342,0.65859c-0.30692,0.07614 -0.606,0.05258 -0.80538,0.03688c-0.29907,-0.02356 -0.39092,-0.1311 -0.39092,-0.1311c0,0 0.10754,-0.09184 0.31477,-0.17583c0.10754,-0.09184 0.31477,-0.17583 0.52201,-0.25982c0.20723,-0.08398 0.41446,-0.16798 0.52201,-0.25982c0.10754,-0.09184 0.21508,-0.18368 0.21508,-0.18368c0,0 0.09184,0.10754 0.17583,0.31477z" fill="#99918a" stroke-width="1"/><path d="M211.21117,125.63031c3.62267,-1.41995 3.69024,-4.82516 3.69024,-4.82516c-0.59743,3.76471 -6.03334,2.73474 -6.03334,2.73474c4.18703,0.32976 6.11661,-6.33933 4.27195,-8.3905c-1.84465,-2.05116 -0.23223,-7.24059 -0.23223,-7.24059c-0.90507,0.02903 -1.53938,2.98836 -1.53938,2.98836c0,0 -1.24175,-4.61173 2.39662,-6.23107c3.63837,-1.61933 2.94766,-5.58581 4.60884,-16.48905c1.65332,-10.80355 14.09047,-13.33487 17.87088,-12.93683c0.69784,0.05496 1.29599,0.10206 1.67905,0.33285c0.65311,-0.65073 2.04093,-0.44112 3.53631,-0.32335c2.59983,0.10445 7.75547,3.41946 9.8152,5.28695c6.06382,5.79398 6.20802,19.24683 6.11144,21.74696c-0.0966,2.50014 2.89415,2.73568 2.89415,2.73568c-2.12493,0.23388 -3.57319,-0.48203 -3.57319,-0.48203c2.7395,3.42566 0.57841,6.66599 0.57841,6.66599c0.93172,2.17988 0.41043,6.25152 -1.01355,9.04835c-1.52367,2.78898 2.33836,4.69809 2.33836,4.69809c-3.02214,0.16322 -3.60221,-1.3871 -3.6705,-1.79372c0.55414,3.15324 1.02429,6.09925 -0.54412,8.18253c-1.66809,2.07544 1.81634,4.95792 1.81634,4.95792c-1.1963,-0.09421 -3.53392,-0.98049 -3.53392,-0.98049c-1.54723,3.08805 3.79684,4.01048 3.79684,4.01048c-3.65955,0.61457 -5.16039,-0.70735 -5.16039,-0.70735c1.01334,3.69096 0.15062,5.72951 -1.02687,7.9439c-1.06996,2.12254 1.50156,5.13374 1.50156,5.13374c-2.73092,0.28647 -4.24272,-3.44374 -4.24272,-3.44374c1.22367,6.11495 -3.19653,7.47209 -3.19653,7.47209c1.66809,-2.07544 0.09349,-5.00812 0.09349,-5.00812c-0.08089,2.30075 -1.42326,6.60865 -4.16989,7.09451c-2.74662,0.48585 -2.15561,4.44447 -2.15561,4.44447c-1.97812,-0.35641 -1.18131,-4.10542 -1.05807,-4.39665c-1.49155,6.20204 -6.42115,5.11163 -6.42115,5.11163c-2.26863,3.33217 -7.84111,1.48896 -7.84111,1.48896c2.17751,0.37212 4.12113,-1.3807 4.12113,-1.3807c-4.78994,2.23081 -7.34575,-0.97976 -7.24916,-3.4799c0.0966,-2.50014 3.54654,-1.72688 3.54654,-1.72688c0,0 -4.04261,0.38378 -0.85725,3.24271c3.18536,2.85892 6.35834,-4.3141 3.7452,-5.523c-2.61315,-1.2089 -1.79517,-3.95315 -1.79517,-3.95315c-2.03856,-0.86271 -5.11638,-3.81348 -4.30625,-6.45803c0.77873,-2.24579 -0.12944,-4.72474 -0.12944,-4.72474c1.25198,3.2082 -1.68617,3.57865 -1.68617,3.57865c0.44825,-1.87058 -0.32335,-3.53631 -2.61388,-5.02072c-1.71593,-1.13824 -0.92935,-3.48372 -0.43637,-4.64861c-1.08328,1.01809 -4.01906,0.08471 -4.01906,0.08471c1.7026,0.03379 4.39117,-2.26221 2.51511,-3.91461c-1.8682,-1.75209 -1.0526,-3.1925 -1.0526,-3.1925c-3.00882,1.26768 -0.81251,3.9484 -0.81251,3.9484c-2.2929,-0.18058 -4.17991,-4.24127 -0.55724,-5.66122zM224.48623,100.99654c2.93651,4.74521 2.04475,5.87868 2.04475,5.87868c0,0 4.06069,-1.887 6.42498,1.20818l5.34717,3.43041l5.0262,-1.40973c0,0 2.94528,-4.28197 8.10568,-3.57463c0,0 2.37141,-0.81633 1.70188,-3.77804c0,0 -0.75517,1.94672 -3.06925,0.76137c0,0 3.26079,-0.64597 2.75376,-4.39737c-0.39949,-3.84323 -1.62244,-6.14635 -3.60128,-10.31459c-2.91843,-6.24843 -7.44379,-6.10328 -9.84733,-8.70001c-1.34,3.00406 -8.853,5.42166 -12.03455,8.88254c-0.00785,0.09969 -5.7885,7.26796 -2.852,12.01316z" fill="#c8bdb4" stroke-width="1"/><path d="M227.29524,88.95787c3.18155,-3.46089 10.73924,-5.90295 12.07924,-8.90701c2.40354,2.59672 6.96865,2.47357 9.88708,8.722c1.97885,4.16823 3.20902,6.51086 3.6085,10.35409c0.50703,3.75139 -2.76118,4.41416 -2.76118,4.41416c2.31408,1.18534 3.07301,-0.76782 3.07301,-0.76782c0.66953,2.96171 -1.70879,3.7886 -1.70879,3.7886c-5.16039,-0.70735 -8.12878,3.58993 -8.12878,3.58993l-5.04289,1.41198l-5.36708,-3.43531c-2.36429,-3.09518 -6.44053,-1.21984 -6.44053,-1.21984c0,0 0.88192,-1.14992 -2.05459,-5.89512c-2.93651,-4.74521 2.84817,-11.95597 2.85602,-12.05566z" data-paper-data="{&quot;noHover&quot;:false,&quot;origItem&quot;:[&quot;Path&quot;,{&quot;applyMatrix&quot;:true,&quot;segments&quot;:[[[436.6,203.2],[-6.6,-9],[6.6,9]],[441.6,214.6],[[454.6,216],[-5.2,-5.8],[0,0]],[465.8,222],[475.6,218.4],[[491.2,210],[-10.4,-0.6],[0,0]],[[494,202.2],[1.8,5.8],[0,0]],[[488,204.2],[4.8,2],[0,0]],[[492.8,195],[1.6,7.4],[-1.4,-7.6]],[[484,175],[4.6,8],[-6.8,-12]],[[463,159.2],[5.2,4.8],[-2.2,6.2]],[[440.4,178.8],[5.8,-7.4],[0,0.2]]],&quot;closed&quot;:true,&quot;fillColor&quot;:[0,0,0,1]}]}" fill="#847e87" stroke-width="0.5"/><path d="M239.29355,77.28592c-0.08398,-0.20723 -0.25982,-0.52201 -0.54319,-0.74494c-0.09184,-0.10754 -0.28337,-0.22294 -0.4749,-0.33833c-0.19153,-0.1154 -0.39092,-0.1311 -0.58244,-0.2465c-0.19153,-0.1154 -0.49061,-0.13895 -0.68213,-0.25434c-0.19153,-0.1154 -0.49061,-0.13895 -0.68999,-0.15465c-0.49061,-0.13895 -0.99692,-0.07852 -1.49537,-0.11777c-0.49846,-0.03925 -0.90507,0.02903 -1.30384,-0.00237c-0.80538,0.03688 -1.30384,-0.00237 -1.30384,-0.00237c0,0 0.41446,-0.16798 1.23555,-0.40424c0.30692,-0.07614 0.81323,-0.13657 1.31955,-0.19701c0.29907,0.02356 0.50631,-0.06044 0.80538,-0.03688c0.29907,0.02356 0.49846,0.03925 0.79753,0.06281c0.59815,0.04711 1.08876,0.18606 1.57151,0.42469c0.29123,0.12325 0.4749,0.33833 0.66644,0.45373c0.18368,0.21508 0.37521,0.33048 0.4592,0.53771c0.17583,0.31477 0.24411,0.7214 0.32811,0.92863c-0.02356,0.29907 -0.0314,0.39877 -0.0314,0.39877c0,0 -0.09184,-0.10754 -0.07614,-0.30692z" fill="#99918a" stroke-width="1"/><path d="M239.65068,79.11962c-0.01571,0.19938 -0.0314,0.39877 -0.04711,0.59815c-0.01571,0.19938 -0.13895,0.49061 -0.25434,0.68213c-0.12325,0.29123 -0.23864,0.48275 -0.46158,0.76613c-0.22294,0.28337 -0.44588,0.56674 -0.66096,0.75042c-0.43802,0.46705 -0.97573,0.92625 -1.50559,1.28576c-1.06757,0.81871 -2.31883,1.42233 -3.25531,1.85012c-0.92863,0.32811 -1.55033,0.58007 -1.55033,0.58007c0,0 0.52986,-0.35951 1.3745,-0.89484c0.42232,-0.26767 0.94433,-0.52749 1.47419,-0.88699c0.52986,-0.35951 1.05973,-0.71901 1.58959,-1.07853c0.52986,-0.35951 1.06757,-0.81871 1.49774,-1.18607c0.22294,-0.28337 0.43802,-0.46705 0.65311,-0.65073c0.21508,-0.18368 0.43017,-0.36736 0.54556,-0.5589c0.1154,-0.19153 0.23079,-0.38306 0.34619,-0.57459c0.1154,-0.19153 0.1311,-0.39092 0.13895,-0.49061c0.01571,-0.19938 -0.06829,-0.40661 -0.06829,-0.40661c0,0 0.08398,0.20723 0.18368,0.21508z" fill="#99918a" stroke-width="1"/><path d="M226.27592,103.74555c0.17583,0.31477 0.3438,0.72925 0.50393,1.2434c0.16013,0.51416 0.21271,1.12016 0.17345,1.61862c-0.04711,0.59815 -0.18606,1.08876 -0.42469,1.57151c-0.02356,0.29907 -0.23864,0.48275 -0.35404,0.67428c-0.1154,0.19153 -0.33048,0.37521 -0.43802,0.46705c-0.21508,0.18368 -0.32263,0.27552 -0.43017,0.36736c-0.10754,0.09184 -0.21508,0.18368 -0.32263,0.27552c-0.20723,0.08398 -0.31477,0.17583 -0.31477,0.17583c0,0 0.10754,-0.09184 0.22294,-0.28337c0.00785,-0.09969 0.1154,-0.19153 0.22294,-0.28337c0.10754,-0.09184 0.21508,-0.18368 0.33048,-0.37521c0.10754,-0.09184 0.22294,-0.28337 0.33833,-0.4749c0.1154,-0.19153 0.23079,-0.38306 0.2465,-0.58244c0.01571,-0.19938 0.13895,-0.49061 0.15465,-0.68999c0.1154,-0.19153 0.13895,-0.49061 0.15465,-0.68999c0.1154,-0.19153 0.03925,-0.49846 0.05496,-0.69784c0.01571,-0.19938 0.03925,-0.49846 -0.04473,-0.70569c-0.06829,-0.40661 -0.23626,-0.82109 -0.30455,-1.2277c-0.24411,-0.7214 -0.40424,-1.23555 -0.40424,-1.23555c0,0 0.36736,0.43017 0.63503,0.85249z" fill="#99918a" stroke-width="1"/><path d="M250.25132,103.72789c0.19938,0.01571 0.49846,0.03925 0.79753,0.06281c0.19938,0.01571 0.29907,0.02356 0.50631,-0.06044c0.19938,0.01571 0.30692,-0.07614 0.51416,-0.16013c0.10754,-0.09184 0.31477,-0.17583 0.43017,-0.36736c0.21508,-0.18368 0.32263,-0.27552 0.43802,-0.46705c0.10754,-0.09184 0.22294,-0.28337 0.33833,-0.4749c0.1154,-0.19153 0.1311,-0.39092 0.2465,-0.58244c0.1311,-0.39092 0.26219,-0.78182 0.38544,-1.07305c0.25434,-0.68213 0.38544,-1.07305 0.38544,-1.07305c0,0 0.06829,0.40661 0.01333,1.10446c-0.0314,0.39877 -0.06281,0.79753 -0.18606,1.08876c-0.12325,0.29123 -0.13895,0.49061 -0.25434,0.68213c-0.12325,0.29123 -0.23864,0.48275 -0.35404,0.67428c-0.21508,0.18368 -0.33048,0.37521 -0.54556,0.5589c-0.21508,0.18368 -0.42232,0.26767 -0.62955,0.35165c-0.41446,0.16798 -0.81323,0.13657 -1.212,0.10517c-0.68999,-0.15465 -1.0652,-0.48513 -1.0652,-0.48513c0,0 0.09184,0.10754 0.19153,0.1154z" fill="#99918a" stroke-width="1"/><path d="M259.47551,105.05621c-0.61385,0.15227 -1.31169,0.09732 -2.10137,-0.06519c-0.39092,-0.1311 -0.78182,-0.26219 -1.0652,-0.48513c-0.28337,-0.22294 -0.56674,-0.44588 -0.75042,-0.66096c-0.36736,-0.43017 -0.43565,-0.83679 -0.43565,-0.83679c0,0 0.09184,0.10754 0.18368,0.21508c0.08398,0.20723 0.27552,0.32263 0.46705,0.43802c0.09184,0.10754 0.29123,0.12325 0.38306,0.23079c0.09184,0.10754 0.29123,0.12325 0.38306,0.23079c0.28337,0.22294 0.68213,0.25434 0.97336,0.37759c0.68999,0.15465 1.37997,0.30931 1.87843,0.34856c0.49061,0.13895 0.88937,0.17035 0.88937,0.17035c0,0 -0.31477,0.17583 -0.80538,0.03688z" fill="#99918a" stroke-width="1"/><path d="M218.13358,93.77548c-0.11777,1.49537 -0.35879,3.28196 -0.60766,5.16824c-0.13895,0.49061 -0.17035,0.88937 -0.30931,1.37997c-0.13895,0.49061 -0.17035,0.88937 -0.30931,1.37997c-0.13895,0.49061 -0.36973,0.87367 -0.60052,1.25673c-0.33048,0.37521 -0.54556,0.5589 -0.86819,0.83441c-0.32263,0.27552 -0.62955,0.35165 -0.84463,0.53534c-0.31477,0.17583 -0.52201,0.25982 -0.72925,0.3438c-0.41446,0.16798 -0.62171,0.25196 -0.62171,0.25196c0,0 0.21508,-0.18368 0.52986,-0.35951c0.31477,-0.17583 0.74494,-0.54319 1.28266,-1.00239c0.43802,-0.46705 0.89175,-1.13349 1.05425,-1.92316c0.0314,-0.39877 0.1625,-0.78968 0.20176,-1.28814c0.03925,-0.49846 0.17035,-0.88937 0.20961,-1.38782c0.17035,-0.88937 0.34071,-1.77874 0.51106,-2.66811c0.17035,-0.88937 0.33285,-1.67905 0.4875,-2.36904c0.20961,-1.38782 0.47966,-2.26935 0.47966,-2.26935c0,0 -0.07852,0.99692 0.13419,2.11707z" fill="#99918a" stroke-width="1"/><path d="M212.5459,108.6828c-0.13895,0.49061 -0.19391,1.18845 -0.26457,2.08566c0.03688,0.80538 0.05806,1.81014 0.3783,2.83846c0.16013,0.51416 0.4278,0.93648 0.68761,1.45849c0.35951,0.52986 0.61147,1.15157 0.66405,1.75757c0.05258,0.606 0.00548,1.20415 -0.04164,1.8023c-0.1468,0.5903 -0.2936,1.18059 -0.53223,1.66335c-0.1468,0.5903 -0.48513,1.0652 -0.81561,1.44041c-0.33048,0.37521 -0.76065,0.74257 -1.08328,1.01809c-0.32263,0.27552 -0.74494,0.54319 -1.05188,0.61932c-0.31477,0.17583 -0.71354,0.14442 -0.92078,0.22842c-0.29907,-0.02356 -0.49846,-0.03925 -0.59815,-0.04711c-0.09969,-0.00785 -0.19938,-0.01571 -0.19938,-0.01571c0,0 0.09969,0.00785 0.19938,0.01571c0.19938,0.01571 0.39877,0.0314 0.606,-0.05258c0.20723,-0.08398 0.51416,-0.16013 0.82894,-0.33596c0.10754,-0.09184 0.31477,-0.17583 0.42232,-0.26767c0.10754,-0.09184 0.31477,-0.17583 0.43017,-0.36736c0.32263,-0.27552 0.65311,-0.65073 0.8839,-1.0338c0.23079,-0.38306 0.56912,-0.85797 0.70807,-1.34857c0.23864,-0.48275 0.38544,-1.07305 0.42469,-1.57151c0.13895,-0.49061 0.08637,-1.09661 0.02593,-1.60291c-0.05258,-0.606 -0.22056,-1.02047 -0.48038,-1.54248c-0.26767,-0.42232 -0.51963,-1.04402 -0.67976,-1.55818c-0.25982,-0.52201 -0.21271,-1.12016 -0.27315,-1.62647c0.03925,-0.49846 0.07852,-0.99692 0.10992,-1.39568c0.17035,-0.88937 0.42469,-1.57151 0.56364,-2.06212c0.23864,-0.48275 0.36188,-0.77398 0.36188,-0.77398c0,0 -0.12325,0.29123 -0.35404,0.67428z" fill="#99918a" stroke-width="1"/><path d="M210.81859,130.61488c-0.07614,-0.30692 -0.25196,-0.62171 -0.32025,-1.02832c0.01571,-0.19938 0.0314,-0.39877 0.04711,-0.59815c0.01571,-0.19938 0.0314,-0.39877 0.1468,-0.5903c0.1154,-0.19153 0.23079,-0.38306 0.34619,-0.57459c0.10754,-0.09184 0.22294,-0.28337 0.43017,-0.36736c0.31477,-0.17583 0.62955,-0.35165 0.93648,-0.4278c0.30692,-0.07614 0.50631,-0.06044 0.71354,-0.14442c0.20723,-0.08398 0.30692,-0.07614 0.30692,-0.07614c0,0 -0.10754,0.09184 -0.21508,0.18368c-0.10754,0.09184 -0.31477,0.17583 -0.52986,0.35951c-0.10754,0.09184 -0.21508,0.18368 -0.32263,0.27552c-0.10754,0.09184 -0.21508,0.18368 -0.32263,0.27552c-0.10754,0.09184 -0.22294,0.28337 -0.33048,0.37521c-0.10754,0.09184 -0.12325,0.29123 -0.23079,0.38306c-0.01571,0.19938 -0.12325,0.29123 -0.13895,0.49061c-0.01571,0.19938 -0.02356,0.29907 -0.03925,0.49846c-0.02356,0.29907 0.05258,0.606 0.12872,0.91292c0.15227,0.61385 0.32811,0.92863 0.32811,0.92863c0,0 -0.28337,-0.22294 -0.93411,-0.87604z" fill="#99918a" stroke-width="1"/><path d="M212.29899,134.74386c0.40661,-0.06829 0.80538,-0.03688 1.31169,-0.09732c0.19938,0.01571 0.50631,-0.06044 0.71354,-0.14442c0.20723,-0.08398 0.40661,-0.06829 0.62171,-0.25196c0.21508,-0.18368 0.32263,-0.27552 0.53771,-0.4592c0.21508,-0.18368 0.33048,-0.37521 0.44588,-0.56674c0.1154,-0.19153 0.23079,-0.38306 0.34619,-0.57459c0.1154,-0.19153 0.1311,-0.39092 0.2465,-0.58244c0.12325,-0.29123 0.15465,-0.68999 0.27004,-0.88152c0.12325,-0.29123 0.1311,-0.39092 0.1311,-0.39092c0,0 0.08398,0.20723 0.06829,0.40661c-0.01571,0.19938 0.05258,0.606 -0.07852,0.99692c-0.01571,0.19938 -0.03925,0.49846 -0.15465,0.68999c-0.01571,0.19938 -0.13895,0.49061 -0.25434,0.68213c-0.21508,0.18368 -0.33833,0.4749 -0.55342,0.65859c-0.1154,0.19153 -0.33048,0.37521 -0.64525,0.55104c-0.31477,0.17583 -0.52201,0.25982 -0.82894,0.33596c-0.30692,0.07614 -0.51416,0.16013 -0.81323,0.13657c-0.50631,0.06044 -1.00476,0.02117 -1.39568,-0.10992c-0.78182,-0.26219 -1.26458,-0.50083 -1.26458,-0.50083c0,0 0.5903,0.1468 1.29599,0.10206z" fill="#99918a" stroke-width="1"/><path d="M248.14252,78.28378c-0.58244,-0.2465 -1.15703,-0.59267 -1.83133,-0.94671c-0.67428,-0.35404 -1.35642,-0.60838 -2.13039,-0.97026c-0.29123,-0.12325 -0.68213,-0.25434 -1.07305,-0.38544c-0.39092,-0.1311 -0.67428,-0.35404 -1.07305,-0.38544c-0.39877,-0.0314 -0.78968,-0.1625 -1.08876,-0.18606c-0.39877,-0.0314 -0.69784,-0.05496 -0.99692,-0.07852c-0.606,0.05258 -1.1123,0.11302 -1.41924,0.18915c-0.31477,0.17583 -0.52201,0.25982 -0.52201,0.25982c0,0 0.1154,-0.19153 0.43017,-0.36736c0.31477,-0.17583 0.82894,-0.33596 1.43493,-0.38854c0.29907,0.02356 0.606,-0.05258 1.00476,-0.02117c0.29907,0.02356 0.68999,0.15465 1.08876,0.18606c0.39877,0.0314 0.78968,0.1625 1.18059,0.2936c0.39092,0.1311 0.78182,0.26219 1.17274,0.39329c0.29123,0.12325 0.67428,0.35404 1.0652,0.48513c0.39092,0.1311 0.77398,0.36188 1.05734,0.58482c0.67428,0.35404 1.24103,0.7999 1.71593,1.13824c0.4749,0.33833 0.85011,0.66881 1.13349,0.89175c0.28337,0.22294 0.4749,0.33833 0.4749,0.33833c0,0 -0.77398,-0.36188 -1.62409,-1.03069z" fill="#99918a" stroke-width="1"/><path d="M258.60307,125.04943c-0.20723,0.08398 -0.51416,0.16013 -0.91292,0.12872c-0.19938,-0.01571 -0.39877,-0.0314 -0.59815,-0.04711c-0.19938,-0.01571 -0.49846,-0.03925 -0.68999,-0.15465c-0.29123,-0.12325 -0.48275,-0.23864 -0.67428,-0.35404c-0.19153,-0.1154 -0.38306,-0.23079 -0.56674,-0.44588c-0.18368,-0.21508 -0.36736,-0.43017 -0.45135,-0.6374c-0.18368,-0.21508 -0.26767,-0.42232 -0.35165,-0.62955c-0.16798,-0.41446 -0.23626,-0.82109 -0.30455,-1.2277c-0.06829,-0.40661 -0.04473,-0.70569 -0.02903,-0.90507c0.01571,-0.19938 0.02356,-0.29907 0.02356,-0.29907c0,0 -0.00785,0.09969 0.07614,0.30692c0.08398,0.20723 0.06044,0.50631 0.23626,0.82109c-0.01571,0.19938 0.07614,0.30692 0.16013,0.51416c0.09184,0.10754 0.17583,0.31477 0.25982,0.52201c0.08398,0.20723 0.27552,0.32263 0.35951,0.52986c0.08398,0.20723 0.27552,0.32263 0.35951,0.52986c0.19153,0.1154 0.27552,0.32263 0.46705,0.43802c0.09184,0.10754 0.28337,0.22294 0.4749,0.33833c0.38306,0.23079 0.77398,0.36188 1.07305,0.38544c0.29123,0.12325 0.5903,0.1468 0.78968,0.1625c0.19938,0.01571 0.29907,0.02356 0.29907,0.02356c0,0 -0.09969,-0.00785 0,0z" fill="#99918a" stroke-width="1"/><path d="M258.35607,109.08074c-0.04711,0.59815 -0.10992,1.39568 -0.56364,2.06212c-0.22294,0.28337 -0.45373,0.66644 -0.7685,0.84226c-0.20723,0.08398 -0.31477,0.17583 -0.52201,0.25982c-0.20723,0.08398 -0.31477,0.17583 -0.51416,0.16013c-0.30692,0.07614 -0.50631,0.06044 -0.70569,0.04473c-0.19938,-0.01571 -0.29907,-0.02356 -0.29907,-0.02356c0,0 0,0 0.20723,-0.08398c0.09969,0.00785 0.20723,-0.08398 0.30692,-0.07614c0.10754,-0.09184 0.20723,-0.08398 0.31477,-0.17583c0.09969,0.00785 0.20723,-0.08398 0.31477,-0.17583c0.10754,-0.09184 0.21508,-0.18368 0.32263,-0.27552c0.10754,-0.09184 0.22294,-0.28337 0.33048,-0.37521c0.00785,-0.09969 0.1154,-0.19153 0.23079,-0.38306c0.23079,-0.38306 0.35404,-0.67428 0.47728,-0.96551c0.12325,-0.29123 0.1468,-0.5903 0.27004,-0.88152c0.13895,-0.49061 0.27004,-0.88152 0.27004,-0.88152c0,0 0.16798,0.41446 0.32811,0.92863z" fill="#99918a" stroke-width="1"/><path d="M254.01944,136.12374c-0.59815,-0.04711 -1.18059,-0.2936 -1.86273,-0.54794c-0.28337,-0.22294 -0.67428,-0.35404 -0.95765,-0.57697c-0.28337,-0.22294 -0.56674,-0.44588 -0.84226,-0.7685c-0.19153,-0.1154 -0.28337,-0.22294 -0.36736,-0.43017c-0.08398,-0.20723 -0.17583,-0.31477 -0.25982,-0.52201c-0.08398,-0.20723 -0.17583,-0.31477 -0.25982,-0.52201c-0.09184,-0.10754 -0.07614,-0.30692 -0.16013,-0.51416c0.01571,-0.19938 -0.07614,-0.30692 -0.06044,-0.50631c0.01571,-0.19938 0.02356,-0.29907 0.03925,-0.49846c0.02356,-0.29907 0.04711,-0.59815 0.17035,-0.88937c0.28575,-1.0809 0.73948,-1.74733 0.73948,-1.74733c0,0 -0.01571,0.19938 -0.13895,0.49061c-0.02356,0.29907 -0.1625,0.78968 -0.20176,1.28814c-0.02356,0.29907 -0.04711,0.59815 -0.07066,0.89722c-0.00785,0.09969 0.07614,0.30692 0.06829,0.40661c0.08398,0.20723 0.06829,0.40661 0.16013,0.51416c0.08398,0.20723 0.07614,0.30692 0.16013,0.51416l0.26767,0.42232c0.09184,0.10754 0.17583,0.31477 0.26767,0.42232c0.18368,0.21508 0.27552,0.32263 0.36736,0.43017c0.18368,0.21508 0.46705,0.43802 0.75042,0.66096c0.28337,0.22294 0.56674,0.44588 0.85797,0.56912c0.57459,0.34619 1.15703,0.59267 1.64764,0.73162c1.0809,0.28575 1.77089,0.4404 1.77089,0.4404c0,0 -0.70569,0.04473 -2.08566,-0.26457z" fill="#99918a" stroke-width="1"/><path d="M255.23216,139.8304c-0.40661,0.06829 -0.91292,0.12872 -1.41138,0.08946c-0.29123,-0.12325 -0.49846,-0.03925 -0.78968,-0.1625c-0.29123,-0.12325 -0.49061,-0.13895 -0.78182,-0.26219c-0.29123,-0.12325 -0.48275,-0.23864 -0.77398,-0.36188c-0.29123,-0.12325 -0.4749,-0.33833 -0.66644,-0.45373c-0.19153,-0.1154 -0.37521,-0.33048 -0.56674,-0.44588c-0.19153,-0.1154 -0.37521,-0.33048 -0.46705,-0.43802c-0.27552,-0.32263 -0.45135,-0.6374 -0.53534,-0.84463c-0.08398,-0.20723 -0.17583,-0.31477 -0.17583,-0.31477c0,0 0.09184,0.10754 0.28337,0.22294c0.09184,0.10754 0.18368,0.21508 0.27552,0.32263c0.09184,0.10754 0.18368,0.21508 0.37521,0.33048c0.09184,0.10754 0.28337,0.22294 0.4749,0.33833c0.19153,0.1154 0.38306,0.23079 0.57459,0.34619c0.48275,0.23864 0.86582,0.46942 1.35642,0.60838c0.87367,0.36973 1.87058,0.44825 2.66811,0.51106c0.79753,0.06281 1.30384,0.00237 1.30384,0.00237c0,0 -0.52201,0.25982 -1.14371,0.51178z" fill="#99918a" stroke-width="1"/><path d="M251.03159,151.1355c-0.36736,-0.43017 -0.82656,-0.96788 -1.07068,-1.68928c-0.17583,-0.31477 -0.24411,-0.7214 -0.22056,-1.02047c0.02356,-0.29907 0.04711,-0.59815 0.07066,-0.89722c0.1154,-0.19153 0.23864,-0.48275 0.2465,-0.58244c0.10754,-0.09184 0.1154,-0.19153 0.1154,-0.19153c0,0 -0.0314,0.39877 0.02903,0.90507c0.06044,0.50631 0.11302,1.1123 0.36498,1.73401c0.25196,0.62171 0.50393,1.2434 0.7716,1.66572c0.26767,0.42232 0.4435,0.73709 0.4435,0.73709c0,0 -0.38306,-0.23079 -0.75042,-0.66096z" fill="#99918a" stroke-width="1"/><path d="M248.02752,149.7955c0.06829,0.40661 0.12087,1.01261 0.08161,1.51107c-0.1154,0.19153 -0.13895,0.49061 -0.1625,0.78968c-0.12325,0.29123 -0.1468,0.5903 -0.27004,0.88152c-0.02356,0.29907 -0.23864,0.48275 -0.36188,0.77398c-0.12325,0.29123 -0.43802,0.46705 -0.55342,0.65859c-0.12325,0.29123 -0.33048,0.37521 -0.54556,0.5589c-0.21508,0.18368 -0.42232,0.26767 -0.62955,0.35165c-0.32263,0.27552 -0.72925,0.3438 -0.93648,0.4278c-0.31477,0.17583 -0.41446,0.16798 -0.41446,0.16798c0,0 0.10754,-0.09184 0.32263,-0.27552c0.10754,-0.09184 0.21508,-0.18368 0.32263,-0.27552c0.10754,-0.09184 0.32263,-0.27552 0.43017,-0.36736c0.1154,-0.19153 0.32263,-0.27552 0.43802,-0.46705c0.1154,-0.19153 0.33048,-0.37521 0.44588,-0.56674c0.12325,-0.29123 0.33833,-0.4749 0.45373,-0.66644c0.1154,-0.19153 0.23079,-0.38306 0.35404,-0.67428c0.23864,-0.48275 0.2779,-0.98121 0.41685,-1.47182c0.03925,-0.49846 0.07852,-0.99692 0.10992,-1.39568c-0.03688,-0.80538 -0.08946,-1.41138 -0.08946,-1.41138c0,0 0.35951,0.52986 0.58792,1.45064z" fill="#99918a" stroke-width="1"/><path d="M237.61231,162.31641c-0.09969,-0.00785 -0.29907,-0.02356 -0.39092,-0.1311c-0.09969,-0.00785 -0.28337,-0.22294 -0.37521,-0.33048c-0.19153,-0.1154 -0.27552,-0.32263 -0.35951,-0.52986c-0.08398,-0.20723 -0.06044,-0.50631 -0.14442,-0.71354c-0.07614,-0.30692 -0.06044,-0.50631 -0.03688,-0.80538c0.02356,-0.29907 0.03925,-0.49846 0.06281,-0.79753c0.1468,-0.5903 0.2779,-0.98121 0.41685,-1.47182c0.23079,-0.38306 0.46942,-0.86582 0.59267,-1.15703c0.35404,-0.67428 0.68452,-1.04949 0.68452,-1.04949c0,0 -0.03925,0.49846 -0.2936,1.18059c-0.12325,0.29123 -0.26219,0.78182 -0.39329,1.17274c-0.13895,0.49061 -0.27004,0.88152 -0.30931,1.37997c-0.03925,0.49846 -0.07852,0.99692 -0.10992,1.39568c-0.01571,0.19938 -0.0314,0.39877 0.05258,0.606c-0.01571,0.19938 0.07614,0.30692 0.16013,0.51416c0.08398,0.20723 0.17583,0.31477 0.26767,0.42232c0.09184,0.10754 0.18368,0.21508 0.28337,0.22294c0.19153,0.1154 0.29123,0.12325 0.29123,0.12325c0,0 -0.09969,-0.00785 -0.39877,-0.0314z" fill="#99918a" stroke-width="1"/><path d="M236.3501,160.51174c-0.1154,0.19153 -0.23864,0.48275 -0.45373,0.66644c-0.1154,0.19153 -0.33833,0.4749 -0.55342,0.65859c-0.21508,0.18368 -0.43017,0.36736 -0.74494,0.54319c-0.21508,0.18368 -0.52986,0.35951 -0.83679,0.43565c-0.31477,0.17583 -0.62171,0.25196 -0.92863,0.32811c-0.30692,0.07614 -0.606,0.05258 -0.91292,0.12872c-0.29907,-0.02356 -0.59815,-0.04711 -0.89722,-0.07066c-0.29907,-0.02356 -0.5903,-0.1468 -0.78968,-0.1625c-0.49846,-0.03925 -0.78182,-0.26219 -1.07305,-0.38544c-0.29123,-0.12325 -0.38306,-0.23079 -0.38306,-0.23079c0,0 0.09969,0.00785 0.39877,0.0314c0.29907,0.02356 0.5903,0.1468 1.08876,0.18606c0.19938,0.01571 0.39877,0.0314 0.69784,0.05496c0.29907,0.02356 0.50631,-0.06044 0.80538,-0.03688c0.20723,-0.08398 0.50631,-0.06044 0.81323,-0.13657c0.30692,-0.07614 0.606,-0.05258 0.82109,-0.23626c0.20723,-0.08398 0.51416,-0.16013 0.72925,-0.3438c0.30692,-0.07614 0.52201,-0.25982 0.73709,-0.4435c0.1154,-0.19153 0.33048,-0.37521 0.54556,-0.5589c0.1154,-0.19153 0.33048,-0.37521 0.44588,-0.56674c0.32263,-0.27552 0.55342,-0.65859 0.66881,-0.85011c0.12325,-0.29123 0.23079,-0.38306 0.23079,-0.38306c0,0 -0.1468,0.5903 -0.409,1.37213z" fill="#99918a" stroke-width="1"/><path d="M225.0543,163.83512c-0.29907,-0.02356 -0.606,0.05258 -0.91292,0.12872c-0.30692,0.07614 -0.606,0.05258 -1.00476,0.02117c-0.19938,-0.01571 -0.39877,-0.0314 -0.59815,-0.04711c-0.19938,-0.01571 -0.39877,-0.0314 -0.5903,-0.1468c-0.39092,-0.1311 -0.77398,-0.36188 -1.05734,-0.58482l-0.46705,-0.43802c-0.19153,-0.1154 -0.27552,-0.32263 -0.36736,-0.43017c-0.28337,-0.22294 -0.35165,-0.62955 -0.52749,-0.94433c-0.25196,-0.62171 -0.39638,-1.33524 -0.24959,-1.92554c0.1468,-0.5903 0.47728,-0.96551 0.79206,-1.14134c0.31477,-0.17583 0.51416,-0.16013 0.51416,-0.16013c0,0 -0.20723,0.08398 -0.42232,0.26767c-0.21508,0.18368 -0.44588,0.56674 -0.48513,1.0652c0.06044,0.50631 0.22056,1.02047 0.47253,1.64217c0.17583,0.31477 0.35165,0.62955 0.53534,0.84463c0.08398,0.20723 0.17583,0.31477 0.26767,0.42232l0.37521,0.33048c0.29123,0.12325 0.57459,0.34619 0.86582,0.46942c0.19938,0.01571 0.29123,0.12325 0.49061,0.13895c0.19153,0.1154 0.29123,0.12325 0.49061,0.13895c0.68999,0.15465 1.29599,0.10206 1.8023,0.04164c0.61385,-0.15227 1.02047,-0.22056 1.32739,-0.29669c0.30692,-0.07614 0.51416,-0.16013 0.51416,-0.16013c0,0 -0.6374,0.45135 -1.76541,0.76375z" fill="#99918a" stroke-width="1"/><path d="M227.35361,156.29237c-0.19938,-0.01571 -0.49846,-0.03925 -0.88937,-0.17035c-0.19153,-0.1154 -0.39092,-0.1311 -0.58244,-0.2465c-0.19153,-0.1154 -0.38306,-0.23079 -0.57459,-0.34619c-0.19153,-0.1154 -0.37521,-0.33048 -0.5589,-0.54556c-0.18368,-0.21508 -0.26767,-0.42232 -0.45135,-0.6374c-0.08398,-0.20723 -0.16798,-0.41446 -0.24411,-0.7214c-0.08398,-0.20723 -0.16013,-0.51416 -0.14442,-0.71354c0.03925,-0.49846 0.07066,-0.89722 0.10206,-1.29599c0.0314,-0.39877 0.25434,-0.68213 0.27004,-0.88152c0.1154,-0.19153 0.12325,-0.29123 0.12325,-0.29123c0,0 -0.00785,0.09969 -0.02356,0.29907c-0.01571,0.19938 -0.03925,0.49846 0.02903,0.90507c-0.01571,0.19938 0.06829,0.40661 0.05258,0.606c-0.01571,0.19938 0.06829,0.40661 0.05258,0.606c-0.01571,0.19938 0.06829,0.40661 0.15227,0.61385c0.08398,0.20723 0.16798,0.41446 0.25196,0.62171c0.09184,0.10754 0.17583,0.31477 0.35951,0.52986c0.18368,0.21508 0.26767,0.42232 0.4592,0.53771c0.27552,0.32263 0.65859,0.55342 0.9498,0.67667c0.28337,0.22294 0.57459,0.34619 0.77398,0.36188c0.19153,0.1154 0.29123,0.12325 0.29123,0.12325c0,0 -0.09969,-0.00785 -0.39877,-0.0314z" fill="#99918a" stroke-width="1"/><path d="M218.90909,143.79076c0.21508,-0.18368 0.43017,-0.36736 0.55342,-0.65859c0.1154,-0.19153 0.12325,-0.29123 0.23864,-0.48275c0.00785,-0.09969 0.12325,-0.29123 0.13895,-0.49061c0.25434,-0.68213 0.30931,-1.37997 0.4561,-1.97027c0.04711,-0.59815 0.17821,-0.98907 0.17821,-0.98907c0,0 0.17583,0.31477 0.22842,0.92078c-0.02356,0.29907 0.05258,0.606 0.02117,1.00476c-0.01571,0.19938 -0.0314,0.39877 -0.04711,0.59815c-0.01571,0.19938 -0.0314,0.39877 -0.1468,0.5903c-0.1154,0.19153 -0.1311,0.39092 -0.2465,0.58244c-0.1154,0.19153 -0.22294,0.28337 -0.33833,0.4749c-0.10754,0.09184 -0.32263,0.27552 -0.43017,0.36736c-0.10754,0.09184 -0.31477,0.17583 -0.42232,0.26767c-0.30692,0.07614 -0.51416,0.16013 -0.71354,0.14442c-0.19938,-0.01571 -0.29907,-0.02356 -0.29907,-0.02356c0,0 0.40661,-0.06829 0.82894,-0.33596z" fill="#99918a" stroke-width="1"/><path d="M243.49503,153.85216c0.1468,-0.5903 0.31715,-1.47967 0.4875,-2.36904c0.1311,-0.39092 0.17035,-0.88937 0.20176,-1.28814c0.01571,-0.19938 0.0314,-0.39877 0.04711,-0.59815c-0.08398,-0.20723 -0.07614,-0.30692 -0.06044,-0.50631c-0.07614,-0.30692 -0.05258,-0.606 -0.13657,-0.81323c-0.08398,-0.20723 -0.07614,-0.30692 -0.07614,-0.30692c0,0 0.09184,0.10754 0.17583,0.31477c0.08398,0.20723 0.25982,0.52201 0.33596,0.82894c0.06829,0.40661 0.13657,0.81323 0.20486,1.21985c-0.03925,0.49846 -0.07066,0.89722 -0.10992,1.39568c-0.17821,0.98907 -0.44825,1.87058 -0.79443,2.44518c-0.34619,0.57459 -0.57697,0.95765 -0.57697,0.95765c0,0 0.13895,-0.49061 0.30145,-1.28028z" fill="#99918a" stroke-width="1"/></g><path d="M229.9867,97.33429c0.02004,-1.16123 0.92962,-2.04603 2.03159,-1.97623c1.10197,0.06979 1.97906,1.06771 1.95902,2.22894c-0.02004,1.16123 -0.92962,2.04603 -2.03159,1.97624c-1.10197,-0.06979 -1.97906,-1.06772 -1.95902,-2.22895z" fill="#d23d3d" stroke-width="1"/><path d="M244.49165,98.07904c0.023,-1.161 0.89778,-2.04854 1.9539,-1.98236c1.0561,0.06617 1.89363,1.06099 1.87063,2.22199c-0.023,1.161 -0.89778,2.04854 -1.95389,1.98235c-1.0561,-0.06617 -1.89363,-1.06098 -1.87063,-2.22198z" fill="#d23d3d" stroke-width="1"/><path d="M230.82339,95.67768c-1.79445,-0.14133 -2.78589,0.98431 -2.78589,0.98431c0.17035,-0.88937 1.22223,-1.5087 1.22223,-1.5087l-1.51893,0.1813c1.18534,-2.31408 4.44375,-1.65621 4.44375,-1.65621l-1.07305,-0.38544c2.05664,-0.64051 4.60936,0.06209 4.60936,0.06209l-0.85011,-0.66881c2.10922,-0.0345 3.29529,1.46325 2.71046,2.52059c-0.56912,0.85797 -4.8794,0.81943 -6.75783,0.47087z" fill="#c8bdb4" stroke-width="1"/><path d="M241.66072,95.6284c-0.51178,-1.14371 0.69475,-2.45302 2.8958,-2.37998l-0.85249,0.63503c0,0 2.54724,-0.50155 4.59365,0.26147l-1.12801,0.3124c0,0 3.24508,-0.44659 4.2608,1.94052l-1.58721,-0.22531c0,0 0.9498,0.67667 1.17822,1.59744c0,0 -0.9027,-1.27481 -2.72069,-1.11706c-1.81014,0.05806 -6.21227,-0.08802 -6.64006,-1.02449z" fill="#c8bdb4" stroke-width="1"/><path d="M233.73873,99.41811c-0.31477,0.17583 -0.82894,0.33596 -1.23555,0.40424c-0.40661,0.06829 -0.91292,0.12872 -1.21985,0.20486c-0.10754,0.09184 -0.30692,0.07614 -0.40661,0.06829c-0.09969,-0.00785 -0.19938,-0.01571 -0.19938,-0.01571c0,0 0.1154,-0.19153 0.43017,-0.36736c0.31477,-0.17583 0.73709,-0.4435 1.2434,-0.50393c0.50631,-0.06044 0.91292,-0.12872 1.31169,-0.09732c0.39877,0.0314 0.5903,0.1468 0.5903,0.1468c0,0 -0.21508,0.18368 -0.51416,0.16013z" fill="#666168" stroke-width="1"/><path d="M246.98981,100.56204c-0.29907,-0.02356 -0.79753,-0.06281 -1.18845,-0.19391c-0.39092,-0.1311 -0.78182,-0.26219 -1.07305,-0.38544c-0.29123,-0.12325 -0.48275,-0.23864 -0.48275,-0.23864c0,0 0.30692,-0.07614 0.61385,-0.15227c0.30692,-0.07614 0.80538,-0.03688 1.1963,0.09421c0.39092,0.1311 0.78182,0.26219 1.0652,0.48513c0.28337,0.22294 0.4749,0.33833 0.4749,0.33833c0,0 -0.20723,0.08398 -0.606,0.05258z" fill="#666168" stroke-width="1"/><g stroke-width="1"><path d="M244.61199,108.73827c0,0 1.43747,-0.58624 2.74336,0.96123c1.30589,1.54747 2.27262,1.22278 2.27262,1.22278c0,0 -0.95227,1.23011 -2.33027,0.6999c0,0 1.41772,1.63404 -0.01792,3.0265c0,0 -0.17681,-1.38879 -0.76121,-2.02004c0,0 0.6999,2.33027 -1.41934,3.10411c0,0 -0.07578,-0.5952 -0.18944,-1.48799c0,0 -0.01079,0.70702 -1.34907,1.28063l-0.36441,-2.07056c0.52492,1.7477 -1.27146,2.68205 -1.27146,2.68205c-0.7828,-0.60599 -0.51413,-2.45472 -0.51413,-2.45472c-0.45811,0.36074 -0.35341,2.76679 -0.35341,2.76679c-0.67097,-0.51942 -1.03538,-2.58998 -1.03538,-2.58998c0.58807,2.2437 -1.70431,3.24119 -1.70431,3.24119c0.43285,-0.55914 -0.97407,-2.9002 -0.97407,-2.9002c0.57544,2.1445 -0.51392,3.08964 -0.51392,3.08964c-0.95594,-0.38233 -0.97224,-2.09398 -0.97224,-2.09398l-0.81335,2.32131c-1.61428,-0.80255 -0.63859,-2.64049 -0.63859,-2.64049c-0.45811,0.36074 -0.96307,1.93714 -0.96307,1.93714c-0.26338,-1.27696 0.12975,-2.93993 0.12975,-2.93993c-0.30839,0.74491 -1.9461,0.55018 -1.9461,0.55018c0.496,-0.06315 1.34907,-1.28063 1.94243,-2.16263c2.26162,-3.61457 6.87714,-2.99249 6.87714,-2.99249" fill="#c8bdb4"/><path d="M248.70992,110.83754c-0.31023,-0.06131 -0.63308,-0.22182 -0.85674,-0.39496c-0.32286,-0.16051 -0.55914,-0.43285 -0.7828,-0.60599c-0.45994,-0.44548 -1.00646,-0.77913 -1.42851,-0.92701c-0.31023,-0.06131 -0.52125,-0.13525 -0.62045,-0.12262c-0.11183,-0.08657 -0.21103,-0.07394 -0.21103,-0.07394c0,0 0.27234,-0.23629 0.88016,-0.21286c0.2976,-0.03789 0.60783,0.02342 0.93068,0.18393c0.32286,0.16051 0.64571,0.32102 0.882,0.59336c0.23629,0.27234 0.47257,0.54468 0.69623,0.71782c0.22366,0.17314 0.44731,0.34628 0.67097,0.51942c0.22366,0.17314 0.43468,0.24708 0.54651,0.33365c0.11183,0.08657 0.21103,0.07394 0.21103,0.07394c0,0 -0.38417,0.14972 -0.91805,-0.08474z" fill="#99918a"/><path d="M246.97852,113.07411c0.05052,0.3968 0.11366,0.89279 -0.12079,1.42668c-0.06131,0.31023 -0.23445,0.53388 -0.42022,0.65834c-0.17314,0.22366 -0.35891,0.34811 -0.55731,0.37337c-0.18577,0.12446 -0.38417,0.14972 -0.48337,0.16235c-0.0992,0.01263 -0.1984,0.02526 -0.1984,0.02526c0,0 0,0 0.08657,-0.11183c0.08657,-0.11183 0.17314,-0.22366 0.25971,-0.33549c0.08657,-0.11183 0.25971,-0.33549 0.34628,-0.44731c0.17314,-0.22366 0.25971,-0.33549 0.33365,-0.54651c0.14788,-0.42206 0.19656,-0.83148 0.25788,-1.14171c0.06131,-0.31023 0.02342,-0.60783 0.02342,-0.60783c0,0 0.23629,0.27234 0.47257,0.54468z" fill="#99918a"/><path d="M236.21794,110.10935c-0.65651,0.386 -1.49878,0.89646 -2.1174,1.58006c-0.35891,0.34811 -0.61862,0.6836 -0.8657,1.11829c-0.25971,0.33549 -0.61862,0.6836 -0.89096,0.91989c-0.54468,0.47257 -1.01542,0.73412 -1.01542,0.73412c0,0 0.34628,-0.44731 0.77913,-1.00646c0.17314,-0.22366 0.42022,-0.65834 0.67993,-0.99383c0.07394,-0.21103 0.14788,-0.42206 0.32102,-0.64571c0.18577,-0.12446 0.35891,-0.34811 0.53205,-0.57177c0.81702,-0.70886 1.75849,-1.23195 2.44026,-1.41955c0.78097,-0.20023 1.27696,-0.26338 1.27696,-0.26338c0,0 -0.47074,0.26154 -1.13987,0.54835z" fill="#99918a"/><path d="M236.01975,115.67897c0.02526,0.1984 0.14972,0.38417 0.2868,0.66914c0.12446,0.18577 0.16235,0.48337 0.2868,0.66914c0.02526,0.1984 0.14972,0.38417 0.14972,0.38417c0,0 -0.1984,0.02526 -0.40943,-0.04868c-0.32286,-0.16051 -0.55914,-0.43285 -0.69623,-0.71782c-0.13709,-0.28497 -0.1876,-0.68177 -0.11366,-0.89279c0.06131,-0.31023 0.14788,-0.42206 0.14788,-0.42206c0,0 0.11183,0.08657 0.34811,0.35891z" fill="#99918a"/><path d="M241.47388,114.17814c0.12446,0.18577 0.16235,0.48337 0.20023,0.78097c0.03789,0.2976 0.07578,0.5952 0.10103,0.79359c0.01263,0.0992 0.02526,0.1984 0.03789,0.2976l0.01263,0.0992c0,0 -0.21103,-0.07394 -0.43468,-0.24708c-0.22366,-0.17314 -0.37337,-0.55731 -0.41126,-0.85491c-0.03789,-0.2976 0.01079,-0.70702 0.08474,-0.91805c0.06131,-0.31023 0.14788,-0.42206 0.14788,-0.42206c0,0 0.12446,0.18577 0.26154,0.47074z" fill="#99918a"/><path d="M237.6051,114.67068c0.22366,0.17314 0.47257,0.54468 0.62229,0.92885c0.14972,0.38417 0.20023,0.78097 0.13892,1.09119c-0.04868,0.40943 -0.24708,0.43468 -0.24708,0.43468c0,0 0,0 -0.01263,-0.0992c0,0 -0.12446,-0.18577 -0.13709,-0.28497c-0.13709,-0.28497 -0.27417,-0.56994 -0.42389,-0.95411c-0.13709,-0.28497 -0.2868,-0.66914 -0.32469,-0.96673c-0.03789,-0.2976 -0.06315,-0.496 -0.06315,-0.496c0,0 0.22366,0.17314 0.44731,0.34628z" fill="#99918a"/><path d="M240.27269,115.03672c0.11183,0.08657 0.24892,0.37154 0.37337,0.55731c0.13709,0.28497 0.16235,0.48337 0.1876,0.68177c0.01263,0.0992 0.01263,0.0992 0.02526,0.1984c0.01263,0.0992 0.01263,0.0992 0.01263,0.0992c0,0 -0.0992,0.01263 -0.32286,-0.16051c-0.22366,-0.17314 -0.34811,-0.35891 -0.4852,-0.64388c-0.12446,-0.18577 -0.06315,-0.496 -0.0884,-0.6944c-0.02526,-0.1984 0.06131,-0.31023 0.06131,-0.31023c0,0 0.11183,0.08657 0.23629,0.27234z" fill="#99918a"/><path d="M247.63319,111.88188c0.13709,0.28497 0.386,0.65651 0.44915,1.1525c0.03789,0.2976 -0.03605,0.50863 -0.10999,0.71965c-0.07394,0.21103 -0.24708,0.43468 -0.33365,0.54651c-0.27234,0.23629 -0.47074,0.26154 -0.47074,0.26154c0,0 0.17314,-0.22366 0.23445,-0.53388c0.07394,-0.21103 0.12262,-0.62045 0.08474,-0.91805c0.06131,-0.31023 -0.0884,-0.6944 -0.12629,-0.99199c-0.03789,-0.2976 -0.06315,-0.496 -0.06315,-0.496c0,0 0.21103,0.07394 0.33549,0.25971z" fill="#99918a"/><path d="M234.13863,117.53137c-0.11183,-0.08657 -0.32286,-0.16051 -0.44731,-0.34628c-0.01263,-0.0992 -0.12446,-0.18577 -0.13709,-0.28497c-0.01263,-0.0992 -0.02526,-0.1984 -0.03789,-0.2976c-0.06315,-0.496 0.08474,-0.91805 0.25788,-1.14171c0.16051,-0.32286 0.34628,-0.44731 0.34628,-0.44731c0,0 0.02526,0.1984 0.06315,0.496c-0.06131,0.31023 -0.01079,0.70702 0.02709,1.00462c0.03789,0.2976 0.17497,0.58257 0.29943,0.76834c0.22366,0.17314 0.34811,0.35891 0.34811,0.35891c0,0 -0.18577,0.12446 -0.71965,-0.10999z" fill="#99918a"/><path d="M237.85564,110.30408c-0.27234,0.23629 -0.54468,0.47257 -0.91622,0.72149c-0.37154,0.24892 -0.63125,0.5844 -0.90359,0.82069c-0.27234,0.23629 -0.44548,0.45994 -0.44548,0.45994c0,0 -0.03789,-0.2976 0.12262,-0.62045c-0.01263,-0.0992 0.06131,-0.31023 0.23445,-0.53388c0.17314,-0.22366 0.34628,-0.44731 0.53205,-0.57177c0.35891,-0.34811 0.84228,-0.51046 1.23907,-0.56098c0.3968,-0.05052 0.60783,0.02342 0.60783,0.02342c0,0 -0.18577,0.12446 -0.47074,0.26154z" fill="#99918a"/><path d="M239.17049,110.3383c-0.07394,0.21103 -0.25971,0.33549 -0.34628,0.44731c-0.18577,0.12446 -0.28497,0.13709 -0.47074,0.26154c-0.18577,0.12446 -0.28497,0.13709 -0.28497,0.13709c0,0 -0.01263,-0.0992 -0.03789,-0.2976c0.08657,-0.11183 0.14788,-0.42206 0.33365,-0.54651c0.17314,-0.22366 0.37154,-0.24892 0.56994,-0.27417c0.1984,-0.02526 0.31023,0.06131 0.31023,0.06131c0,0 -0.08657,0.11183 -0.07394,0.21103z" fill="#99918a"/><path d="M244.25308,109.08638c0.1984,-0.02526 0.52125,0.13525 0.84411,0.29576c0.32286,0.16051 0.47257,0.54468 0.59703,0.73045c0.02526,0.1984 0.05052,0.3968 0.05052,0.3968c0,0 -0.11183,-0.08657 -0.32286,-0.16051c-0.22366,-0.17314 -0.43468,-0.24708 -0.65834,-0.42022c-0.21103,-0.07394 -0.43468,-0.24708 -0.65834,-0.42022c-0.22366,-0.17314 -0.33549,-0.25971 -0.33549,-0.25971c0,0 0.1984,-0.02526 0.48337,-0.16235z" fill="#99918a"/></g><g stroke-width="1"><path d="M239.91649,97.39692c1.00476,-0.02117 4.04024,0.92006 3.37762,6.78614c0,0 3.10686,3.85583 -1.41066,3.90128c-4.51751,0.04545 -6.48541,-1.71448 -4.89583,-2.79301c0,0 -0.88296,-7.89369 2.92886,-7.89441z" fill="#847e87"/><path d="M242.25411,98.28319c0.28337,0.22294 0.46705,0.43802 0.65073,0.65311c0.17583,0.31477 0.25982,0.52201 0.43565,0.83679c0.18368,0.21508 0.25982,0.52201 0.33596,0.82894c0.15227,0.61385 0.20486,1.21985 0.25744,1.82585c-0.02356,0.29907 -0.04711,0.59815 -0.07066,0.89722l-0.17035,0.88937l-0.08398,-0.20723c0.4592,0.53771 0.81871,1.06757 1.06282,1.78897c0.07614,0.30692 0.14442,0.71354 0.01333,1.10446c-0.0314,0.39877 -0.35404,0.67428 -0.66881,0.85011c-0.62955,0.35165 -1.34309,0.49608 -2.04093,0.44112c-0.69784,-0.05496 -1.29599,-0.10206 -1.98597,-0.25672c0.69784,0.05496 1.40353,0.01023 2.00953,-0.04236c0.29907,0.02356 0.606,-0.05258 0.91292,-0.12872c0.30692,-0.07614 0.61385,-0.15227 0.82894,-0.33596c0.21508,-0.18368 0.43017,-0.36736 0.45373,-0.66644c0.1154,-0.19153 0.03925,-0.49846 -0.03688,-0.80538c-0.25982,-0.52201 -0.61147,-1.15157 -0.97884,-1.58174l-0.09184,-0.10754l0.00785,-0.09969l0.07066,-0.89722c0.02356,-0.29907 0.04711,-0.59815 0.07066,-0.89722c-0.05258,-0.606 -0.00548,-1.20415 -0.1656,-1.7183c-0.07614,-0.30692 -0.16013,-0.51416 -0.23626,-0.82109c-0.07614,-0.30692 -0.15227,-0.61385 -0.33596,-0.82894c-0.26767,-0.42232 -0.62717,-0.95218 -1.10208,-1.29051c0.19153,0.1154 0.4749,0.33833 0.85797,0.56912z" fill="#666168"/><path d="M241.00906,103.90279c0.40661,-0.06829 0.92078,-0.22842 1.41924,-0.18915c0.49061,0.13895 0.97336,0.37759 1.24888,0.70021c0.17583,0.31477 0.25982,0.52201 0.25982,0.52201c0,0 -0.09184,-0.10754 -0.19153,-0.1154c-0.09184,-0.10754 -0.19153,-0.1154 -0.38306,-0.23079c-0.09184,-0.10754 -0.28337,-0.22294 -0.48275,-0.23864c-0.19153,-0.1154 -0.39092,-0.1311 -0.5903,-0.1468c-0.39877,-0.0314 -0.80538,0.03688 -1.20415,0.00548c-0.29907,-0.02356 -0.59815,-0.04711 -0.59815,-0.04711c0,0 0.1154,-0.19153 0.52201,-0.25982z" fill="#666168"/></g><path d="M245.95695,90.75066c-0.39877,-0.0314 -0.89722,-0.07066 -1.60291,-0.02593c-0.70569,0.04473 -1.41138,0.08946 -2.22462,0.22603c-0.40661,0.06829 -0.81323,0.13657 -1.2277,0.30455c-0.41446,0.16798 -0.92078,0.22842 -1.42709,0.28884c-1.00476,0.02117 -1.88628,-0.24887 -2.67596,-0.41137c-0.88152,-0.27004 -1.57151,-0.42469 -2.26935,-0.47966c-0.68999,-0.15465 -1.18845,-0.19391 -1.58721,-0.22531c-0.39877,-0.0314 -0.59815,-0.04711 -0.59815,-0.04711c0,0 0.81323,-0.13657 2.21676,-0.12634c0.69784,0.05496 1.49537,0.11777 2.28505,0.28027c0.79753,0.06281 1.67905,0.33285 2.48443,0.29598c0.39877,0.0314 0.80538,-0.03688 1.21985,-0.20486c0.40661,-0.06829 0.92078,-0.22842 1.32739,-0.29669c0.81323,-0.13657 1.61076,-0.07376 2.3086,-0.0188c1.29599,0.10206 2.17751,0.37212 2.17751,0.37212c0,0 -0.20723,0.08398 -0.40661,0.06829z" fill="#666168" stroke-width="1"/><path d="M243.16797,89.22698c-0.40661,0.06829 -1.01261,0.12087 -1.62647,0.27315c-0.30692,0.07614 -0.61385,0.15227 -0.92078,0.22842c-0.30692,0.07614 -0.71354,0.14442 -1.02047,0.22056c-0.40661,0.06829 -0.71354,0.14442 -1.1123,0.11302c-0.29907,-0.02356 -0.68999,-0.15465 -0.98121,-0.2779c-0.29123,-0.12325 -0.58244,-0.2465 -0.87367,-0.36973c-0.29123,-0.12325 -0.58244,-0.2465 -0.78182,-0.26219c-0.49846,-0.03925 -0.88937,-0.17035 -1.18845,-0.19391c-0.29907,-0.02356 -0.49846,-0.03925 -0.49846,-0.03925c0,0 0.19938,0.01571 0.50631,-0.06044c0.29907,0.02356 0.70569,-0.04473 1.20415,-0.00548c0.50631,-0.06044 1.09661,0.08637 1.67905,0.33285c0.29123,0.12325 0.5903,0.1468 0.88937,0.17035c0.29907,0.02356 0.59815,0.04711 0.90507,-0.02903c0.30692,-0.07614 0.61385,-0.15227 0.92078,-0.22842c0.40661,-0.06829 0.71354,-0.14442 1.02047,-0.22056c0.61385,-0.15227 1.21985,-0.20486 1.7183,-0.1656c1.00476,-0.02117 1.69476,0.13347 1.69476,0.13347c0,0 -0.70569,0.04473 -1.53463,0.38069z" fill="#666168" stroke-width="1"/><g stroke-width="1"><g><path d="M218.28678,85.46185c-1.04546,-7.10402 3.17484,-25.02799 4.65378,-28.52267c1.48679,-3.59436 1.71448,-6.48541 1.00022,-10.15281c-1.14754,-5.80803 1.14155,-11.94725 1.14155,-11.94725c0.59887,3.85894 7.40763,9.10972 9.71148,11.6986c2.30385,2.58887 4.98435,13.13188 6.19945,15.53469c1.2151,2.40282 5.04573,4.7107 6.72787,7.55154c1.67429,2.94053 8.14617,16.28987 8.14617,16.28987c-19.87618,-6.17962 -37.58053,-0.45198 -37.58053,-0.45198z" fill="#3f3f74"/><path d="M217.66745,84.40997c0,0 0.00237,-1.30384 0.15155,-3.19798c0.04948,-1.90199 0.24577,-4.39427 0.64928,-6.97054c0.19391,-1.18845 0.39567,-2.47658 0.58958,-3.66502c0.28575,-1.0809 0.47966,-2.26935 0.7497,-3.15086c0.2779,-0.98121 0.4404,-1.77089 0.67904,-2.25364c0.1468,-0.5903 0.27004,-0.88152 0.27004,-0.88152c0,0 -0.02356,0.29907 -0.17035,0.88937c-0.1468,0.5903 -0.30931,1.37997 -0.47966,2.26935c-0.24887,1.88628 -0.65239,4.46255 -0.94836,6.94698c-0.29598,2.48443 -0.50011,5.07641 -0.64928,6.97054c-0.04948,1.90199 -0.15155,3.19798 -0.15155,3.19798z" fill="#1a324a"/><path d="M243.55693,65.1833c-0.56674,-0.44588 -1.31716,-1.10684 -2.06758,-1.76779c-0.74257,-0.76065 -1.3933,-1.41376 -1.84465,-2.05116c-0.45135,-0.6374 -0.71901,-1.05973 -0.71901,-1.05973c0,0 0.37521,0.33048 0.94195,0.77636c0.5589,0.54556 1.20962,1.19867 1.96004,1.85963c0.65073,0.65311 1.3933,1.41376 1.8525,1.95147c0.5589,0.54556 0.82656,0.96788 0.82656,0.96788c0,0 -0.48275,-0.23864 -0.9498,-0.67667z" fill="#1a324a"/><path d="M224.57178,54.05837c-0.25434,0.68213 -0.63193,1.65549 -1.00167,2.52916c-0.37759,0.97336 -0.84702,1.83918 -1.10136,2.52131c-0.1311,0.39092 -0.35404,0.67428 -0.36973,0.87367c-0.1154,0.19153 -0.12325,0.29123 -0.12325,0.29123c0,0 -0.06044,-0.50631 0.10206,-1.29599c0.06281,-0.79753 0.43254,-1.6712 0.81013,-2.64456c0.36973,-0.87367 0.83917,-1.73949 1.29289,-2.40592c0.45373,-0.66644 0.78421,-1.04165 0.78421,-1.04165c0,0 -0.13895,0.49061 -0.39329,1.17274z" fill="#1a324a"/></g><g><path d="M277.61167,93.84554c-5.39429,-2.83227 -32.61073,-8.78751 -49.35577,-7.59856c-16.74504,1.18896 -29.63828,5.69056 -36.33805,7.97157c0,0 30.46887,-11.14218 32.64875,-12.0739c2.17203,-0.83203 8.62221,-5.03859 27.19455,1.13866c18.57234,6.17725 25.85052,10.56222 25.85052,10.56222z" fill="#3f3f74"/><path d="M230.85501,82.5396c-0.606,0.05258 -1.41924,0.18915 -2.43185,0.31003c-1.93339,0.34928 -4.58032,0.84299 -7.23511,1.43638c-1.32739,0.29669 -2.56295,0.70094 -3.79065,1.00549c-0.62171,0.25196 -1.23555,0.40424 -1.74972,0.56436c-0.51416,0.16013 -1.02832,0.32025 -1.54248,0.48038c-0.51416,0.16013 -0.92078,0.22842 -1.33524,0.39638c-0.40661,0.06829 -0.7214,0.24411 -1.02832,0.32025c-0.62171,0.25196 -0.92863,0.32811 -0.92863,0.32811c0,0 0.31477,-0.17583 0.83679,-0.43565c0.62171,-0.25196 1.3588,-0.69546 2.28743,-1.02357c1.03617,-0.41994 2.07234,-0.83989 3.30789,-1.24412c1.13586,-0.41209 2.4711,-0.80848 3.7985,-1.10518c0.61385,-0.15227 1.32739,-0.29669 1.94124,-0.44897c0.61385,-0.15227 1.32739,-0.29669 1.93339,-0.34928c1.21985,-0.20486 2.42399,-0.21034 3.43661,-0.3312c2.01738,-0.14205 3.41306,-0.03213 3.41306,-0.03213c0,0 -0.29907,-0.02356 -0.91292,0.12872z" fill="#1a324a"/><path d="M257.12641,85.21051c-0.78182,-0.26219 -1.76304,-0.54009 -2.74425,-0.81798c-0.98121,-0.2779 -2.06212,-0.56364 -3.15086,-0.7497c-1.0809,-0.28575 -2.16966,-0.47181 -3.15871,-0.65001c-0.98907,-0.17821 -1.97812,-0.35641 -2.77566,-0.41922c-0.78968,-0.1625 -1.48751,-0.21746 -1.98597,-0.25672c-0.49846,-0.03925 -0.79753,-0.06281 -0.79753,-0.06281c0,0 0.29907,0.02356 0.80538,-0.03688c0.50631,-0.06044 1.212,-0.10517 2.00953,-0.04236c0.39877,0.0314 0.79753,0.06281 1.29599,0.10206c0.49846,0.03925 0.99692,0.07852 1.49537,0.11777c1.08876,0.18606 2.17751,0.37212 3.26625,0.55817c1.0809,0.28575 2.16181,0.5715 3.14302,0.84939c0.97336,0.37759 1.85488,0.64763 2.62885,1.00952c1.5558,0.62408 2.51346,1.20105 2.51346,1.20105c0,0 -0.97336,-0.37759 -2.54487,-0.80229z" fill="#1a324a"/></g></g></g></g></svg>