<svg version="1.1" xmlns="http://www.w3.org/2000/svg" xmlns:xlink="http://www.w3.org/1999/xlink" width="552.24999" height="373" viewBox="0,0,552.24999,373"><g transform="translate(64.55554,7.56598)"><g data-paper-data="{&quot;isPaintingLayer&quot;:true}" fill-rule="nonzero" stroke-linejoin="miter" stroke-miterlimit="10" stroke-dasharray="" stroke-dashoffset="0" style="mix-blend-mode: normal"><path d="M-9.30555,365.43402v-373h497v373z" fill="#c96fd0" stroke="none" stroke-width="0" stroke-linecap="butt"/><text transform="translate(37.18751,52.5) scale(0.625,0.625)" font-size="40" xml:space="preserve" fill="#ffffff" fill-rule="nonzero" stroke="none" stroke-width="1" stroke-linecap="butt" stroke-linejoin="miter" stroke-miterlimit="10" stroke-dasharray="" stroke-dashoffset="0" font-family="Sans Serif" font-weight="normal" text-anchor="start" style="mix-blend-mode: normal"><tspan x="0" dy="0">Congratulation you just made the </tspan></text><text transform="translate(-64.30554,91.43402) scale(0.5,0.5)" font-size="40" xml:space="preserve" fill="#ffffff" fill-rule="nonzero" stroke="none" stroke-width="1" stroke-linecap="butt" stroke-linejoin="miter" stroke-miterlimit="10" stroke-dasharray="" stroke-dashoffset="0" font-family="Sans Serif" font-weight="normal" text-anchor="start" style="mix-blend-mode: normal"><tspan x="0" dy="0"> </tspan></text><text transform="translate(96.14566,104.50632) scale(1.20886,1.20886)" font-size="40" xml:space="preserve" fill="#ffffff" fill-rule="nonzero" stroke="none" stroke-width="1" stroke-linecap="butt" stroke-linejoin="miter" stroke-miterlimit="10" stroke-dasharray="" stroke-dashoffset="0" font-family="Sans Serif" font-weight="normal" text-anchor="start" style="mix-blend-mode: normal"><tspan x="0" dy="0">Small Potion</tspan></text><text transform="translate(6.38885,284.36804) scale(0.5,0.5)" font-size="40" xml:space="preserve" fill="#ffffff" fill-rule="nonzero" stroke="none" stroke-width="1" stroke-linecap="butt" stroke-linejoin="miter" stroke-miterlimit="10" stroke-dasharray="" stroke-dashoffset="0" font-family="Sans Serif" font-weight="normal" text-anchor="start" style="mix-blend-mode: normal"><tspan x="0" dy="0">This potion can make</tspan><tspan x="0" dy="46.15px">your body smaller</tspan></text><path d="M77.32916,149.40485c0,0 -8.9698,-5.48155 -1.49497,-12.95638c7.47484,-7.47484 59.05121,-7.724 40.11495,14.20219c0,0 14.45135,40.36412 14.94967,62.2903c0.24916,12.45806 -23.42115,15.94632 -41.36076,14.94967c-21.92619,-1.24581 -25.91277,-7.47484 -25.41444,-15.448c0.49832,-7.97316 7.97316,-57.8054 13.20554,-63.03779z" fill="#cae8de" stroke="none" stroke-width="1" stroke-linecap="butt"/><path d="M70.85098,216.92754c-4.73406,-5.23239 2.49161,-51.32721 10.21561,-60.79534c6.47819,-7.97316 26.16193,-5.48155 31.14515,0.49832c3.98658,4.73406 16.19548,44.84902 12.70722,57.8054c-2.74077,10.71393 -45.5965,11.95974 -54.06798,2.49161z" fill="#e33dbf" stroke="none" stroke-width="1" stroke-linecap="butt"/><path d="M111.96258,156.63052c0,5.23239 -33.3876,2.74077 -30.89599,-0.49832c7.22568,-8.9698 30.89599,-3.48826 30.89599,0.49832z" fill="#fe44d6" stroke="none" stroke-width="1" stroke-linecap="butt"/><path d="M125.16813,214.68509c-2.98993,10.46477 -45.5965,11.71058 -54.06798,2.49161l-0.24916,-0.24916c-0.74748,-1.24581 -0.99664,-4.98322 24.66696,-6.72735c29.89935,-1.99329 29.40102,4.4849 29.65018,4.4849z" fill="#d539b3" stroke="none" stroke-width="1" stroke-linecap="butt"/><path d="M114.95252,139.18924c0,2.49161 -7.22568,4.98322 -18.43793,4.98322c-11.21225,0 -19.18541,-0.99664 -19.18541,-3.48826c0,-2.49161 8.22232,-5.73071 19.18541,-5.73071c10.96309,0 18.43793,1.74413 18.43793,4.23574z" fill="#b6cfd1" stroke="none" stroke-width="1" stroke-linecap="butt"/><path d="M114.95252,139.18924c0,0 0,0.24916 0,0.49832c0,0.24916 -0.24916,0.74748 -0.74748,0.99664c-0.49832,0.24916 -0.99664,0.74748 -1.74413,0.99664c-0.74748,0.24916 -1.49497,0.49832 -2.49161,0.74748c-1.74413,0.49832 -3.98658,0.74748 -6.22903,0.99664c-2.49161,0.24916 -4.98322,0.49832 -7.47484,0.49832c-2.49161,0 -4.98322,0 -7.22568,-0.24916c-2.24245,0 -4.4849,-0.49832 -6.47819,-0.74748c-1.74413,-0.24916 -3.48826,-0.74748 -4.4849,-1.24581c-0.49832,-0.24916 -0.74748,-0.49832 -0.99664,-0.74748c-0.24916,-0.24916 0,-0.49832 0,-0.49832c0,0 0,0.24916 0,0.49832c0.24916,0.24916 0.49832,0.49832 0.99664,0.74748c0.99664,0.49832 2.49161,0.74748 4.23574,0.74748c1.74413,0.24916 3.98658,0.24916 6.22903,0.24916c2.24245,0 4.73406,0 7.22568,0c2.49161,0 4.98322,0 7.22568,-0.24916c2.24245,-0.24916 4.4849,-0.24916 6.22903,-0.74748c1.74413,-0.24916 3.2391,-0.74748 4.23574,-1.24581c0.49832,-0.24916 0.74748,-0.49832 0.74748,-0.74748c0.74748,-0.24916 0.74748,-0.49832 0.74748,-0.49832z" fill="#96b7c4" stroke="none" stroke-width="1" stroke-linecap="butt"/><path d="M77.32916,149.40485c0,0 0.99664,0.24916 2.24245,0.74748c1.24581,0.24916 3.2391,0.74748 4.98322,0.99664c0.99664,0.24916 1.74413,0.24916 2.74077,0.49832c0.74748,0.24916 1.74413,0.24916 2.24245,0.49832c1.49497,0.24916 2.24245,0.49832 2.24245,0.49832c0,0 -0.99664,0.24916 -2.24245,0.24916c-1.49497,0 -3.2391,0 -5.23239,-0.24916c-1.99329,-0.24916 -3.73742,-0.99664 -4.98322,-1.74413c-1.24581,-0.74748 -1.99329,-1.49497 -1.99329,-1.49497z" fill="#96b7c4" stroke="none" stroke-width="1" stroke-linecap="butt"/><path d="M120.18491,141.93001c0,0 0,0.24916 0,0.99664c0,0.49832 -0.24916,1.49497 -0.74748,2.49161c-0.49832,0.99664 -0.99664,2.24245 -1.99329,3.2391c-0.49832,0.49832 -0.99664,0.99664 -1.49497,1.49497c-0.49832,0.49832 -1.24581,0.99664 -1.74413,1.24581c-0.74748,0.49832 -1.24581,0.74748 -1.99329,0.99664c-0.74748,0.24916 -1.49497,0.49832 -1.99329,0.49832c-0.74748,0 -1.24581,0.24916 -1.99329,0.24916c-0.74748,0 -1.24581,0 -1.74413,0c-0.99664,0 -1.99329,-0.24916 -2.49161,-0.24916c-0.49832,0 -0.99664,-0.24916 -0.99664,-0.24916c0,0 0.24916,0 0.99664,0c0.74748,0 1.49497,0 2.49161,-0.24916c0.49832,0 0.99664,0 1.74413,-0.24916c0.49832,-0.24916 1.24581,-0.24916 1.74413,-0.49832c0.49832,-0.24916 1.24581,-0.49832 1.99329,-0.74748c0.49832,-0.24916 1.24581,-0.49832 1.74413,-0.99664c0.49832,-0.49832 1.24581,-0.74748 1.74413,-1.24581c0.49832,-0.49832 0.99664,-0.99664 1.49497,-1.24581c0.74748,-0.99664 1.49497,-1.99329 1.99329,-2.98993c0.99664,-1.24581 1.24581,-2.49161 1.24581,-2.49161z" fill="#96b7c4" stroke="none" stroke-width="1" stroke-linecap="butt"/><path d="M76.08337,140.43504c0,0 -0.24916,0.24916 -0.24916,0.99664c0,0.24916 0,0.74748 0.24916,0.99664c0.24916,0.24916 0.74748,0.74748 0.99664,0.99664c0.49832,0.24916 0.99664,0.49832 1.74413,0.74748c0.49832,0.24916 1.24581,0.24916 1.99329,0.49832c1.49497,0.24916 2.98993,0.49832 4.4849,0.74748c0.74748,0.24916 1.49497,0.24916 2.24245,0.24916c0.74748,0 1.49497,0.24916 2.24245,0.24916c1.49497,0 2.74077,0.24916 3.98658,0.24916c2.24245,0.24916 3.98658,0.24916 3.98658,0.24916c0,0 -1.49497,0.24916 -3.98658,0.49832c-1.24581,0 -2.49161,0 -3.98658,0c-0.74748,0 -1.49497,0 -2.24245,0c-0.74748,0 -1.49497,0 -2.49161,-0.24916c-1.49497,-0.24916 -3.2391,-0.49832 -4.73406,-0.99664c-0.74748,-0.24916 -1.49497,-0.49832 -1.99329,-0.74748c-0.74748,-0.24916 -1.24581,-0.74748 -1.74413,-0.99664c-0.49832,-0.49832 -0.74748,-0.99664 -0.99664,-1.24581c-0.24916,-0.49832 -0.24916,-0.99664 -0.24916,-1.24581c0.49832,-0.74748 0.74748,-0.99664 0.74748,-0.99664z" fill="#ffffff" stroke="none" stroke-width="1" stroke-linecap="butt"/><path d="M108.97266,200.73206c0,0 0.24916,0 0.74748,0c0.49832,0 1.24581,0.24916 1.74413,0.74748c0.24916,0.24916 0.49832,0.74748 0.49832,1.24581v0.49832v0.24916c0,0.24916 -0.24916,0.49832 -0.24916,0.74748c-0.49832,0.99664 -1.49497,1.49497 -2.49161,1.74413c-0.49832,0 -1.24581,0 -1.74413,-0.24916c-0.49832,-0.24916 -0.99664,-0.74748 -1.24581,-1.24581c-0.24916,-0.49832 -0.49832,-0.99664 -0.24916,-1.49497c0,-0.49832 0.24916,-0.99664 0.49832,-1.24581c0.49832,-0.74748 1.24581,-0.74748 1.74413,-0.99664c0.49832,0 0.74748,0 0.74748,0zM108.97266,200.73206c0,0 -0.24916,0 -0.49832,0.24916c-0.24916,0.24916 -0.74748,0.74748 -0.99664,1.24581c0,0.24916 -0.24916,0.49832 -0.24916,0.74748c0,0.24916 0,0.74748 0.24916,0.99664c0,0.24916 0.24916,0.49832 0.74748,0.74748c0.24916,0.24916 0.74748,0.49832 0.99664,0.49832c0.49832,0 0.99664,0 1.24581,-0.24916c0.24916,-0.24916 0.49832,-0.74748 0.74748,-0.99664c0,-0.24916 0,-0.74748 0,-0.99664c0,-0.24916 -0.24916,-0.49832 -0.24916,-0.74748c-0.24916,-0.49832 -0.74748,-0.99664 -0.99664,-1.24581c-0.74748,-0.24916 -1.24581,-0.24916 -0.99664,-0.24916z" fill="#d9ffb3" stroke="none" stroke-width="1" stroke-linecap="butt"/><path d="M115.45085,195.25051c0,0 0,0.49832 -0.49832,1.24581c-0.24916,0.24916 -0.24916,0.24916 -0.49832,0.24916c-0.24916,0 -0.49832,0 -0.74748,0c-0.74748,-0.24916 -1.24581,-0.74748 -1.24581,-1.49497c0,-0.24916 0,-0.74748 0.24916,-0.99664c0.24916,-0.24916 0.49832,-0.49832 0.74748,-0.49832c0.49832,-0.24916 1.24581,0 1.49497,0.49832c0.74748,0.49832 0.49832,0.99664 0.49832,0.99664zM115.45085,195.25051v0c0,-0.49832 -0.24916,-0.74748 -0.49832,-0.74748c-0.24916,0 -0.74748,0 -0.99664,0.24916l-0.24916,0.24916c0,0.24916 0,0.24916 0,0.49832c0,0.24916 0,0.49832 0.24916,0.74748c0,0 0.24916,0.24916 0.49832,0.24916c0.24916,0 0.24916,0 0.49832,0c0.74748,-0.49832 0.49832,-1.24581 0.49832,-1.24581z" fill="#d9ffb3" stroke="none" stroke-width="1" stroke-linecap="butt"/><path d="M88.7906,210.69851c0,0 0,0.49832 -0.24916,1.49497c-0.24916,0.99664 -0.74748,2.49161 -2.24245,3.73742c-0.74748,0.49832 -1.74413,0.99664 -2.74077,0.99664c-0.24916,0 -0.49832,0 -0.74748,0c-0.24916,0 -0.49832,0 -0.74748,0c-0.49832,0 -0.99664,-0.24916 -1.49497,-0.49832c-1.99329,-0.99664 -3.48826,-3.2391 -3.73742,-5.48155c0,-1.24581 0.24916,-2.49161 0.74748,-3.48826c0.74748,-0.99664 1.49497,-1.74413 2.74077,-2.49161c0.99664,-0.49832 2.24245,-0.74748 3.2391,-0.49832c1.24581,0.24916 1.99329,0.49832 2.74077,1.24581c1.49497,1.24581 1.99329,2.74077 2.24245,3.73742c0.24916,0.49832 0.24916,1.24581 0.24916,1.24581zM88.7906,210.69851c0,0 0,-0.24916 0,-0.49832c0,-0.24916 0,-0.74748 -0.24916,-0.99664c-0.24916,-0.99664 -1.24581,-2.24245 -2.49161,-2.74077c-0.74748,-0.24916 -1.49497,-0.74748 -2.24245,-0.74748c-0.99664,0 -1.74413,0 -2.74077,0.49832c-1.74413,0.74748 -3.2391,2.49161 -3.2391,4.73406c0,0.99664 0.24916,2.24245 0.74748,2.98993c0.49832,0.99664 1.49497,1.49497 2.49161,1.99329c0.99664,0.24916 1.99329,0.24916 2.74077,0.24916c0.99664,-0.24916 1.74413,-0.49832 2.24245,-0.74748c1.49497,-0.74748 2.24245,-1.99329 2.49161,-2.98993c0.24916,-0.49832 0.24916,-0.74748 0.24916,-0.99664c0,-0.74748 0,-0.74748 0,-0.74748z" fill="#d9ffb3" stroke="none" stroke-width="1" stroke-linecap="butt"/><path d="M88.54143,182.79245c0,0 -0.24916,0.24916 -0.74748,0.24916c-0.49832,0.24916 -1.24581,0.49832 -2.24245,0.24916c-0.49832,-0.24916 -0.99664,-0.49832 -1.24581,-0.99664c0,-0.24916 -0.24916,-0.24916 -0.24916,-0.49832c0,0 0,-0.24916 0,-0.49832c0,-0.24916 0,-0.49832 0,-0.99664c0,-1.24581 0.49832,-2.24245 1.49497,-3.2391c0.49832,-0.49832 1.24581,-0.74748 1.74413,-0.74748c0.74748,0 1.24581,0.24916 1.74413,0.49832c0.49832,0.24916 0.99664,0.99664 1.24581,1.49497c0.24916,0.49832 0.24916,1.24581 0.24916,1.74413c-0.24916,0.99664 -0.74748,1.49497 -1.24581,1.99329c-0.49832,0.49832 -0.74748,0.74748 -0.74748,0.74748zM88.54143,182.54329c0,0 0.24916,0 0.49832,-0.49832c0.24916,-0.24916 0.49832,-0.99664 0.49832,-1.74413c0,-0.24916 -0.24916,-0.74748 -0.24916,-0.99664c-0.24916,-0.49832 -0.49832,-0.74748 -0.74748,-0.99664c-0.24916,-0.24916 -0.74748,-0.49832 -1.24581,-0.49832c-0.49832,0 -0.99664,0 -1.49497,0.24916c-0.49832,0.24916 -0.99664,0.49832 -1.24581,0.99664c-0.24916,0.49832 -0.24916,0.99664 0,1.49497c0,0.49832 0.49832,0.74748 0.74748,0.99664c0.24916,0.24916 0.49832,0.49832 0.74748,0.74748c0.49832,0.49832 1.24581,0.49832 1.74413,0.49832c0.49832,0 0.74748,-0.24916 0.74748,-0.24916z" fill="#d9ffb3" stroke="none" stroke-width="1" stroke-linecap="butt"/><path d="M84.3057,173.07516c0,0 0,0.74748 -0.74748,1.49497c-0.24916,0.24916 -0.49832,0.24916 -0.74748,0.49832c-0.24916,0 -0.74748,0 -0.99664,0c-0.74748,-0.24916 -1.49497,-0.99664 -1.49497,-1.99329c0,-0.24916 0.24916,-0.99664 0.49832,-1.24581c0.24916,-0.24916 0.74748,-0.49832 0.99664,-0.74748c0.74748,-0.24916 1.49497,0 1.74413,0.49832c0.74748,0.74748 0.74748,1.49497 0.74748,1.49497zM84.3057,173.07516c0,0 0,-0.24916 0,-0.49832c0,-0.24916 -0.24916,-0.74748 -0.74748,-0.74748c-0.49832,-0.24916 -0.99664,-0.24916 -1.24581,0.24916c-0.24916,0.24916 -0.24916,0.24916 -0.49832,0.49832c0,0.24916 -0.24916,0.24916 -0.24916,0.49832c0,0.24916 0,0.49832 0.24916,0.49832c0,0.24916 0.24916,0.24916 0.49832,0.49832c0.24916,0.24916 0.49832,0.24916 0.74748,0.24916c0.24916,0 0.49832,0 0.74748,0c0.49832,-0.24916 0.74748,-0.49832 0.74748,-0.74748c-0.24916,-0.24916 -0.24916,-0.49832 -0.24916,-0.49832z" fill="#d9ffb3" stroke="none" stroke-width="1" stroke-linecap="butt"/><path d="M83.30905,158.87297c0,0 -0.24916,0.74748 -0.49832,1.99329c-0.24916,1.24581 -0.49832,3.2391 -0.99664,5.48155c-0.24916,2.24245 -0.74748,4.98322 -0.99664,7.97316c-0.24916,2.98993 -0.74748,5.97987 -1.24581,9.21896c-0.74748,6.22903 -1.49497,12.45806 -2.49161,16.94296c-0.24916,2.24245 -0.74748,4.23574 -0.99664,5.73071c-0.24916,1.24581 -0.49832,2.24245 -0.49832,2.24245c0,0 0,-0.74748 0,-2.24245c0,-1.49497 0,-3.2391 0,-5.73071c0,-2.24245 0.24916,-4.98322 0.49832,-7.97316c0.24916,-2.98993 0.49832,-5.97987 0.99664,-9.21896c0.49832,-3.2391 0.99664,-6.22903 1.49497,-9.21896c0.49832,-2.98993 1.24581,-5.48155 1.74413,-7.97316c0.74748,-2.24245 1.24581,-4.23574 1.74413,-5.48155c0.74748,-0.99664 1.24581,-1.74413 1.24581,-1.74413z" fill="#ffffff" stroke="none" stroke-width="1" stroke-linecap="butt"/><path d="M94.27214,227.89063c0,0 1.49497,0 4.23574,-0.24916c2.74077,-0.24916 6.47819,-0.49832 10.96309,-1.24581c4.4849,-0.74748 9.96645,-1.99329 14.70051,-4.73406c2.49161,-1.49497 4.73406,-3.48826 5.48155,-6.22903c0.49832,-1.24581 0.24916,-2.74077 0.24916,-4.23574c0,-1.49497 -0.24916,-2.98993 -0.49832,-4.4849c-0.74748,-5.97987 -1.99329,-12.2089 -3.2391,-17.69045c-1.24581,-5.73071 -2.49161,-10.96309 -3.73742,-15.448c-2.24245,-8.9698 -3.98658,-14.94967 -3.98658,-14.94967c0,0 0.49832,1.49497 1.24581,3.98658c0.74748,2.49161 1.99329,6.22903 3.2391,10.71393c1.24581,4.4849 2.74077,9.71729 3.98658,15.19883c0.74748,2.74077 1.24581,5.73071 1.74413,8.72064c0.49832,2.98993 0.99664,5.97987 1.49497,9.21896c0.24916,1.49497 0.24916,2.98993 0.49832,4.73406c0,1.49497 0.24916,3.2391 -0.24916,4.73406c-0.99664,3.2391 -3.48826,5.48155 -5.97987,6.97651c-2.49161,1.49497 -5.23239,2.49161 -7.724,2.98993c-2.49161,0.74748 -4.98322,1.24581 -7.22568,1.49497c-4.4849,0.74748 -8.47148,0.74748 -11.21225,0.99664c-2.49161,-0.49832 -3.98658,-0.49832 -3.98658,-0.49832z" fill="#96b7c4" stroke="none" stroke-width="1" stroke-linecap="butt"/><path d="M97.01292,223.15657c0,0 4.73406,-0.24916 11.46142,-1.49497c3.48826,-0.74748 7.47484,-1.49497 11.21225,-3.48826c1.74413,-0.99664 3.73742,-2.24245 4.23574,-4.23574c0.49832,-2.24245 0.24916,-4.4849 0.24916,-6.72735c0,-4.73406 -0.74748,-9.21896 -1.49497,-13.45471c-0.74748,-4.23574 -1.49497,-8.22232 -2.24245,-11.71058c-0.74748,-3.48826 -1.49497,-6.22903 -1.99329,-8.22232c-0.49832,-1.99329 -0.99664,-2.98993 -0.99664,-2.98993c0,0 0.49832,0.99664 0.99664,2.98993c0.74748,1.99329 1.49497,4.73406 2.49161,8.22232c0.99664,3.48826 1.99329,7.47484 2.74077,11.71058c0.74748,4.23574 1.49497,8.9698 1.49497,13.70387c0,2.24245 0,4.73406 -0.49832,6.97651c-0.74748,2.74077 -2.98993,3.98658 -4.98322,4.98322c-1.99329,0.99664 -3.98658,1.49497 -5.97987,1.99329c-1.99329,0.49832 -3.73742,0.74748 -5.48155,0.99664c-3.48826,0.49832 -6.47819,0.74748 -8.47148,0.74748c-1.74413,0 -2.74077,0 -2.74077,0z" fill="#67ba38" stroke="none" stroke-width="1" stroke-linecap="butt"/><path d="M124.91897,214.68509c0,0 0,-0.24916 -0.24916,-0.49832c-0.24916,-0.24916 -0.49832,-0.49832 -0.99664,-0.74748c-0.49832,-0.24916 -1.24581,-0.49832 -1.99329,-0.74748c-0.74748,-0.24916 -1.74413,-0.49832 -2.49161,-0.74748c-1.99329,-0.24916 -4.23574,-0.49832 -6.72735,-0.74748c-2.49161,-0.24916 -5.23239,-0.24916 -7.724,-0.24916c-2.74077,0 -5.23239,0 -7.724,0c-2.49161,0.24916 -4.73406,0.24916 -6.72735,0.24916c-3.98658,0.24916 -6.72735,0.24916 -6.72735,0.24916c0,0 2.74077,-0.49832 6.72735,-0.99664c1.99329,-0.24916 4.23574,-0.49832 6.72735,-0.74748c2.49161,0 5.23239,-0.24916 7.97316,-0.24916c2.74077,0 5.48155,0 7.97316,0.24916c2.49161,0.24916 4.73406,0.74748 6.72735,1.24581c0.99664,0.24916 1.99329,0.49832 2.74077,0.99664c0.74748,0.24916 1.49497,0.74748 1.74413,0.99664c0.49832,0.24916 0.74748,0.74748 0.99664,0.99664c-0.24916,0.49832 -0.24916,0.74748 -0.24916,0.74748z" fill="#67ba38" stroke="none" stroke-width="1" stroke-linecap="butt"/><path d="M116.69664,213.19012c0,0 -0.24916,0.24916 -0.74748,0.49832c-0.49832,0.24916 -1.49497,0.74748 -2.74077,0.49832c-0.49832,0 -1.24581,-0.49832 -1.74413,-0.99664c-0.24916,-0.24916 -0.24916,-0.24916 -0.24916,-0.49832c0,-0.24916 -0.24916,-0.24916 -0.24916,-0.49832c-0.24916,-0.24916 -0.24916,-0.74748 -0.24916,-0.99664c-0.24916,-1.49497 0.24916,-2.98993 1.24581,-4.23574c0.49832,-0.49832 1.24581,-0.99664 2.24245,-1.24581c0.74748,-0.24916 1.74413,0 2.49161,0.24916c0.74748,0.24916 1.24581,0.99664 1.74413,1.49497c0.49832,0.74748 0.49832,1.24581 0.49832,1.99329c0,1.24581 -0.74748,2.24245 -0.99664,2.74077c-0.99664,0.74748 -1.24581,0.99664 -1.24581,0.99664zM116.69664,212.94096c0,0 0.24916,-0.24916 0.49832,-0.74748c0.24916,-0.49832 0.49832,-1.49497 0.24916,-2.49161c-0.24916,-0.49832 -0.24916,-0.99664 -0.49832,-1.24581c-0.24916,-0.49832 -0.74748,-0.74748 -1.24581,-0.99664c-0.99664,-0.49832 -2.24245,-0.49832 -3.48826,0.24916c-0.49832,0.24916 -0.99664,0.99664 -1.24581,1.49497c-0.24916,0.74748 -0.24916,1.24581 0.24916,1.99329c0.24916,0.49832 0.74748,0.99664 0.99664,1.24581c0.49832,0.24916 0.74748,0.49832 1.24581,0.74748c0.74748,0.49832 1.74413,0.49832 2.49161,0.24916c0.49832,-0.24916 0.74748,-0.49832 0.74748,-0.49832z" fill="#d9ffb3" stroke="none" stroke-width="1" stroke-linecap="butt"/><g data-paper-data="{&quot;index&quot;:null}" fill="none" stroke="#000000" stroke-width="2.5" stroke-linecap="round"><path d="M286.88494,203.54239l-5.61177,31.74643l-89.2209,-81.81641"/><path d="M245.76209,232.63511l34.90574,3.27331"/></g><text transform="translate(280.85044,353.15103) scale(0.58667,0.58667)" font-size="40" xml:space="preserve" fill="#ffffff" fill-rule="nonzero" stroke="none" stroke-width="1" stroke-linecap="butt" stroke-linejoin="miter" stroke-miterlimit="10" stroke-dasharray="" stroke-dashoffset="0" font-family="Sans Serif" font-weight="normal" text-anchor="start" style="mix-blend-mode: normal"><tspan x="0" dy="0">Click to continue&gt;</tspan></text><g stroke="none" stroke-width="1" stroke-linecap="butt"><g><path d="M341.95903,288.59585l-0.2793,-1.11722l3.21202,-1.50826c0,0 0.02793,0.16759 0.11172,0.41896c0.11172,0.33517 0.39103,1.06136 0.75413,1.53618c0.33517,0.44689 0.25137,0.89378 -0.25138,0.78206c0,0.02793 0,0.02793 0,0.05586c0.08379,0.53068 0.0838,0.83792 -0.50275,0.83792c0,0 -0.13966,0.58654 -0.83792,0.36309c0,0 -0.47482,0.44689 -1.03343,0.22345c0,0 -0.33516,0.19552 -0.92171,-0.36309c-0.33517,-0.30723 -0.69827,-0.92172 -0.25138,-1.22895z" fill="#847e87"/><g><g><path d="M342.57351,289.15447c-0.08379,-0.44689 0.05586,-0.72619 0.19552,-0.75412c0.3631,-0.05586 0.50275,0.6424 0.67033,0.97757c0.16758,0.33517 0.33517,0.27931 0.33517,0.27931c-0.47482,-0.6424 -0.27931,-1.28481 -0.19552,-1.31274c0.25137,-0.11172 0.39103,0 0.44689,0.11172c-0.05586,-0.3631 0.27931,-0.44689 0.44689,-0.44689c0.33517,0.02793 0.75413,1.22895 0.75413,1.22895c0.02793,0.08379 0.02793,0.22344 0,0.3631c-0.05586,0 -0.13966,0.02793 -0.22345,0.02793c0,0 -0.13966,0.58654 -0.83792,0.36309c0,0 -0.47482,0.44689 -1.03343,0.22344c0,0 -0.33516,0.19552 -0.92171,-0.36309c-0.30723,-0.30723 -0.67034,-0.86586 -0.27931,-1.17309c0.05586,-0.02793 0.11172,-0.02793 0.16758,-0.02793c0.30723,-0.05586 0.44689,0.33517 0.47482,0.50275z" fill="#847e87"/><path d="M345.05934,289.60136c-0.11172,-0.02793 -0.25137,-0.05586 -0.39103,-0.16758c-0.13966,-0.11172 -0.27931,-0.27931 -0.39103,-0.44689c-0.08379,-0.08379 -0.11172,-0.16758 -0.16758,-0.27931c-0.05586,-0.08379 -0.11172,-0.19551 -0.13965,-0.30723c-0.02793,-0.13966 0.05586,-0.27931 0.16759,-0.3631c0.11172,-0.05586 0.22344,-0.11172 0.36309,-0.08379c0.05586,0 0.11172,0.02793 0.16758,0.08379c0.02793,0.05586 0.05586,0.0838 0.08379,0.13966c0.05586,0.08379 0.11172,0.13966 0.13966,0.22345c0.13966,0.30723 0.22345,0.50275 0.22345,0.50275c0,0 -0.11172,-0.16758 -0.30724,-0.44689c-0.05586,-0.08379 -0.11172,-0.13966 -0.16758,-0.22345c-0.08379,-0.08379 -0.11172,-0.13965 -0.19552,-0.13965c-0.05586,0 -0.16759,0.02793 -0.22345,0.08379c-0.05586,0.05586 -0.11172,0.13966 -0.08379,0.19552c0.02793,0.08379 0.08379,0.19552 0.11172,0.27931c0.05586,0.08379 0.0838,0.19551 0.13966,0.2793c0.02793,0.08379 0.08379,0.16759 0.13965,0.25138c0.05586,0.08379 0.11172,0.13965 0.16758,0.19551c0.11172,0.11172 0.22345,0.16758 0.30724,0.19552c0.08379,0.02793 0.13965,0.02794 0.13965,0.02794c0,0 -0.05586,0 -0.08379,0z" fill="#666168"/><path d="M343.94211,288.31655c-0.08379,-0.02793 -0.19552,-0.05586 -0.27931,0c-0.08379,0.02793 -0.13965,0.16758 -0.13965,0.30723c0,0.05586 0.02793,0.13966 0.02793,0.22345c0,0.08379 0.02793,0.16758 0.05586,0.25137c0.02793,0.08379 0.05586,0.13965 0.08379,0.22344c0.02793,0.05586 0.0838,0.13966 0.11173,0.19552c0.11172,0.13966 0.19551,0.22345 0.30723,0.27931c0.08379,0.05586 0.19552,0.08379 0.25138,0.11172c0.08379,0.02793 0.11172,0.02793 0.11172,0.02793v0.11172c0,0 -0.19552,0 -0.44689,-0.11172c-0.13966,-0.05586 -0.25137,-0.16758 -0.3631,-0.30723c-0.05586,-0.05586 -0.11172,-0.13966 -0.13965,-0.22345c-0.05586,-0.08379 -0.08379,-0.16759 -0.11172,-0.25138c-0.02793,-0.08379 -0.05586,-0.16758 -0.05586,-0.25137c0,-0.08379 0,-0.16758 0,-0.25137c0.02793,-0.08379 0.02793,-0.16758 0.08379,-0.25137c0.05586,-0.08379 0.11172,-0.13966 0.19552,-0.16759c0.16758,-0.02793 0.27931,0.02794 0.33517,0.0838c0.05586,0.02793 0.08379,0.08379 0.08379,0.08379c0,0 -0.02793,-0.02793 -0.11172,-0.08379z" fill="#666168"/><path d="M343.43936,290.24376c-0.11172,0 -0.2793,0 -0.47482,-0.11172c-0.11172,-0.05586 -0.19552,-0.11172 -0.25137,-0.22345c-0.05586,-0.08379 -0.11172,-0.22345 -0.13966,-0.33517c-0.05586,-0.22345 -0.13965,-0.47482 -0.13965,-0.75412c0.02793,-0.11172 0,-0.2793 0.13965,-0.41896c0.05586,-0.08379 0.13965,-0.08379 0.22344,-0.08379c0.02793,0 0.05587,0 0.11173,0.02793c0.02793,0 0.08379,0.02793 0.11172,0.05586c0.13966,0.08379 0.16758,0.19551 0.22344,0.30723c0.05586,0.11172 0.0838,0.22345 0.11173,0.30724c0.11172,0.39103 0.13966,0.6424 0.13966,0.6424c0,0 -0.02794,-0.05586 -0.05587,-0.16758c-0.02793,-0.11172 -0.08379,-0.27931 -0.16758,-0.44689c-0.05586,-0.08379 -0.0838,-0.19552 -0.13966,-0.27931c-0.05586,-0.08379 -0.11172,-0.19552 -0.19552,-0.25138c-0.08379,-0.05586 -0.19552,-0.05586 -0.25137,0c-0.05586,0.05586 -0.05586,0.19552 -0.05586,0.30724c0,0.25137 0.05586,0.50275 0.11172,0.7262c0.02793,0.11172 0.05587,0.22345 0.11173,0.30724c0.05586,0.11172 0.13966,0.16759 0.19552,0.22345c0.13966,0.11172 0.30723,0.13965 0.41895,0.13965c0.11172,0 0.16758,0 0.16758,0c0,0 -0.05586,0.02793 -0.19552,0.02793z" fill="#666168"/><path d="M342.48972,289.07068c0,0 -0.02793,-0.05586 -0.11172,-0.11172c-0.02793,-0.02793 -0.05586,-0.08379 -0.11172,-0.11172c-0.02793,-0.02793 -0.0838,-0.05586 -0.13966,-0.08379c-0.02793,0 -0.05586,-0.02793 -0.08379,-0.02793c0,0 -0.02793,0 -0.05586,0c-0.02793,0 -0.08379,0.02793 -0.11172,0.05586c-0.02793,0.02793 -0.05586,0.05586 -0.08379,0.08379c-0.02793,0.02793 -0.02793,0.02793 -0.02793,0.02793c0,0 0,-0.02793 0,-0.05586c0,-0.05586 0,-0.0838 0.02793,-0.13966c0.02793,-0.02793 0.02793,-0.05586 0.05586,-0.08379c0,-0.05586 0.05586,-0.05586 0.08379,-0.08379c0.08379,-0.02793 0.16759,-0.02793 0.25138,0c0.16758,0.05586 0.25137,0.16758 0.33517,0.25137c0.08379,0.08379 0.11172,0.13965 0.11172,0.13965z" fill="#666168"/></g><g><path d="M344.97554,288.0931c-1.34067,-1.81549 -0.50275,-1.53619 -0.16758,-1.61998c0.05586,-0.02793 0.13965,0 0.25137,0.05586c0.13966,0.3631 0.3631,0.97758 0.69827,1.42446c0.33517,0.44689 0.25137,0.89378 -0.25138,0.78206c-0.22345,-0.13966 -0.33517,-0.3631 -0.53068,-0.6424z" fill="#847e87"/><path d="M345.64588,288.73551c-0.05586,0 -0.11172,-0.02793 -0.19552,-0.05586c-0.05586,-0.02793 -0.13965,-0.08379 -0.22344,-0.13965c-0.08379,-0.05586 -0.16759,-0.13965 -0.22345,-0.22344c-0.11172,-0.13966 -0.22345,-0.33517 -0.27931,-0.47483c-0.05586,-0.13966 -0.08379,-0.25137 -0.08379,-0.25137c0,0 0.08379,0.08379 0.16758,0.19552c0.08379,0.11172 0.22344,0.27931 0.33517,0.41896c0.11172,0.16758 0.25137,0.30724 0.3631,0.39103c0.05586,0.05586 0.11172,0.08379 0.13966,0.11172c0.02793,0.02793 0.05586,0.02793 0.05586,0.02793c0,0 -0.02793,0 -0.05586,0z" fill="#666168"/></g></g></g><g><path d="M338.52357,274.46295c1.31274,-0.25137 2.29031,-0.22345 3.21202,0.97757c0.89378,1.20102 1.14516,3.1003 1.53619,4.41305c0.41896,1.34067 3.1003,4.80407 3.1003,4.80407c-0.80999,3.04444 -6.22854,3.35168 -6.22854,3.35168c0,0 -2.56962,-5.30682 -3.60305,-10.72537c-0.27931,-1.34067 0.55862,-2.54169 1.98308,-2.821z" fill="#3f3f74"/><path d="M341.81938,275.55225c0.08379,0.11172 0.22344,0.30723 0.33516,0.53068c0.11172,0.22345 0.25138,0.50276 0.3631,0.80999c0.11172,0.30723 0.22344,0.6424 0.30723,0.97757c0.08379,0.33517 0.13966,0.67034 0.19552,1.00551c0.05586,0.33517 0.05586,0.6424 0.0838,0.89378c0,0.27931 0,0.50275 0,0.6424c0,0.16758 0,0.25137 0,0.25137c0,0 0,-0.11172 -0.02793,-0.25137c-0.02793,-0.13966 -0.05586,-0.3631 -0.0838,-0.61447c-0.02793,-0.13966 -0.02793,-0.27931 -0.05586,-0.41896c-0.02793,-0.13966 -0.05586,-0.27931 -0.08379,-0.44689c-0.05586,-0.30723 -0.13966,-0.6424 -0.22345,-0.97757c-0.08379,-0.33517 -0.16759,-0.67034 -0.27931,-0.97758c-0.11172,-0.30723 -0.19551,-0.58655 -0.30723,-0.83792c-0.11172,-0.22345 -0.19551,-0.41895 -0.2793,-0.55861c-0.05586,-0.13966 -0.11173,-0.22344 -0.11173,-0.22344c0,0 0.05586,0.08379 0.16759,0.19552z" fill="#1a324a"/><path d="M345.03141,282.84214l0.67033,0.86585c0.22345,0.30723 0.44689,0.58655 0.67034,0.86585l0.02793,0.02793v0.02794c-0.05586,0.16758 -0.11172,0.33517 -0.19552,0.50275c-0.08379,0.13966 -0.16758,0.30723 -0.27931,0.44689c-0.08379,0.13966 -0.22345,0.27931 -0.33517,0.41896c-0.05586,0.08379 -0.13966,0.13966 -0.19552,0.19552l-0.19552,0.16758c-0.13966,0.11172 -0.27931,0.22344 -0.44689,0.30723c-0.16758,0.11172 -0.30724,0.16758 -0.47482,0.25137c-0.16758,0.08379 -0.33517,0.13966 -0.50275,0.19552c-0.16758,0.05586 -0.33517,0.0838 -0.50275,0.13966l0.25137,-0.0838c0.08379,-0.02793 0.16758,-0.05586 0.25137,-0.08379c0.16758,-0.08379 0.33517,-0.13966 0.47482,-0.22345c0.13966,-0.05586 0.30723,-0.13965 0.44689,-0.25137c0.13966,-0.08379 0.27931,-0.19552 0.41896,-0.30724c0.11172,-0.11172 0.25137,-0.22344 0.3631,-0.36309c0.13966,-0.11172 0.25137,-0.25137 0.33517,-0.39103c0.08379,-0.13966 0.16758,-0.30723 0.25137,-0.44689c0.08379,-0.16758 0.16758,-0.30724 0.19552,-0.47482l0.02793,0.08379c-0.22345,-0.27931 -0.44689,-0.55862 -0.67033,-0.86585c-0.22345,-0.30723 -0.44689,-0.58655 -0.6424,-0.89378c-0.41896,-0.61448 -0.80999,-1.22895 -1.17309,-1.87135c0.41896,0.58655 0.83792,1.20101 1.22895,1.75963z" fill="#1a324a"/><path d="M336.95945,279.18323c0.05586,0.25137 0.13966,0.61448 0.27931,1.06137c0.13966,0.44689 0.30723,0.94964 0.47482,1.50825c0.19552,0.55861 0.39103,1.11723 0.61448,1.70377c0.19552,0.55861 0.41896,1.14516 0.6424,1.67584c0.22345,0.53068 0.41895,1.03343 0.58654,1.4524c0.3631,0.86585 0.58655,1.42446 0.58655,1.42446c0,0 -0.08379,-0.13966 -0.19552,-0.39103c-0.11172,-0.25137 -0.2793,-0.58654 -0.47482,-1.0055c-0.19552,-0.41896 -0.41896,-0.92171 -0.6424,-1.45239c-0.22345,-0.53068 -0.44689,-1.08929 -0.67034,-1.67584c-0.22345,-0.55861 -0.41896,-1.14516 -0.58655,-1.70377c-0.16758,-0.53068 -0.30723,-1.06137 -0.41896,-1.50826c-0.11172,-0.44689 -0.16759,-0.80999 -0.22345,-1.08929c-0.05586,-0.27931 -0.05586,-0.41896 -0.05586,-0.41896c0,0 0.02793,0.13965 0.08379,0.41896z" fill="#1a324a"/></g><g><path d="M336.28911,276.08293c-1.00551,-1.75963 -1.64791,-12.56879 -0.41896,-13.8536c1.31274,-1.39653 3.96615,-1.28481 4.832,1.56411c0.67034,2.20652 0.44689,6.39612 0.50275,7.93231c0.05586,1.53618 0.08379,1.14515 0.41896,2.20652c0.33517,1.06137 0.11172,1.25688 -0.05586,1.59205c-0.16758,0.33517 -1.06137,0.92171 -2.48583,1.17309c-1.42446,0.22345 -2.23445,0.33516 -2.79307,-0.61448z" fill="#224363"/><path d="M337.0991,276.83706c-0.05586,-0.02793 -0.13965,-0.02794 -0.25137,-0.0838c-0.05586,-0.02793 -0.11173,-0.05586 -0.16759,-0.11172c-0.05586,-0.05586 -0.11172,-0.11173 -0.16758,-0.16759c-0.11172,-0.11172 -0.19551,-0.27931 -0.30724,-0.44689c-0.08379,-0.19552 -0.16758,-0.39103 -0.25137,-0.61447c-0.08379,-0.22345 -0.16758,-0.44689 -0.22344,-0.69827c-0.08379,-0.22345 -0.11173,-0.50275 -0.16759,-0.75413c-0.05586,-0.25137 -0.11172,-0.50275 -0.13965,-0.78206c-0.02793,-0.27931 -0.05586,-0.55861 -0.08379,-0.80999c-0.02793,-0.27931 -0.02793,-0.53069 -0.05586,-0.78206c0,-0.25137 -0.02793,-0.50275 -0.02793,-0.7262c-0.02793,-0.22345 -0.02793,-0.44689 -0.02793,-0.6424c0,-0.80999 0.02793,-1.34067 0.02793,-1.34067c0,0 0.05586,0.53068 0.08379,1.34067c0.02793,0.19552 0.02793,0.41896 0.05586,0.6424c0.02793,0.22345 0.02793,0.47482 0.05586,0.7262c0.02793,0.25137 0.05586,0.53069 0.0838,0.78206c0,0.25137 0.02793,0.53069 0.08379,0.78206c0.02793,0.25137 0.05586,0.53068 0.11172,0.78205c0.02793,0.25137 0.08379,0.50276 0.13965,0.75413c0.05586,0.25137 0.11172,0.47482 0.19552,0.69826c0.05586,0.19552 0.13965,0.39103 0.22344,0.58655c0.08379,0.16758 0.16759,0.33517 0.27931,0.44689c0.02793,0.08379 0.08379,0.11172 0.13965,0.16758c0.02793,0.05586 0.0838,0.0838 0.13966,0.11173c0.11172,0.05586 0.19552,0.08379 0.25137,0.08379c0.05586,0 0.08379,0 0.08379,0c0,0 -0.02793,0.00001 -0.08379,0.05587z" fill="#1a324a"/><path d="M341.20491,271.41851c0.02793,0.27931 0.05586,0.61447 0.08379,0.94964c0.02793,0.16758 0.05586,0.36309 0.0838,0.53068c0.02793,0.19552 0.08379,0.3631 0.16758,0.50276c0.16758,0.3631 0.25137,0.7262 0.27931,1.08929c0.02793,0.3631 -0.05586,0.69826 -0.19552,0.94964c-0.13966,0.27931 -0.3631,0.39103 -0.50275,0.47482c-0.05586,0.02793 -0.11172,0.05586 -0.16758,0.05586c-0.02793,0.02793 -0.05586,0.02793 -0.05586,0.02793c0,0 0.08379,-0.02794 0.22344,-0.11173c0.13966,-0.08379 0.30724,-0.22344 0.41896,-0.47482c0.13966,-0.25137 0.16758,-0.55861 0.13965,-0.89378c-0.02793,-0.33517 -0.11172,-0.69827 -0.27931,-1.0055c-0.08379,-0.16758 -0.13965,-0.39103 -0.16758,-0.55861c-0.02793,-0.16758 -0.05586,-0.3631 -0.05586,-0.53069c-0.02793,-0.33517 -0.02793,-0.67033 -0.02793,-0.94964c0,-0.55861 0.05586,-0.92171 0.05586,-0.92171c0,0 0,0.3631 0,0.86585z" fill="#1a324a"/></g></g><g stroke="none" stroke-width="1" stroke-linecap="butt"><g><path d="M330.75885,315.57686c0,0 1.45239,1.53618 2.29031,1.92721c0.83792,0.39103 1.31275,1.64791 0.33517,1.98308c-1.11723,0.3631 -6.14474,-0.13965 -7.12231,-1.84342c-0.94964,-1.7317 2.03894,-4.16167 4.49683,-2.06687z" fill="#382a1e"/><path d="M330.75885,315.0741c0,0 1.20101,1.53619 2.03893,1.92722c0.83792,0.39103 1.70377,1.75963 0.55862,1.98307c-1.14515,0.19552 -6.14474,-0.13965 -7.12232,-1.84342c-0.94964,-1.7317 2.03894,-4.16167 4.52477,-2.06687z" fill="#4d3a29"/><path d="M331.76435,316.63822c-0.05586,0.02793 -0.11172,0.0838 -0.16758,0.13966c-0.08379,0.05586 -0.13966,0.11173 -0.19552,0.16759c-0.11172,0.11172 -0.22345,0.25137 -0.33517,0.33516c-0.08379,0.08379 -0.16758,0.13966 -0.16758,0.13966c0,0 0.02793,-0.11172 0.08379,-0.22344c0.08379,-0.13966 0.16758,-0.27931 0.30724,-0.41896c0.13966,-0.13966 0.30723,-0.25137 0.44689,-0.27931c0.05586,-0.02793 0.13965,0 0.16758,0c0.02793,0 0.05586,0.02793 0.05586,0.02793c0,0 -0.08379,0 -0.19552,0.11172z" fill="#382a1e"/><path d="M331.20574,316.07961c-0.05586,0.02793 -0.11173,0.08379 -0.16759,0.13965c-0.08379,0.05586 -0.13966,0.11172 -0.19552,0.16758c-0.11172,0.11172 -0.22344,0.25138 -0.33516,0.33517c-0.08379,0.08379 -0.16759,0.13965 -0.16759,0.13965c0,0 0.02793,-0.11172 0.08379,-0.22345c0.08379,-0.13966 0.16758,-0.2793 0.30724,-0.41896c0.13966,-0.13966 0.30723,-0.25137 0.44689,-0.27931c0.05586,-0.02793 0.13965,0 0.16758,0c0.02793,0 0.05586,0.02793 0.05586,0.02793c0,0 -0.11172,-0.02793 -0.19552,0.11172z" fill="#382a1e"/></g><g><g><path d="M338.13254,314.68307c0,0 1.45239,1.53619 2.29031,1.92722c0.83792,0.39103 1.31275,1.6479 0.33517,1.98307c-1.11723,0.3631 -6.14474,-0.13965 -7.12232,-1.84342c-0.97758,-1.70377 2.01101,-4.13374 4.49684,-2.06687z" fill="#382a1e"/><path d="M338.10461,314.18033c0,0 1.20101,1.53618 2.03893,1.92721c0.83792,0.39103 1.70377,1.75963 0.55862,1.98308c-1.14515,0.19552 -6.14474,-0.13965 -7.12232,-1.84342c-0.94964,-1.7317 2.06687,-4.13374 4.52477,-2.06687z" fill="#4d3a29"/><path d="M339.11011,315.77237c-0.05586,0.02793 -0.11172,0.0838 -0.16758,0.13966c-0.08379,0.05586 -0.13966,0.11172 -0.19552,0.16758c-0.11172,0.11172 -0.22345,0.25137 -0.33517,0.33517c-0.08379,0.08379 -0.16758,0.13966 -0.16758,0.13966c0,0 0.02794,-0.11172 0.0838,-0.22345c0.08379,-0.13966 0.16758,-0.2793 0.30723,-0.41896c0.13966,-0.13966 0.30723,-0.25137 0.44689,-0.27931c0.05586,-0.02793 0.13965,0 0.16758,0c0.02793,0 0.05586,0.02793 0.05586,0.02793c0,0 -0.08379,-0.02793 -0.19552,0.11172z" fill="#382a1e"/><path d="M338.5515,315.18583c-0.05586,0.02793 -0.11172,0.08379 -0.16758,0.13965c-0.08379,0.05586 -0.13966,0.11172 -0.19552,0.16758c-0.11172,0.11172 -0.22344,0.25138 -0.33517,0.33517c-0.08379,0.08379 -0.16758,0.13965 -0.16758,0.13965c0,0 0.02793,-0.11172 0.08379,-0.22345c0.08379,-0.13966 0.16759,-0.2793 0.30724,-0.41896c0.13966,-0.13966 0.30723,-0.25137 0.44689,-0.27931c0.05586,-0.02793 0.13965,0 0.16758,0c0.02793,0 0.05586,0.02793 0.05586,0.02793c0,0 -0.11172,0 -0.19552,0.11173z" fill="#382a1e"/></g><path d="M337.26669,314.99032c0,0 -1.67584,0.78206 -3.79857,0.25137l-0.25137,-6.34026l4.46891,0.7262z" fill="#382a1e"/></g><g><g><path d="M329.02715,314.40377l3.49133,-4.24546l6.39611,-0.47482l2.40204,4.35718l-1.53619,2.20652l-2.82099,0.58654l-0.11172,-3.96615l-4.35718,1.0055l-0.61447,3.12823z" fill="#1c3752"/><path d="M339.80838,277.70291c0,0 1.59204,2.4579 1.7317,9.58021c0.13966,7.12232 1.3686,24.66276 3.15616,27.26031c0,0 -0.69826,3.54719 -7.12232,2.59755c-2.59755,-0.39103 4.32925,-1.4524 2.31824,-2.79307c-2.01101,-1.34067 -10.0271,1.03343 -8.49091,2.03893c1.53618,1.03343 -0.83792,1.92721 -5.22303,1.34067c-4.38511,-0.58655 -5.02752,0.61448 -7.2899,0.22345c-4.52477,-0.78206 -3.21203,-2.93272 -3.21203,-2.93272c0,0 3.29582,-3.01651 3.74271,-8.49091c0.44689,-5.4744 4.35718,-27.23238 7.12232,-28.99201c3.12823,-2.01101 9.94332,-3.65892 13.26706,0.16758z" fill="#3f3f74"/><path d="M339.94803,313.81723c-0.13966,-0.58655 -0.33516,-1.42446 -0.55861,-2.4579c-0.19552,-1.03343 -0.44689,-2.23445 -0.67033,-3.51926c-0.22345,-1.28481 -0.44689,-2.65342 -0.6424,-4.04995c-0.08379,-0.69826 -0.19552,-1.36861 -0.25138,-2.06687c-0.05586,-0.69826 -0.13965,-1.3686 -0.19551,-2.01101c-0.05586,-0.6424 -0.11172,-1.25687 -0.13966,-1.87135c-0.02793,-0.61448 -0.0838,-1.17309 -0.0838,-1.70377c0,-0.53068 -0.02793,-1.0055 -0.02793,-1.42446c0,-0.41896 0.02793,-0.78206 0.02793,-1.08929c0.02793,-0.58655 0.02794,-0.94964 0.02794,-0.94964c0,0 0,0.33517 0,0.94964c0.02793,0.30723 0,0.67033 0.02793,1.08929c0,0.41896 0.02793,0.89378 0.05586,1.42446c0.02793,0.50275 0.0838,1.08929 0.11173,1.67584c0.02793,0.58655 0.11172,1.22895 0.16758,1.87135c0.05586,0.67034 0.13965,1.34067 0.22344,2.01101c0.05586,0.67034 0.16758,1.36861 0.25137,2.06687c0.19552,1.3686 0.39103,2.76513 0.61448,4.04994c0.19552,1.28481 0.41896,2.48582 0.61447,3.51926c0.22345,1.03343 0.3631,1.89928 0.50275,2.48583c0.11172,0.61448 0.19552,0.94964 0.19552,0.94964c0,0 -0.08379,-0.3631 -0.25138,-0.94964z" fill="#1a324a"/><path d="M331.31746,314.06861c0.05586,-0.58655 0.0838,-1.25688 0.13966,-1.98308c0.05586,-0.7262 0.0838,-1.50825 0.13966,-2.29031c0.05586,-0.78206 0.11172,-1.56412 0.13965,-2.29031c0.02793,-0.7262 0.05586,-1.39653 0.08379,-1.98308c0,-0.27931 0.02793,-0.55861 0.02793,-0.78206c0,-0.25137 0,-0.44689 0,-0.61447c0,-0.33517 0,-0.53069 0,-0.53069c0,0 0,0.19552 0.02793,0.53069c0.02793,0.16758 0.02793,0.39102 0.02793,0.61447c0,0.25137 0,0.53069 0,0.80999c0,0.58655 0,1.25688 -0.02793,1.98307c-0.02793,0.7262 -0.05587,1.50826 -0.11173,2.29032c-0.05586,0.78206 -0.11172,1.56411 -0.16758,2.29031c-0.05586,0.7262 -0.13966,1.39654 -0.19552,1.98308c-0.11172,1.14515 -0.22345,1.92721 -0.22345,1.92721c0,0 0.05586,-0.78206 0.13965,-1.95515z" fill="#1a324a"/><path d="M326.96028,280.04908c-0.05586,0.05586 -0.11173,0.16758 -0.19552,0.30724c-0.08379,0.13966 -0.16759,0.30723 -0.25138,0.50275c-0.08379,0.22345 -0.16758,0.44689 -0.25137,0.69826c-0.08379,0.25137 -0.16759,0.53069 -0.25138,0.83792c-0.08379,0.30723 -0.16758,0.61448 -0.25137,0.94965c-0.05586,0.33517 -0.16759,0.67033 -0.22345,1.0055c-0.05586,0.3631 -0.13966,0.69827 -0.19552,1.06137c-0.05586,0.3631 -0.13966,0.72619 -0.19552,1.06136c-0.05586,0.3631 -0.11173,0.69826 -0.16758,1.03343c-0.11173,0.67034 -0.19552,1.28481 -0.27931,1.81549c-0.13966,1.08929 -0.25138,1.78756 -0.25138,1.78756c0,0 0.05586,-0.72619 0.16758,-1.78756c0.02793,-0.27931 0.0838,-0.55861 0.11172,-0.86585c0.05586,-0.30723 0.0838,-0.6424 0.13966,-0.97757c0.08379,-0.67034 0.19551,-1.39654 0.33517,-2.0948c0.05586,-0.3631 0.13966,-0.72619 0.22344,-1.06136c0.08379,-0.33517 0.16759,-0.67034 0.25138,-1.00551c0.08379,-0.33517 0.19552,-0.6424 0.27931,-0.94964c0.08379,-0.30723 0.16758,-0.58655 0.2793,-0.83792c0.05586,-0.13966 0.0838,-0.25137 0.13966,-0.36309c0.05586,-0.11172 0.08379,-0.19552 0.13965,-0.30724c0.11173,-0.19552 0.19552,-0.36309 0.27931,-0.50275c0.08379,-0.11172 0.16759,-0.22345 0.22344,-0.27931c0.05586,-0.05586 0.0838,-0.08379 0.0838,-0.08379c0,0 -0.05586,0.02793 -0.13965,0.05586z" fill="#1a324a"/><path d="M335.11602,280.07701c0.02793,0.05586 0.11172,0.13965 0.19552,0.25138c0.08379,0.11172 0.16758,0.25137 0.27931,0.41896c0.08379,0.16758 0.19552,0.33516 0.30724,0.55861c0.11172,0.22345 0.19551,0.44689 0.30723,0.69826c0.08379,0.25137 0.19552,0.53069 0.27931,0.80999c0.08379,0.27931 0.19552,0.55862 0.25137,0.86585c0.02793,0.13966 0.0838,0.30723 0.11173,0.44689l0.08379,0.47482c0.05586,0.30723 0.11172,0.61448 0.13966,0.92172c0.02793,0.13966 0.02793,0.30723 0.05586,0.44689c0,0.13966 0.02793,0.30723 0.02793,0.44689c0.02793,0.27931 0.05586,0.55861 0.05586,0.83792c0,0.25137 0.02793,0.53068 0.02793,0.75413c0.02793,0.47482 0,0.86585 0,1.14515c0,0.25137 0,0.41896 0,0.41896c0,0 -0.02793,-0.13965 -0.02793,-0.41896c-0.02793,-0.27931 -0.02793,-0.67033 -0.05586,-1.14515c-0.02793,-0.22345 -0.02793,-0.47482 -0.05586,-0.75413c-0.02793,-0.27931 -0.05586,-0.55861 -0.08379,-0.83792c-0.02793,-0.13966 -0.02793,-0.30723 -0.05586,-0.44689c0,-0.13966 -0.02793,-0.30723 -0.05586,-0.44689c-0.02793,-0.30723 -0.08379,-0.61448 -0.13965,-0.92172l-0.0838,-0.44689c-0.05586,-0.13966 -0.08379,-0.30723 -0.11172,-0.44689c-0.05586,-0.30723 -0.13966,-0.58655 -0.22345,-0.86585c-0.08379,-0.27931 -0.16759,-0.55861 -0.25138,-0.80998c-0.08379,-0.25137 -0.16758,-0.47482 -0.2793,-0.69827c-0.19552,-0.44689 -0.39103,-0.78205 -0.53068,-1.0055c-0.13966,-0.22345 -0.25137,-0.33517 -0.25137,-0.33517c0,0 0.02793,0.02793 0.08379,0.08379z" fill="#1a324a"/></g><g><path d="M340.2832,277.59118c0,0 0.75412,0.75413 0.05586,1.11723c-1.70377,0.86585 -4.44097,1.17309 -7.96023,1.20102c-3.51926,0 -7.56921,-0.30724 -6.89887,-2.29032c0.19552,-0.55861 0.50275,0.67034 1.81549,0.89378c1.34067,0.22345 8.21161,0.69827 10.55779,-0.11172c2.3741,-0.83792 1.98307,-1.0055 2.42996,-0.80999z" fill="#4d3a29"/><path d="M325.36823,277.92635c0,0.22345 0.05586,0.55861 0.33516,0.80998c0.13966,0.11172 0.33517,0.19552 0.53069,0.27931c0.19552,0.08379 0.41896,0.13965 0.6424,0.22344c0.47482,0.13966 0.94965,0.22345 1.4524,0.30724c0.50275,0.08379 1.0055,0.13965 1.48032,0.16758c0.47482,0.02793 0.89378,0.05586 1.28481,0.08379c0.75412,0.02793 1.25688,0.05586 1.25688,0.05586c0,0 -0.11172,0.02793 -0.33517,0.02793c-0.22345,0.02793 -0.53068,0.02793 -0.92171,0.02793c-0.39103,0 -0.83792,0 -1.31274,-0.02793c-0.47482,-0.02793 -0.97758,-0.05586 -1.48032,-0.13965c-0.50275,-0.05586 -1.0055,-0.19552 -1.45239,-0.33517c-0.22345,-0.05586 -0.44689,-0.16758 -0.64241,-0.25137c-0.19552,-0.08379 -0.39103,-0.19551 -0.53068,-0.33517c-0.13966,-0.13966 -0.22345,-0.30724 -0.25138,-0.47482c-0.02793,-0.16758 -0.02793,-0.30723 -0.02793,-0.41896c0.02793,-0.22345 0.08379,-0.33517 0.08379,-0.33517c0,0 -0.02793,0.11172 -0.11172,0.33517z" fill="#33221b"/><path d="M340.53457,277.98221c0.02793,0.02793 0.05586,0.0838 0.08379,0.13966c0.02793,0.05586 0.05586,0.13965 0.02793,0.25137c-0.02793,0.08379 -0.08379,0.19551 -0.16758,0.2793c-0.08379,0.08379 -0.19552,0.16759 -0.30724,0.22345c-0.11172,0.05586 -0.25137,0.11172 -0.39103,0.16758c-0.27931,0.11172 -0.55862,0.19552 -0.86585,0.27931c-0.27931,0.08379 -0.58654,0.13966 -0.86585,0.19552c-0.27931,0.05586 -0.55861,0.08379 -0.78206,0.11172c-0.44689,0.05586 -0.75413,0.05586 -0.75413,0.05586c0,0 0.30724,-0.08379 0.75413,-0.16758c0.22345,-0.05586 0.47482,-0.11172 0.75412,-0.16758c0.27931,-0.05586 0.58655,-0.11172 0.86585,-0.19552c0.30723,-0.08379 0.58654,-0.16758 0.86585,-0.25137c0.13966,-0.02793 0.25138,-0.0838 0.3631,-0.13966c0.13966,-0.05586 0.22344,-0.11172 0.30723,-0.19551c0.08379,-0.05586 0.13966,-0.13966 0.16759,-0.22345c0.02793,-0.08379 0.02793,-0.16758 0.02793,-0.22344c-0.02793,-0.13966 -0.08379,-0.19552 -0.08379,-0.19552c0,0 0.02793,0 0,0.05586z" fill="#33221b"/></g></g></g><g stroke="none" stroke-width="1" stroke-linecap="butt"><path d="M339.83631,263.26276c2.01101,3.01651 2.26238,14.35635 0.16758,15.08255c-2.0948,0.7262 -3.63098,0.33517 -3.63098,0.33517c-3.32374,1.34067 -9.30091,1.20101 -10.69744,-0.83792c-0.89378,-1.28481 -1.67584,-10.78123 -0.58654,-14.02119c1.08929,-3.23996 4.32925,-4.4689 4.32925,-4.4689c3.12823,-1.06137 8.40712,0.89378 10.41813,3.91029z" fill="#3f3f74"/><path d="M337.79737,277.67497c-0.11172,0.11172 -0.25137,0.27931 -0.44689,0.4469c-0.19552,0.16758 -0.44689,0.36309 -0.7262,0.53068c-0.13966,0.08379 -0.27931,0.13966 -0.44689,0.22345c-0.13966,0.05586 -0.30724,0.13966 -0.47482,0.19552c-0.16758,0.05586 -0.33517,0.13965 -0.50275,0.16758c-0.16758,0.02793 -0.33517,0.08379 -0.50275,0.11172c-0.16758,0.02793 -0.33517,0.05586 -0.47482,0.08379c-0.13966,0 -0.2793,0.02793 -0.41896,0.02793c-0.27931,0.02793 -0.50275,0.02793 -0.6424,0.02793c-0.16758,0 -0.25137,0 -0.25137,0c0,0 0.11172,0 0.25137,-0.02793c0.13966,-0.02793 0.3631,-0.02794 0.61447,-0.0838c0.13966,0 0.27931,-0.02793 0.41896,-0.05586c0.13966,-0.05586 0.27931,-0.08379 0.44689,-0.11172c0.13966,-0.05586 0.30723,-0.0838 0.47482,-0.13966c0.13966,-0.05586 0.30724,-0.11172 0.47482,-0.16758c0.16758,-0.05586 0.30724,-0.13966 0.47482,-0.19552c0.13966,-0.08379 0.30723,-0.13966 0.44689,-0.22345c0.13966,-0.08379 0.27931,-0.13966 0.39103,-0.22345c0.11172,-0.05586 0.22345,-0.13965 0.33517,-0.22344c0.11172,-0.08379 0.19551,-0.16759 0.2793,-0.22345c0.08379,-0.05586 0.13966,-0.11172 0.19552,-0.16758c0.11172,-0.11172 0.16759,-0.16758 0.16759,-0.16758c0,0 -0.05586,0.05585 -0.0838,0.19551z" fill="#1a324a"/><path d="M338.43977,276.61361c-0.25137,0.19552 -0.58654,0.47482 -0.94964,0.69826c-0.3631,0.25137 -0.75413,0.44689 -1.06137,0.55861c-0.08379,0.02793 -0.16759,0.05587 -0.22345,0.05587c-0.05586,0 -0.11172,0.02793 -0.16758,0.02793c-0.08379,0 -0.13965,0 -0.13965,0c0,0 0.05586,0 0.13965,-0.02793c0.05586,0 0.11172,-0.02794 0.16758,-0.05587c0.05586,0 0.11172,-0.05586 0.19552,-0.08379c0.27931,-0.13966 0.6424,-0.3631 1.0055,-0.58655c0.3631,-0.22345 0.69827,-0.47482 0.97758,-0.6424c0.25137,-0.16758 0.44689,-0.27931 0.44689,-0.27931c0,0 -0.13966,0.16759 -0.39103,0.33517z" fill="#1a324a"/><path d="M327.65854,260.52556c-0.13966,0.11172 -0.27931,0.22345 -0.44689,0.3631c-0.16758,0.13966 -0.33516,0.27931 -0.47482,0.44689c-0.05586,0.08379 -0.13966,0.16758 -0.22345,0.25137c-0.08379,0.08379 -0.13965,0.19551 -0.22344,0.2793c-0.16759,0.16758 -0.27931,0.39103 -0.41896,0.58655c-0.13966,0.22345 -0.25137,0.44689 -0.3631,0.6424c-0.08379,0.22345 -0.19552,0.44689 -0.27931,0.6424c-0.08379,0.22345 -0.16758,0.41896 -0.22344,0.61448c-0.05586,0.19552 -0.08379,0.39103 -0.13965,0.55861c-0.05586,0.16758 -0.08379,0.33517 -0.11172,0.47483c-0.02793,0.16758 -0.02793,0.2793 -0.05586,0.39103c-0.02793,0.22345 -0.05586,0.33517 -0.05586,0.33517c0,0 0,-0.11172 0.02793,-0.33517c0,-0.11172 0.02793,-0.25137 0.02793,-0.39103c0.02793,-0.16758 0.05586,-0.33517 0.08379,-0.50275c0.02793,-0.19552 0.05586,-0.39103 0.11172,-0.58654c0.05586,-0.19552 0.11172,-0.41896 0.19552,-0.6424c0.08379,-0.22345 0.19552,-0.44689 0.27931,-0.67034c0.11172,-0.19552 0.25137,-0.41896 0.3631,-0.6424c0.13966,-0.22345 0.25137,-0.41896 0.41895,-0.61447c0.08379,-0.08379 0.13966,-0.19552 0.22345,-0.27931c0.08379,-0.08379 0.16759,-0.16759 0.25137,-0.25138c0.16758,-0.16758 0.33517,-0.30723 0.50275,-0.44689c0.16758,-0.13966 0.30723,-0.25137 0.47482,-0.3631c0.61448,-0.39103 1.0893,-0.53069 1.0893,-0.53069c0,0 -0.47482,0.16759 -1.03343,0.67034z" fill="#1a324a"/><path d="M327.79819,279.1553c-0.11172,-0.02793 -0.22344,-0.05586 -0.33516,-0.08379c-0.11172,-0.02793 -0.25137,-0.0838 -0.3631,-0.13966c-0.13965,-0.05586 -0.25137,-0.13966 -0.39103,-0.19552c-0.11172,-0.05586 -0.25137,-0.13965 -0.3631,-0.22344c-0.11173,-0.11172 -0.25137,-0.19551 -0.33517,-0.30724c-0.11172,-0.11172 -0.19552,-0.22345 -0.2793,-0.33517c-0.02793,-0.05586 -0.0838,-0.11172 -0.11173,-0.16758c-0.02793,-0.05586 -0.05586,-0.11172 -0.08379,-0.16758c-0.05586,-0.11172 -0.11173,-0.22345 -0.13966,-0.33517c-0.02793,-0.08379 -0.05586,-0.19552 -0.08379,-0.27931c-0.02793,-0.08379 -0.02793,-0.16758 -0.02793,-0.22344c-0.02793,-0.11172 -0.02793,-0.19552 -0.02793,-0.19552c0,0 0.02794,0.08379 0.05586,0.19552c0.02793,0.05586 0.02793,0.13965 0.05586,0.22344c0.02793,0.08379 0.08379,0.16758 0.11172,0.27931c0.02793,0.11172 0.0838,0.19552 0.13965,0.30724c0.02793,0.05586 0.05586,0.11172 0.08379,0.16758c0.02793,0.02793 0.0838,0.0838 0.11172,0.13966c0.05586,0.11172 0.16759,0.22345 0.25138,0.30724c0.08379,0.11172 0.19552,0.19551 0.30724,0.2793c0.11172,0.08379 0.22344,0.13966 0.33516,0.22345c0.13966,0.08379 0.25138,0.13966 0.3631,0.19552c0.11172,0.08379 0.22344,0.11172 0.33516,0.16758c0.08379,0.05586 0.19552,0.08379 0.30724,0.11172c0.22345,0.05586 0.39102,0.11172 0.50275,0.13965c0.13966,0.02793 0.19552,0.05586 0.19552,0.05586c0,0 -0.2793,0 -0.61448,-0.13965z" fill="#1a324a"/><path d="M341.06525,276.58567c0,0.11172 -0.02793,0.27931 -0.08379,0.47483c-0.05586,0.19552 -0.13965,0.41896 -0.25138,0.6424c-0.08379,0.11172 -0.13965,0.22344 -0.22344,0.33517c-0.08379,0.11172 -0.19552,0.22345 -0.30724,0.30724c-0.22345,0.16758 -0.47482,0.27931 -0.7262,0.33517c-0.13966,0.05586 -0.25138,0.05586 -0.3631,0.08379c-0.11172,0 -0.22344,0.02793 -0.33516,0.02793c-0.19552,0.02793 -0.3631,0 -0.47482,0c-0.13966,-0.02793 -0.19552,-0.02793 -0.19552,-0.02793c0,0 0.08379,-0.02793 0.19552,-0.02793c0.11172,0 0.27931,-0.02793 0.47482,-0.05586c0.19552,-0.02793 0.41896,-0.08379 0.6424,-0.16758c0.22345,-0.08379 0.47482,-0.19551 0.67033,-0.33517c0.11172,-0.08379 0.19552,-0.13965 0.27931,-0.25137c0.05586,-0.11172 0.13966,-0.19552 0.19552,-0.30724c0.11172,-0.22345 0.22345,-0.41896 0.27931,-0.61447c0.13966,-0.39103 0.19552,-0.6424 0.19552,-0.6424c0,0 0,0.05586 0.02793,0.22344z" fill="#1a324a"/></g><g stroke="none" stroke-width="1" stroke-linecap="butt"><g><path d="M329.92093,286.86416c0,0 0.39103,2.29032 0.41896,2.821c0.02793,0.53068 0.02793,0.83792 -0.55861,0.80999c0,0 -0.16759,0.58654 -0.86585,0.30723c0,0 -0.50275,0.41896 -1.06137,0.16759c0,0 -0.58654,0.33517 -1.14515,-0.27931c-0.30723,-0.33517 -0.36309,-1.0893 0.11173,-1.36861l-0.22345,-1.14515" fill="#847e87"/><path d="M329.94885,287.11553c0,0 0.25138,1.0893 0.69826,1.78756c0.33517,0.53068 0.13966,1.06136 -0.55861,0.61447" fill="#666168"/><path d="M326.73683,288.87516c0.05586,0.13966 0.11172,0.3631 0.16758,0.58655c0.05586,0.19552 0.11173,0.41896 0.13966,0.58655c0.02793,0.08379 0.02793,0.13965 0.05586,0.19551c0.02793,0.05586 0.02793,0.0838 0.02793,0.0838c0,0 -0.02793,-0.02793 -0.05586,-0.05586c-0.02793,-0.02793 -0.0838,-0.0838 -0.11172,-0.16759c-0.05586,-0.13966 -0.13966,-0.3631 -0.19552,-0.58655c-0.05586,-0.22345 -0.08379,-0.44689 -0.08379,-0.61447c0,-0.16758 0,-0.27931 0,-0.27931c0,0 0.05586,0.08379 0.05586,0.25137z" fill="#666168"/><path d="M328.13337,290.49514c0,0.08379 -0.02794,0.22344 -0.0838,0.33517c-0.05586,0.08379 -0.08379,0.11172 -0.13965,0.16758c-0.05586,0.05586 -0.11173,0.08379 -0.16759,0.08379c-0.11172,0.02793 -0.16759,0 -0.16759,0c0,0 0,0 0.02793,-0.02793c0.02793,0 0.05586,-0.02793 0.0838,-0.05586c0.02793,-0.02793 0.05586,-0.08379 0.08379,-0.11172c0.02793,-0.05586 0.05586,-0.08379 0.08379,-0.13965c0.05586,-0.08379 0.0838,-0.19551 0.13966,-0.2793c0.05586,-0.08379 0.08379,-0.13966 0.08379,-0.13966c0,0 0.02794,0.05586 0.05587,0.16758z" fill="#666168"/><path d="M329.16679,290.38342c0,0.11172 -0.02793,0.25137 -0.08379,0.3631c-0.05586,0.05586 -0.0838,0.13966 -0.13966,0.16759c-0.05586,0.02793 -0.11172,0.05586 -0.16758,0.08379c-0.11172,0.05586 -0.16758,0.02793 -0.16758,0.02793c0,0 0,0 0.02793,-0.02793c0.02793,-0.02793 0.05586,-0.05586 0.08379,-0.08379c0.05586,-0.08379 0.11172,-0.16759 0.16759,-0.25138c0.05586,-0.08379 0.11172,-0.19551 0.13965,-0.2793c0.02793,-0.08379 0.05586,-0.13966 0.05586,-0.13966c0,0 0.02793,0.05586 0.08379,0.13966z" fill="#666168"/><path d="M329.92093,290.10411c0.02793,0.08379 0,0.22344 -0.02793,0.33517c-0.02793,0.11172 -0.11172,0.25138 -0.19552,0.30724c-0.02793,0.02793 -0.0838,0.05586 -0.11172,0.05586c-0.02793,0 -0.05586,0 -0.05586,0c0,0 0,0 0.02793,-0.02793c0.02793,0 0.02793,-0.05586 0.05586,-0.08379c0.05586,-0.05586 0.0838,-0.16759 0.11172,-0.27931c0.02793,-0.11172 0.0838,-0.22344 0.11172,-0.30723c0.02793,-0.08379 0.05586,-0.13966 0.05586,-0.13966c0,0 0,0.0838 0.02793,0.13966z" fill="#666168"/><path d="M326.98821,289.9086c0,0.05586 -0.02793,0.0838 -0.05586,0.13966c-0.02793,0.05586 -0.08379,0.08379 -0.11172,0.11172c-0.05586,0.02793 -0.0838,0.05586 -0.0838,0.05586c0,0 -0.02793,-0.02793 -0.02793,-0.08379c0,-0.05586 0.02793,-0.11173 0.05586,-0.16759c0.05586,-0.05586 0.0838,-0.08379 0.13966,-0.11172c0.05586,-0.02793 0.08379,-0.02793 0.08379,-0.02793c0,0 0,0.05586 0,0.08379z" fill="#666168"/><path d="M330.25609,289.88067c0,-0.19552 -0.02793,-0.44689 -0.05586,-0.69827c-0.02793,-0.25137 -0.05586,-0.50275 -0.08379,-0.69827c-0.02793,-0.08379 -0.02793,-0.16758 -0.02793,-0.22344c0,-0.05586 0,-0.08379 0,-0.08379c0,0 0.08379,0.11172 0.13965,0.30723c0.08379,0.19552 0.13965,0.44689 0.16759,0.69827c0.02793,0.25137 0.02793,0.50275 0,0.69827c-0.02793,0.19552 -0.08379,0.30723 -0.08379,0.30723c0,0 0,-0.11172 -0.05587,-0.30723z" fill="#666168"/></g><g><path d="M325.89891,274.71432c1.34067,0.02793 2.29031,0.27931 2.90479,1.64791c0.61447,1.3686 0.44688,3.26789 0.55861,4.63649c0.11173,1.39653 1.98308,5.36268 1.98308,5.36268c-1.4524,2.79307 -6.78715,1.92721 -6.78715,1.92721c0,0 -1.3686,-5.72578 -1.20102,-11.22812c0.02793,-1.3686 1.08929,-2.37411 2.54168,-2.34618z" fill="#3f3f74"/><path d="M328.85956,276.47396c0.05586,0.16758 0.13966,0.3631 0.19552,0.61448c0.08379,0.25137 0.13966,0.53068 0.19552,0.86585c0.02793,0.33517 0.05586,0.67034 0.08379,1.03343c0,0.3631 0,0.69826 -0.02793,1.03343c-0.02793,0.33517 -0.05586,0.6424 -0.11172,0.89378c-0.02793,0.25137 -0.0838,0.47482 -0.11172,0.61448c-0.02793,0.13966 -0.05586,0.22344 -0.05586,0.22344c0,0 0.02793,-0.11172 0.02793,-0.25137c0,-0.13966 0.02793,-0.3631 0.05586,-0.61447c0,-0.13966 0.02793,-0.27931 0.02793,-0.41896c0,-0.16758 0.02793,-0.30723 0.02793,-0.47482c0,-0.30723 0,-0.67033 0,-1.0055c0,-0.33517 -0.02793,-0.67033 -0.05586,-1.0055c-0.05586,-0.30723 -0.08379,-0.61448 -0.13965,-0.86585c-0.05586,-0.25137 -0.0838,-0.47482 -0.13965,-0.61447c-0.02793,-0.13966 -0.05586,-0.22345 -0.05586,-0.22345c0,0 0.02793,0.08379 0.08379,0.19552z" fill="#1a324a"/><path d="M330.5354,284.3504l0.44689,1.00551c0.13965,0.30723 0.30723,0.6424 0.47482,0.97757l0.02793,0.02794l-0.02793,0.02793c-0.08379,0.16758 -0.19551,0.30723 -0.30723,0.44689c-0.11172,0.13966 -0.22345,0.27931 -0.3631,0.39103c-0.13966,0.13966 -0.27931,0.22344 -0.41896,0.33516c-0.08379,0.05586 -0.13966,0.11172 -0.22345,0.13966l-0.22344,0.11172c-0.16759,0.05586 -0.33516,0.13966 -0.50275,0.19552c-0.16759,0.05586 -0.33517,0.11172 -0.50275,0.13965c-0.16759,0.05586 -0.3631,0.05586 -0.53068,0.08379c-0.16758,0.02793 -0.3631,0.02793 -0.53068,0.02793l0.25138,-0.02793c0.08379,0 0.16758,0 0.25137,-0.02793c0.16759,-0.02793 0.33516,-0.05586 0.50275,-0.11172c0.16759,-0.05586 0.33517,-0.11172 0.50275,-0.16758c0.16759,-0.05586 0.30724,-0.13966 0.47483,-0.22345c0.16759,-0.08379 0.30723,-0.16758 0.44689,-0.27931c0.13965,-0.11172 0.2793,-0.22344 0.39103,-0.33517c0.13965,-0.11172 0.25137,-0.22345 0.3631,-0.3631c0.11172,-0.13966 0.19552,-0.2793 0.27931,-0.41896v0.0838c-0.16758,-0.33517 -0.33516,-0.67034 -0.47482,-1.00551c-0.16758,-0.33517 -0.30723,-0.67033 -0.44689,-1.0055c-0.27931,-0.67034 -0.55861,-1.3686 -0.75413,-2.06687c0.27931,0.67034 0.55861,1.34067 0.89378,2.03893z" fill="#1a324a"/><path d="M323.35723,278.95978c0,0.27931 0.02793,0.67034 0.05586,1.11723c0.02793,0.44689 0.08379,1.0055 0.13965,1.56412c0.05586,0.55861 0.13966,1.17308 0.22345,1.78756c0.05586,0.61448 0.16758,1.22895 0.25137,1.78756c0.08379,0.58655 0.16759,1.11722 0.25138,1.56411c0.13965,0.89378 0.25137,1.50826 0.25137,1.50826c0,0 -0.05586,-0.16758 -0.11172,-0.41895c-0.05586,-0.27931 -0.16758,-0.64241 -0.25137,-1.0893c-0.08379,-0.44689 -0.19551,-0.97757 -0.30724,-1.53618c-0.08379,-0.55861 -0.19552,-1.17308 -0.2793,-1.78756c-0.08379,-0.58655 -0.13966,-1.20101 -0.19552,-1.78756c-0.05586,-0.55861 -0.0838,-1.08929 -0.0838,-1.56412c0,-0.47482 0.02793,-0.83792 0.02793,-1.11723c0,-0.27931 0.02794,-0.41896 0.02794,-0.41896c0,0 0,0.13965 0,0.39103z" fill="#1a324a"/></g><g><path d="M323.38516,275.80362c-0.61448,-1.92721 1.11722,-12.62465 2.56962,-13.63016c1.56412,-1.08929 4.16166,-0.39103 4.38511,2.56962c0.16759,2.29032 -0.92171,6.34025 -1.20102,7.84851c-0.27931,1.50826 -0.13965,1.11723 -0.05586,2.23445c0.08379,1.11723 -0.16759,1.25688 -0.41896,1.53618c-0.22344,0.27931 -1.22894,0.69826 -2.68134,0.61447c-1.45239,-0.05586 -2.26238,-0.11172 -2.59755,-1.17308z" fill="#3f3f74"/><path d="M324.08342,276.72533c-0.05586,-0.02793 -0.16759,-0.05586 -0.25138,-0.13966c-0.05586,-0.02793 -0.11172,-0.08379 -0.13965,-0.13965c-0.05586,-0.05586 -0.11172,-0.11172 -0.13966,-0.19552c-0.11173,-0.13966 -0.16759,-0.30723 -0.22345,-0.50275c-0.05586,-0.19552 -0.11172,-0.41896 -0.13965,-0.64241c-0.02793,-0.22345 -0.05586,-0.47482 -0.05586,-0.7262c-0.02793,-0.25137 0,-0.50275 0,-0.78206c0,-0.27931 0.02793,-0.53069 0.05586,-0.80999c0.02793,-0.27931 0.05586,-0.55861 0.08379,-0.80999c0.05586,-0.27931 0.0838,-0.53068 0.11173,-0.78206c0.05586,-0.25137 0.11172,-0.50275 0.13965,-0.7262c0.02793,-0.22345 0.05587,-0.44689 0.11172,-0.6424c0.16759,-0.78206 0.30724,-1.31274 0.30724,-1.31274c0,0 -0.08379,0.53068 -0.22345,1.31274c-0.02793,0.19552 -0.05586,0.41896 -0.08379,0.6424c-0.02793,0.25137 -0.0838,0.47483 -0.11172,0.7262c-0.02793,0.22345 -0.05586,0.50275 -0.08379,0.75412c-0.05586,0.25137 -0.05586,0.50275 -0.08379,0.78206c-0.02793,0.25137 -0.05586,0.53068 -0.05586,0.78206c0,0.27931 -0.02793,0.53069 0,0.78206c0,0.25137 0,0.50275 0.02793,0.7262c0,0.25137 0.05587,0.44689 0.0838,0.6424c0.05586,0.19552 0.0838,0.36309 0.16759,0.50275c0.02793,0.08379 0.08379,0.13966 0.11172,0.19552c0.02793,0.05586 0.05586,0.11172 0.11172,0.13966c0.08379,0.08379 0.16759,0.11172 0.22344,0.13966c0.05586,0.02793 0.08379,0.02793 0.08379,0.02793c0,0 -0.02793,0.02793 -0.02793,0.05586z" fill="#1a324a"/><path d="M329.22266,272.34022c-0.05586,0.25137 -0.11172,0.58654 -0.13965,0.92171c-0.02793,0.16758 -0.05586,0.3631 -0.05586,0.53069c0,0.19552 0,0.36309 0.05586,0.53068c0.08379,0.39103 0.08379,0.75413 0.02793,1.11723c-0.05586,0.3631 -0.19552,0.67033 -0.39103,0.89378c-0.19552,0.22345 -0.41895,0.30724 -0.58654,0.33517c-0.08379,0.02793 -0.13966,0.02793 -0.19552,0.02793c-0.02793,0 -0.05587,0 -0.05587,0c0,0 0.11173,0 0.25138,-0.05586c0.16759,-0.02793 0.36309,-0.13966 0.53068,-0.3631c0.16759,-0.19552 0.25138,-0.50275 0.30724,-0.83792c0.05586,-0.33517 0.02793,-0.69826 -0.05586,-1.03343c-0.05586,-0.19552 -0.05586,-0.39103 -0.05586,-0.58654c0,-0.16758 0.02793,-0.3631 0.05586,-0.53069c0.05586,-0.33517 0.13965,-0.6424 0.19552,-0.92171c0.13965,-0.53068 0.25137,-0.89378 0.25137,-0.89378c0,0 -0.05586,0.3631 -0.13965,0.86585z" fill="#1a324a"/></g></g><path d="M345.92519,253.87806c0.30723,0.19552 -7.51335,1.7317 -10.92088,1.92721c-3.40754,0.19552 -13.18326,0.3631 -12.93189,0.05587c0.25138,-0.30723 9.46849,-3.77064 11.28398,-3.88236c1.81549,-0.13966 11.78673,1.36861 12.56879,1.89929z" fill="#3f3f74" stroke="none" stroke-width="1" stroke-linecap="butt"/><path d="M334.41776,249.66054c3.07237,-0.08379 4.49684,2.31825 5.25096,5.64199c0.67034,3.01651 0.39102,6.31232 -4.69235,6.45198c-4.38511,0.13966 -5.72578,-2.84893 -5.22303,-5.86543c0.53068,-3.1841 1.59205,-6.14474 4.66442,-6.22853z" fill="#c5886b" stroke="none" stroke-width="1" stroke-linecap="butt"/><g stroke="none" stroke-linecap="butt"><path d="M336.8198,260.02281c0,0.08379 -0.05586,0.16758 -0.13966,0.19552c-0.08379,0.02793 -0.16758,0.02793 -0.22344,0.02793c-0.08379,0 -0.11172,-0.02793 -0.11172,-0.02793c0,0 0.02793,-0.02793 0.08379,-0.05586c0.02793,-0.02793 0.0838,-0.05586 0.13966,-0.0838c0.05586,-0.02793 0.11172,-0.05586 0.13965,-0.08379c0.02793,-0.02793 0.05586,-0.05586 0.05586,-0.05586c0,0 0.02793,0.02793 0.05586,0.08379z" fill="#99918a" stroke-width="1"/><path d="M328.13337,264.18447c0.97758,-0.47482 0.92171,-1.42446 0.92171,-1.42446c-0.08379,1.06137 -1.61998,0.89378 -1.61998,0.89378c1.17308,0 1.56412,-1.89929 1.00551,-2.42997c-0.55862,-0.53068 -0.22345,-2.01101 -0.22345,-2.01101c-0.25137,0.02793 -0.3631,0.86585 -0.3631,0.86585c0,0 -0.44689,-1.25688 0.53068,-1.78756c0.97758,-0.53068 0.69827,-1.61998 0.92171,-4.69235c0.22344,-3.04444 3.63098,-4.02201 4.69235,-3.99408c0.19552,0 0.36309,0 0.47482,0.05586c0.16758,-0.19552 0.55861,-0.16759 0.97757,-0.16759c0.7262,-0.02793 2.23445,0.78206 2.84893,1.25688c1.81549,1.48032 2.15066,5.22303 2.17859,5.9213c0.02793,0.69826 0.86585,0.69827 0.86585,0.69827c-0.58655,0.11172 -1.00551,-0.05586 -1.00551,-0.05586c0.83792,0.89378 0.30724,1.84342 0.30724,1.84342c0.30723,0.58655 0.25138,1.7317 -0.08379,2.54169c-0.3631,0.80999 0.75413,1.25687 0.75413,1.25687c-0.83792,0.11172 -1.03343,-0.30723 -1.06136,-0.41895c0.22345,0.86585 0.41896,1.67583 0.02793,2.29031c-0.41896,0.61448 0.61448,1.34067 0.61448,1.34067c-0.33517,0 -1.00551,-0.19552 -1.00551,-0.19552c-0.3631,0.89378 1.14516,1.03343 1.14516,1.03343c-1.00551,0.25137 -1.45239,-0.08379 -1.45239,-0.08379c0.3631,1.00551 0.16758,1.59204 -0.11172,2.23445c-0.25137,0.61448 0.53068,1.39654 0.53068,1.39654c-0.75412,0.13966 -1.25688,-0.86585 -1.25688,-0.86585c0.47482,1.67584 -0.7262,2.15066 -0.7262,2.15066c0.41896,-0.61448 -0.08379,-1.39653 -0.08379,-1.39653c0.02793,0.6424 -0.25138,1.87135 -1.00551,2.06687c-0.75412,0.19552 -0.50275,1.28481 -0.50275,1.28481c-0.55861,-0.05586 -0.41896,-1.11723 -0.39103,-1.20102c-0.27931,1.75963 -1.67584,1.56412 -1.67584,1.56412c-0.55861,0.97758 -2.15066,0.58655 -2.15066,0.58655c0.61448,0.05586 1.11723,-0.47482 1.11723,-0.47482c-1.28481,0.7262 -2.06687,-0.11172 -2.0948,-0.80999c-0.02793,-0.69826 0.94964,-0.55862 0.94964,-0.55862c0,0 -1.11722,0.19552 -0.16758,0.92172c0.94964,0.7262 1.67584,-1.34067 0.92171,-1.61998c-0.75412,-0.27931 -0.58655,-1.06136 -0.58655,-1.06136c-0.58655,-0.19552 -1.50825,-0.94965 -1.34067,-1.70377c0.16758,-0.6424 -0.13966,-1.31274 -0.13966,-1.31274c0.41896,0.86585 -0.39103,1.03343 -0.39103,1.03343c0.08379,-0.53068 -0.16758,-0.97757 -0.83792,-1.34067c-0.50275,-0.27931 -0.33517,-0.94964 -0.22344,-1.28481c-0.27931,0.30723 -1.11723,0.11172 -1.11723,0.11172c0.47482,-0.02793 1.17309,-0.72619 0.61448,-1.14515c-0.55862,-0.44689 -0.3631,-0.86585 -0.3631,-0.86585c-0.80999,0.41896 -0.13966,1.11723 -0.13966,1.11723c-0.6424,0 -1.25688,-1.08929 -0.2793,-1.56412zM331.28953,257.03423c0.92171,1.25688 0.69826,1.59204 0.69826,1.59204c0,0 1.0893,-0.61448 1.81549,0.19552l1.56411,0.83792l1.3686,-0.50275c0,0 0.72619,-1.25687 2.17859,-1.17308c0,0 0.6424,-0.27931 0.39103,-1.0893c0,0 -0.16758,0.55862 -0.83792,0.27931c0,0 0.89378,-0.25137 0.67034,-1.28481c-0.19552,-1.06137 -0.58654,-1.67584 -1.22895,-2.79307c-0.94964,-1.67584 -2.20652,-1.53618 -2.93272,-2.20652c-0.30723,0.86585 -2.34617,1.70377 -3.15616,2.7372c0,0.02793 -1.45239,2.15066 -0.53068,3.40754z" fill="#c8bdb4" stroke-width="1"/><path d="M331.80768,253.62053c0.80999,-1.03343 2.86084,-1.87915 3.16807,-2.745c0.7262,0.67034 1.99463,0.53593 2.94427,2.21177c0.6424,1.11723 1.03631,1.74254 1.23183,2.8039c0.22345,1.03343 -0.67204,1.28965 -0.67204,1.28965c0.67034,0.27931 0.83882,-0.28118 0.83882,-0.28118c0.25137,0.80999 -0.39272,1.09238 -0.39272,1.09238c-1.4524,-0.08379 -2.18469,1.17786 -2.18469,1.17786l-1.3732,0.50374l-1.56977,-0.83884c-0.7262,-0.80999 -1.82009,-0.19842 -1.82009,-0.19842c0,0 0.22035,-0.33952 -0.70136,-1.59641c-0.92171,-1.25688 0.53087,-3.39153 0.53087,-3.41946z" data-paper-data="{&quot;noHover&quot;:false,&quot;origItem&quot;:[&quot;Path&quot;,{&quot;applyMatrix&quot;:true,&quot;segments&quot;:[[[436.6,203.2],[-6.6,-9],[6.6,9]],[441.6,214.6],[[454.6,216],[-5.2,-5.8],[0,0]],[465.8,222],[475.6,218.4],[[491.2,210],[-10.4,-0.6],[0,0]],[[494,202.2],[1.8,5.8],[0,0]],[[488,204.2],[4.8,2],[0,0]],[[492.8,195],[1.6,7.4],[-1.4,-7.6]],[[484,175],[4.6,8],[-6.8,-12]],[[463,159.2],[5.2,4.8],[-2.2,6.2]],[[440.4,178.8],[5.8,-7.4],[0,0.2]]],&quot;closed&quot;:true,&quot;fillColor&quot;:[0,0,0,1]}]}" fill="#847e87" stroke-width="0.5"/><path d="M334.89258,250.10742c-0.02793,-0.05586 -0.0838,-0.13965 -0.16759,-0.19551c-0.02793,-0.02793 -0.0838,-0.05586 -0.13966,-0.08379c-0.05586,-0.02793 -0.11172,-0.02793 -0.16758,-0.05586c-0.05586,-0.02793 -0.13966,-0.02793 -0.19552,-0.05586c-0.05586,-0.02793 -0.13966,-0.02793 -0.19552,-0.02793c-0.13966,-0.02793 -0.2793,0 -0.41896,0c-0.13966,0 -0.25138,0.02793 -0.3631,0.02793c-0.22345,0.02793 -0.36309,0.02793 -0.36309,0.02793c0,0 0.11172,-0.05586 0.33517,-0.13965c0.08379,-0.02793 0.22344,-0.05586 0.3631,-0.08379c0.08379,0 0.13966,-0.02793 0.22345,-0.02793c0.08379,0 0.13965,0 0.22344,0c0.16758,0 0.30723,0.02793 0.44689,0.08379c0.08379,0.02793 0.13966,0.08379 0.19552,0.11172c0.05586,0.05586 0.11172,0.0838 0.13965,0.13966c0.05586,0.08379 0.08379,0.19552 0.11172,0.25137c0,0.08379 0,0.11172 0,0.11172c0,0 -0.02793,-0.02794 -0.02793,-0.0838z" fill="#99918a" stroke-width="1"/><path d="M335.03224,250.61018c0,0.05586 0,0.11172 0,0.16758c0,0.05586 -0.02794,0.13966 -0.05587,0.19552c-0.02793,0.08379 -0.05586,0.13966 -0.11172,0.22345c-0.05586,0.08379 -0.11172,0.16758 -0.16758,0.22344c-0.11172,0.13966 -0.25137,0.27931 -0.39103,0.39103c-0.27931,0.25137 -0.61448,0.44689 -0.86585,0.58655c-0.25137,0.11172 -0.41896,0.19552 -0.41896,0.19552c0,0 0.13965,-0.11173 0.3631,-0.27931c0.11172,-0.08379 0.25137,-0.16758 0.39103,-0.2793c0.13966,-0.11172 0.27931,-0.22345 0.41896,-0.33517c0.13966,-0.11172 0.2793,-0.25137 0.39102,-0.3631c0.05586,-0.08379 0.11173,-0.13966 0.16759,-0.19552c0.05586,-0.05586 0.11172,-0.11172 0.13966,-0.16758c0.02793,-0.05586 0.05586,-0.11172 0.08379,-0.16758c0.02793,-0.05586 0.02793,-0.11172 0.02793,-0.13965c0,-0.05586 -0.02793,-0.11173 -0.02793,-0.11173c0,0 0.02794,0.05586 0.05587,0.05586z" fill="#99918a" stroke-width="1"/><path d="M331.84814,257.76042c0.05586,0.08379 0.11172,0.19552 0.16758,0.33517c0.05586,0.13966 0.08379,0.30723 0.08379,0.44689c0,0.16758 -0.02793,0.30723 -0.08379,0.44689c0,0.08379 -0.05586,0.13966 -0.08379,0.19552c-0.02793,0.05586 -0.08379,0.11172 -0.11172,0.13966c-0.05586,0.05586 -0.08379,0.08379 -0.11172,0.11172c-0.02793,0.02793 -0.05586,0.05586 -0.08379,0.0838c-0.05586,0.02793 -0.08379,0.05586 -0.08379,0.05586c0,0 0.02793,-0.02794 0.05586,-0.0838c0,-0.02793 0.02793,-0.05586 0.05586,-0.08379c0.02793,-0.02793 0.05586,-0.05586 0.08379,-0.11172c0.02793,-0.02793 0.05586,-0.0838 0.08379,-0.13966c0.02793,-0.05586 0.05586,-0.11172 0.05586,-0.16758c0,-0.05586 0.02793,-0.13966 0.02793,-0.19552c0.02793,-0.05586 0.02793,-0.13966 0.02793,-0.19552c0.02793,-0.05586 0,-0.13966 0,-0.19552c0,-0.05586 0,-0.13965 -0.02793,-0.19551c-0.02793,-0.11172 -0.08379,-0.22345 -0.11172,-0.33517c-0.08379,-0.19552 -0.13966,-0.33517 -0.13966,-0.33517c0,0 0.11172,0.11172 0.19552,0.22345z" fill="#99918a" stroke-width="1"/><path d="M338.52357,257.22974c0.05586,0 0.13965,0 0.22344,0c0.05586,0 0.08379,0 0.13965,-0.02793c0.05586,0 0.0838,-0.02793 0.13966,-0.05586c0.02793,-0.02793 0.08379,-0.05587 0.11172,-0.11173c0.05586,-0.05586 0.08379,-0.0838 0.11172,-0.13966c0.02793,-0.02793 0.05586,-0.08379 0.08379,-0.13965c0.02793,-0.05586 0.02793,-0.11173 0.05586,-0.16759c0.02793,-0.11172 0.05586,-0.22344 0.08379,-0.30723c0.05586,-0.19552 0.08379,-0.30724 0.08379,-0.30724c0,0 0.02794,0.11172 0.02794,0.30724c0,0.11172 0,0.22344 -0.02794,0.30723c-0.02793,0.08379 -0.02793,0.13966 -0.05586,0.19552c-0.02793,0.08379 -0.05586,0.13966 -0.08379,0.19552c-0.05586,0.05586 -0.0838,0.11173 -0.13966,0.16759c-0.05586,0.05586 -0.11173,0.08379 -0.16759,0.11172c-0.11172,0.05586 -0.22344,0.05586 -0.33516,0.05586c-0.19552,-0.02793 -0.30724,-0.11172 -0.30724,-0.11172c0,0 0.02794,0.02793 0.05587,0.02793z" fill="#99918a" stroke-width="1"/><path d="M341.12112,257.39733c-0.16758,0.05586 -0.3631,0.05586 -0.58655,0.02793c-0.11172,-0.02793 -0.22345,-0.05586 -0.30724,-0.11172c-0.08379,-0.05586 -0.16758,-0.11172 -0.22344,-0.16758c-0.11172,-0.11172 -0.13965,-0.22345 -0.13965,-0.22345c0,0 0.02793,0.02793 0.05586,0.05586c0.02793,0.05586 0.0838,0.08379 0.13966,0.11172c0.02793,0.02793 0.08379,0.02794 0.11172,0.05587c0.02793,0.02793 0.08379,0.02793 0.11172,0.05586c0.08379,0.05586 0.19552,0.05586 0.27931,0.08379c0.19552,0.02793 0.39103,0.05587 0.53068,0.05587c0.13966,0.02793 0.25138,0.02793 0.25138,0.02793c0,0 -0.08379,0.05586 -0.22345,0.02793z" fill="#99918a" stroke-width="1"/><path d="M329.36231,255.16287c0,0.41896 -0.02793,0.92172 -0.05586,1.4524c-0.02793,0.13966 -0.02793,0.25137 -0.05586,0.39103c-0.02793,0.13966 -0.02793,0.25137 -0.05586,0.39103c-0.02793,0.13966 -0.0838,0.25137 -0.13966,0.36309c-0.08379,0.11172 -0.13966,0.16759 -0.22344,0.25138c-0.08379,0.08379 -0.16759,0.11172 -0.22345,0.16758c-0.08379,0.05586 -0.13966,0.0838 -0.19552,0.11173c-0.11173,0.05586 -0.16758,0.08379 -0.16758,0.08379c0,0 0.05586,-0.05586 0.13965,-0.11172c0.08379,-0.05586 0.19551,-0.16758 0.33517,-0.30724c0.11172,-0.13966 0.22345,-0.33516 0.25138,-0.55861c0,-0.11172 0.02793,-0.22345 0.02793,-0.3631c0,-0.13966 0.02793,-0.25137 0.02793,-0.39103c0.02793,-0.25137 0.05586,-0.50275 0.08379,-0.75412c0.02793,-0.25137 0.05586,-0.47482 0.08379,-0.67034c0.02793,-0.39103 0.08379,-0.6424 0.08379,-0.6424c0,0 0,0.27931 0.08379,0.58654z" fill="#99918a" stroke-width="1"/><path d="M328.13337,259.43626c-0.02793,0.13966 -0.02793,0.33517 -0.02793,0.58655c0.02793,0.22345 0.05586,0.50275 0.16758,0.78206c0.05586,0.13966 0.13966,0.25137 0.22345,0.39103c0.11173,0.13966 0.19552,0.30724 0.22345,0.47482c0.02793,0.16758 0.02793,0.33517 0.02793,0.50275c-0.02793,0.16758 -0.05586,0.33516 -0.11172,0.47482c-0.02793,0.16758 -0.11173,0.30724 -0.19552,0.41896c-0.08379,0.11172 -0.19552,0.22344 -0.27931,0.30723c-0.08379,0.08379 -0.19552,0.16758 -0.27931,0.19552c-0.08379,0.05586 -0.19552,0.05586 -0.25137,0.0838c-0.08379,0 -0.13965,0 -0.16758,0c-0.02793,0 -0.05587,0 -0.05587,0c0,0 0.02794,0 0.05587,0c0.05586,0 0.11172,0 0.16758,-0.02793c0.05586,-0.02793 0.13966,-0.05586 0.22345,-0.11172c0.02793,-0.02793 0.0838,-0.05586 0.11172,-0.08379c0.02793,-0.02793 0.08379,-0.05586 0.11172,-0.11172c0.08379,-0.08379 0.16759,-0.19551 0.22345,-0.30723c0.05586,-0.11172 0.13966,-0.25137 0.16758,-0.39103c0.05586,-0.13966 0.0838,-0.30723 0.0838,-0.44689c0.02793,-0.13966 0,-0.30723 -0.02793,-0.44689c-0.02793,-0.16758 -0.08379,-0.27931 -0.16758,-0.41896c-0.08379,-0.11172 -0.16759,-0.2793 -0.22344,-0.41896c-0.08379,-0.13966 -0.0838,-0.30724 -0.11173,-0.44689c0,-0.13966 0,-0.27931 0,-0.39103c0.02793,-0.25137 0.0838,-0.44689 0.11173,-0.58655c0.05586,-0.13966 0.08379,-0.22344 0.08379,-0.22344c0,0 -0.02793,0.08379 -0.08379,0.19552z" fill="#99918a" stroke-width="1"/><path d="M328.13337,265.58101c-0.02793,-0.08379 -0.0838,-0.16759 -0.11173,-0.27931c0,-0.05586 0,-0.11172 0,-0.16758c0,-0.05586 0,-0.11173 0.02793,-0.16759c0.02793,-0.05586 0.05586,-0.11172 0.0838,-0.16758c0.02793,-0.02793 0.05586,-0.08379 0.11172,-0.11172c0.08379,-0.05586 0.16759,-0.11172 0.25137,-0.13965c0.08379,-0.02793 0.13966,-0.02793 0.19552,-0.05586c0.05586,-0.02793 0.08379,-0.02794 0.08379,-0.02794c0,0 -0.02793,0.02793 -0.05586,0.05586c-0.02793,0.02793 -0.08379,0.05586 -0.13965,0.11172c-0.02793,0.02793 -0.05586,0.05586 -0.08379,0.0838c-0.02793,0.02793 -0.05586,0.05586 -0.08379,0.08379c-0.02793,0.02793 -0.05586,0.08379 -0.08379,0.11172c-0.02793,0.02793 -0.02794,0.08379 -0.05587,0.11172c0,0.05586 -0.02793,0.0838 -0.02793,0.13966c0,0.05586 0,0.08379 0,0.13965c0,0.08379 0.02793,0.16758 0.05586,0.25137c0.05586,0.16758 0.11172,0.25138 0.11172,0.25138c0,0 -0.08379,-0.05586 -0.2793,-0.22344z" fill="#99918a" stroke-width="1"/><path d="M328.63612,266.69823c0.11172,-0.02793 0.22344,-0.02794 0.3631,-0.05587c0.05586,0 0.13966,-0.02793 0.19552,-0.05586c0.05586,-0.02793 0.11172,-0.02793 0.16758,-0.08379c0.05586,-0.05586 0.0838,-0.0838 0.13966,-0.13966c0.05586,-0.05586 0.08379,-0.11173 0.11172,-0.16759c0.02793,-0.05586 0.05586,-0.11172 0.0838,-0.16758c0.02793,-0.05586 0.02793,-0.11172 0.05586,-0.16758c0.02793,-0.08379 0.02793,-0.19552 0.05586,-0.25138c0.02793,-0.08379 0.02793,-0.11172 0.02793,-0.11172c0,0 0.02793,0.05586 0.02793,0.11172c0,0.05586 0.02793,0.16758 0,0.27931c0,0.05586 0,0.13966 -0.02793,0.19552c0,0.05586 -0.02793,0.13966 -0.05586,0.19552c-0.05586,0.05586 -0.08379,0.13966 -0.13965,0.19552c-0.02793,0.05586 -0.0838,0.11172 -0.16759,0.16758c-0.08379,0.05586 -0.13965,0.0838 -0.22344,0.11173c-0.08379,0.02793 -0.13966,0.05586 -0.22344,0.05586c-0.13966,0.02793 -0.27931,0.02793 -0.39103,0c-0.22345,-0.05586 -0.3631,-0.11172 -0.3631,-0.11172c0,0 0.16759,0.02793 0.3631,0z" fill="#99918a" stroke-width="1"/><path d="M337.37841,250.19122c-0.16758,-0.05586 -0.33516,-0.13966 -0.53068,-0.22345c-0.19552,-0.08379 -0.39103,-0.13966 -0.61448,-0.22344c-0.08379,-0.02793 -0.19551,-0.05586 -0.30723,-0.08379c-0.11172,-0.02793 -0.19552,-0.08379 -0.30724,-0.08379c-0.11172,0 -0.22345,-0.02793 -0.30724,-0.02793c-0.11172,0 -0.19551,0 -0.2793,0c-0.16758,0.02793 -0.30724,0.05586 -0.39103,0.08379c-0.08379,0.05586 -0.13966,0.08379 -0.13966,0.08379c0,0 0.02793,-0.05586 0.11172,-0.11172c0.08379,-0.05586 0.22344,-0.11172 0.39103,-0.13965c0.08379,0 0.16759,-0.02793 0.27931,-0.02793c0.08379,0 0.19551,0.02793 0.30723,0.02793c0.11172,0 0.22345,0.02793 0.33517,0.05586c0.11172,0.02793 0.22344,0.05586 0.33517,0.08379c0.08379,0.02793 0.19552,0.08379 0.30724,0.11172c0.11172,0.02793 0.22344,0.0838 0.30723,0.13966c0.19552,0.08379 0.36309,0.19551 0.50275,0.2793c0.13966,0.08379 0.25138,0.16758 0.33517,0.22344c0.08379,0.05586 0.13966,0.0838 0.13966,0.0838c0,0 -0.22345,-0.08379 -0.47483,-0.25137z" fill="#99918a" stroke-width="1"/><path d="M341.31663,262.98346c-0.05586,0.02793 -0.13966,0.05586 -0.25138,0.05586c-0.05586,0 -0.11172,0 -0.16758,0c-0.05586,0 -0.13966,0 -0.19552,-0.02793c-0.08379,-0.02793 -0.13966,-0.05586 -0.19552,-0.0838c-0.05586,-0.02793 -0.11173,-0.05586 -0.16759,-0.11172c-0.05586,-0.05586 -0.11172,-0.11173 -0.13965,-0.16759c-0.05586,-0.05586 -0.08379,-0.11172 -0.11172,-0.16758c-0.05586,-0.11172 -0.08379,-0.22344 -0.11172,-0.33517c-0.02793,-0.11172 -0.02793,-0.19552 -0.02793,-0.25137c0,-0.05586 0,-0.0838 0,-0.0838c0,0 0,0.02794 0.02793,0.0838c0.02793,0.05586 0.02794,0.13966 0.0838,0.22345c0,0.05586 0.02793,0.08379 0.05586,0.13965c0.02793,0.02793 0.05586,0.0838 0.08379,0.13966c0.02793,0.05586 0.08379,0.0838 0.11172,0.13966c0.02793,0.05586 0.08379,0.08379 0.11172,0.13965c0.05586,0.02793 0.0838,0.08379 0.13966,0.11172c0.02793,0.02793 0.0838,0.05586 0.13966,0.08379c0.11172,0.05586 0.22344,0.08379 0.30723,0.08379c0.08379,0.02793 0.16759,0.02794 0.22345,0.02794c0.05586,0 0.08379,0 0.08379,0c0,0 -0.02793,0 0,0z" fill="#99918a" stroke-width="1"/><path d="M340.89767,258.54248c0,0.16758 0,0.39103 -0.11172,0.58655c-0.05586,0.08379 -0.11172,0.19552 -0.19552,0.25137c-0.05586,0.02793 -0.08379,0.05586 -0.13965,0.08379c-0.05586,0.02793 -0.0838,0.05587 -0.13966,0.05587c-0.08379,0.02793 -0.13966,0.02793 -0.19552,0.02793c-0.05586,0 -0.08379,0 -0.08379,0c0,0 0,0 0.05586,-0.02793c0.02793,0 0.05586,-0.02794 0.08379,-0.02794c0.02793,-0.02793 0.05586,-0.02793 0.0838,-0.05586c0.02793,0 0.05586,-0.02793 0.08379,-0.05586c0.02793,-0.02793 0.05586,-0.05586 0.08379,-0.08379c0.02793,-0.02793 0.05586,-0.08379 0.0838,-0.11172c0,-0.02793 0.02793,-0.05586 0.05586,-0.11172c0.05586,-0.11172 0.08379,-0.19552 0.11172,-0.27931c0.02793,-0.08379 0.02793,-0.16758 0.05586,-0.25137c0.02793,-0.13966 0.05586,-0.25137 0.05586,-0.25137c0,0 0.05586,0.11172 0.11172,0.25137z" fill="#99918a" stroke-width="1"/><path d="M340.2832,266.16755c-0.16758,0 -0.33517,-0.05586 -0.53069,-0.11172c-0.08379,-0.05586 -0.19551,-0.0838 -0.2793,-0.13966c-0.08379,-0.05586 -0.16758,-0.11172 -0.25137,-0.19552c-0.05586,-0.02793 -0.0838,-0.05586 -0.11173,-0.11172c-0.02793,-0.05586 -0.05586,-0.08379 -0.08379,-0.13965c-0.02793,-0.05586 -0.05586,-0.0838 -0.08379,-0.13966c-0.02793,-0.02793 -0.02793,-0.08379 -0.05586,-0.13965c0,-0.05586 -0.02793,-0.0838 -0.02793,-0.13966c0,-0.05586 0,-0.0838 0,-0.13966c0,-0.08379 0,-0.16758 0.02793,-0.25137c0.05586,-0.30723 0.16758,-0.50275 0.16758,-0.50275c0,0 0,0.05586 -0.02793,0.13966c0,0.08379 -0.02793,0.22344 -0.02793,0.36309c0,0.08379 0,0.16758 0,0.25137c0,0.02793 0.02793,0.08379 0.02793,0.11172c0.02793,0.05586 0.02793,0.11172 0.05586,0.13966c0.02793,0.05586 0.02793,0.08379 0.05586,0.13965l0.0838,0.11172c0.02793,0.02793 0.05586,0.08379 0.08379,0.11172c0.05586,0.05586 0.0838,0.08379 0.11173,0.11172c0.05586,0.05586 0.13965,0.11172 0.22344,0.16758c0.08379,0.05586 0.16758,0.11172 0.25137,0.13965c0.16758,0.08379 0.33517,0.13966 0.47482,0.16759c0.30723,0.05586 0.50275,0.08379 0.50275,0.08379c0,0 -0.19551,0.02793 -0.58654,-0.02793z" fill="#99918a" stroke-width="1"/><path d="M340.70216,267.17305c-0.11172,0.02793 -0.25137,0.05586 -0.39103,0.05586c-0.08379,-0.02793 -0.13966,0 -0.22345,-0.02793c-0.08379,-0.02793 -0.13965,-0.02793 -0.22344,-0.05586c-0.08379,-0.02793 -0.13966,-0.05586 -0.22345,-0.0838c-0.08379,-0.02793 -0.13966,-0.08379 -0.19552,-0.11172c-0.05586,-0.02793 -0.11172,-0.0838 -0.16758,-0.11173c-0.05586,-0.02793 -0.11172,-0.08379 -0.13966,-0.11172c-0.08379,-0.08379 -0.13965,-0.16758 -0.16758,-0.22344c-0.02793,-0.05586 -0.05587,-0.0838 -0.05587,-0.0838c0,0 0.02794,0.02793 0.0838,0.05586c0.02793,0.02793 0.05586,0.05586 0.08379,0.08379c0.02793,0.02793 0.05586,0.05586 0.11172,0.08379c0.02793,0.02793 0.08379,0.05586 0.13965,0.0838c0.05586,0.02793 0.11172,0.05586 0.16758,0.08379c0.13966,0.05586 0.25137,0.11172 0.39103,0.13966c0.25137,0.08379 0.53068,0.08379 0.75413,0.08379c0.22345,0 0.3631,-0.02793 0.3631,-0.02793c0,0 -0.13965,0.08379 -0.30723,0.16758z" fill="#99918a" stroke-width="1"/><path d="M339.78044,270.41301c-0.11172,-0.11172 -0.25137,-0.25137 -0.33517,-0.44689c-0.05586,-0.08379 -0.0838,-0.19552 -0.0838,-0.27931c0,-0.08379 0,-0.16759 0,-0.25138c0.02793,-0.05586 0.05587,-0.13965 0.05587,-0.16758c0.02793,-0.02793 0.02793,-0.05586 0.02793,-0.05586c0,0 0,0.11172 0.02793,0.25138c0.02793,0.13966 0.05586,0.30723 0.13966,0.47482c0.08379,0.16758 0.16758,0.33517 0.25137,0.44689c0.08379,0.11172 0.13965,0.19552 0.13965,0.19552c0,0 -0.11172,-0.05586 -0.22345,-0.16758z" fill="#99918a" stroke-width="1"/><path d="M338.91459,270.10577c0.02793,0.11172 0.05587,0.2793 0.05587,0.41896c-0.02793,0.05586 -0.02793,0.13966 -0.02793,0.22345c-0.02793,0.08379 -0.02793,0.16759 -0.05586,0.25138c0,0.08379 -0.05586,0.13966 -0.08379,0.22345c-0.02793,0.08379 -0.11172,0.13966 -0.13966,0.19552c-0.02793,0.08379 -0.08379,0.11172 -0.13965,0.16758c-0.05586,0.05586 -0.11173,0.08379 -0.16759,0.11172c-0.08379,0.08379 -0.19552,0.11172 -0.25137,0.13965c-0.08379,0.05586 -0.11172,0.05586 -0.11172,0.05586c0,0 0.02794,-0.02794 0.0838,-0.0838c0.02793,-0.02793 0.05586,-0.05586 0.08379,-0.08379c0.02793,-0.02793 0.08379,-0.0838 0.11172,-0.11173c0.02793,-0.05586 0.0838,-0.08379 0.11173,-0.13965c0.02793,-0.05586 0.08379,-0.11173 0.11172,-0.16759c0.02793,-0.08379 0.08379,-0.13966 0.11172,-0.19552c0.02793,-0.05586 0.05586,-0.11172 0.08379,-0.19552c0.05586,-0.13966 0.05586,-0.2793 0.0838,-0.41896c0,-0.13966 0,-0.27931 0,-0.39103c-0.02793,-0.22345 -0.05586,-0.39103 -0.05586,-0.39103c0,0 0.11172,0.13965 0.19551,0.39103z" fill="#99918a" stroke-width="1"/><path d="M336.28911,273.82055c-0.02793,0 -0.08379,0 -0.11172,-0.02793c-0.02793,0 -0.08379,-0.05586 -0.11172,-0.0838c-0.05586,-0.02793 -0.08379,-0.0838 -0.11172,-0.13966c-0.02793,-0.05586 -0.02793,-0.13965 -0.05586,-0.19551c-0.02793,-0.08379 -0.02793,-0.13965 -0.02793,-0.22344c0,-0.08379 0,-0.13966 0,-0.22345c0.02793,-0.16758 0.05586,-0.2793 0.08379,-0.41896c0.05586,-0.11172 0.11172,-0.25138 0.13965,-0.33517c0.08379,-0.19552 0.16759,-0.30723 0.16759,-0.30723c0,0 0,0.13965 -0.05586,0.33516c-0.02793,0.08379 -0.05586,0.22345 -0.08379,0.33517c-0.02793,0.13966 -0.05586,0.25137 -0.05586,0.39103c0,0.13966 0,0.2793 0,0.39103c0,0.05586 0,0.11172 0.02793,0.16758c0,0.05586 0.02793,0.0838 0.05586,0.13966c0.02793,0.05586 0.05586,0.08379 0.08379,0.11172c0.02793,0.02793 0.05586,0.05587 0.08379,0.05587c0.05586,0.02793 0.08379,0.02793 0.08379,0.02793c0,0 -0.02793,0 -0.11172,0z" fill="#99918a" stroke-width="1"/><path d="M335.89809,273.34572c-0.02793,0.05586 -0.05586,0.13966 -0.11172,0.19552c-0.02793,0.05586 -0.0838,0.13966 -0.13966,0.19552c-0.05586,0.05586 -0.11172,0.11173 -0.19552,0.16759c-0.05586,0.05586 -0.13965,0.11172 -0.22344,0.13966c-0.08379,0.05586 -0.16759,0.08379 -0.25138,0.11172c-0.08379,0.02793 -0.16758,0.02793 -0.25137,0.05586c-0.08379,0 -0.16758,0 -0.25137,0c-0.08379,0 -0.16758,-0.02793 -0.22344,-0.02793c-0.13966,0 -0.22345,-0.05586 -0.30724,-0.08379c-0.08379,-0.02793 -0.11172,-0.05586 -0.11172,-0.05586c0,0 0.02793,0 0.11172,0c0.08379,0 0.16759,0.02793 0.30724,0.02793c0.05586,0 0.11172,0 0.19552,0c0.08379,0 0.13965,-0.02793 0.22344,-0.02793c0.05586,-0.02793 0.13966,-0.02793 0.22345,-0.05586c0.08379,-0.02793 0.16758,-0.02793 0.22344,-0.08379c0.05586,-0.02793 0.13966,-0.05586 0.19552,-0.11172c0.08379,-0.02793 0.13966,-0.0838 0.19552,-0.13966c0.02793,-0.05586 0.08379,-0.11173 0.13965,-0.16759c0.02793,-0.05586 0.08379,-0.11172 0.11172,-0.16758c0.08379,-0.08379 0.13966,-0.19552 0.16759,-0.25137c0.02793,-0.08379 0.05586,-0.11172 0.05586,-0.11172c0,0 -0.02793,0.16758 -0.08379,0.39102z" fill="#99918a" stroke-width="1"/><path d="M332.82571,274.51881c-0.08379,0 -0.16758,0.02793 -0.25137,0.05586c-0.08379,0.02793 -0.16758,0.02793 -0.27931,0.02793c-0.05586,0 -0.11172,0 -0.16758,0c-0.05586,0 -0.11173,0 -0.16759,-0.02793c-0.11172,-0.02793 -0.22344,-0.0838 -0.30723,-0.13966l-0.13966,-0.11172c-0.05586,-0.02793 -0.08379,-0.08379 -0.11172,-0.11172c-0.08379,-0.05586 -0.11173,-0.16758 -0.16759,-0.25137c-0.08379,-0.16758 -0.13966,-0.3631 -0.11172,-0.53068c0.02793,-0.16758 0.11172,-0.27931 0.19552,-0.33517c0.08379,-0.05586 0.13966,-0.05586 0.13966,-0.05586c0,0 -0.05586,0.02793 -0.11172,0.08379c-0.05586,0.05586 -0.11172,0.16758 -0.11172,0.30724c0.02793,0.13966 0.0838,0.27931 0.16759,0.44689c0.05586,0.08379 0.11172,0.16759 0.16758,0.22345c0.02793,0.05586 0.05586,0.08379 0.08379,0.11172l0.11172,0.0838c0.08379,0.02793 0.16759,0.08379 0.25138,0.11172c0.05586,0 0.08379,0.02793 0.13965,0.02793c0.05586,0.02793 0.0838,0.02793 0.13966,0.02793c0.19552,0.02793 0.36309,0 0.50275,-0.02793c0.16758,-0.05586 0.27931,-0.08379 0.3631,-0.11172c0.08379,-0.02793 0.13966,-0.05586 0.13966,-0.05586c0,0 -0.16759,0.13965 -0.47483,0.25137z" fill="#99918a" stroke-width="1"/><path d="M333.30054,272.36815c-0.05586,0 -0.13966,0 -0.25138,-0.02793c-0.05586,-0.02793 -0.11172,-0.02793 -0.16758,-0.05586c-0.05586,-0.02793 -0.11172,-0.05586 -0.16758,-0.0838c-0.05586,-0.02793 -0.11173,-0.08379 -0.16759,-0.13965c-0.05586,-0.05586 -0.0838,-0.11173 -0.13966,-0.16759c-0.02793,-0.05586 -0.05586,-0.11172 -0.08379,-0.19552c-0.02793,-0.05586 -0.05586,-0.13966 -0.05586,-0.19552c0,-0.13966 0,-0.25137 0,-0.3631c0,-0.11172 0.05586,-0.19552 0.05586,-0.25137c0.02793,-0.05586 0.02793,-0.08379 0.02793,-0.08379c0,0 0,0.02793 0,0.08379c0,0.05586 0,0.13965 0.02793,0.25137c0,0.05586 0.02793,0.11172 0.02793,0.16758c0,0.05586 0.02794,0.11173 0.02794,0.16759c0,0.05586 0.02793,0.11172 0.05586,0.16758c0.02793,0.05586 0.05586,0.11172 0.08379,0.16758c0.02793,0.02793 0.05586,0.0838 0.11172,0.13966c0.05586,0.05586 0.08379,0.11172 0.13965,0.13966c0.08379,0.08379 0.19552,0.13965 0.27931,0.16758c0.08379,0.05586 0.16758,0.0838 0.22344,0.0838c0.05586,0.02793 0.08379,0.02793 0.08379,0.02793c0,0 -0.02793,0 -0.11172,0z" fill="#99918a" stroke-width="1"/><path d="M330.67505,269.07234c0.05586,-0.05586 0.11172,-0.11172 0.13966,-0.19552c0.02793,-0.05586 0.02793,-0.0838 0.05586,-0.13966c0,-0.02793 0.02793,-0.08379 0.02793,-0.13965c0.05586,-0.19552 0.05586,-0.39103 0.08379,-0.55861c0,-0.16758 0.02793,-0.27931 0.02793,-0.27931c0,0 0.05586,0.08379 0.08379,0.25137c0,0.08379 0.02793,0.16758 0.02793,0.27931c0,0.05586 0,0.11172 0,0.16758c0,0.05586 0,0.11173 -0.02793,0.16759c-0.02793,0.05586 -0.02793,0.11172 -0.05586,0.16758c-0.02793,0.05586 -0.05586,0.0838 -0.08379,0.13966c-0.02793,0.02793 -0.0838,0.08379 -0.11173,0.11172c-0.02793,0.02793 -0.08379,0.05586 -0.11172,0.08379c-0.08379,0.02793 -0.13966,0.05586 -0.19552,0.05586c-0.05586,0 -0.0838,0 -0.0838,0c0,0 0.11172,-0.02793 0.22345,-0.11172z" fill="#99918a" stroke-width="1"/><path d="M337.74151,271.33472c0.02793,-0.16758 0.05586,-0.41896 0.08379,-0.67034c0.02793,-0.11172 0.02794,-0.25137 0.02794,-0.3631c0,-0.05586 0,-0.11172 0,-0.16758c-0.02793,-0.05586 -0.02794,-0.08379 -0.02794,-0.13965c-0.02793,-0.08379 -0.02793,-0.16759 -0.05586,-0.22345c-0.02793,-0.05586 -0.02793,-0.08379 -0.02793,-0.08379c0,0 0.02793,0.02793 0.05586,0.08379c0.02793,0.05586 0.08379,0.13966 0.11172,0.22345c0.02793,0.11172 0.05586,0.22344 0.08379,0.33517c0,0.13966 0,0.25137 0,0.39103c-0.02793,0.27931 -0.0838,0.53069 -0.16759,0.69827c-0.08379,0.16758 -0.13965,0.2793 -0.13965,0.2793c0,0 0.02793,-0.13965 0.05586,-0.3631z" fill="#99918a" stroke-width="1"/></g><path d="M332.74079,255.89387c-0.01988,-0.32378 0.21397,-0.59009 0.52234,-0.59482c0.30836,-0.00473 0.57448,0.2539 0.59436,0.57767c0.01988,0.32378 -0.21398,0.59009 -0.52235,0.59482c-0.30836,0.00473 -0.57447,-0.2539 -0.59436,-0.57768z" fill="#d23d3d" stroke="none" stroke-width="1" stroke-linecap="butt"/><path d="M336.79594,255.78316c-0.01905,-0.32378 0.20506,-0.59009 0.50058,-0.59483c0.29552,-0.00473 0.55054,0.2539 0.56959,0.57767c0.01905,0.32378 -0.20506,0.5901 -0.50057,0.59483c-0.29552,0.00473 -0.55054,-0.25389 -0.5696,-0.57767z" fill="#d23d3d" stroke="none" stroke-width="1" stroke-linecap="butt"/><path d="M332.93744,255.41425c-0.50275,0 -0.75413,0.33517 -0.75413,0.33517c0.02793,-0.25137 0.30724,-0.44689 0.30724,-0.44689l-0.41896,0.0838c0.27931,-0.67034 1.20101,-0.55862 1.20101,-0.55862l-0.30723,-0.08379c0.55861,-0.22345 1.28481,-0.0838 1.28481,-0.0838l-0.25137,-0.16759c0.58655,-0.05586 0.94964,0.33517 0.80998,0.6424c-0.13966,0.25137 -1.34067,0.33517 -1.87135,0.27931z" fill="#c8bdb4" stroke="none" stroke-width="1" stroke-linecap="butt"/><path d="M335.95395,255.16287c-0.16758,-0.30723 0.13965,-0.69826 0.75413,-0.72619l-0.22345,0.19552c0,0 0.69826,-0.19551 1.28481,-0.02793l-0.30723,0.11172c0,0 0.89378,-0.19552 1.22895,0.44689l-0.44689,-0.02793c0,0 0.27931,0.16759 0.3631,0.41896c0,0 -0.27931,-0.33516 -0.78206,-0.25137c-0.50275,0.05586 -1.7317,0.11172 -1.87135,-0.13966z" fill="#c8bdb4" stroke="none" stroke-width="1" stroke-linecap="butt"/><path d="M333.83122,256.39182c-0.08379,0.05586 -0.22345,0.11172 -0.33517,0.13966c-0.11172,0.02793 -0.25137,0.05586 -0.33516,0.08379c-0.02793,0.02793 -0.0838,0.02793 -0.11173,0.02793c-0.02793,0 -0.05586,0 -0.05586,0c0,0 0.02794,-0.05586 0.11173,-0.11172c0.08379,-0.05586 0.19551,-0.13965 0.33516,-0.16758c0.13966,-0.02793 0.25138,-0.05586 0.3631,-0.05586c0.11172,0 0.16758,0.02793 0.16758,0.02793c0,0 -0.05586,0.05586 -0.13966,0.05586z" fill="#666168" stroke="none" stroke-width="1" stroke-linecap="butt"/><path d="M337.54599,256.41975c-0.08379,0 -0.22344,0 -0.33517,-0.02793c-0.11172,-0.02793 -0.22345,-0.05586 -0.30724,-0.08379c-0.08379,-0.02793 -0.13965,-0.05586 -0.13965,-0.05586c0,0 0.08379,-0.02793 0.16758,-0.05586c0.08379,-0.02793 0.22345,-0.02793 0.33517,0c0.11172,0.02793 0.22344,0.05586 0.30723,0.11172c0.08379,0.05586 0.13966,0.08379 0.13966,0.08379c0,0 -0.05586,0.02793 -0.16758,0.02793z" fill="#666168" stroke="none" stroke-width="1" stroke-linecap="butt"/><g stroke="none" stroke-width="1" stroke-linecap="butt"><path d="M336.87566,258.40283c0,0 0.41896,-0.11172 0.7262,0.3631c0.30723,0.47482 0.58655,0.41896 0.58655,0.41896c0,0 -0.30724,0.30724 -0.67034,0.11172c0,0 0.33517,0.50275 -0.11172,0.83792c0,0 0,-0.39103 -0.13965,-0.58654c0,0 0.11173,0.67033 -0.50275,0.80999c0,0 0,-0.16758 0,-0.41896c0,0 -0.02793,0.19551 -0.41896,0.30723l-0.02793,-0.58655c0.08379,0.50275 -0.44689,0.69827 -0.44689,0.69827c-0.19552,-0.19552 -0.05586,-0.69827 -0.05586,-0.69827c-0.13966,0.08379 -0.19552,0.75413 -0.19552,0.75413c-0.16758,-0.16758 -0.19552,-0.75413 -0.19552,-0.75413c0.08379,0.6424 -0.58654,0.83792 -0.58654,0.83792c0.13966,-0.13966 -0.16759,-0.83792 -0.16759,-0.83792c0.08379,0.61448 -0.25137,0.83792 -0.25137,0.83792c-0.25137,-0.13966 -0.19552,-0.61448 -0.19552,-0.61448l-0.30724,0.61448c-0.41896,-0.27931 -0.08379,-0.75413 -0.08379,-0.75413c-0.13966,0.08379 -0.33517,0.50275 -0.33517,0.50275c-0.02793,-0.3631 0.13966,-0.80999 0.13966,-0.80999c-0.11172,0.19552 -0.55861,0.0838 -0.55861,0.0838c0.13966,0 0.41896,-0.30724 0.61447,-0.53069c0.75412,-0.92171 2.01101,-0.58655 2.01101,-0.58655" fill="#c8bdb4"/><path d="M337.93702,259.12903c-0.08379,-0.02793 -0.16759,-0.0838 -0.22345,-0.13966c-0.08379,-0.05586 -0.13966,-0.13966 -0.19552,-0.19552c-0.11172,-0.13966 -0.25137,-0.25137 -0.3631,-0.30723c-0.08379,-0.02793 -0.13965,-0.05586 -0.16758,-0.05586c-0.02793,-0.02793 -0.05586,-0.02794 -0.05586,-0.02794c0,0 0.08379,-0.05586 0.25137,-0.02793c0.08379,0 0.16759,0.02794 0.25138,0.0838c0.08379,0.05586 0.16758,0.11172 0.22344,0.19552c0.05586,0.08379 0.11172,0.16759 0.16758,0.22345c0.05586,0.05586 0.11173,0.11172 0.16759,0.16758c0.05586,0.05586 0.11172,0.08379 0.13966,0.11172c0.02793,0.02793 0.05586,0.02793 0.05586,0.02793c0,0 -0.11172,0.02793 -0.25137,-0.05586z" fill="#99918a"/><path d="M337.37841,259.68764c0,0.11172 0,0.25137 -0.08379,0.39103c-0.02793,0.08379 -0.0838,0.13965 -0.13966,0.16758c-0.05586,0.05586 -0.11172,0.08379 -0.16758,0.08379c-0.05586,0.02793 -0.11172,0.02793 -0.13965,0.02793c-0.02793,0 -0.05586,0 -0.05586,0c0,0 0,0 0.02793,-0.02793c0.02793,-0.02793 0.05586,-0.05586 0.08379,-0.08379c0.02793,-0.02793 0.08379,-0.08379 0.11172,-0.11172c0.05586,-0.05586 0.08379,-0.08379 0.11172,-0.13965c0.05586,-0.11172 0.0838,-0.22345 0.11173,-0.30724c0.02793,-0.08379 0.02793,-0.16758 0.02793,-0.16758c0,0 0.05586,0.08379 0.11172,0.16758z" fill="#99918a"/><path d="M334.50155,258.48662c-0.19552,0.08379 -0.44689,0.19552 -0.6424,0.3631c-0.11172,0.08379 -0.19552,0.16758 -0.27931,0.27931c-0.08379,0.08379 -0.19551,0.16758 -0.2793,0.22344c-0.16758,0.11172 -0.30724,0.16759 -0.30724,0.16759c0,0 0.11172,-0.11173 0.25137,-0.25138c0.05586,-0.05586 0.13966,-0.16758 0.22345,-0.25137c0.02793,-0.05586 0.05586,-0.11172 0.11172,-0.16758c0.05586,-0.02793 0.11173,-0.0838 0.16759,-0.13966c0.25137,-0.16758 0.53068,-0.27931 0.72619,-0.30724c0.22345,-0.02793 0.3631,-0.02793 0.3631,-0.02793c0,0 -0.13966,0.05587 -0.33517,0.11173z" fill="#99918a"/><path d="M334.25018,260.02281c0,0.05586 0.02793,0.11172 0.05586,0.19552c0.02793,0.05586 0.02793,0.13966 0.05586,0.19552c0,0.05586 0.02794,0.11172 0.02794,0.11172c0,0 -0.05587,0 -0.11173,-0.02793c-0.08379,-0.05586 -0.13965,-0.13966 -0.16758,-0.22345c-0.02793,-0.08379 -0.02793,-0.19552 0,-0.25137c0.02793,-0.08379 0.05586,-0.11172 0.05586,-0.11172c0,0 0.02793,0.02793 0.08379,0.11172z" fill="#99918a"/><path d="M335.81429,259.79936c0.02793,0.05586 0.02793,0.13966 0.02793,0.22345c0,0.08379 0,0.16758 0,0.22344c0,0.02793 0,0.05586 0,0.08379v0.02793c0,0 -0.05586,-0.02793 -0.11172,-0.08379c-0.05586,-0.05586 -0.0838,-0.16758 -0.0838,-0.25137c0,-0.08379 0.02793,-0.19552 0.05586,-0.25137c0.02793,-0.08379 0.05586,-0.11173 0.05586,-0.11173c0,0 0.02793,0.05586 0.05586,0.13966z" fill="#99918a"/><path d="M334.72499,259.79936c0.05586,0.05586 0.11172,0.16758 0.13966,0.27931c0.02793,0.11172 0.02793,0.22345 0,0.30724c-0.02793,0.11172 -0.0838,0.11172 -0.0838,0.11172c0,0 0,0 0,-0.02793c0,0 -0.02793,-0.05586 -0.02793,-0.08379c-0.02793,-0.08379 -0.05586,-0.16758 -0.08379,-0.27931c-0.02793,-0.08379 -0.05586,-0.19552 -0.05586,-0.27931c0,-0.08379 0,-0.13966 0,-0.13966c0,0 0.05586,0.05586 0.11172,0.11172z" fill="#99918a"/><path d="M335.45119,259.99487c0.02793,0.02793 0.05586,0.11173 0.0838,0.16759c0.02793,0.08379 0.02793,0.13965 0.02793,0.19551c0,0.02793 0,0.02793 0,0.05586c0,0.02793 0,0.02793 0,0.02793c0,0 -0.02793,0 -0.08379,-0.05586c-0.05586,-0.05586 -0.0838,-0.11172 -0.11173,-0.19552c-0.02793,-0.05586 0,-0.13966 0,-0.19552c0,-0.05586 0.02793,-0.08379 0.02793,-0.08379c0,0 0.02793,0.02793 0.05586,0.08379z" fill="#99918a"/><path d="M337.60185,259.3804c0.02793,0.08379 0.0838,0.19552 0.0838,0.33517c0,0.08379 -0.02793,0.13965 -0.05586,0.19551c-0.02793,0.05586 -0.0838,0.11172 -0.11173,0.13965c-0.08379,0.05586 -0.13966,0.05586 -0.13966,0.05586c0,0 0.05586,-0.05586 0.0838,-0.13965c0.02793,-0.05586 0.05586,-0.16758 0.05586,-0.25137c0.02793,-0.08379 0,-0.19552 0,-0.27931c0,-0.08379 0,-0.13965 0,-0.13965c0,0 0.05586,0.02793 0.08379,0.08379z" fill="#99918a"/><path d="M333.66363,260.4697c-0.02793,-0.02793 -0.08379,-0.05586 -0.11172,-0.11172c0,-0.02793 -0.02793,-0.05586 -0.02793,-0.08379c0,-0.02793 0,-0.05586 0,-0.08379c0,-0.13966 0.05586,-0.25138 0.11172,-0.30724c0.05586,-0.08379 0.11173,-0.11172 0.11173,-0.11172c0,0 0,0.05586 0,0.13965c-0.02793,0.08379 -0.02794,0.19552 -0.02794,0.27931c0,0.08379 0.02793,0.16759 0.05586,0.22345c0.05586,0.05586 0.08379,0.11172 0.08379,0.11172c0,0 -0.05586,0.02793 -0.19552,-0.05586z" fill="#99918a"/><path d="M334.94844,258.59834c-0.08379,0.05586 -0.16758,0.11172 -0.27931,0.16758c-0.11172,0.05586 -0.19551,0.13966 -0.2793,0.19552c-0.08379,0.05586 -0.13966,0.11173 -0.13966,0.11173c0,0 0,-0.0838 0.05586,-0.16759c0,-0.02793 0.02794,-0.0838 0.0838,-0.13966c0.05586,-0.05586 0.11172,-0.11172 0.16758,-0.13966c0.11172,-0.08379 0.25137,-0.11172 0.3631,-0.11172c0.11172,0 0.16759,0.02793 0.16759,0.02793c0,0 -0.05586,0.02793 -0.13966,0.05586z" fill="#99918a"/><path d="M335.31154,258.65421c-0.02793,0.05586 -0.08379,0.08379 -0.11172,0.11172c-0.05586,0.02793 -0.08379,0.02793 -0.13965,0.05586c-0.05586,0.02793 -0.0838,0.02794 -0.0838,0.02794c0,0 0,-0.02794 0,-0.0838c0.02793,-0.02793 0.05587,-0.11172 0.11173,-0.13966c0.05586,-0.05586 0.11172,-0.05586 0.16758,-0.05586c0.05586,0 0.08379,0.02793 0.08379,0.02793c0,0 -0.02793,0.02793 -0.02793,0.05586z" fill="#99918a"/><path d="M336.76394,258.48662c0.05586,0 0.13965,0.05586 0.22344,0.11172c0.08379,0.05586 0.11172,0.16758 0.13965,0.22344c0,0.05586 0,0.11173 0,0.11173c0,0 -0.02793,-0.02793 -0.08379,-0.05586c-0.05586,-0.05586 -0.11173,-0.0838 -0.16759,-0.13966c-0.05586,-0.02793 -0.11172,-0.0838 -0.16758,-0.13966c-0.05586,-0.05586 -0.08379,-0.08379 -0.08379,-0.08379c0,0 0.05586,0 0.13966,-0.02793z" fill="#99918a"/></g><g stroke="none" stroke-width="1" stroke-linecap="butt"><path d="M335.50705,255.69356c0.27931,-0.02793 1.14515,0.16758 1.08929,1.81549c0,0 0.94964,1.0055 -0.30724,1.11722c-1.25688,0.11172 -1.84342,-0.33516 -1.42446,-0.67033c0,0 -0.41896,-2.17859 0.6424,-2.26238z" fill="#847e87"/><path d="M336.17739,255.88907c0.08379,0.05586 0.13966,0.11172 0.19552,0.16758c0.05586,0.08379 0.08379,0.13966 0.13965,0.22345c0.05586,0.05586 0.08379,0.13965 0.11172,0.22344c0.05586,0.16758 0.08379,0.33517 0.11172,0.50275c0,0.08379 0,0.16758 0,0.25137l-0.02793,0.25137l-0.02793,-0.05586c0.13966,0.13966 0.25138,0.2793 0.33517,0.47482c0.02793,0.08379 0.05586,0.19552 0.02793,0.30724c0,0.11172 -0.0838,0.19552 -0.16759,0.25137c-0.16758,0.11172 -0.3631,0.16758 -0.55861,0.16758c-0.19552,0 -0.3631,0 -0.55861,-0.02794c0.19552,0 0.39103,-0.02793 0.55861,-0.05586c0.08379,0 0.16759,-0.02793 0.25138,-0.05586c0.08379,-0.02793 0.16758,-0.05586 0.22344,-0.11172c0.05586,-0.05586 0.11172,-0.11172 0.11172,-0.19551c0.02793,-0.05586 0,-0.13965 -0.02793,-0.22344c-0.08379,-0.13966 -0.19551,-0.30724 -0.30723,-0.41896l-0.02794,-0.02794v-0.02793v-0.25137c0,-0.08379 0,-0.16758 0,-0.25137c-0.02793,-0.16758 -0.02793,-0.33517 -0.08379,-0.47482c-0.02793,-0.08379 -0.05586,-0.13966 -0.08379,-0.22345c-0.02793,-0.08379 -0.05586,-0.16758 -0.11172,-0.22344c-0.08379,-0.11172 -0.19551,-0.25138 -0.33517,-0.33517c0.05586,0.02793 0.13965,0.0838 0.25137,0.13966z" fill="#666168"/><path d="M335.95395,257.48112c0.11172,-0.02793 0.25137,-0.08379 0.39103,-0.08379c0.13966,0.02793 0.27931,0.08379 0.3631,0.16758c0.05586,0.08379 0.08379,0.13965 0.08379,0.13965c0,0 -0.02793,-0.02793 -0.05586,-0.02793c-0.02793,-0.02793 -0.05586,-0.02793 -0.11172,-0.05586c-0.02793,-0.02793 -0.0838,-0.05586 -0.13966,-0.05586c-0.05586,-0.02793 -0.11172,-0.02794 -0.16758,-0.02794c-0.11172,0 -0.22344,0.02794 -0.33517,0.02794c-0.08379,0 -0.16758,0 -0.16758,0c0,0 0.02793,-0.05586 0.13965,-0.0838z" fill="#666168"/></g><path d="M337.04324,253.71048c-0.11172,0 -0.25138,0 -0.44689,0.02793c-0.19552,0.02793 -0.39103,0.05586 -0.61447,0.11172c-0.11172,0.02793 -0.22345,0.05587 -0.33517,0.11173c-0.11172,0.05586 -0.25137,0.08379 -0.39103,0.11172c-0.27931,0.02793 -0.53068,-0.02793 -0.75413,-0.05586c-0.25137,-0.05586 -0.44689,-0.08379 -0.6424,-0.08379c-0.19552,-0.02793 -0.33517,-0.02793 -0.44689,-0.02793c-0.11172,0 -0.16759,0 -0.16759,0c0,0 0.22345,-0.05586 0.61448,-0.0838c0.19552,0 0.41896,0 0.6424,0.02793c0.22345,0 0.47482,0.05587 0.69826,0.02794c0.11172,0 0.22345,-0.02794 0.33517,-0.0838c0.11172,-0.02793 0.25137,-0.08379 0.3631,-0.11172c0.22345,-0.05586 0.44689,-0.05586 0.6424,-0.05586c0.3631,0 0.61448,0.05586 0.61448,0.05586c0,0 -0.05586,0.02793 -0.11172,0.02793z" fill="#666168" stroke="none" stroke-width="1" stroke-linecap="butt"/><path d="M336.23325,253.34738c-0.11172,0.02793 -0.27931,0.05587 -0.44689,0.11173c-0.08379,0.02793 -0.16758,0.05586 -0.25137,0.08379c-0.08379,0.02793 -0.19552,0.05586 -0.27931,0.08379c-0.11172,0.02793 -0.19552,0.05586 -0.30724,0.05586c-0.08379,0 -0.19552,-0.02793 -0.27931,-0.05586c-0.08379,-0.02793 -0.16758,-0.05586 -0.25137,-0.08379c-0.08379,-0.02793 -0.16758,-0.05586 -0.22344,-0.05586c-0.13966,0 -0.25138,-0.02793 -0.33517,-0.02793c-0.08379,0 -0.13966,0 -0.13966,0c0,0 0.05586,0 0.13966,-0.02794c0.08379,0 0.19552,-0.02793 0.33517,-0.02793c0.13966,-0.02793 0.30723,0.00001 0.47482,0.05587c0.08379,0.02793 0.16758,0.02793 0.25137,0.02793c0.08379,0 0.16758,0 0.25137,-0.02793c0.08379,-0.02793 0.16759,-0.05586 0.25138,-0.0838c0.11172,-0.02793 0.19552,-0.05586 0.27931,-0.08379c0.16758,-0.05586 0.33517,-0.0838 0.47482,-0.0838c0.27931,-0.02793 0.47482,0 0.47482,0c0,0 -0.19552,0.02793 -0.41896,0.13966z" fill="#666168" stroke="none" stroke-width="1" stroke-linecap="butt"/><g stroke="none" stroke-width="1" stroke-linecap="butt"><g><path d="M329.22266,252.84463c-0.44689,-1.95515 0.33516,-7.03852 0.67034,-8.04403c0.33517,-1.03343 0.33516,-1.84342 0.05586,-2.84893c-0.44689,-1.59205 0.05586,-3.35167 0.05586,-3.35167c0.25137,1.06136 2.26239,2.37411 2.96065,3.04444c0.69826,0.67033 1.67584,3.54719 2.06687,4.18959c0.39103,0.6424 1.50825,1.20102 2.03893,1.95514c0.53068,0.78206 2.62548,4.35719 2.62548,4.35719c-5.66992,-1.28481 -10.47399,0.69826 -10.47399,0.69826z" fill="#3f3f74"/><path d="M329.02715,252.56532c0,0 -0.02793,-0.3631 -0.02793,-0.89378c-0.02793,-0.53068 -0.02793,-1.22895 0.02793,-1.95514c0.02793,-0.33517 0.05586,-0.69826 0.08379,-1.03343c0.05586,-0.30723 0.08379,-0.64241 0.13965,-0.89379c0.05586,-0.2793 0.08379,-0.50275 0.13965,-0.6424c0.02793,-0.16759 0.05586,-0.25137 0.05586,-0.25137c0,0 0,0.08379 -0.02793,0.25137c-0.02793,0.16759 -0.05587,0.39103 -0.0838,0.6424c-0.02793,0.53068 -0.08379,1.25688 -0.11172,1.95515c-0.02793,0.69826 -0.02793,1.42446 -0.02793,1.95515c0.02793,0.53068 0.02793,0.89378 0.02793,0.89378z" fill="#1a324a"/><path d="M335.81429,246.64403c-0.16758,-0.11173 -0.39103,-0.2793 -0.61448,-0.44689c-0.22345,-0.19552 -0.41895,-0.36309 -0.55861,-0.53068c-0.13966,-0.16759 -0.22345,-0.27931 -0.22345,-0.27931c0,0 0.11172,0.08379 0.27931,0.19552c0.16758,0.13966 0.3631,0.30723 0.58655,0.47482c0.19552,0.16759 0.41895,0.3631 0.55861,0.50276c0.16758,0.13966 0.25137,0.25137 0.25137,0.25137c0,0 -0.13965,-0.05586 -0.2793,-0.16759z" fill="#1a324a"/><path d="M330.28403,243.96269c-0.05586,0.19552 -0.13965,0.47482 -0.22344,0.7262c-0.08379,0.2793 -0.19552,0.53068 -0.25138,0.72619c-0.02793,0.11173 -0.08379,0.19552 -0.08379,0.25138c-0.02793,0.05586 -0.02793,0.08379 -0.02793,0.08379c0,0 -0.02793,-0.13966 0,-0.3631c0,-0.22344 0.08379,-0.47482 0.16758,-0.75413c0.08379,-0.25137 0.19551,-0.50275 0.30724,-0.69826c0.11172,-0.19552 0.19552,-0.30724 0.19552,-0.30724c0,0 -0.02793,0.13966 -0.08379,0.33517z" fill="#1a324a"/></g><g><path d="M345.92519,253.87807c-1.56412,-0.67034 -9.27298,-1.7317 -13.90946,-1.03343c-4.63648,0.69826 -8.12782,2.23445 -9.94331,3.01651c0,0 8.23954,-3.77064 8.82608,-4.07788c0.58655,-0.27931 2.29031,-1.59204 7.59713,-0.2793c5.30683,1.31274 7.42955,2.3741 7.42955,2.3741z" fill="#3f3f74"/><path d="M332.65813,251.75534c-0.16758,0.02793 -0.39103,0.08379 -0.67034,0.13965c-0.53068,0.13966 -1.25688,0.33517 -1.98308,0.55861c-0.3631,0.11172 -0.69826,0.25138 -1.03343,0.3631c-0.16758,0.08379 -0.33517,0.13966 -0.47482,0.19552c-0.13966,0.05586 -0.27931,0.11172 -0.41896,0.16758c-0.13966,0.05586 -0.25137,0.0838 -0.36309,0.13966c-0.11173,0.02793 -0.19552,0.08379 -0.27931,0.11172c-0.16758,0.08379 -0.25137,0.11172 -0.25137,0.11172c0,0 0.08379,-0.05586 0.22344,-0.13966c0.16759,-0.08379 0.3631,-0.22344 0.61448,-0.33516c0.2793,-0.13966 0.55861,-0.27931 0.89378,-0.41896c0.30723,-0.13966 0.67033,-0.27931 1.03343,-0.39103c0.16759,-0.05586 0.3631,-0.11172 0.53068,-0.16758c0.16758,-0.05586 0.3631,-0.11172 0.53069,-0.13965c0.33517,-0.08379 0.67033,-0.11173 0.94964,-0.16759c0.55861,-0.08379 0.94965,-0.08379 0.94965,-0.08379c0,0 -0.08379,0 -0.25137,0.05586z" fill="#1a324a"/><path d="M340.03182,251.92292c-0.22345,-0.05586 -0.50275,-0.11172 -0.78206,-0.16758c-0.27931,-0.05586 -0.58655,-0.11172 -0.89378,-0.13966c-0.30723,-0.05586 -0.61447,-0.08379 -0.89378,-0.11172c-0.27931,-0.02793 -0.55861,-0.05586 -0.78206,-0.05586c-0.22345,-0.02793 -0.41895,-0.02793 -0.55861,-0.02793c-0.13966,0 -0.22345,0 -0.22345,0c0,0 0.08379,0 0.22345,-0.02793c0.13966,-0.02793 0.33516,-0.05586 0.55861,-0.05586c0.11172,0 0.22345,0 0.3631,0c0.13966,0 0.2793,0 0.41896,0c0.30723,0.02793 0.61448,0.05586 0.92171,0.08379c0.30723,0.05586 0.61447,0.11173 0.89378,0.16759c0.27931,0.08379 0.53068,0.13965 0.75413,0.22344c0.44689,0.13966 0.7262,0.27931 0.7262,0.27931c0,0 -0.27931,-0.08379 -0.7262,-0.16758z" fill="#1a324a"/></g></g></g></g></svg>