<svg version="1.1" xmlns="http://www.w3.org/2000/svg" xmlns:xlink="http://www.w3.org/1999/xlink" width="552.24999" height="373" viewBox="0,0,552.24999,373"><g transform="translate(64.55554,7.56598)"><g data-paper-data="{&quot;isPaintingLayer&quot;:true}" fill-rule="nonzero" stroke-linecap="butt" stroke-linejoin="miter" stroke-miterlimit="10" stroke-dasharray="" stroke-dashoffset="0" style="mix-blend-mode: normal"><path d="M-9.30555,365.43402v-373h497v373z" fill="#f2823f" stroke="none" stroke-width="0"/><text transform="translate(37.18751,52.5) scale(0.625,0.625)" font-size="40" xml:space="preserve" fill="#ffffff" fill-rule="nonzero" stroke="none" stroke-width="1" stroke-linecap="butt" stroke-linejoin="miter" stroke-miterlimit="10" stroke-dasharray="" stroke-dashoffset="0" font-family="Sans Serif" font-weight="normal" text-anchor="start" style="mix-blend-mode: normal"><tspan x="0" dy="0">Congratulation you just made the </tspan></text><text transform="translate(-64.30554,91.43402) scale(0.5,0.5)" font-size="40" xml:space="preserve" fill="#ffffff" fill-rule="nonzero" stroke="none" stroke-width="1" stroke-linecap="butt" stroke-linejoin="miter" stroke-miterlimit="10" stroke-dasharray="" stroke-dashoffset="0" font-family="Sans Serif" font-weight="normal" text-anchor="start" style="mix-blend-mode: normal"><tspan x="0" dy="0"> </tspan></text><text transform="translate(29.05392,119.50632) scale(1.20886,1.20886)" font-size="40" xml:space="preserve" fill="#ffffff" fill-rule="nonzero" stroke="none" stroke-width="1" stroke-linecap="butt" stroke-linejoin="miter" stroke-miterlimit="10" stroke-dasharray="" stroke-dashoffset="0" font-family="Sans Serif" font-weight="normal" text-anchor="start" style="mix-blend-mode: normal"><tspan x="0" dy="0">Small Head Potion</tspan></text><text transform="translate(6.38885,284.36804) scale(0.5,0.5)" font-size="40" xml:space="preserve" fill="#ffffff" fill-rule="nonzero" stroke="#000000" stroke-width="0" stroke-linecap="butt" stroke-linejoin="miter" stroke-miterlimit="10" stroke-dasharray="" stroke-dashoffset="0" font-family="Sans Serif" font-weight="normal" text-anchor="start" style="mix-blend-mode: normal"><tspan x="0" dy="0">This potion can make</tspan><tspan x="0" dy="46.150000000000006px">your head very tiny</tspan></text><text transform="translate(280.85044,353.15103) scale(0.58667,0.58667)" font-size="40" xml:space="preserve" fill="#ffffff" fill-rule="nonzero" stroke="none" stroke-width="1" stroke-linecap="butt" stroke-linejoin="miter" stroke-miterlimit="10" stroke-dasharray="" stroke-dashoffset="0" font-family="Sans Serif" font-weight="normal" text-anchor="start" style="mix-blend-mode: normal"><tspan x="0" dy="0">Click to continue&gt;</tspan></text><path d="M79.32916,166.40485c0,0 -8.9698,-5.48155 -1.49497,-12.95638c7.47484,-7.47484 59.05121,-7.724 40.11495,14.20219c0,0 14.45135,40.36412 14.94967,62.2903c0.24916,12.45806 -23.42115,15.94632 -41.36076,14.94967c-21.92619,-1.24581 -25.91277,-7.47484 -25.41444,-15.448c0.49832,-7.97316 7.97316,-57.8054 13.20554,-63.03779z" fill="#cae8de" stroke="none" stroke-width="1"/><path d="M72.85098,233.92754c-4.73406,-5.23239 2.49161,-51.32721 10.21561,-60.79534c6.47819,-7.97316 26.16193,-5.48155 31.14515,0.49832c3.98658,4.73406 16.19548,44.84902 12.70722,57.8054c-2.74077,10.71393 -45.5965,11.95974 -54.06798,2.49161z" fill="#e66d00" stroke="none" stroke-width="1"/><path d="M113.96258,173.63052c0,5.23239 -33.3876,2.74077 -30.89599,-0.49832c7.22568,-8.9698 30.89599,-3.48826 30.89599,0.49832z" fill="#ff7700" stroke="none" stroke-width="1"/><path d="M127.16812,231.68509c-2.98993,10.46477 -45.5965,11.71058 -54.06798,2.49161l-0.24916,-0.24916c-0.74748,-1.24581 -0.99664,-4.98322 24.66696,-6.72735c29.89935,-1.99329 29.40102,4.4849 29.65018,4.4849z" fill="#ba5700" stroke="none" stroke-width="1"/><path d="M116.95252,156.18924c0,2.49161 -7.22568,4.98322 -18.43793,4.98322c-11.21225,0 -19.18541,-0.99664 -19.18541,-3.48826c0,-2.49161 8.22232,-5.73071 19.18541,-5.73071c10.96309,0 18.43793,1.74413 18.43793,4.23574z" fill="#b6cfd1" stroke="none" stroke-width="1"/><path d="M116.95252,156.18924c0,0 0,0.24916 0,0.49832c0,0.24916 -0.24916,0.74748 -0.74748,0.99664c-0.49832,0.24916 -0.99664,0.74748 -1.74413,0.99664c-0.74748,0.24916 -1.49497,0.49832 -2.49161,0.74748c-1.74413,0.49832 -3.98658,0.74748 -6.22903,0.99664c-2.49161,0.24916 -4.98322,0.49832 -7.47484,0.49832c-2.49161,0 -4.98322,0 -7.22568,-0.24916c-2.24245,0 -4.4849,-0.49832 -6.47819,-0.74748c-1.74413,-0.24916 -3.48826,-0.74748 -4.4849,-1.24581c-0.49832,-0.24916 -0.74748,-0.49832 -0.99664,-0.74748c-0.24916,-0.24916 0,-0.49832 0,-0.49832c0,0 0,0.24916 0,0.49832c0.24916,0.24916 0.49832,0.49832 0.99664,0.74748c0.99664,0.49832 2.49161,0.74748 4.23574,0.74748c1.74413,0.24916 3.98658,0.24916 6.22903,0.24916c2.24245,0 4.73406,0 7.22568,0c2.49161,0 4.98322,0 7.22568,-0.24916c2.24245,-0.24916 4.4849,-0.24916 6.22903,-0.74748c1.74413,-0.24916 3.2391,-0.74748 4.23574,-1.24581c0.49832,-0.24916 0.74748,-0.49832 0.74748,-0.74748c0.74748,-0.24916 0.74748,-0.49832 0.74748,-0.49832z" fill="#96b7c4" stroke="none" stroke-width="1"/><path d="M79.32916,166.40485c0,0 0.99664,0.24916 2.24245,0.74748c1.24581,0.24916 3.2391,0.74748 4.98322,0.99664c0.99664,0.24916 1.74413,0.24916 2.74077,0.49832c0.74748,0.24916 1.74413,0.24916 2.24245,0.49832c1.49497,0.24916 2.24245,0.49832 2.24245,0.49832c0,0 -0.99664,0.24916 -2.24245,0.24916c-1.49497,0 -3.2391,0 -5.23239,-0.24916c-1.99329,-0.24916 -3.73742,-0.99664 -4.98322,-1.74413c-1.24581,-0.74748 -1.99329,-1.49497 -1.99329,-1.49497z" fill="#96b7c4" stroke="none" stroke-width="1"/><path d="M122.18491,158.93001c0,0 0,0.24916 0,0.99664c0,0.49832 -0.24916,1.49497 -0.74748,2.49161c-0.49832,0.99664 -0.99664,2.24245 -1.99329,3.2391c-0.49832,0.49832 -0.99664,0.99664 -1.49497,1.49497c-0.49832,0.49832 -1.24581,0.99664 -1.74413,1.24581c-0.74748,0.49832 -1.24581,0.74748 -1.99329,0.99664c-0.74748,0.24916 -1.49497,0.49832 -1.99329,0.49832c-0.74748,0 -1.24581,0.24916 -1.99329,0.24916c-0.74748,0 -1.24581,0 -1.74413,0c-0.99664,0 -1.99329,-0.24916 -2.49161,-0.24916c-0.49832,0 -0.99664,-0.24916 -0.99664,-0.24916c0,0 0.24916,0 0.99664,0c0.74748,0 1.49497,0 2.49161,-0.24916c0.49832,0 0.99664,0 1.74413,-0.24916c0.49832,-0.24916 1.24581,-0.24916 1.74413,-0.49832c0.49832,-0.24916 1.24581,-0.49832 1.99329,-0.74748c0.49832,-0.24916 1.24581,-0.49832 1.74413,-0.99664c0.49832,-0.49832 1.24581,-0.74748 1.74413,-1.24581c0.49832,-0.49832 0.99664,-0.99664 1.49497,-1.24581c0.74748,-0.99664 1.49497,-1.99329 1.99329,-2.98993c0.99664,-1.24581 1.24581,-2.49161 1.24581,-2.49161z" fill="#96b7c4" stroke="none" stroke-width="1"/><path d="M78.08337,157.43504c0,0 -0.24916,0.24916 -0.24916,0.99664c0,0.24916 0,0.74748 0.24916,0.99664c0.24916,0.24916 0.74748,0.74748 0.99664,0.99664c0.49832,0.24916 0.99664,0.49832 1.74413,0.74748c0.49832,0.24916 1.24581,0.24916 1.99329,0.49832c1.49497,0.24916 2.98993,0.49832 4.4849,0.74748c0.74748,0.24916 1.49497,0.24916 2.24245,0.24916c0.74748,0 1.49497,0.24916 2.24245,0.24916c1.49497,0 2.74077,0.24916 3.98658,0.24916c2.24245,0.24916 3.98658,0.24916 3.98658,0.24916c0,0 -1.49497,0.24916 -3.98658,0.49832c-1.24581,0 -2.49161,0 -3.98658,0c-0.74748,0 -1.49497,0 -2.24245,0c-0.74748,0 -1.49497,0 -2.49161,-0.24916c-1.49497,-0.24916 -3.2391,-0.49832 -4.73406,-0.99664c-0.74748,-0.24916 -1.49497,-0.49832 -1.99329,-0.74748c-0.74748,-0.24916 -1.24581,-0.74748 -1.74413,-0.99664c-0.49832,-0.49832 -0.74748,-0.99664 -0.99664,-1.24581c-0.24916,-0.49832 -0.24916,-0.99664 -0.24916,-1.24581c0.49832,-0.74748 0.74748,-0.99664 0.74748,-0.99664z" fill="#ffffff" stroke="none" stroke-width="1"/><path d="M110.97266,217.73206c0,0 0.24916,0 0.74748,0c0.49832,0 1.24581,0.24916 1.74413,0.74748c0.24916,0.24916 0.49832,0.74748 0.49832,1.24581v0.49832v0.24916c0,0.24916 -0.24916,0.49832 -0.24916,0.74748c-0.49832,0.99664 -1.49497,1.49497 -2.49161,1.74413c-0.49832,0 -1.24581,0 -1.74413,-0.24916c-0.49832,-0.24916 -0.99664,-0.74748 -1.24581,-1.24581c-0.24916,-0.49832 -0.49832,-0.99664 -0.24916,-1.49497c0,-0.49832 0.24916,-0.99664 0.49832,-1.24581c0.49832,-0.74748 1.24581,-0.74748 1.74413,-0.99664c0.49832,0 0.74748,0 0.74748,0zM110.97266,217.73206c0,0 -0.24916,0 -0.49832,0.24916c-0.24916,0.24916 -0.74748,0.74748 -0.99664,1.24581c0,0.24916 -0.24916,0.49832 -0.24916,0.74748c0,0.24916 0,0.74748 0.24916,0.99664c0,0.24916 0.24916,0.49832 0.74748,0.74748c0.24916,0.24916 0.74748,0.49832 0.99664,0.49832c0.49832,0 0.99664,0 1.24581,-0.24916c0.24916,-0.24916 0.49832,-0.74748 0.74748,-0.99664c0,-0.24916 0,-0.74748 0,-0.99664c0,-0.24916 -0.24916,-0.49832 -0.24916,-0.74748c-0.24916,-0.49832 -0.74748,-0.99664 -0.99664,-1.24581c-0.74748,-0.24916 -1.24581,-0.24916 -0.99664,-0.24916z" fill="#d9ffb3" stroke="none" stroke-width="1"/><path d="M117.45085,212.25051c0,0 0,0.49832 -0.49832,1.24581c-0.24916,0.24916 -0.24916,0.24916 -0.49832,0.24916c-0.24916,0 -0.49832,0 -0.74748,0c-0.74748,-0.24916 -1.24581,-0.74748 -1.24581,-1.49497c0,-0.24916 0,-0.74748 0.24916,-0.99664c0.24916,-0.24916 0.49832,-0.49832 0.74748,-0.49832c0.49832,-0.24916 1.24581,0 1.49497,0.49832c0.74748,0.49832 0.49832,0.99664 0.49832,0.99664zM117.45085,212.25051v0c0,-0.49832 -0.24916,-0.74748 -0.49832,-0.74748c-0.24916,0 -0.74748,0 -0.99664,0.24916l-0.24916,0.24916c0,0.24916 0,0.24916 0,0.49832c0,0.24916 0,0.49832 0.24916,0.74748c0,0 0.24916,0.24916 0.49832,0.24916c0.24916,0 0.24916,0 0.49832,0c0.74748,-0.49832 0.49832,-1.24581 0.49832,-1.24581z" fill="#d9ffb3" stroke="none" stroke-width="1"/><path d="M90.7906,227.69851c0,0 0,0.49832 -0.24916,1.49497c-0.24916,0.99664 -0.74748,2.49161 -2.24245,3.73742c-0.74748,0.49832 -1.74413,0.99664 -2.74077,0.99664c-0.24916,0 -0.49832,0 -0.74748,0c-0.24916,0 -0.49832,0 -0.74748,0c-0.49832,0 -0.99664,-0.24916 -1.49497,-0.49832c-1.99329,-0.99664 -3.48826,-3.2391 -3.73742,-5.48155c0,-1.24581 0.24916,-2.49161 0.74748,-3.48826c0.74748,-0.99664 1.49497,-1.74413 2.74077,-2.49161c0.99664,-0.49832 2.24245,-0.74748 3.2391,-0.49832c1.24581,0.24916 1.99329,0.49832 2.74077,1.24581c1.49497,1.24581 1.99329,2.74077 2.24245,3.73742c0.24916,0.49832 0.24916,1.24581 0.24916,1.24581zM90.7906,227.69851c0,0 0,-0.24916 0,-0.49832c0,-0.24916 0,-0.74748 -0.24916,-0.99664c-0.24916,-0.99664 -1.24581,-2.24245 -2.49161,-2.74077c-0.74748,-0.24916 -1.49497,-0.74748 -2.24245,-0.74748c-0.99664,0 -1.74413,0 -2.74077,0.49832c-1.74413,0.74748 -3.2391,2.49161 -3.2391,4.73406c0,0.99664 0.24916,2.24245 0.74748,2.98993c0.49832,0.99664 1.49497,1.49497 2.49161,1.99329c0.99664,0.24916 1.99329,0.24916 2.74077,0.24916c0.99664,-0.24916 1.74413,-0.49832 2.24245,-0.74748c1.49497,-0.74748 2.24245,-1.99329 2.49161,-2.98993c0.24916,-0.49832 0.24916,-0.74748 0.24916,-0.99664c0,-0.74748 0,-0.74748 0,-0.74748z" fill="#d9ffb3" stroke="none" stroke-width="1"/><path d="M90.54143,199.79245c0,0 -0.24916,0.24916 -0.74748,0.24916c-0.49832,0.24916 -1.24581,0.49832 -2.24245,0.24916c-0.49832,-0.24916 -0.99664,-0.49832 -1.24581,-0.99664c0,-0.24916 -0.24916,-0.24916 -0.24916,-0.49832c0,0 0,-0.24916 0,-0.49832c0,-0.24916 0,-0.49832 0,-0.99664c0,-1.24581 0.49832,-2.24245 1.49497,-3.2391c0.49832,-0.49832 1.24581,-0.74748 1.74413,-0.74748c0.74748,0 1.24581,0.24916 1.74413,0.49832c0.49832,0.24916 0.99664,0.99664 1.24581,1.49497c0.24916,0.49832 0.24916,1.24581 0.24916,1.74413c-0.24916,0.99664 -0.74748,1.49497 -1.24581,1.99329c-0.49832,0.49832 -0.74748,0.74748 -0.74748,0.74748zM90.54143,199.54329c0,0 0.24916,0 0.49832,-0.49832c0.24916,-0.24916 0.49832,-0.99664 0.49832,-1.74413c0,-0.24916 -0.24916,-0.74748 -0.24916,-0.99664c-0.24916,-0.49832 -0.49832,-0.74748 -0.74748,-0.99664c-0.24916,-0.24916 -0.74748,-0.49832 -1.24581,-0.49832c-0.49832,0 -0.99664,0 -1.49497,0.24916c-0.49832,0.24916 -0.99664,0.49832 -1.24581,0.99664c-0.24916,0.49832 -0.24916,0.99664 0,1.49497c0,0.49832 0.49832,0.74748 0.74748,0.99664c0.24916,0.24916 0.49832,0.49832 0.74748,0.74748c0.49832,0.49832 1.24581,0.49832 1.74413,0.49832c0.49832,0 0.74748,-0.24916 0.74748,-0.24916z" fill="#d9ffb3" stroke="none" stroke-width="1"/><path d="M86.3057,190.07516c0,0 0,0.74748 -0.74748,1.49497c-0.24916,0.24916 -0.49832,0.24916 -0.74748,0.49832c-0.24916,0 -0.74748,0 -0.99664,0c-0.74748,-0.24916 -1.49497,-0.99664 -1.49497,-1.99329c0,-0.24916 0.24916,-0.99664 0.49832,-1.24581c0.24916,-0.24916 0.74748,-0.49832 0.99664,-0.74748c0.74748,-0.24916 1.49497,0 1.74413,0.49832c0.74748,0.74748 0.74748,1.49497 0.74748,1.49497zM86.3057,190.07516c0,0 0,-0.24916 0,-0.49832c0,-0.24916 -0.24916,-0.74748 -0.74748,-0.74748c-0.49832,-0.24916 -0.99664,-0.24916 -1.24581,0.24916c-0.24916,0.24916 -0.24916,0.24916 -0.49832,0.49832c0,0.24916 -0.24916,0.24916 -0.24916,0.49832c0,0.24916 0,0.49832 0.24916,0.49832c0,0.24916 0.24916,0.24916 0.49832,0.49832c0.24916,0.24916 0.49832,0.24916 0.74748,0.24916c0.24916,0 0.49832,0 0.74748,0c0.49832,-0.24916 0.74748,-0.49832 0.74748,-0.74748c-0.24916,-0.24916 -0.24916,-0.49832 -0.24916,-0.49832z" fill="#d9ffb3" stroke="none" stroke-width="1"/><path d="M85.30905,175.87297c0,0 -0.24916,0.74748 -0.49832,1.99329c-0.24916,1.24581 -0.49832,3.2391 -0.99664,5.48155c-0.24916,2.24245 -0.74748,4.98322 -0.99664,7.97316c-0.24916,2.98993 -0.74748,5.97987 -1.24581,9.21896c-0.74748,6.22903 -1.49497,12.45806 -2.49161,16.94296c-0.24916,2.24245 -0.74748,4.23574 -0.99664,5.73071c-0.24916,1.24581 -0.49832,2.24245 -0.49832,2.24245c0,0 0,-0.74748 0,-2.24245c0,-1.49497 0,-3.2391 0,-5.73071c0,-2.24245 0.24916,-4.98322 0.49832,-7.97316c0.24916,-2.98993 0.49832,-5.97987 0.99664,-9.21896c0.49832,-3.2391 0.99664,-6.22903 1.49497,-9.21896c0.49832,-2.98993 1.24581,-5.48155 1.74413,-7.97316c0.74748,-2.24245 1.24581,-4.23574 1.74413,-5.48155c0.74748,-0.99664 1.24581,-1.74413 1.24581,-1.74413z" fill="#ffffff" stroke="none" stroke-width="1"/><path d="M96.27214,244.89063c0,0 1.49497,0 4.23574,-0.24916c2.74077,-0.24916 6.47819,-0.49832 10.96309,-1.24581c4.4849,-0.74748 9.96645,-1.99329 14.70051,-4.73406c2.49161,-1.49497 4.73406,-3.48826 5.48155,-6.22903c0.49832,-1.24581 0.24916,-2.74077 0.24916,-4.23574c0,-1.49497 -0.24916,-2.98993 -0.49832,-4.4849c-0.74748,-5.97987 -1.99329,-12.2089 -3.2391,-17.69045c-1.24581,-5.73071 -2.49161,-10.96309 -3.73742,-15.448c-2.24245,-8.9698 -3.98658,-14.94967 -3.98658,-14.94967c0,0 0.49832,1.49497 1.24581,3.98658c0.74748,2.49161 1.99329,6.22903 3.2391,10.71393c1.24581,4.4849 2.74077,9.71729 3.98658,15.19883c0.74748,2.74077 1.24581,5.73071 1.74413,8.72064c0.49832,2.98993 0.99664,5.97987 1.49497,9.21896c0.24916,1.49497 0.24916,2.98993 0.49832,4.73406c0,1.49497 0.24916,3.2391 -0.24916,4.73406c-0.99664,3.2391 -3.48826,5.48155 -5.97987,6.97651c-2.49161,1.49497 -5.23239,2.49161 -7.724,2.98993c-2.49161,0.74748 -4.98322,1.24581 -7.22568,1.49497c-4.4849,0.74748 -8.47148,0.74748 -11.21225,0.99664c-2.49161,-0.49832 -3.98658,-0.49832 -3.98658,-0.49832z" fill="#96b7c4" stroke="none" stroke-width="1"/><path d="M99.01292,240.15657c0,0 4.73406,-0.24916 11.46142,-1.49497c3.48826,-0.74748 7.47484,-1.49497 11.21225,-3.48826c1.74413,-0.99664 3.73742,-2.24245 4.23574,-4.23574c0.49832,-2.24245 0.24916,-4.4849 0.24916,-6.72735c0,-4.73406 -0.74748,-9.21896 -1.49497,-13.45471c-0.74748,-4.23574 -1.49497,-8.22232 -2.24245,-11.71058c-0.74748,-3.48826 -1.49497,-6.22903 -1.99329,-8.22232c-0.49832,-1.99329 -0.99664,-2.98993 -0.99664,-2.98993c0,0 0.49832,0.99664 0.99664,2.98993c0.74748,1.99329 1.49497,4.73406 2.49161,8.22232c0.99664,3.48826 1.99329,7.47484 2.74077,11.71058c0.74748,4.23574 1.49497,8.9698 1.49497,13.70387c0,2.24245 0,4.73406 -0.49832,6.97651c-0.74748,2.74077 -2.98993,3.98658 -4.98322,4.98322c-1.99329,0.99664 -3.98658,1.49497 -5.97987,1.99329c-1.99329,0.49832 -3.73742,0.74748 -5.48155,0.99664c-3.48826,0.49832 -6.47819,0.74748 -8.47148,0.74748c-1.74413,0 -2.74077,0 -2.74077,0z" fill="#67ba38" stroke="none" stroke-width="1"/><path d="M126.91897,231.68509c0,0 0,-0.24916 -0.24916,-0.49832c-0.24916,-0.24916 -0.49832,-0.49832 -0.99664,-0.74748c-0.49832,-0.24916 -1.24581,-0.49832 -1.99329,-0.74748c-0.74748,-0.24916 -1.74413,-0.49832 -2.49161,-0.74748c-1.99329,-0.24916 -4.23574,-0.49832 -6.72735,-0.74748c-2.49161,-0.24916 -5.23239,-0.24916 -7.724,-0.24916c-2.74077,0 -5.23239,0 -7.724,0c-2.49161,0.24916 -4.73406,0.24916 -6.72735,0.24916c-3.98658,0.24916 -6.72735,0.24916 -6.72735,0.24916c0,0 2.74077,-0.49832 6.72735,-0.99664c1.99329,-0.24916 4.23574,-0.49832 6.72735,-0.74748c2.49161,0 5.23239,-0.24916 7.97316,-0.24916c2.74077,0 5.48155,0 7.97316,0.24916c2.49161,0.24916 4.73406,0.74748 6.72735,1.24581c0.99664,0.24916 1.99329,0.49832 2.74077,0.99664c0.74748,0.24916 1.49497,0.74748 1.74413,0.99664c0.49832,0.24916 0.74748,0.74748 0.99664,0.99664c-0.24916,0.49832 -0.24916,0.74748 -0.24916,0.74748z" fill="#67ba38" stroke="none" stroke-width="1"/><path d="M118.69664,230.19012c0,0 -0.24916,0.24916 -0.74748,0.49832c-0.49832,0.24916 -1.49497,0.74748 -2.74077,0.49832c-0.49832,0 -1.24581,-0.49832 -1.74413,-0.99664c-0.24916,-0.24916 -0.24916,-0.24916 -0.24916,-0.49832c0,-0.24916 -0.24916,-0.24916 -0.24916,-0.49832c-0.24916,-0.24916 -0.24916,-0.74748 -0.24916,-0.99664c-0.24916,-1.49497 0.24916,-2.98993 1.24581,-4.23574c0.49832,-0.49832 1.24581,-0.99664 2.24245,-1.24581c0.74748,-0.24916 1.74413,0 2.49161,0.24916c0.74748,0.24916 1.24581,0.99664 1.74413,1.49497c0.49832,0.74748 0.49832,1.24581 0.49832,1.99329c0,1.24581 -0.74748,2.24245 -0.99664,2.74077c-0.99664,0.74748 -1.24581,0.99664 -1.24581,0.99664zM118.69664,229.94096c0,0 0.24916,-0.24916 0.49832,-0.74748c0.24916,-0.49832 0.49832,-1.49497 0.24916,-2.49161c-0.24916,-0.49832 -0.24916,-0.99664 -0.49832,-1.24581c-0.24916,-0.49832 -0.74748,-0.74748 -1.24581,-0.99664c-0.99664,-0.49832 -2.24245,-0.49832 -3.48826,0.24916c-0.49832,0.24916 -0.99664,0.99664 -1.24581,1.49497c-0.24916,0.74748 -0.24916,1.24581 0.24916,1.99329c0.24916,0.49832 0.74748,0.99664 0.99664,1.24581c0.49832,0.24916 0.74748,0.49832 1.24581,0.74748c0.74748,0.49832 1.74413,0.49832 2.49161,0.24916c0.49832,-0.24916 0.74748,-0.49832 0.74748,-0.49832z" fill="#d9ffb3" stroke="none" stroke-width="1"/><g stroke="none" stroke-width="1"><g><path d="M345.35205,246.89389l-0.7451,-2.98039l8.56861,-4.02352c0,0 0.07451,0.44706 0.29804,1.11764c0.29804,0.89412 1.04314,2.83137 2.01176,4.09803c0.89412,1.19215 0.67059,2.38431 -0.67059,2.08627c0,0.07451 0,0.07451 0,0.14902c0.22353,1.41568 0.22353,2.23529 -1.34117,2.23529c0,0 -0.37255,1.5647 -2.23529,0.96863c0,0 -1.26666,1.19215 -2.75686,0.59608c0,0 -0.89412,0.52157 -2.45882,-0.96863c-0.89412,-0.81961 -1.86274,-2.45882 -0.67059,-3.27842z" fill="#847e87"/><g><g><path d="M346.99127,248.38408c-0.22353,-1.19215 0.14902,-1.93725 0.52157,-2.01176c0.96863,-0.14902 1.34117,1.71372 1.78823,2.60784c0.44706,0.89412 0.89412,0.7451 0.89412,0.7451c-1.26666,-1.71372 -0.7451,-3.42744 -0.52157,-3.50195c0.67059,-0.29804 1.04314,0 1.19215,0.29804c-0.14902,-0.96863 0.7451,-1.19215 1.19215,-1.19215c0.89412,0.07451 2.01176,3.27842 2.01176,3.27842c0.07451,0.22353 0.07451,0.59608 0,0.96863c-0.14902,0 -0.37255,0.07451 -0.59608,0.07451c0,0 -0.37255,1.5647 -2.23529,0.96863c0,0 -1.26666,1.19215 -2.75686,0.59608c0,0 -0.89412,0.52157 -2.45882,-0.96863c-0.81961,-0.81961 -1.78823,-2.3098 -0.7451,-3.12941c0.14902,-0.07451 0.29804,-0.07451 0.44706,-0.07451c0.81961,-0.14902 1.19215,0.89412 1.26666,1.34117z" fill="#847e87"/><path d="M353.62263,249.57624c-0.29804,-0.07451 -0.67059,-0.14902 -1.04314,-0.44706c-0.37255,-0.29804 -0.7451,-0.7451 -1.04314,-1.19215c-0.22353,-0.22353 -0.29804,-0.44706 -0.44706,-0.7451c-0.14902,-0.22353 -0.29804,-0.52157 -0.37255,-0.81961c-0.07451,-0.37255 0.14902,-0.7451 0.44706,-0.96863c0.29804,-0.14902 0.59608,-0.29804 0.96863,-0.22353c0.14902,0 0.29804,0.07451 0.44706,0.22353c0.07451,0.14902 0.14902,0.22353 0.22353,0.37255c0.14902,0.22353 0.29804,0.37255 0.37255,0.59608c0.37255,0.81961 0.59608,1.34117 0.59608,1.34117c0,0 -0.29804,-0.44706 -0.81961,-1.19215c-0.14902,-0.22353 -0.29804,-0.37255 -0.44706,-0.59608c-0.22353,-0.22353 -0.29804,-0.37255 -0.52157,-0.37255c-0.14902,0 -0.44706,0.07451 -0.59608,0.22353c-0.14902,0.14902 -0.29804,0.37255 -0.22353,0.52157c0.07451,0.22353 0.22353,0.52157 0.29804,0.7451c0.14902,0.22353 0.22353,0.52157 0.37255,0.7451c0.07451,0.22353 0.22353,0.44706 0.37255,0.67059c0.14902,0.22353 0.29804,0.37255 0.44706,0.52157c0.29804,0.29804 0.59608,0.44706 0.81961,0.52157c0.22353,0.07451 0.37255,0.07451 0.37255,0.07451c0,0 -0.14902,0 -0.22353,0z" fill="#666168"/><path d="M350.64224,246.1488c-0.22353,-0.07451 -0.52157,-0.14902 -0.7451,0c-0.22353,0.07451 -0.37255,0.44706 -0.37255,0.81961c0,0.14902 0.07451,0.37255 0.07451,0.59608c0,0.22353 0.07451,0.44706 0.14902,0.67059c0.07451,0.22353 0.14902,0.37255 0.22353,0.59608c0.07451,0.14902 0.22353,0.37255 0.29804,0.52157c0.29804,0.37255 0.52157,0.59608 0.81961,0.7451c0.22353,0.14902 0.52157,0.22353 0.67059,0.29804c0.22353,0.07451 0.29804,0.07451 0.29804,0.07451v0.29804c0,0 -0.52157,0 -1.19215,-0.29804c-0.37255,-0.14902 -0.67059,-0.44706 -0.96863,-0.81961c-0.14902,-0.14902 -0.29804,-0.37255 -0.37255,-0.59608c-0.14902,-0.22353 -0.22353,-0.44706 -0.29804,-0.67059c-0.07451,-0.22353 -0.14902,-0.44706 -0.14902,-0.67059c0,-0.22353 0,-0.44706 0,-0.67059c0.07451,-0.22353 0.07451,-0.44706 0.22353,-0.67059c0.14902,-0.22353 0.29804,-0.37255 0.52157,-0.44706c0.44706,-0.07451 0.7451,0.07451 0.89412,0.22353c0.14902,0.07451 0.22353,0.22353 0.22353,0.22353c0,0 -0.07451,-0.07451 -0.29804,-0.22353z" fill="#666168"/><path d="M349.30107,251.28996c-0.29804,0 -0.7451,0 -1.26666,-0.29804c-0.29804,-0.14902 -0.52157,-0.29804 -0.67059,-0.59608c-0.14902,-0.22353 -0.29804,-0.59608 -0.37255,-0.89412c-0.14902,-0.59608 -0.37255,-1.26666 -0.37255,-2.01176c0.07451,-0.29804 0,-0.7451 0.37255,-1.11764c0.14902,-0.22353 0.37255,-0.22353 0.59608,-0.22353c0.07451,0 0.14902,0 0.29804,0.07451c0.07451,0 0.22353,0.07451 0.29804,0.14902c0.37255,0.22353 0.44706,0.52157 0.59608,0.81961c0.14902,0.29804 0.22353,0.59608 0.29804,0.81961c0.29804,1.04314 0.37255,1.71372 0.37255,1.71372c0,0 -0.07451,-0.14902 -0.14902,-0.44706c-0.07451,-0.29804 -0.22353,-0.7451 -0.44706,-1.19215c-0.14902,-0.22353 -0.22353,-0.52157 -0.37255,-0.7451c-0.14902,-0.22353 -0.29804,-0.52157 -0.52157,-0.67059c-0.22353,-0.14902 -0.52157,-0.14902 -0.67059,0c-0.14902,0.14902 -0.14902,0.52157 -0.14902,0.81961c0,0.67059 0.14902,1.34117 0.29804,1.93725c0.07451,0.29804 0.14902,0.59608 0.29804,0.81961c0.14902,0.29804 0.37255,0.44706 0.52157,0.59608c0.37255,0.29804 0.81961,0.37255 1.11764,0.37255c0.29804,0 0.44706,0 0.44706,0c0,0 -0.14902,0.07451 -0.52157,0.07451z" fill="#666168"/><path d="M346.76774,248.16056c0,0 -0.07451,-0.14902 -0.29804,-0.29804c-0.07451,-0.07451 -0.14902,-0.22353 -0.29804,-0.29804c-0.07451,-0.07451 -0.22353,-0.14902 -0.37255,-0.22353c-0.07451,0 -0.14902,-0.07451 -0.22353,-0.07451c0,0 -0.07451,0 -0.14902,0c-0.07451,0 -0.22353,0.07451 -0.29804,0.14902c-0.07451,0.07451 -0.14902,0.14902 -0.22353,0.22353c-0.07451,0.07451 -0.07451,0.07451 -0.07451,0.07451c0,0 0,-0.07451 0,-0.14902c0,-0.14902 0,-0.22353 0.07451,-0.37255c0.07451,-0.07451 0.07451,-0.14902 0.14902,-0.22353c0,-0.14902 0.14902,-0.14902 0.22353,-0.22353c0.22353,-0.07451 0.44706,-0.07451 0.67059,0c0.44706,0.14902 0.67059,0.44706 0.89412,0.67059c0.22353,0.22353 0.29804,0.37255 0.29804,0.37255z" fill="#666168"/></g><g><path d="M353.3991,245.55272c-3.57646,-4.84313 -1.34117,-4.09803 -0.44706,-4.32156c0.14902,-0.07451 0.37255,0 0.67059,0.14902c0.37255,0.96863 0.96863,2.60784 1.86274,3.79999c0.89412,1.19215 0.67059,2.38431 -0.67059,2.08627c-0.59608,-0.37255 -0.89412,-0.96863 -1.41568,-1.71372z" fill="#847e87"/><path d="M355.18733,247.26644c-0.14902,0 -0.29804,-0.07451 -0.52157,-0.14902c-0.14902,-0.07451 -0.37255,-0.22353 -0.59608,-0.37255c-0.22353,-0.14902 -0.44706,-0.37255 -0.59608,-0.59608c-0.29804,-0.37255 -0.59608,-0.89412 -0.7451,-1.26666c-0.14902,-0.37255 -0.22353,-0.67059 -0.22353,-0.67059c0,0 0.22353,0.22353 0.44706,0.52157c0.22353,0.29804 0.59608,0.7451 0.89412,1.11764c0.29804,0.44706 0.67059,0.81961 0.96863,1.04314c0.14902,0.14902 0.29804,0.22353 0.37255,0.29804c0.07451,0.07451 0.14902,0.07451 0.14902,0.07451c0,0 -0.07451,0 -0.14902,0z" fill="#666168"/></g></g></g><g><path d="M336.18737,209.19201c3.50195,-0.67059 6.10979,-0.59608 8.56861,2.60784c2.38431,3.20391 3.0549,8.27057 4.09803,11.77252c1.11764,3.57646 8.27057,12.81566 8.27057,12.81566c-2.16078,8.12155 -16.61565,8.94116 -16.61565,8.94116c0,0 -6.85489,-14.15683 -9.61174,-28.6117c-0.7451,-3.57646 1.49019,-6.78038 5.29018,-7.52547z" fill="#3f3f74"/><path d="M344.97951,212.09789c0.22353,0.29804 0.59608,0.81961 0.89412,1.41568c0.29804,0.59608 0.67059,1.34117 0.96863,2.16078c0.29804,0.81961 0.59608,1.71372 0.81961,2.60784c0.22353,0.89412 0.37255,1.78823 0.52157,2.68235c0.14902,0.89412 0.14902,1.71372 0.22353,2.38431c0,0.7451 0,1.34117 0,1.71372c0,0.44706 0,0.67059 0,0.67059c0,0 0,-0.29804 -0.07451,-0.67059c-0.07451,-0.37255 -0.14902,-0.96863 -0.22353,-1.63921c-0.07451,-0.37255 -0.07451,-0.7451 -0.14902,-1.11764c-0.07451,-0.37255 -0.14902,-0.7451 -0.22353,-1.19215c-0.14902,-0.81961 -0.37255,-1.71372 -0.59608,-2.60784c-0.22353,-0.89412 -0.44706,-1.78823 -0.7451,-2.60784c-0.29804,-0.81961 -0.52157,-1.5647 -0.81961,-2.23529c-0.29804,-0.59608 -0.52157,-1.11764 -0.7451,-1.49019c-0.14902,-0.37255 -0.29804,-0.59608 -0.29804,-0.59608c0,0 0.14902,0.22353 0.44706,0.52157z" fill="#1a324a"/><path d="M353.54812,231.5449l1.78823,2.3098c0.59608,0.81961 1.19215,1.5647 1.78823,2.3098l0.07451,0.07451v0.07451c-0.14902,0.44706 -0.29804,0.89412 -0.52157,1.34117c-0.22353,0.37255 -0.44706,0.81961 -0.7451,1.19215c-0.22353,0.37255 -0.59608,0.7451 -0.89412,1.11764c-0.14902,0.22353 -0.37255,0.37255 -0.52157,0.52157l-0.52157,0.44706c-0.37255,0.29804 -0.7451,0.59608 -1.19215,0.81961c-0.44706,0.29804 -0.81961,0.44706 -1.26666,0.67059c-0.44706,0.22353 -0.89412,0.37255 -1.34117,0.52157c-0.44706,0.14902 -0.89412,0.22353 -1.34117,0.37255l0.67059,-0.22353c0.22353,-0.07451 0.44706,-0.14902 0.67059,-0.22353c0.44706,-0.22353 0.89412,-0.37255 1.26666,-0.59608c0.37255,-0.14902 0.81961,-0.37255 1.19215,-0.67059c0.37255,-0.22353 0.7451,-0.52157 1.11764,-0.81961c0.29804,-0.29804 0.67059,-0.59608 0.96863,-0.96863c0.37255,-0.29804 0.67059,-0.67059 0.89412,-1.04314c0.22353,-0.37255 0.44706,-0.81961 0.67059,-1.19215c0.22353,-0.44706 0.44706,-0.81961 0.52157,-1.26666l0.07451,0.22353c-0.59608,-0.7451 -1.19215,-1.49019 -1.78823,-2.3098c-0.59608,-0.81961 -1.19215,-1.5647 -1.71372,-2.38431c-1.11764,-1.63921 -2.16078,-3.27842 -3.12941,-4.99215c1.11764,1.5647 2.23529,3.20391 3.27842,4.69411z" fill="#1a324a"/><path d="M332.01483,221.78414c0.14902,0.67059 0.37255,1.63921 0.7451,2.83137c0.37255,1.19215 0.81961,2.53333 1.26666,4.02352c0.52157,1.49019 1.04314,2.98039 1.63921,4.54509c0.52157,1.49019 1.11764,3.0549 1.71372,4.47058c0.59608,1.41568 1.11764,2.75686 1.5647,3.8745c0.96863,2.3098 1.5647,3.79999 1.5647,3.79999c0,0 -0.22353,-0.37255 -0.52157,-1.04314c-0.29804,-0.67059 -0.7451,-1.5647 -1.26666,-2.68235c-0.52157,-1.11764 -1.11764,-2.45882 -1.71372,-3.8745c-0.59608,-1.41568 -1.19215,-2.90588 -1.78823,-4.47058c-0.59608,-1.49019 -1.11764,-3.0549 -1.5647,-4.54509c-0.44706,-1.41568 -0.81961,-2.83137 -1.11764,-4.02352c-0.29804,-1.19215 -0.44706,-2.16078 -0.59608,-2.90588c-0.14902,-0.7451 -0.14902,-1.11764 -0.14902,-1.11764c0,0 0.07451,0.37255 0.22353,1.11764z" fill="#1a324a"/></g><g><path d="M330.2266,213.51357c-2.68235,-4.69411 -4.39607,-33.52934 -1.11764,-36.95679c3.50195,-3.72548 10.58037,-3.42744 12.89017,4.17254c1.78823,5.88626 1.19215,17.06271 1.34117,21.16074c0.14902,4.09803 0.22353,3.0549 1.11764,5.88626c0.89412,2.83137 0.29804,3.35293 -0.14902,4.24705c-0.44706,0.89412 -2.83137,2.45882 -6.63136,3.12941c-3.79999,0.59608 -5.96077,0.89412 -7.45096,-1.63921z" fill="#224363"/><path d="M332.38738,215.52533c-0.14902,-0.07451 -0.37255,-0.07451 -0.67059,-0.22353c-0.14902,-0.07451 -0.29804,-0.14902 -0.44706,-0.29804c-0.14902,-0.14902 -0.29804,-0.29804 -0.44706,-0.44706c-0.29804,-0.29804 -0.52157,-0.7451 -0.81961,-1.19215c-0.22353,-0.52157 -0.44706,-1.04314 -0.67059,-1.63921c-0.22353,-0.59608 -0.44706,-1.19215 -0.59608,-1.86274c-0.22353,-0.59608 -0.29804,-1.34117 -0.44706,-2.01176c-0.14902,-0.67059 -0.29804,-1.34117 -0.37255,-2.08627c-0.07451,-0.7451 -0.14902,-1.49019 -0.22353,-2.16078c-0.07451,-0.7451 -0.07451,-1.41568 -0.14902,-2.08627c0,-0.67059 -0.07451,-1.34117 -0.07451,-1.93725c-0.07451,-0.59608 -0.07451,-1.19215 -0.07451,-1.71372c0,-2.16078 0.07451,-3.57646 0.07451,-3.57646c0,0 0.14902,1.41568 0.22353,3.57646c0.07451,0.52157 0.07451,1.11764 0.14902,1.71372c0.07451,0.59608 0.07451,1.26666 0.14902,1.93725c0.07451,0.67059 0.14902,1.41568 0.22353,2.08627c0,0.67059 0.07451,1.41568 0.22353,2.08627c0.07451,0.67059 0.14902,1.41568 0.29804,2.08627c0.07451,0.67059 0.22353,1.34117 0.37255,2.01176c0.14902,0.67059 0.29804,1.26666 0.52157,1.86274c0.14902,0.52157 0.37255,1.04314 0.59608,1.5647c0.22353,0.44706 0.44706,0.89412 0.7451,1.19215c0.07451,0.22353 0.22353,0.29804 0.37255,0.44706c0.07451,0.14902 0.22353,0.22353 0.37255,0.29804c0.29804,0.14902 0.52157,0.22353 0.67059,0.22353c0.14902,0 0.22353,0 0.22353,0c0,0 -0.07451,0 -0.22353,0.14902z" fill="#1a324a"/><path d="M343.34029,201.07046c0.07451,0.7451 0.14902,1.63921 0.22353,2.53333c0.07451,0.44706 0.14902,0.96863 0.22353,1.41568c0.07451,0.52157 0.22353,0.96863 0.44706,1.34117c0.44706,0.96863 0.67059,1.93725 0.7451,2.90588c0.07451,0.96863 -0.14902,1.86274 -0.52157,2.53333c-0.37255,0.7451 -0.96863,1.04314 -1.34117,1.26666c-0.14902,0.07451 -0.29804,0.14902 -0.44706,0.14902c-0.07451,0.07451 -0.14902,0.07451 -0.14902,0.07451c0,0 0.22353,-0.07451 0.59608,-0.29804c0.37255,-0.22353 0.81961,-0.59608 1.11764,-1.26666c0.37255,-0.67059 0.44706,-1.49019 0.37255,-2.38431c-0.07451,-0.89412 -0.29804,-1.86274 -0.7451,-2.68235c-0.22353,-0.44706 -0.37255,-1.04314 -0.44706,-1.49019c-0.07451,-0.44706 -0.14902,-0.96863 -0.14902,-1.41568c-0.07451,-0.89412 -0.07451,-1.78823 -0.07451,-2.53333c0,-1.49019 0.14902,-2.45882 0.14902,-2.45882c0,0 0,0.96863 0,2.3098z" fill="#1a324a"/></g></g><g stroke="none" stroke-width="1"><g><path d="M315.47369,318.87021c0,0 3.8745,4.09803 6.10979,5.14117c2.23529,1.04314 3.50195,4.39607 0.89412,5.29018c-2.98039,0.96863 -16.39212,-0.37255 -18.99996,-4.91764c-2.53333,-4.6196 5.4392,-11.10194 11.99605,-5.51371z" fill="#382a1e"/><path d="M315.47369,317.52904c0,0 3.20391,4.09803 5.4392,5.14117c2.23529,1.04314 4.54509,4.69411 1.49019,5.29018c-3.0549,0.52157 -16.39212,-0.37255 -18.99996,-4.91764c-2.53333,-4.6196 5.4392,-11.10194 12.07056,-5.51371z" fill="#4d3a29"/><path d="M318.15603,321.70158c-0.14902,0.07451 -0.29804,0.22353 -0.44706,0.37255c-0.22353,0.14902 -0.37255,0.29804 -0.52157,0.44706c-0.29804,0.29804 -0.59608,0.67059 -0.89412,0.89412c-0.22353,0.22353 -0.44706,0.37255 -0.44706,0.37255c0,0 0.07451,-0.29804 0.22353,-0.59608c0.22353,-0.37255 0.44706,-0.7451 0.81961,-1.11764c0.37255,-0.37255 0.81961,-0.67059 1.19215,-0.7451c0.14902,-0.07451 0.37255,0 0.44706,0c0.07451,0 0.14902,0.07451 0.14902,0.07451c0,0 -0.22353,0 -0.52157,0.29804z" fill="#382a1e"/><path d="M316.66584,320.21138c-0.14902,0.07451 -0.29804,0.22353 -0.44706,0.37255c-0.22353,0.14902 -0.37255,0.29804 -0.52157,0.44706c-0.29804,0.29804 -0.59608,0.67059 -0.89412,0.89412c-0.22353,0.22353 -0.44706,0.37255 -0.44706,0.37255c0,0 0.07451,-0.29804 0.22353,-0.59608c0.22353,-0.37255 0.44706,-0.7451 0.81961,-1.11764c0.37255,-0.37255 0.81961,-0.67059 1.19215,-0.7451c0.14902,-0.07451 0.37255,0 0.44706,0c0.07451,0 0.14902,0.07451 0.14902,0.07451c0,0 -0.29804,-0.07451 -0.52157,0.29804z" fill="#382a1e"/></g><g><g><path d="M335.14423,316.4859c0,0 3.8745,4.09803 6.10979,5.14117c2.23529,1.04314 3.50195,4.39607 0.89412,5.29018c-2.98039,0.96863 -16.39212,-0.37255 -18.99996,-4.91764c-2.60784,-4.54509 5.36469,-11.02743 11.99605,-5.51371z" fill="#382a1e"/><path d="M335.06972,315.14473c0,0 3.20391,4.09803 5.4392,5.14117c2.23529,1.04314 4.54509,4.69411 1.49019,5.29018c-3.0549,0.52157 -16.39212,-0.37255 -18.99996,-4.91764c-2.53333,-4.6196 5.51371,-11.02743 12.07056,-5.51371z" fill="#4d3a29"/><path d="M337.75207,319.39178c-0.14902,0.07451 -0.29804,0.22353 -0.44706,0.37255c-0.22353,0.14902 -0.37255,0.29804 -0.52157,0.44706c-0.29804,0.29804 -0.59608,0.67059 -0.89412,0.89412c-0.22353,0.22353 -0.44706,0.37255 -0.44706,0.37255c0,0 0.07451,-0.29804 0.22353,-0.59608c0.22353,-0.37255 0.44706,-0.7451 0.81961,-1.11764c0.37255,-0.37255 0.81961,-0.67059 1.19215,-0.7451c0.14902,-0.07451 0.37255,0 0.44706,0c0.07451,0 0.14902,0.07451 0.14902,0.07451c0,0 -0.22353,-0.07451 -0.52157,0.29804z" fill="#382a1e"/><path d="M336.26188,317.82708c-0.14902,0.07451 -0.29804,0.22353 -0.44706,0.37255c-0.22353,0.14902 -0.37255,0.29804 -0.52157,0.44706c-0.29804,0.29804 -0.59608,0.67059 -0.89412,0.89412c-0.22353,0.22353 -0.44706,0.37255 -0.44706,0.37255c0,0 0.07451,-0.29804 0.22353,-0.59608c0.22353,-0.37255 0.44706,-0.7451 0.81961,-1.11764c0.37255,-0.37255 0.81961,-0.67059 1.19215,-0.7451c0.14902,-0.07451 0.37255,0 0.44706,0c0.07451,0 0.14902,0.07451 0.14902,0.07451c0,0 -0.29804,0 -0.52157,0.29804z" fill="#382a1e"/></g><path d="M332.83443,317.30551c0,0 -4.47058,2.08627 -10.13331,0.67059l-0.67059,-16.91369l11.92154,1.93725z" fill="#382a1e"/></g><g><g><path d="M310.85409,315.74081l9.31371,-11.32547l17.06271,-1.26666l6.40783,11.6235l-4.09803,5.88626l-7.52547,1.5647l-0.29804,-10.58037l-11.6235,2.68235l-1.63921,8.34508z" fill="#1c3752"/><path d="M339.61481,217.83513c0,0 4.24705,6.55685 4.6196,25.55681c0.37255,18.99996 3.65097,65.79202 8.41959,72.72142c0,0 -1.86274,9.46273 -18.99996,6.9294c-6.9294,-1.04314 11.549,-3.8745 6.1843,-7.45096c-5.36469,-3.57646 -26.74896,2.75686 -22.65093,5.4392c4.09803,2.75686 -2.23529,5.14117 -13.9333,3.57646c-11.69801,-1.5647 -13.41174,1.63921 -19.44702,0.59608c-12.07056,-2.08627 -8.56861,-7.82351 -8.56861,-7.82351c0,0 8.79214,-8.04704 9.98429,-22.65093c1.19215,-14.60389 11.6235,-72.64691 18.99996,-77.34101c8.34508,-5.36469 26.52543,-9.76076 35.39208,0.44706z" fill="#3f3f74"/><path d="M339.98736,314.1761c-0.37255,-1.5647 -0.89412,-3.79999 -1.49019,-6.55685c-0.52157,-2.75686 -1.19215,-5.96077 -1.78823,-9.38822c-0.59608,-3.42744 -1.19215,-7.07842 -1.71372,-10.8039c-0.22353,-1.86274 -0.52157,-3.65097 -0.67059,-5.51371c-0.14902,-1.86274 -0.37255,-3.65097 -0.52157,-5.36469c-0.14902,-1.71372 -0.29804,-3.35293 -0.37255,-4.99215c-0.07451,-1.63921 -0.22353,-3.12941 -0.22353,-4.54509c0,-1.41568 -0.07451,-2.68235 -0.07451,-3.79999c0,-1.11764 0.07451,-2.08627 0.07451,-2.90588c0.07451,-1.5647 0.07451,-2.53333 0.07451,-2.53333c0,0 0,0.89412 0,2.53333c0.07451,0.81961 0,1.78823 0.07451,2.90588c0,1.11764 0.07451,2.38431 0.14902,3.79999c0.07451,1.34117 0.22353,2.90588 0.29804,4.47058c0.07451,1.5647 0.29804,3.27842 0.44706,4.99215c0.14902,1.78823 0.37255,3.57646 0.59608,5.36469c0.14902,1.78823 0.44706,3.65097 0.67059,5.51371c0.52157,3.65097 1.04314,7.37646 1.63921,10.8039c0.52157,3.42744 1.11764,6.63136 1.63921,9.38822c0.59608,2.75686 0.96863,5.06666 1.34117,6.63136c0.29804,1.63921 0.52157,2.53333 0.52157,2.53333c0,0 -0.22353,-0.96863 -0.67059,-2.53333z" fill="#1a324a"/><path d="M316.96388,314.84669c0.14902,-1.5647 0.22353,-3.35293 0.37255,-5.29018c0.14902,-1.93725 0.22353,-4.02352 0.37255,-6.10979c0.14902,-2.08627 0.29804,-4.17254 0.37255,-6.10979c0.07451,-1.93725 0.14902,-3.72548 0.22353,-5.29018c0,-0.7451 0.07451,-1.49019 0.07451,-2.08627c0,-0.67059 0,-1.19215 0,-1.63921c0,-0.89412 0,-1.41568 0,-1.41568c0,0 0,0.52157 0.07451,1.41568c0.07451,0.44706 0.07451,1.04314 0.07451,1.63921c0,0.67059 0,1.41568 0,2.16078c0,1.5647 0,3.35293 -0.07451,5.29018c-0.07451,1.93725 -0.14902,4.02352 -0.29804,6.10979c-0.14902,2.08627 -0.29804,4.17254 -0.44706,6.10979c-0.14902,1.93725 -0.37255,3.72548 -0.52157,5.29018c-0.29804,3.0549 -0.59608,5.14117 -0.59608,5.14117c0,0 0.14902,-2.08627 0.37255,-5.21568z" fill="#1a324a"/><path d="M305.34037,224.09394c-0.14902,0.14902 -0.29804,0.44706 -0.52157,0.81961c-0.22353,0.37255 -0.44706,0.81961 -0.67059,1.34117c-0.22353,0.59608 -0.44706,1.19215 -0.67059,1.86274c-0.22353,0.67059 -0.44706,1.41568 -0.67059,2.23529c-0.22353,0.81961 -0.44706,1.63921 -0.67059,2.53333c-0.14902,0.89412 -0.44706,1.78823 -0.59608,2.68235c-0.14902,0.96863 -0.37255,1.86274 -0.52157,2.83137c-0.14902,0.96863 -0.37255,1.93725 -0.52157,2.83137c-0.14902,0.96863 -0.29804,1.86274 -0.44706,2.75686c-0.29804,1.78823 -0.52157,3.42744 -0.7451,4.84313c-0.37255,2.90588 -0.67059,4.76862 -0.67059,4.76862c0,0 0.14902,-1.93725 0.44706,-4.76862c0.07451,-0.7451 0.22353,-1.49019 0.29804,-2.3098c0.14902,-0.81961 0.22353,-1.71372 0.37255,-2.60784c0.22353,-1.78823 0.52157,-3.72548 0.89412,-5.58822c0.14902,-0.96863 0.37255,-1.93725 0.59608,-2.83137c0.22353,-0.89412 0.44706,-1.78823 0.67059,-2.68235c0.22353,-0.89412 0.52157,-1.71372 0.7451,-2.53333c0.22353,-0.81961 0.44706,-1.5647 0.7451,-2.23529c0.14902,-0.37255 0.22353,-0.67059 0.37255,-0.96863c0.14902,-0.29804 0.22353,-0.52157 0.37255,-0.81961c0.29804,-0.52157 0.52157,-0.96863 0.7451,-1.34117c0.22353,-0.29804 0.44706,-0.59608 0.59608,-0.7451c0.14902,-0.14902 0.22353,-0.22353 0.22353,-0.22353c0,0 -0.14902,0.07451 -0.37255,0.14902z" fill="#1a324a"/><path d="M327.09719,224.16845c0.07451,0.14902 0.29804,0.37255 0.52157,0.67059c0.22353,0.29804 0.44706,0.67059 0.7451,1.11764c0.22353,0.44706 0.52157,0.89412 0.81961,1.49019c0.29804,0.59608 0.52157,1.19215 0.81961,1.86274c0.22353,0.67059 0.52157,1.41568 0.7451,2.16078c0.22353,0.7451 0.52157,1.49019 0.67059,2.3098c0.07451,0.37255 0.22353,0.81961 0.29804,1.19215l0.22353,1.26666c0.14902,0.81961 0.29804,1.63921 0.37255,2.45882c0.07451,0.37255 0.07451,0.81961 0.14902,1.19215c0,0.37255 0.07451,0.81961 0.07451,1.19215c0.07451,0.7451 0.14902,1.49019 0.14902,2.23529c0,0.67059 0.07451,1.41568 0.07451,2.01176c0.07451,1.26666 0,2.3098 0,3.0549c0,0.67059 0,1.11764 0,1.11764c0,0 -0.07451,-0.37255 -0.07451,-1.11764c-0.07451,-0.7451 -0.07451,-1.78823 -0.14902,-3.0549c-0.07451,-0.59608 -0.07451,-1.26666 -0.14902,-2.01176c-0.07451,-0.7451 -0.14902,-1.49019 -0.22353,-2.23529c-0.07451,-0.37255 -0.07451,-0.81961 -0.14902,-1.19215c0,-0.37255 -0.07451,-0.81961 -0.14902,-1.19215c-0.07451,-0.81961 -0.22353,-1.63921 -0.37255,-2.45882l-0.22353,-1.19215c-0.14902,-0.37255 -0.22353,-0.81961 -0.29804,-1.19215c-0.14902,-0.81961 -0.37255,-1.5647 -0.59608,-2.3098c-0.22353,-0.7451 -0.44706,-1.49019 -0.67059,-2.16078c-0.22353,-0.67059 -0.44706,-1.26666 -0.7451,-1.86274c-0.52157,-1.19215 -1.04314,-2.08627 -1.41568,-2.68235c-0.37255,-0.59608 -0.67059,-0.89412 -0.67059,-0.89412c0,0 0.07451,0.07451 0.22353,0.22353z" fill="#1a324a"/></g><g><path d="M340.88148,217.53709c0,0 2.01176,2.01176 0.14902,2.98039c-4.54509,2.3098 -11.84703,3.12941 -21.23525,3.20391c-9.38822,0 -20.19211,-0.81961 -18.40388,-6.10979c0.52157,-1.49019 1.34117,1.78823 4.84313,2.38431c3.57646,0.59608 21.90584,1.86274 28.16465,-0.29804c6.33332,-2.23529 5.29018,-2.68235 6.48234,-2.16078z" fill="#4d3a29"/><path d="M301.09332,218.43121c0,0.59608 0.14902,1.49019 0.89412,2.16078c0.37255,0.29804 0.89412,0.52157 1.41568,0.7451c0.52157,0.22353 1.11764,0.37255 1.71372,0.59608c1.26666,0.37255 2.53333,0.59608 3.8745,0.81961c1.34117,0.22353 2.68235,0.37255 3.94901,0.44706c1.26666,0.07451 2.38431,0.14902 3.42744,0.22353c2.01176,0.07451 3.35293,0.14902 3.35293,0.14902c0,0 -0.29804,0.07451 -0.89412,0.07451c-0.59608,0.07451 -1.41568,0.07451 -2.45882,0.07451c-1.04314,0 -2.23529,0 -3.50195,-0.07451c-1.26666,-0.07451 -2.60784,-0.14902 -3.94901,-0.37255c-1.34117,-0.14902 -2.68235,-0.52157 -3.8745,-0.89412c-0.59608,-0.14902 -1.19215,-0.44706 -1.71372,-0.67059c-0.52157,-0.22353 -1.04314,-0.52157 -1.41568,-0.89412c-0.37255,-0.37255 -0.59608,-0.81961 -0.67059,-1.26666c-0.07451,-0.44706 -0.07451,-0.81961 -0.07451,-1.11764c0.07451,-0.59608 0.22353,-0.89412 0.22353,-0.89412c0,0 -0.07451,0.29804 -0.29804,0.89412z" fill="#33221b"/><path d="M341.55206,218.58023c0.07451,0.07451 0.14902,0.22353 0.22353,0.37255c0.07451,0.14902 0.14902,0.37255 0.07451,0.67059c-0.07451,0.22353 -0.22353,0.52157 -0.44706,0.7451c-0.22353,0.22353 -0.52157,0.44706 -0.81961,0.59608c-0.29804,0.14902 -0.67059,0.29804 -1.04314,0.44706c-0.7451,0.29804 -1.49019,0.52157 -2.3098,0.7451c-0.7451,0.22353 -1.5647,0.37255 -2.3098,0.52157c-0.7451,0.14902 -1.49019,0.22353 -2.08627,0.29804c-1.19215,0.14902 -2.01176,0.14902 -2.01176,0.14902c0,0 0.81961,-0.22353 2.01176,-0.44706c0.59608,-0.14902 1.26666,-0.29804 2.01176,-0.44706c0.7451,-0.14902 1.5647,-0.29804 2.3098,-0.52157c0.81961,-0.22353 1.5647,-0.44706 2.3098,-0.67059c0.37255,-0.07451 0.67059,-0.22353 0.96863,-0.37255c0.37255,-0.14902 0.59608,-0.29804 0.81961,-0.52157c0.22353,-0.14902 0.37255,-0.37255 0.44706,-0.59608c0.07451,-0.22353 0.07451,-0.44706 0.07451,-0.59608c-0.07451,-0.37255 -0.22353,-0.52157 -0.22353,-0.52157c0,0 0.07451,0 0,0.14902z" fill="#33221b"/></g></g></g><g stroke="none" stroke-width="1"><path d="M339.68932,179.31364c5.36469,8.04704 6.03528,38.29796 0.44706,40.23521c-5.58822,1.93725 -9.68625,0.89412 -9.68625,0.89412c-8.86665,3.57646 -24.81171,3.20391 -28.53719,-2.23529c-2.38431,-3.42744 -4.47058,-28.76072 -1.5647,-37.40384c2.90588,-8.64312 11.549,-11.92154 11.549,-11.92154c8.34508,-2.83137 22.4274,2.38431 27.7921,10.43135z" fill="#3f3f74"/><path d="M334.25012,217.76062c-0.29804,0.29804 -0.67059,0.7451 -1.19215,1.19215c-0.52157,0.44706 -1.19215,0.96863 -1.93725,1.41568c-0.37255,0.22353 -0.7451,0.37255 -1.19215,0.59608c-0.37255,0.14902 -0.81961,0.37255 -1.26666,0.52157c-0.44706,0.14902 -0.89412,0.37255 -1.34117,0.44706c-0.44706,0.07451 -0.89412,0.22353 -1.34117,0.29804c-0.44706,0.07451 -0.89412,0.14902 -1.26666,0.22353c-0.37255,0 -0.7451,0.07451 -1.11764,0.07451c-0.7451,0.07451 -1.34117,0.07451 -1.71372,0.07451c-0.44706,0 -0.67059,0 -0.67059,0c0,0 0.29804,0 0.67059,-0.07451c0.37255,-0.07451 0.96863,-0.07451 1.63921,-0.22353c0.37255,0 0.7451,-0.07451 1.11764,-0.14902c0.37255,-0.14902 0.7451,-0.22353 1.19215,-0.29804c0.37255,-0.14902 0.81961,-0.22353 1.26666,-0.37255c0.37255,-0.14902 0.81961,-0.29804 1.26666,-0.44706c0.44706,-0.14902 0.81961,-0.37255 1.26666,-0.52157c0.37255,-0.22353 0.81961,-0.37255 1.19215,-0.59608c0.37255,-0.22353 0.7451,-0.37255 1.04314,-0.59608c0.29804,-0.14902 0.59608,-0.37255 0.89412,-0.59608c0.29804,-0.22353 0.52157,-0.44706 0.7451,-0.59608c0.22353,-0.14902 0.37255,-0.29804 0.52157,-0.44706c0.29804,-0.29804 0.44706,-0.44706 0.44706,-0.44706c0,0 -0.14902,0.14902 -0.22353,0.52157z" fill="#1a324a"/><path d="M335.96384,214.92925c-0.67059,0.52157 -1.5647,1.26666 -2.53333,1.86274c-0.96863,0.67059 -2.01176,1.19215 -2.83137,1.49019c-0.22353,0.07451 -0.44706,0.14902 -0.59608,0.14902c-0.14902,0 -0.29804,0.07451 -0.44706,0.07451c-0.22353,0 -0.37255,0 -0.37255,0c0,0 0.14902,0 0.37255,-0.07451c0.14902,0 0.29804,-0.07451 0.44706,-0.14902c0.14902,0 0.29804,-0.14902 0.52157,-0.22353c0.7451,-0.37255 1.71372,-0.96863 2.68235,-1.5647c0.96863,-0.59608 1.86274,-1.26666 2.60784,-1.71372c0.67059,-0.44706 1.19215,-0.7451 1.19215,-0.7451c0,0 -0.37255,0.44706 -1.04314,0.89412z" fill="#1a324a"/><path d="M307.20312,172.0117c-0.37255,0.29804 -0.7451,0.59608 -1.19215,0.96863c-0.44706,0.37255 -0.89412,0.7451 -1.26666,1.19215c-0.14902,0.22353 -0.37255,0.44706 -0.59608,0.67059c-0.22353,0.22353 -0.37255,0.52157 -0.59608,0.7451c-0.44706,0.44706 -0.7451,1.04314 -1.11764,1.5647c-0.37255,0.59608 -0.67059,1.19215 -0.96863,1.71372c-0.22353,0.59608 -0.52157,1.19215 -0.7451,1.71372c-0.22353,0.59608 -0.44706,1.11764 -0.59608,1.63921c-0.14902,0.52157 -0.22353,1.04314 -0.37255,1.49019c-0.14902,0.44706 -0.22353,0.89412 -0.29804,1.26666c-0.07451,0.44706 -0.07451,0.7451 -0.14902,1.04314c-0.07451,0.59608 -0.14902,0.89412 -0.14902,0.89412c0,0 0,-0.29804 0.07451,-0.89412c0,-0.29804 0.07451,-0.67059 0.07451,-1.04314c0.07451,-0.44706 0.14902,-0.89412 0.22353,-1.34117c0.07451,-0.52157 0.14902,-1.04314 0.29804,-1.5647c0.14902,-0.52157 0.29804,-1.11764 0.52157,-1.71372c0.22353,-0.59608 0.52157,-1.19215 0.7451,-1.78823c0.29804,-0.52157 0.67059,-1.11764 0.96863,-1.71372c0.37255,-0.59608 0.67059,-1.11764 1.11764,-1.63921c0.22353,-0.22353 0.37255,-0.52157 0.59608,-0.7451c0.22353,-0.22353 0.44706,-0.44706 0.67059,-0.67059c0.44706,-0.44706 0.89412,-0.81961 1.34117,-1.19215c0.44706,-0.37255 0.81961,-0.67059 1.26666,-0.96863c1.63921,-1.04314 2.90588,-1.41568 2.90588,-1.41568c0,0 -1.26666,0.44706 -2.75686,1.78823z" fill="#1a324a"/><path d="M307.57566,221.70963c-0.29804,-0.07451 -0.59608,-0.14902 -0.89412,-0.22353c-0.29804,-0.07451 -0.67059,-0.22353 -0.96863,-0.37255c-0.37255,-0.14902 -0.67059,-0.37255 -1.04314,-0.52157c-0.29804,-0.14902 -0.67059,-0.37255 -0.96863,-0.59608c-0.29804,-0.29804 -0.67059,-0.52157 -0.89412,-0.81961c-0.29804,-0.29804 -0.52157,-0.59608 -0.7451,-0.89412c-0.07451,-0.14902 -0.22353,-0.29804 -0.29804,-0.44706c-0.07451,-0.14902 -0.14902,-0.29804 -0.22353,-0.44706c-0.14902,-0.29804 -0.29804,-0.59608 -0.37255,-0.89412c-0.07451,-0.22353 -0.14902,-0.52157 -0.22353,-0.7451c-0.07451,-0.22353 -0.07451,-0.44706 -0.07451,-0.59608c-0.07451,-0.29804 -0.07451,-0.52157 -0.07451,-0.52157c0,0 0.07451,0.22353 0.14902,0.52157c0.07451,0.14902 0.07451,0.37255 0.14902,0.59608c0.07451,0.22353 0.22353,0.44706 0.29804,0.7451c0.07451,0.29804 0.22353,0.52157 0.37255,0.81961c0.07451,0.14902 0.14902,0.29804 0.22353,0.44706c0.07451,0.07451 0.22353,0.22353 0.29804,0.37255c0.14902,0.29804 0.44706,0.59608 0.67059,0.81961c0.22353,0.29804 0.52157,0.52157 0.81961,0.7451c0.29804,0.22353 0.59608,0.37255 0.89412,0.59608c0.37255,0.22353 0.67059,0.37255 0.96863,0.52157c0.29804,0.22353 0.59608,0.29804 0.89412,0.44706c0.22353,0.14902 0.52157,0.22353 0.81961,0.29804c0.59608,0.14902 1.04314,0.29804 1.34117,0.37255c0.37255,0.07451 0.52157,0.14902 0.52157,0.14902c0,0 -0.7451,0 -1.63921,-0.37255z" fill="#1a324a"/><path d="M342.96775,214.85474c0,0.29804 -0.07451,0.7451 -0.22353,1.26666c-0.14902,0.52157 -0.37255,1.11764 -0.67059,1.71372c-0.22353,0.29804 -0.37255,0.59608 -0.59608,0.89412c-0.22353,0.29804 -0.52157,0.59608 -0.81961,0.81961c-0.59608,0.44706 -1.26666,0.7451 -1.93725,0.89412c-0.37255,0.14902 -0.67059,0.14902 -0.96863,0.22353c-0.29804,0 -0.59608,0.07451 -0.89412,0.07451c-0.52157,0.07451 -0.96863,0 -1.26666,0c-0.37255,-0.07451 -0.52157,-0.07451 -0.52157,-0.07451c0,0 0.22353,-0.07451 0.52157,-0.07451c0.29804,0 0.7451,-0.07451 1.26666,-0.14902c0.52157,-0.07451 1.11764,-0.22353 1.71372,-0.44706c0.59608,-0.22353 1.26666,-0.52157 1.78823,-0.89412c0.29804,-0.22353 0.52157,-0.37255 0.7451,-0.67059c0.14902,-0.29804 0.37255,-0.52157 0.52157,-0.81961c0.29804,-0.59608 0.59608,-1.11764 0.7451,-1.63921c0.37255,-1.04314 0.52157,-1.71372 0.52157,-1.71372c0,0 0,0.14902 0.07451,0.59608z" fill="#1a324a"/></g><g stroke="none" stroke-width="1"><g><path d="M313.2384,242.27429c0,0 1.04314,6.10979 1.11764,7.52547c0.07451,1.41568 0.07451,2.23529 -1.49019,2.16078c0,0 -0.44706,1.5647 -2.3098,0.81961c0,0 -1.34117,1.11764 -2.83137,0.44706c0,0 -1.5647,0.89412 -3.0549,-0.7451c-0.81961,-0.89412 -0.96863,-2.90588 0.29804,-3.65097l-0.59608,-3.0549" fill="#847e87"/><path d="M313.31291,242.94488c0,0 0.67059,2.90588 1.86274,4.76862c0.89412,1.41568 0.37255,2.83137 -1.49019,1.63921" fill="#666168"/><path d="M304.7443,247.63899c0.14902,0.37255 0.29804,0.96863 0.44706,1.5647c0.14902,0.52157 0.29804,1.11764 0.37255,1.5647c0.07451,0.22353 0.07451,0.37255 0.14902,0.52157c0.07451,0.14902 0.07451,0.22353 0.07451,0.22353c0,0 -0.07451,-0.07451 -0.14902,-0.14902c-0.07451,-0.07451 -0.22353,-0.22353 -0.29804,-0.44706c-0.14902,-0.37255 -0.37255,-0.96863 -0.52157,-1.5647c-0.14902,-0.59608 -0.22353,-1.19215 -0.22353,-1.63921c0,-0.44706 0,-0.7451 0,-0.7451c0,0 0.14902,0.22353 0.14902,0.67059z" fill="#666168"/><path d="M308.46978,251.96055c0,0.22353 -0.07451,0.59608 -0.22353,0.89412c-0.14902,0.22353 -0.22353,0.29804 -0.37255,0.44706c-0.14902,0.14902 -0.29804,0.22353 -0.44706,0.22353c-0.29804,0.07451 -0.44706,0 -0.44706,0c0,0 0,0 0.07451,-0.07451c0.07451,0 0.14902,-0.07451 0.22353,-0.14902c0.07451,-0.07451 0.14902,-0.22353 0.22353,-0.29804c0.07451,-0.14902 0.14902,-0.22353 0.22353,-0.37255c0.14902,-0.22353 0.22353,-0.52157 0.37255,-0.7451c0.14902,-0.22353 0.22353,-0.37255 0.22353,-0.37255c0,0 0.07451,0.14902 0.14902,0.44706z" fill="#666168"/><path d="M311.22664,251.66251c0,0.29804 -0.07451,0.67059 -0.22353,0.96863c-0.14902,0.14902 -0.22353,0.37255 -0.37255,0.44706c-0.14902,0.07451 -0.29804,0.14902 -0.44706,0.22353c-0.29804,0.14902 -0.44706,0.07451 -0.44706,0.07451c0,0 0,0 0.07451,-0.07451c0.07451,-0.07451 0.14902,-0.14902 0.22353,-0.22353c0.14902,-0.22353 0.29804,-0.44706 0.44706,-0.67059c0.14902,-0.22353 0.29804,-0.52157 0.37255,-0.7451c0.07451,-0.22353 0.14902,-0.37255 0.14902,-0.37255c0,0 0.07451,0.14902 0.22353,0.37255z" fill="#666168"/><path d="M313.2384,250.91741c0.07451,0.22353 0,0.59608 -0.07451,0.89412c-0.07451,0.29804 -0.29804,0.67059 -0.52157,0.81961c-0.07451,0.07451 -0.22353,0.14902 -0.29804,0.14902c-0.07451,0 -0.14902,0 -0.14902,0c0,0 0,0 0.07451,-0.07451c0.07451,0 0.07451,-0.14902 0.14902,-0.22353c0.14902,-0.14902 0.22353,-0.44706 0.29804,-0.7451c0.07451,-0.29804 0.22353,-0.59608 0.29804,-0.81961c0.07451,-0.22353 0.14902,-0.37255 0.14902,-0.37255c0,0 0,0.22353 0.07451,0.37255z" fill="#666168"/><path d="M305.41488,250.39585c0,0.14902 -0.07451,0.22353 -0.14902,0.37255c-0.07451,0.14902 -0.22353,0.22353 -0.29804,0.29804c-0.14902,0.07451 -0.22353,0.14902 -0.22353,0.14902c0,0 -0.07451,-0.07451 -0.07451,-0.22353c0,-0.14902 0.07451,-0.29804 0.14902,-0.44706c0.14902,-0.14902 0.22353,-0.22353 0.37255,-0.29804c0.14902,-0.07451 0.22353,-0.07451 0.22353,-0.07451c0,0 0,0.14902 0,0.22353z" fill="#666168"/><path d="M314.13251,250.32134c0,-0.52157 -0.07451,-1.19215 -0.14902,-1.86274c-0.07451,-0.67059 -0.14902,-1.34117 -0.22353,-1.86274c-0.07451,-0.22353 -0.07451,-0.44706 -0.07451,-0.59608c0,-0.14902 0,-0.22353 0,-0.22353c0,0 0.22353,0.29804 0.37255,0.81961c0.22353,0.52157 0.37255,1.19215 0.44706,1.86274c0.07451,0.67059 0.07451,1.34117 0,1.86274c-0.07451,0.52157 -0.22353,0.81961 -0.22353,0.81961c0,0 0,-0.29804 -0.14902,-0.81961z" fill="#666168"/></g><g><path d="M302.50901,209.8626c3.57646,0.07451 6.10979,0.7451 7.749,4.39607c1.63921,3.65097 1.19215,8.71763 1.49019,12.3686c0.29804,3.72548 5.29018,14.30585 5.29018,14.30585c-3.8745,7.45096 -18.10584,5.14117 -18.10584,5.14117c0,0 -3.65097,-15.27448 -3.20391,-29.95288c0.07451,-3.65097 2.90588,-6.33332 6.78038,-6.25881z" fill="#3f3f74"/><path d="M310.40703,214.55671c0.14902,0.44706 0.37255,0.96863 0.52157,1.63921c0.22353,0.67059 0.37255,1.41568 0.52157,2.3098c0.07451,0.89412 0.14902,1.78823 0.22353,2.75686c0,0.96863 0,1.86274 -0.07451,2.75686c-0.07451,0.89412 -0.14902,1.71372 -0.29804,2.38431c-0.07451,0.67059 -0.22353,1.26666 -0.29804,1.63921c-0.07451,0.37255 -0.14902,0.59608 -0.14902,0.59608c0,0 0.07451,-0.29804 0.07451,-0.67059c0,-0.37255 0.07451,-0.96863 0.14902,-1.63921c0,-0.37255 0.07451,-0.7451 0.07451,-1.11764c0,-0.44706 0.07451,-0.81961 0.07451,-1.26666c0,-0.81961 0,-1.78823 0,-2.68235c0,-0.89412 -0.07451,-1.78823 -0.14902,-2.68235c-0.14902,-0.81961 -0.22353,-1.63921 -0.37255,-2.3098c-0.14902,-0.67059 -0.22353,-1.26666 -0.37255,-1.63921c-0.07451,-0.37255 -0.14902,-0.59608 -0.14902,-0.59608c0,0 0.07451,0.22353 0.22353,0.52157z" fill="#1a324a"/><path d="M314.87761,235.56843l1.19215,2.68235c0.37255,0.81961 0.81961,1.71372 1.26666,2.60784l0.07451,0.07451l-0.07451,0.07451c-0.22353,0.44706 -0.52157,0.81961 -0.81961,1.19215c-0.29804,0.37255 -0.59608,0.7451 -0.96863,1.04314c-0.37255,0.37255 -0.7451,0.59608 -1.11764,0.89412c-0.22353,0.14902 -0.37255,0.29804 -0.59608,0.37255l-0.59608,0.29804c-0.44706,0.14902 -0.89412,0.37255 -1.34117,0.52157c-0.44706,0.14902 -0.89412,0.29804 -1.34117,0.37255c-0.44706,0.14902 -0.96863,0.14902 -1.41568,0.22353c-0.44706,0.07451 -0.96863,0.07451 -1.41568,0.07451l0.67059,-0.07451c0.22353,0 0.44706,0 0.67059,-0.07451c0.44706,-0.07451 0.89412,-0.14902 1.34117,-0.29804c0.44706,-0.14902 0.89412,-0.29804 1.34117,-0.44706c0.44706,-0.14902 0.81961,-0.37255 1.26666,-0.59608c0.44706,-0.22353 0.81961,-0.44706 1.19215,-0.7451c0.37255,-0.29804 0.7451,-0.59608 1.04314,-0.89412c0.37255,-0.29804 0.67059,-0.59608 0.96863,-0.96863c0.29804,-0.37255 0.52157,-0.7451 0.7451,-1.11764v0.22353c-0.44706,-0.89412 -0.89412,-1.78823 -1.26666,-2.68235c-0.44706,-0.89412 -0.81961,-1.78823 -1.19215,-2.68235c-0.7451,-1.78823 -1.49019,-3.65097 -2.01176,-5.51371c0.7451,1.78823 1.49019,3.57646 2.38431,5.4392z" fill="#1a324a"/><path d="M295.72863,221.18806c0,0.7451 0.07451,1.78823 0.14902,2.98039c0.07451,1.19215 0.22353,2.68235 0.37255,4.17254c0.14902,1.49019 0.37255,3.12941 0.59608,4.76862c0.14902,1.63921 0.44706,3.27842 0.67059,4.76862c0.22353,1.5647 0.44706,2.98039 0.67059,4.17254c0.37255,2.38431 0.67059,4.02352 0.67059,4.02352c0,0 -0.14902,-0.44706 -0.29804,-1.11764c-0.14902,-0.7451 -0.44706,-1.71372 -0.67059,-2.90588c-0.22353,-1.19215 -0.52157,-2.60784 -0.81961,-4.09803c-0.22353,-1.49019 -0.52157,-3.12941 -0.7451,-4.76862c-0.22353,-1.5647 -0.37255,-3.20391 -0.52157,-4.76862c-0.14902,-1.49019 -0.22353,-2.90588 -0.22353,-4.17254c0,-1.26666 0.07451,-2.23529 0.07451,-2.98039c0,-0.7451 0.07451,-1.11764 0.07451,-1.11764c0,0 0,0.37255 0,1.04314z" fill="#1a324a"/></g><g><path d="M295.80314,212.76847c-1.63921,-5.14117 2.98039,-33.67836 6.85489,-36.36071c4.17254,-2.90588 11.10194,-1.04314 11.69801,6.85489c0.44706,6.10979 -2.45882,16.91369 -3.20391,20.93721c-0.7451,4.02352 -0.37255,2.98039 -0.14902,5.96077c0.22353,2.98039 -0.44706,3.35293 -1.11764,4.09803c-0.59608,0.7451 -3.27842,1.86274 -7.15293,1.63921c-3.8745,-0.14902 -6.03528,-0.29804 -6.9294,-3.12941z" fill="#3f3f74"/><path d="M297.66588,215.22729c-0.14902,-0.07451 -0.44706,-0.14902 -0.67059,-0.37255c-0.14902,-0.07451 -0.29804,-0.22353 -0.37255,-0.37255c-0.14902,-0.14902 -0.29804,-0.29804 -0.37255,-0.52157c-0.29804,-0.37255 -0.44706,-0.81961 -0.59608,-1.34117c-0.14902,-0.52157 -0.29804,-1.11764 -0.37255,-1.71372c-0.07451,-0.59608 -0.14902,-1.26666 -0.14902,-1.93725c-0.07451,-0.67059 0,-1.34117 0,-2.08627c0,-0.7451 0.07451,-1.41568 0.14902,-2.16078c0.07451,-0.7451 0.14902,-1.49019 0.22353,-2.16078c0.14902,-0.7451 0.22353,-1.41568 0.29804,-2.08627c0.14902,-0.67059 0.29804,-1.34117 0.37255,-1.93725c0.07451,-0.59608 0.14902,-1.19215 0.29804,-1.71372c0.44706,-2.08627 0.81961,-3.50195 0.81961,-3.50195c0,0 -0.22353,1.41568 -0.59608,3.50195c-0.07451,0.52157 -0.14902,1.11764 -0.22353,1.71372c-0.07451,0.67059 -0.22353,1.26666 -0.29804,1.93725c-0.07451,0.59608 -0.14902,1.34117 -0.22353,2.01176c-0.14902,0.67059 -0.14902,1.34117 -0.22353,2.08627c-0.07451,0.67059 -0.14902,1.41568 -0.14902,2.08627c0,0.7451 -0.07451,1.41568 0,2.08627c0,0.67059 0,1.34117 0.07451,1.93725c0,0.67059 0.14902,1.19215 0.22353,1.71372c0.14902,0.52157 0.22353,0.96863 0.44706,1.34117c0.07451,0.22353 0.22353,0.37255 0.29804,0.52157c0.07451,0.14902 0.14902,0.29804 0.29804,0.37255c0.22353,0.22353 0.44706,0.29804 0.59608,0.37255c0.14902,0.07451 0.22353,0.07451 0.22353,0.07451c0,0 -0.07451,0.07451 -0.07451,0.14902z" fill="#1a324a"/><path d="M311.37566,203.52928c-0.14902,0.67059 -0.29804,1.5647 -0.37255,2.45882c-0.07451,0.44706 -0.14902,0.96863 -0.14902,1.41568c0,0.52157 0,0.96863 0.14902,1.41568c0.22353,1.04314 0.22353,2.01176 0.07451,2.98039c-0.14902,0.96863 -0.52157,1.78823 -1.04314,2.38431c-0.52157,0.59608 -1.11764,0.81961 -1.5647,0.89412c-0.22353,0.07451 -0.37255,0.07451 -0.52157,0.07451c-0.07451,0 -0.14902,0 -0.14902,0c0,0 0.29804,0 0.67059,-0.14902c0.44706,-0.07451 0.96863,-0.37255 1.41568,-0.96863c0.44706,-0.52157 0.67059,-1.34117 0.81961,-2.23529c0.14902,-0.89412 0.07451,-1.86274 -0.14902,-2.75686c-0.14902,-0.52157 -0.14902,-1.04314 -0.14902,-1.5647c0,-0.44706 0.07451,-0.96863 0.14902,-1.41568c0.14902,-0.89412 0.37255,-1.71372 0.52157,-2.45882c0.37255,-1.41568 0.67059,-2.38431 0.67059,-2.38431c0,0 -0.14902,0.96863 -0.37255,2.3098z" fill="#1a324a"/></g></g><g stroke="none"><path d="M339.6187,163.07052c0.47199,0.30035 -11.54217,2.66028 -16.77691,2.96063c-5.23474,0.30035 -20.25244,0.5578 -19.86627,0.08582c0.38617,-0.47199 14.54571,-5.79254 17.33471,-5.96417c2.789,-0.21454 18.10705,2.10248 19.30847,2.91773z" fill="#3f3f74" stroke-width="1"/><path d="M321.94072,156.59145c4.71985,-0.12872 6.90814,3.56134 8.06665,8.66736c1.02979,4.63403 0.60071,9.69714 -7.20849,9.91168c-6.73651,0.21454 -8.79608,-4.37659 -8.02374,-9.01062c0.81525,-4.89148 2.44574,-9.43969 7.16559,-9.56842z" fill="#c5886b" stroke-width="1"/><g><path d="M325.63079,172.51021c0,0.12872 -0.08582,0.25745 -0.21454,0.30035c-0.12872,0.04291 -0.25745,0.04291 -0.34326,0.04291c-0.12872,0 -0.17163,-0.04291 -0.17163,-0.04291c0,0 0.04291,-0.04291 0.12872,-0.08581c0.04291,-0.04291 0.12872,-0.08582 0.21454,-0.12873c0.08582,-0.04291 0.17163,-0.08582 0.21454,-0.12872c0.04291,-0.04291 0.08581,-0.08581 0.08581,-0.08581c0,0 0.04291,0.04291 0.08582,0.12872z" fill="#99918a" stroke-width="1"/><path d="M312.28649,178.90346c1.50177,-0.72943 1.41596,-2.18829 1.41596,-2.18829c-0.12872,1.63049 -2.48864,1.37305 -2.48864,1.37305c1.80212,0 2.40283,-2.91772 1.54467,-3.73297c-0.85815,-0.81525 -0.34326,-3.08936 -0.34326,-3.08936c-0.38617,0.04291 -0.5578,1.33014 -0.5578,1.33014c0,0 -0.68652,-1.93084 0.81525,-2.74609c1.50177,-0.81525 1.07269,-2.48865 1.41595,-7.2085c0.34326,-4.67694 5.578,-6.17871 7.2085,-6.1358c0.30035,0 0.5578,0 0.72943,0.08582c0.25745,-0.30035 0.85816,-0.25745 1.50177,-0.25745c1.1156,-0.04291 3.43261,1.20142 4.37658,1.93085c2.789,2.27411 3.3039,8.02374 3.3468,9.09643c0.04291,1.07269 1.33014,1.07269 1.33014,1.07269c-0.90106,0.17163 -1.54468,-0.08582 -1.54468,-0.08582c1.28723,1.37305 0.47199,2.83191 0.47199,2.83191c0.47199,0.90106 0.38617,2.66028 -0.12872,3.9046c-0.5578,1.24432 1.15851,1.93085 1.15851,1.93085c-1.28723,0.17163 -1.58758,-0.47199 -1.63049,-0.64361c0.34326,1.33014 0.64361,2.57446 0.04291,3.51843c-0.64361,0.94397 0.94397,2.05957 0.94397,2.05957c-0.51489,0 -1.54468,-0.30035 -1.54468,-0.30035c-0.5578,1.37305 1.75922,1.58758 1.75922,1.58758c-1.54468,0.38617 -2.2312,-0.12872 -2.2312,-0.12872c0.5578,1.54468 0.25745,2.44574 -0.17163,3.43261c-0.38617,0.94397 0.81525,2.14539 0.81525,2.14539c-1.15851,0.21454 -1.93085,-1.33014 -1.93085,-1.33014c0.72943,2.57446 -1.1156,3.30389 -1.1156,3.30389c0.64361,-0.94397 -0.12872,-2.14539 -0.12872,-2.14539c0.04291,0.98688 -0.38617,2.87482 -1.54468,3.17517c-1.15851,0.30035 -0.77234,1.97375 -0.77234,1.97375c-0.85815,-0.08582 -0.64361,-1.71631 -0.60071,-1.84503c-0.42908,2.70318 -2.57446,2.40283 -2.57446,2.40283c-0.85815,1.50177 -3.3039,0.90106 -3.3039,0.90106c0.94397,0.08582 1.71631,-0.72943 1.71631,-0.72943c-1.97375,1.1156 -3.17517,-0.17163 -3.21808,-1.24432c-0.04291,-1.07269 1.45886,-0.85815 1.45886,-0.85815c0,0 -1.71631,0.30035 -0.25745,1.41595c1.45886,1.1156 2.57446,-2.05957 1.41596,-2.48864c-1.15851,-0.42908 -0.90106,-1.63049 -0.90106,-1.63049c-0.90106,-0.30035 -2.31702,-1.45886 -2.05957,-2.61737c0.25745,-0.98688 -0.21454,-2.01666 -0.21454,-2.01666c0.64361,1.33014 -0.60071,1.58758 -0.60071,1.58758c0.12872,-0.81525 -0.25744,-1.50177 -1.28723,-2.05957c-0.77234,-0.42908 -0.51489,-1.45886 -0.34326,-1.97375c-0.42908,0.47199 -1.71631,0.17163 -1.71631,0.17163c0.72943,-0.04291 1.80212,-1.1156 0.94397,-1.75922c-0.85815,-0.68652 -0.5578,-1.33014 -0.5578,-1.33014c-1.24432,0.64361 -0.21454,1.71631 -0.21454,1.71631c-0.98688,0 -1.93085,-1.6734 -0.42908,-2.40283zM317.13506,167.91909c1.41596,1.93085 1.07269,2.44574 1.07269,2.44574c0,0 1.6734,-0.94397 2.789,0.30035l2.40283,1.28723l2.10248,-0.77234c0,0 1.1156,-1.93085 3.3468,-1.80212c0,0 0.98688,-0.42908 0.60071,-1.6734c0,0 -0.25745,0.85815 -1.28723,0.42907c0,0 1.37305,-0.38617 1.02979,-1.97375c-0.30035,-1.63049 -0.90106,-2.57446 -1.88794,-4.29077c-1.45886,-2.57446 -3.38971,-2.35993 -4.50531,-3.38971c-0.47199,1.33014 -3.60425,2.61737 -4.84857,4.20496c0,0.04291 -2.2312,3.3039 -0.81524,5.23474z" fill="#c8bdb4" stroke-width="1"/><path d="M317.93106,162.67489c1.24432,-1.58758 4.39488,-2.88679 4.86686,-4.21693c1.1156,1.02979 3.06419,0.82331 4.52305,3.39777c0.98688,1.71631 1.59201,2.67693 1.89236,4.30742c0.34326,1.58758 -1.0324,1.98119 -1.0324,1.98119c1.02979,0.42908 1.28862,-0.43197 1.28862,-0.43197c0.38617,1.24432 -0.60331,1.67815 -0.60331,1.67815c-2.2312,-0.12872 -3.35617,1.80944 -3.35617,1.80944l-2.10954,0.77387l-2.41151,-1.28865c-1.1156,-1.24432 -2.79605,-0.30482 -2.79605,-0.30482c0,0 0.3385,-0.52159 -1.07745,-2.45244c-1.41596,-1.93085 0.81553,-5.21015 0.81553,-5.25305z" data-paper-data="{&quot;noHover&quot;:false,&quot;origItem&quot;:[&quot;Path&quot;,{&quot;applyMatrix&quot;:true,&quot;segments&quot;:[[[436.6,203.2],[-6.6,-9],[6.6,9]],[441.6,214.6],[[454.6,216],[-5.2,-5.8],[0,0]],[465.8,222],[475.6,218.4],[[491.2,210],[-10.4,-0.6],[0,0]],[[494,202.2],[1.8,5.8],[0,0]],[[488,204.2],[4.8,2],[0,0]],[[492.8,195],[1.6,7.4],[-1.4,-7.6]],[[484,175],[4.6,8],[-6.8,-12]],[[463,159.2],[5.2,4.8],[-2.2,6.2]],[[440.4,178.8],[5.8,-7.4],[0,0.2]]],&quot;closed&quot;:true,&quot;fillColor&quot;:[0,0,0,1]}]}" fill="#847e87" stroke-width="0.5"/><path d="M322.67016,157.27798c-0.04291,-0.08582 -0.12873,-0.21454 -0.25745,-0.30036c-0.04291,-0.04291 -0.12872,-0.08582 -0.21454,-0.12872c-0.08582,-0.04291 -0.17163,-0.04291 -0.25745,-0.08582c-0.08582,-0.04291 -0.21454,-0.04291 -0.30035,-0.08581c-0.08582,-0.04291 -0.21454,-0.04291 -0.30036,-0.04291c-0.21454,-0.04291 -0.42907,0 -0.64361,0c-0.21454,0 -0.38617,0.04291 -0.5578,0.04291c-0.34326,0.04291 -0.5578,0.04291 -0.5578,0.04291c0,0 0.17163,-0.08582 0.51489,-0.21454c0.12872,-0.04291 0.34326,-0.08582 0.5578,-0.12872c0.12872,0 0.21454,-0.04291 0.34326,-0.04291c0.12872,0 0.21454,0 0.34326,0c0.25745,0 0.47199,0.04291 0.68652,0.12872c0.12872,0.04291 0.21454,0.12872 0.30036,0.17163c0.08582,0.08582 0.17163,0.12872 0.21454,0.21454c0.08582,0.12872 0.12873,0.30035 0.17163,0.38617c0,0.12872 0,0.17163 0,0.17163c0,0 -0.04291,-0.04291 -0.04291,-0.12872z" fill="#99918a" stroke-width="1"/><path d="M322.88469,158.05031c0,0.08582 0,0.17163 0,0.25745c0,0.08582 -0.04291,0.21454 -0.08581,0.30036c-0.04291,0.12872 -0.08582,0.21454 -0.17163,0.34326c-0.08582,0.12872 -0.17163,0.25745 -0.25745,0.34326c-0.17163,0.21454 -0.38617,0.42908 -0.60071,0.60071c-0.42908,0.38617 -0.94397,0.68652 -1.33014,0.90106c-0.38617,0.17163 -0.64361,0.30035 -0.64361,0.30035c0,0 0.21454,-0.17163 0.5578,-0.42907c0.17163,-0.12872 0.38617,-0.25745 0.60071,-0.42908c0.21454,-0.17163 0.42908,-0.34326 0.64362,-0.51489c0.21454,-0.17163 0.42908,-0.38617 0.60071,-0.5578c0.08582,-0.12872 0.17163,-0.21454 0.25745,-0.30035c0.08582,-0.08582 0.17163,-0.17163 0.21454,-0.25745c0.04291,-0.08582 0.08582,-0.17163 0.12872,-0.25745c0.04291,-0.08582 0.04291,-0.17163 0.04291,-0.21454c0,-0.08582 -0.04291,-0.17163 -0.04291,-0.17163c0,0 0.04291,0.08582 0.08581,0.08582z" fill="#99918a" stroke-width="1"/><path d="M317.99321,169.03469c0.08582,0.12872 0.17163,0.30035 0.25745,0.51489c0.08582,0.21454 0.12872,0.47199 0.12872,0.68652c0,0.25745 -0.04291,0.47199 -0.12872,0.68652c0,0.12872 -0.08582,0.21454 -0.12872,0.30035c-0.04291,0.08582 -0.12873,0.17163 -0.17163,0.21454c-0.08582,0.08582 -0.12872,0.12872 -0.17163,0.17163c-0.04291,0.04291 -0.08582,0.08582 -0.12872,0.12872c-0.08582,0.04291 -0.12872,0.08582 -0.12872,0.08582c0,0 0.04291,-0.04291 0.08582,-0.12872c0,-0.04291 0.04291,-0.08582 0.08581,-0.12872c0.04291,-0.04291 0.08582,-0.08581 0.12872,-0.17163c0.04291,-0.04291 0.08582,-0.12872 0.12872,-0.21454c0.04291,-0.08582 0.08582,-0.17163 0.08582,-0.25745c0,-0.08582 0.04291,-0.21454 0.04291,-0.30036c0.04291,-0.08582 0.04291,-0.21454 0.04291,-0.30035c0.04291,-0.08582 0,-0.21454 0,-0.30036c0,-0.08582 0,-0.21454 -0.04291,-0.30035c-0.04291,-0.17163 -0.12872,-0.34327 -0.17163,-0.5149c-0.12872,-0.30035 -0.21454,-0.51489 -0.21454,-0.51489c0,0 0.17163,0.17163 0.30036,0.34326z" fill="#99918a" stroke-width="1"/><path d="M328.24816,168.21944c0.08582,0 0.21454,0 0.34326,0c0.08582,0 0.12872,0 0.21454,-0.04291c0.08582,0 0.12872,-0.04291 0.21454,-0.08582c0.04291,-0.04291 0.12873,-0.08581 0.17163,-0.17163c0.08582,-0.08582 0.12872,-0.12872 0.17163,-0.21454c0.04291,-0.04291 0.08582,-0.12872 0.12872,-0.21454c0.04291,-0.08582 0.04291,-0.17163 0.08582,-0.25745c0.04291,-0.17163 0.08582,-0.34326 0.12872,-0.47199c0.08582,-0.30035 0.12872,-0.47199 0.12872,-0.47199c0,0 0.04291,0.17163 0.04291,0.47199c0,0.17163 0,0.34326 -0.04291,0.47199c-0.04291,0.12872 -0.04291,0.21454 -0.08582,0.30036c-0.04291,0.12872 -0.08582,0.21454 -0.12872,0.30035c-0.08582,0.08582 -0.12872,0.17163 -0.21454,0.25745c-0.08582,0.08582 -0.17163,0.12873 -0.25745,0.17163c-0.17163,0.08582 -0.34326,0.08581 -0.51489,0.08581c-0.30035,-0.04291 -0.47199,-0.17163 -0.47199,-0.17163c0,0 0.04291,0.04291 0.08582,0.04291z" fill="#99918a" stroke-width="1"/><path d="M332.23857,168.47688c-0.25745,0.08582 -0.5578,0.08582 -0.90106,0.04291c-0.17163,-0.04291 -0.34326,-0.08582 -0.47199,-0.17163c-0.12872,-0.08582 -0.25744,-0.17163 -0.34326,-0.25745c-0.17163,-0.17163 -0.21454,-0.34326 -0.21454,-0.34326c0,0 0.04291,0.04291 0.08582,0.08582c0.04291,0.08582 0.12872,0.12872 0.21454,0.17163c0.04291,0.04291 0.12873,0.04291 0.17163,0.08582c0.04291,0.04291 0.12872,0.04291 0.17163,0.08582c0.12872,0.08582 0.30036,0.08582 0.42908,0.12872c0.30035,0.04291 0.6007,0.08582 0.81524,0.08582c0.21454,0.04291 0.38617,0.04291 0.38617,0.04291c0,0 -0.12872,0.08581 -0.34326,0.04291z" fill="#99918a" stroke-width="1"/><path d="M314.17443,165.04427c0,0.64361 -0.04291,1.41595 -0.08582,2.2312c-0.04291,0.21454 -0.04291,0.38617 -0.08581,0.60071c-0.04291,0.21454 -0.04291,0.38617 -0.08582,0.60071c-0.04291,0.21454 -0.12872,0.38617 -0.21454,0.5578c-0.12872,0.17163 -0.21454,0.25745 -0.34326,0.38617c-0.12872,0.12872 -0.25745,0.17163 -0.34326,0.25745c-0.12872,0.08582 -0.21454,0.12873 -0.30035,0.17163c-0.17163,0.08582 -0.25745,0.12872 -0.25745,0.12872c0,0 0.08582,-0.08582 0.21454,-0.17163c0.12872,-0.08582 0.30035,-0.25745 0.51489,-0.47199c0.17163,-0.21454 0.34326,-0.51489 0.38617,-0.85815c0,-0.17163 0.04291,-0.34326 0.04291,-0.5578c0,-0.21454 0.04291,-0.38617 0.04291,-0.60071c0.04291,-0.38617 0.08582,-0.77234 0.12872,-1.15851c0.04291,-0.38617 0.08582,-0.72943 0.12872,-1.02978c0.04291,-0.60071 0.12872,-0.98688 0.12872,-0.98688c0,0 0,0.42908 0.12872,0.90106z" fill="#99918a" stroke-width="1"/><path d="M312.28649,171.60915c-0.04291,0.21454 -0.04291,0.5149 -0.04291,0.90106c0.04291,0.34326 0.08582,0.77234 0.25745,1.20142c0.08582,0.21454 0.21454,0.38617 0.34326,0.60071c0.17163,0.21454 0.30036,0.47199 0.34326,0.72943c0.04291,0.25745 0.04291,0.51489 0.04291,0.77234c-0.04291,0.25745 -0.08581,0.51489 -0.17163,0.72943c-0.04291,0.25745 -0.17163,0.47199 -0.30036,0.64362c-0.12872,0.17163 -0.30035,0.34326 -0.42907,0.47198c-0.12872,0.12872 -0.30036,0.25745 -0.42908,0.30036c-0.12872,0.08582 -0.30035,0.08582 -0.38617,0.12872c-0.12872,0 -0.21454,0 -0.25745,0c-0.04291,0 -0.08582,0 -0.08582,0c0,0 0.04291,0 0.08582,0c0.08582,0 0.17163,0 0.25745,-0.04291c0.08582,-0.04291 0.21454,-0.08582 0.34326,-0.17163c0.04291,-0.04291 0.12872,-0.08582 0.17163,-0.12872c0.04291,-0.04291 0.12873,-0.08581 0.17163,-0.17163c0.12872,-0.12872 0.25745,-0.30036 0.34326,-0.47199c0.08582,-0.17163 0.21454,-0.38617 0.25745,-0.60071c0.08582,-0.21454 0.12872,-0.47199 0.12872,-0.68652c0.04291,-0.21454 0,-0.47199 -0.04291,-0.68652c-0.04291,-0.25745 -0.12872,-0.42907 -0.25745,-0.64361c-0.12872,-0.17163 -0.25745,-0.42907 -0.34326,-0.64361c-0.12872,-0.21454 -0.12872,-0.47199 -0.17163,-0.68652c0,-0.21454 0,-0.42908 0,-0.60071c0.04291,-0.38617 0.12872,-0.68652 0.17163,-0.90106c0.08582,-0.21454 0.12873,-0.34326 0.12873,-0.34326c0,0 -0.04291,0.12872 -0.12873,0.30035z" fill="#99918a" stroke-width="1"/><path d="M312.28649,181.04884c-0.04291,-0.12872 -0.12872,-0.25745 -0.17163,-0.42908c0,-0.08582 0,-0.17163 0,-0.25745c0,-0.08582 0,-0.17163 0.04291,-0.25745c0.04291,-0.08582 0.08582,-0.17163 0.12872,-0.25745c0.04291,-0.04291 0.08582,-0.12873 0.17163,-0.17163c0.12872,-0.08582 0.25745,-0.17163 0.38617,-0.21454c0.12872,-0.04291 0.21454,-0.04291 0.30036,-0.08581c0.08582,-0.04291 0.12872,-0.04291 0.12872,-0.04291c0,0 -0.04291,0.04291 -0.08582,0.08582c-0.04291,0.04291 -0.12872,0.08581 -0.21454,0.17163c-0.04291,0.04291 -0.08582,0.08582 -0.12872,0.12873c-0.04291,0.04291 -0.08582,0.08582 -0.12872,0.12872c-0.04291,0.04291 -0.08582,0.12872 -0.12872,0.17163c-0.04291,0.04291 -0.04291,0.12872 -0.08582,0.17163c0,0.08582 -0.04291,0.12872 -0.04291,0.21454c0,0.08582 0,0.12872 0,0.21454c0,0.12872 0.04291,0.25745 0.08582,0.38617c0.08582,0.25745 0.17163,0.38617 0.17163,0.38617c0,0 -0.12873,-0.08581 -0.42908,-0.34326z" fill="#99918a" stroke-width="1"/><path d="M313.05883,182.76515c0.17163,-0.04291 0.34326,-0.04291 0.5578,-0.08582c0.08582,0 0.21454,-0.04291 0.30036,-0.08582c0.08582,-0.04291 0.17163,-0.04291 0.25745,-0.12872c0.08582,-0.08582 0.12872,-0.12872 0.21454,-0.21454c0.08582,-0.08582 0.12872,-0.17163 0.17163,-0.25745c0.04291,-0.08582 0.08582,-0.17163 0.12872,-0.25745c0.04291,-0.08582 0.04291,-0.17163 0.08582,-0.25745c0.04291,-0.12872 0.04291,-0.30035 0.08582,-0.38617c0.04291,-0.12872 0.04291,-0.17163 0.04291,-0.17163c0,0 0.04291,0.08582 0.04291,0.17163c0,0.08582 0.04291,0.25745 0,0.42907c0,0.08582 0,0.21454 -0.04291,0.30036c0,0.08582 -0.04291,0.21454 -0.08582,0.30035c-0.08582,0.08582 -0.12872,0.21454 -0.21454,0.30036c-0.04291,0.08582 -0.12872,0.17163 -0.25745,0.25745c-0.12872,0.08582 -0.21454,0.12872 -0.34326,0.17163c-0.12872,0.04291 -0.21454,0.08582 -0.34326,0.08582c-0.21454,0.04291 -0.42908,0.04291 -0.60071,0c-0.34326,-0.08582 -0.5578,-0.17163 -0.5578,-0.17163c0,0 0.25745,0.04291 0.5578,0z" fill="#99918a" stroke-width="1"/><path d="M326.48894,157.4067c-0.25745,-0.08582 -0.5149,-0.21454 -0.81525,-0.34326c-0.30035,-0.12872 -0.6007,-0.21454 -0.94397,-0.34326c-0.12872,-0.04291 -0.30036,-0.08582 -0.47199,-0.12872c-0.17163,-0.04291 -0.30036,-0.12872 -0.47199,-0.12872c-0.17163,0 -0.34326,-0.04291 -0.47199,-0.04291c-0.17163,0 -0.30036,0 -0.42908,0c-0.25745,0.04291 -0.47199,0.08582 -0.60071,0.12872c-0.12872,0.08582 -0.21454,0.12873 -0.21454,0.12873c0,0 0.04291,-0.08582 0.17163,-0.17163c0.12872,-0.08582 0.34326,-0.17163 0.60071,-0.21454c0.12872,0 0.25745,-0.04291 0.42907,-0.04291c0.12872,0 0.30036,0.04291 0.47199,0.04291c0.17163,0 0.34327,0.04291 0.5149,0.08582c0.17163,0.04291 0.34326,0.08582 0.51489,0.12872c0.12872,0.04291 0.30036,0.12873 0.47199,0.17163c0.17163,0.04291 0.34326,0.12872 0.47199,0.21454c0.30035,0.12872 0.5578,0.30036 0.77234,0.42908c0.21454,0.12872 0.38617,0.25745 0.51489,0.34326c0.12872,0.08582 0.21454,0.12872 0.21454,0.12872c0,0 -0.34326,-0.12872 -0.72943,-0.38617z" fill="#99918a" stroke-width="1"/><path d="M332.53892,177.05842c-0.08582,0.04291 -0.21454,0.08582 -0.38617,0.08582c-0.08582,0 -0.17163,0 -0.25745,0c-0.08582,0 -0.21454,0 -0.30036,-0.04291c-0.12872,-0.04291 -0.21454,-0.08582 -0.30035,-0.12872c-0.08582,-0.04291 -0.17163,-0.08582 -0.25745,-0.17163c-0.08582,-0.08582 -0.17163,-0.17163 -0.21454,-0.25745c-0.08582,-0.08582 -0.12872,-0.17163 -0.17163,-0.25745c-0.08582,-0.17163 -0.12873,-0.34326 -0.17163,-0.51489c-0.04291,-0.17163 -0.04291,-0.30035 -0.04291,-0.38617c0,-0.08582 0,-0.12872 0,-0.12872c0,0 0,0.04291 0.04291,0.12872c0.04291,0.08582 0.04291,0.21454 0.12872,0.34326c0,0.08582 0.04291,0.12872 0.08582,0.21454c0.04291,0.04291 0.08582,0.12872 0.12872,0.21454c0.04291,0.08582 0.12872,0.12872 0.17163,0.21454c0.04291,0.08582 0.12873,0.12872 0.17163,0.21454c0.08582,0.04291 0.12872,0.12872 0.21454,0.17163c0.04291,0.04291 0.12872,0.08582 0.21454,0.12872c0.17163,0.08582 0.34326,0.12872 0.47199,0.12872c0.12872,0.04291 0.25745,0.04291 0.34326,0.04291c0.08582,0 0.12872,0 0.12872,0c0,0 -0.04291,0 0,0z" fill="#99918a" stroke-width="1"/><path d="M331.89531,170.2361c0,0.25745 0,0.60071 -0.17163,0.90106c-0.08582,0.12872 -0.17163,0.30036 -0.30036,0.38617c-0.08582,0.04291 -0.12872,0.08582 -0.21454,0.12872c-0.08582,0.04291 -0.12872,0.08581 -0.21454,0.08581c-0.12872,0.04291 -0.21454,0.04291 -0.30035,0.04291c-0.08582,0 -0.12872,0 -0.12872,0c0,0 0,0 0.08582,-0.04291c0.04291,0 0.08582,-0.04291 0.12872,-0.04291c0.04291,-0.04291 0.08582,-0.04291 0.12872,-0.08582c0.04291,0 0.08582,-0.04291 0.12872,-0.08581c0.04291,-0.04291 0.08582,-0.08582 0.12872,-0.12872c0.04291,-0.04291 0.08582,-0.12873 0.12872,-0.17163c0,-0.04291 0.04291,-0.08581 0.08582,-0.17163c0.08582,-0.17163 0.12872,-0.30036 0.17163,-0.42908c0.04291,-0.12872 0.04291,-0.25745 0.08582,-0.38617c0.04291,-0.21454 0.08582,-0.38617 0.08582,-0.38617c0,0 0.08581,0.17163 0.17163,0.38617z" fill="#99918a" stroke-width="1"/><path d="M330.95134,181.94991c-0.25745,0 -0.5149,-0.08581 -0.81525,-0.17163c-0.12872,-0.08582 -0.30035,-0.12872 -0.42907,-0.21454c-0.12872,-0.08582 -0.25745,-0.17163 -0.38617,-0.30036c-0.08582,-0.04291 -0.12873,-0.08581 -0.17163,-0.17163c-0.04291,-0.08582 -0.08582,-0.12872 -0.12872,-0.21454c-0.04291,-0.08582 -0.08582,-0.12872 -0.12872,-0.21454c-0.04291,-0.04291 -0.04291,-0.12872 -0.08582,-0.21454c0,-0.08582 -0.04291,-0.12872 -0.04291,-0.21454c0,-0.08582 0,-0.12872 0,-0.21454c0,-0.12872 0,-0.25745 0.04291,-0.38617c0.08582,-0.47199 0.25745,-0.77234 0.25745,-0.77234c0,0 0,0.08582 -0.04291,0.21454c0,0.12872 -0.04291,0.34326 -0.04291,0.5578c0,0.12872 0,0.25745 0,0.38617c0,0.04291 0.04291,0.12872 0.04291,0.17163c0.04291,0.08582 0.04291,0.17163 0.08582,0.21454c0.04291,0.08582 0.04291,0.12872 0.08582,0.21454l0.12872,0.17163c0.04291,0.04291 0.08582,0.12873 0.12872,0.17163c0.08582,0.08582 0.12872,0.12872 0.17163,0.17163c0.08582,0.08582 0.21454,0.17163 0.34326,0.25745c0.12872,0.08582 0.25745,0.17163 0.38617,0.21454c0.25745,0.12872 0.51489,0.21454 0.72943,0.25745c0.47199,0.08582 0.77234,0.12872 0.77234,0.12872c0,0 -0.30036,0.04291 -0.90106,-0.04291z" fill="#99918a" stroke-width="1"/><path d="M331.59495,183.49458c-0.17163,0.04291 -0.38617,0.08582 -0.60071,0.08582c-0.12872,-0.04291 -0.21454,0 -0.34326,-0.04291c-0.12872,-0.04291 -0.21454,-0.04291 -0.34326,-0.08582c-0.12872,-0.04291 -0.21454,-0.08582 -0.34326,-0.12872c-0.12872,-0.04291 -0.21454,-0.12872 -0.30036,-0.17163c-0.08582,-0.04291 -0.17163,-0.12872 -0.25745,-0.17163c-0.08582,-0.04291 -0.17163,-0.12873 -0.21454,-0.17163c-0.12872,-0.12872 -0.21454,-0.25745 -0.25745,-0.34326c-0.04291,-0.08582 -0.08581,-0.12872 -0.08581,-0.12872c0,0 0.04291,0.04291 0.12872,0.08582c0.04291,0.04291 0.08582,0.08582 0.12872,0.12872c0.04291,0.04291 0.08581,0.08582 0.17163,0.12872c0.04291,0.04291 0.12872,0.08582 0.21454,0.12872c0.08582,0.04291 0.17163,0.08582 0.25745,0.12872c0.21454,0.08582 0.38617,0.17163 0.60071,0.21454c0.38617,0.12872 0.81525,0.12872 1.15851,0.12872c0.34326,0 0.5578,-0.04291 0.5578,-0.04291c0,0 -0.21454,0.12872 -0.47199,0.25745z" fill="#99918a" stroke-width="1"/><path d="M330.179,188.47188c-0.17163,-0.17163 -0.38617,-0.38617 -0.5149,-0.68652c-0.08582,-0.12872 -0.12872,-0.30035 -0.12872,-0.42907c0,-0.12872 0,-0.25745 0,-0.38617c0.04291,-0.08582 0.08582,-0.21454 0.08582,-0.25745c0.04291,-0.04291 0.04291,-0.08581 0.04291,-0.08581c0,0 0,0.17163 0.04291,0.38617c0.04291,0.21454 0.08582,0.47199 0.21454,0.72943c0.12872,0.25745 0.25745,0.5149 0.38617,0.68652c0.12872,0.17163 0.21454,0.30035 0.21454,0.30035c0,0 -0.17163,-0.08582 -0.34326,-0.25745z" fill="#99918a" stroke-width="1"/><path d="M328.84886,187.99989c0.04291,0.17163 0.08581,0.42907 0.08581,0.64361c-0.04291,0.08582 -0.04291,0.21454 -0.04291,0.34326c-0.04291,0.12872 -0.04291,0.25745 -0.08582,0.38617c0,0.12872 -0.08582,0.21454 -0.12872,0.34326c-0.04291,0.12872 -0.17163,0.21454 -0.21454,0.30036c-0.04291,0.12872 -0.12872,0.17163 -0.21454,0.25745c-0.08582,0.08582 -0.17163,0.12872 -0.25745,0.17163c-0.12872,0.12872 -0.30036,0.17163 -0.38617,0.21454c-0.12872,0.08582 -0.17163,0.08582 -0.17163,0.08582c0,0 0.04291,-0.04291 0.12872,-0.12872c0.04291,-0.04291 0.08582,-0.08582 0.12872,-0.12872c0.04291,-0.04291 0.12873,-0.12873 0.17163,-0.17163c0.04291,-0.08582 0.12872,-0.12872 0.17163,-0.21454c0.04291,-0.08582 0.12872,-0.17163 0.17163,-0.25745c0.04291,-0.12872 0.12873,-0.21454 0.17163,-0.30035c0.04291,-0.08582 0.08582,-0.17163 0.12872,-0.30036c0.08582,-0.21454 0.08582,-0.42907 0.12872,-0.64361c0,-0.21454 0,-0.42908 0,-0.60071c-0.04291,-0.34326 -0.08582,-0.60071 -0.08582,-0.60071c0,0 0.17163,0.21454 0.30036,0.60071z" fill="#99918a" stroke-width="1"/><path d="M324.81554,193.70661c-0.04291,0 -0.12872,0 -0.17163,-0.04291c-0.04291,0 -0.12873,-0.08582 -0.17163,-0.12872c-0.08582,-0.04291 -0.12872,-0.12872 -0.17163,-0.21454c-0.04291,-0.08582 -0.04291,-0.21454 -0.08582,-0.30035c-0.04291,-0.12872 -0.04291,-0.21454 -0.04291,-0.34326c0,-0.12872 0,-0.21454 0,-0.34326c0.04291,-0.25745 0.08582,-0.42907 0.12872,-0.64361c0.08582,-0.17163 0.17163,-0.38617 0.21454,-0.5149c0.12872,-0.30035 0.25745,-0.47198 0.25745,-0.47198c0,0 0,0.21454 -0.08582,0.51489c-0.04291,0.12872 -0.08582,0.34326 -0.12872,0.51489c-0.04291,0.21454 -0.08582,0.38617 -0.08582,0.60071c0,0.21454 0,0.42908 0,0.60071c0,0.08582 0,0.17163 0.04291,0.25745c0,0.08582 0.04291,0.12872 0.08582,0.21454c0.04291,0.08582 0.08582,0.12872 0.12872,0.17163c0.04291,0.04291 0.08582,0.08582 0.12872,0.08582c0.08582,0.04291 0.12872,0.04291 0.12872,0.04291c0,0 -0.04291,0 -0.17163,0z" fill="#99918a" stroke-width="1"/><path d="M324.21483,192.97718c-0.04291,0.08582 -0.08581,0.21454 -0.17163,0.30036c-0.04291,0.08582 -0.12872,0.21454 -0.21454,0.30035c-0.08582,0.08582 -0.17163,0.17163 -0.30035,0.25745c-0.08582,0.08582 -0.21454,0.17163 -0.34326,0.21454c-0.12872,0.08582 -0.25745,0.12873 -0.38617,0.17163c-0.12872,0.04291 -0.25745,0.04291 -0.38617,0.08581c-0.12872,0 -0.25745,0 -0.38617,0c-0.12872,0 -0.25745,-0.04291 -0.34326,-0.04291c-0.21454,0 -0.34326,-0.08582 -0.47199,-0.12872c-0.12872,-0.04291 -0.17163,-0.08582 -0.17163,-0.08582c0,0 0.04291,0 0.17163,0c0.12872,0 0.25745,0.04291 0.47199,0.04291c0.08582,0 0.17163,0 0.30036,0c0.12872,0 0.21454,-0.04291 0.34326,-0.04291c0.08582,-0.04291 0.21454,-0.04291 0.34326,-0.08581c0.12872,-0.04291 0.25744,-0.04291 0.34326,-0.12872c0.08582,-0.04291 0.21454,-0.08582 0.30036,-0.17163c0.12872,-0.04291 0.21454,-0.12872 0.30035,-0.21454c0.04291,-0.08582 0.12872,-0.17163 0.21454,-0.25745c0.04291,-0.08582 0.12873,-0.17163 0.17163,-0.25745c0.12872,-0.12872 0.21454,-0.30035 0.25745,-0.38617c0.04291,-0.12872 0.08581,-0.17163 0.08581,-0.17163c0,0 -0.04291,0.25745 -0.12872,0.60071z" fill="#99918a" stroke-width="1"/><path d="M319.49498,194.77931c-0.12872,0 -0.25745,0.04291 -0.38617,0.08582c-0.12872,0.04291 -0.25745,0.04291 -0.42908,0.04291c-0.08582,0 -0.17163,0 -0.25745,0c-0.08582,0 -0.17163,0 -0.25745,-0.04291c-0.17163,-0.04291 -0.34326,-0.12872 -0.47199,-0.21454l-0.21454,-0.17163c-0.08582,-0.04291 -0.12872,-0.12873 -0.17163,-0.17163c-0.12872,-0.08582 -0.17163,-0.25745 -0.25745,-0.38617c-0.12872,-0.25745 -0.21454,-0.5578 -0.17163,-0.81525c0.04291,-0.25745 0.17163,-0.42907 0.30036,-0.51489c0.12872,-0.08582 0.21454,-0.08582 0.21454,-0.08582c0,0 -0.08582,0.04291 -0.17163,0.12873c-0.08582,0.08582 -0.17163,0.25744 -0.17163,0.47198c0.04291,0.21454 0.12872,0.42908 0.25745,0.68652c0.08582,0.12872 0.17163,0.25745 0.25745,0.34326c0.04291,0.08582 0.08582,0.12872 0.12872,0.17163l0.17163,0.12872c0.12872,0.04291 0.25745,0.12873 0.38617,0.17163c0.08582,0 0.12872,0.04291 0.21454,0.04291c0.08582,0.04291 0.12872,0.04291 0.21454,0.04291c0.30035,0.04291 0.5578,0 0.77234,-0.04291c0.25745,-0.08582 0.42907,-0.12872 0.5578,-0.17163c0.12872,-0.04291 0.21454,-0.08582 0.21454,-0.08582c0,0 -0.25745,0.21454 -0.72943,0.38617z" fill="#99918a" stroke-width="1"/><path d="M320.22441,191.47542c-0.08582,0 -0.21454,0 -0.38617,-0.04291c-0.08582,-0.04291 -0.17163,-0.04291 -0.25745,-0.08582c-0.08582,-0.04291 -0.17163,-0.08582 -0.25745,-0.12872c-0.08582,-0.04291 -0.17163,-0.12872 -0.25745,-0.21454c-0.08582,-0.08582 -0.12872,-0.17163 -0.21454,-0.25745c-0.04291,-0.08582 -0.08582,-0.17163 -0.12872,-0.30036c-0.04291,-0.08582 -0.08582,-0.21454 -0.08582,-0.30035c0,-0.21454 0,-0.38617 0,-0.5578c0,-0.17163 0.08582,-0.30035 0.08582,-0.38617c0.04291,-0.08582 0.04291,-0.12872 0.04291,-0.12872c0,0 0,0.04291 0,0.12872c0,0.08582 0,0.21454 0.04291,0.38617c0,0.08582 0.04291,0.17163 0.04291,0.25745c0,0.08582 0.04291,0.17163 0.04291,0.25745c0,0.08582 0.04291,0.17163 0.08582,0.25745c0.04291,0.08582 0.08582,0.17163 0.12872,0.25745c0.04291,0.04291 0.08581,0.12872 0.17163,0.21454c0.08582,0.08582 0.12872,0.17163 0.21454,0.21454c0.12872,0.12872 0.30036,0.21454 0.42908,0.25745c0.12872,0.08582 0.25745,0.12872 0.34326,0.12872c0.08582,0.04291 0.12872,0.04291 0.12872,0.04291c0,0 -0.04291,0 -0.17163,0z" fill="#99918a" stroke-width="1"/><path d="M316.19109,186.41231c0.08582,-0.08582 0.17163,-0.17163 0.21454,-0.30036c0.04291,-0.08582 0.04291,-0.12872 0.08581,-0.21454c0,-0.04291 0.04291,-0.12872 0.04291,-0.21454c0.08582,-0.30035 0.08582,-0.60071 0.12872,-0.85815c0,-0.25745 0.04291,-0.42908 0.04291,-0.42908c0,0 0.08582,0.12872 0.12872,0.38617c0,0.12872 0.04291,0.25745 0.04291,0.42908c0,0.08582 0,0.17163 0,0.25745c0,0.08582 0,0.17163 -0.04291,0.25745c-0.04291,0.08582 -0.04291,0.17163 -0.08582,0.25745c-0.04291,0.08582 -0.08582,0.12872 -0.12872,0.21454c-0.04291,0.04291 -0.12872,0.12873 -0.17163,0.17163c-0.04291,0.04291 -0.12872,0.08582 -0.17163,0.12872c-0.12872,0.04291 -0.21454,0.08581 -0.30036,0.08581c-0.08582,0 -0.12872,0 -0.12872,0c0,0 0.17163,-0.04291 0.34326,-0.17163z" fill="#99918a" stroke-width="1"/><path d="M327.04674,189.88783c0.04291,-0.25745 0.08582,-0.64362 0.12872,-1.02979c0.04291,-0.17163 0.04291,-0.38617 0.04291,-0.5578c0,-0.08582 0,-0.17163 0,-0.25745c-0.04291,-0.08582 -0.04291,-0.12872 -0.04291,-0.21454c-0.04291,-0.12872 -0.04291,-0.25745 -0.08582,-0.34326c-0.04291,-0.08582 -0.04291,-0.12872 -0.04291,-0.12872c0,0 0.04291,0.04291 0.08581,0.12872c0.04291,0.08582 0.12873,0.21454 0.17163,0.34326c0.04291,0.17163 0.08582,0.34326 0.12872,0.51489c0,0.21454 0,0.38617 0,0.60071c-0.04291,0.42908 -0.12872,0.81525 -0.25745,1.07269c-0.12872,0.25745 -0.21454,0.42907 -0.21454,0.42907c0,0 0.04291,-0.21454 0.08582,-0.5578z" fill="#99918a" stroke-width="1"/></g><path d="M319.36452,166.16725c-0.03055,-0.49739 0.32871,-0.90651 0.80244,-0.91378c0.47372,-0.00727 0.88252,0.39004 0.91307,0.88744c0.03055,0.49739 -0.32871,0.90651 -0.80244,0.91379c-0.47372,0.00727 -0.88252,-0.39005 -0.91307,-0.88744z" fill="#d23d3d" stroke-width="1"/><path d="M325.59414,165.99717c-0.02927,-0.49739 0.31502,-0.90651 0.769,-0.91378c0.45398,-0.00727 0.84574,0.39005 0.87502,0.88744c0.02927,0.49739 -0.31502,0.90651 -0.769,0.91378c-0.45398,0.00727 -0.84575,-0.39005 -0.87502,-0.88744z" fill="#d23d3d" stroke-width="1"/><path d="M319.66662,165.43044c-0.77234,0 -1.15851,0.51489 -1.15851,0.51489c0.04291,-0.38617 0.47199,-0.68652 0.47199,-0.68652l-0.64361,0.12872c0.42908,-1.02979 1.84503,-0.85815 1.84503,-0.85815l-0.47199,-0.12872c0.85815,-0.34326 1.97375,-0.12873 1.97375,-0.12873l-0.38617,-0.25745c0.90106,-0.08582 1.45886,0.5149 1.24432,0.98688c-0.21454,0.38617 -2.05957,0.51489 -2.87481,0.42907z" fill="#c8bdb4" stroke-width="1"/><path d="M324.30065,165.04427c-0.25745,-0.47199 0.21454,-1.07269 1.15851,-1.1156l-0.34326,0.30035c0,0 1.07269,-0.30035 1.97375,-0.04291l-0.47199,0.17163c0,0 1.37305,-0.30035 1.88794,0.68652l-0.68652,-0.04291c0,0 0.42908,0.25745 0.5578,0.64361c0,0 -0.42908,-0.51489 -1.20142,-0.38617c-0.77234,0.08582 -2.66028,0.17163 -2.87482,-0.21454z" fill="#c8bdb4" stroke-width="1"/><path d="M321.03966,166.93221c-0.12872,0.08582 -0.34326,0.17163 -0.51489,0.21454c-0.17163,0.04291 -0.38617,0.08582 -0.5149,0.12872c-0.04291,0.04291 -0.12872,0.04291 -0.17163,0.04291c-0.04291,0 -0.08582,0 -0.08582,0c0,0 0.04291,-0.08582 0.17163,-0.17163c0.12872,-0.08582 0.30035,-0.21454 0.51489,-0.25745c0.21454,-0.04291 0.38617,-0.08582 0.5578,-0.08582c0.17163,0 0.25745,0.04291 0.25745,0.04291c0,0 -0.08582,0.08582 -0.21454,0.08582z" fill="#666168" stroke-width="1"/><path d="M326.74638,166.97512c-0.12872,0 -0.34326,0 -0.51489,-0.04291c-0.17163,-0.04291 -0.34326,-0.08582 -0.47199,-0.12873c-0.12872,-0.04291 -0.21454,-0.08581 -0.21454,-0.08581c0,0 0.12872,-0.04291 0.25745,-0.08582c0.12872,-0.04291 0.34327,-0.04291 0.5149,0c0.17163,0.04291 0.34326,0.08581 0.47199,0.17163c0.12872,0.08582 0.21454,0.12873 0.21454,0.12873c0,0 -0.08582,0.04291 -0.25745,0.04291z" fill="#666168" stroke-width="1"/><g stroke-width="1"><path d="M325.7166,170.02156c0,0 0.64361,-0.17163 1.1156,0.5578c0.47199,0.72943 0.90106,0.64361 0.90106,0.64361c0,0 -0.47198,0.47199 -1.02978,0.17163c0,0 0.5149,0.77234 -0.17163,1.28723c0,0 0,-0.60071 -0.21454,-0.90106c0,0 0.17163,1.02978 -0.77234,1.24432c0,0 0,-0.25745 0,-0.64361c0,0 -0.04291,0.30036 -0.64361,0.47199l-0.04291,-0.90106c0.12872,0.77234 -0.68652,1.07269 -0.68652,1.07269c-0.30035,-0.30035 -0.08582,-1.07269 -0.08582,-1.07269c-0.21454,0.12872 -0.30035,1.15851 -0.30035,1.15851c-0.25745,-0.25745 -0.30036,-1.15851 -0.30036,-1.15851c0.12872,0.98688 -0.90106,1.28723 -0.90106,1.28723c0.21454,-0.21454 -0.25745,-1.28723 -0.25745,-1.28723c0.12872,0.94397 -0.38617,1.28723 -0.38617,1.28723c-0.38617,-0.21454 -0.30035,-0.94397 -0.30035,-0.94397l-0.47199,0.94397c-0.64361,-0.42908 -0.12872,-1.15851 -0.12872,-1.15851c-0.21454,0.12872 -0.51489,0.77234 -0.51489,0.77234c-0.04291,-0.5578 0.21454,-1.24433 0.21454,-1.24433c-0.17163,0.30035 -0.85816,0.12872 -0.85816,0.12872c0.21454,0 0.64362,-0.47198 0.94397,-0.81524c1.15851,-1.41596 3.08936,-0.90106 3.08936,-0.90106" fill="#c8bdb4"/><path d="M327.34709,171.13716c-0.12872,-0.04291 -0.25745,-0.12872 -0.34326,-0.21454c-0.12872,-0.08582 -0.21454,-0.21454 -0.30035,-0.30036c-0.17163,-0.21454 -0.38617,-0.38617 -0.5578,-0.47199c-0.12872,-0.04291 -0.21454,-0.08582 -0.25745,-0.08582c-0.04291,-0.04291 -0.08582,-0.04291 -0.08582,-0.04291c0,0 0.12873,-0.08581 0.38617,-0.04291c0.12872,0 0.25745,0.04291 0.38617,0.12872c0.12872,0.08582 0.25745,0.17163 0.34326,0.30035c0.08582,0.12872 0.17163,0.25745 0.25745,0.34326c0.08582,0.08582 0.17163,0.17163 0.25745,0.25745c0.08582,0.08582 0.17163,0.12873 0.21454,0.17163c0.04291,0.04291 0.08581,0.04291 0.08581,0.04291c0,0 -0.17163,0.04291 -0.38617,-0.08582z" fill="#99918a"/><path d="M326.48894,171.99532c0,0.17163 0,0.38617 -0.12872,0.60071c-0.04291,0.12872 -0.12872,0.21454 -0.21454,0.25745c-0.08582,0.08582 -0.17163,0.12872 -0.25745,0.12872c-0.08582,0.04291 -0.17163,0.04291 -0.21454,0.04291c-0.04291,0 -0.08581,0 -0.08581,0c0,0 0,0 0.04291,-0.04291c0.04291,-0.04291 0.08582,-0.08582 0.12872,-0.12872c0.04291,-0.04291 0.12873,-0.12873 0.17163,-0.17163c0.08582,-0.08582 0.12872,-0.12872 0.17163,-0.21454c0.08582,-0.17163 0.12872,-0.34326 0.17163,-0.47199c0.04291,-0.12872 0.04291,-0.25745 0.04291,-0.25745c0,0 0.08581,0.12872 0.17163,0.25745z" fill="#99918a"/><path d="M322.06945,170.15029c-0.30035,0.12872 -0.68653,0.30036 -0.98688,0.5578c-0.17163,0.12872 -0.30035,0.25745 -0.42907,0.42907c-0.12872,0.12872 -0.30036,0.25745 -0.42908,0.34326c-0.25745,0.17163 -0.47199,0.25745 -0.47199,0.25745c0,0 0.17163,-0.17163 0.38617,-0.38617c0.08582,-0.08582 0.21454,-0.25745 0.34326,-0.38617c0.04291,-0.08582 0.08582,-0.17163 0.17163,-0.25745c0.08582,-0.04291 0.17163,-0.12872 0.25745,-0.21454c0.38617,-0.25745 0.81525,-0.42908 1.1156,-0.47199c0.34326,-0.04291 0.5578,-0.04291 0.5578,-0.04291c0,0 -0.21454,0.08581 -0.51489,0.17163z" fill="#99918a"/><path d="M321.68328,172.51021c0,0.08582 0.04291,0.17163 0.08582,0.30035c0.04291,0.08582 0.04291,0.21454 0.08582,0.30036c0,0.08582 0.04291,0.17163 0.04291,0.17163c0,0 -0.08581,0 -0.17163,-0.04291c-0.12872,-0.08582 -0.21454,-0.21454 -0.25745,-0.34326c-0.04291,-0.12872 -0.04291,-0.30035 0,-0.38617c0.04291,-0.12872 0.08581,-0.17163 0.08581,-0.17163c0,0 0.04291,0.04291 0.12872,0.17163z" fill="#99918a"/><path d="M324.08611,172.16695c0.04291,0.08582 0.04291,0.21454 0.04291,0.34326c0,0.12872 0,0.25745 0,0.34326c0,0.04291 0,0.08582 0,0.12872v0.04291c0,0 -0.08582,-0.04291 -0.17163,-0.12872c-0.08582,-0.08582 -0.12872,-0.25745 -0.12872,-0.38617c0,-0.12872 0.04291,-0.30035 0.08582,-0.38617c0.04291,-0.12872 0.08582,-0.17163 0.08582,-0.17163c0,0 0.04291,0.08582 0.08581,0.21454z" fill="#99918a"/><path d="M322.41271,172.16695c0.08582,0.08582 0.17163,0.25745 0.21454,0.42907c0.04291,0.17163 0.04291,0.34326 0,0.47199c-0.04291,0.17163 -0.12872,0.17163 -0.12872,0.17163c0,0 0,0 0,-0.04291c0,0 -0.04291,-0.08582 -0.04291,-0.12872c-0.04291,-0.12872 -0.08582,-0.25745 -0.12872,-0.42907c-0.04291,-0.12872 -0.08582,-0.30036 -0.08582,-0.42908c0,-0.12872 0,-0.21454 0,-0.21454c0,0 0.08581,0.08582 0.17163,0.17163z" fill="#99918a"/><path d="M323.52831,172.4673c0.04291,0.04291 0.08582,0.17163 0.12872,0.25745c0.04291,0.12872 0.04291,0.21454 0.04291,0.30035c0,0.04291 0,0.04291 0,0.08582c0,0.04291 0,0.04291 0,0.04291c0,0 -0.04291,0 -0.12872,-0.08582c-0.08582,-0.08582 -0.12872,-0.17163 -0.17163,-0.30035c-0.04291,-0.08582 0,-0.21454 0,-0.30036c0,-0.08582 0.04291,-0.12872 0.04291,-0.12872c0,0 0.04291,0.04291 0.08582,0.12872z" fill="#99918a"/><path d="M326.8322,171.52333c0.04291,0.12872 0.12872,0.30035 0.12872,0.51489c0,0.12872 -0.04291,0.21454 -0.08582,0.30035c-0.04291,0.08582 -0.12872,0.17163 -0.17163,0.21454c-0.12872,0.08582 -0.21454,0.08582 -0.21454,0.08582c0,0 0.08582,-0.08582 0.12872,-0.21454c0.04291,-0.08582 0.08582,-0.25745 0.08582,-0.38617c0.04291,-0.12872 0,-0.30036 0,-0.42908c0,-0.12872 0,-0.21454 0,-0.21454c0,0 0.08582,0.04291 0.12872,0.12872z" fill="#99918a"/><path d="M320.78222,173.19673c-0.04291,-0.04291 -0.12873,-0.08581 -0.17163,-0.17163c0,-0.04291 -0.04291,-0.08582 -0.04291,-0.12872c0,-0.04291 0,-0.08582 0,-0.12872c0,-0.21454 0.08582,-0.38617 0.17163,-0.47199c0.08582,-0.12872 0.17163,-0.17163 0.17163,-0.17163c0,0 0,0.08581 0,0.21454c-0.04291,0.12872 -0.04291,0.30036 -0.04291,0.42908c0,0.12872 0.04291,0.25745 0.08581,0.34326c0.08582,0.08582 0.12872,0.17163 0.12872,0.17163c0,0 -0.08581,0.04291 -0.30035,-0.08582z" fill="#99918a"/><path d="M322.75597,170.32192c-0.12872,0.08582 -0.25745,0.17163 -0.42907,0.25745c-0.17163,0.08582 -0.30036,0.21454 -0.42908,0.30035c-0.12872,0.08582 -0.21454,0.17163 -0.21454,0.17163c0,0 0,-0.12872 0.08582,-0.25745c0,-0.04291 0.04291,-0.12872 0.12872,-0.21454c0.08582,-0.08582 0.17163,-0.17163 0.25745,-0.21454c0.17163,-0.12872 0.38617,-0.17163 0.5578,-0.17163c0.17163,0 0.25745,0.04291 0.25745,0.04291c0,0 -0.08582,0.04291 -0.21454,0.08582z" fill="#99918a"/><path d="M323.31377,170.40773c-0.04291,0.08582 -0.12873,0.12873 -0.17163,0.17163c-0.08582,0.04291 -0.12872,0.04291 -0.21454,0.08581c-0.08582,0.04291 -0.12872,0.04291 -0.12872,0.04291c0,0 0,-0.04291 0,-0.12872c0.04291,-0.04291 0.08581,-0.17163 0.17163,-0.21454c0.08582,-0.08582 0.17163,-0.08582 0.25745,-0.08582c0.08582,0 0.12872,0.04291 0.12872,0.04291c0,0 -0.04291,0.04291 -0.04291,0.08581z" fill="#99918a"/><path d="M325.54497,170.15029c0.08582,0 0.21454,0.08582 0.34326,0.17163c0.12872,0.08582 0.17163,0.25744 0.21454,0.34326c0,0.08582 0,0.17163 0,0.17163c0,0 -0.04291,-0.04291 -0.12872,-0.08582c-0.08582,-0.08582 -0.17163,-0.12872 -0.25745,-0.21454c-0.08582,-0.04291 -0.17163,-0.12872 -0.25745,-0.21454c-0.08582,-0.08582 -0.12872,-0.12872 -0.12872,-0.12872c0,0 0.08581,0 0.21454,-0.04291z" fill="#99918a"/></g><g stroke-width="1"><path d="M323.61412,165.85952c0.42908,-0.04291 1.75922,0.25745 1.6734,2.789c0,0 1.45886,1.54468 -0.47199,1.71631c-1.93085,0.17163 -2.83191,-0.5149 -2.18829,-1.02979c0,0 -0.64362,-3.3468 0.98688,-3.47552z" fill="#847e87"/><path d="M324.64391,166.15987c0.12872,0.08582 0.21454,0.17163 0.30035,0.25745c0.08582,0.12872 0.12872,0.21454 0.21454,0.34326c0.08582,0.08582 0.12873,0.21454 0.17163,0.34326c0.08582,0.25745 0.12872,0.51489 0.17163,0.77234c0,0.12872 0,0.25745 0,0.38617l-0.04291,0.38617l-0.04291,-0.08582c0.21454,0.21454 0.38617,0.42908 0.5149,0.72943c0.04291,0.12872 0.08581,0.30036 0.04291,0.47199c0,0.17163 -0.12872,0.30035 -0.25745,0.38617c-0.25745,0.17163 -0.5578,0.25745 -0.85815,0.25745c-0.30035,0 -0.5578,0 -0.85815,-0.04291c0.30035,0 0.60071,-0.04291 0.85815,-0.08582c0.12872,0 0.25745,-0.04291 0.38617,-0.08581c0.12872,-0.04291 0.25745,-0.08582 0.34326,-0.17163c0.08582,-0.08582 0.17163,-0.17163 0.17163,-0.30035c0.04291,-0.08582 0,-0.21454 -0.04291,-0.34326c-0.12872,-0.21454 -0.30036,-0.47199 -0.47199,-0.64362l-0.04291,-0.04291v-0.04291v-0.38617c0,-0.12872 0,-0.25745 0,-0.38617c-0.04291,-0.25745 -0.04291,-0.51489 -0.12872,-0.72943c-0.04291,-0.12872 -0.08582,-0.21454 -0.12872,-0.34326c-0.04291,-0.12872 -0.08581,-0.25744 -0.17163,-0.34326c-0.12872,-0.17163 -0.30035,-0.38617 -0.51489,-0.5149c0.08582,0.04291 0.21454,0.12872 0.38617,0.21454z" fill="#666168"/><path d="M324.30065,168.60561c0.17163,-0.04291 0.38617,-0.12872 0.60071,-0.12872c0.21454,0.04291 0.42908,0.12872 0.5578,0.25745c0.08582,0.12872 0.12872,0.21454 0.12872,0.21454c0,0 -0.04291,-0.04291 -0.08582,-0.04291c-0.04291,-0.04291 -0.08581,-0.04291 -0.17163,-0.08582c-0.04291,-0.04291 -0.12872,-0.08582 -0.21454,-0.08582c-0.08582,-0.04291 -0.17163,-0.04291 -0.25745,-0.04291c-0.17163,0 -0.34327,0.04291 -0.5149,0.04291c-0.12872,0 -0.25745,0 -0.25745,0c0,0 0.04291,-0.08582 0.21454,-0.12872z" fill="#666168"/></g><path d="M325.97405,162.81307c-0.17163,0 -0.38617,0 -0.68652,0.04291c-0.30035,0.04291 -0.60071,0.08581 -0.94397,0.17163c-0.17163,0.04291 -0.34326,0.08582 -0.51489,0.17163c-0.17163,0.08582 -0.38617,0.12872 -0.60071,0.17163c-0.42908,0.04291 -0.81524,-0.04291 -1.15851,-0.08582c-0.38617,-0.08582 -0.68653,-0.12872 -0.98688,-0.12872c-0.30035,-0.04291 -0.51489,-0.04291 -0.68652,-0.04291c-0.17163,0 -0.25745,0 -0.25745,0c0,0 0.34326,-0.08582 0.94397,-0.12872c0.30035,0 0.64362,0 0.98688,0.04291c0.34326,0 0.72943,0.08582 1.07269,0.04291c0.17163,0 0.34327,-0.04291 0.5149,-0.12873c0.17163,-0.04291 0.38617,-0.12872 0.5578,-0.17163c0.34326,-0.08582 0.68652,-0.08582 0.98688,-0.08582c0.5578,0 0.94397,0.08582 0.94397,0.08582c0,0 -0.08581,0.04291 -0.17163,0.04291z" fill="#666168" stroke-width="1"/><path d="M324.72973,162.25527c-0.17163,0.04291 -0.42908,0.08581 -0.68652,0.17163c-0.12872,0.04291 -0.25745,0.08582 -0.38617,0.12872c-0.12872,0.04291 -0.30036,0.08582 -0.42908,0.12872c-0.17163,0.04291 -0.30036,0.08582 -0.47199,0.08582c-0.12872,0 -0.30035,-0.04291 -0.42907,-0.08582c-0.12872,-0.04291 -0.25745,-0.08582 -0.38617,-0.12872c-0.12872,-0.04291 -0.25744,-0.08581 -0.34326,-0.08581c-0.21454,0 -0.38617,-0.04291 -0.5149,-0.04291c-0.12872,0 -0.21454,0 -0.21454,0c0,0 0.08581,0 0.21454,-0.04291c0.12872,0 0.30036,-0.04291 0.5149,-0.04291c0.21454,-0.04291 0.47199,0 0.72943,0.08582c0.12872,0.04291 0.25745,0.04291 0.38617,0.04291c0.12872,0 0.25745,0 0.38617,-0.04291c0.12872,-0.04291 0.25745,-0.08582 0.38617,-0.12872c0.17163,-0.04291 0.30036,-0.08582 0.42908,-0.12872c0.25745,-0.08582 0.51489,-0.12872 0.72943,-0.12872c0.42908,-0.04291 0.72943,0 0.72943,0c0,0 -0.30035,0.04291 -0.64361,0.21454z" fill="#666168" stroke-width="1"/><g stroke-width="1"><g><path d="M313.95989,161.48293c-0.68652,-3.00354 0.5149,-10.81274 1.02979,-12.35742c0.51489,-1.58758 0.5149,-2.83191 0.08582,-4.37658c-0.68652,-2.44574 0.08581,-5.14893 0.08581,-5.14893c0.38617,1.63049 3.47552,3.64715 4.54822,4.67694c1.07269,1.02979 2.57446,5.44928 3.17517,6.43615c0.60071,0.98688 2.31702,1.84503 3.13226,3.00354c0.81525,1.20142 4.03333,6.6936 4.03333,6.6936c-8.71026,-1.97375 -16.09039,1.07269 -16.09039,1.07269z" fill="#3f3f74"/><path d="M313.65954,161.05385c0,0 -0.04291,-0.5578 -0.04291,-1.37305c-0.04291,-0.81525 -0.04291,-1.88794 0.04291,-3.00354c0.04291,-0.51489 0.08582,-1.0727 0.12872,-1.58759c0.08582,-0.47199 0.12872,-0.98688 0.21454,-1.37305c0.08582,-0.42908 0.12872,-0.77234 0.21454,-0.98688c0.04291,-0.25745 0.08582,-0.38617 0.08582,-0.38617c0,0 0,0.12872 -0.04291,0.38617c-0.04291,0.25745 -0.08582,0.60071 -0.12872,0.98688c-0.04291,0.81525 -0.12873,1.93085 -0.17163,3.00354c-0.04291,1.07269 -0.04291,2.18829 -0.04291,3.00354c0.04291,0.81525 0.04291,1.37305 0.04291,1.37305z" fill="#1a324a"/><path d="M324.08611,151.95742c-0.25745,-0.17163 -0.60071,-0.42907 -0.94397,-0.68652c-0.34326,-0.30035 -0.64361,-0.5578 -0.85815,-0.81525c-0.21454,-0.25745 -0.34326,-0.42908 -0.34326,-0.42908c0,0 0.17163,0.12873 0.42908,0.30036c0.25745,0.21454 0.5578,0.47199 0.90106,0.72943c0.30035,0.25745 0.64362,0.5578 0.85816,0.77234c0.25745,0.21454 0.38617,0.38617 0.38617,0.38617c0,0 -0.21454,-0.08582 -0.42908,-0.25745z" fill="#1a324a"/><path d="M315.59038,147.83828c-0.08582,0.30035 -0.21454,0.72943 -0.34326,1.1156c-0.12872,0.42908 -0.30035,0.81525 -0.38617,1.1156c-0.04291,0.17163 -0.12872,0.30035 -0.12872,0.38617c-0.04291,0.08582 -0.04291,0.12872 -0.04291,0.12872c0,0 -0.04291,-0.21454 0,-0.5578c0,-0.34326 0.12872,-0.72943 0.25745,-1.15851c0.12872,-0.38617 0.30036,-0.77234 0.47199,-1.07269c0.17163,-0.30035 0.30036,-0.47199 0.30036,-0.47199c0,0 -0.04291,0.21454 -0.12872,0.51489z" fill="#1a324a"/></g><g><path d="M339.6187,163.07052c-2.40283,-1.02979 -14.24536,-2.66028 -21.36804,-1.58759c-7.12268,1.07269 -12.48614,3.43262 -15.27514,4.63403c0,0 12.65778,-5.79254 13.55884,-6.26453c0.90106,-0.42908 3.51843,-2.44574 11.67089,-0.42908c8.15247,2.01666 11.41345,3.64716 11.41345,3.64716z" fill="#3f3f74"/><path d="M319.23754,159.80953c-0.25745,0.04291 -0.6007,0.12872 -1.02978,0.21454c-0.81525,0.21454 -1.93085,0.51489 -3.04645,0.85815c-0.5578,0.17163 -1.07269,0.38617 -1.58758,0.5578c-0.25745,0.12872 -0.51489,0.21454 -0.72943,0.30036c-0.21454,0.08582 -0.42907,0.17163 -0.64361,0.25745c-0.21454,0.08582 -0.38617,0.12872 -0.5578,0.21454c-0.17163,0.04291 -0.30035,0.12873 -0.42907,0.17163c-0.25745,0.12872 -0.38617,0.17163 -0.38617,0.17163c0,0 0.12872,-0.08582 0.34326,-0.21454c0.25745,-0.12872 0.5578,-0.34326 0.94397,-0.51489c0.42908,-0.21454 0.85815,-0.42907 1.37305,-0.64361c0.47199,-0.21454 1.02979,-0.42908 1.58759,-0.60071c0.25745,-0.08582 0.5578,-0.17163 0.81524,-0.25745c0.25745,-0.08582 0.5578,-0.17163 0.81525,-0.21454c0.51489,-0.12872 1.02978,-0.17163 1.45886,-0.25745c0.85815,-0.12872 1.45886,-0.12872 1.45886,-0.12872c0,0 -0.12872,0 -0.38617,0.08581z" fill="#1a324a"/><path d="M330.56517,160.06698c-0.34326,-0.08582 -0.77234,-0.17163 -1.20142,-0.25745c-0.42908,-0.08582 -0.90106,-0.17163 -1.37305,-0.21454c-0.47199,-0.08582 -0.94397,-0.12873 -1.37305,-0.17163c-0.42908,-0.04291 -0.85815,-0.08581 -1.20142,-0.08581c-0.34326,-0.04291 -0.64361,-0.04291 -0.85815,-0.04291c-0.21454,0 -0.34326,0 -0.34326,0c0,0 0.12872,0 0.34326,-0.04291c0.21454,-0.04291 0.51489,-0.08582 0.85815,-0.08582c0.17163,0 0.34326,0 0.5578,0c0.21454,0 0.42907,0 0.64361,0c0.47199,0.04291 0.94397,0.08582 1.41596,0.12872c0.47199,0.08582 0.94397,0.17163 1.37305,0.25745c0.42908,0.12872 0.81525,0.21454 1.15851,0.34326c0.68652,0.21454 1.1156,0.42908 1.1156,0.42908c0,0 -0.42907,-0.12872 -1.1156,-0.25745z" fill="#1a324a"/></g></g></g></g></g></svg>